<?xml version="1.0" encoding="UTF-8"?>
<svg xmlns="http://www.w3.org/2000/svg" version="1.1" xmlns:xlink="http://www.w3.org/1999/xlink" viewBox="0 0 67 67">
  <defs>
    <style>
      .cls-1 {
        fill: none;
      }

      .cls-2 {
        fill: #d31400;
      }

      .cls-3 {
        fill: #e8bbba;
      }

      .cls-4 {
        clip-path: url(#clippath);
      }
    </style>
    <clipPath id="clippath">
      <rect class="cls-1" width="67" height="67"/>
    </clipPath>
  </defs>
  <!-- Generator: Adobe Illustrator 28.7.1, SVG Export Plug-In . SVG Version: 1.2.0 Build 142)  -->
  <g>
    <g id="Layer_1">
      <g class="cls-4">
        <g>
          <path class="cls-3" d="M58.6,0H8.4C3.8,0,0,3.8,0,8.4v50.2c0,4.6,3.8,8.4,8.4,8.4h50.2c4.6,0,8.4-3.8,8.4-8.4V8.4c0-4.6-3.8-8.4-8.4-8.4ZM57.7,48.6H9.2c-1.9-5.7-1.9-11.7,0-17.2,4.8-13.4,19.4-20.5,32.8-15.7,13.4,4.6,20.6,19.5,15.7,32.9ZM61.5,11.6h-3.2v3.2c0,.8-.6,1.5-1.5,1.5s-1.5-.6-1.5-1.5v-3.2h-3.2c-.8,0-1.5-.6-1.5-1.5s.6-1.5,1.5-1.5h3.2v-3.1c0-.9.7-1.5,1.5-1.5s1.5.6,1.5,1.5v3.2h3.2c.8,0,1.5.6,1.5,1.5s-.6,1.4-1.5,1.4Z"/>
          <path class="cls-3" d="M44.5,40.7c0,.8.6,1.5,1.5,1.5h9.4c.8,0,1.5-.6,1.5-1.5s-.6-1.5-1.5-1.5h-9.4c-.9,0-1.5.7-1.5,1.5ZM43,35.2c.4.7,1.3,1,2,.5l8.2-4.7c.7-.4,1-1.3.5-2-.4-.7-1.3-1-2-.5l-8.2,4.7c-.6.5-.9,1.3-.5,2ZM45.2,20.5c-.7-.4-1.6-.2-2,.5l-4.7,8.2c-.4.7-.2,1.6.5,2s1.6.2,2-.5l4.7-8.2c.4-.7.2-1.6-.5-2ZM33.5,29.7c.8,0,1.5-.6,1.5-1.5v-9.4c0-.8-.6-1.5-1.5-1.5s-1.5.7-1.5,1.5v9.4c0,.9.7,1.5,1.5,1.5ZM21,39.3h-9.4c-.8,0-1.5.6-1.5,1.5s.6,1.5,1.5,1.5h9.4c.8,0,1.5-.6,1.5-1.5s-.6-1.5-1.5-1.5ZM26,30.7c.4.7,1.3,1,2,.5.7-.4,1-1.3.5-2l-4.7-8.2c-.4-.7-1.3-1-2-.5s-1,1.3-.5,2c0,0,4.7,8.2,4.7,8.2ZM36.4,35.8c-2.3-1.3-5.1-.9-6.9.9l-14.2-8.2c-.7-.4-1.6-.2-2,.5s-.2,1.6.5,2l14.2,8.2c-.7,2.5.4,5.1,2.7,6.5,2.7,1.6,6.2.6,7.8-2.1,1.5-2.7.6-6.2-2.1-7.8Z"/>
          <path class="cls-2" d="M33.5.8C15.5.8.8,15.5.8,33.5s14.7,32.7,32.7,32.7,32.7-14.7,32.7-32.7S51.5.8,33.5.8ZM33.5,10.8c3.7,0,7.1.9,10.2,2.4l-30.5,30.4c-1.5-3.1-2.4-6.5-2.4-10.1,0-12.5,10.2-22.7,22.7-22.7ZM33.5,56.2c-5.2,0-10.1-1.8-13.9-4.8l31.9-31.8c3,3.8,4.8,8.7,4.8,13.9,0,12.5-10.3,22.7-22.8,22.7Z"/>
        </g>
      </g>
    </g>
  </g>
</svg>