<svg
	xmlns="http://www.w3.org/2000/svg" viewBox="0 0 353.4 397.13">
	<defs>
		<style>.cls-1{fill:#d64325;}.cls-2{fill:#d64325;}</style>
	</defs>
	<g id="Layer_2" data-name="Layer 2">
		<path class="cls-1" d="M9.67,254l146.7,135.19a30,30,0,0,0,40.65,0l146.7-135.09A30,30,0,0,0,353.4,232V96A30,30,0,0,0,303.07,74L256.7,116.7V30a30,30,0,0,0-30-30h-100a30,30,0,0,0-30,30v86.65L50.34,73.88A30,30,0,0,0,0,95.93v136A30,30,0,0,0,9.67,254ZM15,95.93a15,15,0,0,1,25.17-11l71.53,66V30a15,15,0,0,1,15-15h100a15,15,0,0,1,15,15V150.92L313.24,85A15,15,0,0,1,338.4,96V232a15,15,0,0,1-4.84,11L186.86,378.16a15,15,0,0,1-20.33,0L19.83,243a15,15,0,0,1-4.83-11Z"/>
		<polygon class="cls-2" points="323.4 232.04 323.4 96.04 226.7 185.14 226.7 30 126.7 30 126.7 185.14 30 95.93 30 231.94 176.7 367.13 323.4 232.04"/>
	</g>
</svg>