<?xml version="1.0" encoding="UTF-8"?>
<svg id="Layer_1" xmlns="http://www.w3.org/2000/svg" version="1.1" viewBox="0 0 512 512">
  <!-- Generator: Adobe Illustrator 29.1.0, SVG Export Plug-In . SVG Version: 2.1.0 Build 142)  -->
  <defs>
    <style>
      .st0 {
        fill: #0875e2;
      }
    </style>
  </defs>
  <path class="st0" d="M464,32h-112c-6.4,0-12.8,3.2-14.4,9.6-3.2,6.4-1.6,12.8,3.2,17.6l33.6,33.6-76.8,76.8c-12.8,12.8-12.8,32,0,44.8,6.4,6.4,14.4,9.6,22.4,9.6s16-3.2,22.4-9.6l76.8-76.8,33.6,33.6c3.2,3.2,6.4,4.8,11.2,4.8s4.8,0,6.4-1.6c6.4-3.2,9.6-8,9.6-14.4V48c0-9.6-6.4-16-16-16h0Z"/>
  <path class="st0" d="M169.6,297.6l-76.8,76.8-33.6-33.6c-4.8-4.8-11.2-6.4-17.6-3.2s-9.6,8-9.6,14.4v112c0,9.6,6.4,16,16,16h112c6.4,0,12.8-3.2,14.4-9.6,3.2-6.4,1.6-12.8-3.2-17.6l-33.6-33.6,76.8-76.8c12.8-12.8,12.8-32,0-44.8s-32-12.8-44.8,0h0Z"/>
  <path class="st0" d="M470.4,337.6c-6.4-3.2-12.8-1.6-17.6,3.2l-33.6,33.6-76.8-76.8c-12.8-12.8-32-12.8-44.8,0s-12.8,32,0,44.8l76.8,76.8-33.6,33.6c-4.8,4.8-6.4,11.2-3.2,17.6s8,9.6,14.4,9.6h112c9.6,0,16-6.4,16-16v-112c0-6.4-3.2-12.8-9.6-14.4h0Z"/>
  <path class="st0" d="M137.6,92.8l33.6-33.6c4.8-4.8,6.4-11.2,3.2-17.6-1.6-6.4-8-9.6-14.4-9.6H48c-9.6,0-16,6.4-16,16v112c0,6.4,3.2,12.8,9.6,14.4,1.6,1.6,4.8,1.6,6.4,1.6,4.8,0,8-1.6,11.2-4.8l33.6-33.6,76.8,76.8c6.4,6.4,14.4,9.6,22.4,9.6s16-3.2,22.4-9.6c12.8-12.8,12.8-32,0-44.8l-76.8-76.8Z"/>
</svg>