<svg xmlns="http://www.w3.org/2000/svg" width="30.382" height="23.871" viewBox="0 0 30.382 23.871">
  <path id="icon-upload-white" d="M67.211,270.7v-1.271a3.255,3.255,0,0,0-3.255-3.255H52.667a4.338,4.338,0,0,0-2.554-2,1.207,1.207,0,0,0-.15-.033l-.9-.127a1.023,1.023,0,0,0-.152-.011H42.255A3.256,3.256,0,0,0,39,267.255v17.361a3.256,3.256,0,0,0,3.255,3.255H66.126a3.255,3.255,0,0,0,3.255-3.255v-10.85A3.256,3.256,0,0,0,67.211,270.7ZM53.106,277v6.632a1.085,1.085,0,0,0,2.17,0V277l2.5,2.441a1.085,1.085,0,0,0,1.517-1.553l-3.582-3.5a2.17,2.17,0,0,0-3.034,0l-3.582,3.5a1.085,1.085,0,0,0,1.517,1.553Zm.639-8.655.769,1.564a1.085,1.085,0,0,0,.973.607h9.554v-1.085a1.085,1.085,0,0,0-1.085-1.085Z" transform="translate(-39 -264)" fill="#fff" fill-rule="evenodd"/>
</svg>
