<svg id="icon-delete-white" xmlns="http://www.w3.org/2000/svg" width="26.214" height="27.905" viewBox="0 0 26.214 27.905">
  <path id="Rectangle" d="M1.518,2.25H21.813a1.268,1.268,0,0,1,1.262,1.395L21.2,22.416a2.95,2.95,0,0,1-2.945,2.665H5.078a2.95,2.95,0,0,1-2.945-2.665L.256,3.645A1.268,1.268,0,0,1,1.518,2.25ZM20.411,4.787H2.92L4.658,22.164a.421.421,0,0,0,.421.381H18.253a.421.421,0,0,0,.421-.381Z" transform="translate(1.441 2.824)" fill="#fff"/>
  <path id="Line" d="M7.518,16.243A1.268,1.268,0,0,1,6.25,14.974V6.518a1.268,1.268,0,0,1,2.537,0v8.456A1.268,1.268,0,0,1,7.518,16.243Z" transform="translate(5.588 4.897)" fill="#fff"/>
  <path id="Line-Copy" d="M10.018,16.243A1.268,1.268,0,0,1,8.75,14.974V6.518a1.268,1.268,0,0,1,2.537,0v8.456A1.268,1.268,0,0,1,10.018,16.243Z" transform="translate(7.316 4.897)" fill="#fff"/>
  <path id="Line-Copy-2" d="M5.018,16.243A1.268,1.268,0,0,1,3.75,14.974V6.518a1.268,1.268,0,0,1,2.537,0v8.456A1.268,1.268,0,0,1,5.018,16.243Z" transform="translate(3.86 4.897)" fill="#fff"/>
  <path id="Rectangle-2" d="M1.364-.75H23.35a2.114,2.114,0,1,1,0,4.228H1.364a2.114,2.114,0,1,1,0-4.228Z" transform="translate(0.75 4.978)" fill="#fff"/>
  <path id="Rectangle-3" d="M7.21-.75h3.382a2.963,2.963,0,0,1,2.96,2.96V6.86H4.25V2.21A2.963,2.963,0,0,1,7.21-.75Zm3.805,5.074V2.21a.423.423,0,0,0-.423-.423H7.21a.423.423,0,0,0-.423.423V4.324Z" transform="translate(4.206 0.75)" fill="#fff"/>
</svg>
