<?xml version="1.0" encoding="UTF-8"?>
<svg id="Layer_1" xmlns="http://www.w3.org/2000/svg" version="1.1" viewBox="0 0 512 512">
  <!-- Generator: Adobe Illustrator 29.8.1, SVG Export Plug-In . SVG Version: 2.1.1 Build 2)  -->
  <defs>
    <style>
      .st0 {
        fill: #fff;
      }
    </style>
  </defs>
  <path class="st0" d="M405.3,257c-11.8,0-21.3,9.6-21.3,21.3v170.7c0,11.8-9.6,21.3-21.3,21.3H64c-11.8,0-21.3-9.6-21.3-21.3V150.3c0-11.8,9.6-21.3,21.3-21.3h170.7c11.8,0,21.3-9.6,21.3-21.3s-9.5-21.3-21.3-21.3H64C28.7,86.3,0,115,0,150.3v298.7c0,35.3,28.7,64,64,64h298.7c35.3,0,64-28.7,64-64v-170.7c0-11.8-9.5-21.3-21.3-21.3ZM200,237.6c-1.5,1.5-2.5,3.4-2.9,5.4l-15.1,75.4c-.7,3.5.4,7.1,2.9,9.6,2,2,4.8,3.1,7.6,3.1s1.4,0,2.1-.2l75.4-15.1c2.1-.4,4-1.4,5.5-2.9l168.8-168.8-75.4-75.4-168.8,168.8ZM496.4,16.6c-20.8-20.8-54.6-20.8-75.4,0l-29.5,29.5,75.4,75.4,29.5-29.5c10.1-10,15.6-23.4,15.6-37.7s-5.5-27.6-15.6-37.7Z"/>
</svg>