<?xml version="1.0" encoding="UTF-8"?>
<svg id="a" xmlns="http://www.w3.org/2000/svg" version="1.1" viewBox="0 0 32 32">
  <!-- Generator: Adobe Illustrator 29.2.1, SVG Export Plug-In . SVG Version: 2.1.0 Build 116)  -->
  <defs>
    <style>
      .st0 {
        fill: #fff;
      }
    </style>
  </defs>
  <path class="st0" d="M16,0C7.2,0,0,7.2,0,16s7.2,16,16,16,16-7.2,16-16S24.8,0,16,0ZM18.3,26.7c0,.7-.5,1.3-1.3,1.3h-2.6c-.7,0-1.3-.5-1.3-1.3v-2.2c0-.7.5-1.3,1.3-1.3h2.6c.7,0,1.3.6,1.3,1.3v2.2ZM19.2,17.8c-1.1.9-1.1,1-1.1,1.5v.5c0,.7-.5,1.3-1.3,1.3h-2.1c-.7,0-1.3-.5-1.3-1.3v-.5c0-2.6,1.3-3.8,2.8-5.1.9-.7,2.6-2.1,2.6-3.2,0-1.9-1-2.3-2.6-2.3-2.9,0-3,2-3,2.2v.2c0,.7-.5,1.3-1.3,1.3h-2.1c-.7,0-1.3-.5-1.3-1.3v-.2c0-2.6,2.1-6.8,7.6-6.8s7.3,3.6,7.3,6.9-2.8,5.7-4.3,6.9h0Z"/>
</svg>