<?xml version="1.0" encoding="UTF-8"?><svg id="a" xmlns="http://www.w3.org/2000/svg" width="32" height="32" viewBox="0 0 32 32"><path d="M16,0C7.16345,0,0,7.16345,0,16s7.16345,16,16,16,16-7.16345,16-16S24.83655,0,16,0ZM18.32501,26.73596c0,.68378-.54706,1.27643-1.27649,1.27643h-2.59851c-.68384,0-1.27649-.54706-1.27649-1.27643v-2.23383c0-.68384.54706-1.27649,1.27649-1.27649h2.59851c.68384,0,1.27643.59265,1.27649,1.27649v2.23383ZM19.19116,17.75513c-1.09412.91174-1.09412,1.00293-1.09412,1.50439v.45587c0,.68384-.54706,1.27649-1.27649,1.27649h-2.14258c-.68384,0-1.27649-.54706-1.27649-1.27649v-.45587c0-2.59851,1.27649-3.82941,2.82648-5.10583.91174-.72943,2.59851-2.09705,2.59851-3.23676,0-1.91467-1.04852-2.27942-2.6441-2.27942-2.87207,0-2.96326,1.96033-2.96326,2.18823v.18237c0,.68378-.54706,1.27643-1.27643,1.27643h-2.14264c-.68384,0-1.27649-.54706-1.27649-1.27643v-.18237c0-2.6441,2.05145-6.8382,7.61322-6.8382,5.42493,0,7.33966,3.55585,7.33966,6.88379,0,3.37354-2.78088,5.65289-4.28528,6.88379Z"/></svg>