<?xml version="1.0" encoding="utf-8"?>
<!-- Generator: Adobe Illustrator 25.0.1, SVG Export Plug-In . SVG Version: 6.00 Build 0)  -->
<svg version="1.1" id="Front" xmlns="http://www.w3.org/2000/svg" xmlns:xlink="http://www.w3.org/1999/xlink" x="0px" y="0px"
	 viewBox="0 0 34 34" style="enable-background:new 0 0 34 34;" xml:space="preserve">
<style type="text/css">
	.st0{fill:#000000;}
</style>
<path class="st0" d="M17,0.6C9.3,0.6,3,6.9,3,14.6C3,22.3,9.3,28.5,17,28.5c7.7,0,13.9-6.3,13.9-13.9C30.9,6.9,24.7,0.6,17,0.6z
	 M17,26.5C10.4,26.5,5,21.2,5,14.6C5,8,10.4,2.6,17,2.6c6.6,0,11.9,5.4,11.9,11.9C28.9,21.2,23.6,26.5,17,26.5z"/>
<path class="st0" d="M16.4,7.9c-0.2-0.1-0.5,0-0.7,0.1l-3.2,3.2H9.8c-0.4,0-0.6,0.3-0.6,0.6v5.5c0,0.3,0.3,0.6,0.6,0.6h2.8l3.2,3.2
	c0.1,0.1,0.3,0.2,0.4,0.2c0.1,0,0.1,0,0.2-0.1c0.2-0.1,0.4-0.3,0.4-0.6V8.5C16.8,8.2,16.7,8,16.4,7.9z"/>
<path class="st0" d="M19.5,12.2c0.2,0,0.3-0.1,0.5-0.2l4.1-3.3c0.3-0.3,0.4-0.7,0.1-1c-0.3-0.3-0.7-0.4-1-0.1l-4.1,3.3
	c-0.3,0.3-0.4,0.7-0.1,1C19.1,12.1,19.3,12.2,19.5,12.2z"/>
<path class="st0" d="M20,17.1c-0.3-0.3-0.8-0.2-1,0.1c-0.3,0.3-0.2,0.8,0.1,1l4.1,3.3c0.1,0.1,0.3,0.2,0.5,0.2
	c0.2,0,0.4-0.1,0.6-0.3c0.3-0.3,0.2-0.8-0.1-1L20,17.1z"/>
<path class="st0" d="M24.8,13.8h-5.3c-0.4,0-0.7,0.3-0.7,0.7s0.3,0.7,0.7,0.7h5.3c0.4,0,0.7-0.3,0.7-0.7S25.2,13.8,24.8,13.8z"/>
</svg>
