<?xml version="1.0" encoding="utf-8"?>
<svg version="1.1" id="Front" xmlns="http://www.w3.org/2000/svg" xmlns:xlink="http://www.w3.org/1999/xlink" x="0px" y="0px"
	 viewBox="0 0 34 34" style="enable-background:new 0 0 34 34;" xml:space="preserve">
<style type="text/css">
	.st0{fill:#000000;}
</style>
<path class="st0" d="M13,15.4v-2.2c3.9,0.4,6.9,3.5,7.2,7.4c0,0.2,0.2,0.4,0.5,0.4h3.8c0.3,0,0.5-0.2,0.5-0.5
	C24.6,14.1,19.4,8.9,13,8.5V6.2c0-0.4-0.5-0.6-0.8-0.3l-4.6,4.6c-0.2,0.2-0.2,0.5,0,0.6l4.6,4.6C12.5,16,13,15.8,13,15.4z"/>
<path class="st0" d="M17,28.2c7.6,0,13.8-6.2,13.8-13.8c0-7.6-6.2-13.8-13.8-13.8S3.2,6.8,3.2,14.4C3.2,22,9.4,28.2,17,28.2z
	 M17,2.7c6.5,0,11.8,5.3,11.8,11.8c0,6.5-5.3,11.8-11.8,11.8S5.2,20.9,5.2,14.4C5.2,8,10.5,2.7,17,2.7z"/>
</svg>
