<?xml version="1.0" encoding="utf-8"?>
<!-- Generator: Adobe Illustrator 25.0.1, SVG Export Plug-In . SVG Version: 6.00 Build 0)  -->
<svg version="1.1" id="Front" xmlns="http://www.w3.org/2000/svg" xmlns:xlink="http://www.w3.org/1999/xlink" x="0px" y="0px"
	 viewBox="0 0 34 34" style="enable-background:new 0 0 34 34;" xml:space="preserve">
<style type="text/css">
	.st0{fill:#000000;}
</style>
<path class="st0" d="M9.6,21.1h3.8c0.2,0,0.4-0.2,0.5-0.4c0.2-3.9,3.3-7.1,7.2-7.4v2.2c0,0.4,0.5,0.6,0.8,0.3l4.6-4.6
	c0.2-0.2,0.2-0.5,0-0.6l-4.6-4.6C21.5,5.6,21,5.8,21,6.2v2.3C14.5,8.9,9.4,14.1,9.1,20.6C9.1,20.9,9.3,21.1,9.6,21.1z"/>
<path class="st0" d="M17,28.2c7.6,0,13.8-6.2,13.8-13.8c0-7.6-6.2-13.8-13.8-13.8S3.2,6.8,3.2,14.4C3.2,22,9.4,28.2,17,28.2z
	 M17,2.7c6.5,0,11.8,5.3,11.8,11.8c0,6.5-5.3,11.8-11.8,11.8S5.2,20.9,5.2,14.4C5.2,7.9,10.5,2.7,17,2.7z"/>
</svg>
