<?xml version="1.0" encoding="utf-8"?>
<!-- Generator: Adobe Illustrator 25.0.1, SVG Export Plug-In . SVG Version: 6.00 Build 0)  -->
<svg version="1.1" id="Front" xmlns="http://www.w3.org/2000/svg" xmlns:xlink="http://www.w3.org/1999/xlink" x="0px" y="0px"
	 viewBox="0 0 34 34" style="enable-background:new 0 0 34 34;" xml:space="preserve">
<style type="text/css">
	.st0{fill:#000000;}
</style>
<path class="st0" d="M17.3,5.1c-0.2-0.2-0.4-0.2-0.6,0l-5.3,5.3c-0.3,0.3-0.1,0.7,0.3,0.7h2.7v11.5c0,0.2,0.2,0.4,0.4,0.4h4.4
	c0.2,0,0.4-0.2,0.4-0.4V11.1h2.7c0.4,0,0.6-0.4,0.3-0.7L17.3,5.1z"/>
<path class="st0" d="M17,0.6C9.4,0.6,3.2,6.8,3.2,14.4C3.2,22,9.4,28.2,17,28.2c7.6,0,13.8-6.2,13.8-13.8C30.8,6.8,24.6,0.6,17,0.6z
	 M17,26.2c-6.5,0-11.8-5.3-11.8-11.8C5.2,7.9,10.5,2.6,17,2.6c6.5,0,11.8,5.3,11.8,11.8C28.8,20.9,23.5,26.2,17,26.2z"/>
</svg>
