<svg xmlns="http://www.w3.org/2000/svg" width="119" height="119" viewBox="0 0 119 119">
  <g id="img-unlink" transform="translate(-810 -115)">
    <rect id="Rectangle_219" data-name="Rectangle 219" width="119" height="119" transform="translate(810 115)" fill="#eeecec"/>
    <path id="icon-unlink" d="M67.529,49.9a2.805,2.805,0,0,1-2.66,1.917,2.731,2.731,0,0,1-.886-.146l-7.925-2.642a2.8,2.8,0,1,1,1.771-5.317l7.925,2.642A2.808,2.808,0,0,1,67.529,49.9ZM28.537,43.067A2.8,2.8,0,0,0,32.5,39.1a8.408,8.408,0,0,1,0-11.89L48.349,11.358a8.409,8.409,0,0,1,11.894,11.89l-7.925,7.929a2.8,2.8,0,0,0,3.965,3.965l7.925-7.929A14.013,14.013,0,0,0,44.388,7.4L28.537,23.252a14.005,14.005,0,0,0,0,19.815ZM5.714,24.549l7.473,3.737a2.769,2.769,0,0,0,1.248.3,2.8,2.8,0,0,0,1.256-5.31L8.218,19.534a2.8,2.8,0,1,0-2.5,5.011Zm16.863-9a2.805,2.805,0,0,0,2.66,1.917,2.731,2.731,0,0,0,.886-.146A2.808,2.808,0,0,0,27.9,13.776L25.257,5.847a2.8,2.8,0,0,0-5.321,1.775ZM48.334,55.91a2.8,2.8,0,0,0-5.015,2.507l3.737,7.473a2.8,2.8,0,0,0,2.511,1.551,2.769,2.769,0,0,0,1.248-.3,2.8,2.8,0,0,0,1.256-3.759l-3.737-7.473ZM47.176,38.441a13.924,13.924,0,0,0-4.107-9.906A2.8,2.8,0,0,0,39.1,32.5a8.408,8.408,0,0,1,0,11.89L23.254,60.245A8.409,8.409,0,0,1,11.36,48.355l7.925-7.929a2.8,2.8,0,0,0-3.965-3.965L7.4,44.39A14.012,14.012,0,0,0,27.211,64.205L43.062,48.351a13.926,13.926,0,0,0,4.107-9.909Z" transform="translate(833.699 138.698)" fill="#dadada"/>
  </g>
</svg>
