<?xml version="1.0" encoding="UTF-8"?>
<svg id="Layer_1" xmlns="http://www.w3.org/2000/svg" version="1.1" viewBox="0 0 240 240">
  <!-- Generator: Adobe Illustrator 29.2.1, SVG Export Plug-In . SVG Version: 2.1.0 Build 116)  -->
  <defs>
    <style>
      .st0 {
        fill: #eeecec;
      }

      .st1 {
        fill: #dadada;
      }
    </style>
  </defs>
  <g id="no-img">
    <rect id="Rectangle_119" class="st0" width="240" height="240"/>
    <g id="image">
      <path id="Path_24" class="st1" d="M91.8,113.9c6.5,0,11.7-5.2,11.7-11.7s-5.2-11.7-11.7-11.7c-6.5,0-11.7,5.2-11.7,11.7,0,6.5,5.2,11.7,11.7,11.7Z"/>
      <path id="Path_25" class="st1" d="M164.9,73h-87.7c-8.1,0-14.6,6.5-14.6,14.6v64.3c0,8.1,6.5,14.6,14.6,14.6h87.7c8.1,0,14.6-6.5,14.6-14.6v-64.3c0-8.1-6.5-14.6-14.6-14.6h0ZM77.2,84.7h87.7c1.6,0,2.9,1.3,2.9,2.9v41.5l-18.5-21.5c-2-2.3-4.8-3.6-7.8-3.6-3,0-5.9,1.4-7.8,3.7l-21.7,26-7.1-7.1c-4-4-10.5-4-14.5,0l-16.1,16.1v-55.2c0-1.6,1.3-2.9,2.9-2.9,0,0,0,0,0,0Z"/>
    </g>
  </g>
</svg>