<?xml version="1.0" encoding="UTF-8"?><svg id="a" xmlns="http://www.w3.org/2000/svg" width="45" height="38" viewBox="0 0 45 38"><defs><style>.b{fill:#fff;}</style></defs><path class="b" d="M20.19059,31.55841c.20557.43835.43604.86163.69458,1.26666-.51953.24194-1.08496.42963-1.69556.53381-.39575.06763-.7915.10071-1.18262.10071-1.07861,0-2.12231-.25256-3.02551-.74109-.57922-.31409-1.05603-.71509-1.44043-1.16888-.86072.06952-1.69495.11572-2.41052.11572-.40295,0-.74976-.02045-1.06262-.05243-.19263.32031-.5614.28705-.97156.28705-.50122,0-.9176-.06012-1.06006-.57819-1.71362-1.38715-3.25391-2.11145-4.7085-2.22034-.20581-.01544-.41016-.02008-.61279-.01129-.03088.00336-.05933-.00854-.08984-.00922-.02319.16663-.15552.30701-.34521.31561h-.01978c-.18799,0-.33289-.12946-.36646-.29535l-.01978.00183s-1.09045-7.29999-1.23218-7.91992c-1.46289-6.40106-.05481-9.41925.58289-14.47943.24182.18909.51575.36633.81177.53528-.18494,2.90381-.39172,6.50055-.39392,6.5498l.57397,7.38782.3573,6.51526c.0177-.00208.03235-.01111.05054-.01215.20593-.01221.4137-.00623.6217.00171,1.51965.05798,3.09888.65582,4.75745,1.79456.07947-2.75897.40601-6.58289,1.33972-10.12274,1.71338-6.49524,4.57727-8.01392,6.95532-9.64941.17236-.11847.3689-.22186.55676-.33075,4.15979-.29211,8.0802-1.21381,9.95312-2.84119v9.69366c-2.46643.81158-4.54834,2.45813-5.92053,4.60638-2.95581,1.07031-5.83862,1.98132-6.98657,2.66559-.83691.4989-1.71777,1.3996-2.41162,2.59753-.64709,1.82532-1.05713,3.36731-1.06543,4.13654.18005.01202.41162.02057.7063.02057.49707,0,1.06104-.02502,1.65137-.06409-.05127-.15295-.11975-.29956-.15222-.45892-.51819-2.53113,1.58289-5.02087,4.6825-5.54944.74023-.12543,1.46338-.11493,2.15039-.01166-.11023.44977-.19922.90741-.25317,1.37671-.23499-.03369-.47607-.05255-.72217-.05255-.2915,0-.59058.02484-.89111.07593-2.26123.38641-3.8064,2.13641-3.4469,3.90155.17224.83777.74768,1.55957,1.62073,2.03296.90771.49127,2.021.65833,3.13574.46783.46558-.07953.89062-.2287,1.28491-.41205ZM3.22953,16.78943c0,1.9162,1.22668,4.18805,2.58704,4.18805,1.36047,0,2.39929-1.03357,2.39929-2.94977,0-2.52942-2.55554-3.73828-3.66943-3.73828-1.25305,0-1.31689,1.6355-1.31689,2.5ZM1.40787,4.31311c0-.28302.11304-.55762.31079-.82281-.00049-.00024-.00659-.00378-.00659-.00378l.09814-.10291c.07275-.08563.14966-.17059.2417-.25378l.98767-1.0368h.04138C4.86466.46954,10.61197,0,13.91202,0s9.04736.46954,10.83105,2.09302h.04004l.98267,1.03156c.09973.08954.18335.18103.26062.2735l.08435.08844-.00488.00415c.19763.26508.31055.53955.31055.82245,0,2.07294-5.59839,3.75336-12.50427,3.75336S1.40787,6.38605,1.40787,4.31311ZM3.94889,3.16736c0,.54102,3.49072,1.86456,9.96313,1.86456s9.96313-1.32355,9.96313-1.86456-3.49072-1.86456-9.96313-1.86456S3.94889,2.62634,3.94889,3.16736ZM13.91214,3.71857c3.19592,0,5.78674-.24683,5.78674-.55127s-2.59082-.55121-5.78674-.55121-5.78699.24677-5.78699.55121,2.59094.55127,5.78699.55127ZM38.82047,13.39105c-.19336.40698-.4021.80786-.6394,1.19537-.21582.35303-.10547.81494.24805,1.03125.12207.07471.25684.11035.39062.11035.25293,0,.49902-.12744.64062-.3584,1.36816-2.23389,2.0918-4.78564,2.0918-7.37939s-.72363-5.14551-2.0918-7.37891c-.21582-.35303-.67871-.46436-1.03125-.24805-.35352.21631-.46387.67822-.24805,1.03125.2373.38715.44604.7876.6394,1.19421.80469,1.69177,1.23169,3.53351,1.23169,5.40149,0,1.86761-.42749,3.70905-1.23169,5.40082ZM35.49112,4.56128c.46252,1.08514.7124,2.24762.7124,3.42896,0,1.18201-.24951,2.3454-.7124,3.43109-.18103.4248-.38721.84021-.63525,1.23639-.21973.35107-.11328.81396.23828,1.03369.12305.07764.26074.11426.39648.11426.25,0,.49414-.12451.63672-.35205,1.03125-1.64795,1.57617-3.53711,1.57617-5.46338s-.54492-3.81592-1.57715-5.46338c-.2207-.35156-.68262-.45752-1.03418-.23779-.35059.21973-.45703.68262-.2373,1.03369.24829.39691.45483.81305.63623,1.23853ZM32.16043,9.34631c-.13806.48291-.34558.94666-.62683,1.37439-.22754.34619-.13086.81152.21484,1.03906.12695.08301.27051.12305.41113.12305.24414,0,.4834-.11865.62793-.33789.69824-1.0625,1.06738-2.29199,1.06738-3.55469,0-1.26221-.36914-2.49121-1.06738-3.5542-.22754-.34619-.69141-.44287-1.03906-.21533-.3457.22754-.44238.69238-.21484,1.03857.28125.42822.48877.89215.62683,1.37512.12561.43939.19446.89435.19446,1.35583,0,.46173-.06885.91675-.19446,1.35608ZM30.29898,37c-5.6073,0-10.16919-4.56195-10.16919-10.16931s4.56189-10.16925,10.16919-10.16925,10.16931,4.56189,10.16931,10.16925-4.56189,10.16931-10.16931,10.16931ZM29.70584,21.80707h-.00061c-.00024-.81567-.66064-1.47723-1.47632-1.47913h-.59204c-.8147-.00092-1.47607.65881-1.47693,1.47357v10.05505c-.00085.8147.65881,1.47595,1.47351,1.47687h.59546c.8147.00092,1.47607-.65881,1.47693-1.47357v-10.0528ZM34.43814,21.80707c-.00024-.81677-.66235-1.47882-1.47913-1.47913h-.59216c-.8147-.00092-1.47583.65881-1.47681,1.47357v10.05505c-.00098.8147.65881,1.47595,1.47363,1.47687h.59534c.81482.00092,1.47595-.65881,1.47693-1.47357v-10.0528h.0022Z"/></svg>