<?xml version="1.0" encoding="UTF-8"?><svg id="a" xmlns="http://www.w3.org/2000/svg" width="45" height="38" viewBox="0 0 45 38"><defs><style>.b{fill:#fff;}</style></defs><path class="b" d="M21.38932,20.11511c-.65967.87366-1.19165,1.84515-1.57361,2.89197H1.92789C.86502,23.00708-.00003,22.14203-.00003,21.0791V1.92798C-.00003.86499.86502,0,1.92789,0h29.0481c1.06299,0,1.92798.86499,1.92798,1.92798v14.05139c-.83716-.20038-1.70642-.31793-2.60498-.31793-.09692,0-.19067.01202-.28687.01447V2.89191H2.892v17.22321h18.49731ZM19.48697,24.07281h-8.11194v2.8277h-5.20544c-.53223,0-.96411.43188-.96411.96399s.43188.96399.96411.96399h13.14844c-.11743-.64923-.18823-1.31476-.18823-1.9978,0-.95367.13232-1.87421.35718-2.75787ZM40.4683,26.83069c0,5.60736-4.56189,10.16931-10.16931,10.16931s-10.16919-4.56195-10.16919-10.16931,4.56177-10.16925,10.16919-10.16925,10.16931,4.56189,10.16931,10.16925ZM29.70584,31.85657v-10.0495h-.00061c-.00024-.81567-.66064-1.47723-1.47632-1.47913h-.59204c-.8147-.00092-1.47607.65881-1.47693,1.47357v10.05505c-.00085.8147.65881,1.47595,1.47351,1.47687h.59546c.8147.00092,1.47607-.65881,1.47693-1.47357v-.0033ZM34.43814,21.80707c-.00024-.81677-.66235-1.47882-1.47913-1.47913h-.59216c-.8147-.00092-1.47583.65881-1.47681,1.47357v10.05505c-.00098.8147.65881,1.47595,1.47363,1.47687h.59534c.81482.00092,1.47595-.65881,1.47693-1.47357v-10.0528h.0022ZM41.42911.36328c-.35352.21631-.46387.67822-.24805,1.03125.2373.38715.44604.7876.6394,1.19421.80469,1.69177,1.23169,3.53351,1.23169,5.40149,0,1.86761-.42749,3.70905-1.23169,5.40082-.19336.40698-.4021.80786-.6394,1.19537-.21582.35303-.10547.81494.24805,1.03125.12207.07471.25684.11035.39062.11035.25293,0,.49902-.12744.64062-.3584,1.36816-2.23389,2.0918-4.78564,2.0918-7.37939s-.72363-5.14551-2.0918-7.37891c-.21582-.35303-.67773-.46436-1.03125-.24805ZM38.49112,4.56128c.46252,1.08514.7124,2.24762.7124,3.42896,0,1.18201-.24951,2.3454-.7124,3.43109-.18103.4248-.38721.84021-.63525,1.23639-.21973.35107-.11328.81396.23828,1.03369.12305.07764.26074.11426.39648.11426.25,0,.49414-.12451.63672-.35205,1.03125-1.64795,1.57617-3.53711,1.57617-5.46338s-.54492-3.81592-1.57715-5.46338c-.2207-.35156-.68164-.45752-1.03418-.23779-.35059.21973-.45703.68262-.2373,1.03369.24829.39691.45483.81305.63623,1.23853ZM35.16043,9.34631c-.13806.48291-.34558.94666-.62683,1.37439-.22754.34619-.13086.81152.21484,1.03906.12695.08301.27051.12305.41113.12305.24414,0,.4834-.11865.62793-.33789.69824-1.0625,1.06738-2.29199,1.06738-3.55469,0-1.26221-.36914-2.49121-1.06738-3.5542-.22754-.34619-.69238-.44287-1.03906-.21533-.3457.22754-.44238.69238-.21484,1.03857.28125.42822.48877.89215.62683,1.37512.12561.43939.19446.89435.19446,1.35583,0,.46173-.06885.91675-.19446,1.35608Z"/></svg>