<?xml version="1.0" encoding="UTF-8"?><svg id="a" xmlns="http://www.w3.org/2000/svg" width="67" height="67" viewBox="0 0 67 67"><defs><style>.b{fill:#fff;}.c{fill:#0062b6;}</style></defs><rect class="c" width="67" height="67" rx="8.38" ry="8.38"/><path class="b" d="M52.95912,32.22164c-.66306-.66294-1.46767-.99416-2.41506-.99416h-1.1357v-6.81857c0-4.35599-1.56207-8.09619-4.68721-11.2212-3.12489-3.12514-6.86471-4.68771-11.22133-4.68771s-8.09705,1.56257-11.2217,4.68759c-3.12514,3.12514-4.68721,6.86521-4.68721,11.22132v6.81857h-1.1362c-.94665,0-1.75175.33122-2.41469.99416-.66294.66244-.99428,1.46754-.99428,2.41506v20.45433c0,.94665.33147,1.752.99428,2.41506.66294.66232,1.46804.99391,2.41469.99391h34.09022c.94739,0,1.75187-.33122,2.41506-.99391.66232-.66306.99428-1.46842.99428-2.41506v-20.4547c.0005-.94677-.33196-1.75175-.99515-2.41469ZM42.59053,31.22748h-18.18144v-6.81857c0-2.50934.88794-4.65201,2.66345-6.42727,1.77576-1.77551,3.91806-2.66307,6.42765-2.66307,2.50984,0,4.65164.88744,6.42752,2.66307,1.77501,1.77513,2.66282,3.91793,2.66282,6.42727v6.81857Z"/></svg>