<?xml version="1.0" encoding="UTF-8"?><svg id="a" xmlns="http://www.w3.org/2000/svg" width="67" height="67" viewBox="0 0 67 67"><defs><style>.b{fill:#fff;}.c{fill:#949494;}</style></defs><rect class="c" width="67" height="67" rx="8.38" ry="8.38"/><path class="b" d="M40.23359,33.50012h-23.95813v-.00012h-7.29138c-.86774,0-1.60577.30408-2.2135.91119-.60773.60718-.91144,1.3454-.91144,2.21356v18.75024c0,.86847.30383,1.60638.91144,2.21387.60773.60718,1.34576.91113,2.2135.91113h31.24951c.86847,0,1.60675-.30396,2.21387-.91113.60712-.60748.91144-1.3454.91144-2.21387v-18.75012c.00049-.86816-.30353-1.60559-.91144-2.21356-.60785-.60779-1.3454-.91119-2.21387-.91119Z"/><path class="b" d="M46.55755,8.5c-4.01501,0-7.44922,1.4267-10.30328,4.28064-2.85358,2.85364-4.2804,6.2876-4.2804,10.3028v10.41656h6.24982v-10.41644c0-2.30078.81396-4.26447,2.44171-5.89215,1.62781-1.62738,3.59161-2.44122,5.89215-2.44122,2.30029,0,4.26447.81372,5.89154,2.44122,1.62787,1.62769,2.44183,3.59149,2.44183,5.89215,0,.56403.20599,1.05225.61798,1.46454.41284.41241.90125.61865,1.46472.61865h2.08435c.56384,0,1.05206-.20624,1.4649-.61865.41113-.41229.61798-.90051.61798-1.46454,0-4.01526-1.42694-7.44885-4.28033-10.3028-2.85382-2.85406-6.28833-4.28076-10.30298-4.28076Z"/></svg>