<?xml version="1.0" encoding="UTF-8"?><svg id="a" xmlns="http://www.w3.org/2000/svg" width="45" height="38" viewBox="0 0 45 38"><defs><style>.b{fill:#dadada;}</style></defs><path class="b" d="M20.19061,31.55841c.20538.43835.43604.86163.69452,1.26666-.51953.24188-1.08484.42963-1.6955.53381-.39575.06763-.7915.10071-1.18268.10071-1.07849,0-2.12225-.25256-3.02551-.74109-.57928-.31409-1.05591-.71509-1.44043-1.16888-.86066.06952-1.69482.11572-2.41052.11572-.40289,0-.74976-.02045-1.06262-.05243-.19257.32031-.56134.28705-.97162.28705-.50116,0-.91748-.06012-1.05994-.57819-1.71362-1.38715-3.25385-2.11145-4.70856-2.22034-.20575-.01544-.41016-.02008-.61285-.01129-.03076.00336-.05927-.00854-.08966-.00922-.02325.16663-.15558.30701-.34534.31561h-.01965c-.18817,0-.33295-.12946-.36646-.29535l-.01996.00183s-1.09033-7.29999-1.23206-7.91992c-1.46301-6.40106-.05487-9.41925.58282-14.47943.24188.18909.51587.36633.81183.53528-.18506,2.90381-.39178,6.50055-.39398,6.5498l.57397,7.38782.35736,6.51526c.0177-.00208.03235-.01111.05048-.01215.20593-.01221.4137-.00623.62177.00171,1.51965.05798,3.09882.65582,4.75745,1.79456.07947-2.75897.40601-6.58289,1.33966-10.12274,1.71338-6.49524,4.57733-8.01392,6.95544-9.64941.17218-.11847.36877-.22186.5567-.33075,4.15985-.29211,8.08008-1.21381,9.95306-2.84119v9.69366c-2.46655.81158-4.54834,2.45813-5.92059,4.60638-2.95575,1.07031-5.83856,1.98132-6.98645,2.66559-.83704.4989-1.71771,1.3996-2.41162,2.59753-.64709,1.82532-1.05713,3.36731-1.06543,4.13654.18005.01202.41162.02057.70624.02057.49713,0,1.06104-.02502,1.65131-.06409-.05121-.15295-.11969-.29956-.15216-.45892-.51807-2.53113,1.58301-5.02087,4.6825-5.54944.7403-.12543,1.46332-.11493,2.15039-.01166-.11023.44977-.19922.90741-.25311,1.37671-.23505-.03369-.47607-.05255-.72217-.05255-.2915,0-.59058.02484-.89117.07593-2.26117.38641-3.8064,2.13641-3.4469,3.90155.17218.83777.74768,1.55957,1.62073,2.03296.90784.49127,2.02106.65833,3.13574.46783.46552-.07953.89056-.2287,1.28497-.41205ZM3.22949,16.78943c0,1.9162,1.22668,4.18805,2.5871,4.18805s2.39929-1.03357,2.39929-2.94977c0-2.52942-2.55566-3.73828-3.66943-3.73828-1.25305,0-1.31696,1.6355-1.31696,2.5ZM1.40778,4.31311c0-.28302.1131-.55762.31085-.82281-.00055-.00024-.00659-.00378-.00659-.00378l.09808-.10291c.07281-.08563.14972-.17059.24176-.25378l.98767-1.0368h.04138C4.86469.46954,10.61206,0,13.91205,0s9.04736.46954,10.83112,2.09302h.04004l.98267,1.03156c.09967.08954.18329.18103.26056.2735l.08429.08844-.00494.00415c.19769.26508.31061.53955.31061.82245,0,2.07294-5.59827,3.75336-12.50427,3.75336S1.40778,6.38605,1.40778,4.31311ZM3.94897,3.16736c0,.54102,3.49066,1.86456,9.96307,1.86456s9.96307-1.32355,9.96307-1.86456-3.49072-1.86456-9.96307-1.86456S3.94897,2.62634,3.94897,3.16736ZM13.91211,3.71857c3.19598,0,5.7868-.24683,5.7868-.55127s-2.59082-.55121-5.7868-.55121-5.78687.24677-5.78687.55121,2.59082.55127,5.78687.55127ZM40.46832,26.83069c0,5.60736-4.56195,10.16931-10.16931,10.16931s-10.16925-4.56195-10.16925-10.16931,4.56189-10.16925,10.16925-10.16925,10.16931,4.56189,10.16931,10.16925ZM36.98969,26.19006c-.12726-.23773-.32202-.43256-.55975-.55975v-.0047l-8.7146-4.64423c-.66608-.35352-1.49268-.10004-1.84613.56604-.10468.19727-.15936.41699-.1593.64026v9.28632c-.00012.75415.61115,1.36554,1.3653,1.3656.22321,0,.44299-.05469.64014-.1593l8.7146-4.64209c.66492-.35577.91553-1.18323.55975-1.84814ZM38.42871.36328c-.35352.21631-.46387.67822-.24805,1.03125.23743.38751.44629.78833.63977,1.19525.80469,1.69208,1.2323,3.53351,1.2323,5.40045s-.42755,3.70825-1.23218,5.40051c-.19354.40704-.40247.80798-.63989,1.19568-.21582.35303-.10547.81494.24805,1.03125.12207.07471.25684.11035.39062.11035.25293,0,.49902-.12744.64062-.3584,1.36914-2.23486,2.09277-4.78662,2.09277-7.37939s-.72363-5.14453-2.09277-7.37891c-.2168-.35303-.67871-.46436-1.03125-.24805ZM35.49121,11.42017c-.18121.42511-.38763.84094-.63574,1.23755-.21973.35107-.11328.81396.23828,1.03369.12305.07764.26074.11426.39648.11426.25,0,.49414-.12451.63672-.35205,1.03223-1.64893,1.57715-3.53809,1.57715-5.46338,0-1.9248-.54492-3.81396-1.57715-5.46338-.2207-.35156-.68359-.4585-1.0332-.23779-.35156.21973-.45801.68213-.23828,1.03369.24805.39667.45441.81244.63562,1.23755.46301,1.086.71301,2.24908.71301,3.42993,0,1.18115-.24994,2.34418-.71289,3.42993ZM32.16046,9.34442c-.13806.48358-.34564.948-.62726,1.37628-.22754.34619-.13086.81152.21484,1.03906.12695.08301.27051.12305.41113.12305.24414,0,.4834-.11865.62793-.33789.69824-1.0625,1.06738-2.29199,1.06738-3.55469,0-1.26221-.36914-2.49121-1.06738-3.5542-.22852-.34619-.69141-.44287-1.03906-.21533-.3457.22754-.44238.69238-.21484,1.03857.28162.42877.4892.89343.62726,1.37708.12524.43878.19403.89301.19403,1.35388,0,.46106-.06879.91541-.19403,1.35419Z"/></svg>