<?xml version="1.0" encoding="UTF-8"?><svg id="a" xmlns="http://www.w3.org/2000/svg" width="45" height="38" viewBox="0 0 45 38"><defs><style>.b{fill:#dadada;}</style></defs><path class="b" d="M19.12976,26.83069c0,.68304.07086,1.34857.18829,1.9978H6.16949c-.5321,0-.96399-.43188-.96399-.96399s.43188-.96399.96399-.96399h5.20551v-2.8277h8.112c-.22485.88367-.35724,1.8042-.35724,2.75787ZM2.89197,20.11511V2.89191h27.12006v12.784c.09631-.00244.19012-.01447.28699-.01447.89856,0,1.76782.11755,2.60498.31793V1.92798c0-1.06299-.86499-1.92798-1.92798-1.92798H1.92798C.86499,0,0,.86499,0,1.92798v19.15112c0,1.06293.86499,1.92798,1.92798,1.92798h17.88776c.38202-1.04681.91394-2.01831,1.57355-2.89197H2.89197ZM40.46832,26.83069c0,5.60736-4.56195,10.16931-10.16931,10.16931s-10.16925-4.56195-10.16925-10.16931,4.56189-10.16925,10.16925-10.16925,10.16931,4.56189,10.16931,10.16925ZM36.98969,26.19006c-.12726-.23773-.32202-.43256-.55975-.55975v-.0047l-8.7146-4.64423c-.66608-.35352-1.49268-.10004-1.84613.56604-.10468.19727-.15936.41699-.1593.64026v9.28632c-.00012.75415.61115,1.36554,1.3653,1.3656.22321,0,.44299-.05469.64014-.1593l8.7146-4.64209c.66492-.35577.91553-1.18323.55975-1.84814ZM41.42871.36328c-.35352.21631-.46436.67822-.24805,1.03125.23743.38751.44629.78833.63977,1.19525.80469,1.69208,1.2323,3.53351,1.2323,5.40045s-.42755,3.70825-1.23218,5.40051c-.19354.40704-.40247.80798-.63989,1.19568-.21631.35303-.10547.81494.24805,1.03125.12207.07471.25684.11035.39062.11035.25293,0,.49902-.12744.64062-.3584,1.36914-2.23486,2.09277-4.78662,2.09277-7.37939s-.72363-5.14453-2.09277-7.37891c-.2168-.35303-.67773-.46436-1.03125-.24805ZM38.49121,11.42072c-.18121.42493-.38757.84052-.63574,1.237-.21973.35107-.11328.81396.23779,1.03369.12402.07764.26123.11426.39746.11426.24951,0,.49414-.12451.63623-.35205,1.03174-1.64893,1.57715-3.53809,1.57715-5.46338,0-1.9248-.54541-3.81396-1.57715-5.46338-.21924-.35156-.68213-.45801-1.03369-.23779-.35107.21973-.45752.68213-.23779,1.03369.24811.39655.45441.81213.63562,1.23706.46313,1.08618.71301,2.24939.71301,3.43042,0,1.18134-.24982,2.3446-.71289,3.43048ZM35.16046,9.34613c-.13806.48279-.34558.94666-.62677,1.37506-.22754.34619-.13086.81104.21533,1.03857.12695.0835.26953.12305.41113.12305.24414,0,.4834-.11914.62744-.33838.69824-1.06299,1.06738-2.29248,1.06738-3.5542,0-1.26123-.36914-2.49023-1.06738-3.5542-.22754-.34619-.69189-.44287-1.03857-.21533-.34619.22705-.44287.69238-.21533,1.03857.28119.42841.48871.8924.62677,1.37524.12567.43945.19452.89435.19452,1.35571,0,.46161-.06885.9165-.19452,1.3559Z"/></svg>