<svg id="Front" xmlns="http://www.w3.org/2000/svg" viewBox="0 0 34.01575 34.01575"><defs><style>.cls-1{fill:#fff;}.cls-2{fill:none;stroke:#fff;stroke-linecap:round;stroke-miterlimit:10;stroke-width:2.3842px;}</style></defs><g id="Artwork_Print_Front_" data-name="Artwork Print (Front)"><path class="cls-1" d="M16.0908,6.08247a.99378.99378,0,0,0-1.11277.23427l-5.1539,5.18318H5.34375a1.04392,1.04392,0,0,0-1.05421,1.02493v8.93147a1.02537,1.02537,0,0,0,1.05421,1.02492H9.82413l5.18318,5.21247a1.04852,1.04852,0,0,0,.73209.32212.69555.69555,0,0,0,.3514-.08786,1.06227,1.06227,0,0,0,.61495-.96635V7.04883A.96342.96342,0,0,0,16.0908,6.08247Z"/><line class="cls-2" x1="27.843" y1="6.63119" x2="21.16687" y2="11.98763"/><line class="cls-2" x1="27.843" y1="27.38456" x2="21.16687" y2="22.02811"/><line class="cls-2" x1="29.7262" y1="17.00787" x2="21.16687" y2="17.00787"/></g></svg>