<?xml version="1.0" encoding="UTF-8"?>
<svg id="Layer_1" xmlns="http://www.w3.org/2000/svg" version="1.1" viewBox="0 0 240 240">
  <!-- Generator: Adobe Illustrator 29.2.1, SVG Export Plug-In . SVG Version: 2.1.0 Build 116)  -->
  <defs>
    <style>
      .st0 {
        fill: #eeecec;
      }

      .st1 {
        fill: #dadada;
      }
    </style>
  </defs>
  <g id="no-img">
    <rect id="Rectangle_119" class="st0" width="240" height="240"/>
    <g>
      <path class="st1" d="M120.9,45.3c-34.6,0-47.4,26.1-47.4,42.5v1.1c0,4.5,3.7,7.9,7.9,7.9h13.3c4.5,0,7.9-3.7,7.9-7.9v-1.1c0-1.4.6-13.6,18.4-13.6s16.5,2.3,16.5,14.2-10.5,15.6-16.2,20.1c-9.6,7.9-17.6,15.6-17.6,31.8v2.8c0,4.5,3.7,7.9,7.9,7.9h13.3c4.5,0,7.9-3.7,7.9-7.9v-2.8c0-3.1,0-3.7,6.8-9.4,9.4-7.7,26.7-21.8,26.7-42.8,0-20.7-11.9-42.8-45.7-42.8Z"/>
      <path class="st1" d="M126.5,165h-16.2c-4.5,0-7.9,3.7-7.9,7.9v13.9c0,4.5,3.7,7.9,7.9,7.9h16.2c4.5,0,7.9-3.7,7.9-7.9v-13.9c0-4.3-3.7-7.9-7.9-7.9Z"/>
    </g>
  </g>
</svg>