<?xml version="1.0" encoding="UTF-8"?><svg id="a" xmlns="http://www.w3.org/2000/svg" width="45" height="38" viewBox="0 0 45 38"><defs><style>.b{fill:#fff;}</style></defs><path class="b" d="M35.78998,4.44c-.22998-.34998-.69-.45001-1.03998-.22003-.34998.23004-.44.69-.21997,1.04004.27997.42999.48999.89001.62994,1.37.13.44.19.90002.19,1.35999,0,.46002-.06.91998-.19,1.35999-.13995.48004-.34998.94-.62994,1.37-.22003.35004-.13.81006.21997,1.04004.13.08002.27002.12.40997.12.24005,0,.48004-.12.63-.34003.70001-1.06,1.06-2.28998,1.06-3.54999s-.35999-2.48999-1.06-3.54999ZM39.13,2.53003c-.22003-.35004-.69-.46002-1.03998-.24005-.35004.22003-.45001.67999-.24005,1.03003.25.39996.46002.82001.64001,1.23999.46002,1.09003.71002,2.25.71002,3.42999s-.25,2.35004-.71002,3.42999c-.17999.42999-.39001.84003-.63,1.23999-.21997.35004-.12.81.23004,1.03003.12994.08002.25995.12.39996.12.25,0,.48999-.13.64001-.35999,1.02997-1.64001,1.57001-3.53003,1.57001-5.46002s-.54004-3.82001-1.57001-5.45996ZM42.46002.60999c-.22003-.34998-.67999-.45996-1.03003-.25-.34998.22003-.46002.67999-.25,1.03003.23999.39001.45001.78998.64001,1.20001.81,1.69,1.22998,3.52997,1.22998,5.39996s-.42999,3.71002-1.22998,5.40002c-.19.40997-.40002.81-.64001,1.20001-.21002.34998-.09998.81.25,1.02997.12.07001.26001.10999.39001.10999.25,0,.5-.13.64001-.35999,1.37-2.22998,2.08997-4.78998,2.08997-7.38s-.71997-5.14996-2.08997-7.38ZM19.48999,24.07001h-8.10999v2.83002h-5.21002c-.52997,0-.95996.42999-.95996.95996,0,.54004.42999.97003.95996.97003h13.15002c-.12-.65002-.19-1.32001-.19-2,0-.95001.13-1.87.35999-2.76001ZM30.97998,0H1.92999C.87,0,0,.85999,0,1.92999v19.15002c0,1.06.87,1.92999,1.92999,1.92999h17.89001c.38-1.04999.90997-2.02002,1.57001-2.89001H2.89001V2.89001h27.12v12.78998c.09998-.01001.19-.02002.28998-.02002.90002,0,1.77002.12006,2.60004.32001V1.92999c0-1.07001-.86005-1.92999-1.92004-1.92999Z"/><path class="b" d="M30.29999,16.65997c-5.60999,0-10.16998,4.56-10.16998,10.17004s4.56,10.16998,10.16998,10.16998,10.16998-4.56,10.16998-10.16998-4.56-10.17004-10.16998-10.17004ZM35.09998,30.20001c0,.79999-.69995,1.5-1.5,1.5h-6.69995c-.80005,0-1.5-.70001-1.5-1.5v-6.70001c0-.79999.69995-1.5,1.5-1.5h6.69995c.80005,0,1.5.70001,1.5,1.5v6.70001Z"/></svg>