<svg id="Layer_1" data-name="Layer 1" xmlns="http://www.w3.org/2000/svg" viewBox="0 0 353.4 397.13"><defs><style>.cls-1{fill:#46d62f;}.cls-2{fill:#46d62f;}</style></defs><path class="cls-1" d="M343.73,143.13,197,7.94a30,30,0,0,0-40.65,0L9.68,143A30,30,0,0,0,0,165.09v136a30,30,0,0,0,50.33,22.06L96.7,280.43v86.7a30,30,0,0,0,30,30h100a30,30,0,0,0,30-30V280.48l46.36,42.77A30,30,0,0,0,353.4,301.2v-136A30,30,0,0,0,343.73,143.13ZM338.4,301.2a15,15,0,0,1-25.17,11l-71.53-66V367.13a15,15,0,0,1-15,15h-100a15,15,0,0,1-15-15V246.21L40.16,312.12a15,15,0,0,1-25.16-11v-136a15,15,0,0,1,4.84-11L166.54,19a15,15,0,0,1,20.33,0l146.7,135.19a15,15,0,0,1,4.83,11Z"/><polygon class="cls-2" points="30 165.09 30 301.09 126.7 211.99 126.7 367.13 226.7 367.13 226.7 211.99 323.4 301.2 323.4 165.19 176.7 30 30 165.09"/></svg>