<?xml version="1.0" encoding="UTF-8"?><svg id="a" xmlns="http://www.w3.org/2000/svg" width="119" height="119" viewBox="0 0 119 119"><defs><style>.b{fill:#dadada;}</style></defs><path class="b" d="M95.24376,46.50768h-13.7272v-.52337c.00117-1.87915-1.52034-3.40392-3.39949-3.40674h-20.96476c-6.685.00793-12.10541,5.38551-12.19574,12.05102H0v9.74258h44.95663c.09027,6.66552,5.5105,12.0434,12.19568,12.05127h20.96476c1.8786-.00399,3.39949-1.52809,3.39949-3.40668v-.52337h13.72542c1.33316.00221,2.41567-1.07686,2.41782-2.41002v-21.16282c-.00117-1.33323-1.08282-2.41303-2.41604-2.41186ZM92.83823,67.67019h-11.32167v-16.34013h11.32167v16.34013Z"/><path class="b" d="M86.89371,65.42449h1.55045c1.33206,0,2.4118-1.07981,2.4118-2.4118s-1.07974-2.4118-2.4118-2.4118h-1.55045c-1.332,0-2.41186,1.07981-2.41186,2.4118s1.07987,2.4118,2.41186,2.4118Z"/><path class="b" d="M86.88314,58.40004h1.56102c1.33206,0,2.4118-1.07981,2.4118-2.4118s-1.07974-2.4118-2.4118-2.4118h-1.55045c-1.32622-.00135-2.4024,1.07262-2.40375,2.39884,0,.00436,0,.0086.00006.01297-.00516,1.32684,1.06622,2.4067,2.39312,2.4118Z"/></svg>