<?xml version="1.0" encoding="UTF-8"?><svg id="a" xmlns="http://www.w3.org/2000/svg" width="50" height="50" viewBox="0 0 50 50"><defs><style>.c{fill:#727272;}.d{fill:#fff;}.e{fill:#c9cbc9;}.f{fill:#ff4d00;}.g{fill:none;stroke:#7c837c;stroke-width:2.5px;}</style></defs><path class="g" d="M17.55177,9.14706v-.13898c0-.76433-.62534-1.38962-1.38972-1.38962h-3.9363c-.76438,0-1.38972.62529-1.38972,1.38962v.18129c0,.0399.00857.07755.01178.11665.36505-.08644.74788-.14937,1.17164-.15896h5.53233Z"/><path class="g" d="M38.75604,9.21475c.00021-.00868.00257-.01671.00257-.02539v-.18129c0-.76433-.62534-1.38962-1.38951-1.38962h-3.93652c-.76427,0-1.38962.62529-1.38962,1.38962v.13898h5.92845c.27572.00466.53462.03053.78463.0677Z"/><path class="g" d="M45.62893,20.18955c-1.96119-5.43941-2.7471-10.36139-6.87289-10.97479-.25001-.03717-.50891-.06304-.78463-.0677H12.01944c-.42375.00959-.80658.07252-1.17164.15896-1.69286.40094-2.80312,1.58157-3.67001,3.2574-1.05359,2.02824-1.77127,4.7596-2.80676,7.62613-2.498,7.0762-1.4352,13.86398,2.45264,15.24316,3.41711,1.22948,6.13615-2.33245,8.87307-8.09332h18.59942c2.7276,5.79187,5.41215,9.3236,8.88014,8.09332,3.88789-1.37917,4.95069-8.16696,2.45264-15.24316ZM40.83967,24.91546c-1.94009.89083-4.26751,1.02408-5.48263,1.02408-.53815,0-.87921-.02592-.91177-.0286-.04627-.0045-.09598-.00627-.14225-.00627H15.69652c-.04799,0-.09683.00177-.14482.00627-.02999.00268-.37105.0286-.9092.0286-3.18006,0-8.51664-.7361-8.51664-5.66607,0-.69941.33892-2.55263,2.60897-7.11497.9032-1.82103,1.83468-2.54369,3.32488-2.57946l25.92124.00086c1.44992.03492,2.38141.75758,3.28204,2.57593,2.27172,4.56325,2.61106,6.41824,2.61106,7.11765,0,2.21634-.96404,3.69122-3.03438,4.64198Z"/><path class="g" d="M37.98095,10.5799l-25.92124-.00086c-1.4902.03578-2.42168.75844-3.32488,2.57946-2.27006,4.56234-2.60897,6.41556-2.60897,7.11497,0,4.92996,5.33658,5.66607,8.51664,5.66607.53815,0,.87921-.02592.9092-.0286.04799-.0045.09683-.00627.14482-.00627h18.60649c.04627,0,.09598.00177.14225.00627.03256.00268.37362.0286.91177.0286,1.21512,0,3.54254-.13325,5.48263-1.02408,2.07034-.95076,3.03438-2.42564,3.03438-4.64198,0-.69941-.33934-2.5544-2.61106-7.11765-.90063-1.81835-1.83211-2.54101-3.28204-2.57593ZM13.16858,23.57517h-3.12565c-.52905,0-.9619-.43286-.9619-.9619s.43286-.96196.9619-.96196h3.12565c.52915,0,.9619.43291.9619.96196s-.43275.9619-.9619.9619ZM13.16858,20.77692h-3.12565c-.52905,0-.9619-.43286-.9619-.9619s.43286-.9619.9619-.9619h3.12565c.52915,0,.9619.43286.9619.9619s-.43275.9619-.9619.9619ZM12.42712,18.03191c-1.6753,0-3.03781-1.36252-3.03781-3.03781s1.36252-3.03867,3.03781-3.03867,3.03867,1.36337,3.03867,3.03867-1.36337,3.03781-3.03867,3.03781ZM33.64361,23.33806c0,.48465-.39279.8775-.8775.8775h-15.53226c-.4847,0-.8775-.39285-.8775-.8775v-9.84697c0-.48459.39279-.8775.8775-.8775h15.53226c.4847,0,.8775.3929.8775.8775v9.84697ZM37.57284,11.95543c1.6753,0,3.03781,1.36337,3.03781,3.03867s-1.36252,3.03781-3.03781,3.03781-3.03867-1.36252-3.03867-3.03781,1.36337-3.03867,3.03867-3.03867ZM39.95703,23.57517h-3.12565c-.52915,0-.9619-.43286-.9619-.9619s.43275-.96196.9619-.96196h3.12565c.52905,0,.9619.43291.9619.96196s-.43286.9619-.9619.9619ZM40.91893,19.85792c0,.50548-.41358.919-.91906.919h-4.23741c-.50548,0-.91906-.41352-.91906-.919v-.0858c0-.50548.41358-.919.91906-.919h4.23741c.50548,0,.91906.41352.91906.919v.0858Z"/><path class="g" d="M14.14955,14.9941c0-.94948-.77295-1.72243-1.72243-1.72243s-1.72157.77295-1.72157,1.72243.77209,1.72157,1.72157,1.72157,1.72243-.77209,1.72243-1.72157Z"/><path class="g" d="M12.42712,11.95543c-1.6753,0-3.03781,1.36337-3.03781,3.03867s1.36252,3.03781,3.03781,3.03781,3.03867-1.36252,3.03867-3.03781-1.36337-3.03867-3.03867-3.03867ZM10.70555,14.9941c0-.94948.77209-1.72243,1.72157-1.72243s1.72243.77295,1.72243,1.72243-.77295,1.72157-1.72243,1.72157-1.72157-.77209-1.72157-1.72157Z"/><path class="g" d="M35.85041,14.9941c0,.94948.77295,1.72157,1.72243,1.72157s1.72157-.77209,1.72157-1.72157-.77209-1.72243-1.72157-1.72243-1.72243.77295-1.72243,1.72243Z"/><path class="g" d="M37.57284,18.03191c1.6753,0,3.03781-1.36252,3.03781-3.03781s-1.36252-3.03867-3.03781-3.03867-3.03867,1.36337-3.03867,3.03867,1.36337,3.03781,3.03867,3.03781ZM39.29441,14.9941c0,.94948-.77209,1.72157-1.72157,1.72157s-1.72243-.77209-1.72243-1.72157.77295-1.72243,1.72243-1.72243,1.72157.77295,1.72157,1.72243Z"/><path class="g" d="M13.16858,18.85311h-3.12565c-.52905,0-.9619.43286-.9619.9619s.43286.9619.9619.9619h3.12565c.52915,0,.9619-.43286.9619-.9619s-.43275-.9619-.9619-.9619Z"/><path class="g" d="M13.16858,21.65131h-3.12565c-.52905,0-.9619.43291-.9619.96196s.43286.9619.9619.9619h3.12565c.52915,0,.9619-.43286.9619-.9619s-.43275-.96196-.9619-.96196Z"/><path class="g" d="M39.99988,18.85311h-4.23741c-.50548,0-.91906.41352-.91906.919v.0858c0,.50548.41358.919.91906.919h4.23741c.50548,0,.91906-.41352.91906-.919v-.0858c0-.50548-.41358-.919-.91906-.919ZM39.84927,20.45916h-2.04195c-.35423,0-.64409-.28986-.64409-.64414s.28986-.64414.64409-.64414h2.04195c.35434,0,.6442.28986.6442.64414s-.28986.64414-.6442.64414Z"/><path class="g" d="M39.95703,21.65131h-3.12565c-.52915,0-.9619.43291-.9619.96196s.43275.9619.9619.9619h3.12565c.52905,0,.9619-.43286.9619-.9619s-.43286-.96196-.9619-.96196Z"/><path class="g" d="M39.84927,19.17087h-2.04195c-.35423,0-.64409.28986-.64409.64414s.28986.64414.64409.64414h2.04195c.35434,0,.6442-.28986.6442-.64414s-.28986-.64414-.6442-.64414Z"/><rect class="g" x="16.35636" y="12.6136" width="17.28725" height="11.60196" rx=".8775" ry=".8775"/><path class="f" d="M17.55177,9.14706v-.13898c0-.76433-.62534-1.38962-1.38972-1.38962h-3.9363c-.76438,0-1.38972.62529-1.38972,1.38962v.18129c0,.0399.00857.07755.01178.11665.36505-.08644.74788-.14937,1.17164-.15896h5.53233Z"/><path class="f" d="M38.75604,9.21475c.00021-.00868.00257-.01671.00257-.02539v-.18129c0-.76433-.62534-1.38962-1.38951-1.38962h-3.93652c-.76427,0-1.38962.62529-1.38962,1.38962v.13898h5.92845c.27572.00466.53462.03053.78463.0677Z"/><path class="e" d="M45.62893,20.18955c-1.96119-5.43941-2.7471-10.36139-6.87289-10.97479-.25001-.03717-.50891-.06304-.78463-.0677H12.01944c-.42375.00959-.80658.07252-1.17164.15896-1.69286.40094-2.80312,1.58157-3.67001,3.2574-1.05359,2.02824-1.77127,4.7596-2.80676,7.62613-2.498,7.0762-1.4352,13.86398,2.45264,15.24316,3.41711,1.22948,6.13615-2.33245,8.87307-8.09332h18.59942c2.7276,5.79187,5.41215,9.3236,8.88014,8.09332,3.88789-1.37917,4.95069-8.16696,2.45264-15.24316ZM40.83967,24.91546c-1.94009.89083-4.26751,1.02408-5.48263,1.02408-.53815,0-.87921-.02592-.91177-.0286-.04627-.0045-.09598-.00627-.14225-.00627H15.69652c-.04799,0-.09683.00177-.14482.00627-.02999.00268-.37105.0286-.9092.0286-3.18006,0-8.51664-.7361-8.51664-5.66607,0-.69941.33892-2.55263,2.60897-7.11497.9032-1.82103,1.83468-2.54369,3.32488-2.57946l25.92124.00086c1.44992.03492,2.38141.75758,3.28204,2.57593,2.27172,4.56325,2.61106,6.41824,2.61106,7.11765,0,2.21634-.96404,3.69122-3.03438,4.64198Z"/><path d="M37.98095,10.5799l-25.92124-.00086c-1.4902.03578-2.42168.75844-3.32488,2.57946-2.27006,4.56234-2.60897,6.41556-2.60897,7.11497,0,4.92996,5.33658,5.66607,8.51664,5.66607.53815,0,.87921-.02592.9092-.0286.04799-.0045.09683-.00627.14482-.00627h18.60649c.04627,0,.09598.00177.14225.00627.03256.00268.37362.0286.91177.0286,1.21512,0,3.54254-.13325,5.48263-1.02408,2.07034-.95076,3.03438-2.42564,3.03438-4.64198,0-.69941-.33934-2.5544-2.61106-7.11765-.90063-1.81835-1.83211-2.54101-3.28204-2.57593ZM13.16858,23.57517h-3.12565c-.52905,0-.9619-.43286-.9619-.9619s.43286-.96196.9619-.96196h3.12565c.52915,0,.9619.43291.9619.96196s-.43275.9619-.9619.9619ZM13.16858,20.77692h-3.12565c-.52905,0-.9619-.43286-.9619-.9619s.43286-.9619.9619-.9619h3.12565c.52915,0,.9619.43286.9619.9619s-.43275.9619-.9619.9619ZM12.42712,18.03191c-1.6753,0-3.03781-1.36252-3.03781-3.03781s1.36252-3.03867,3.03781-3.03867,3.03867,1.36337,3.03867,3.03867-1.36337,3.03781-3.03867,3.03781ZM33.64361,23.33806c0,.48465-.39279.8775-.8775.8775h-15.53226c-.4847,0-.8775-.39285-.8775-.8775v-9.84697c0-.48459.39279-.8775.8775-.8775h15.53226c.4847,0,.8775.3929.8775.8775v9.84697ZM37.57284,11.95543c1.6753,0,3.03781,1.36337,3.03781,3.03867s-1.36252,3.03781-3.03781,3.03781-3.03867-1.36252-3.03867-3.03781,1.36337-3.03867,3.03867-3.03867ZM39.95703,23.57517h-3.12565c-.52915,0-.9619-.43286-.9619-.9619s.43275-.96196.9619-.96196h3.12565c.52905,0,.9619.43291.9619.96196s-.43286.9619-.9619.9619ZM40.91893,19.85792c0,.50548-.41358.919-.91906.919h-4.23741c-.50548,0-.91906-.41352-.91906-.919v-.0858c0-.50548.41358-.919.91906-.919h4.23741c.50548,0,.91906.41352.91906.919v.0858Z"/><path class="d" d="M14.14955,14.9941c0-.94948-.77295-1.72243-1.72243-1.72243s-1.72157.77295-1.72157,1.72243.77209,1.72157,1.72157,1.72157,1.72243-.77209,1.72243-1.72157Z"/><path class="c" d="M12.42712,11.95543c-1.6753,0-3.03781,1.36337-3.03781,3.03867s1.36252,3.03781,3.03781,3.03781,3.03867-1.36252,3.03867-3.03781-1.36337-3.03867-3.03867-3.03867ZM10.70555,14.9941c0-.94948.77209-1.72243,1.72157-1.72243s1.72243.77295,1.72243,1.72243-.77295,1.72157-1.72243,1.72157-1.72157-.77209-1.72157-1.72157Z"/><path class="d" d="M35.85041,14.9941c0,.94948.77295,1.72157,1.72243,1.72157s1.72157-.77209,1.72157-1.72157-.77209-1.72243-1.72157-1.72243-1.72243.77295-1.72243,1.72243Z"/><path class="c" d="M37.57284,18.03191c1.6753,0,3.03781-1.36252,3.03781-3.03781s-1.36252-3.03867-3.03781-3.03867-3.03867,1.36337-3.03867,3.03867,1.36337,3.03781,3.03867,3.03781ZM39.29441,14.9941c0,.94948-.77209,1.72157-1.72157,1.72157s-1.72243-.77209-1.72243-1.72157.77295-1.72243,1.72243-1.72243,1.72157.77295,1.72157,1.72243Z"/><path class="c" d="M13.16858,18.85311h-3.12565c-.52905,0-.9619.43286-.9619.9619s.43286.9619.9619.9619h3.12565c.52915,0,.9619-.43286.9619-.9619s-.43275-.9619-.9619-.9619Z"/><path class="c" d="M13.16858,21.65131h-3.12565c-.52905,0-.9619.43291-.9619.96196s.43286.9619.9619.9619h3.12565c.52915,0,.9619-.43286.9619-.9619s-.43275-.96196-.9619-.96196Z"/><path class="d" d="M39.99988,18.85311h-4.23741c-.50548,0-.91906.41352-.91906.919v.0858c0,.50548.41358.919.91906.919h4.23741c.50548,0,.91906-.41352.91906-.919v-.0858c0-.50548-.41358-.919-.91906-.919ZM39.84927,20.45916h-2.04195c-.35423,0-.64409-.28986-.64409-.64414s.28986-.64414.64409-.64414h2.04195c.35434,0,.6442.28986.6442.64414s-.28986.64414-.6442.64414Z"/><path class="c" d="M39.95703,21.65131h-3.12565c-.52915,0-.9619.43291-.9619.96196s.43275.9619.9619.9619h3.12565c.52905,0,.9619-.43286.9619-.9619s-.43286-.96196-.9619-.96196Z"/><path class="f" d="M39.84927,19.17087h-2.04195c-.35423,0-.64409.28986-.64409.64414s.28986.64414.64409.64414h2.04195c.35434,0,.6442-.28986.6442-.64414s-.28986-.64414-.6442-.64414Z"/><rect class="c" x="16.35636" y="12.6136" width="17.28725" height="11.60196" rx=".8775" ry=".8775"/></svg>