<?xml version="1.0" encoding="UTF-8"?><svg id="a" xmlns="http://www.w3.org/2000/svg" width="50" height="50" viewBox="0 0 50 50"><defs><style>.c{fill:#0067fb;}</style></defs><path class="c" d="M40.40945,25.64764c3.08338-1.38435,5.24172-4.52163,5.24172-8.16365,0-4.9188-3.93498-8.92057-8.77189-8.92057-2.35519,0-4.49484.95057-6.0722,2.49201l.38993.55694c.19178.24114.30472.52971.3363.82843,1.33175-1.46881,3.23499-2.39061,5.34597-2.39061,4.01701,0,7.28513,3.33476,7.28513,7.43381s-3.26812,7.43381-7.28513,7.43381c-1.88814,0-3.61062-.73703-4.90624-1.94362l.08005,1.95368c.40935.27539.84271.51626,1.29602.71979-.43213.18697-.84587.40799-1.23955.65815l.07278,1.77566c1.28132-1.04734,2.91681-1.67689,4.69695-1.67689,4.09905,0,7.43381,3.33476,7.43381,7.43381s-3.33476,7.43381-7.43381,7.43381c-3.18625,0-5.90982-2.01535-6.9652-4.83793l-.81082.01564-.58048.50792c1.26767,3.38476,4.53471,5.80113,8.3565,5.80113,4.9188,0,8.92057-4.00177,8.92057-8.92057,0-3.66529-2.22266-6.82015-5.3904-8.19073Z"/><path class="c" d="M32.14892,12.27057c-.31537.25732-.48888.58233-.58122.81227l.01408.34347c.24508.14548.87071.57376,1.36387,1.39841l3.03193.45557c-.40668-.69853-.88353-1.38948-1.25504-1.82379-.92414-1.08033-1.78312-1.83092-2.57363-1.18594Z"/><path class="c" d="M35.84359,24.62586c.69334.10463,1.26467-.23766,1.26467-.23766,0,0-.26583-.90723.0959-2.08254.19969-.64882.24902-1.72507.17568-2.68192-.04782.02791-.09368.05771-.14398.08316l-.89835.45812c-.23007.11505-.47452.19895-.71991.24799l-.32534.06764c-.14225.53507-.24926,1.04906-.29926,1.44217-.17935,1.4103-.15824,2.5508.85059,2.70305Z"/><path class="c" d="M43.17148,14.75099c-.27125-.64661-.86075-.95656-.86075-.95656,0,0-.63661.6989-1.82858,1.0012-.70407.17857-1.73644.75861-2.54278,1.36288.41298.43603.62957.98262.61879,1.55324.9652-.18555,2.0807-.53051,2.74701-.82843,1.29783-.58031,2.26096-1.19151,1.86631-2.13234Z"/><path class="c" d="M36.24114,27.03696s-.61039-.26644-1.28467-.07403c-.98108.27995-.85621,1.4138-.49803,2.7896.09102.34962.24198.79289.42665,1.25678l2.12974.5748c.03363.00907.06572.02062.09835.03131-.05786-.92801-.2406-1.93134-.51067-2.52528-.50902-1.11941-.36136-2.05317-.36136-2.05317Z"/><path class="c" d="M43.12691,36.01027s.48646-.4549.57688-1.15024c.1316-1.01173-.95897-1.34622-2.3641-1.56235-.764-.11751-2.02894-.1532-3.04078-.05762-.00584.08764-.01795.17577-.04035.26387l-.31534,1.24055c.98409.43559,2.33767.80019,3.15534.78427,1.22946-.02394,2.02834.48153,2.02834.48153Z"/><path class="c" d="M32.20279,38.81699s.23035.6249.83601.97823c.88128.51409,1.61295-.36104,2.35771-1.57201.29022-.47191.64097-1.19749.92915-1.92769-.06583.0077-.13105.01744-.19869.01875l-2.27321.0439c-.17951.27746-.32683.54369-.41964.77656-.45532,1.14231-1.23133,1.68226-1.23133,1.68226Z"/><path class="c" d="M31.86273,20.28256l3.57327-.74295c.17842-.03568.34792-.09515.50253-.17247l.89206-.45494c.97532-.49361,1.12698-1.60273.31519-2.27773-.26167-.22004-.60064-.36574-.96935-.42224l-4.50825-.67739.19456,4.74771Z"/><path class="c" d="M20.08592,36.43425c-1.0554,2.82258-3.77895,4.83793-6.9652,4.83793-4.09905,0-7.43381-3.33476-7.43381-7.43381s3.33476-7.43381,7.43381-7.43381c1.78012,0,3.41559.62951,4.69689,1.67684l.07276-1.77564c-.39367-.25015-.80737-.47116-1.23948-.65812.45327-.2035.88661-.44434,1.29594-.71973l.08005-1.95366c-1.2956,1.20656-3.01804,1.94355-4.90617,1.94355-4.01701,0-7.28513-3.33476-7.28513-7.43381s3.26812-7.43381,7.28513-7.43381c2.11094,0,4.01416.92177,5.34592,2.39054.0316-.2987.14454-.58723.33628-.82835l.38997-.55697c-1.57736-1.54143-3.71699-2.49198-6.07216-2.49198-4.83691,0-8.77189,4.00177-8.77189,8.92057,0,3.64202,2.15834,6.7793,5.24172,8.16365-3.16773,1.37057-5.3904,4.52544-5.3904,8.19073,0,4.9188,4.00177,8.92057,8.92057,8.92057,3.82177,0,7.08879-2.41637,8.35648-5.80109l-.58049-.50795-.81079-.01564Z"/><path class="c" d="M17.85101,12.27057c-.79051-.64498-1.64948.10561-2.57361,1.18594-.37145.43423-.84821,1.12503-1.25485,1.82346l3.03194-.45557c.49314-.8244,1.11861-1.25262,1.36366-1.39809l.01408-.34349c-.09234-.22995-.26585-.55496-.58122-.81226Z"/><path class="c" d="M12.79576,22.30566c.36174,1.17531.09592,2.08254.09592,2.08254,0,0,.57131.34229,1.26465.23766,1.00883-.15225,1.02993-1.29275.85059-2.70305-.04998-.393-.15693-.90683-.29913-1.44173l-.32367-.0673c-.24969-.05078-.4922-.13448-.72705-.25194l-.88961-.45371c-.05147-.02604-.09844-.05646-.14731-.08505-.07343.95701-.02414,2.03359.17561,2.68258Z"/><path class="c" d="M7.6892,13.79443s-.5895.30995-.86073.95656c-.39467.94082.56848,1.55202,1.86631,2.13234.66612.29784,1.78123.64271,2.74626.8283-.01127-.57102.20512-1.11797.61833-1.554-.80616-.60396-1.83787-1.18351-2.54158-1.36199-1.19197-.30231-1.8286-1.0012-1.8286-1.0012Z"/><path class="c" d="M15.04346,26.96293c-.67427-.19242-1.28467.07403-1.28467.07403,0,0,.14766.93376-.36136,2.05317-.27007.59394-.45282,1.59727-.51067,2.52528.03263-.01069.06472-.02223.09837-.03131l2.12974-.5748c.18467-.46389.33561-.90716.42663-1.25678.35819-1.3758.48307-2.50965-.49803-2.7896Z"/><path class="c" d="M8.66026,33.29768c-1.40515.21614-2.4957.55062-2.36412,1.56235.09044.69534.57688,1.15024.57688,1.15024,0,0,.79888-.50547,2.02836-.48153.81766.01592,2.17125-.34868,3.15534-.78427l-.31536-1.24055c-.0224-.08809-.0345-.17623-.04035-.26387-1.01184-.09557-2.27678-.05989-3.04076.05762Z"/><path class="c" d="M16.96113,39.79522c.60567-.35332.83601-.97823.83601-.97823,0,0-.77601-.53995-1.23131-1.68226-.09281-.23287-.24015-.4991-.41966-.77656l-2.27321-.0439c-.06764-.00131-.13287-.01105-.19869-.01875.28819.7302.63893,1.45578.92915,1.92769.74476,1.21097,1.47645,2.08609,2.35771,1.57201Z"/><path class="c" d="M18.33175,15.53455l-4.51027.6777c-.36574.0565-.70472.2022-.96935.42224-.8118.675-.65715,1.78411.31817,2.27773l.89206.45494c.15461.07731.3241.13679.49955.17247l3.57527.74336.19457-4.74843Z"/><path class="c" d="M24.99998,20.40291c.44677,0,.80895-.31176.80895-.69632v-1.52614c0-.38456-.36218-.69632-.80895-.69632s-.80895.31176-.80895.69632v1.52614c0,.38456.36218.69632.80895.69632Z"/><path class="c" d="M21.23925,35.5643l1.56166,1.36643c.16949.17194.41821.27105.68019.27105h3.03775c.26198,0,.51071-.09911.68019-.27105l1.56166-1.36645,7.34905-.14191c.43528-.0084.80511-.25329.89064-.58975l.39361-1.54847c.09174-.36089-.16978-.71955-.61162-.83881l-5.37347-1.45026-.75373-18.39322c0-.16211-.0596-.32006-.17029-.45124l-3.21574-4.59295c-.16781-.19889-.43614-.31661-.72175-.31661h-3.09487c-.28563,0-.55396.11771-.72177.31661l-3.21574,4.59295c-.11071.13118-.17031.28913-.17031.45124l-.75371,18.39322-5.37348,1.45026c-.22091.05962-.39675.17911-.5059.32879-.05457.07485-.09247.15722-.11098.24347s-.01766.17634.00526.26655l.39363,1.54847c.08552.33646.45536.58135.89062.58975l7.34907.14192ZM23.74496,16.37532c0-.69082.56305-1.25271,1.25504-1.25271s1.25489.56189,1.25489,1.25271v3.22064c0,.69082-.56291,1.253-1.25489,1.253s-1.25504-.56218-1.25504-1.253v-3.22064Z"/></svg>