<?xml version="1.0" encoding="UTF-8"?><svg id="a" xmlns="http://www.w3.org/2000/svg" width="50" height="50" viewBox="0 0 50 50"><defs><style>.c{fill:#9c63fb;}</style></defs><path class="c" d="M46.95917,19.48519c-.34798-.94018-.64878-1.87094-.94018-2.76407-1.4385-4.37185-2.79241-8.49924-7.06074-9.12914-.06588-.00941-.15046-.01882-.22563-.02823-.13175-.63931-.69572-1.11881-1.36333-1.11881h-3.9394c-.64867,0-1.19404.46073-1.34439,1.0624h-14.57275c-.1504-.60167-.69572-1.0624-1.35386-1.0624h-3.92993c-.69572,0-1.27863.51714-1.37268,1.19404-.10341.01882-.21622.02823-.31963.05641-1.95558.47009-3.45984,1.76754-4.60689,3.98634-.77095,1.4855-1.35386,3.25303-1.97435,5.1428-.29145.85554-.58291,1.74872-.912,2.65131-2.7923,7.91628-1.34445,15.40011,3.30944,17.04542.59232.21622,1.2034.32904,1.80512.32904,3.71371,0,6.3462-4.08975,8.42401-8.33937h16.82908c2.06846,4.24962,4.69159,8.33937,8.40524,8.33937.60173,0,1.22228-.11282,1.824-.31969,4.65383-1.65466,6.11115-9.13849,3.31885-17.04542ZM33.64611,13.26122v9.84368c0,.4795-.3948.87436-.88371.87436h-15.53169c-.4795,0-.87436-.39486-.87436-.87436v-9.84368c0-.48885.39486-.88377.87436-.88377h15.53169c.48891,0,.88371.39492.88371.88377Z"/></svg>