<svg xmlns="http://www.w3.org/2000/svg" viewBox="0 0 287.49485 223.5291"><defs><style>.cls-1{fill:#dededf;opacity:0.9;}.cls-2{fill:#666;}.cls-3{fill:#e5e5e5;}.cls-4{fill:#404040;}.cls-5{fill:#ccc;}.cls-6{fill:none;stroke:#000;stroke-linecap:round;stroke-linejoin:round;}</style></defs><title>Analog Accelerometer</title><g id="Layer_2" data-name="Layer 2"><g id="EDR"><g id="Analog_Accelerometer" data-name="Analog Accelerometer"><g id="Shadow"><path id="Unselected" class="cls-1" d="M12.69875,126.59694,162.94051,39.83787l119.43528,68.79632a8.873,8.873,0,0,1,.01369,15.36942L145.68513,202.7163a27.37681,27.37681,0,0,1-27.36743.02708L12.70391,141.973A8.873,8.873,0,0,1,12.69875,126.59694Z"/><path id="Selected" class="cls-1" d="M12.69875,143.73109,162.94051,56.972l119.43528,68.79631a8.873,8.873,0,0,1,.01369,15.36942l-136.70435,78.7127a27.37683,27.37683,0,0,1-27.36743.02707L12.70391,159.10718A8.873,8.873,0,0,1,12.69875,143.73109Z"/></g><g id="Color"><g id="Base_Color" data-name="Base Color"><g id="Dark_Gray" data-name="Dark Gray"><polygon class="cls-2" points="188.898 132.518 188.898 143.029 286.133 87.275 286.133 77.171 155.418 1.884 60.335 57.779 188.898 132.518"/></g><g id="Light_Gray" data-name="Light Gray"><polygon class="cls-3" points="60.335 57.779 3.354 90.268 3.354 102.696 131.362 175.221 188.898 143.029 188.898 132.518 60.335 57.779"/></g><g id="Left"><path class="cls-3" d="M35.79063,120.57743,72.137,141.59193S35.77883,144.34305,35.79063,120.57743Z"/></g><g id="Right"><path class="cls-3" d="M161.347,157.82572c-.98474.551-24.03125,13.73413-30.1947,17.26L99.97446,157.05948c-3.31366,20.99955,30.89258,22.035,30.89258,22.035S163.8082,180.33975,161.347,157.82572Z"/></g></g><g id="Chip"><polygon class="cls-4" points="208.858 85.856 208.858 80.741 238.931 63.728 253.558 72.235 253.558 77.224 223.598 94.489 208.858 85.856"/></g><polygon id="Peg_Box_1" data-name="Peg Box 1" class="cls-4" points="73.369 58.247 73.369 43.33 87.379 35.247 126.601 58.42 126.601 73.204 113.236 80.867 73.369 58.247"/><g id="Pegs"><path class="cls-5" d="M90.37955,6.5268a.499.499,0,0,0-.25049-.43262L87.675,4.6811a.50126.50126,0,0,0-.49951,0L84.68228,6.12055c-.01269.00732-.01807.02148-.02978.02978a.49646.49646,0,0,0-.32764.46534v36.915a.49978.49978,0,0,0,.25049.4331l2.61572,1.50586a.49971.49971,0,0,0,.49951,0l2.49365-1.43945a.53976.53976,0,0,0,.24122-.51465V6.83a.48944.48944,0,0,0-.0647-.23266A.47013.47013,0,0,0,90.37955,6.5268Z"/><path class="cls-5" d="M103.1232,13.87787a.499.499,0,0,0-.25049-.43261l-2.45361-1.4126a.50126.50126,0,0,0-.49951,0l-2.49366,1.43945c-.01269.00733-.01806.02173-.03.03a.49624.49624,0,0,0-.3269.46509V50.88178a.49976.49976,0,0,0,.25049.4331l2.61523,1.50635a.49965.49965,0,0,0,.49951,0l2.49366-1.43994a.54356.54356,0,0,0,.2417-.51416V14.1811a.48614.48614,0,0,0-.06519-.23316A.47146.47146,0,0,0,103.1232,13.87787Z"/><path class="cls-5" d="M115.90616,21.36738a.47179.47179,0,0,0,.0188-.07007.499.499,0,0,0-.25049-.43262l-2.45361-1.4126a.5013.5013,0,0,0-.49952,0l-2.49365,1.43945c-.01245.00709-.01782.02125-.0293.0293a.49605.49605,0,0,0-.32763.46533v36.915a.49979.49979,0,0,0,.25049.43311l2.61523,1.50635a.49971.49971,0,0,0,.49951,0l2.49365-1.44a.54355.54355,0,0,0,.2417-.51416v-36.686A.48617.48617,0,0,0,115.90616,21.36738Z"/></g></g><g id="Outline"><line class="cls-6" x1="57.99325" y1="56.43762" x2="188.22783" y2="131.84878"/><polyline class="cls-6" points="285.786 85.997 131.229 175.221 2.416 100.633"/><polyline class="cls-6" points="286.195 75.529 131.229 164.989 2.416 90.401"/><line class="cls-6" x1="3.07882" y1="90.93725" x2="3.07882" y2="102.0792"/><line class="cls-6" x1="131.22855" y1="164.98892" x2="131.2233" y2="174.97089"/><path d="M156.1871,3a1.70382,1.70382,0,0,1,.85437.22949l126.53339,73.2681a1.844,1.844,0,0,1,.91992,1.61224l-.05768,6.48593a3.51733,3.51733,0,0,1-1.75873,3.01487L161.11294,157.7885a10.66486,10.66486,0,0,1,.30322,2.49316c0,9.81813-13.58984,17.77735-30.35376,17.77735s-30.35376-7.95922-30.35376-17.77735a10.69891,10.69891,0,0,1,.37622-2.79391L71.69619,140.47037c-1.5747.1477-3.18823.22683-4.83386.22683-16.76392,0-30.35376-7.959-30.35376-17.77731a10.67539,10.67539,0,0,1,.33337-2.63138L4.08047,101.31827a2.03036,2.03036,0,0,1-1.01282-1.73734l-.0675-6.979a2.85152,2.85152,0,0,1,1.42578-2.497L73,50.5181l-.04755-7.188,11.44409-6.69693-.008-29.83087a.85414.85414,0,0,1,.43628-.74729l2.32885-1.31692a.51085.51085,0,0,1,.50373.00043l2.34948,1.33316a.73576.73576,0,0,1,.37262.63986V36.455l3.5,2.01562L97.07748,36.58V14.46478a1.00245,1.00245,0,0,1,.49365-.86377l2.06824-1.21875a1.00271,1.00271,0,0,1,1.02374.00336l2.16883,1.29739a.66356.66356,0,0,1,.32293.56946V33.16183l6.84967-3.89431V22.05637a1.29026,1.29026,0,0,1,.64551-1.11759l1.658-.95639a1.2903,1.2903,0,0,1,1.28729-.00122l1.66791.958a1.29029,1.29029,0,0,1,.64758,1.11883v3.76828L155.33926,3.22574A1.70386,1.70386,0,0,1,156.1871,3m0-3a4.71249,4.71249,0,0,0-2.33966.623l-35.13758,20.141a4.30085,4.30085,0,0,0-1.95227-2.426l-1.66815-.95813a4.29,4.29,0,0,0-4.28033.00391l-1.65808.95651a4.30177,4.30177,0,0,0-2.14649,3.71619v5.46579l-.84967.48309V14.25247a3.68139,3.68139,0,0,0-1.7829-3.144L102.20315,9.8111a4.00239,4.00239,0,0,0-4.08649-.01365l-2.06854,1.21894a4.01811,4.01811,0,0,0-1.97064,3.44839V34.86853l-.21777.12875-.48017-.27652V6.71158a3.74225,3.74225,0,0,0-1.89215-3.24912L89.138,2.12933a3.51122,3.51122,0,0,0-3.46082-.00271l-2.329,1.317a3.853,3.853,0,0,0-1.95959,3.36716l.0075,28.10233-9.9588,5.82776-1.49621.87558L69.95254,43.35l.036,5.44256L2.92605,87.50674a5.86026,5.86026,0,0,0-2.92578,5.124l.06751,6.97915a5.05184,5.05184,0,0,0,2.50939,4.30451l30.97449,17.93548q-.043.53573-.04309,1.07c0,11.65082,14.65076,20.77731,33.35376,20.77731,1.37476,0,2.7655-.053,4.147-.15789l26.75794,15.494q-.0585.62479-.0586,1.24833c0,11.65084,14.6507,20.77735,33.35376,20.77735s33.35376-9.12651,33.35376-20.77735q0-.45606-.03253-.91726L284.17825,90.2088a6.54311,6.54311,0,0,0,3.25873-5.58633l.05767-6.486a4.85219,4.85219,0,0,0-2.41656-4.23514L158.54476.63333A4.71025,4.71025,0,0,0,156.1871,0Z"/><ellipse class="cls-6" cx="67.19838" cy="90.93725" rx="14.77433" ry="8.14277"/><ellipse class="cls-6" cx="131.24801" cy="127.98262" rx="14.77433" ry="8.14277"/><line class="cls-6" x1="126.80716" y1="58.41955" x2="126.80716" y2="73.08625"/><line class="cls-6" x1="112.92508" y1="66.31452" x2="112.92508" y2="80.70502"/><polyline class="cls-6" points="73.44 43.516 73.44 58.31 112.869 81.077 126.807 73.086"/><line class="cls-6" x1="97.55827" y1="41.18649" x2="89.97898" y2="36.75167"/><line class="cls-6" x1="110.20621" y1="48.58711" x2="102.79947" y2="44.25325"/><polyline class="cls-6" points="84.825 36.944 73.44 43.516 112.869 66.347 126.807 58.301 115.646 51.77"/><line class="cls-6" x1="87.37944" y1="44.70502" x2="87.37944" y2="8.09018"/><polygon class="cls-6" points="87.426 5.114 84.932 6.554 87.386 7.967 89.879 6.527 87.426 5.114"/><polyline class="cls-6" points="89.925 6.83 89.925 43.516 89.934 43.597 87.44 45.037 84.825 43.531 84.825 6.616"/><line class="cls-6" x1="100.12357" y1="52.05628" x2="100.12357" y2="15.44144"/><polygon class="cls-6" points="100.17 12.466 97.676 13.905 100.13 15.318 102.623 13.878 100.17 12.466"/><polyline class="cls-6" points="102.67 14.181 102.67 50.867 102.678 50.948 100.184 52.388 97.569 50.882 97.569 13.967"/><line class="cls-6" x1="112.92508" y1="59.47559" x2="112.92508" y2="22.86076"/><polygon class="cls-6" points="112.971 19.885 110.478 21.324 112.931 22.737 115.425 21.298 112.971 19.885"/><polyline class="cls-6" points="115.471 21.601 115.471 58.286 115.48 58.368 112.986 59.807 110.371 58.301 110.371 21.386"/><polygon class="cls-6" points="208.858 80.825 238.765 63.56 253.612 72.108 223.705 89.373 208.858 80.825"/><polyline class="cls-6" points="253.612 77.224 223.705 94.489 208.858 85.941"/><line class="cls-6" x1="253.61181" y1="72.10844" x2="253.61181" y2="77.22404"/><line class="cls-6" x1="223.70483" y1="89.37328" x2="223.70483" y2="94.48888"/><line class="cls-6" x1="208.85833" y1="80.825" x2="208.85833" y2="85.9406"/></g></g></g></g></svg>