<svg xmlns="http://www.w3.org/2000/svg" viewBox="0 0 153.88733 177.45236"><defs><style>.cls-1{fill:#dededf;opacity:0.9;}.cls-2{fill:#666;}.cls-3{fill:#d7282f;}.cls-4{fill:#9e202c;}.cls-5{fill:#333132;}.cls-6{fill:#e6e7e8;}.cls-7{fill:#414042;}.cls-8{fill:none;stroke:#000;stroke-linecap:round;stroke-linejoin:round;}</style></defs><title>Bumper Switch</title><g id="Layer_2" data-name="Layer 2"><g id="EDR"><g id="Bumper_Switch" data-name="Bumper Switch"><g id="Shadows"><path id="Shadow_Unselected_Height" data-name="Shadow Unselected Height" class="cls-1" d="M11.95707,121.55209,94.25259,72.94328a16.4042,16.4042,0,0,1,16.51728.06449L149.4432,95.562a8.873,8.873,0,0,1,.01369,15.36942L72.42136,156.27371a27.37683,27.37683,0,0,1-27.36744.02708L11.96223,136.92818A8.873,8.873,0,0,1,11.95707,121.55209Z"/><path id="Shadow_Selected_Height" data-name="Shadow Selected Height" class="cls-1" d="M11.95707,139.05209,94.25259,90.44328a16.4042,16.4042,0,0,1,16.51728.06449L149.4432,113.062a8.873,8.873,0,0,1,.01369,15.36942L72.42136,173.77371a27.37683,27.37683,0,0,1-27.36744.02708L11.96223,154.42818A8.873,8.873,0,0,1,11.95707,139.05209Z"/></g><g id="Color"><path id="Gray_Body" data-name="Gray Body" class="cls-2" d="M115.13762,24.39337s-3.9875-3.17969-6.39375-4.88125L82.00012,4.009a9.94918,9.94918,0,0,0-8.9375.10313L41.26575,21.26524s-5.86094,3.26563-6.66875,3.9875-4.70938,3.67813-4.50313,8.62813l-.34375,12.54687a11.075,11.075,0,0,0,5.5,8.81719l-.6875,13.45781L8.50637,83.759S3.1095,86.61212,3.35012,92.23243l-.34375,6.51406a9.26192,9.26192,0,0,0,5.05313,8.525l22.65312,12.99375a28.99172,28.99172,0,0,0,28.325-.72187l53.28125-30.73125,29.76875-17.22188s5.775-2.64687,5.6375-8.42187l-.51562-8.73125s-.05157-3.40313-4.74375-6.35938l-10.22313-5.99742-1.0175-.5682,4.74421-2.79278,6.54986-3.829a2.41456,2.41456,0,0,0-.364-2.46044c-.97056-1.13882-1.836-.86975-1.836-.86975l-.6902.29333a2.25582,2.25582,0,0,0-.68319-1.41652,2.0792,2.0792,0,0,0-2.09862-.34941h0a2.09733,2.09733,0,0,0-2.32133-1.8878h0l-13.957,7.98421s.3114-4.02956-.55566-5.699A15.99166,15.99166,0,0,0,115.13762,24.39337Z"/><path id="White_Top" data-name="White Top" class="cls-3" d="M35.25012,55.24493a11.075,11.075,0,0,1-5.5-8.81719l.34375-12.54687c-.20625-4.95,3.69531-7.90625,4.50313-8.62813s6.66875-3.9875,6.66875-3.9875L73.06262,4.11212a9.94918,9.94918,0,0,1,8.9375-.10313l26.74375,15.50313c2.40625,1.70156,6.39375,4.88125,6.39375,4.88125,5.65469,4.07344,5.43125,8.1125,5.43125,8.1125l.06875,2.93906c.275.18906.36667,9.49323.36667,9.49323s.55,6.92083-5.59167,10.45S93.00012,68.31316,91.396,69.04649a31.1014,31.1014,0,0,1-15.95,3.75834s-8.70833-.04584-13.38333-2.475S35.25012,55.24493,35.25012,55.24493Z"/><ellipse class="cls-4" cx="75.34377" cy="23.28458" rx="8.12228" ry="14.17111" transform="translate(51.41992 98.42781) rotate(-89.51322)"/><path id="Black_Wire" data-name="Black Wire" class="cls-5" d="M120.56887,36.184l.20625,3.23125,16.07206-9.32766a2.34585,2.34585,0,0,0-1.04662-1.68721,2.39356,2.39356,0,0,0-1.27471-.20059Z"/><path id="Red_Wire" data-name="Red Wire" class="cls-3" d="M120.70637,39.52983l.20625,3.23125L139.629,31.85351a2.34582,2.34582,0,0,0-1.04662-1.68721,2.39358,2.39358,0,0,0-1.2747-.20058Z"/><path id="White_Wire" data-name="White Wire" class="cls-6" d="M120.90184,42.8309l-.03505,4.71976,21.6524-12.66029a2.41739,2.41739,0,0,0-.90589-2.97647,1.55036,1.55036,0,0,0-1.29411-.35372Z"/><path id="Left_Hole" data-name="Left Hole" class="cls-7" d="M13.66751,88.43027a2.04514,2.04514,0,0,1-.79551-1.76659c0-2.00289,2.8164-3.62656,6.29062-3.62656a13.15136,13.15136,0,0,1,3.24844.42969,25.38057,25.38057,0,0,1,5.20781,2.73281l24.54375,14.1625s3.19688,2.13125.72188,4.57187-7.95782,1.95938-10.15782.6875S20.26262,92.81681,13.66751,88.43027Z"/><path id="Right_Hole" data-name="Right Hole" class="cls-7" d="M131.50012,58.20691c3.3653.0948,6.325-1.67,6.325-3.75833a2.92165,2.92165,0,0,0-1.10481-2.17151l-11.95769-7.06391-3.94167,2.2s-.43541,3.34583-2.0625,5.04167c0,0,4.3797,2.43083,5.775,3.34583A12.73146,12.73146,0,0,0,131.50012,58.20691Z"/></g><g id="Stroke"><g id="Outer_Lines" data-name="Outer Lines"><path d="M77.62564,3a9.66385,9.66385,0,0,1,4.37448,1.009l26.74375,15.50313c2.40625,1.70155,6.39374,4.88125,6.39374,4.88125a15.9915,15.9915,0,0,1,4.87561,6.09164c.86706,1.66941.55566,5.699.55566,5.699l13.957-7.98423.03076-.00012a2.09377,2.09377,0,0,1,2.29056,1.88792l-.00021.00012h0l-.00284.00153-.29508.1594.29508-.1594.00284-.00153h0l.00021-.00012a1.39955,1.39955,0,0,1,.67328-.16294,2.58374,2.58374,0,0,1,1.42535.51237,2.25572,2.25572,0,0,1,.6832,1.4165l.69019-.29332a.89386.89386,0,0,1,.24224-.02771,2.13343,2.13343,0,0,1,1.59375.89745,2.4146,2.4146,0,0,1,.364,2.46046l-6.54987,3.829-4.7442,2.79278,1.01749.5682,10.22311,5.99742c4.6922,2.95625,4.74378,6.35938,4.74378,6.35938l.51562,8.73125c.13748,5.775-5.63751,8.42187-5.63751,8.42187L112.31888,88.81213,59.03763,119.54337a28.5811,28.5811,0,0,1-14.04221,4.05625q-.38159.01022-.756.0101a28.55731,28.55731,0,0,1-13.52676-3.34447L8.05948,107.2715a9.26186,9.26186,0,0,1-5.0531-8.525l.34375-6.51407C3.1095,86.61213,8.50638,83.759,8.50638,83.759L34.56262,68.70275l.6875-13.45782a11.075,11.075,0,0,1-5.5-8.81718l.34375-12.54687c-.20626-4.95,3.69532-7.90625,4.50312-8.62813s6.66876-3.9875,6.66876-3.9875L73.06262,4.11213A9.96947,9.96947,0,0,1,77.62564,3m56.90021,25.19976-.00351,0,.00351,0m-.00351,0h0m-.001,0h0m-.00094,0h0m-.00046,0h0m-.00116,0-.0022,0,.0022,0m-.0022,0h0m-.00064,0h0m-.00149,0h0m-.0011,0h0m-.00162,0h0m-.00122,0h0m-.00012,0-.00479,0,.00479,0m-.00479,0h0m-.00055,0-.00336,0,.00336,0m-.00336,0h0m-.00024,0h0m-.00092,0h0m-.00119,0h0m-.00034,0-.00231,0,.00231,0m-.00231,0h0m-.00055,0h0m-.00122,0h0m-.00095,0h0m-.00037,0h0m-.00195,0-.00241,0,.00241,0m-.00241,0-.00345,0,.00345,0m-.00345,0h0m-.0003,0-.00327,0,.00327,0m-.00327,0-.00229,0,.00229,0m-.00229,0h0m-.00024,0h0m-.0008,0h0m-.00009,0h0m-.00085,0h0m-.00034,0h0m-.00058,0h0m-.00143,0h0m-.00089,0h0m-.00006,0-.00213,0,.00213,0m-.00213,0h0m-.00065,0-.00262,0,.00262,0m-.00262,0-.003,0,.003,0m-.003,0h0m-.00037,0h0m-.00052,0h0m-.0007,0h0m-.00009,0h0m-.00055,0-.00238,0,.00238,0m-.00238,0-.00226,0,.00226,0m-.00226,0h0m-.00088,0h0m0,0h0m-.00086,0h0m-.00006,0-.00326,0,.00326,0m-.00326,0-.00452,0,.00452,0m-.00452,0h0m-.00034,0h0m-.00189,0h0m-.00012,0-.00314,0,.00314,0m-.00314,0-.00336,0,.00336,0m-.00336,0h0m-.00027,0h0m-.00211,0-.00159,0,.00159,0M77.62564,0a12.951,12.951,0,0,0-5.92376,1.4385l-.032.01628-.03161.017L39.8414,18.62493A69.22159,69.22159,0,0,0,32.598,23.01578l-.16763.1449c-3.67285,3.14848-5.46838,6.75925-5.338,10.73446L26.75125,46.3456l-.00174.06378.001.06382A14.15279,14.15279,0,0,0,32.1676,56.784L31.64972,66.9211,7.03244,81.14587C6.25305,81.578.13748,85.19672.34729,92.20715L.01056,98.5884A12.25314,12.25314,0,0,0,6.61252,109.9l22.59171,12.95852a31.64772,31.64772,0,0,0,15.03515,3.75118q.41442,0,.83621-.01117a31.78438,31.78438,0,0,0,15.53269-4.49785l53.20947-30.68985,29.68112-17.1712c1.12458-.56126,7.39508-4.015,7.22541-11.14267l-.00126-.05278-.00311-.05267-.515-8.72166c-.04706-.90012-.5676-5.21959-6.14-8.73034l-.04016-.02533-.041-.02405-6.813-3.99686.32046-.18864,6.542-3.82435.81747-.4779.395-.8606a5.4046,5.4046,0,0,0-.80725-5.65785,5.28814,5.28814,0,0,0-3.066-1.8745,4.11572,4.11572,0,0,0-.68814-.61735,5.86881,5.86881,0,0,0-1.96518-.91582,5.27,5.27,0,0,0-4.16232-1.87663h-.011l-.02606.00013h-.01062l-.0101.00009h-.05393l-.00949.00043h-.024l-.0046.00015h-.00327l-.00678.00017-.67865.00491-.39041.22335a2.99521,2.99521,0,0,0-.6503.372l-9.336,5.34075a7.69521,7.69521,0,0,0-.66611-2.03939l-.11224-.21677a18.6728,18.6728,0,0,0-5.56946-6.8489c-.1514-.1208-4.06909-3.2423-6.51786-4.9739l-.11047-.07813-.11706-.06787L83.5047,1.41355A12.63,12.63,0,0,0,77.62564,0Z"/></g><g id="Inner_Lines" data-name="Inner Lines"><path class="cls-8" d="M3.465,90.118s-1.42353,5.28,5.35078,9.06651l23.27187,13.38077a30.65086,30.65086,0,0,0,25.3-.61875L88.66887,93.86524l-.1375-2.8875a28.8494,28.8494,0,0,1-24.6311.80964c-5.4353-2.38118-23.0814-13.11589-23.0814-13.11589s-6.70919-3.38411-6.29507-10.19117c0,0-16.57765,9.9647-24.82118,14.48117C7.77355,84.0184,4.21556,86.30032,3.465,90.118Z"/><line class="cls-8" x1="23.97512" y1="84.10274" x2="23.97512" y2="94.69024"/><line class="cls-8" x1="51.88762" y1="100.19024" x2="51.88762" y2="105.58712"/><line class="cls-8" x1="57.38762" y1="111.94649" x2="57.86887" y2="120.81524"/><line class="cls-8" x1="30.91887" y1="111.87774" x2="30.71262" y2="120.88399"/><line class="cls-8" x1="8.85012" y1="99.22774" x2="8.64387" y2="108.23399"/><path class="cls-8" d="M36.48762,23.94649l36.575-19.83437a9.94918,9.94918,0,0,1,8.9375-.10313L109.428,20.26045a66.26446,66.26446,0,0,1,5.99106,4.36222c3.22393,2.82836,8.2802,8.3931,2.27765,14.88235-2.39412,2.58824-11.09059,6.72941-20.07177,12.30706a59.43284,59.43284,0,0,1-13.75141,6.44066,38.85927,38.85927,0,0,1-19.3875-.67031c-4.36563-1.2375-14.86995-7.74286-18.21875-9.72812-8.14688-4.82969-13.57813-7.06407-15.34844-11.42969a8.74584,8.74584,0,0,1-.10312-6.49688C31.77825,26.73087,36.48762,23.94649,36.48762,23.94649Z"/><path class="cls-8" d="M30.12825,33.39962s-.34375,8.71406-.37813,11.89375a10.03577,10.03577,0,0,0,.85938,4.74375c1.77031,4.36562,7.51093,6.66875,15.65781,11.49844,3.3488,1.98526,13.85312,8.49062,18.21875,9.72812a38.85927,38.85927,0,0,0,19.3875.67031A59.43284,59.43284,0,0,0,97.625,65.49333c8.98118-5.57765,17.71815-9.45718,20.18824-11.973a10.95694,10.95694,0,0,0,3.1447-8.36c0-3.72762-.381-10.66493-.44-12.48824"/><path class="cls-8" d="M40.47512,21.56316c-2.93333,3.20833,1.375,5.40833,1.375,5.40833L68.411,42.30634a9.52328,9.52328,0,0,0,9.52659-.00992l30.71457-17.777s3.025-1.46667,1.12292-4.78958"/><ellipse class="cls-8" cx="75.34377" cy="23.28458" rx="8.12228" ry="14.17111" transform="translate(51.41992 98.42781) rotate(-89.51322)"/><path class="cls-8" d="M63.68666,27.83565a13.92876,13.92876,0,0,1,23.42173.05216"/><line class="cls-8" x1="113.86575" y1="42.37149" x2="114.2095" y2="56.05274"/><line class="cls-8" x1="91.6595" y1="55.12462" x2="92.00325" y2="68.80587"/><line class="cls-8" x1="59.072" y1="55.22774" x2="58.90012" y2="68.87462"/><line class="cls-8" x1="36.83137" y1="42.37149" x2="36.57356" y2="55.91524"/><path class="cls-8" d="M35.75429,55.434a10.35242,10.35242,0,0,0,4.95,5.31667C44.623,62.859,62.29179,73.07983,62.29179,73.07983a26.90822,26.90822,0,0,0,12.1,3.34583A29.83576,29.83576,0,0,0,86.6522,74.04233c1.26042-.59584,6.92084-3.66667,12.48959-7.08125l11.6875-6.76042s3.96458-2.52083,4.675-4.90417l.59583,14.94167s.34375,4.95-5.45417,8.02083L88.53137,90.97774"/><path class="cls-8" d="M110.00429,60.659l.73333,19.9375,31.35-18.05833s5.20208-2.6125,5.45417-7.88333"/><line class="cls-8" x1="62.75012" y1="73.35483" x2="62.10845" y2="90.86316"/><line class="cls-8" x1="40.75012" y1="60.79649" x2="40.10845" y2="78.30483"/><g id="SPLINE"><path class="cls-8" d="M79.40711,23.98243a1.62621,1.62621,0,0,1,.18061-.06527.7292.7292,0,0,1,.23806-.02476.438.438,0,0,1,.184.04808.49839.49839,0,0,1,.099.07975l.01454.01977a.285.285,0,0,1,.047.133.42738.42738,0,0,1-.01552.15639.63578.63578,0,0,1-.07807.17249,1.56326,1.56326,0,0,1-.12312.15913,6.90723,6.90723,0,0,0-.52967.68418,2.51979,2.51979,0,0,0-.26528.53964,1.10993,1.10993,0,0,0-.07037.43874.38119.38119,0,0,0,.1119.25465.9592.9592,0,0,0,.43251.17072.32114.32114,0,0,1,.10727.03658.07354.07354,0,0,1,.02915.07729.20315.20315,0,0,1-.05506.09861c-.01894.02074-.043.0423-.06715.06386-.01609.01263-.03217.02525-.04964.03788a1.33333,1.33333,0,0,1-.1593.09668c-.06.03148-.1243.06088-.19012.08753-.07017.02842-.1421.05372-.21094.07413-.05084.01508-.1.02748-.14917.03989-.27831.07112-.55662.14224-.84961.22458-.2377.0668-.48505.141-.72546.20951-.2417.06888-.47639.132-.68987.18542-.19025.04758-.36366.08743-.50753.12282-.21953.054-.37026.09762-.521.14124a1.02307,1.02307,0,0,1-.10128.02537,1.77654,1.77654,0,0,1-.19183.02329c-.06873.00513-.14486.00822-.22388.00779-.05587-.00031-.11319-.00239-.1705-.00446l-.04827-.00282c-.03395-.00217-.06744-.00494-.1-.00813-.03351-.00329-.06607-.007-.09723-.01115-.03064-.00406-.05994-.00851-.08758-.01324-.02835-.00485-.055-.01-.07957-.01537-.02546-.00554-.04879-.0113-.06977-.01715q-.03224-.009-.05718-.01822a.34931.34931,0,0,1-.038-.01609.25162.25162,0,0,1-.02641-.01594,2.78515,2.78515,0,0,0-.31987-.16511c-.11868-.05194-.27651-.11277-.46015-.18555-.18464-.07319-.39538-.15846-.61951-.25089-.19973-.08235-.41009-.17039-.61942-.25269-.31946-.12561-.63653-.23786-.9536-.35012-.02959-.01-.05918-.02-.08906-.03094-.03034-.01115-.061-.02334-.09155-.03623-.04018-.017-.08024-.03517-.11951-.05456-.04063-.02005-.08043-.04138-.11855-.06365-.03366-.01967-.066-.04008-.09639-.061-.03146-.02163-.0608-.04377-.08761-.06606-.01966-.01634-.038-.03276-.05409-.049-.01649-.01662-.03071-.033-.04494-.04949l-.01454-.019a.24323.24323,0,0,1-.047-.10056.10629.10629,0,0,1,.01551-.07932.13753.13753,0,0,1,.07807-.05222.62249.62249,0,0,1,.12312-.01654,1.7492,1.7492,0,0,0,.52967-.09526.51686.51686,0,0,0,.26528-.25051.86105.86105,0,0,0,.07037-.43386,1.7373,1.7373,0,0,0-.1119-.49638,5.14729,5.14729,0,0,0-.43251-.81192,1.232,1.232,0,0,1-.10727-.20472.48487.48487,0,0,1-.02915-.20621.33166.33166,0,0,1,.05506-.16417.54945.54945,0,0,1,.06715-.07435c.01609-.0119.03218-.0238.04965-.03433a.44309.44309,0,0,1,.15929-.05484.68611.68611,0,0,1,.19012-.00162.83354.83354,0,0,1,.21094.05494,1.65651,1.65651,0,0,1,.14917.07285,4.81208,4.81208,0,0,0,.84961.36433,2.15815,2.15815,0,0,0,.72546.07963,1.87483,1.87483,0,0,0,.68988-.18053,1.80979,1.80979,0,0,0,.50752-.36456,3.41473,3.41473,0,0,0,.521-.78244,1.06,1.06,0,0,1,.10129-.168.66576.66576,0,0,1,.19182-.1624.67923.67923,0,0,1,.22389-.083,1.162,1.162,0,0,1,.17049-.01176c.01612.00117.03223.00234.04827.00413a.66377.66377,0,0,1,.36442.16247.57793.57793,0,0,1,.12694.15807.97414.97414,0,0,1,.06437.16655,3.30881,3.30881,0,0,0,.31988.75393,1.63746,1.63746,0,0,0,1.07965.73057,1.88493,1.88493,0,0,0,.61942.011,4.48231,4.48231,0,0,0,.9536-.29113"/></g><ellipse class="cls-8" cx="75.43086" cy="25.24385" rx="6.41451" ry="3.78314"/><line class="cls-8" x1="135.90012" y1="51.79024" x2="136.03762" y2="57.08399"/><path class="cls-8" d="M35.25012,55.24493a11.075,11.075,0,0,1-5.5-8.81719l.34375-12.54687c-.20625-4.95,3.69531-7.90625,4.50313-8.62813s6.66875-3.9875,6.66875-3.9875L73.06262,4.11212a9.94918,9.94918,0,0,1,8.9375-.10313l26.74375,15.50313c2.40625,1.70156,6.39375,4.88125,6.39375,4.88125,5.65469,4.07344,5.43125,8.1125,5.43125,8.1125l.06875,2.93906c.275.18906.36667,9.49323.36667,9.49323s.55,6.92083-5.59167,10.45S93.00012,68.31316,91.396,69.04649a31.1014,31.1014,0,0,1-15.95,3.75834s-8.70833-.04584-13.38333-2.475S35.25012,55.24493,35.25012,55.24493Z"/><path class="cls-8" d="M120.56887,36.184l.20625,3.23125,16.07206-9.32766a2.34585,2.34585,0,0,0-1.04662-1.68721,2.39356,2.39356,0,0,0-1.27471-.20059Z"/><path class="cls-8" d="M120.70637,39.52983l.20625,3.23125L139.629,31.85351a2.34582,2.34582,0,0,0-1.04662-1.68721,2.39358,2.39358,0,0,0-1.2747-.20058Z"/><path class="cls-8" d="M120.90184,42.8309l-.03505,4.71976,21.6524-12.66029a2.41739,2.41739,0,0,0-.90589-2.97647,1.55036,1.55036,0,0,0-1.29411-.35372Z"/><path class="cls-8" d="M13.66751,88.43027a2.04514,2.04514,0,0,1-.79551-1.76659c0-2.00289,2.8164-3.62656,6.29062-3.62656a13.15136,13.15136,0,0,1,3.24844.42969,25.38057,25.38057,0,0,1,5.20781,2.73281l24.54375,14.1625s3.19688,2.13125.72188,4.57187-7.95782,1.95938-10.15782.6875S20.26262,92.81681,13.66751,88.43027Z"/><path class="cls-8" d="M131.50012,58.20691c3.3653.0948,6.325-1.67,6.325-3.75833a2.92165,2.92165,0,0,0-1.10481-2.17151l-11.95769-7.06391-3.94167,2.2s-.43541,3.34583-2.0625,5.04167c0,0,4.3797,2.43083,5.775,3.34583A12.73146,12.73146,0,0,0,131.50012,58.20691Z"/></g></g></g></g></g></svg>