<svg xmlns="http://www.w3.org/2000/svg" viewBox="0 0 500.61088 465.70637"><defs><style>.cls-1{opacity:0.9;}.cls-2{fill:#dededf;}.cls-3{fill:#666;}.cls-4{fill:#474747;}.cls-5{fill:#999;stroke:#000;stroke-miterlimit:10;stroke-width:2px;}.cls-6{fill:#d7282f;}.cls-7{fill:#bec0c2;}</style></defs><title>Controller1</title><g id="Layer_2" data-name="Layer 2"><g id="EDR"><g id="Controller1"><g id="Selected_Shadow" data-name="Selected Shadow" class="cls-1"><path id="Controller_Outline" data-name="Controller Outline" class="cls-2" d="M15.70924,225.85851s-21.23478,38.29291-5.34589,66.852S61.52766,305.541,61.52766,305.541s15.32025-6.87754,25.5224-14.57444,35.74481-23.82605,43.5094-28.27292,13.94281-10.97955,31.27612-10.41009c17,.56949,35.90918,10.892,35.90918,10.892s95.08978,52.91855,106.71533,63.25637c0,0,2.86939,9.44556-3.33588,24.64167s-27.452,36.84425-23.20367,81.27018S325.43641,464.007,325.43641,464.007c3.38348-1.16019,6.91119-2.502,10.54913-4.0578A153.64838,153.64838,0,0,0,356.9488,449.001a158.74263,158.74263,0,0,0,35.76178-25.48131c9.34619-8.9013,9.11047-10.9644,28.4104-32.43814,10.32257-11.48523,18.55908-20.70065,27.1239-28.87552,6.88434-6.57089,24.11426-24.36587,24.11426-24.36587a11.51172,11.51172,0,0,0,9.3136-2.62848c4.07953-3.692,12.68078-32.92554,12.68078-32.92554l1.08136-26.4487s1.20862-.05252,1.55463-.76846-.79285-19.54605-.79285-19.54605-1.54358-14.00089-6.53564-20.71039c-.92621-4.33029-2.709-22.51849-21.01727-44.06192s-62.90381-52.61838-81.2555-62.31219-57.56476-30.64078-100.80279-41.781c0,0-25.31214-6.59357-40.3487-3.75208.64954-.85852,1.10395-10.53161-12.10724-17.16711-13.21063-6.63519-30.33264-2.09808-35.56329,1.09167s-12.4635,9.07258-8.51373,21.75617a35.941,35.941,0,0,0-11.942,13.86432c-2.48511.65436-8.70776,3.66668-16.77478,8.56378s-72.516,46.00555-72.516,46.00555S35.08289,191.86394,15.70924,225.85851Z"/></g><g id="Unselected_Shadow" data-name="Unselected Shadow" class="cls-1"><path id="Controller_Outline-2" data-name="Controller Outline" class="cls-2" d="M15.70924,205.85851s-21.23478,38.29291-5.34589,66.852S61.52766,285.541,61.52766,285.541s15.32025-6.87754,25.5224-14.57444,35.74481-23.82605,43.5094-28.27292,13.94281-10.97955,31.27612-10.41009c17,.56949,35.90918,10.892,35.90918,10.892s95.08978,52.91855,106.71533,63.25637c0,0,2.86939,9.44556-3.33588,24.64167s-27.452,36.84425-23.20367,81.27018S325.43641,444.007,325.43641,444.007c3.38348-1.16019,6.91119-2.502,10.54913-4.0578A153.64838,153.64838,0,0,0,356.9488,429.001a158.74263,158.74263,0,0,0,35.76178-25.48131c9.34619-8.9013,9.11047-10.9644,28.4104-32.43814,10.32257-11.48523,18.55908-20.70065,27.1239-28.87552,6.88434-6.57089,24.11426-24.36587,24.11426-24.36587a11.51172,11.51172,0,0,0,9.3136-2.62848c4.07953-3.692,12.68078-32.92554,12.68078-32.92554l1.08136-26.4487s1.20862-.05252,1.55463-.76846-.79285-19.54605-.79285-19.54605-1.54358-14.00089-6.53564-20.71039c-.92621-4.33029-2.709-22.51849-21.01727-44.06192s-62.90381-52.61838-81.2555-62.31219-57.56476-30.64078-100.80279-41.781c0,0-25.31214-6.59357-40.3487-3.75208.64954-.85852,1.10395-10.53161-12.10724-17.16711-13.21063-6.63519-30.33264-2.09808-35.56329,1.09167s-12.4635,9.07258-8.51373,21.75617a35.941,35.941,0,0,0-11.942,13.86432c-2.48511.65436-8.70776,3.66668-16.77478,8.56378s-72.516,46.00555-72.516,46.00555S35.08289,171.86394,15.70924,205.85851Z"/></g><g id="Controller_Outline-3" data-name="Controller Outline"><g id="Controller_Outline-4" data-name="Controller Outline"><path class="cls-3" d="M311.72029,409.37924c-12.27148,0-33.29492-4.56933-36.22119-35.17187-3.34716-34.99707,8.644-55.77637,17.39991-70.94825a100.33613,100.33613,0,0,0,5.94287-11.26855c5.02343-12.30176,3.8291-20.67676,3.39355-22.79-13.21484-10.98437-104.957-62.082-105.894-62.60351-.17041-.09375-18.68994-10.09473-35.00342-10.64161q-1.03565-.03369-2.01855-.03418c-12.2334,0-18.228,3.86133-24.02491,7.59571-1.34668.86816-2.73974,1.76465-4.17236,2.585-8.21582,4.70605-33.44434,20.70019-43.29834,28.13476-10.26416,7.74414-25.27393,14.51758-25.9082,14.80176a59.6328,59.6328,0,0,1-22.02,4.49707h-.00147c-14.12793-.001-25.09277-6.28711-31.709-18.17871-16.24268-29.19531,4.45508-67.19141,5.34424-68.79492,19.40283-34.04639,71.56054-68.11328,73.771-69.54688.65772-.41943,64.57324-41.185,72.5669-46.03711,6.80664-4.13183,13.04443-7.36084,16.39648-8.50976a38.13076,38.13076,0,0,1,11.04541-13.0249c-3.73926-14.39893,6.38623-20.57471,9.78467-22.64746,3.9082-2.3833,12.333-4.7959,20.87305-4.7959a36.73222,36.73222,0,0,1,16.62939,3.62451c9.59033,4.81689,12.3335,11.167,13.11524,14.52392a13.80618,13.80618,0,0,1,.31835,2.07178,56.22619,56.22619,0,0,1,6.543-.35254c14.53662,0,31.37647,4.34326,32.08594,4.52784,42.64893,10.98828,81.50488,31.52246,100.17774,41.39013l1.05517.55762c18.22461,9.627,63.1416,40.77685,81.84522,62.78613,16.96289,19.96,20.01953,37.02832,21.17041,43.45313.07324.41113.13818.77343.19775,1.083,5.04053,7.17286,6.58447,20.72852,6.64844,21.3125,1.1792,19.44922.87451,20.07911.60547,20.63575a3.09024,3.09024,0,0,1-1.415,1.41113l-1.02246,25.0166a2.002,2.002,0,0,1-.08008.48242c-1.46289,4.97168-8.977,29.96973-13.25733,33.84375a13.03479,13.03479,0,0,1-8.86816,3.28809c-.39063,0-.74121-.01563-1.042-.03906-3.29,3.3916-17.43067,17.93652-23.479,23.71-8.20263,7.8291-16.01953,16.52734-25.9165,27.541l-1.10107,1.22461c-9.23047,10.27051-13.978,16.08692-17.44483,20.334A111.3906,111.3906,0,0,1,393.65926,366.641a161.9555,161.9555,0,0,1-36.14307,25.76758,156.03188,156.03188,0,0,1-21.17529,11.05273c-3.49365,1.49414-7.08887,2.877-10.68652,4.11035A53.36525,53.36525,0,0,1,311.72029,409.37924Z"/><path d="M217.96675,4a35.07071,35.07071,0,0,1,15.73206,3.41154c13.21112,6.6355,12.75677,16.30857,12.10718,17.16707a47.942,47.942,0,0,1,8.76721-.71092c14.44781.00038,31.58148,4.46306,31.58148,4.46306,43.238,11.14021,82.45111,32.08722,100.8028,41.781S449.90474,110.88049,468.213,132.424s20.09106,39.73163,21.01727,44.06192c4.99213,6.7095,6.53565,20.71036,6.53565,20.71036s1.13885,18.83014.79278,19.546-1.55456.76843-1.55456.76843l-1.08136,26.44873S485.32149,273.193,481.242,276.885a11.13936,11.13936,0,0,1-7.52752,2.77054,9.88677,9.88677,0,0,1-1.78608-.14212s-17.22992,17.795-24.11425,24.36593c-8.56482,8.17487-16.80134,17.39029-27.12391,28.87549-19.29992,21.47376-19.0642,23.53687-28.41046,32.43817a158.74477,158.74477,0,0,1-35.76166,25.48127,153.643,153.643,0,0,1-20.96331,10.94812c-3.63794,1.55578-7.16565,2.89764-10.54914,4.0578A51.942,51.942,0,0,1,311.72,407.37967c-13.09564,0-31.53223-5.149-34.23023-33.36261-4.24829-44.4259,16.99836-66.07407,23.20368-81.2702s3.33588-24.64164,3.33588-24.64164C292.40377,257.76736,197.314,204.84879,197.314,204.84879s-18.90918-10.32242-35.90918-10.89191q-1.07117-.03521-2.086-.03488c-15.75867,0-21.74537,6.18127-29.19007,10.44494-7.76465,4.44684-33.30725,20.57605-43.5094,28.27292s-25.52246,14.57443-25.52246,14.57443a58.09633,58.09633,0,0,1-21.20227,4.32111c-10.45019,0-22.40161-3.56229-29.962-17.15161-15.88891-28.55914,5.346-66.852,5.346-66.852C34.65218,133.53723,88.389,98.693,88.389,98.693s64.449-41.10849,72.516-46.00555,14.28967-7.90944,16.77478-8.56378a35.93948,35.93948,0,0,1,11.942-13.86429C185.672,17.57571,192.90486,11.693,198.13546,8.50314,201.39827,6.51347,209.2856,4,217.96675,4m0-4c-9.3236,0-17.89514,2.63751-21.91381,5.088-9.42237,5.74614-13.10938,13.6639-10.98792,23.56357a40.28922,40.28922,0,0,0-10.21631,12.2041,114.01333,114.01333,0,0,0-16.01941,8.41246c-8.01281,4.86415-69.95837,44.373-72.59143,46.05251-2.25256,1.46057-54.80456,35.78613-74.43457,70.23056-.93408,1.68365-22.14233,40.62329-5.36621,70.77731,6.99072,12.56528,18.56006,19.20691,33.45752,19.20691A61.87518,61.87518,0,0,0,62.726,250.86749c.65137-.29242,15.86048-7.15671,26.30237-15.03448,9.80737-7.399,34.9126-23.31278,43.08826-27.995,1.47766-.84628,2.89233-1.75757,4.26037-2.63894,5.80908-3.74228,11.29615-7.27707,22.94178-7.27707.63574,0,1.29333.011,1.95495.03271,15.8197.52994,33.94422,10.30722,34.12549,10.40595,31.72974,17.65823,93.14862,52.57711,105.004,61.92935.41345,2.62927.98163,10.18259-3.413,20.9447a99.06235,99.06235,0,0,1-5.82348,11.02435c-8.38892,14.53681-21.06635,36.505-17.65888,72.1388,3.07709,32.1773,25.2619,36.98181,38.2121,36.98181a55.82712,55.82712,0,0,0,14.41748-1.863q.08331-.02452.16553-.05267c3.64337-1.24933,7.28528-2.65015,10.82464-4.16382a158.21311,158.21311,0,0,0,21.38568-11.15613,163.96613,163.96613,0,0,0,36.52509-26.05456,112.89457,112.89457,0,0,0,11.2431-12.39874c3.4541-4.23154,8.1847-10.027,17.38367-20.26206l1.089-1.21176c9.8728-10.98666,17.671-19.66452,25.82166-27.444,5.82873-5.56348,18.72387-18.80826,22.909-23.119q.1128.00161.22956.00162A15.13655,15.13655,0,0,0,483.926,279.8508c1.63947-1.48373,3.98731-4.96286,8.97052-19.51736,2.65778-7.76285,4.8418-15.171,4.86359-15.24494a3.99743,3.99743,0,0,0,.15924-.96564l.98193-24.01635a4.93,4.93,0,0,0,1.25879-1.62366c.5329-1.10227.80036-1.6557-.40149-21.52814q-.00594-.09855-.01678-.19684c-.16437-1.4902-1.70831-14.35788-6.74847-21.8749q-.055-.3014-.11768-.654c-1.17694-6.57071-4.30328-24.02487-21.61469-44.39529-18.85882-22.19129-64.09057-53.56871-82.43524-63.25879l-1.05749-.55878c-18.7403-9.90342-57.736-30.511-100.61554-41.55887-.70966-.18484-17.78931-4.5892-32.57947-4.58956-1.699,0-3.31451.05946-4.83643.17768-.02667-.12742-.05285-.245-.07757-.35118-.86108-3.69751-3.84638-10.67436-14.165-15.85707A38.71242,38.71242,0,0,0,217.96675,0Z"/></g></g><g id="Left_Joystick_Color" data-name="Left Joystick Color"><path class="cls-4" d="M217.8967,26.33965c-9.45118,0-17.14063-4.1128-17.14063-9.16846,0-5.05518,7.68945-9.168,17.14063-9.168,9.45214,0,17.1416,4.11279,17.1416,9.168C235.0383,22.22685,227.34884,26.33965,217.8967,26.33965Z"/><path class="cls-4" d="M217.8967,9.00322c-8.90039,0-16.14063,3.66406-16.14063,8.168s7.24024,8.16846,16.14063,8.16846,16.1416-3.66455,16.1416-8.16846S226.79709,9.00322,217.8967,9.00322Z"/><ellipse class="cls-4" cx="217.75998" cy="17.03203" rx="25.10352" ry="14.52637"/><ellipse class="cls-4" cx="217.75998" cy="17.03203" rx="24.10352" ry="13.52637"/><path class="cls-4" d="M217.0842,42.49834c-16.22461,0-29.42481-8.97022-29.42481-19.99658,0-11.02588,13.2002-19.9961,29.42481-19.9961,16.22558,0,29.42578,8.97022,29.42578,19.9961C246.51,33.52812,233.30978,42.49834,217.0842,42.49834Z"/><path class="cls-4" d="M217.0842,3.50566c-15.67383,0-28.42481,8.52149-28.42481,18.9961s12.751,18.99658,28.42481,18.99658S245.51,32.97637,245.51,22.50176,232.758,3.50566,217.0842,3.50566Z"/><path class="cls-4" d="M217.0842,59.34014c-17.13965,0-31.083-7.3252-31.083-16.32959,0-3.74366,2.31543-7.25586,6.69531-10.15625l.36328-.24024.28809.32715c.07617.08545,7.72656,8.55518,23.73047,8.55713,10.25976-.24268,17.81738-2.97412,23.7832-8.59473l2.74609-2.58691-1.73047,2.81152c4.11817,2.84668,6.291,6.25586,6.291,9.88233C248.16818,52.01494,234.22384,59.34014,217.0842,59.34014Z"/><path class="cls-4" d="M192.9006,33.92363c-3.8623,2.65723-5.89941,5.79248-5.89941,9.08692,0,8.45263,13.49512,15.32959,30.083,15.32959s30.084-6.877,30.084-15.32959c0-3.29981-2.04492-6.44092-5.91992-9.10157-6.10938,5.61328-13.79785,8.34522-24.15235,8.58936h-.01171C202.20041,42.49834,194.49338,35.54326,192.9006,33.92363Z"/></g><g id="Right_Joystick_Color" data-name="Right Joystick Color"><path class="cls-4" d="M433.008,151.58281c-9.45117,0-17.14062-4.11279-17.14062-9.168,0-5.05566,7.68945-9.16845,17.14062-9.16845s17.14063,4.11279,17.14063,9.16845C450.14865,147.47,442.4592,151.58281,433.008,151.58281Z"/><path class="cls-4" d="M433.008,134.24639c-8.90039,0-16.14062,3.66455-16.14062,8.16845s7.24023,8.168,16.14062,8.168,16.14063-3.66406,16.14063-8.168S441.90841,134.24639,433.008,134.24639Z"/><path class="cls-4" d="M432.87131,156.80156c-13.8418,0-25.10352-6.5166-25.10352-14.52637s11.26172-14.52636,25.10352-14.52636,25.10253,6.5166,25.10253,14.52636S446.7131,156.80156,432.87131,156.80156Z"/><path class="cls-4" d="M432.87131,128.74883c-13.291,0-24.10352,6.06787-24.10352,13.52636s10.8125,13.52637,24.10352,13.52637c13.29,0,24.10253-6.06787,24.10253-13.52637S446.16134,128.74883,432.87131,128.74883Z"/><path class="cls-4" d="M432.19552,167.7415c-16.22461,0-29.4248-8.97021-29.4248-19.99609,0-11.02637,13.20019-19.99658,29.4248-19.99658s29.42481,8.97021,29.42481,19.99658C461.62033,158.77129,448.42013,167.7415,432.19552,167.7415Z"/><path class="cls-4" d="M432.19552,128.74883c-15.67382,0-28.4248,8.522-28.4248,18.99658s12.751,18.99609,28.4248,18.99609,28.42481-8.52148,28.42481-18.99609S447.86935,128.74883,432.19552,128.74883Z"/><path class="cls-4" d="M432.19552,184.5833c-17.13964,0-31.084-7.3252-31.084-16.32959,0-3.74316,2.31543-7.25537,6.69629-10.15625l.36328-.24023.28809.32714c.07617.08545,7.72558,8.55518,23.73046,8.55713,10.25977-.24267,17.81641-2.97412,23.78223-8.59472l2.7461-2.58789-1.73047,2.8125c4.11914,2.84765,6.292,6.25683,6.292,9.88232C463.27951,177.2581,449.33517,184.5833,432.19552,184.5833Z"/><path class="cls-4" d="M408.01193,159.1668c-3.8623,2.65722-5.90039,5.793-5.90039,9.08691,0,8.45264,13.49609,15.32959,30.084,15.32959s30.084-6.877,30.084-15.32959c0-3.29932-2.04492-6.43994-5.9209-9.10107-6.10937,5.61328-13.79687,8.34472-24.15137,8.58886h-.01172C417.31076,167.7415,409.60373,160.78643,408.01193,159.1668Z"/></g><g id="Left_Joystick" data-name="Left Joystick"><path d="M217.8967,26.33965c-9.45118,0-17.14063-4.1128-17.14063-9.16846,0-5.05518,7.68945-9.168,17.14063-9.168,9.45214,0,17.1416,4.11279,17.1416,9.168C235.0383,22.22685,227.34884,26.33965,217.8967,26.33965Zm0-17.33643c-8.90039,0-16.14063,3.66406-16.14063,8.168s7.24024,8.16846,16.14063,8.16846,16.1416-3.66455,16.1416-8.16846S226.79709,9.00322,217.8967,9.00322Z"/><path d="M217.76,31.5584c-13.8418,0-25.10352-6.5166-25.10352-14.52637S203.91818,2.50566,217.76,2.50566s25.10351,6.5166,25.10351,14.52637S231.60177,31.5584,217.76,31.5584Zm0-28.05274c-13.291,0-24.10352,6.06787-24.10352,13.52637S204.469,30.5584,217.76,30.5584s24.10351-6.06787,24.10351-13.52637S231.051,3.50566,217.76,3.50566Z"/><path d="M217.0842,42.49834c-16.22461,0-29.42481-8.97022-29.42481-19.99658,0-11.02588,13.2002-19.9961,29.42481-19.9961,16.22558,0,29.42578,8.97022,29.42578,19.9961C246.51,33.52812,233.30978,42.49834,217.0842,42.49834Zm0-38.99268c-15.67383,0-28.42481,8.52149-28.42481,18.9961s12.751,18.99658,28.42481,18.99658S245.51,32.97637,245.51,22.50176,232.758,3.50566,217.0842,3.50566Z"/><path d="M217.0842,59.34014c-17.13965,0-31.083-7.3252-31.083-16.32959,0-3.74366,2.31543-7.25586,6.69531-10.15625l.36328-.24024.28809.32715c.07617.08545,7.72656,8.55518,23.73047,8.55713,10.25976-.24268,17.81738-2.97412,23.7832-8.59473l2.74609-2.58691-1.73047,2.81152c4.11817,2.84668,6.291,6.25586,6.291,9.88233C248.16818,52.01494,234.22384,59.34014,217.0842,59.34014ZM192.9006,33.92363c-3.8623,2.65723-5.89941,5.79248-5.89941,9.08692,0,8.45263,13.49512,15.32959,30.083,15.32959s30.084-6.877,30.084-15.32959c0-3.29981-2.04492-6.44092-5.91992-9.10157-6.10938,5.61328-13.79785,8.34522-24.15235,8.58936h-.01171C202.20041,42.49834,194.49338,35.54326,192.9006,33.92363Z"/></g><path id="Front_White_Plate" data-name="Front White Plate" class="cls-5" d="M168.78732,68.58672a12.0105,12.0105,0,0,0-9.82617,5.04492,44.46508,44.46508,0,0,0-5.958,13.23828l-1.17578,4.02979c-4.86816,16.66552-7.09082,24.272-4.915,28.69482,2.37793,4.83252,5.90527,6.124,11.99707,6.92627,8.04,1.05859,34.28613,9.981,35.39942,10.36035,18.59472,5.7793,68.73144,28.95361,98.2207,52.63135.251.20557,24.80469,20.38818,32.32715,30.6167,7.56445,10.28613,9.60058,13.04883,24.93457,9.8501,13.26074-2.76758,47.47461-11.33985,57.64551-13.90137a6.89452,6.89452,0,0,0,5.002-4.59326c.86523-2.918-.56836-5.3291-4.2627-7.16553-5.86718-2.91748-22.7539-14.49561-23.36425-28.93359-.38379-9.06543,5.66992-17.4834,17.99218-25.02246a2.0481,2.0481,0,0,1,.14746-.42579,13.90528,13.90528,0,0,1-.18066-2.19189c0-11.02637,13.20019-19.99658,29.4248-19.99658s29.42481,8.97021,29.42481,19.99658a13.815,13.815,0,0,1-.24219,2.55908,17.55918,17.55918,0,0,0,2.97461-.50488c2.47363-.65137,3.89649-1.56348,4.34863-2.78906.4961-1.3418-.09765-3.19971-1.81445-5.68018l-.4834-.70166c-24.6084-35.77978-56.915-57.85645-79.68262-70.07666-44.20117-23.72314-89.36816-37.58887-116.90039-42.6543-1.90625-.35056-6.73144-1.09814-10.38183-.46338-2.57813.44825-4.19531,1.33545-4.55469,2.49707-.35742,1.15479.47363,2.75879,2.40234,4.63965a16.86606,16.86606,0,0,1,4.71485,7.89453c1.80273,7.21729-.00781,20.813-32.39942,30.77588A117.70182,117.70182,0,0,1,208.32736,77.91a5.47244,5.47244,0,0,1,1.75195,2.875c.48145,2.165-.48144,4.49414-2.71289,6.55859a19.13814,19.13814,0,0,1-8.76074,4.30274c-7.29785,1.6206-14.02441-.60742-14.99609-4.97168-.75293-3.3833,2.08789-7.08887,7.0205-9.36182a44.5605,44.5605,0,0,1-14.99023-6.62744l-.37891-.2373A12.18749,12.18749,0,0,0,168.78732,68.58672Z"/><g id="Right_Joystick" data-name="Right Joystick"><path d="M433.008,151.58281c-9.45117,0-17.14062-4.11279-17.14062-9.168,0-5.05566,7.68945-9.16845,17.14062-9.16845s17.14063,4.11279,17.14063,9.16845C450.14865,147.47,442.4592,151.58281,433.008,151.58281Zm0-17.33642c-8.90039,0-16.14062,3.66455-16.14062,8.16845s7.24023,8.168,16.14062,8.168,16.14063-3.66406,16.14063-8.168S441.90841,134.24639,433.008,134.24639Z"/><path d="M432.87131,156.80156c-13.8418,0-25.10352-6.5166-25.10352-14.52637s11.26172-14.52636,25.10352-14.52636,25.10253,6.5166,25.10253,14.52636S446.7131,156.80156,432.87131,156.80156Zm0-28.05273c-13.291,0-24.10352,6.06787-24.10352,13.52636s10.8125,13.52637,24.10352,13.52637c13.29,0,24.10253-6.06787,24.10253-13.52637S446.16134,128.74883,432.87131,128.74883Z"/><path d="M432.19552,167.7415c-16.22461,0-29.4248-8.97021-29.4248-19.99609,0-11.02637,13.20019-19.99658,29.4248-19.99658s29.42481,8.97021,29.42481,19.99658C461.62033,158.77129,448.42013,167.7415,432.19552,167.7415Zm0-38.99267c-15.67382,0-28.4248,8.522-28.4248,18.99658s12.751,18.99609,28.4248,18.99609,28.42481-8.52148,28.42481-18.99609S447.86935,128.74883,432.19552,128.74883Z"/><path d="M432.19552,184.5833c-17.13964,0-31.084-7.3252-31.084-16.32959,0-3.74316,2.31543-7.25537,6.69629-10.15625l.36328-.24023.28809.32714c.07617.08545,7.72558,8.55518,23.73046,8.55713,10.25977-.24267,17.81641-2.97412,23.78223-8.59472l2.7461-2.58789-1.73047,2.8125c4.11914,2.84765,6.292,6.25683,6.292,9.88232C463.27951,177.2581,449.33517,184.5833,432.19552,184.5833Zm-24.18359-25.4165c-3.8623,2.65722-5.90039,5.793-5.90039,9.08691,0,8.45264,13.49609,15.32959,30.084,15.32959s30.084-6.877,30.084-15.32959c0-3.29932-2.04492-6.43994-5.9209-9.10107-6.10937,5.61328-13.79687,8.34472-24.15137,8.58886h-.01172C417.31076,167.7415,409.60373,160.78643,408.01193,159.1668Z"/></g><g id="Directional_Buttons" data-name="Directional Buttons"><path class="cls-4" d="M233.57638,87.639c-5.28613,0-9.52832-2.104-10.28515-5.50195-.48145-2.16455.48144-4.49365,2.71289-6.55859a20.73493,20.73493,0,0,1,18.51855-4.12012c2.89649.92334,4.75684,2.62451,5.23828,4.78955.48145,2.16455-.48144,4.49365-2.71289,6.55859a19.14228,19.14228,0,0,1-8.76074,4.30225A21.7938,21.7938,0,0,1,233.57638,87.639Z"/><path class="cls-4" d="M239.53634,71.73662a21.04816,21.04816,0,0,0-4.55468.51611,18.12272,18.12272,0,0,0-8.29785,4.06006c-1.96,1.8125-2.81739,3.8042-2.416,5.60742.85059,3.82666,7.0459,5.71631,13.80273,4.21192a18.12276,18.12276,0,0,0,8.29786-4.06006c1.96-1.8125,2.81738-3.8042,2.416-5.60742h0c-.40039-1.80322-2.02246-3.24268-4.56543-4.05371A15.492,15.492,0,0,0,239.53634,71.73662Z"/><path class="cls-4" d="M233.82248,112.20976c-5.28516,0-9.52735-2.104-10.28418-5.50146-.97071-4.36426,4.17578-9.23682,11.47461-10.86133,7.2959-1.62451,14.02343.606,14.99609,4.97168.48145,2.16455-.48242,4.49414-2.71387,6.5586a19.14237,19.14237,0,0,1-8.76074,4.30224A21.77253,21.77253,0,0,1,233.82248,112.20976Z"/><path class="cls-4" d="M239.80685,96.30644a21.1513,21.1513,0,0,0-4.57715.51709c-6.75976,1.5044-11.5664,5.84131-10.71484,9.668.85059,3.82569,7.041,5.71582,13.80273,4.21143a18.13559,18.13559,0,0,0,8.29883-4.05957c1.959-1.813,2.81739-3.80469,2.416-5.60791C248.38009,98.10185,244.58713,96.30644,239.80685,96.30644Z"/><path class="cls-4" d="M193.89474,92.17656c-5.28613,0-9.52832-2.104-10.28515-5.50195-.48145-2.16455.48144-4.49365,2.71289-6.5586A20.735,20.735,0,0,1,204.841,75.9959c2.89649.92334,4.75684,2.624,5.23828,4.78906h0c.48145,2.165-.48144,4.49414-2.71289,6.55859a19.13814,19.13814,0,0,1-8.76074,4.30274A21.79443,21.79443,0,0,1,193.89474,92.17656Z"/><path class="cls-4" d="M199.8547,76.27422a21.04754,21.04754,0,0,0-4.55468.51611,18.12276,18.12276,0,0,0-8.29786,4.06006c-1.96,1.8125-2.81738,3.8042-2.416,5.60742.85156,3.82666,7.04492,5.7168,13.80273,4.21192a18.12285,18.12285,0,0,0,8.29786-4.06006c1.96-1.813,2.81738-3.8042,2.416-5.60791h0c-.40039-1.80274-2.02246-3.24268-4.56543-4.05323A15.49233,15.49233,0,0,0,199.8547,76.27422Z"/><path class="cls-4" d="M193.927,118.62725a16.10778,16.10778,0,0,1-5.25684-.82666c-2.9082-1.01026-4.78906-2.82081-5.29589-5.09864-.50684-2.27734.42871-4.71484,2.63378-6.8623a19.72771,19.72771,0,0,1,18.54-4.12549c2.90821,1.00977,4.78907,2.82031,5.2959,5.09814v-.00048c.50684,2.27783-.42871,4.71533-2.63379,6.86328A18.31348,18.31348,0,0,1,198.469,118.116,21.00681,21.00681,0,0,1,193.927,118.62725Z"/><path class="cls-4" d="M199.29416,101.88652a20.00349,20.00349,0,0,0-4.32813.48877,17.29117,17.29117,0,0,0-8.25976,4.18067c-1.94825,1.89648-2.78418,4.00244-2.35547,5.92871.42871,1.92676,2.0791,3.479,4.64746,4.37109a18.73942,18.73942,0,0,0,17.51367-3.897c1.94824-1.897,2.78516-4.00293,2.35547-5.9292v-.00049c-.42871-1.92627-2.0791-3.47851-4.64746-4.37012A15.09037,15.09037,0,0,0,199.29416,101.88652Z"/><path class="cls-4" d="M233.03341,96.08379c-6.62792,0-11.9375-2.61182-12.87792-6.83789-.56836-2.55469.51464-5.33252,3.04882-7.82227l.88282-.77832.12011.9336c.01465.11425.03516.22851.06055.34179.85059,3.82569,7.041,5.71533,13.80273,4.21143,6.1836-1.376,10.83106-5.16406,10.81055-8.81153l-.01172-2.02441,1.0166,1.90625a7.397,7.397,0,0,1,3.59571,4.62793c1.21,5.44385-5.2793,11.53564-14.4668,13.57959A27.65441,27.65441,0,0,1,233.03341,96.08379Z"/><path d="M223.428,82.62773c-1.9336,2.09131-2.75293,4.35059-2.2959,6.40088,1.09082,4.90576,9.01367,7.33008,17.666,5.40479,8.64844-1.92383,14.79785-7.48047,13.707-12.38574a6.21552,6.21552,0,0,0-2.71875-3.71778c-.71386,3.76709-5.4121,7.42383-11.499,8.77881C231.26974,88.67021,224.77756,86.66631,223.428,82.62773Z"/><path class="cls-4" d="M193.174,100.94951c-6.62793,0-11.93848-2.61182-12.87891-6.83789-.59765-2.6875.61328-5.5874,3.41016-8.16553l.67578-.62353.16016.90283c.01269.07666.02636.15283.04394.22949.85254,3.8291,7.042,5.71973,13.80371,4.21485,5.67871-1.26319,10.2002-4.667,10.75489-8.09522l.13086-.95654.64941.38818a7.44507,7.44507,0,0,1,3.69727,4.69043c1.21,5.44336-5.2793,11.53516-14.4668,13.57959A27.66815,27.66815,0,0,1,193.174,100.94951Z"/><path d="M183.78146,87.26885c-2.09863,2.1748-2.98242,4.49951-2.50976,6.626,1.09082,4.90528,9.01757,7.32813,17.666,5.40479,8.64844-1.92432,14.79785-7.481,13.707-12.38623a6.17493,6.17493,0,0,0-2.625-3.65283c-.94922,3.67871-5.5332,7.07714-11.41406,8.38574C191.64767,93.19268,185.20627,91.23809,183.78146,87.26885Z"/><path class="cls-4" d="M232.94845,120.87969c-6.62793.00049-11.9375-2.61133-12.87793-6.83789-.63378-2.84864.58106-5.71534,3.51172-8.28907l.61035-.53662.20411.78711s.07129.27686.11816.48828h0c.85059,3.82569,7.041,5.71582,13.80273,4.21143,5.82911-1.29688,10.36329-4.7793,10.78125-8.28027l.06543-.19434.25977-.44189.44531.25439a7.37008,7.37008,0,0,1,3.52637,4.58594c.59766,2.6875-.61328,5.5874-3.41016,8.16552a24.23657,24.23657,0,0,1-11.05566,5.41407A27.63955,27.63955,0,0,1,232.94845,120.87969Z"/><path d="M223.633,107.06914c-2.19824,2.16162-3.09179,4.48437-2.58593,6.75586,1.09082,4.9043,9.01465,7.33057,17.666,5.40478a23.221,23.221,0,0,0,10.59473-5.17285c2.52441-2.32617,3.62891-4.88769,3.11133-7.21338a6.09949,6.09949,0,0,0-2.47364-3.543c-.957,3.63769-5.585,7.08251-11.41113,8.3789C231.43966,113.25713,224.886,111.19463,223.633,107.06914Z"/><path class="cls-4" d="M192.82443,128.25225c-6.62793,0-11.9375-2.61182-12.87793-6.8379-.61914-2.7832.76367-5.88525,3.7959-8.50976l.51465-.4458.4834,1.1123c1.68164,3.36231,7.49707,4.90674,13.51171,3.56836,4.94727-1.10058,8.99024-3.87695,10.30079-7.07324l.5-1.06641.47363.27979a7.46252,7.46252,0,0,1,3.74512,4.71973c.59765,2.6875-.61329,5.5874-3.41016,8.16552a24.23121,24.23121,0,0,1-11.05566,5.41358A27.67843,27.67843,0,0,1,192.82443,128.25225Z"/><path d="M183.89572,114.11357c-2.39648,2.26807-3.47656,4.82227-2.97266,7.0835,1.0918,4.90478,9.01465,7.33057,17.666,5.40478a23.2205,23.2205,0,0,0,10.59473-5.17236c2.52441-2.32666,3.6289-4.88818,3.11132-7.21338a6.2578,6.2578,0,0,0-2.81054-3.78125l-.01075.02246c-1.43554,3.48487-5.7539,6.48975-11.00488,7.65869C191.98263,119.5584,185.88791,117.87676,183.89572,114.11357Z"/><path class="cls-4" d="M192.48947,128.157c-4.07227,0-7.27344-.77734-10.167-3.15039a2.3652,2.3652,0,0,1-.835-2.231c.40527-2.29931,1.16015-6.57861,1.416-8.58593q.20508-1.60254.36621-3.1587c.01075-.144.02539-.28955.0459-.436a.50465.50465,0,0,1,.55371-.42969.4989.4989,0,0,1,.43848.54688l-.041.4038a4.86127,4.86127,0,0,0,.26465,2.00147c.76367,2.11328,2.8916,3.03418,4.16309,3.58447a15.109,15.109,0,0,0,9.17578.563,18.43821,18.43821,0,0,0,5.208-1.8706,11.76723,11.76723,0,0,0,4.55468-3.71192,9.69317,9.69317,0,0,0,1.291-2.75391.49253.49253,0,0,1,.51855-.35888.50073.50073,0,0,1,.458.43408l1.10938,8.541c.57031,4.958-6.55567,9.1538-13.77344,10.34961C195.52463,128.05693,193.95041,128.157,192.48947,128.157Z"/><path class="cls-4" d="M183.9133,114.18l-.01758.13623c-.25879,2.03076-1.0166,6.32568-1.42383,8.63281a1.36275,1.36275,0,0,0,.48535,1.28418c3.27442,2.688,6.84961,3.35938,14.15039,2.67041,6.57618-1.09082,13.4043-4.93554,12.90918-9.2373l-.8584-6.60938a10.44522,10.44522,0,0,1-.69921,1.188,12.60972,12.60972,0,0,1-4.9043,4.0293,19.47019,19.47019,0,0,1-5.49121,1.97217A16.04051,16.04051,0,0,1,188.3,117.6209,8.4488,8.4488,0,0,1,183.9133,114.18Z"/><path class="cls-4" d="M192.65256,101.03252a15.3788,15.3788,0,0,1-10.53028-3.68506c-.35058-.29639-.293-.72852.11621-3.28271.25586-1.59571.60547-3.78077.82032-6.11573a21.47729,21.47729,0,0,1,.52929-3.31982l.00586-.03906.02246-.15332.03516.00488-.03516-.00586.03516.00537a.70609.70609,0,0,1,.25879-.39844.50166.50166,0,0,1,.50586.05811.507.507,0,0,1,.19433.47363v.001l-.02246.15967a4.0855,4.0855,0,0,0,.11133,2.1206,6.37542,6.37542,0,0,0,4.14746,3.56055,19.14611,19.14611,0,0,0,8.62207.42773c.24317-.0332.4668-.063.668-.08691a15.29629,15.29629,0,0,0,5.23828-1.81885l.3877-.20654a9.69865,9.69865,0,0,0,3.97754-3.23975,12.97783,12.97783,0,0,0,1.49511-3.2124.484.484,0,0,1,.52149-.35791.50175.50175,0,0,1,.458.436c.14062,1.09082.30078,2.2295.46289,3.37989.25976,1.83935.52734,3.7417.72168,5.5083.709,6.42871-13.62207,9.31445-13.76661,9.33838A30.76618,30.76618,0,0,1,192.65256,101.03252Z"/><path class="cls-4" d="M182.89474,96.6834c3.79492,3.14258,8.03223,3.98535,14.57422,2.90967,2.11328-.34766,13.47168-3.34375,12.93262-8.23682-.19336-1.752-.46-3.64649-.71777-5.47852-.06934-.4873-.1377-.97265-.20411-1.45312a11.43235,11.43235,0,0,1-.91113,1.63623,10.65828,10.65828,0,0,1-4.334,3.55762l-.38282.20459a16.76672,16.76672,0,0,1-5.5957,1.93115c-.19726.02344-.415.05322-.65234.085a20.00417,20.00417,0,0,1-9.0586-.46484,7.67577,7.67577,0,0,1-4.47363-3.46094c-.00488.04248-.00879.085-.01269.12744-.2168,2.36865-.57032,4.57324-.82813,6.18262C183.06564,95.25127,182.8967,96.31035,182.89474,96.6834Z"/><path class="cls-4" d="M232.82541,96.29277A16.28066,16.28066,0,0,1,221.76779,92.327c-.35742-.30224-.26953-.80127.09961-2.90136.27637-1.56885.6543-3.71778.87891-6.16407a21.48626,21.48626,0,0,1,.52929-3.31982l.00586-.03906.02246-.1543.03516.00537a.70609.70609,0,0,1,.25879-.39844.502.502,0,0,1,.70019.53174v.001l-.02246.15967a4.0855,4.0855,0,0,0,.11133,2.1206,6.37542,6.37542,0,0,0,4.14746,3.56055,19.14611,19.14611,0,0,0,8.62207.42773c.24317-.0332.4668-.063.668-.08691a15.29629,15.29629,0,0,0,5.23828-1.81885l.3877-.20654a9.69865,9.69865,0,0,0,3.97754-3.23975,12.97783,12.97783,0,0,0,1.49511-3.2124.47964.47964,0,0,1,.52149-.35791.50175.50175,0,0,1,.458.436c.14062,1.09082.30078,2.2295.46289,3.37989.25976,1.83935.52734,3.7417.72168,5.5083.709,6.42871-13.62207,9.31445-13.76661,9.33838A27.72919,27.72919,0,0,1,232.82541,96.29277Z"/><path class="cls-4" d="M222.5422,91.66533c3.98047,3.30078,8.36524,4.27149,14.61426,3.24024,2.11328-.34766,13.47168-3.34375,12.93262-8.23682-.19336-1.752-.46-3.64649-.71777-5.47852-.06934-.4873-.1377-.97265-.20411-1.45312a11.43235,11.43235,0,0,1-.91113,1.63623,10.65828,10.65828,0,0,1-4.334,3.55762l-.38282.20459a16.76672,16.76672,0,0,1-5.5957,1.93115c-.19726.02344-.415.05322-.65234.085a20.01824,20.01824,0,0,1-9.0586-.46484,7.67577,7.67577,0,0,1-4.47363-3.46094c-.00488.04248-.00879.085-.01269.12744-.22852,2.4873-.61036,4.66016-.88965,6.24609C222.70724,90.45244,222.552,91.33135,222.5422,91.66533Z"/><path d="M223.30392,79.74932l.03516.00488Z"/><path class="cls-4" d="M233.43869,120.77373c-4.90039,0-9.32715-1.45605-11.51563-3.9585-.26562-.30322-.20605-.7041.1543-2.7832.27441-1.57812.64844-3.73975.87793-6.229a21.47608,21.47608,0,0,1,.52832-3.32178l.00586-.04.02246-.15137.03516.00537a.7079.7079,0,0,1,.25879-.39843.50194.50194,0,0,1,.70019.53173v.001l-.02246.15723a4.09824,4.09824,0,0,0,.1123,2.12353,6.37543,6.37543,0,0,0,4.14747,3.56055,19.12252,19.12252,0,0,0,8.62207.42676c.24316-.03272.46582-.0625.667-.08643a15.27653,15.27653,0,0,0,5.23828-1.81885l.39062-.208a9.6921,9.6921,0,0,0,3.97559-3.2378,13.00766,13.00766,0,0,0,1.49512-3.21289.48488.48488,0,0,1,.52148-.35791.50176.50176,0,0,1,.458.436c.14062,1.08789.2998,2.22412.46191,3.37158.25879,1.84229.52735,3.74707.72168,5.5166.709,6.43067-13.62207,9.31494-13.76757,9.33887A25.24282,25.24282,0,0,1,233.43869,120.77373Z"/><path class="cls-4" d="M222.76193,116.24687c2.23145,2.43555,7.91309,4.30127,14.60352,3.20069,2.1123-.34766,13.4707-3.34278,12.93164-8.23731-.19336-1.75439-.46094-3.65185-.71875-5.4873q-.10254-.72657-.20215-1.44483a11.39525,11.39525,0,0,1-.91113,1.63672,10.64509,10.64509,0,0,1-4.333,3.55616l-.38477.206a16.76305,16.76305,0,0,1-5.5957,1.93115l-.65137.085a20.00343,20.00343,0,0,1-9.05859-.46435,7.68253,7.68253,0,0,1-4.47461-3.46143l-.01172.12744c-.23242,2.5293-.61133,4.71387-.8877,6.3086C222.91916,115.0584,222.76584,115.93975,222.76193,116.24687Z"/><path d="M223.51193,104.29082l.03516.00488Z"/></g><path id="Screen" class="cls-4" d="M327.76779,54.346c-.30859,0-.61621.01416-.91895.0415a9.1221,9.1221,0,0,0-.97558.14258c-.1582.03174-.31152.06787-.46094.10742-.14844.03955-.29394.083-.43555.12988-.09082.03076-.18164.06348-.27148.09766-.08691.03369-.17188.06836-.25391.10449l-.21582.10254c-1.31054.6665-2.59765,1.32178-3.88574,1.98779q-2.00391,1.03712-4.01074,2.105-2.07861,1.106-4.15918,2.23975-1.48974.81225-2.97949,1.63916-1.51612.84228-3.03418,1.70019-3.00586,1.69776-6.0127,3.45606-3.00439,1.75781-6.01074,3.57373-3.00587,1.81714-6.00977,3.69238-1.5249.95069-3.04687,1.91651-1.48242.939-2.96289,1.89257-1.01807.65553-2.03711,1.31788-1.002.65257-2.00293,1.30957L276.11447,83.202c-.12012.08448-.22949.16065-.33008.24024a3.36848,3.36848,0,0,0-.28515.24756c-.09083.08593-.17188.17236-.248.26025a2.73774,2.73774,0,0,0-.19531.2583,2.12034,2.12034,0,0,0-.25489.50879,1.55084,1.55084,0,0,0-.083.48389,1.359,1.359,0,0,0,.07714.45654,1.63461,1.63461,0,0,0,.23828.44433,2.16984,2.16984,0,0,0,.18458.21387,2.66674,2.66674,0,0,0,.23242.2085c.05761.04541.11718.08935.17968.13183.0625.043.127.084.19434.12305l.2041.11035,2.63379,1.166,9.75,4.90576q2.55469,1.2876,5.11035,2.583,2.55615,1.29711,5.11133,2.61035,2.55762,1.31616,5.11621,2.65723,2.55909,1.34325,5.11817,2.72168,1.30224.70019,2.60449,1.41357,1.25831.68921,2.51953,1.39014,1.29784.7229,2.59863,1.459,1.26417.717,2.52832,1.4458l1.67871.9751q.854.49952,1.709,1.00488l1.74121,1.03565q1.25976.75366,2.51855,1.51855,1.30225.791,2.6045,1.59277,2.55908,1.57545,5.11816,3.18848,2.55762,1.6106,5.11426,3.24854,2.55615,1.63623,5.11133,3.291,2.55468,1.65381,5.11035,3.3169l5.1084,3.32617c.75878.49463,2.21289,1.53711,3.29882,2.32471a5.761,5.761,0,0,0,6.88575-.07032c.44433-.335.81445-.606,1.02539-.74414q1.33008-.87231,2.66113-1.73144,1.33008-.85914,2.66211-1.7085,1.33008-.84814,2.66211-1.68506,1.33008-.83715,2.66113-1.66211,1.33155-.82543,2.66309-1.63965,1.33153-.81372,2.66308-1.61621,1.32861-.80269,2.66309-1.59375,1.33153-.79027,2.66211-1.56982,2.40526-1.40772,4.81054-2.77783,2.40089-1.36743,4.80274-2.69776,2.39795-1.32714,4.79394-2.61767,2.39356-1.28834,4.78711-2.5376c1.56543-.81494,4.083-2.26074,4.1084-2.27539l2.79-1.15674c.06836-.04053.1836-.103.292-.16943a2.88312,2.88312,0,0,0,.27539-.19434,2.94651,2.94651,0,0,0,.23829-.21,2.22294,2.22294,0,0,0,.18554-.21094,1.65277,1.65277,0,0,0,.24121-.43261,1.30914,1.30914,0,0,0,.07715-.43116,1.40822,1.40822,0,0,0-.07715-.45068l-.001-.001a1.89781,1.89781,0,0,0-.2461-.47705,2.51336,2.51336,0,0,0-.19336-.24365,3.07563,3.07563,0,0,0-.24121-.24463c-.05859-.05322-.12109-.10693-.18554-.15967-.06348-.05029-.13086-.10107-.20118-.15088-.07519-.05322-.15332-.104-.23046-.15478q-2.55469-1.61573-5.125-3.23584-2.543-1.60181-5.08692-3.19287-5.11085-3.19555-10.22558-6.33692-2.56056-1.571-5.12208-3.12353-2.55615-1.54908-5.11425-3.07666-1.70947-1.01953-3.418-2.03076-1.708-1.00782-3.415-2.00684-1.70947-.99682-3.418-1.98437-2.55908-1.47-5.125-2.93164-2.56494-1.45606-5.12988-2.88379-2.56054-1.42677-5.1211-2.83252-2.56639-1.40845-5.13281-2.79639-5.12256-2.77368-10.248-5.48144-2.54881-1.34987-5.09765-2.6875-2.57228-1.34987-5.14258-2.69092c-.11426-.05664-.23926-.11817-.37012-.17578-.12793-.05567-.26367-.10743-.40234-.15674-.13867-.04834-.28418-.09473-.43359-.13721-.1504-.043-.30372-.08154-.46094-.11621a9.1831,9.1831,0,0,0-.98145-.16309,10.11844,10.11844,0,0,0-1.02148-.0625C327.84006,54.346,327.80392,54.346,327.76779,54.346Z"/><g id="Micro_USB_Port" data-name="Micro USB Port"><path d="M244.12716,199.47344l-11.19531-6.47217-1.85547-4.15967.54981-3.00928a1.291,1.291,0,0,1,1.91211-.8872l13.38086,7.68408a1.2932,1.2932,0,0,1,.62695,1.35351l-.73828,3.97413Zm-10.41406-7.1753,10.41992,6.023,1.77637-1.00488.65332-3.51514a.29308.29308,0,0,0-.1416-.30468l-13.38086-7.68409a.2853.2853,0,0,0-.26758-.01123.28192.28192,0,0,0-.16211.21045l-.49511,2.70508Z"/><path d="M244.12716,199.47344l-11.19531-6.47217-1.85547-4.15967.54981-3.00928a1.51448,1.51448,0,0,1,.75586-.94873,1.43111,1.43111,0,0,1,1.88867.9541l.01562.0879-.27148,1.48486,1.59668,3.5791,10.44824,5.90381a.85457.85457,0,0,1,.001,1.48682Zm-10.41406-7.1753,10.41992,6.023,1.21-.68408-10.51075-5.93945-1.85644-4.16211.28515-1.562a.42532.42532,0,0,0-.17871-.13965.37809.37809,0,0,0-.2832-.04151.51686.51686,0,0,0-.2002.26954l-.48339,2.65478Z"/></g><path id="Back_Shoulder_Button" data-name="Back Shoulder Button" d="M474.60373,280.48223a9.8211,9.8211,0,0,1-2.55469-.30323.50072.50072,0,0,1-.21973-.81738c.14942-.16162,15.02442-16.38037,22.05469-35.57422a.50036.50036,0,0,1,.95215.30518c-.03125.11279-3.16992,11.44336-7.58106,25.0874C484.091,278.96807,478.0422,280.48223,474.60373,280.48223Zm-1.46485-1.085c2.40528.39356,9.58789.54151,13.165-10.5249,2.12891-6.58691,3.96192-12.6333,5.29-17.13427A131.06239,131.06239,0,0,1,473.13888,279.39726Z"/><path id="Top_Shoulder_Button" data-name="Top Shoulder Button" d="M495.52756,218.19414a.83147.83147,0,0,1-.10743-.00537.49925.49925,0,0,1-.4375-.47022,265.468,265.468,0,0,0-5.79882-41.32763.49962.49962,0,0,1,.82519-.48194c.32422.29932,7.93848,7.69532,8.10449,39.60157a.50817.50817,0,0,1-.02636.16211C497.29611,218.01689,495.924,218.19414,495.52756,218.19414Zm-4.84864-39.66748a267.91413,267.91413,0,0,1,5.27051,38.55322,2.753,2.753,0,0,0,1.16406-1.64941C496.98263,192.326,492.87228,182.26006,490.67892,178.52666Z"/><g id="Controller_Line_1" data-name="Controller Line 1"><path d="M300.33322,290.84355l-.8418-.53906c.15039-.23681,14.81739-23.99951-11.7041-50.51025-26.6582-26.647-87.75781-55.10742-107.96094-61.38721-19-5.9043-30.91113-3.1543-43.96875,3.2002a48.24853,48.24853,0,0,0-11.374,7.06347c-5.65527,4.29639-17.42285,13.23682-49.69238,35.291C52.39084,239.2708,34.14767,244.3831,20.58029,239.159c-14.02246-5.39843-17.751-20.27392-17.78711-20.42334l.97266-.23437c.03515.14453,3.65332,14.52637,17.18457,19.72851,13.249,5.09424,31.17285.01465,53.27636-15.09326,32.249-22.04052,44.00293-30.9707,49.65235-35.2622a48.957,48.957,0,0,1,11.541-7.16651c13.27637-6.46045,25.38477-9.25928,44.70313-3.25586,20.27344,6.30225,81.59765,34.873,108.37109,61.63526C315.60373,266.18535,300.48947,290.5999,300.33322,290.84355Z"/><path d="M305.3049,396.81182a31.06794,31.06794,0,0,1-15.92774-3.91114c-11.48925-6.708-12.95605-19.92187-12.96875-20.05468l.99415-.10108c.01367.12793,1.43945,12.85449,12.49023,19.29883,10.48828,6.11572,25.91992,4.78906,45.87012-3.94531a145.38919,145.38919,0,0,0,38.39355-24.83106c19.05078-16.98486,52.9336-47.53174,65.82422-61.27832,18.21777-19.43115,47.91113-57.59424,55.30762-72.78076l.89844.4375c-7.43165,15.25879-37.2129,53.54736-55.47657,73.02686-12.917,13.77539-46.82519,44.34521-65.88769,61.34082a146.38967,146.38967,0,0,1-38.65918,25.001C324.29709,394.21025,313.98068,396.81182,305.3049,396.81182Z"/></g><g id="XYBA"><path class="cls-4" d="M365.509,191.78447c-5.42676.00049-9.9082-2.47607-10.77441-6.36914-.53223-2.39111.34668-4.92822,2.47461-7.145a16.89863,16.89863,0,0,1,8.50195-4.52c7.125-1.58838,13.80859,1.064,14.88672,5.90967.53222,2.39063-.34668,4.92773-2.47461,7.14453a16.90264,16.90264,0,0,1-8.502,4.52A18.95278,18.95278,0,0,1,365.509,191.78447Z"/><path class="cls-4" d="M369.87228,174.42119a18.08206,18.08206,0,0,0-3.915.43848,15.76,15.76,0,0,0-7.92871,4.19775c-1.85547,1.93311-2.63086,4.10352-2.18457,6.11084.94238,4.23242,7.00879,6.49561,13.53125,5.04688a15.76,15.76,0,0,0,7.92774-4.19727c1.85644-1.93359,2.63183-4.104,2.18554-6.11084h0C378.73947,176.5418,374.75119,174.42119,369.87228,174.42119Z"/><path class="cls-4" d="M326.02658,166.34648c-5.57031,0-10.24414-2.74365-11.19141-6.9956-1.1582-5.209,3.709-10.73975,10.85157-12.3291,7.13867-1.58887,13.89453,1.35449,15.05566,6.564v.00049c1.1582,5.209-3.709,10.74023-10.85156,12.3291A17.805,17.805,0,0,1,326.02658,166.34648Z"/><path class="cls-4" d="M329.58322,147.76689a16.799,16.799,0,0,0-3.64063.40625c-6.50683,1.44825-10.97265,6.34717-9.95507,10.92139,1.01855,4.57373,7.1416,7.11816,13.64746,5.66943,6.50683-1.44824,10.97265-6.34716,9.95508-10.92187C338.76584,150.139,334.59494,147.76689,329.58322,147.76689Z"/><path class="cls-4" d="M366.78146,162.47441a17.86157,17.86157,0,0,1-7.9209-1.70166c-2.73047-1.36914-4.32812-3.37207-4.498-5.64013-.34278-4.57032,5.42285-8.7417,12.85156-9.29883a18.67649,18.67649,0,0,1,9.5957,1.63867c2.73047,1.36914,4.32813,3.37207,4.49805,5.64014s-1.11035,4.48681-3.60645,6.24756a18.65466,18.65466,0,0,1-9.24511,3.05127C367.89377,162.45342,367.3342,162.47441,366.78146,162.47441Z"/><path class="cls-4" d="M368.89377,146.87285q-.791,0-1.59766.06055c-6.82227.51123-12.13086,4.15283-11.834,8.11719.13964,1.86621,1.52246,3.54834,3.89257,4.73681a19.064,19.064,0,0,0,17.71094-1.32812c2.167-1.52832,3.2832-3.398,3.14258-5.26416v-.00049c-.13965-1.86621-1.52246-3.54834-3.89258-4.73682A16.74575,16.74575,0,0,0,368.89377,146.87285Z"/><path class="cls-4" d="M325.91818,196.36748a14.57574,14.57574,0,0,1-5.38281-.98926,9.3309,9.3309,0,0,1-5.86817-6.083c-1.52636-5.53808,3.1045-11.66211,10.32325-13.65136,7.21777-1.98975,14.332.89941,15.85839,6.4375h0c1.52637,5.53808-3.10546,11.66211-10.32421,13.65136A17.37867,17.37867,0,0,1,325.91818,196.36748Z"/><path class="cls-4" d="M329.59006,176.25029a16.11419,16.11419,0,0,0-4.27149.58789c-6.55957,1.80762-10.80176,7.24805-9.458,12.12793a8.12714,8.12714,0,0,0,5.13282,5.26123,14.60589,14.60589,0,0,0,9.20312.311c6.55957-1.80762,10.80274-7.248,9.459-12.12793h0C338.60666,178.60771,334.469,176.25029,329.59006,176.25029Z"/><path class="cls-4" d="M365.54123,201.18144a18.73321,18.73321,0,0,1-7.61328-1.52929c-3.55274-1.585-5.85743-4.19434-6.49024-7.34766-.6543-3.2583.55078-6.64306,3.39258-9.53076a.5007.5007,0,0,1,.70215-.01074.58881.58881,0,0,1,.18164.46777,5.29721,5.29721,0,0,0,.06348,1.95166c.95019,4.27051,7.05078,6.56006,13.6123,5.09912,10.68652-2.76318,10.26953-9.51758,10.26465-9.58545a.49906.49906,0,0,1,.26465-.48242.50434.50434,0,0,1,.54883.0542,9.52985,9.52985,0,0,1,3.46972,5.51563c1.293,6.44238-4.94531,13.147-13.90527,14.94482A22.92206,22.92206,0,0,1,365.54123,201.18144Z"/><path d="M354.66525,184.451a9.17414,9.17414,0,0,0-2.24707,7.65673c.56738,2.82715,2.66895,5.18213,5.917,6.63135a19.24081,19.24081,0,0,0,11.5,1.00879c8.41992-1.68945,14.30567-7.86572,13.12207-13.76807a8.29842,8.29842,0,0,0-2.37793-4.27246c-.335,2.22217-2.08691,7.25342-10.95605,9.54639-7.11426,1.585-13.752-1.0459-14.82227-5.854A6.203,6.203,0,0,1,354.66525,184.451Z"/><path class="cls-4" d="M365.56955,172.92949c-7.1416,0-13.09961-3.49121-14.17383-8.81445-1.24219-6.3252,3.05176-9.18506,3.23437-9.30371l.74707-.48291.10059.8833c.43945,3.86328,6.22461,6.604,12.89649,6.1001a17.539,17.539,0,0,0,8.6914-2.85254c2.167-1.52832,3.2832-3.398,3.14258-5.26416l-.05176-.69483.97559.1543.124.11963a9.1325,9.1325,0,0,1,2.74219,4.83887,9.66689,9.66689,0,0,1-1.6543,7.34814c-2.43652,3.65918-7.03418,6.4707-12.30176,7.521A22.90888,22.90888,0,0,1,365.56955,172.92949Z"/><path d="M354.57541,156.27666a7.97057,7.97057,0,0,0-2.09864,7.62353c1.17286,5.80811,8.96,9.17579,17.35059,7.501,4.98535-.99414,9.32129-3.62988,11.59863-7.05078a8.58947,8.58947,0,0,0,1.49219-6.519,7.79636,7.79636,0,0,0-1.667-3.44727,7.89168,7.89168,0,0,1-3.54981,4.97608,18.65466,18.65466,0,0,1-9.24511,3.05127C361.59494,162.92119,355.78049,160.2791,354.57541,156.27666Z"/><path class="cls-4" d="M325.72384,175.472a18.65991,18.65991,0,0,1-7.22753-1.38086c-3.61329-1.522-5.99122-4.105-6.69629-7.27343-.70508-3.16749.35254-6.51563,2.98047-9.42627l.918-1.01807.10743,1.3667a12.85026,12.85026,0,0,0,.18164,1.35449c1.01855,4.57373,7.1416,7.11816,13.64746,5.66943,6.07422-1.35253,10.498-5.83154,10.07031-10.19775l-.05762-.58594.81836-.082.19043.14209a9.63781,9.63781,0,0,1,3.67676,5.53809c1.4375,6.46289-4.69043,13.34424-13.65918,15.33984A22.838,22.838,0,0,1,325.72384,175.472Z"/><path d="M314.80783,159.21709a8.99021,8.99021,0,0,0-1.85547,7.34424c.61914,2.78515,2.751,5.07324,6.001,6.44238a19.15715,19.15715,0,0,0,11.46484.76318c8.334-1.85449,14.05957-8.10449,12.7627-13.93213a8.15375,8.15375,0,0,0-2.293-4.03222c-.38086,4.53857-4.84668,8.74414-10.99707,10.11279-7.1377,1.5874-13.89551-1.35547-15.05567-6.56445v-.001C314.82541,159.30693,314.81662,159.2625,314.80783,159.21709Z"/><path class="cls-4" d="M325.43869,205.387a18.848,18.848,0,0,1-7.66211-1.53955c-3.58984-1.60107-5.919-4.24072-6.55957-7.43311-1.21582-6.52636,3.24023-9.6123,3.43066-9.74072l.95508-.64306.00977,1.15136a6.98522,6.98522,0,0,0,.248,1.78418,8.12714,8.12714,0,0,0,5.13282,5.26123,14.60589,14.60589,0,0,0,9.20312.311l.00879-.00244a13.63375,13.63375,0,0,0,9.94531-9.30762l.24414-1.07031.79.76318a9.33372,9.33372,0,0,1,2.7666,4.92481c.64063,3.19238-.49023,6.52636-3.18359,9.38818a20.36146,20.36146,0,0,1-10.81543,5.69775A23.00109,23.00109,0,0,1,325.43869,205.387Z"/><path d="M314.48361,188.45879a8.515,8.515,0,0,0-2.05078,7.7207c.55762,2.7793,2.63574,5.104,5.84766,6.53662a20.37366,20.37366,0,0,0,21.585-4.331c2.41113-2.56153,3.43066-5.50733,2.87109-8.29492a7.875,7.875,0,0,0-1.71191-3.52491,14.82781,14.82781,0,0,1-10.50391,9.16846,15.83712,15.83712,0,0,1-9.98535-.35547,9.3309,9.3309,0,0,1-5.86817-6.083A7.90926,7.90926,0,0,1,314.48361,188.45879Z"/><path class="cls-4" d="M365.58322,201.24541c-6.8125.00049-12.18555-2.88672-12.74609-7.15283l-.01075-.083.01368-.08252c.57421-3.52734,1.77636-10.51562,1.77636-10.51562l1.127.14746a5.21528,5.21528,0,0,0,.10058,1.60937c.94238,4.23242,7.00879,6.49561,13.53125,5.04688,5.958-1.32618,10.35742-5.34522,10.2334-9.34913l1.12207-.145.25879,1.126,1.09766,8.78565c.55664,4.83349-5.55469,9.51709-13.62207,10.44531A25.15764,25.15764,0,0,1,365.58322,201.24541Z"/><path class="cls-4" d="M353.9758,194.02471c.61914,4.11425,7.03711,6.76464,14.3584,5.92431,7.44531-.85693,13.10839-4.97558,12.625-9.18115l-.8545-6.856c-1.501,3.36573-5.4873,6.30078-10.48339,7.4126-6.44043,1.43457-12.51758-.59277-14.42383-4.57129C354.80881,189.03105,354.29806,192.04473,353.9758,194.02471Z"/><path class="cls-4" d="M365.49826,172.67754c-6.77735,0-12.12012-2.86279-12.67676-7.09424a.51917.51917,0,0,1,.00293-.14551c.56641-3.47949,1.5752-10.61767,1.585-10.68945a.49974.49974,0,0,1,.98731-.01563c.02539.14356.04394.2959.0625.45655a3.9392,3.9392,0,0,0,.41406,1.53613c2.251,4.145,8.70605,4.61475,11.37695,4.624,3.12891.02588,8.80469-.58007,11.79688-4.65429a4.82873,4.82873,0,0,0,1.20117-3.07227.49925.49925,0,0,1,.4834-.4917.45964.45964,0,0,1,.51465.45947l.69238,8.57227c.5498,4.77393-5.53516,9.42334-13.56445,10.34717A25.19405,25.19405,0,0,1,365.49826,172.67754Z"/><path class="cls-4" d="M353.82345,165.52422c.61524,4.15576,7.07129,6.83691,14.43555,5.99267,7.48242-.86132,13.17285-5.01367,12.68457-9.25683L380.469,156.388a7.55806,7.55806,0,0,1-.62695.91357c-3.24317,4.41748-9.32422,5.02686-12.5957,5.04785-2.82618-.01025-9.6377-.52441-12.19239-5.04C354.7092,159.70049,354.18185,163.31133,353.82345,165.52422Z"/><path class="cls-4" d="M325.24826,205.17754c-6.77735,0-12.12012-2.86279-12.67676-7.09424a.545.545,0,0,1-.001-.11963c.24805-2.25293.58985-4.51074,1.01465-6.71191.27149-1.40235.58008-2.80811.918-4.17823a.48937.48937,0,0,1,.543-.37695.49936.49936,0,0,1,.44238.49024,7.05908,7.05908,0,0,0,.36914,2.17919,8.68,8.68,0,0,0,4.40528,4.67627,11.94954,11.94954,0,0,0,6.23535,1.19239,15.76109,15.76109,0,0,0,4.4209-.72657,16.14842,16.14842,0,0,0,6.91308-4.57128,9.87068,9.87068,0,0,0,1.54688-2.51514,8.9568,8.9568,0,0,0,.55273-2.01221.47839.47839,0,0,1,.51074-.42431.49911.49911,0,0,1,.48145.458l.76465,9.21827c.5498,4.77539-5.53516,9.4248-13.56445,10.34863A25.19405,25.19405,0,0,1,325.24826,205.17754Z"/><path class="cls-4" d="M313.5715,198.01152c.60352,4.16309,7.05762,6.85254,14.4375,6.00537,7.48242-.86132,13.17285-5.01367,12.68457-9.25683l-.54687-6.59766a11.29241,11.29241,0,0,1-1.54493,2.41211,17.2399,17.2399,0,0,1-7.37793,4.88672,16.81465,16.81465,0,0,1-4.70507.77344,12.99863,12.99863,0,0,1-6.72266-1.30762,9.63,9.63,0,0,1-4.876-5.2124q-.186.86133-.35254,1.72656C314.15158,193.596,313.81662,195.806,313.5715,198.01152Z"/><path class="cls-4" d="M325.90451,175.33379c-6.77735,0-12.12012-2.86279-12.67676-7.09424a.51917.51917,0,0,1,.00293-.14551c.56641-3.47949,1.5752-10.61767,1.585-10.68945a.49036.49036,0,0,1,.53809-.42822.5.5,0,0,1,.457.51416,6.60478,6.60478,0,0,0,.50683,2.82959c.97266,2.27832,3.25879,3.85107,6.79493,4.67431a13.59852,13.59852,0,0,0,6.415-.1792c1.85351-.42334,6.19433-1.41406,8.78515-5.30517a11.22408,11.22408,0,0,0,1.72363-4.45947.49943.49943,0,0,1,.49317-.41993h.00683a.50009.50009,0,0,1,.48829.43311l1.31738,9.72851c.55273,4.80079-5.53223,9.4502-13.56152,10.374A25.19405,25.19405,0,0,1,325.90451,175.33379Z"/><path class="cls-4" d="M314.2297,168.18047c.61524,4.15625,7.0625,6.84033,14.43555,5.99267,7.48242-.86132,13.17285-5.01367,12.68457-9.25683l-.98047-7.24072a11.832,11.832,0,0,1-1.22461,2.38818c-2.81054,4.22363-7.4248,5.27637-9.39453,5.72607a14.46715,14.46715,0,0,1-6.86426.17823c-3.86425-.89942-6.38281-2.66748-7.48828-5.25538-.01172-.02685-.02246-.05371-.03418-.08056C315.02365,162.98906,314.55685,166.16484,314.2297,168.18047Z"/></g><g id="Power_Home" data-name="Power/Home"><path d="M271.69455,158.85771a4.02543,4.02543,0,0,1-2.04883-.5581l-18.5625-10.94092a1.86611,1.86611,0,0,1-.28418-3.01074l19.05469-16.75635a4.39108,4.39108,0,0,1,5.12109-.49463l18.751,10.95557a2.043,2.043,0,0,1,.28222,3.3291l-19.71679,16.53369A4.04,4.04,0,0,1,271.69455,158.85771Z"/><path d="M272.32248,150.50273a12.2833,12.2833,0,0,1-5.85157-1.34082c-2.97753-1.63379-3.998-4.47314-2.5996-7.23437a.42673.42673,0,0,1,.585-.18067l2.48339,1.3628a.42635.42635,0,0,1,.2129.45019,3.06724,3.06724,0,0,0,1.832,3.27246c2.70507,1.48487,7.12011,1.02881,9.83789-1.01709a4.14234,4.14234,0,0,0,1.95215-3.41748,3.288,3.288,0,0,0-1.90235-2.57226,8.95086,8.95086,0,0,0-5.75976-.66846.44171.44171,0,0,1-.28125-.04541l-2.4834-1.36279a.42563.42563,0,0,1,.07226-.77735c3.86036-1.26806,8.0625-1.06787,10.96582.52491a5.61534,5.61534,0,0,1,3.21289,4.44629c.14454,2.00585-1.00683,4.08642-3.16015,5.70751A15.55981,15.55981,0,0,1,272.32248,150.50273Z"/><path class="cls-6" d="M264.44748,142.71269c-.9043,2.2129.001,4.36915,2.43261,5.70313,3.86817,2.12256,10.16895,1.47461,14.04688-1.44531,1.918-1.44385,2.94727-3.2544,2.82422-4.9668a4.80115,4.80115,0,0,0-2.77442-3.76123,13.34343,13.34343,0,0,0-9.32031-.74609l1.45313.79736a9.73593,9.73593,0,0,1,6.17187.78613,4.10437,4.10437,0,0,1,2.3418,3.25684,4.96214,4.96214,0,0,1-2.28906,4.1582c-2.96192,2.228-7.78907,2.71387-10.75879,1.0835a3.96246,3.96246,0,0,1-2.30274-3.86426Z"/><path d="M268.47873,143.25078a.42691.42691,0,0,1-.20508-.05225l-3.91016-2.14648-1.29883.978a.42534.42534,0,0,1-.67968-.30469l-.3877-4.67578a.42549.42549,0,0,1,.39551-.45947l7.24609-.48731a.43049.43049,0,0,1,.42676.27588.42578.42578,0,0,1-.14258.48828l-.99316.74756,3.57519,1.96143a.42631.42631,0,0,1,.05079.71289l-3.82129,2.87646A.42438.42438,0,0,1,268.47873,143.25078Z"/><path class="cls-6" d="M264.32736,140.12187a.42694.42694,0,0,1,.20508.05225l3.91015,2.14648,3.07618-2.31542-3.5752-1.96143a.42631.42631,0,0,1-.05078-.71289l.377-.28367-5.38965.36277.28907,3.477.90234-.67969A.42438.42438,0,0,1,264.32736,140.12187Z"/></g><g id="Directional_Buttons-2" data-name="Directional Buttons"><path d="M233.57638,87.639c-5.28613,0-9.52832-2.104-10.28515-5.50195-.48145-2.16455.48144-4.49365,2.71289-6.55859a20.73493,20.73493,0,0,1,18.51855-4.12012c2.89649.92334,4.75684,2.62451,5.23828,4.78955.48145,2.16455-.48144,4.49365-2.71289,6.55859a19.14228,19.14228,0,0,1-8.76074,4.30225A21.7938,21.7938,0,0,1,233.57638,87.639Zm5.96-15.90234a21.04816,21.04816,0,0,0-4.55468.51611,18.12272,18.12272,0,0,0-8.29785,4.06006c-1.96,1.8125-2.81739,3.8042-2.416,5.60742.85059,3.82666,7.0459,5.71631,13.80273,4.21192a18.12276,18.12276,0,0,0,8.29786-4.06006c1.96-1.8125,2.81738-3.8042,2.416-5.60742h0c-.40039-1.80322-2.02246-3.24268-4.56543-4.05371A15.492,15.492,0,0,0,239.53634,71.73662Z"/><path d="M233.82248,112.20976c-5.28516,0-9.52735-2.104-10.28418-5.50146-.97071-4.36426,4.17578-9.23682,11.47461-10.86133,7.2959-1.62451,14.02343.606,14.99609,4.97168.48145,2.16455-.48242,4.49414-2.71387,6.5586a19.14237,19.14237,0,0,1-8.76074,4.30224A21.77253,21.77253,0,0,1,233.82248,112.20976Zm5.98437-15.90332a21.1513,21.1513,0,0,0-4.57715.51709c-6.75976,1.5044-11.5664,5.84131-10.71484,9.668.85059,3.82569,7.041,5.71582,13.80273,4.21143a18.13559,18.13559,0,0,0,8.29883-4.05957c1.959-1.813,2.81739-3.80469,2.416-5.60791C248.38009,98.10185,244.58713,96.30644,239.80685,96.30644Z"/><path d="M193.89474,92.17656c-5.28613,0-9.52832-2.104-10.28515-5.50195-.48145-2.16455.48144-4.49365,2.71289-6.5586A20.735,20.735,0,0,1,204.841,75.9959c2.89649.92334,4.75684,2.624,5.23828,4.78906h0c.48145,2.165-.48144,4.49414-2.71289,6.55859a19.13814,19.13814,0,0,1-8.76074,4.30274A21.79443,21.79443,0,0,1,193.89474,92.17656Z"/><path class="cls-4" d="M199.8547,76.27422a21.04754,21.04754,0,0,0-4.55468.51611,18.12276,18.12276,0,0,0-8.29786,4.06006c-1.96,1.8125-2.81738,3.8042-2.416,5.60742.85156,3.82666,7.04492,5.7168,13.80273,4.21192a18.12285,18.12285,0,0,0,8.29786-4.06006c1.96-1.813,2.81738-3.8042,2.416-5.60791h0c-.40039-1.80274-2.02246-3.24268-4.56543-4.05323A15.49233,15.49233,0,0,0,199.8547,76.27422Z"/><path d="M193.927,118.62725a16.10778,16.10778,0,0,1-5.25684-.82666c-2.9082-1.01026-4.78906-2.82081-5.29589-5.09864-.50684-2.27734.42871-4.71484,2.63378-6.8623a19.72771,19.72771,0,0,1,18.54-4.12549c2.90821,1.00977,4.78907,2.82031,5.2959,5.09814v-.00048c.50684,2.27783-.42871,4.71533-2.63379,6.86328A18.31348,18.31348,0,0,1,198.469,118.116,21.00681,21.00681,0,0,1,193.927,118.62725Zm5.36719-16.74073a20.00349,20.00349,0,0,0-4.32813.48877,17.29117,17.29117,0,0,0-8.25976,4.18067c-1.94825,1.89648-2.78418,4.00244-2.35547,5.92871.42871,1.92676,2.0791,3.479,4.64746,4.37109a18.73942,18.73942,0,0,0,17.51367-3.897c1.94824-1.897,2.78516-4.00293,2.35547-5.9292v-.00049c-.42871-1.92627-2.0791-3.47851-4.64746-4.37012A15.09037,15.09037,0,0,0,199.29416,101.88652Z"/><path d="M233.03341,96.08379c-6.62792,0-11.9375-2.61182-12.87792-6.83789-.56836-2.55469.51464-5.33252,3.04882-7.82227l.88282-.77832.12011.9336c.01465.11425.03516.22851.06055.34179.85059,3.82569,7.041,5.71533,13.80273,4.21143,6.1836-1.376,10.83106-5.16406,10.81055-8.81153l-.01172-2.02441,1.0166,1.90625a7.397,7.397,0,0,1,3.59571,4.62793c1.21,5.44385-5.2793,11.53564-14.4668,13.57959A27.65441,27.65441,0,0,1,233.03341,96.08379ZM223.428,82.62773c-1.9336,2.09131-2.75293,4.35059-2.2959,6.40088,1.09082,4.90576,9.01367,7.33008,17.666,5.40479,8.64844-1.92383,14.79785-7.48047,13.707-12.38574a6.21552,6.21552,0,0,0-2.71875-3.71778c-.71386,3.76709-5.4121,7.42383-11.499,8.77881C231.26974,88.67021,224.77756,86.66631,223.428,82.62773Z"/><path d="M193.174,100.94951c-6.62793,0-11.93848-2.61182-12.87891-6.83789-.59765-2.6875.61328-5.5874,3.41016-8.16553l.67578-.62353.16016.90283c.01269.07666.02636.15283.04394.22949.85254,3.8291,7.042,5.71973,13.80371,4.21485,5.67871-1.26319,10.2002-4.667,10.75489-8.09522l.13086-.95654.64941.38818a7.44507,7.44507,0,0,1,3.69727,4.69043c1.21,5.44336-5.2793,11.53516-14.4668,13.57959A27.66815,27.66815,0,0,1,193.174,100.94951Zm-9.39258-13.68066c-2.09863,2.1748-2.98242,4.49951-2.50976,6.626,1.09082,4.90528,9.01757,7.32813,17.666,5.40479,8.64844-1.92432,14.79785-7.481,13.707-12.38623a6.17493,6.17493,0,0,0-2.625-3.65283c-.94922,3.67871-5.5332,7.07714-11.41406,8.38574C191.64767,93.19268,185.20627,91.23809,183.78146,87.26885Z"/><path d="M232.94845,120.87969c-6.62793.00049-11.9375-2.61133-12.87793-6.83789-.63378-2.84864.58106-5.71534,3.51172-8.28907l.61035-.53662.20411.78711s.07129.27686.11816.48828h0c.85059,3.82569,7.041,5.71582,13.80273,4.21143,5.82911-1.29688,10.36329-4.7793,10.78125-8.28027l.06543-.19434.25977-.44189.44531.25439a7.37008,7.37008,0,0,1,3.52637,4.58594c.59766,2.6875-.61328,5.5874-3.41016,8.16552a24.23657,24.23657,0,0,1-11.05566,5.41407A27.63955,27.63955,0,0,1,232.94845,120.87969ZM223.633,107.06914c-2.19824,2.16162-3.09179,4.48437-2.58593,6.75586,1.09082,4.9043,9.01465,7.33057,17.666,5.40478a23.221,23.221,0,0,0,10.59473-5.17285c2.52441-2.32617,3.62891-4.88769,3.11133-7.21338a6.09949,6.09949,0,0,0-2.47364-3.543c-.957,3.63769-5.585,7.08251-11.41113,8.3789C231.43966,113.25713,224.886,111.19463,223.633,107.06914Z"/><path d="M192.82443,128.25225c-6.62793,0-11.9375-2.61182-12.87793-6.8379-.61914-2.7832.76367-5.88525,3.7959-8.50976l.51465-.4458.4834,1.1123c1.68164,3.36231,7.49707,4.90674,13.51171,3.56836,4.94727-1.10058,8.99024-3.87695,10.30079-7.07324l.5-1.06641.47363.27979a7.46252,7.46252,0,0,1,3.74512,4.71973c.59765,2.6875-.61329,5.5874-3.41016,8.16552a24.23121,24.23121,0,0,1-11.05566,5.41358A27.67843,27.67843,0,0,1,192.82443,128.25225Zm-8.92871-14.13868c-2.39648,2.26807-3.47656,4.82227-2.97266,7.0835,1.0918,4.90478,9.01465,7.33057,17.666,5.40478a23.2205,23.2205,0,0,0,10.59473-5.17236c2.52441-2.32666,3.6289-4.88818,3.11132-7.21338a6.2578,6.2578,0,0,0-2.81054-3.78125l-.01075.02246c-1.43554,3.48487-5.7539,6.48975-11.00488,7.65869C191.98263,119.5584,185.88791,117.87676,183.89572,114.11357Z"/><path d="M192.48947,128.157c-4.07227,0-7.27344-.77734-10.167-3.15039a2.3652,2.3652,0,0,1-.835-2.231c.40527-2.29931,1.16015-6.57861,1.416-8.58593q.20508-1.60254.36621-3.1587c.01075-.144.02539-.28955.0459-.436a.50465.50465,0,0,1,.55371-.42969.4989.4989,0,0,1,.43848.54688l-.041.4038a4.86127,4.86127,0,0,0,.26465,2.00147c.76367,2.11328,2.8916,3.03418,4.16309,3.58447a15.109,15.109,0,0,0,9.17578.563,18.43821,18.43821,0,0,0,5.208-1.8706,11.76723,11.76723,0,0,0,4.55468-3.71192,9.69317,9.69317,0,0,0,1.291-2.75391.49253.49253,0,0,1,.51855-.35888.50073.50073,0,0,1,.458.43408l1.10938,8.541c.57031,4.958-6.55567,9.1538-13.77344,10.34961C195.52463,128.05693,193.95041,128.157,192.48947,128.157ZM183.9133,114.18l-.01758.13623c-.25879,2.03076-1.0166,6.32568-1.42383,8.63281a1.36275,1.36275,0,0,0,.48535,1.28418c3.27442,2.688,6.84961,3.35938,14.15039,2.67041,6.57618-1.09082,13.4043-4.93554,12.90918-9.2373l-.8584-6.60938a10.44522,10.44522,0,0,1-.69921,1.188,12.60972,12.60972,0,0,1-4.9043,4.0293,19.47019,19.47019,0,0,1-5.49121,1.97217A16.04051,16.04051,0,0,1,188.3,117.6209,8.4488,8.4488,0,0,1,183.9133,114.18Z"/><path d="M192.65256,101.03252a15.3788,15.3788,0,0,1-10.53028-3.68506c-.35058-.29639-.293-.72852.11621-3.28271.25586-1.59571.60547-3.78077.82032-6.11573a21.47729,21.47729,0,0,1,.52929-3.31982l.00586-.03906.02246-.15332.03516.00488-.03516-.00586.03516.00537a.70609.70609,0,0,1,.25879-.39844.50166.50166,0,0,1,.50586.05811.507.507,0,0,1,.19433.47363v.001l-.02246.15967a4.0855,4.0855,0,0,0,.11133,2.1206,6.37542,6.37542,0,0,0,4.14746,3.56055,19.14611,19.14611,0,0,0,8.62207.42773c.24317-.0332.4668-.063.668-.08691a15.29629,15.29629,0,0,0,5.23828-1.81885l.3877-.20654a9.69865,9.69865,0,0,0,3.97754-3.23975,12.97783,12.97783,0,0,0,1.49511-3.2124.484.484,0,0,1,.52149-.35791.50175.50175,0,0,1,.458.436c.14062,1.09082.30078,2.2295.46289,3.37989.25976,1.83935.52734,3.7417.72168,5.5083.709,6.42871-13.62207,9.31445-13.76661,9.33838A30.76618,30.76618,0,0,1,192.65256,101.03252Zm-9.75782-4.34912c3.79492,3.14258,8.03223,3.98535,14.57422,2.90967,2.11328-.34766,13.47168-3.34375,12.93262-8.23682-.19336-1.752-.46-3.64649-.71777-5.47852-.06934-.4873-.1377-.97265-.20411-1.45312a11.43235,11.43235,0,0,1-.91113,1.63623,10.65828,10.65828,0,0,1-4.334,3.55762l-.38282.20459a16.76672,16.76672,0,0,1-5.5957,1.93115c-.19726.02344-.415.05322-.65234.085a20.00417,20.00417,0,0,1-9.0586-.46484,7.67577,7.67577,0,0,1-4.47363-3.46094c-.00488.04248-.00879.085-.01269.12744-.2168,2.36865-.57032,4.57324-.82813,6.18262C183.06564,95.25127,182.8967,96.31035,182.89474,96.6834Z"/><path d="M232.82541,96.29277A16.28066,16.28066,0,0,1,221.76779,92.327c-.35742-.30224-.26953-.80127.09961-2.90136.27637-1.56885.6543-3.71778.87891-6.16407a21.48626,21.48626,0,0,1,.52929-3.31982l.00586-.03906.02246-.1543.03516.00537a.70609.70609,0,0,1,.25879-.39844.502.502,0,0,1,.70019.53174v.001l-.02246.15967a4.0855,4.0855,0,0,0,.11133,2.1206,6.37542,6.37542,0,0,0,4.14746,3.56055,19.14611,19.14611,0,0,0,8.62207.42773c.24317-.0332.4668-.063.668-.08691a15.29629,15.29629,0,0,0,5.23828-1.81885l.3877-.20654a9.69865,9.69865,0,0,0,3.97754-3.23975,12.97783,12.97783,0,0,0,1.49511-3.2124.47964.47964,0,0,1,.52149-.35791.50175.50175,0,0,1,.458.436c.14062,1.09082.30078,2.2295.46289,3.37989.25976,1.83935.52734,3.7417.72168,5.5083.709,6.42871-13.62207,9.31445-13.76661,9.33838A27.72919,27.72919,0,0,1,232.82541,96.29277ZM222.5422,91.66533c3.98047,3.30078,8.36524,4.27149,14.61426,3.24024,2.11328-.34766,13.47168-3.34375,12.93262-8.23682-.19336-1.752-.46-3.64649-.71777-5.47852-.06934-.4873-.1377-.97265-.20411-1.45312a11.43235,11.43235,0,0,1-.91113,1.63623,10.65828,10.65828,0,0,1-4.334,3.55762l-.38282.20459a16.76672,16.76672,0,0,1-5.5957,1.93115c-.19726.02344-.415.05322-.65234.085a20.01824,20.01824,0,0,1-9.0586-.46484,7.67577,7.67577,0,0,1-4.47363-3.46094c-.00488.04248-.00879.085-.01269.12744-.22852,2.4873-.61036,4.66016-.88965,6.24609C222.70724,90.45244,222.552,91.33135,222.5422,91.66533Zm.76172-11.916.03516.00488Z"/><path d="M233.43869,120.77373c-4.90039,0-9.32715-1.45605-11.51563-3.9585-.26562-.30322-.20605-.7041.1543-2.7832.27441-1.57812.64844-3.73975.87793-6.229a21.47608,21.47608,0,0,1,.52832-3.32178l.00586-.04.02246-.15137.03516.00537a.7079.7079,0,0,1,.25879-.39843.50194.50194,0,0,1,.70019.53173v.001l-.02246.15723a4.09824,4.09824,0,0,0,.1123,2.12353,6.37543,6.37543,0,0,0,4.14747,3.56055,19.12252,19.12252,0,0,0,8.62207.42676c.24316-.03272.46582-.0625.667-.08643a15.27653,15.27653,0,0,0,5.23828-1.81885l.39062-.208a9.6921,9.6921,0,0,0,3.97559-3.2378,13.00766,13.00766,0,0,0,1.49512-3.21289.48488.48488,0,0,1,.52148-.35791.50176.50176,0,0,1,.458.436c.14062,1.08789.2998,2.22412.46191,3.37158.25879,1.84229.52735,3.74707.72168,5.5166.709,6.43067-13.62207,9.31494-13.76757,9.33887A25.24282,25.24282,0,0,1,233.43869,120.77373Zm-10.67676-4.52686c2.23145,2.43555,7.91309,4.30127,14.60352,3.20069,2.1123-.34766,13.4707-3.34278,12.93164-8.23731-.19336-1.75439-.46094-3.65185-.71875-5.4873q-.10254-.72657-.20215-1.44483a11.39525,11.39525,0,0,1-.91113,1.63672,10.64509,10.64509,0,0,1-4.333,3.55616l-.38477.206a16.76305,16.76305,0,0,1-5.5957,1.93115l-.65137.085a20.00343,20.00343,0,0,1-9.05859-.46435,7.68253,7.68253,0,0,1-4.47461-3.46143l-.01172.12744c-.23242,2.5293-.61133,4.71387-.8877,6.3086C222.91916,115.0584,222.76584,115.93975,222.76193,116.24687Zm.75-11.95605.03516.00488Z"/><polygon class="cls-6" points="241.633 75.197 240.248 78.421 238.863 81.645 235.419 79.793 231.975 77.94 236.804 76.569 241.633 75.197"/><path class="cls-6" d="M238.86349,82.14482a.49652.49652,0,0,1-.23633-.05957l-6.88964-3.70459a.50023.50023,0,0,1,.10058-.92138l9.65821-2.74268a.49941.49941,0,0,1,.5957.67822l-2.76953,6.44727a.49913.49913,0,0,1-.294.2749A.50476.50476,0,0,1,238.86349,82.14482Zm-5.56543-4.06054,5.32129,2.86181,2.13965-4.98047Z"/><polygon class="cls-6" points="192.721 112.434 194.106 109.21 195.49 105.986 198.935 107.839 202.379 109.691 197.55 111.063 192.721 112.434"/><path class="cls-6" d="M192.72091,112.93389a.4992.4992,0,0,1-.459-.69727l2.76953-6.44727a.49872.49872,0,0,1,.69531-.24316l6.88965,3.70459a.50025.50025,0,0,1-.10058.92141l-9.65821,2.74265A.502.502,0,0,1,192.72091,112.93389Zm3.01368-6.24854-2.13965,4.98047,7.46094-2.11863Z"/><polygon class="cls-6" points="202.648 81.43 199.059 84.012 195.469 86.594 194.102 83.769 192.735 80.944 197.691 81.187 202.648 81.43"/><path class="cls-6" d="M195.469,87.094a.49828.49828,0,0,1-.45019-.28222l-2.73438-5.64991a.49861.49861,0,0,1,.0332-.49365.51466.51466,0,0,1,.44141-.22363l9.91309.48584a.5.5,0,0,1,.26757.90527L195.761,86.9998A.49914.49914,0,0,1,195.469,87.094Zm-1.917-5.60937,2.1084,4.356,5.53418-3.981Z"/><polygon class="cls-6" points="231.644 104.88 235.233 102.299 238.823 99.717 240.19 102.541 241.557 105.366 236.601 105.123 231.644 104.88"/><path class="cls-6" d="M241.55685,105.866l-.02441-.00048-9.91309-.48535a.5.5,0,0,1-.26758-.90528l7.17872-5.16406a.49958.49958,0,0,1,.74218.188l2.73438,5.64941a.50012.50012,0,0,1-.4502.71777Zm-8.46-1.415,7.64258.37451L238.63205,100.47Z"/></g><g id="XYBA-2" data-name="XYBA"><path d="M365.509,191.78447c-5.42676.00049-9.9082-2.47607-10.77441-6.36914-.53223-2.39111.34668-4.92822,2.47461-7.145a16.89863,16.89863,0,0,1,8.50195-4.52c7.125-1.58838,13.80859,1.064,14.88672,5.90967.53222,2.39063-.34668,4.92773-2.47461,7.14453a16.90264,16.90264,0,0,1-8.502,4.52A18.95278,18.95278,0,0,1,365.509,191.78447Zm4.36328-17.36328a18.08206,18.08206,0,0,0-3.915.43848,15.76,15.76,0,0,0-7.92871,4.19775c-1.85547,1.93311-2.63086,4.10352-2.18457,6.11084.94238,4.23242,7.00879,6.49561,13.53125,5.04688a15.76,15.76,0,0,0,7.92774-4.19727c1.85644-1.93359,2.63183-4.104,2.18554-6.11084h0C378.73947,176.5418,374.75119,174.42119,369.87228,174.42119Z"/><path d="M326.02658,166.34648c-5.57031,0-10.24414-2.74365-11.19141-6.9956-1.1582-5.209,3.709-10.73975,10.85157-12.3291,7.13867-1.58887,13.89453,1.35449,15.05566,6.564v.00049c1.1582,5.209-3.709,10.74023-10.85156,12.3291A17.805,17.805,0,0,1,326.02658,166.34648Zm3.55664-18.57959a16.799,16.799,0,0,0-3.64063.40625c-6.50683,1.44825-10.97265,6.34717-9.95507,10.92139,1.01855,4.57373,7.1416,7.11816,13.64746,5.66943,6.50683-1.44824,10.97265-6.34716,9.95508-10.92187C338.76584,150.139,334.59494,147.76689,329.58322,147.76689Z"/><path d="M366.78146,162.47441a17.86157,17.86157,0,0,1-7.9209-1.70166c-2.73047-1.36914-4.32812-3.37207-4.498-5.64013-.34278-4.57032,5.42285-8.7417,12.85156-9.29883a18.67649,18.67649,0,0,1,9.5957,1.63867c2.73047,1.36914,4.32813,3.37207,4.49805,5.64014s-1.11035,4.48681-3.60645,6.24756a18.65466,18.65466,0,0,1-9.24511,3.05127C367.89377,162.45342,367.3342,162.47441,366.78146,162.47441Zm2.11231-15.60156q-.791,0-1.59766.06055c-6.82227.51123-12.13086,4.15283-11.834,8.11719.13964,1.86621,1.52246,3.54834,3.89257,4.73681a19.064,19.064,0,0,0,17.71094-1.32812c2.167-1.52832,3.2832-3.398,3.14258-5.26416v-.00049c-.13965-1.86621-1.52246-3.54834-3.89258-4.73682A16.74575,16.74575,0,0,0,368.89377,146.87285Z"/><path d="M325.91818,196.36748a14.57574,14.57574,0,0,1-5.38281-.98926,9.3309,9.3309,0,0,1-5.86817-6.083c-1.52636-5.53808,3.1045-11.66211,10.32325-13.65136,7.21777-1.98975,14.332.89941,15.85839,6.4375h0c1.52637,5.53808-3.10546,11.66211-10.32421,13.65136A17.37867,17.37867,0,0,1,325.91818,196.36748Zm3.67188-20.11719a16.11419,16.11419,0,0,0-4.27149.58789c-6.55957,1.80762-10.80176,7.24805-9.458,12.12793a8.12714,8.12714,0,0,0,5.13282,5.26123,14.60589,14.60589,0,0,0,9.20312.311c6.55957-1.80762,10.80274-7.248,9.459-12.12793h0C338.60666,178.60771,334.469,176.25029,329.59006,176.25029Z"/><path d="M365.54123,201.18144a18.73321,18.73321,0,0,1-7.61328-1.52929c-3.55274-1.585-5.85743-4.19434-6.49024-7.34766-.6543-3.2583.55078-6.64306,3.39258-9.53076a.5007.5007,0,0,1,.70215-.01074.58881.58881,0,0,1,.18164.46777,5.29721,5.29721,0,0,0,.06348,1.95166c.95019,4.27051,7.05078,6.56006,13.6123,5.09912,10.68652-2.76318,10.26953-9.51758,10.26465-9.58545a.49906.49906,0,0,1,.26465-.48242.50434.50434,0,0,1,.54883.0542,9.52985,9.52985,0,0,1,3.46972,5.51563c1.293,6.44238-4.94531,13.147-13.90527,14.94482A22.92206,22.92206,0,0,1,365.54123,201.18144Zm-10.876-16.73046a9.17414,9.17414,0,0,0-2.24707,7.65673c.56738,2.82715,2.66895,5.18213,5.917,6.63135a19.24081,19.24081,0,0,0,11.5,1.00879c8.41992-1.68945,14.30567-7.86572,13.12207-13.76807a8.29842,8.29842,0,0,0-2.37793-4.27246c-.335,2.22217-2.08691,7.25342-10.95605,9.54639-7.11426,1.585-13.752-1.0459-14.82227-5.854A6.203,6.203,0,0,1,354.66525,184.451Z"/><path d="M365.56955,172.92949c-7.1416,0-13.09961-3.49121-14.17383-8.81445-1.24219-6.3252,3.05176-9.18506,3.23437-9.30371l.74707-.48291.10059.8833c.43945,3.86328,6.22461,6.604,12.89649,6.1001a17.539,17.539,0,0,0,8.6914-2.85254c2.167-1.52832,3.2832-3.398,3.14258-5.26416l-.05176-.69483.97559.1543.124.11963a9.1325,9.1325,0,0,1,2.74219,4.83887,9.66689,9.66689,0,0,1-1.6543,7.34814c-2.43652,3.65918-7.03418,6.4707-12.30176,7.521A22.90888,22.90888,0,0,1,365.56955,172.92949Zm-10.99414-16.65283a7.97057,7.97057,0,0,0-2.09864,7.62353c1.17286,5.80811,8.96,9.17579,17.35059,7.501,4.98535-.99414,9.32129-3.62988,11.59863-7.05078a8.58947,8.58947,0,0,0,1.49219-6.519,7.79636,7.79636,0,0,0-1.667-3.44727,7.89168,7.89168,0,0,1-3.54981,4.97608,18.65466,18.65466,0,0,1-9.24511,3.05127C361.59494,162.92119,355.78049,160.2791,354.57541,156.27666Z"/><path d="M325.72384,175.472a18.65991,18.65991,0,0,1-7.22753-1.38086c-3.61329-1.522-5.99122-4.105-6.69629-7.27343-.70508-3.16749.35254-6.51563,2.98047-9.42627l.918-1.01807.10743,1.3667a12.85026,12.85026,0,0,0,.18164,1.35449c1.01855,4.57373,7.1416,7.11816,13.64746,5.66943,6.07422-1.35253,10.498-5.83154,10.07031-10.19775l-.05762-.58594.81836-.082.19043.14209a9.63781,9.63781,0,0,1,3.67676,5.53809c1.4375,6.46289-4.69043,13.34424-13.65918,15.33984A22.838,22.838,0,0,1,325.72384,175.472Zm-10.916-16.25488a8.99021,8.99021,0,0,0-1.85547,7.34424c.61914,2.78515,2.751,5.07324,6.001,6.44238a19.15715,19.15715,0,0,0,11.46484.76318c8.334-1.85449,14.05957-8.10449,12.7627-13.93213a8.15375,8.15375,0,0,0-2.293-4.03222c-.38086,4.53857-4.84668,8.74414-10.99707,10.11279-7.1377,1.5874-13.89551-1.35547-15.05567-6.56445v-.001C314.82541,159.30693,314.81662,159.2625,314.80783,159.21709Z"/><path d="M325.43869,205.387a18.848,18.848,0,0,1-7.66211-1.53955c-3.58984-1.60107-5.919-4.24072-6.55957-7.43311-1.21582-6.52636,3.24023-9.6123,3.43066-9.74072l.95508-.64306.00977,1.15136a6.98522,6.98522,0,0,0,.248,1.78418,8.12714,8.12714,0,0,0,5.13282,5.26123,14.60589,14.60589,0,0,0,9.20312.311l.00879-.00244a13.63375,13.63375,0,0,0,9.94531-9.30762l.24414-1.07031.79.76318a9.33372,9.33372,0,0,1,2.7666,4.92481c.64063,3.19238-.49023,6.52636-3.18359,9.38818a20.36146,20.36146,0,0,1-10.81543,5.69775A23.00109,23.00109,0,0,1,325.43869,205.387Zm-10.95508-16.92822a8.515,8.515,0,0,0-2.05078,7.7207c.55762,2.7793,2.63574,5.104,5.84766,6.53662a20.37366,20.37366,0,0,0,21.585-4.331c2.41113-2.56153,3.43066-5.50733,2.87109-8.29492a7.875,7.875,0,0,0-1.71191-3.52491,14.82781,14.82781,0,0,1-10.50391,9.16846,15.83712,15.83712,0,0,1-9.98535-.35547,9.3309,9.3309,0,0,1-5.86817-6.083A7.90926,7.90926,0,0,1,314.48361,188.45879Z"/><path d="M365.58322,201.24541c-6.8125.00049-12.18555-2.88672-12.74609-7.15283l-.01075-.083.01368-.08252c.57421-3.52734,1.77636-10.51562,1.77636-10.51562l1.127.14746a5.21528,5.21528,0,0,0,.10058,1.60937c.94238,4.23242,7.00879,6.49561,13.53125,5.04688,5.958-1.32618,10.35742-5.34522,10.2334-9.34913l1.12207-.145.25879,1.126,1.09766,8.78565c.55664,4.83349-5.55469,9.51709-13.62207,10.44531A25.15764,25.15764,0,0,1,365.58322,201.24541Zm-11.60742-7.2207c.61914,4.11425,7.03711,6.76464,14.3584,5.92431,7.44531-.85693,13.10839-4.97558,12.625-9.18115l-.8545-6.856c-1.501,3.36573-5.4873,6.30078-10.48339,7.4126-6.44043,1.43457-12.51758-.59277-14.42383-4.57129C354.80881,189.03105,354.29806,192.04473,353.9758,194.02471Z"/><path d="M365.49826,172.67754c-6.77735,0-12.12012-2.86279-12.67676-7.09424a.51917.51917,0,0,1,.00293-.14551c.56641-3.47949,1.5752-10.61767,1.585-10.68945a.49974.49974,0,0,1,.98731-.01563c.02539.14356.04394.2959.0625.45655a3.9392,3.9392,0,0,0,.41406,1.53613c2.251,4.145,8.70605,4.61475,11.37695,4.624,3.12891.02588,8.80469-.58007,11.79688-4.65429a4.82873,4.82873,0,0,0,1.20117-3.07227.49925.49925,0,0,1,.4834-.4917.45964.45964,0,0,1,.51465.45947l.69238,8.57227c.5498,4.77393-5.53516,9.42334-13.56445,10.34717A25.19405,25.19405,0,0,1,365.49826,172.67754Zm-11.67481-7.15332c.61524,4.15576,7.07129,6.83691,14.43555,5.99267,7.48242-.86132,13.17285-5.01367,12.68457-9.25683L380.469,156.388a7.55806,7.55806,0,0,1-.62695.91357c-3.24317,4.41748-9.32422,5.02686-12.5957,5.04785-2.82618-.01025-9.6377-.52441-12.19239-5.04C354.7092,159.70049,354.18185,163.31133,353.82345,165.52422Z"/><path d="M325.24826,205.17754c-6.77735,0-12.12012-2.86279-12.67676-7.09424a.545.545,0,0,1-.001-.11963c.24805-2.25293.58985-4.51074,1.01465-6.71191.27149-1.40235.58008-2.80811.918-4.17823a.48937.48937,0,0,1,.543-.37695.49936.49936,0,0,1,.44238.49024,7.05908,7.05908,0,0,0,.36914,2.17919,8.68,8.68,0,0,0,4.40528,4.67627,11.94954,11.94954,0,0,0,6.23535,1.19239,15.76109,15.76109,0,0,0,4.4209-.72657,16.14842,16.14842,0,0,0,6.91308-4.57128,9.87068,9.87068,0,0,0,1.54688-2.51514,8.9568,8.9568,0,0,0,.55273-2.01221.47839.47839,0,0,1,.51074-.42431.49911.49911,0,0,1,.48145.458l.76465,9.21827c.5498,4.77539-5.53516,9.4248-13.56445,10.34863A25.19405,25.19405,0,0,1,325.24826,205.17754Zm-11.67676-7.166c.60352,4.16309,7.05762,6.85254,14.4375,6.00537,7.48242-.86132,13.17285-5.01367,12.68457-9.25683l-.54687-6.59766a11.29241,11.29241,0,0,1-1.54493,2.41211,17.2399,17.2399,0,0,1-7.37793,4.88672,16.81465,16.81465,0,0,1-4.70507.77344,12.99863,12.99863,0,0,1-6.72266-1.30762,9.63,9.63,0,0,1-4.876-5.2124q-.186.86133-.35254,1.72656C314.15158,193.596,313.81662,195.806,313.5715,198.01152Z"/><path d="M325.90451,175.33379c-6.77735,0-12.12012-2.86279-12.67676-7.09424a.51917.51917,0,0,1,.00293-.14551c.56641-3.47949,1.5752-10.61767,1.585-10.68945a.49036.49036,0,0,1,.53809-.42822.5.5,0,0,1,.457.51416,6.60478,6.60478,0,0,0,.50683,2.82959c.97266,2.27832,3.25879,3.85107,6.79493,4.67431a13.59852,13.59852,0,0,0,6.415-.1792c1.85351-.42334,6.19433-1.41406,8.78515-5.30517a11.22408,11.22408,0,0,0,1.72363-4.45947.49943.49943,0,0,1,.49317-.41993h.00683a.50009.50009,0,0,1,.48829.43311l1.31738,9.72851c.55273,4.80079-5.53223,9.4502-13.56152,10.374A25.19405,25.19405,0,0,1,325.90451,175.33379Zm-11.67481-7.15332c.61524,4.15625,7.0625,6.84033,14.43555,5.99267,7.48242-.86132,13.17285-5.01367,12.68457-9.25683l-.98047-7.24072a11.832,11.832,0,0,1-1.22461,2.38818c-2.81054,4.22363-7.4248,5.27637-9.39453,5.72607a14.46715,14.46715,0,0,1-6.86426.17823c-3.86425-.89942-6.38281-2.66748-7.48828-5.25538-.01172-.02685-.02246-.05371-.03418-.08056C315.02365,162.98906,314.55685,166.16484,314.2297,168.18047Z"/><path class="cls-6" d="M371.62377,178.759c-.332-.2171-.66461-.42584-.99713-.63452-1.76429.62457-3.52857,1.24914-5.27411,1.97815-1.73145.72314-3.44446,1.549-5.15747,2.37494.21521.11688.43042.23376.64563.3526s.43029.23956.64556.36255q.23246.13284.465.26788c.39655-.20789.79309-.41571,1.191-.6181.39777-.20227.79694-.39905,1.19605-.59589.46838.28644.93676.57282,1.40417.87628.46662.303.93231.62293,1.398.94293-.213.31745-.42584.63489-.63794.95716s-.42315.649-.63428.976c.29328.21124.58655.42249.87934.63812.2926.21558.58465.43561.87677.65558.82519-1.40765,1.65039-2.81531,2.48633-4.13092.82934-1.30511,1.66919-2.51959,2.50909-3.73413C372.288,179.202,371.9561,178.97639,371.62377,178.759Zm-1.56214,1.2674c-.21362.28314-.4273.56628-.64013.854q-.31906.43131-.63593.8761c-.22278.31256-.44488.62988-.667.9472-.1709-.11639-.34186-.23272-.51288-.34735s-.34228-.22754-.51355-.33838c-.32526-.21051-.65082-.41375-.97638-.617.424-.18945.84809-.37891,1.27295-.56323s.85034-.36347,1.2746-.53925c.59326-.24579,1.184-.48492,1.77466-.72406Z"/><path class="cls-6" d="M367.01812,159.37757l-1.94629-1.19531,1.49707-3.63184-5.23633,1.334-1.8252-1.12207,7.25684-1.74707,1.81445-4.71192,1.87988,1.15625-1.46972,3.42578,4.90137-1.31738,1.83593,1.12793L368.7896,154.4Z"/><path class="cls-6" d="M328.88823,154.9557l5.3418-1.67188,1.83691,1.12891-8.10351,2.37011-3.46387,2.55469-1.69336-1.041,3.40332-2.50977,2.83008-5.69238,1.84668,1.13476Z"/><path class="cls-6" d="M328.74858,179.81312l2.57813,1.56445a4.66993,4.66993,0,0,1,2.08594,1.9707q.32373.90235-.708,1.81836a3.41438,3.41438,0,0,1-1.499.80762,2.38022,2.38022,0,0,1-1.46583-.082l-.05371.04785a1.41614,1.41614,0,0,1,.51563,1.23828,2.37,2.37,0,0,1-.8594,1.28418,3.78111,3.78111,0,0,1-2.4863.9834,5.15064,5.15064,0,0,1-2.82325-.81836l-3.09961-1.87988Zm-2.65332,4.97851-2.03711,1.80762,1.14454.69434a2.43824,2.43824,0,0,0,1.333.417,1.81884,1.81884,0,0,0,1.14746-.50195q.97266-.86427-.5-1.75684Zm1.31543-1.167,1.01953.61914a2.57712,2.57712,0,0,0,1.24219.44141,1.46133,1.46133,0,0,0,1.00977-.417q.4497-.39845.2959-.78321a2.1275,2.1275,0,0,0-.90723-.84179l-.92285-.55957Z"/></g><g id="Player_1" data-name="Player 1"><path class="cls-7" d="M331.61421,108.3264l-10.52565-6.07162,23.86081-12.5163L348.972,87.741l4.45737-2.15055q-4.79619-.37392-6.49344-.6082l-9.53026-1.3038.17052-5.67955,26.62055,3.7068,8.65215,4.99091Z"/></g><g id="VEX_Logo" data-name="VEX Logo"><path class="cls-6" d="M325.40411,122.26318a.22436.22436,0,0,0-.1015-.025s-5.40538-.20344-5.6657-.21317c-.01474-.14748-.32282-3.22174-.32282-3.22174a.077.077,0,0,0-.0429-.05758l-2.63711-1.51248a.31224.31224,0,0,0-.23617-.00495.33772.33772,0,0,0-.0532.02362c-.05308.02972-.0837.06987-.07932.10726,0,0,.50607,4.23327.54273,4.5406-.54353-.02626-8.64411-.41615-8.64411-.41615a.37327.37327,0,0,0-.19106.04372.21074.21074,0,0,0-.04187.02984c-.0528.04747-.05054.10179.00527.13381l2.695,1.54568a.21852.21852,0,0,0,.10088.02489s5.99975.23318,6.26126.24332c.01361.14875.32575,3.53432.32575,3.53432a.07662.07662,0,0,0,.043.05792l2.65159,1.52078a.31045.31045,0,0,0,.23578.00473.30735.30735,0,0,0,.05339-.02351c.05308-.02972.0837-.06987.079-.10748,0,0-.5638-4.57864-.60191-4.88707.54059.02513,8.01944.37015,8.01944.37015a.37093.37093,0,0,0,.19063-.0437.23379.23379,0,0,0,.04207-.02973c.05224-.0478.05-.10212-.00529-.13381Z"/><path class="cls-6" d="M304.67006,110.37142a.267.267,0,0,0-.15736-.02265s-9.70052,1.16623-10.18491,1.22445c.11271-.27358,2.35254-5.715,2.35254-5.715a.06918.06918,0,0,0-.0374-.09069l-2.21444-1.27006a.29663.29663,0,0,0-.20758-.01329.22457.22457,0,0,0-.15635.10652l-2.89441,7.41716a.06944.06944,0,0,0,.0384.08907l2.15619,1.23666a.26283.26283,0,0,0,.15538.0229l13.1942-1.50958a.30163.30163,0,0,0,.19079-.087.07149.07149,0,0,0-.02041-.11831Z"/><path class="cls-6" d="M308.17145,112.378a5.8266,5.8266,0,0,1,1.85387-1.50021c1.82387-1.02134,4.06418-1.47276,4.92681-.978l5.4571,3.12985c.29073.16675.01888.58975-.60116.937a2.18257,2.18257,0,0,1-1.66035.32946l-5.4571-3.12986a2.115,2.115,0,0,0-1.60685.31866c-.58343.32672-.94331.76131-.63623.93744l5.4571,3.12985c.29073.16674.02689.58526-.58394.92732l-.00048.00027a2.14689,2.14689,0,0,1-1.64339.32l-5.4571-3.12986a2.2336,2.2336,0,0,0-1.66139.3492c-.58391.327-.872.74012-.58145.90676l5.4571,3.12986c.29073.16674.01889.58974-.6009.93681a2.1828,2.1828,0,0,1-1.6606.32959l-5.4571-3.12985c-.86263-.49475-.03925-1.759,1.78449-2.78023a10.16827,10.16827,0,0,1,2.66915-1.03262Z"/></g></g></g></g></svg>