<?xml version="1.0" encoding="utf-8"?>
<!-- Generator: Adobe Illustrator 23.0.4, SVG Export Plug-In . SVG Version: 6.00 Build 0)  -->
<svg version="1.1" id="Layer_1" xmlns="http://www.w3.org/2000/svg" xmlns:xlink="http://www.w3.org/1999/xlink" x="0px" y="0px"
	 viewBox="0 0 450 275" style="enable-background:new 0 0 450 275;" xml:space="preserve">
<style type="text/css">
	.st0{opacity:0.2;fill:#9BA2A8;enable-background:new    ;}
	.st1{fill:#808080;}
</style>
<g id="CONTROL-BG" transform="translate(92.038 10)">
	<path id="controller-bg" class="st0" d="M234.3,255c-7.9,0-15.5-3.2-21.1-8.8l-0.1-0.1c-7-7.7-9.7-16-12.2-23.4
		c-1.3-4.3-3-8.5-5.1-12.5l-0.1-0.2c-4.5-8.6-13.2-14.2-22.8-14.9l-0.4,0c-12.9-1.4-25.9-2.1-38.9-2.1c-11.6,0-23.4,0.6-34,1.6v0.5
		l-5.4,0c-9.6,0.8-18.1,6.4-22.6,14.9l-0.1,0.2c-2.1,4-3.9,8.2-5.1,12.5c-2.5,7.3-5.2,15.6-12.2,23.4l-0.1,0.1
		c-11.6,11.7-30.5,11.8-42.2,0.2c-0.8-0.8-1.6-1.7-2.3-2.6l-0.1-0.2l-0.4-0.7c-7-10.9-9.7-16.7-7.6-52.8c2.2-36.7,5.5-58,18.4-79.7
		l0.1-0.2c16.2-24.8,63-42.1,113.9-42.1s97.7,17.3,113.9,42.1l0.1,0.2c12.9,21.7,16.2,43,18.4,79.7c2.1,36.1-0.6,41.9-7.6,52.8
		l-0.4,0.7l-0.1,0.2C252.1,250.9,243.4,255.1,234.3,255z M133.5,186.3c18.1,0,32.3,0.4,44.7,1.4c11.1,0.9,19.3,2,27.2,3.2
		c0.3,0.1,0.6,0.1,0.9,0.1c0.1,0,0.1,0,0.2,0h0.3c1.6,0,3.2-0.5,4.5-1.3l0,0c4.3-2.7,8.3-5.7,12.1-9.1c3.4-3,6.4-6.3,9.1-9.9
		c2.7-3.6,4.7-7.8,5.7-12.2c0-0.4,0-0.8,0-1.2c0-1.9-1.6-3.5-3.5-3.5h-0.2c-0.1,0-0.1,0-0.2,0c-0.3,0-0.6,0-0.9,0.1
		c-2.6,0.7-5.3,1.1-8,1h-0.2c-3,0-5.9-0.5-8.7-1.4c-2.8-0.9-5.4-2.2-7.7-3.9c-2.3-1.7-4.4-3.7-6.1-6.1c-1.7-2.4-3-5.1-3.9-7.9
		c-1.1-3.6-1.5-7.3-1.2-11c0.3-3.4,1.2-6.8,2.7-9.9c2.9-6.1,7.9-10.9,14.1-13.5c2.1-1,3.5-3.1,3.4-5.4c0.1-1.9-0.9-3.7-2.4-4.8
		c-5.7-2.4-11.6-4.5-17.5-6.3c-6.5-1.9-13.1-3.5-19.8-4.7c-29.4-5.3-59.5-5.3-88.9,0c-6.7,1.2-13.3,2.8-19.8,4.7
		c-6,1.7-11.8,3.8-17.5,6.3c-1.6,1.1-2.5,2.9-2.4,4.8c-0.1,2.3,1.3,4.5,3.4,5.4c6.2,2.6,11.2,7.5,14.1,13.5c1.5,3.1,2.4,6.5,2.7,9.9
		c0.3,3.7-0.1,7.4-1.2,11c-0.8,2.8-2.1,5.5-3.9,7.9c-1.7,2.3-3.8,4.4-6.1,6.1c-2.4,1.7-5,3-7.7,3.9c-2.8,0.9-5.8,1.4-8.7,1.4h-0.2
		c-2.7,0-5.4-0.3-8.1-1c-0.3-0.1-0.6-0.1-0.9-0.1c-0.1,0-0.1,0-0.2,0h-0.2c-1.9,0-3.5,1.6-3.5,3.5c0,0.4,0,0.8,0,1.2
		c1,4.4,3,8.6,5.7,12.2c2.7,3.6,5.7,6.9,9.1,9.9c3.8,3.4,7.8,6.4,12.1,9.1l0,0c1.3,0.9,2.9,1.3,4.5,1.3h0.3c0,0,0.1,0,0.1,0
		c0.3,0,0.6,0,0.9-0.1c7.9-1.1,16.1-2.3,27.2-3.2C101.2,186.7,115.4,186.3,133.5,186.3L133.5,186.3z M139.7,171.2h-12.1
		c-2.2-0.1-3.9-1.9-4-4v-12.1c0.1-2.2,1.9-3.9,4-4h12.2c2.2,0,3.9,1.7,4,3.9v12.2C143.6,169.4,141.9,171.1,139.7,171.2L139.7,171.2z
		 M160.8,133.5h-54.2h0c-2.3-0.1-4-2-4-4.2V95.2c-0.1-2.3,1.7-4.2,4-4.3h54.2c2.3,0.1,4,2,4,4.2v33.6c0,1.2-0.4,2.5-1.2,3.4
		C162.9,133,161.8,133.5,160.8,133.5L160.8,133.5z M258.6,101.5L258.6,101.5c-4.7-6.5-11.4-12.5-19.8-18c-9.1-5.8-18.8-10.4-29-13.9
		c-11.7-4-23.7-7-35.9-9c-26.3-4.2-53.1-4.2-79.5-0.2c-11.9,1.8-23.6,4.6-35,8.4c-10,3.3-19.7,7.7-28.7,13.1
		c-7.7,4.5-14.5,10.2-20.3,17c0.6-11.4,2.1-22.7,4.5-33.9c2.2-11,5.9-21.7,11-31.8C37.2,11.5,54.1,0.5,76.1,0.5
		c9.6,0,15.7,3.6,20.8,7c2.1,1.4,4.7,2.2,8.8,2.6c4.4,0.4,10.7,0.5,19.2,0.5h4.3h1.1h4.1h4.1h1.1h4.3c8.5,0,14.9,0,19.2-0.5
		c4.1-0.4,6.6-1.1,8.8-2.6c5-3.4,11.2-7,20.8-7c6.1,0,12.1,0.8,17.9,2.5c5.1,1.6,10,3.9,14.4,7c4.2,3,8,6.6,11.3,10.7
		c3.3,4.2,6.2,8.8,8.5,13.6c4.4,9,7.9,20,10.2,32.6C257,78.4,258.2,89.9,258.6,101.5L258.6,101.5z"/>
	<path id="Union_295" class="st1" d="M193.4,108.7l4.2,3l-4.2,3V108.7z M185.4,111.7l4.2-3v6L185.4,111.7z M76.4,108.7l4.2,3l-4.2,3
		V108.7z M68.4,111.7l4.2-3v6L68.4,111.7z M177.6,114.6v-4.4l-1.3,0.4v-0.9l2.4-0.8h0.1v5.7L177.6,114.6z M86.2,114.6v-1.2h-2.3
		l-0.1-0.7l2.4-3.7h1.1v3.5H88v0.9h-0.6v1.2H86.2z M86.1,110.6l-1.2,1.9h1.3v-2L86.1,110.6z M196.5,97.6h6l-3,4.2L196.5,97.6z
		 M66.5,97.6h6l-3,4.2L66.5,97.6z M76.4,98.3c-0.4-0.3-0.6-0.7-0.5-1.2H77c0,0.2,0.1,0.4,0.2,0.5c0.4,0.3,0.9,0.3,1.2,0
		c0.2-0.1,0.2-0.4,0.2-0.6c0-0.6-0.3-0.9-0.9-0.9h-0.6v-0.9h0.6c0.2,0,0.5-0.1,0.6-0.2c0.1-0.2,0.2-0.4,0.2-0.6
		c0-0.2-0.1-0.4-0.2-0.5c-0.2-0.1-0.4-0.2-0.6-0.2c-0.2,0-0.4,0.1-0.5,0.2c-0.1,0.1-0.2,0.3-0.2,0.5h-1.1c0-0.3,0.1-0.6,0.2-0.8
		c0.2-0.2,0.4-0.4,0.7-0.6c0.3-0.1,0.6-0.2,0.9-0.2c0.5,0,1,0.1,1.4,0.4c0.3,0.3,0.5,0.7,0.5,1.2c0,0.3-0.1,0.5-0.2,0.7
		c-0.2,0.2-0.4,0.4-0.6,0.5c0.3,0.1,0.5,0.3,0.7,0.5c0.2,0.2,0.2,0.5,0.2,0.8c0,0.5-0.2,0.9-0.6,1.2c-0.4,0.3-0.9,0.5-1.5,0.5
		C77.3,98.7,76.8,98.6,76.4,98.3L76.4,98.3z M188,98.6v-0.8l1.8-2c0.2-0.2,0.4-0.5,0.6-0.7c0.1-0.2,0.2-0.4,0.2-0.6
		c0-0.2-0.1-0.4-0.2-0.6c-0.1-0.1-0.3-0.2-0.5-0.2c-0.2,0-0.5,0.1-0.6,0.3c-0.2,0.2-0.2,0.4-0.2,0.7h-1.1c0-0.3,0.1-0.7,0.2-0.9
		c0.2-0.3,0.4-0.5,0.7-0.7c0.3-0.2,0.7-0.3,1-0.2c0.5,0,1,0.1,1.4,0.4c0.3,0.3,0.5,0.7,0.5,1.2c0,0.3-0.1,0.6-0.2,0.9
		c-0.2,0.4-0.5,0.7-0.7,1l-1.3,1.4h2.4v0.9L188,98.6z M196.5,93.8l3-4.2l3,4.2H196.5z M66.5,93.8l3-4.2l3,4.2H66.5z M155.4,48.7
		v-4.7c-0.5,0.4-1,0.7-1.6,0.9v-1.1c0.4-0.1,0.7-0.3,1.1-0.6c0.4-0.3,0.6-0.6,0.8-1h1v6.5L155.4,48.7z M151.5,48.7l-0.9-1.4
		c-0.2-0.3-0.4-0.6-0.7-0.9c-0.1-0.1-0.2-0.2-0.4-0.3c-0.2-0.1-0.4-0.1-0.7-0.1h-0.3v2.7h-1.3v-6.4h2.7c0.5,0,1,0,1.5,0.2
		c0.3,0.1,0.6,0.3,0.8,0.6c0.2,0.3,0.3,0.7,0.3,1c0,0.4-0.1,0.9-0.4,1.2c-0.3,0.3-0.8,0.6-1.3,0.6c0.3,0.1,0.5,0.3,0.7,0.5
		c0.3,0.3,0.5,0.7,0.7,1l0.8,1.3L151.5,48.7z M148.6,45h1c0.4,0,0.8,0,1.2-0.1c0.1,0,0.3-0.1,0.4-0.3c0.1-0.1,0.1-0.3,0.1-0.5
		c0-0.2-0.1-0.4-0.2-0.5c-0.1-0.1-0.3-0.2-0.5-0.3c-0.1,0-0.4,0-0.9,0h-1L148.6,45z M109.9,48.7v-4.7c-0.5,0.4-1,0.7-1.6,0.9v-1.1
		c0.4-0.1,0.7-0.3,1.1-0.6c0.4-0.3,0.6-0.6,0.8-1h1v6.5L109.9,48.7z M102.8,48.7v-6.4h1.3v5.3h3.2v1.1L102.8,48.7z M153.3,28.7
		c0-0.4,0.2-0.9,0.4-1.2c0.4-0.6,0.9-1.1,1.4-1.5c0.4-0.3,0.7-0.7,1-1.1c0.2-0.2,0.2-0.5,0.3-0.8c0-0.2-0.1-0.5-0.2-0.6
		c-0.4-0.3-0.9-0.3-1.2,0c-0.2,0.2-0.3,0.5-0.3,0.8l-1.2-0.1c0-0.6,0.3-1.1,0.7-1.5c0.4-0.3,0.9-0.5,1.4-0.4c0.5,0,1.1,0.2,1.5,0.5
		c0.4,0.3,0.6,0.8,0.5,1.3c0,0.3-0.1,0.6-0.2,0.8c-0.1,0.3-0.3,0.6-0.5,0.8c-0.2,0.3-0.5,0.6-0.8,0.8c-0.4,0.4-0.6,0.6-0.7,0.7
		c-0.1,0.1-0.2,0.2-0.3,0.3h2.5v1.1L153.3,28.7z M151.5,28.7l-0.9-1.4c-0.2-0.3-0.4-0.6-0.7-0.9c-0.1-0.1-0.2-0.2-0.4-0.3
		c-0.2-0.1-0.4-0.1-0.7-0.1h-0.3v2.7h-1.3v-6.4h2.7c0.5,0,1,0,1.5,0.2c0.3,0.1,0.6,0.3,0.8,0.6c0.2,0.3,0.3,0.7,0.3,1
		c0,0.4-0.1,0.9-0.4,1.2c-0.3,0.3-0.8,0.6-1.3,0.6c0.3,0.1,0.5,0.3,0.7,0.5c0.3,0.3,0.5,0.7,0.7,1l0.8,1.3L151.5,28.7z M148.6,25h1
		c0.4,0,0.8,0,1.2-0.1c0.1,0,0.3-0.1,0.4-0.3c0.1-0.1,0.1-0.3,0.1-0.5c0-0.2-0.1-0.4-0.2-0.5c-0.1-0.1-0.3-0.2-0.5-0.3
		c-0.1,0-0.4,0-0.9,0h-1L148.6,25z M107.8,28.7c0-0.4,0.2-0.9,0.4-1.2c0.4-0.6,0.9-1.1,1.4-1.5c0.4-0.3,0.7-0.7,1-1.1
		c0.2-0.2,0.2-0.5,0.3-0.8c0-0.2-0.1-0.5-0.2-0.6c-0.4-0.3-0.9-0.3-1.2,0c-0.2,0.2-0.3,0.5-0.3,0.8l-1.2-0.1c0-0.6,0.3-1.1,0.7-1.5
		c0.4-0.3,0.9-0.5,1.4-0.4c0.5,0,1.1,0.2,1.5,0.5c0.4,0.3,0.6,0.8,0.5,1.3c0,0.3-0.1,0.6-0.2,0.8c-0.1,0.3-0.3,0.6-0.5,0.8
		c-0.2,0.3-0.5,0.6-0.8,0.8c-0.4,0.4-0.6,0.6-0.7,0.7c-0.1,0.1-0.2,0.2-0.3,0.3h2.5v1.1L107.8,28.7z M102.8,28.7v-6.4h1.3v5.3h3.2
		v1.1L102.8,28.7z"/>
</g>
</svg>
