<svg xmlns="http://www.w3.org/2000/svg" viewBox="0 0 242.94665 226.66374"><defs><style>.cls-1{fill:#dededf;opacity:0.9;}.cls-2{fill:#666;}.cls-3{fill:#d7282f;}.cls-4{fill:#333;}.cls-5{fill:#e6e7e8;}.cls-6{fill:#333132;}.cls-7{fill:none;stroke:#000;stroke-linecap:round;stroke-linejoin:round;}</style></defs><title>Shaft Encoder</title><g id="Layer_2" data-name="Layer 2"><g id="EDR"><g id="Shaft_Encoder" data-name="Shaft Encoder"><g id="Shadows"><path id="Shadow_Unselected_Height" data-name="Shadow Unselected Height" class="cls-1" d="M12.51639,129.13833l98.691-56.79028a15.06966,15.06966,0,0,1,15.0577-.00819l111.90406,64.45823a8.873,8.873,0,0,1,.0137,15.36943l-92.75,53.48425a27.37685,27.37685,0,0,1-27.36744.02707L12.52155,144.51442A8.873,8.873,0,0,1,12.51639,129.13833Z"/><path id="Shadow_Selected_Height" data-name="Shadow Selected Height" class="cls-1" d="M12.84972,146.47167l98.691-56.79029a15.06971,15.06971,0,0,1,15.0577-.00819l111.90407,64.45824a8.873,8.873,0,0,1,.01369,15.36942l-92.75,53.48425a27.37681,27.37681,0,0,1-27.36743.02708L12.85489,161.84776A8.873,8.873,0,0,1,12.84972,146.47167Z"/></g><g id="Color"><path id="Gray_Body" data-name="Gray Body" class="cls-2" d="M18.922,71.75059s-7.72291,4.2625-11.1375,7.19584a12.56451,12.56451,0,0,0-4.125,8.1125c-.06875,1.03125-.64166,10.22083-.64166,10.22083S2.2245,104.079,10.122,108.78393c1.07709.64166,62.60834,36.1625,62.60834,36.1625l46.75,26.99583s10.94225,6.40789,23.83333,5.225c12.2375-1.12292,17.89792-5.52292,18.86042-6.02708l68.40625-39.39375s4.46875-2.15417,6.37083-5.6375a13.208,13.208,0,0,0,1.87917-7.19584c-.18334-4.07916-1.1-25.89583-1.1-25.89583l-.825-22s.18333-5.84375-7.51667-10.81667l-44.55-25.7125,7.47989-4.25223s1.14584-.91667-.06875-3.07084l-.22916-.64166s1.48958-.55,1.55833-1.65a5.47688,5.47688,0,0,0-.87083-2.56667s1.85625-.48125,1.55833-2.2a3.71667,3.71667,0,0,0-1.65-2.6125c-.22917-.11458-.61875-.55-2.475.50417s-17.03614,9.75223-17.03614,9.75223L140.88453,9.14226a3.29781,3.29781,0,0,0-1.60416-.275s.22916-.43542-1.12292-1.21458S131.122,3.59643,131.122,3.59643a6.08928,6.08928,0,0,0-5.86666.32083c-3.18542,1.85625-46.2,26.85833-46.2,26.85833L23.2762,62.81309A11.76016,11.76016,0,0,0,20.022,65.65476c-.80208,1.16875-.9625,4.2625-.9625,4.2625Z"/><path id="Red_Top" data-name="Red Top" class="cls-3" d="M237.73037,93.01726l-.825-22s.18333-5.84375-7.51667-10.81667l-44.55-25.7125-11.73333-6.7375L140.88453,9.14226a3.29781,3.29781,0,0,0-1.60416-.275s.22916-.43542-1.12292-1.21458S131.122,3.59643,131.122,3.59643a6.08928,6.08928,0,0,0-5.86666.32083c-3.18542,1.85625-46.2,26.85833-46.2,26.85833L23.2762,62.81309A11.76016,11.76016,0,0,0,20.022,65.65476c-.80208,1.16875-.9625,4.2625-.9625,4.2625l-.1375,1.83333-.825,13.72709s-.825,14.025-.89375,15.05625c0,0,0,.18906.79063.6875s2.40625,1.375,2.40625,1.375l.51562-12.44375s-.08562-1.42919,1.1-.89375c.53282.24062,4.33125,2.54375,4.33125,2.54375l92.62917,53.46458a40.21757,40.21757,0,0,0,18.343,5.844c10.92235.76353,17.86655-2.71038,18.53176-2.97647,1.16471-.46588,23.57883-13.2,23.57883-13.2l52.388-30.27588s4.23958-2.10834,5.88958-8.68542Z"/><ellipse id="Top_Gray" data-name="Top Gray" class="cls-2" cx="141.58063" cy="73.42924" rx="10.16641" ry="5.81866"/><path id="Hole" class="cls-4" d="M138.12159,78.9254l-3.64078-2.2,7.07451-4.06353,7.1349,4.11529-3.84784,2.2S140.29571,79.63285,138.12159,78.9254Z"/><path id="White_Wire" data-name="White Wire" class="cls-5" d="M191.87172,26.70669a3.68849,3.68849,0,0,1,.92812,2.475s.06875.825-1.61562,1.70156l-6.34552,3.60484L181.447,32.54018Z"/><path id="Red_Wire" data-name="Red Wire" class="cls-3" d="M192.66234,22.427a3.68848,3.68848,0,0,1,.92813,2.475s.06875.825-1.61563,1.70157l-10.36739,5.92515-3.39167-1.94792Z"/><path id="Black_Wire" data-name="Black Wire" class="cls-6" d="M191.73422,17.21919s2.44062.92813,2.45781,3.17969c0,0,.01719,1.15156-1.66719,2.02812l-14.38926,8.31422-5.0073-2.97917Z"/><path id="White_Wire-2" data-name="White Wire" class="cls-5" d="M206.24672,34.45669a3.68849,3.68849,0,0,1,.92812,2.475s.06875.825-1.61562,1.70156l-6.34552,3.60484L195.822,40.29018Z"/><path id="Red_Wire-2" data-name="Red Wire" class="cls-3" d="M207.03734,30.177a3.68848,3.68848,0,0,1,.92813,2.475s.06875.825-1.61563,1.70157l-10.36739,5.92515-3.39167-1.94792Z"/><path id="Black_Wire-2" data-name="Black Wire" class="cls-6" d="M206.10922,24.96919s2.44062.92813,2.45781,3.17969c0,0,.01719,1.15156-1.66719,2.02812l-14.38926,8.31422-5.0073-2.97917Z"/></g><g id="Stroke"><g id="Outer_Line" data-name="Outer Line"><path d="M128.52455,3a5.65591,5.65591,0,0,1,2.59748.59643s5.68335,3.27708,7.03542,4.05627,1.12292,1.21458,1.12292,1.21458a2.59,2.59,0,0,1,.27839-.01472,3.37768,3.37768,0,0,1,1.32577.28972l32.22084,18.60831s15.17989-8.698,17.03616-9.75223a4.13193,4.13193,0,0,1,1.87943-.69074,1.04539,1.04539,0,0,1,.59557.18658,3.71671,3.71671,0,0,1,1.65,2.6125c.29788,1.71873-1.55835,2.2-1.55835,2.2a5.477,5.477,0,0,1,.87085,2.56666c-.06877,1.1-1.55835,1.65-1.55835,1.65l.22915.64169c1.21458,2.15415.06878,3.07081.06878,3.07081l-7.47989,4.25223,2.37769,1.37234s15.51677-8.95353,17.373-10.00769a4.13218,4.13218,0,0,1,1.87948-.69077,1.04508,1.04508,0,0,1,.59552.18658,3.71653,3.71653,0,0,1,1.65,2.6125c.29792,1.71877-1.55831,2.2-1.55831,2.2a5.47681,5.47681,0,0,1,.87081,2.56669c-.06873,1.1-1.55831,1.65-1.55831,1.65l.22916.64166c1.21457,2.15415.06877,3.07084.06877,3.07084l-7.88985,4.5,30.512,17.61031c7.7,4.97292,7.51665,10.81669,7.51665,10.81669l.825,22s.91666,21.81666,1.1,25.89584a13.20781,13.20781,0,0,1-1.87915,7.19581c-1.90212,3.48335-6.37085,5.63751-6.37085,5.63751L162.1741,171.14016c-.9625.50419-6.62288,4.90419-18.86042,6.02711-1.08973.1-2.16426.14571-3.22071.14571a45.19425,45.19425,0,0,1-20.6126-5.37072l-46.75-26.99584S11.1991,109.42558,10.122,108.78392C2.22449,104.079,3.01787,97.27977,3.01787,97.27977s.57292-9.18958.64166-10.22084a12.56469,12.56469,0,0,1,4.125-8.11251c3.41457-2.93334,11.1375-7.19584,11.1375-7.19584l.1375-1.83331s.16043-3.09377.96249-4.2625a11.76,11.76,0,0,1,3.2542-2.84169l55.77916-32.0375S122.07,5.7735,125.25537,3.91727A6.42554,6.42554,0,0,1,128.52455,3m.00013-3h0a9.39476,9.39476,0,0,0-4.77973,1.32527c-3.18519,1.85608-46.19712,26.85662-46.19712,26.85662L21.78206,60.21165a14.58557,14.58557,0,0,0-4.23357,3.74562c-1.14386,1.66673-1.41786,4.55937-1.48294,5.76706l-.01524.20332A79.52718,79.52718,0,0,0,5.82964,76.67081,15.63346,15.63346,0,0,0,.66619,86.85931c-.06653.99777-.60428,9.6209-.64058,10.20291-.09336,1.14489-.37783,8.97373,8.561,14.299,1.08234.64481,60.13077,34.73254,62.64388,36.18334l46.74969,26.99566A47.98745,47.98745,0,0,0,140.093,180.313c1.17477,0,2.35062-.05322,3.49488-.15823,11.594-1.06388,17.68723-4.91069,19.68955-6.17476.13657-.08624.24261-.15489.32068-.19962.03539-.01854.03855-.0205.07316-.04046L231.99263,134.395c.89575-.44651,5.33129-2.80549,7.53678-6.74916a16.1173,16.1173,0,0,0,2.29793-8.86744c-.181-4.02819-1.09043-25.669-1.09962-25.88707l-.82365-21.9649c-.02383-1.21381-.54678-7.85907-8.88777-13.246q-.063-.04066-.128-.07819L204.90489,42.60568l3.34794-1.90953a2.99924,2.99924,0,0,0,.38785-.26334,4.82023,4.82023,0,0,0,1.42523-5.07269,4.34641,4.34641,0,0,0,.95516-2.44531,5.73573,5.73573,0,0,0-.19457-1.78728,4.678,4.678,0,0,0,.84384-3.67884,6.65974,6.65974,0,0,0-3.18042-4.74024,3.93882,3.93882,0,0,0-2.02105-.54649,6.86124,6.86124,0,0,0-3.361,1.08212c-.79491.45142-4.018,2.307-7.47938,4.302l-.01055-.0403a4.34746,4.34746,0,0,0,.9552-2.4452,5.73634,5.73634,0,0,0-.1946-1.78735,4.678,4.678,0,0,0,.84387-3.6788,6.65988,6.65988,0,0,0-3.18014-4.74012,3.939,3.939,0,0,0-2.02136-.54665,6.86123,6.86123,0,0,0-3.36085,1.082c-1.4918.84718-11.66878,6.67706-15.54876,8.9L142.38487,6.54439q-.09392-.05424-.19153-.10158a6.06428,6.06428,0,0,0-1.20357-.41814,7.11364,7.11364,0,0,0-1.33443-.97129L132.62061.9975A8.59727,8.59727,0,0,0,128.52464,0Z"/></g><g id="Inner_Lines" data-name="Inner Lines"><path id="Top_edfe" data-name="Top edfe" class="cls-7" d="M20.022,65.65476l100.1,56.60417a41.95636,41.95636,0,0,0,19.91459,5.52291s11.22916.22917,20.32708-5.56875l66-38.13333,4.2625-2.3375s6.41667-3.23125,6.34792-11.91667"/><path class="cls-7" d="M237.73037,82.70476a14.52511,14.52511,0,0,1-7.10417,12.5125l-4.2625,2.3375-66,38.13333c-9.09792,5.79792-20.32708,5.56875-20.32708,5.56875a41.95636,41.95636,0,0,1-19.91459-5.52291L36.83141,87.66049s-2.71755-1.32972-3.26563-2.73281c-.42968-1.1-.36093-2.04531-.275-4.125l.275-8.9375A3.74173,3.74173,0,0,1,35.422,68.71987C37.347,67.5683,94.58141,34.5683,94.58141,34.5683L137.82516,9.61205a8.58843,8.58843,0,0,1,3.025-.9625"/><path class="cls-7" d="M18.922,71.75059S7.85328,76.5058,5.51578,84.03393,12.047,96.82143,12.047,96.82143l5.0875,2.8875"/><path class="cls-7" d="M11.08453,110.02143l.75625-10.5875s.10313-1.85625,1.1-2.0625"/><line class="cls-7" x1="174.84865" y1="94.48932" x2="184.85649" y2="88.69167"/><polygon class="cls-7" points="177.851 96.094 187.635 90.452 185.529 94.972 177.851 96.094"/><line class="cls-7" x1="176.41885" y1="95.40383" x2="186.42669" y2="89.60618"/><path class="cls-7" d="M237.73037,93.01726l-.825-22s.18333-5.84375-7.51667-10.81667l-44.55-25.7125-11.73333-6.7375L140.88453,9.14226a3.29781,3.29781,0,0,0-1.60416-.275s.22916-.43542-1.12292-1.21458S131.122,3.59643,131.122,3.59643a6.08928,6.08928,0,0,0-5.86666.32083c-3.18542,1.85625-46.2,26.85833-46.2,26.85833L23.2762,62.81309A11.76016,11.76016,0,0,0,20.022,65.65476c-.80208,1.16875-.9625,4.2625-.9625,4.2625l-.1375,1.83333-.825,13.72709s-.825,14.025-.89375,15.05625c0,0,0,.18906.79063.6875s2.40625,1.375,2.40625,1.375l.51562-12.44375s-.08562-1.42919,1.1-.89375c.53282.24062,4.33125,2.54375,4.33125,2.54375l92.62917,53.46458a40.21757,40.21757,0,0,0,18.343,5.844c10.92235.76353,17.86655-2.71038,18.53176-2.97647,1.16471-.46588,23.57883-13.2,23.57883-13.2l52.388-30.27588s4.23958-2.10834,5.88958-8.68542Z"/><ellipse class="cls-7" cx="141.58063" cy="73.42924" rx="10.16641" ry="5.81866"/><path class="cls-7" d="M138.12159,78.9254l-3.64078-2.2,7.07451-4.06353,7.1349,4.11529-3.84784,2.2S140.29571,79.63285,138.12159,78.9254Z"/><path class="cls-7" d="M191.73422,17.21919s2.44062.92813,2.45781,3.17969c0,0,.01719,1.15156-1.66719,2.02812l-14.38926,8.31422-5.0073-2.97917Z"/><path class="cls-7" d="M192.66234,22.427a3.68848,3.68848,0,0,1,.92813,2.475s.06875.825-1.61563,1.70157l-10.36739,5.92515-3.39167-1.94792Z"/><path class="cls-7" d="M191.87172,26.70669a3.68849,3.68849,0,0,1,.92812,2.475s.06875.825-1.61562,1.70156l-6.34552,3.60484L181.447,32.54018Z"/><line class="cls-7" x1="140.12316" y1="73.58501" x2="140.12316" y2="79.15834"/><line class="cls-7" x1="143.03924" y1="73.58501" x2="143.03924" y2="79.15834"/><ellipse class="cls-7" cx="141.58063" cy="70.09487" rx="18.82891" ry="10.77656"/><line class="cls-7" x1="146.9561" y1="75.72461" x2="146.9561" y2="77.72618"/><line class="cls-7" x1="136.19767" y1="75.72461" x2="136.19767" y2="77.72618"/></g><g id="Inner_Lines-2" data-name="Inner Lines"><path class="cls-7" d="M206.10922,24.96919s2.44062.92813,2.45781,3.17969c0,0,.01719,1.15156-1.66719,2.02812l-14.38926,8.31422-5.0073-2.97917Z"/><path class="cls-7" d="M207.03734,30.177a3.68848,3.68848,0,0,1,.92813,2.475s.06875.825-1.61563,1.70157l-10.36739,5.92515-3.39167-1.94792Z"/><path class="cls-7" d="M206.24672,34.45669a3.68849,3.68849,0,0,1,.92812,2.475s.06875.825-1.61562,1.70156l-6.34552,3.60484L195.822,40.29018Z"/></g></g></g></g></g></svg>