<svg xmlns="http://www.w3.org/2000/svg" viewBox="0 0 288.52053 259.48836"><defs><style>.cls-1{fill:#dededf;opacity:0.9;}.cls-2{fill:#666;}.cls-3{fill:#e5e5e5;}.cls-4{fill:#404040;}.cls-5{fill:#ccc;}.cls-6{fill:none;stroke:#000;stroke-linecap:round;stroke-linejoin:round;}</style></defs><title>Analog Gyro</title><g id="Layer_2" data-name="Layer 2"><g id="EDR"><g id="Analog_Gyro" data-name="Analog Gyro"><g id="Shadow"><path id="Shadow_Selected_Height" data-name="Shadow Selected Height" class="cls-1" d="M13.18574,162.5562,163.42751,75.79713l119.43527,68.79631a8.873,8.873,0,0,1,.0137,15.36943L146.17213,238.67556a27.37683,27.37683,0,0,1-27.36744.02708L13.19091,177.93229A8.873,8.873,0,0,1,13.18574,162.5562Z"/><path id="Shadow_Unselected_Height" data-name="Shadow Unselected Height" class="cls-1" d="M13.18574,179.69035,163.42751,92.93128,282.86278,161.7276a8.873,8.873,0,0,1,.0137,15.36942L146.17213,255.80971a27.37683,27.37683,0,0,1-27.36744.02708L13.19091,195.06644A8.873,8.873,0,0,1,13.18574,179.69035Z"/></g><g id="Color"><g id="Base_Color" data-name="Base Color"><g id="Dark_Gray" data-name="Dark Gray"><polygon class="cls-2" points="188.744 167.064 188.744 177.575 285.978 121.821 285.978 111.717 155.263 36.43 60.18 92.325 188.744 167.064"/></g><polygon class="cls-3" points="60.18 92.325 3.2 124.814 3.2 137.241 131.207 209.767 188.744 177.575 188.744 167.064 60.18 92.325"/><g id="Left"><path class="cls-3" d="M36.50184,155.25707l36.34637,21.0145S36.49,179.02269,36.50184,155.25707Z"/></g><g id="Right"><path class="cls-3" d="M162.05823,192.50536c-.98474.551-24.03125,13.73413-30.19471,17.26l-31.17785-18.02625c-.00879,17.7389,20.24,20.70313,30.51294,21.06653l.37964.96851S164.51941,215.0194,162.05823,192.50536Z"/></g></g><g id="Peg_Box_Color" data-name="Peg Box Color"><g id="Peg_Box_1" data-name="Peg Box 1"><polygon class="cls-4" points="73.956 78.731 113.467 55.679 152.948 78.806 152.948 93.306 113.385 116.292 73.956 93.525 73.956 78.731"/></g><g id="Peg_Box_2" data-name="Peg Box 2"><polygon class="cls-4" points="124.623 48.424 149.967 34.044 163.123 41.937 163.123 56.437 137.727 70.75 124.623 63.218 124.623 48.424"/></g></g><g id="Pegs"><path id="Peg_8_6" data-name="Peg 8 &amp; 6" class="cls-5" d="M129.48059,33.83519a.499.499,0,0,0-.25049-.43261L126.77649,31.99a.50126.50126,0,0,0-.49951,0l-2.49366,1.43945c-.01269.00733-.01806.02173-.03.03a.49635.49635,0,0,0-.32691.46509v51.915a.49976.49976,0,0,0,.25049.4331l2.61572,1.50586a.49965.49965,0,0,0,.49951,0l2.49366-1.43945a.53977.53977,0,0,0,.24121-.51465V34.1389a.4879.4879,0,0,0-.06519-.23327A.48038.48038,0,0,0,129.48059,33.83519Z"/><path id="Peg_1_2_3_4_5_7" data-name="Peg 1,2,3,4,5, &amp; 7" class="cls-5" d="M116.441,26.512a.499.499,0,0,0-.25049-.43262l-2.45361-1.41259a.50126.50126,0,0,0-.49951,0l-2.49366,1.43945c-.01269.00732-.01806.02161-.02978.02978a.49648.49648,0,0,0-.32764.46534V56.82445l-7.07568,4.16394V34.283a.48652.48652,0,0,0-.06519-.23316.47146.47146,0,0,0,.0188-.07007.499.499,0,0,0-.25049-.43261l-2.45361-1.4126a.50126.50126,0,0,0-.49951,0L97.567,33.574c-.0127.00733-.01807.02173-.03.03a.49623.49623,0,0,0-.32691.46509V64.58226l-.01416.00489-7.26465,4.275V41.52123a.48662.48662,0,0,0-.06518-.23316.47166.47166,0,0,0,.0188-.07006.499.499,0,0,0-.25049-.43262l-2.45361-1.4126a.5013.5013,0,0,0-.49952,0l-2.49365,1.43945c-.01269.00733-.01806.02173-.03.03a.49624.49624,0,0,0-.3269.46509V78.22191a.49979.49979,0,0,0,.25049.43311l2.61523,1.50635a.49971.49971,0,0,0,.49951,0l2.49365-1.44a.54356.54356,0,0,0,.2417-.51416V70.02269l7.27881-4.28332V86.17113a.49981.49981,0,0,0,.25049.43311l2.61572,1.50634a.49967.49967,0,0,0,.49952,0l2.49365-1.43994a.53805.53805,0,0,0,.24121-.51416V62.14891l7.07568-4.16381V93.51635a.4998.4998,0,0,0,.25049.4331l2.61572,1.50586a.49965.49965,0,0,0,.49951,0l2.49366-1.43945a.53977.53977,0,0,0,.24121-.51465V26.81566a.48678.48678,0,0,0-.06494-.23266A.47037.47037,0,0,0,116.441,26.512Z"/><path id="Peg_10_9" data-name="Peg 10 &amp; 9" class="cls-5" d="M142.67932,41.54955a.499.499,0,0,0-.25049-.43262l-2.45361-1.4126a.48943.48943,0,0,0-.40039-.02649V12.9558a.48685.48685,0,0,0-.06494-.23267.47025.47025,0,0,0,.019-.071.499.499,0,0,0-.25049-.43262l-2.45361-1.4126a.50128.50128,0,0,0-.49951,0l-2.49366,1.43946c-.01269.00732-.01806.0216-.02978.02978a.49647.49647,0,0,0-.32764.46533v36.915a.49981.49981,0,0,0,.25049.43311l2.61572,1.50586a.50068.50068,0,0,0,.24952.06689c.0122,0,.02307-.00854.03515-.0094v26.901a.49979.49979,0,0,0,.25049.43311l2.61523,1.50586a.49973.49973,0,0,0,.49952,0l2.49365-1.43945a.54436.54436,0,0,0,.2417-.51465V41.85326a.48794.48794,0,0,0-.06519-.23328A.47992.47992,0,0,0,142.67932,41.54955Z"/><path id="Peg_11" data-name="Peg 11" class="cls-5" d="M152.92126,4.98229a.47913.47913,0,0,0,.0188-.07044.499.499,0,0,0-.25049-.43261L150.236,3.06664a.50126.50126,0,0,0-.49951,0L147.2428,4.50609c-.0127.00733-.01807.02173-.03.03a.49635.49635,0,0,0-.32691.46509v36.915a.49978.49978,0,0,0,.25049.4331l2.61524,1.50586a.49965.49965,0,0,0,.49951,0l2.49365-1.43945a.54435.54435,0,0,0,.2417-.51465V5.21556A.4879.4879,0,0,0,152.92126,4.98229Z"/></g><g id="Chip_Color" data-name="Chip Color"><polygon class="cls-4" points="225.744 105.962 240.59 97.623 255.422 106.196 255.422 117.696 240.523 125.968 225.744 117.755 225.744 105.962"/></g></g><g id="Outline"><line id="Middle_Divider" data-name="Middle Divider" class="cls-6" x1="61.20854" y1="93.21559" x2="188.74383" y2="167.06375"/><g id="Front_Bottom_Outline" data-name="Front Bottom Outline"><polyline class="cls-6" points="284.935 121.821 131.213 210.016 3.628 136.25"/></g><g id="Front_Outline" data-name="Front Outline"><polyline class="cls-6" points="285.02 112.251 131.213 199.785 3.735 126.08"/></g><line id="Corner_Line" data-name="Corner Line" class="cls-6" x1="131.21268" y1="199.78462" x2="131.20743" y2="209.7666"/><path id="Bottom_Outline" data-name="Bottom Outline" class="cls-6" d="M73.956,78.73078l-.26933,7.18679L3.50011,126.15222l.096,9.93033L37.358,155.50348a10.6754,10.6754,0,0,0-.33337,2.63135c0,9.81836,13.58984,17.77735,30.35376,17.77735,1.64563,0,3.25915-.07911,4.83386-.22681l29.38867,17.01733a10.69921,10.69921,0,0,0-.37622,2.79395c0,9.81811,13.58984,17.77734,30.35376,17.77734s30.35376-7.95923,30.35376-17.77734a10.66535,10.66535,0,0,0-.30322-2.49317l123.30624-71.18281.08514-9.5699"/><ellipse id="Hole_2" data-name="Hole 2" class="cls-6" cx="67.71438" cy="126.15222" rx="14.77433" ry="8.14277"/><ellipse id="Hole_1" data-name="Hole 1" class="cls-6" cx="131.76401" cy="163.19759" rx="14.77433" ry="8.14277"/><g id="Peg_Box_1-2" data-name="Peg Box 1"><line class="cls-6" x1="152.94827" y1="78.63971" x2="152.94827" y2="93.30641"/><line class="cls-6" x1="113.44108" y1="101.52949" x2="113.44108" y2="115.91999"/><polyline class="cls-6" points="152.948 93.306 113.385 116.292 73.956 93.525 73.956 78.731"/><line class="cls-6" x1="123.93419" y1="61.8286" x2="115.94536" y2="57.2325"/><line class="cls-6" x1="137.12498" y1="69.41748" x2="129.13829" y2="64.82261"/><polyline class="cls-6" points="84.023 72.919 73.956 78.731 113.385 101.562 152.948 78.521 142.3 72.395"/><line class="cls-6" x1="97.44927" y1="65.01806" x2="89.65053" y2="69.60754"/><line class="cls-6" x1="110.88651" y1="57.11039" x2="103.05184" y2="61.72101"/></g><g id="Peg_1" data-name="Peg 1"><line class="cls-6" x1="86.88522" y1="79.39639" x2="86.88522" y2="42.78155"/><polygon class="cls-6" points="86.931 39.806 84.438 41.245 86.891 42.658 89.385 41.218 86.931 39.806"/><polyline class="cls-6" points="84.331 41.307 84.331 78.222 86.946 79.728 89.44 78.288 89.431 78.207 89.431 41.521"/></g><g id="Peg_2" data-name="Peg 2"><line class="cls-6" x1="100.26466" y1="87.34561" x2="100.26466" y2="50.73077"/><polygon class="cls-6" points="100.311 47.755 97.817 49.194 100.271 50.607 102.765 49.168 100.311 47.755"/><polyline class="cls-6" points="102.811 49.471 102.811 86.156 102.819 86.238 100.326 87.677 97.71 86.171 97.71 49.256"/></g><g id="Peg_3" data-name="Peg 3"><line class="cls-6" x1="113.44108" y1="94.69056" x2="113.44108" y2="58.07572"/><polygon class="cls-6" points="113.487 55.1 110.994 56.539 113.447 57.952 115.941 56.513 113.487 55.1"/><polyline class="cls-6" points="115.987 56.816 115.987 93.501 115.996 93.583 113.502 95.022 110.887 93.516 110.887 56.601"/></g><g id="Peg_5" data-name="Peg 5"><line class="cls-6" x1="113.44108" y1="55.09998" x2="113.44108" y2="43.07572"/><polygon class="cls-6" points="113.487 40.1 110.994 41.539 113.447 42.952 115.941 41.513 113.487 40.1"/><line class="cls-6" x1="110.88652" y1="57.63161" x2="110.88652" y2="41.60137"/><line class="cls-6" x1="115.98711" y1="41.81556" x2="115.98711" y2="57.15981"/></g><g id="Peg_6" data-name="Peg 6"><line class="cls-6" x1="126.48096" y1="87.01389" x2="126.48096" y2="50.39905"/><polygon class="cls-6" points="126.527 47.423 124.034 48.863 126.487 50.276 128.981 48.836 126.527 47.423"/><polyline class="cls-6" points="129.027 49.139 129.027 85.825 129.036 85.906 126.542 87.346 123.926 85.84 123.926 48.925"/></g><g id="Peg_8" data-name="Peg 8"><line class="cls-6" x1="126.48096" y1="47.42331" x2="126.48096" y2="35.39905"/><polygon class="cls-6" points="126.527 32.423 124.034 33.863 126.487 35.276 128.981 33.836 126.527 32.423"/><line class="cls-6" x1="123.9264" y1="49.95494" x2="123.9264" y2="33.92469"/><line class="cls-6" x1="129.02699" y1="34.13889" x2="129.02699" y2="49.48313"/></g><g id="Peg_7" data-name="Peg 7"><line class="cls-6" x1="110.88652" y1="41.60137" x2="110.88652" y2="26.60137"/><line class="cls-6" x1="113.44108" y1="40.01227" x2="113.44108" y2="28.07572"/><polygon class="cls-6" points="113.487 25.1 110.994 26.539 113.447 27.952 115.941 26.513 113.487 25.1"/><line class="cls-6" x1="115.98711" y1="26.81556" x2="115.98711" y2="42.23196"/></g><g id="Peg_4" data-name="Peg 4"><line class="cls-6" x1="100.26466" y1="47.79532" x2="100.26466" y2="35.54332"/><polygon class="cls-6" points="100.311 32.568 97.817 34.007 100.271 35.42 102.765 33.98 100.311 32.568"/><line class="cls-6" x1="97.7101" y1="70.36644" x2="97.7101" y2="34.06897"/><line class="cls-6" x1="102.81069" y1="34.28316" x2="102.81069" y2="68.63728"/></g><g id="Peg_9" data-name="Peg 9"><line class="cls-6" x1="139.67954" y1="79.72811" x2="139.67954" y2="43.11328"/><polygon class="cls-6" points="139.726 40.138 137.232 41.577 139.686 42.99 142.179 41.55 139.726 40.138"/><polyline class="cls-6" points="142.226 41.853 142.226 78.539 142.234 78.62 139.74 80.06 137.125 78.554 137.125 41.639"/></g><g id="Peg_10" data-name="Peg 10"><line class="cls-6" x1="136.52892" y1="50.83077" x2="136.52892" y2="14.21593"/><polygon class="cls-6" points="136.575 11.24 134.082 12.68 136.535 14.092 139.029 12.653 136.575 11.24"/><polyline class="cls-6" points="137.125 50.854 136.59 51.162 133.974 49.656 133.974 12.742"/><line class="cls-6" x1="139.07495" y1="12.95577" x2="139.07495" y2="40.31776"/></g><g id="Peg_11-2" data-name="Peg 11"><line class="cls-6" x1="149.94038" y1="43.09041" x2="149.94038" y2="6.47557"/><polygon class="cls-6" points="149.987 3.5 147.493 4.939 149.947 6.352 152.44 4.912 149.987 3.5"/><polyline class="cls-6" points="152.486 5.215 152.486 41.901 152.495 41.982 150.001 43.422 147.386 41.916 147.386 5.001"/></g><line class="cls-6" x1="152.73428" y1="35.6536" x2="285.02033" y2="112.25077"/><g id="Peg_Box_2-2" data-name="Peg Box 2"><line class="cls-6" x1="140.15907" y1="40.04417" x2="147.17637" y2="36.02412"/><line class="cls-6" x1="129.4806" y1="46.16162" x2="133.90603" y2="43.62639"/><polyline class="cls-6" points="137.068 56.647 136.166 57.168 136.166 68.637"/><polyline class="cls-6" points="142.292 68.637 163.096 56.627 163.096 41.621 142.369 53.587"/><line class="cls-6" x1="136.27346" y1="57.1598" x2="129.03553" y2="52.98246"/></g><g id="Chip"><polygon class="cls-6" points="225.744 106.328 240.698 97.611 255.544 106.16 240.59 114.876 225.744 106.328"/><polyline class="cls-6" points="255.544 117.275 240.59 125.992 225.744 117.444"/><line class="cls-6" x1="255.54395" y1="106.15964" x2="255.54395" y2="117.27524"/><line class="cls-6" x1="240.59046" y1="114.87619" x2="240.59046" y2="125.99179"/><line class="cls-6" x1="225.74396" y1="106.32791" x2="225.74396" y2="117.44351"/></g><g id="Part_Outside_Outline" data-name="Part Outside Outline"><path d="M149.98586,3a.50228.50228,0,0,1,.25012.06665l2.45362,1.4126a.499.499,0,0,1,.25048.43262.48054.48054,0,0,1-.01879.07043.488.488,0,0,1,.06518.23328V35.2218l10.25671,5.939a.48449.48449,0,0,1,.10315.02746c.03235.01868.04981.05176.07654.07654l121.84778,70.55335a.5339.5339,0,0,1,.24951.437l-.085,9.56982a.56843.56843,0,0,1-.10986.28577c-.00708.00757-.04578.04773-.09693.09949-.01269.01281-123.03149,71.043-123.03149,71.043a11.09269,11.09269,0,0,1,.23535,2.24363c0,10.07812-13.84082,18.27737-30.854,18.27737-17.0127,0-30.85352-8.19925-30.85352-18.27737a11.18,11.18,0,0,1,.26807-2.37513L71.76131,176.22095c-1.45764.12256-2.92846.1914-4.38281.1914-17.01318,0-30.854-8.19922-30.854-18.27734a11.116,11.116,0,0,1,.22436-2.15723Q20.063,146.3305,3.41268,136.665a.8308.8308,0,0,1-.20886-.24707.593.593,0,0,1-.07337-.478l-.13037-9.7829a.49849.49849,0,0,1,.25147-.43847l69.9458-40.09668.25927-6.90967a.55777.55777,0,0,1,.32312-.457l9.99329-5.769a.46518.46518,0,0,1,.05762-.01965V41.30737a.49622.49622,0,0,1,.3269-.46508c.012-.00831.01734-.02271.03-.03l2.49365-1.43946a.50129.50129,0,0,1,.49952,0l2.45361,1.4126a.499.499,0,0,1,.25049.43262.47211.47211,0,0,1-.0188.07007.48655.48655,0,0,1,.06518.23315V68.86218l7.26465-4.275.01416-.00488V34.06909A.49624.49624,0,0,1,97.537,33.604c.012-.0083.01733-.0227.03-.03l2.49365-1.43945a.5042.5042,0,0,1,.25049-.06665.49657.49657,0,0,1,.24908.06665l2.45361,1.4126a.499.499,0,0,1,.25049.43262.47045.47045,0,0,1-.0188.07006.48652.48652,0,0,1,.06519.23316V60.9884l7.07568-4.16394V26.60132a.49645.49645,0,0,1,.32764-.46533c.01172-.00818.01709-.02246.02978-.02979l2.49366-1.43945a.50127.50127,0,0,1,.49951,0l2.45361,1.4126a.499.499,0,0,1,.25049.43261.47037.47037,0,0,1-.019.07105.48678.48678,0,0,1,.06494.23266V56.967l3.18506,1.83252,3.75439-2.17334V33.92456a.49635.49635,0,0,1,.32691-.46509c.012-.0083.01733-.0227.03-.03L126.277,31.99a.50127.50127,0,0,1,.49951,0l2.45361,1.4126a.499.499,0,0,1,.25049.43262.48059.48059,0,0,1-.0188.07043.48794.48794,0,0,1,.06519.23328V45.5592l3.94726-2.26159V12.74146a.49648.49648,0,0,1,.32764-.46534c.01172-.00818.01709-.02246.02979-.02978l2.49365-1.43946a.50127.50127,0,0,1,.49951,0l2.45361,1.4126a.499.499,0,0,1,.25049.43262.46994.46994,0,0,1-.019.071.48685.48685,0,0,1,.06494.23267V39.83167c.08911-.02881,7.311-4.21753,7.311-4.21753V5.00122a.49635.49635,0,0,1,.32691-.46509c.012-.0083.01733-.0227.03-.03l2.49365-1.43945A.4983.4983,0,0,1,149.98586,3m0-3a3.50311,3.50311,0,0,0-1.75067.4693L145.743,1.9079l-.49414.28522-.09534.11883a3.50989,3.50989,0,0,0-1.26764,2.68927V33.88556c-.42846.24823-.87072.50433-1.311.75915V12.95581a3.4193,3.4193,0,0,0-.06451-.663,3.509,3.509,0,0,0-1.73816-2.675L138.32168,8.207a3.5013,3.5013,0,0,0-3.49146-.001l-2.49835,1.4422-.49378.285-.09393.11694a3.50892,3.50892,0,0,0-1.2699,2.69129V30.65723l-2.20092-1.26715a3.50048,3.50048,0,0,0-1.74622-.46674h-.00165a3.50606,3.50606,0,0,0-1.74249.46509l-2.49945,1.44281-.49414.28522-.09528.11883a3.50955,3.50955,0,0,0-1.2677,2.68927V54.89648l-.759.43934L119.487,55.232V26.81567a3.41643,3.41643,0,0,0-.06445-.66272,3.5093,3.5093,0,0,0-1.73816-2.67529l-2.45063-1.41083a3.501,3.501,0,0,0-3.49755.00263L109.244,23.508l-.49347.28479-.09393.117a3.509,3.509,0,0,0-1.27027,2.69153V55.109l-1.07568.633V34.283a3.42042,3.42042,0,0,0-.06561-.66876,3.5091,3.5091,0,0,0-1.73749-2.66877L102.057,29.53461a3.4941,3.4941,0,0,0-1.74579-.46674h-.00171a3.5077,3.5077,0,0,0-1.73859.46271L96.0671,30.97583l-.49353.28491-.095.11817A3.50968,3.50968,0,0,0,94.21,34.06909V62.86328l-1.27881.75256V41.52124a3.41647,3.41647,0,0,0-.06567-.66882,3.509,3.509,0,0,0-1.73743-2.6687l-2.45056-1.41083a3.50128,3.50128,0,0,0-3.49145-.001l-2.49829,1.44214-.49341.28485-.095.1181a3.50979,3.50979,0,0,0-1.2688,2.69037V70.72076l-8.48242,4.89673A3.55789,3.55789,0,0,0,70.469,78.441l-.0072.07922-.00305.07947-.19678,5.24695L1.75948,123.11584A3.49991,3.49991,0,0,0,.0002,126.18939l.12732,9.5503a3.62353,3.62353,0,0,0,.52527,2.25689A3.63573,3.63573,0,0,0,1.915,139.2644q8.33276,4.8177,16.65564,9.64917,7.47986,4.33769,14.96606,8.672-.01227.2775-.0122.54944c0,11.93121,14.87048,21.27734,33.854,21.27734,1.18579,0,2.42151-.04355,3.68481-.12967L97.74874,194.7114q-.024.39647-.02405.7854c0,11.93127,14.8703,21.27737,33.85358,21.27737,18.98358,0,33.854-9.3461,33.854-21.27737q0-.31779-.01532-.63871L225.208,160.33453,267.49959,135.914c19.57306-11.30267,19.57306-11.30267,19.86048-11.59289.08117-.0821.141-.14484.152-.15656a3.5155,3.5155,0,0,0,.86915-1.77277l.05145-.26763.00244-.27259.04248-4.78485.04248-4.785.00049-.05506-.00153-.05505a3.5341,3.5341,0,0,0-1.64929-2.89184l-.04736-.02979-.04846-.02814L165.1971,38.82544a3.142,3.142,0,0,0-.72284-.41846l-8.48779-4.91467V5.21558a3.416,3.416,0,0,0-.06555-.66828,3.50846,3.50846,0,0,0-1.73779-2.6698L151.73281.46674A3.50944,3.50944,0,0,0,149.98586,0Z"/></g></g></g></g></g></svg>