<svg xmlns="http://www.w3.org/2000/svg" xmlns:xlink="http://www.w3.org/1999/xlink" viewBox="0 0 109.44276 111.40209"><defs><style>.cls-1,.cls-17{fill:none;}.cls-2{fill:#dededf;opacity:0.9;}.cls-3{isolation:isolate;}.cls-4{clip-path:url(#clip-path);}.cls-5{fill:#947700;}.cls-6{fill:#997b00;}.cls-7{fill:#9e7f00;}.cls-8{fill:#a38300;}.cls-9{fill:#a88700;}.cls-10{fill:#ad8b00;}.cls-11{fill:#b39000;}.cls-12{fill:#deb300;}.cls-13{fill:#886e00;}.cls-14{clip-path:url(#clip-path-2);}.cls-15{fill:#d7282f;}.cls-16{fill:#00953b;}.cls-17{stroke:#000;stroke-linecap:round;stroke-linejoin:round;}</style><clipPath id="clip-path"><path class="cls-1" d="M96.97255,10.039l-.02118,2.039a.65159.65159,0,0,1-.36751.52912l.02118-2.039A.65161.65161,0,0,0,96.97255,10.039Z"/></clipPath><clipPath id="clip-path-2"><path class="cls-1" d="M106.44272,15.76827l-.02119,2.039a.64959.64959,0,0,1-.366.5279l.02118-2.039A.64967.64967,0,0,0,106.44272,15.76827Z"/></clipPath></defs><title>LED</title><g id="Layer_2" data-name="Layer 2"><g id="EDR"><g id="LED"><path id="Shadow_Selected_Height" data-name="Shadow Selected Height" class="cls-2" d="M9.65571,76.921,55.647,49.4759,95.7753,72.64729A8.873,8.873,0,0,1,95.789,88.01671l-32.384,19.39207c-8.4632,4.89517-18.386,5.50555-26.85882.62714L9.66088,92.29706A8.873,8.873,0,0,1,9.65571,76.921Z"/><path id="Shadow_Unselected_Height" data-name="Shadow Unselected Height" class="cls-2" d="M9.65571,59.60027,55.647,32.15519,95.7753,55.32658A8.873,8.873,0,0,1,95.789,70.696l-32.384,19.39206c-8.4632,4.89517-18.386,5.50555-26.85882.62714L9.66088,74.97636A8.873,8.873,0,0,1,9.65571,59.60027Z"/><g id="Color"><g class="cls-3"><g class="cls-3"><g class="cls-4"><g class="cls-3"><path class="cls-5" d="M96.97255,10.039l-.02117,2.039-.00045.01612.02117-2.039.00045-.01612"/><path class="cls-6" d="M96.9721,10.05515l-.02117,2.039a.467.467,0,0,1-.01055.07947l.02118-2.039a.46679.46679,0,0,0,.01054-.07947"/><path class="cls-7" d="M96.96156,10.13462l-.02118,2.039a.49719.49719,0,0,1-.02444.07862l.02118-2.039a.49824.49824,0,0,0,.02444-.07862"/><path class="cls-8" d="M96.93712,10.21324l-.02118,2.039a.55667.55667,0,0,1-.04053.08059l.02118-2.039a.55769.55769,0,0,0,.04053-.08059"/><path class="cls-9" d="M96.89659,10.29383l-.02118,2.039a.65362.65362,0,0,1-.063.08649l.02118-2.039a.65453.65453,0,0,0,.063-.08649"/><path class="cls-10" d="M96.8336,10.38032l-.02118,2.039a.82307.82307,0,0,1-.10918.105l.02118-2.039a.82307.82307,0,0,0,.10918-.105"/><path class="cls-11" d="M96.72442,10.4853l-.02118,2.039a1.06311,1.06311,0,0,1-.11938.08285l.02118-2.039a1.064,1.064,0,0,0,.11938-.08285"/></g></g></g><polygon class="cls-12" points="96.605 10.568 96.584 12.607 80.677 22.165 80.699 20.126 96.605 10.568"/><polygon class="cls-13" points="80.699 20.126 80.677 22.165 78.864 21.081 78.885 19.042 80.699 20.126"/><path class="cls-12" d="M87.07207,16.29614l-6.3735,3.82959-1.81344-1.08356L94.7916,9.4846a1.92573,1.92573,0,0,1,1.80093.00325.57724.57724,0,0,1,.01251,1.0803l-9.533,5.728"/></g><g class="cls-3"><g class="cls-3"><g class="cls-14"><g class="cls-3"><path class="cls-5" d="M106.44272,15.76827l-.02118,2.039-.00045.01613.02118-2.039.00045-.01614"/><path class="cls-6" d="M106.44227,15.78441l-.02118,2.039a.46639.46639,0,0,1-.01056.07953l.02118-2.039a.46665.46665,0,0,0,.01056-.07953"/><path class="cls-7" d="M106.43171,15.86394l-.02118,2.039a.4971.4971,0,0,1-.02444.07864l.02118-2.039a.49731.49731,0,0,0,.02444-.07863"/><path class="cls-8" d="M106.40727,15.94257l-.02118,2.039a.55669.55669,0,0,1-.04049.08052l.02118-2.039a.55618.55618,0,0,0,.04049-.08052"/><path class="cls-9" d="M106.36678,16.02309l-.02118,2.039a.65272.65272,0,0,1-.06286.08631l.02118-2.039a.65362.65362,0,0,0,.06286-.08631"/><path class="cls-10" d="M106.30392,16.1094l-.02118,2.039a.81872.81872,0,0,1-.10869.10451l.02117-2.039a.82012.82012,0,0,0,.1087-.10452"/><path class="cls-11" d="M106.19522,16.21392l-.02117,2.039a1.05738,1.05738,0,0,1-.11852.08226l.02118-2.039a1.05851,1.05851,0,0,0,.11851-.08225"/></g></g></g><polygon class="cls-12" points="106.077 16.296 106.056 18.335 90.147 27.894 90.168 25.855 106.077 16.296"/><polygon class="cls-13" points="90.168 25.855 90.147 27.894 88.334 26.81 88.355 24.771 90.168 25.855"/><path class="cls-12" d="M104.26328,15.21261a1.92585,1.92585,0,0,1,1.801.00569.57632.57632,0,0,1,.01248,1.07787L90.16816,25.855l-1.81343-1.08356Z"/></g><path class="cls-15" d="M93.02478,19.99231,64.40894,3,10.55127,34.49731l-.15906,12.85926L43.80554,67.19763,92.8927,38.49011a5.47268,5.47268,0,0,0,.69019-.48108c.01965-.01587.04614-.02954.06543-.04553.01257-.0105.02087-.02234.03332-.033a4.17934,4.17934,0,0,0,.4469-.44116c.00928-.01074.02246-.02051.0315-.03125.02527-.02991.04223-.06152.06616-.0918.07031-.08874.13623-.17822.19458-.26928.01489-.0232.03552-.04541.04956-.06861.01672-.02759.02661-.05615.04224-.08386.043-.07629.08129-.153.11608-.23035.01429-.03173.03455-.0625.04749-.09448.00928-.02283.01318-.04639.02173-.06933.0271-.07264.04858-.14576.06885-.219.01025-.0376.02673-.07471.03515-.11243.00415-.01867.004-.03747.00781-.056.01514-.07641.02344-.15283.03125-.22949.00416-.04065.01465-.081.01661-.12182q.00219-.04395.0028-.08814l.15906-12.85913c-.00085.06177-.01147.12329-.01709.18506A3.34953,3.34953,0,0,0,93.02478,19.99231Zm.71729,5.15747-.00281.002c.03455-.02783.07141-.05517.10449-.08349l-.00317.00317C93.80945,25.098,93.77454,25.12341,93.74207,25.14978Zm.62573-.62061.02051-.02612-.00244.00342Zm.25244-.35839c.01953-.03247.03931-.0647.05737-.09717l-.00549.011C94.65589,24.1134,94.63758,24.142,94.62024,24.17078Zm.2367-.4795c-.014.038-.03186.07532-.04786.113.01819-.0426.03675-.085.05249-.12793Zm.07946-.26123c.01221-.04785.02539-.09558.03455-.14355l-.00232.01733C94.96009,23.34607,94.94715,23.38794,94.9364,23.43005Z"/><g class="cls-3"><polygon class="cls-16" points="19.144 66.856 19.04 75.205 3 65.56 3.103 57.212 19.144 66.856"/><polygon class="cls-16" points="39.721 54.976 39.618 63.324 19.04 75.205 19.144 66.856 39.721 54.976"/><polygon class="cls-16" points="19.144 66.856 3.103 57.212 23.681 45.331 39.721 54.976 19.144 66.856"/></g></g><g class="cls-3"><path class="cls-17" d="M88.633,17.38447l7.95082-4.77735a1.07245,1.07245,0,0,0,.11938-.08276.82286.82286,0,0,0,.10913-.105c.015-.01746.02637-.03565.03894-.05347l.00867-.012c.00488-.00708.01111-.01392.01538-.02112a.55244.55244,0,0,0,.04053-.08057.48494.48494,0,0,0,.02441-.07861.46516.46516,0,0,0,.01062-.07947l.00049-.01611.02112-2.03906a.508.508,0,0,1-.09131.276l-.00879.01184a.86054.86054,0,0,1-.26733.24133l-9.32845,5.605"/><path class="cls-17" d="M85.27327,15.20379,94.7916,9.4846a1.92573,1.92573,0,0,1,1.80093.00325.57724.57724,0,0,1,.01251,1.0803l-9.533,5.728"/></g><g class="cls-3"><path class="cls-17" d="M95.34372,24.77146l10.71181-6.43631a1.043,1.043,0,0,0,.11853-.08228.83115.83115,0,0,0,.10876-.10449c.015-.01758.02661-.03589.03931-.054l.0083-.01148.01514-.02087a.55776.55776,0,0,0,.04052-.08045.50212.50212,0,0,0,.02442-.07861.4546.4546,0,0,0,.0105-.07959l.00048-.01611.02124-2.03906a.50714.50714,0,0,1-.09106.27563l-.0083.01147a.85882.85882,0,0,1-.2666.24073L95.27031,22.78921"/><path class="cls-17" d="M94.38248,21.14959l9.8808-5.937a1.92585,1.92585,0,0,1,1.801.00569.57632.57632,0,0,1,.01248,1.07787L95.14546,22.86433"/></g><g class="cls-3"><path class="cls-17" d="M94.99986,23.07441c-.00769.07654-.016.15307-.03125.22925-.01123.05639-.02758.11254-.043.1687-.02026.07324-.04162.14636-.06872.219-.02051.05493-.0448.10938-.06946.16382-.03467.07715-.07287.15381-.1156.22974q-.04339.07727-.09241.15344c-.0581.0907-.12378.17981-.1936.26819-.03271.04126-.06335.083-.09863.12378a4.17828,4.17828,0,0,1-.44666.44116c-.03113.02661-.066.052-.09851.07825a5.48967,5.48967,0,0,1-.69031.48132L43.96446,54.33845,43.80553,67.1977,92.89269,38.49018a5.47472,5.47472,0,0,0,.69018-.4812c.01965-.01587.04614-.02954.06543-.04541.01257-.01062.02088-.02246.03333-.033a4.19338,4.19338,0,0,0,.4469-.44129c.00927-.01062.02246-.02038.03149-.03112.02539-.03.04248-.06177.06641-.092.07006-.08851.13574-.17774.19409-.26868.01513-.02332.03564-.04553.04992-.06909.01673-.02771.02674-.0564.04236-.08435.04285-.07593.08106-.15247.11573-.22974.01428-.03174.03466-.0625.0476-.09448.00928-.02295.01319-.04639.02173-.06934.0271-.07275.04859-.14575.06885-.21911.01025-.0376.02673-.07459.03516-.11243.00415-.01856.004-.03735.00781-.056.01526-.0763.02344-.153.03125-.22962.00415-.04052.01465-.08093.0166-.12158q.00219-.04413.00281-.08813l.15905-12.85926C95.01842,22.93452,95.00707,23.00434,94.99986,23.07441Z"/><polyline class="cls-17" points="15.214 50.22 10.392 47.356 10.551 34.497 43.964 54.338 43.805 67.198 38.641 64.131"/><path class="cls-17" d="M64.40893,3,93.02476,19.99237c2.64965,1.57339,2.66062,4.09838.027,5.6386L43.96449,54.33847,10.55126,34.49734Z"/></g><g class="cls-3"><polygon class="cls-17" points="19.144 66.856 19.04 75.205 3 65.56 3.103 57.212 19.144 66.856"/><polygon class="cls-17" points="39.721 54.976 39.618 63.324 19.04 75.205 19.144 66.856 39.721 54.976"/><polygon class="cls-17" points="19.144 66.856 3.103 57.212 23.681 45.331 39.721 54.976 19.144 66.856"/></g><path d="M64.40893,3,85.11781,15.29724l9.67382-5.81262a1.77033,1.77033,0,0,1,.89431-.22189,1.80333,1.80333,0,0,1,.90659.22519.57357.57357,0,0,1,.31934.73437.50634.50634,0,0,0,.06066-.18335L96.95129,12.078l-.00036.01612a.46494.46494,0,0,1-.01062.07959.49.49,0,0,1-.02442.07861.56468.56468,0,0,1-.04052.08057L96.86,12.354l-.00866.01184a.65607.65607,0,0,1-.03894.05347.81637.81637,0,0,1-.10914.105,1.05753,1.05753,0,0,1-.11938.08289l-7.9508,4.77734,4.39172,2.60779a4.84676,4.84676,0,0,1,1.35766,1.15723l9.88086-5.937a1.76338,1.76338,0,0,1,.8906-.22061,1.81007,1.81007,0,0,1,.9103.22647.57242.57242,0,0,1,.31776.73365.506.506,0,0,0,.06078-.18384l-.02124,2.03906-.00048.01611a.46444.46444,0,0,1-.0105.07959.49446.49446,0,0,1-.02442.07862.55377.55377,0,0,1-.04052.08056l-.01514.02063-.00854.01184a.63289.63289,0,0,1-.0392.05372.81614.81614,0,0,1-.10864.10461,1.06231,1.06231,0,0,1-.11852.08215l-11.06238,6.647-.13282,10.74145q-.00054.04413-.0028.08814c-.002.04077-.01246.08117-.0166.12182-.00782.07666-.01612.15308-.03126.22949-.00378.01856-.00366.03736-.0078.056-.00842.03772-.0249.07483-.03516.11243-.02026.07324-.04176.14636-.06886.219-.00854.02294-.01244.0465-.02172.06933-.01294.032-.0332.06275-.04748.09448-.0348.0774-.07312.15406-.1161.23035-.01562.02771-.0255.05627-.04222.08386-.014.0232-.03468.04541-.04958.06861-.05834.09106-.12426.18054-.19458.26928-.02392.03028-.04088.06189-.06616.0918-.009.01074-.0222.02051-.03148.03125a4.18214,4.18214,0,0,1-.4469.44116c-.01246.01062-.02076.02246-.03334.033-.01928.016-.04576.02966-.06542.04553a5.47472,5.47472,0,0,1-.69018.48108L43.80555,67.19763,38.434,64.00793,19.04041,75.20483,3,65.55994l.10314-8.34839,12.1106-6.992-4.82154-2.863.15906-12.85926L64.40893,3m32.46742,7.32166-.0039.00524a.81739.81739,0,0,1-.19595.19446l-.00125.00089-.00064.00046q-.03284.02343-.0695.04553.03671-.02206.0695-.04553l.00064-.00046.00125-.00089a.81175.81175,0,0,0,.19985-.1997m9.47058,5.72863-.0039.0055a.858.858,0,0,1-.26624.24035.851.851,0,0,0,.27014-.24585M64.40891,0a2.99767,2.99767,0,0,0-1.51448.41034L9.03677,31.90765a3,3,0,0,0-1.48528,2.55256L7.39243,47.31949A3.00007,3.00007,0,0,0,8.86051,49.9361l.41618.24713L1.60317,54.61346a3,3,0,0,0-1.4998,2.561L.00023,65.52287A3,3,0,0,0,1.45409,68.131l16.0404,9.64491a3.00008,3.00008,0,0,0,3.04592.02706L38.41266,67.48434l3.86115,2.29279a3.00006,3.00006,0,0,0,3.04624.01016L94.40721,41.07977a8.35621,8.35621,0,0,0,.96833-.66305c.06673-.04749.13018-.09616.18861-.14466.04765-.03952.098-.08438.14714-.13079a7.21853,7.21853,0,0,0,.61263-.60569c.04729-.04937.093-.1.13339-.14807.0629-.07443.12256-.15286.17943-.23373.08659-.11222.16945-.22656.24693-.3421.05555-.07645.10708-.15366.15328-.23.05089-.08393.09677-.16874.13917-.25486q.07979-.14781.14931-.29654c.049-.095.09325-.19024.1317-.28524.02877-.07114.06-.15961.08673-.24375.03426-.09848.06519-.19778.09387-.29761.03655-.11105.0676-.22134.0921-.33108.01654-.0741.032-.16095.04408-.24469.01811-.10709.03181-.2099.04325-.31217a3.50477,3.50477,0,0,0,.03693-.36007c.00306-.06134.00522-.12839.006-.19544l.11213-9.06829,9.62841-5.78534a4.06818,4.06818,0,0,0,.45036-.31336,3.84651,3.84651,0,0,0,.51194-.49542c.07065-.08212.13748-.1695.2009-.26.05374-.07361.10378-.14874.14906-.22363a3.54707,3.54707,0,0,0,.25536-.51032,3.47971,3.47971,0,0,0,.2496-1.14316c.0021-.04574.00362-.10763.00362-.15344l.02108-2.00781a3.00021,3.00021,0,0,0-.119-.871,3.7002,3.7002,0,0,0-1.721-2.28556,4.91288,4.91288,0,0,0-4.8843-.00192l-8.052,4.83813q-.0543-.03327-.10936-.066l-.07374-.0438L98.129,15.17868a4.07,4.07,0,0,0,.4569-.31863,3.815,3.815,0,0,0,.5056-.4899c.07235-.08432.13868-.17105.20131-.26044.0469-.06421.09074-.12918.13061-.19333a3.67112,3.67112,0,0,0,.27292-.53753,3.52231,3.52231,0,0,0,.17538-.56733,3.43415,3.43415,0,0,0,.07608-.58007c.0021-.04572.0035-.10764.0035-.15345l.02108-2.00781-.019-.00021a3.64163,3.64163,0,0,0-1.82229-3.15747,4.91271,4.91271,0,0,0-4.88452.00058L85.10874,11.8028,65.94067.4205A2.99837,2.99837,0,0,0,64.40891,0Z"/></g></g></g></svg>