<svg xmlns="http://www.w3.org/2000/svg" viewBox="0 0 195.13396 189.17072"><defs><style>.cls-1{fill:#dededf;opacity:0.9;}.cls-2{fill:#d7282f;}.cls-3{fill:#666;}.cls-4{fill:#e5e5e5;}.cls-5{fill:#fff;}.cls-6{fill:none;stroke:#000;stroke-linecap:round;stroke-linejoin:round;}</style></defs><title>Light Sensor</title><g id="Layer_2" data-name="Layer 2"><g id="EDR"><g id="Light_Sensor" data-name="Light Sensor"><g id="Shadow"><path id="Unselected" class="cls-1" d="M10.53437,126.31953l119.881-69.5697,60.27448,34.71533a8.873,8.873,0,0,1,.0137,15.36942L84.36,168.35792a27.37683,27.37683,0,0,1-27.36743.02707l-46.453-26.68936A8.873,8.873,0,0,1,10.53437,126.31953Z"/><path id="Selected" class="cls-1" d="M10.53437,143.45369,130.41534,73.884l60.27448,34.71534a8.873,8.873,0,0,1,.0137,15.36942L84.36,185.49207a27.37681,27.37681,0,0,1-27.36743.02708l-46.453-26.68937A8.873,8.873,0,0,1,10.53437,143.45369Z"/></g><g id="Color"><path id="Red" class="cls-2" d="M185.7342,43.52931a4.65711,4.65711,0,0,0-2.63465-3.41211l.02344-.00611L167.4117,31.0344l12.8904-7.91109a.88762.88762,0,0,0-.00749-1.53626l-11.28632-6.46189a2.49192,2.49192,0,0,0-2.48955.00763l-13.08931,7.82372-32.932-19.02535A6.58312,6.58312,0,0,0,115.153,3.3108a12.42051,12.42051,0,0,0-2.45056,1.15552L46.36884,42.63868a14.32051,14.32051,0,0,0-7.094,11.0188L37.25971,68.17579,4.48481,86.96986a.80781.80781,0,0,0-.40248.62576L3.00227,99.17594a.53084.53084,0,0,0,.2634.51075c3.88447,2.23672,45.14307,25.99225,66.2759,38.16012a2.36845,2.36845,0,0,0,1.59985.34644,3.48265,3.48265,0,0,0,1.4-.46851L188.182,70.71424Z"/><g id="Gray"><path class="cls-3" d="M36.23008,67.399l67.04579,39.07932,10.25-5.66667.91667-8.66666s1.85974-6.36127,7.34654-9.05564,48.07013-27.611,48.07013-27.611,7.66666-3.25,8.33333,4.66667a27.00208,27.00208,0,0,0,.65754,2.97656l8.25913-4.8099,1.41666,13.66667L71.19254,139.4143,1.44114,100.145,2.99993,86.58229Z"/></g><ellipse id="Light_Sensor-2" data-name="Light Sensor" class="cls-4" cx="112.24669" cy="44.38961" rx="9.54238" ry="4.90124"/><g id="Wire_Color_copy" data-name="Wire Color copy"><polygon id="White" class="cls-5" points="158.728 26.018 173.279 17.632 168.466 15.101 153.429 22.957 158.728 26.018"/><g id="Black"><polygon points="162.884 28.142 177.73 19.161 182.418 22.224 168.774 32.261 162.884 28.142"/></g><polygon id="Red-2" data-name="Red" class="cls-2" points="158.205 25.59 173.279 16.779 177.286 19.704 162.884 28.27 158.205 25.59"/></g></g><g id="Outline"><g id="Outside_Outline" data-name="Outside Outline"><path d="M117.08879,3a6.86593,6.86593,0,0,1,3.4086.93117l32.932,19.02535,13.08936-7.82369a2.49184,2.49184,0,0,1,2.48953-.00766l11.28631,6.46192a.88758.88758,0,0,1,.00748,1.53624l-12.89038,7.9111L183.123,40.1111l-.02343.00612a4.65705,4.65705,0,0,1,2.63464,3.41209L188.182,70.71425l-115.6405,67.0105a3.48266,3.48266,0,0,1-1.4.46849,2.24936,2.24936,0,0,1-.33475.025,2.397,2.397,0,0,1-1.26511-.37147C48.40874,125.67893,7.15013,101.9234,3.26567,99.68669a.53082.53082,0,0,1-.26339-.51076l1.08-11.5803a.80777.80777,0,0,1,.4025-.62575l32.7749-18.79407L39.27486,53.6575a14.32052,14.32052,0,0,1,7.094-11.01881L112.70247,4.46631a12.42061,12.42061,0,0,1,2.45056-1.1555A6.10307,6.10307,0,0,1,117.08879,3m.00016-3h-.00016A9.09267,9.09267,0,0,0,114.203.46521a15.43533,15.43533,0,0,0-3.02075,1.41466L44.87255,40.0385a17.35693,17.35693,0,0,0-8.57734,13.26515L34.49059,66.30547,2.99248,84.36737A3.812,3.812,0,0,0,1.09529,87.317l-1.08,11.58037a3.54045,3.54045,0,0,0,1.75338,3.38913L30.30135,118.715l37.69671,21.70487a5.41883,5.41883,0,0,0,2.8086.79844,5.27065,5.27065,0,0,0,.78018-.05828,6.74817,6.74817,0,0,0,2.57544-.90718L189.68611,73.30994a2.99994,2.99994,0,0,0,1.48377-2.86472l-2.44779-27.18494a2.99328,2.99328,0,0,0-.05477-.36085,7.7032,7.7032,0,0,0-3.977-5.34638c-.022-.01348-.04413-.02665-.06656-.03961L173.274,30.95651l8.57941-5.26536a3.88758,3.88758,0,0,0-.06824-6.70758l-11.28628-6.46189a5.49169,5.49169,0,0,0-5.48666.01685l-11.60865,6.9384L121.9981,1.3335A9.86107,9.86107,0,0,0,117.089,0Z"/></g><g id="Main_Outline" data-name="Main Outline"><path id="Main_Outline-2" data-name="Main Outline" class="cls-6" d="M4.48578,87.56764C26.23218,100.08876,47.022,112.059,68.76826,124.58009a3.295,3.295,0,0,0,3.38916-.03516q15.48211-8.94177,30.96423-17.88342l.09717-16.36047a14.3211,14.3211,0,0,1,7.09411-11.01893l65.939-38.00085c5.20263-3.127,8.74438-1.188,9.4823,2.248L188.182,70.71424,72.54142,137.72477a3.48256,3.48256,0,0,1-1.4.46848,2.36845,2.36845,0,0,1-1.59985-.34644C48.41136,125.68046,7.16024,101.92913,3.26709,99.68756a.53341.53341,0,0,1-.26465-.51342L4.08236,87.59555a.80771.80771,0,0,1,.40243-.62568l32.775-18.794,2.015-14.51849a14.32116,14.32116,0,0,1,7.09417-11.01886L112.70248,4.46624a12.42833,12.42833,0,0,1,2.45045-1.15545,6.58326,6.58326,0,0,1,5.34443.62023l62.62564,36.18"/><path id="Main_Outline-3" data-name="Main Outline" class="cls-6" d="M102.72629,106.91258c1.99946-1.1548,5.57341-3.21222,10.81309-6.22589v-.25014l.59894-6.00875a14.32107,14.32107,0,0,1,7.09411-11.01892l47.18518-27.08777c5.20264-3.127,8.74439-1.188,9.4823,2.248l.95366,4.5691c3.833-2.20521,6.76379-3.89281,8.38064-4.82663"/></g><line id="Line_1" data-name="Line 1" class="cls-6" x1="37.25977" y1="68.17588" x2="102.96337" y2="106.18662"/><g id="Hole"><ellipse class="cls-6" cx="52.98484" cy="97.14776" rx="9.96293" ry="5.80712"/></g><g id="Top_Circles" data-name="Top Circles"><ellipse class="cls-6" cx="112.24669" cy="41.73575" rx="12.96183" ry="7.55509"/><ellipse class="cls-6" cx="112.24669" cy="44.38961" rx="9.54238" ry="4.90124"/></g><path id="Wires" class="cls-6" d="M154.01834,23.03694l12.53174-7.35748a3.74636,3.74636,0,0,1,3.74262-.002l2.77319,1.59668,4.22052,2.42994-14.40229,8.43743-4.2204-2.42993,14.40217-8.43744,4.22052,2.42994,2.5517,1.46923a1.64464,1.64464,0,0,1,.00165,2.84961l-11.93165,7.01141Z"/></g></g></g></g></svg>