<svg xmlns="http://www.w3.org/2000/svg" viewBox="0 0 148.91414 173.42845"><defs><style>.cls-1{fill:#dededf;opacity:0.9;}.cls-2,.cls-8{fill:none;stroke:#000;}.cls-2{stroke-linecap:round;stroke-linejoin:round;}.cls-3{fill:#666;}.cls-4{fill:#414042;}.cls-5{fill:#d7282f;}.cls-6{fill:#333132;}.cls-7{fill:#e6e7e8;}.cls-8{stroke-miterlimit:10;}</style></defs><title>Limit Switch</title><g id="Layer_2" data-name="Layer 2"><g id="EDR"><g id="Limit_Switch" data-name="Limit Switch"><g id="Shadows"><path id="Shadow_Unselected_Height" data-name="Shadow Unselected Height" class="cls-1" d="M47.31378,132.59624l46.24914-27.02419a14.34383,14.34383,0,0,1,14.44268.05639l20.105,11.82019a7.75856,7.75856,0,0,1,.012,13.439l-41.64981,24.168a23.93825,23.93825,0,0,1-23.93.02368L47.3183,146.04107A7.75857,7.75857,0,0,1,47.31378,132.59624Z"/><path id="Shadow_Selected_Height" data-name="Shadow Selected Height" class="cls-1" d="M47.02231,147.75247l46.24914-27.02419a14.34382,14.34382,0,0,1,14.44268.05639l20.105,11.82019a7.75856,7.75856,0,0,1,.012,13.439l-41.64982,24.168a23.93823,23.93823,0,0,1-23.93.02368L47.02683,161.1973A7.75857,7.75857,0,0,1,47.02231,147.75247Z"/></g><g id="Color"><line class="cls-2" x1="79.44954" y1="109.59997" x2="84.72954" y2="112.82663"/><path class="cls-3" d="M128.15863,11.98868a.78175.78175,0,0,0-.32715-.71888l.002.00074-.00372-.0022-.00012-.00012.00384.00219L109.95727,1.77187l-.0061-.00342a.519.519,0,0,0-.05573-.02734.56175.56175,0,0,0-.05865-.02075c-.01331-.00379-.02716-.00647-.0409-.0094l-.0086-.002-.01294-.00306a.66621.66621,0,0,0-.06726-.00781.67489.67489,0,0,0-.07373-.00049l-.02564.00244-.017.00171c-.01355.00147-.02685.002-.04065.00415a.89806.89806,0,0,0-.09851.021c-.01428.00391-.02935.0105-.04388.01514l-.03919.01355c-.01641.006-.03234.00988-.049.017a1.3626,1.3626,0,0,0-.158.07862L48.40411,36.52465a1.87812,1.87812,0,0,0-.37549.29065c-.01739.01709-.03357.036-.05054.05383l-.01794.01917c-.01782.019-.03638.03723-.05371.05713q-.04642.05346-.09039.1101-.038.04908-.07392.10022-.033.04725-.06427.09607c-.01977.03076-.03888.06226-.05737.09387l-.00531.00953-.00159.0028c-.0155.02686-.0307.05384-.04523.08118q-.0249.04669-.04785.09448c-.01544.03186-.03015.06409-.04419.09644q-.02151.04962-.04083.09985-.02014.05236-.03772.1051c-.00677.02051-.01257.041-.01874.06153l-.00329.01074-.0127.0415q-.01776.06446-.03143.12842-.01667.07838-.02679.15588a1.67769,1.67769,0,0,0-.01435.22059l.149,85.82217a.77567.77567,0,0,0,.32349.71082l11.25628,6.5382-.00372-.00427a.78533.78533,0,0,0,.80108-.07507L127.1939,92.54531a2.4445,2.4445,0,0,0,1.11371-1.92163Zm-.87476-.74781c.019-.0061.03656-.00744.05524-.0122-.01905.00488-.03687.00622-.05628.01245Zm.20013-.042a.66253.66253,0,0,1,.07013.00342.64066.64066,0,0,0-.07238-.00317Zm.18811.01074a.54326.54326,0,0,1,.0622.02344.55215.55215,0,0,0-.066-.02429Zm.15754.0586h-.00013l-.00164-.001ZM58.78222,131.25283l.00159.005Z"/><path id="Gap" class="cls-4" d="M111.837,86.43957,84.50709,102.20423a10.70033,10.70033,0,0,0-3.93975,3.95234,9.95483,9.95483,0,0,0-1.17842,5.05578l.003.32129a2.49985,2.49985,0,0,0,3.74376,2.14471l28.10446-16.12429a9.80319,9.80319,0,0,0,5.10036-9.36743C116.28876,87.07369,114.94288,84.82193,111.837,86.43957Z"/><line class="cls-2" x1="102.5366" y1="91.7584" x2="111.81974" y2="97.19369"/><path class="cls-2" d="M111.837,86.43957,84.50709,102.20423a10.70033,10.70033,0,0,0-3.93975,3.95234,9.95483,9.95483,0,0,0-1.17842,5.05578l.003.32129a2.49985,2.49985,0,0,0,3.74376,2.14471l28.10446-16.12429a9.80319,9.80319,0,0,0,5.10036-9.36743C116.28876,87.07369,114.94288,84.82193,111.837,86.43957Z"/><path class="cls-5" d="M58.26593,105.03312V52.17453a12.83417,12.83417,0,0,1,6.41763-11.115L93.56827,24.131l.10743-1.34059,4.33166-1.19278L119.313,9.52269a2.949,2.949,0,0,1,2.94324-.00317l6.65255,3.82134s2.11943.92344,2.36943,2.42344a32.0733,32.0733,0,0,1,.25584,4l-.2035,52.63017s-.02244,4.101-3.06559,5.85734-53.44478,30.78479-53.44478,30.78479l-6.83522,1.30933Z"/><path id="Black_Wire" data-name="Black Wire" class="cls-6" d="M131.50023,28.46707l5.28593-2.98456s1.56642-.32838,2.45937,2.19515l-7.7453,4.60706Z"/><path id="Red_Wire" data-name="Red Wire" class="cls-5" d="M131.50023,32.21395l8.288-4.80644s1.87343-.49843,2.87031,2.26875L131.50023,36.0316Z"/><path id="White_Wire" data-name="White Wire" class="cls-7" d="M131.50023,36.01117l11.70833-6.67866A2.73054,2.73054,0,0,1,145.632,33.32l-14.13177,8.14284Z"/><path id="Lever" class="cls-7" d="M106.90876,6.06482a2.336,2.336,0,0,1,2.2.22917c1.26042.73333,12.42083,7.19583,12.42083,7.19583l-1.60416.98542L54.88793,35.07732,19.32126,46.30649a4.2793,4.2793,0,0,1-3.07083-.45834c-1.62709-.89375-12.28334-7.05833-12.28334-7.05833s-2.24583-1.65.1375-6.325,5.54584-3.9875,5.54584-3.9875l15.21666,2.475,1.28334.77917,72.82916-23.1Z"/><path id="Gray_Body" data-name="Gray Body" class="cls-8" d="M58.266,105.03313"/><path id="Gray_Body-2" data-name="Gray Body" class="cls-8" d="M58.266,105.03313l3.19662,1.81865s4.81412,2.84706,6.52236,3.49412a4.5264,4.5264,0,0,0,2.69176-.25883c1.82471-.58235,4.3353-.97058,4.68471-1.26823S115.34964,85.7059,115.34964,85.7059l12.9153-7.45412a7.40475,7.40475,0,0,0,2.88965-4.44529,43.48365,43.48365,0,0,0,.34564-6.65824c.01294-1.13882-.04772-25.6027-.04772-25.6027L145.632,33.32h0a3.42351,3.42351,0,0,0-.03438-2.57812,3.05992,3.05992,0,0,0-2.38906-1.40938l-.55.34375a2.92111,2.92111,0,0,0-1.13539-1.75272,2.00457,2.00457,0,0,0-2.27764-.33647h0a2.654,2.654,0,0,0-2.45937-2.10456l-5.24771,3.06929.01719-5.3625-.03438-5.44844c-.03437-3.54062-2.6125-4.4-2.6125-4.4-1.15984-.622-4.36208-2.459-7.41992-4.25277"/></g><g id="Stroke"><g id="Inner_Lines" data-name="Inner Lines"><line class="cls-2" x1="93.93108" y1="23.92185" x2="78.55158" y2="32.78801"/><path class="cls-2" d="M72.95564,36.014,65.04,40.57732a14.61925,14.61925,0,0,0-5.59787,6.47086,12.12425,12.12425,0,0,0-1.1647,4.91764c-.02589,2.71765,0,78.99516,0,78.99516"/><path class="cls-2" d="M122.89314,9.319a5.20058,5.20058,0,0,0-3.33438.11458,8.66048,8.66048,0,0,0-1.93255.82823l-.81078.46741"/><path class="cls-2" d="M76.57788,48.6359a6.66735,6.66735,0,0,0-3.44883,6.19882c.15085,2.613.00054,51.26135.00054,51.26135s-.12348,3.88747,2.23182,2.72277c.41144-.20346,39.98823-23.11294,39.98823-23.11294l12.9153-7.45412a7.59232,7.59232,0,0,0,2.66049-4.44529,52.63722,52.63722,0,0,0,.5748-6.65824c.01294-1.13882-.02588-25.90824-.02588-25.90824l.03235-21.39823s.08863-1.2856-.70529-1.79235c-.60824-.38824-2.27765.64058-2.27765.64058Z"/><polygon class="cls-2" points="92.609 23.138 98.968 26.61 119.925 14.475 92.609 23.138"/><path class="cls-2" d="M131.50023,28.46707l5.28593-2.98456s1.48878-.32838,2.38172,2.19515l-7.66765,4.60706Z"/><path class="cls-2" d="M131.50023,32.21395l8.288-4.80644s1.87343-.49843,2.87031,2.26875L131.50023,36.0316Z"/><path class="cls-2" d="M131.50023,36.01117l11.70833-6.67866A2.73054,2.73054,0,0,1,145.632,33.32l-14.13177,8.14284Z"/><path class="cls-2" d="M76.9008,31.80036l1.72178.97613-.05176.82823-4.93059,2.84706-4.55529-2.75647s-.79589-.51765.07764-1.06118c.34772-.21636,1.13632-.68084,1.9597-1.16162"/><path class="cls-2" d="M76.90141,33.96707l-1.99726,1.15177s-.076-4.66983.069-5.431c.17255-.90588,1.50768-1.89236,1.82039-1.10432A46.96408,46.96408,0,0,1,76.90141,33.96707Z"/><path class="cls-2" d="M71.12533,29.91217v3.01961l3.77882,2.18706V30.24s.04314-1.48392,1.13883-1.86352Z"/><path class="cls-2" d="M26.15043,31.73149l11.1898,6.48029s-3.99882-.49177-8.92941-1.39765-6.19882-.97059-6.84588-.9447-3.36471.78941-5.00824,4.51647.02588,5.61647.02588,5.61647"/><path class="cls-2" d="M106.90876,6.06482a2.336,2.336,0,0,1,2.2.22917c1.26042.73333,12.42083,7.19583,12.42083,7.19583l-1.60416.98542L54.88793,35.07732,19.32126,46.30649a4.2793,4.2793,0,0,1-3.07083-.45834c-1.62709-.89375-12.28334-7.05833-12.28334-7.05833s-2.24583-1.65.1375-6.325,5.54584-3.9875,5.54584-3.9875l15.21666,2.475,1.28334.77917,72.82916-23.1Z"/></g><g id="Outer_Line" data-name="Outer Line"><path d="M110.3656,3a5.60759,5.60759,0,0,1,1.77935.31491l3.26117,1.9843c2.3122,1.51843,11.40229,6.80045,13.54187,7.9479,0,0,2.57813.85938,2.61249,4.4l.03443,5.44845-.01722,5.3625,5.24775-3.06927a2.654,2.654,0,0,1,2.45935,2.10455l.00048.00243.00006.00012.01148.05515-.01148-.05515-.00006-.00012-.00048-.00243a2.03949,2.03949,0,0,1,.91491-.21431,1.98819,1.98819,0,0,1,1.36273.55078,2.92122,2.92122,0,0,1,1.13538,1.75273l.55-.34375a3.06,3.06,0,0,1,2.3891,1.40935,3.42361,3.42361,0,0,1,.03436,2.57812l-14.1795,8.22555s.06066,24.46388.04773,25.6027a43.4824,43.4824,0,0,1-.34565,6.65823,7.4048,7.4048,0,0,1-2.88965,4.4453l-.2135,11.41877a3.61655,3.61655,0,0,1-1.71875,3.4375L59.96569,130.62972a2.549,2.549,0,0,1-2.6275-.06882l-8.53131-5.09283a2.48232,2.48232,0,0,1-1.15259-2.09479c-.00329-10.21916-.02337-74.65228.00049-77.15408a12.12452,12.12452,0,0,1,1.16467-4.91765,16.48906,16.48906,0,0,1,4.12348-5.57165L19.91052,46.00648a3.2399,3.2399,0,0,1-1.47205.31256,4.86272,4.86272,0,0,1-2.54132-.77279c-2.34241-1.42353-11.89081-6.85017-11.89081-6.85017s-1.67157-1.1604-.71392-4.22745A9.45483,9.45483,0,0,1,6.94183,29.0592a3.99506,3.99506,0,0,1,2.2392-.71066,4.86569,4.86569,0,0,1,.89257.08948c.90589.16826,14.83277,2.42056,14.83277,2.42056l1.4472.763L100.5971,8.04273l6.79413-4.06353a8.03637,8.03637,0,0,1,1.93256-.82822A3.40045,3.40045,0,0,1,110.3656,3m0-3a6.38255,6.38255,0,0,0-1.96387.29618,11.3602,11.3602,0,0,0-2.60266,1.13964L99.35656,5.289,26.64209,28.38226l-.33667-.17749a3.001,3.001,0,0,0-.92011-.30772c-5.58435-.9031-14.12445-2.28982-14.76385-2.40857A7.8219,7.8219,0,0,0,9.181,25.34855a7.03335,7.03335,0,0,0-3.8722,1.19405A12.40612,12.40612,0,0,0,.42877,33.5745c-1.27417,4.08075.57391,6.68848,1.86682,7.586q.11087.077.22845.14381c.0951.054,9.53675,5.42109,11.81507,6.80567a7.8303,7.8303,0,0,0,4.09936,1.2091,6.47959,6.47959,0,0,0,2.55292-.507l24.63336-7.66359a15.06759,15.06759,0,0,0-.96985,5.0422c-.02276,2.38673-.00622,59.68058-.00061,77.18358a5.46346,5.46346,0,0,0,2.539,4.623q.03764.02394.07587.04682l8.50012,5.0742a5.54892,5.54892,0,0,0,5.67536.12163l66.40594-37.61521a6.589,6.589,0,0,0,3.24066-6.049l.18744-10.02554a9.82211,9.82211,0,0,0,2.87982-5.378,41.00893,41.00893,0,0,0,.3805-6.44553c-.00086-.24885-.00171-.46372.0003-.638.01111-.9792-.02966-18.26743-.04333-23.91128l12.68066-7.356a3,3,0,0,0,1.24561-1.3983,6.37619,6.37619,0,0,0-.06519-5.04008,5.67833,5.67833,0,0,0-4.03613-3.01257,8.28121,8.28121,0,0,0-.74433-.76383,5.01664,5.01664,0,0,0-2.58905-1.26522,5.71407,5.71407,0,0,0-4.0672-1.95095c-.03161-.001-.06329-.0015-.09484-.0015a2.99963,2.99963,0,0,0-1.51465.4104l-.71631.41895.00037-.11295-.03449-5.477a7.46927,7.46927,0,0,0-4.35681-7.11252c-2.43213-1.32269-11.04285-6.33981-13.15076-7.724q-.04313-.02835-.08734-.05523L113.70434.75205a2.99815,2.99815,0,0,0-.492-.24082A8.5746,8.5746,0,0,0,110.3656,0Z"/></g></g></g></g></g></svg>