<svg xmlns="http://www.w3.org/2000/svg" viewBox="0 0 192.36719 198.48902"><defs><style>.cls-1{fill:#dededf;opacity:0.9;}.cls-2{fill:#d7282f;}.cls-3{fill:#666;}.cls-4{fill:#333;}.cls-5{fill:#191919;}.cls-6{fill:#fff;}.cls-10,.cls-7,.cls-8,.cls-9{fill:none;stroke:#000;}.cls-7,.cls-8,.cls-9{stroke-linecap:round;stroke-linejoin:round;}.cls-8{stroke-width:0.99237px;}.cls-9{stroke-width:0.86707px;}.cls-10{stroke-miterlimit:10;}</style></defs><title>Line Tracker</title><g id="Layer_2" data-name="Layer 2"><g id="EDR"><g id="Line_Tracker" data-name="Line Tracker"><g id="Shadows"><path id="Unselected" class="cls-1" d="M19.38058,152.759l119.62023-69.8252,31.04575,17.76912a8.873,8.873,0,0,1,.01369,15.36942l-106.658,61.60393a27.37683,27.37683,0,0,1-27.36743.02707l-16.6491-9.56825A8.873,8.873,0,0,1,19.38058,152.759Z"/><path id="Selected" class="cls-1" d="M19.38058,169.89311l119.65148-69.77875,31.0145,17.72268a8.873,8.873,0,0,1,.01369,15.36942l-106.658,61.60392a27.37681,27.37681,0,0,1-27.36743.02708l-16.6491-9.56825A8.873,8.873,0,0,1,19.38058,169.89311Z"/></g><g id="Color"><g id="Base_Color" data-name="Base Color"><path id="Outside_Outline" data-name="Outside Outline" class="cls-2" d="M131.21478,4.39289,46.92652,53.05121a14.32121,14.32121,0,0,0-7.09418,11.01886l-3.7049,38.15733h0L6.00267,119.61811a3.63056,3.63056,0,0,0-1.79844,2.79339L3.01542,134.65535a3.31508,3.31508,0,0,0,1.64542,3.19328l29.23539,16.833a3.93327,3.93327,0,0,0,3.929-.00223L170.31373,78.19577a3.74266,3.74266,0,0,0,1.854-3.603l-1.91283-19.70065,6.26447-4.85978.00372-.28709,12.01461-7.41034a1.68782,1.68782,0,0,0,.00792-2.90187l-7.91394-4.73251a3.956,3.956,0,0,0-4.01476-.027l-7.455,4.2562-.602-.33039L167.2381,23.82165a9.65349,9.65349,0,0,0-4.79146-7.433L141.60222,4.387A10.39852,10.39852,0,0,0,131.21478,4.39289Z"/></g><g id="Gray_Bottom" data-name="Gray Bottom"><path id="Outside_Outline-2" data-name="Outside Outline" class="cls-3" d="M171.50837,62.09627,71.086,120.06871c-4.42395,1.65467-5.4024-.57983-5.30316-.20886L36.12744,102.2274h0L6.00267,119.61811a3.63056,3.63056,0,0,0-1.79844,2.79339L3.01542,134.65535a3.31508,3.31508,0,0,0,1.64542,3.19328l29.23539,16.833a3.93327,3.93327,0,0,0,3.929-.00223L170.31373,78.19577a3.74266,3.74266,0,0,0,1.854-3.603Z"/></g><g id="Sensor_Color" data-name="Sensor Color"><polygon class="cls-4" points="77.605 41.255 94.368 51.011 129.241 31.15 112.201 21.16 77.605 41.255"/><path class="cls-5" d="M85.87306,41.25017,95.88862,35.454s3.34375.8125,3.5625-1.46875c.8125-1.21875.60813-.99415.60813-.99415l10.39187-6.02875,10.446,6.25576-10.03975,5.79839s-4.53125-1.71875-2.75,1.65625c-1.25.625-11.625,6.66283-11.625,6.66283Z"/></g><g id="Wire_Color" data-name="Wire Color"><polygon id="White" class="cls-6" points="172.185 40.85 181.857 35.652 177.71 33.462 169.504 39.301 172.185 40.85"/><g id="Black"><polygon points="176.12 43.672 186.974 37.523 191.662 40.585 176.112 49.725 176.12 43.672"/></g><polygon id="Red" class="cls-2" points="172.185 40.85 182.523 35.14 186.53 38.066 176.894 43.55 172.185 40.85"/></g></g><g id="Outline"><g id="Outside_Outline-3" data-name="Outside Outline"><path d="M136.41361,3a10.392,10.392,0,0,1,5.18859,1.387l20.84445,12.00168a9.65372,9.65372,0,0,1,4.79146,7.433l1.32172,14.77766.60206.33037,7.455-4.25618a3.95609,3.95609,0,0,1,4.01478.027l7.91394,4.73249a1.68787,1.68787,0,0,1-.00794,2.90192l-12.01459,7.41031-.00372.28709-6.26447,4.85979,1.91282,19.70065a3.7427,3.7427,0,0,1-1.854,3.603L37.82526,154.67937a3.93328,3.93328,0,0,1-3.929.00225l-29.23537-16.833a3.31511,3.31511,0,0,1-1.64544-3.19329l1.18881-12.24388a3.63044,3.63044,0,0,1,1.79845-2.79336L36.12745,102.2274l3.70488-38.15735a14.32124,14.32124,0,0,1,7.09419-11.01884L131.21477,4.39288A10.3919,10.3919,0,0,1,136.41361,3m0-3a13.41663,13.41663,0,0,0-6.69871,1.79474L45.42664,50.45305a17.35561,17.35561,0,0,0-8.58027,13.32707L33.29067,100.401,4.5028,117.02a6.64361,6.64361,0,0,0-3.28453,5.10165L.02946,134.36546a6.32752,6.32752,0,0,0,3.13447,6.083l29.23537,16.833a6.93321,6.93321,0,0,0,6.92584-.00394L171.81361,80.79393a6.75719,6.75719,0,0,0,3.34007-6.49109l-1.753-18.05429,4.95749-3.84587a2.99876,2.99876,0,0,0,.61432-.64351l11.122-6.85977a4.68785,4.68785,0,0,0-.00916-8.04112l-7.914-4.73253a6.9559,6.9559,0,0,0-7.05941-.04747l-3.92308,2.2397-.9627-10.76358a12.68707,12.68707,0,0,0-6.28259-9.76557L143.09914,1.78714A13.41767,13.41767,0,0,0,136.41361,0Z"/></g><g id="Lines"><path class="cls-7" d="M167.53177,18.26a10.39852,10.39852,0,0,0-10.38744.00588L72.85607,66.9242A14.32116,14.32116,0,0,0,65.7619,77.94306L65.514,119.69163"/><path class="cls-7" d="M35.12525,102.19444,65.514,119.69151a5.55506,5.55506,0,0,0,5.5719.3772Q121.783,90.802,172.48013,61.53529"/><path class="cls-7" d="M71.8617,119.62315q-16.59457,9.57971-33.18915,19.15967a5.55506,5.55506,0,0,1-5.5719-.3772L5.901,122.74459a2.02954,2.02954,0,0,1-1.0638-1.73142l.0003-.02137a2.445,2.445,0,0,1,1.4328-2.09375"/></g><g id="Sensor"><line class="cls-7" x1="96.22471" y1="35.20469" x2="85.87306" y2="41.18056"/><polyline class="cls-7" points="120.897 32.947 110.503 26.962 99.243 33.462"/><path class="cls-7" d="M99.20268,32.99107v1.49105c0,.5967-.812,1.08042-1.81372,1.08042a2.52057,2.52057,0,0,1-1.314-.33565V33.73025"/><path class="cls-7" d="M112.41358,21.15977,77.38874,41.37925l17.08837,9.83911L129.502,30.99913ZM84.29218,40.34l11.64636-6.72339a2.34571,2.34571,0,0,0,1.47418.45483c1.00171,0,1.81372-.48364,1.81372-1.08032a1.03827,1.03827,0,0,0-.72-.85669l11.9961-6.92529,12.15008,6.9956L110.8252,39.03233a2.3606,2.3606,0,0,0-1.45868-.44336c-1.00171,0-1.81372.48364-1.81372,1.08032a1.02814,1.02814,0,0,0,.70123.84741L96.4422,47.33555Z"/></g><g id="Hole"><ellipse class="cls-8" cx="36.06623" cy="121.56472" rx="9.61608" ry="5.49984"/><ellipse class="cls-9" cx="36.06623" cy="122.29381" rx="8.46294" ry="4.77075"/></g><g id="Back"><g id="Back-2" data-name="Back"><path d="M169.588,40.17142l6.14665,3.50921-.07689,5.92267-4.70259,3.64812-1.36717-13.08m-1.0381-1.59111,1.705,16.31178,6.26447-4.85979.089-6.85133-8.05839-4.60066Z"/></g><line class="cls-9" x1="176.13025" y1="43.45499" x2="170.08747" y2="46.91889"/></g><g id="Wires"><path class="cls-10" d="M172.21,41.063l9.64716-5.41059-1.32454-.78754A3.74664,3.74664,0,0,0,176.79,34.867l-7.812,4.35224"/><polyline class="cls-10" points="176.12 43.672 186.078 38.082 181.857 35.652 172.21 41.063"/><path class="cls-10" d="M176.11177,49.47,188.631,42.40117a1.64462,1.64462,0,0,0-.00162-2.84958l-2.55168-1.4692-9.95743,5.5897"/></g></g></g></g></g></svg>