<svg xmlns="http://www.w3.org/2000/svg" viewBox="0 0 235.82752 246.71611"><defs><style>.cls-1{fill:#dededf;opacity:0.9;}.cls-2,.cls-4{fill:#666;}.cls-3{fill:none;stroke-linecap:round;}.cls-3,.cls-4,.cls-6,.cls-7{stroke:#000;stroke-linejoin:round;}.cls-5{fill:#d7282f;}.cls-6{fill:#0075c9;}.cls-7{fill:#00953b;}</style></defs><title>Motor1</title><g id="Layer_2" data-name="Layer 2"><g id="EDR"><g id="Motor1"><path id="Shadow_Unselected_Height" data-name="Shadow Unselected Height" class="cls-1" d="M15.26247,157.29325l36.54317-21.07312L122.5519,95.33524,228.842,156.59666a8.873,8.873,0,0,1,.01369,15.36942l-93.48339,54.07138a27.37683,27.37683,0,0,1-27.36744.02708l-92.73727-53.3952A8.873,8.873,0,0,1,15.26247,157.29325Z"/><path id="Shadow_Selected_Height" data-name="Shadow Selected Height" class="cls-1" d="M15.26247,174.29325l36.54317-21.07312,70.63926-40.75989L228.842,173.59666a8.873,8.873,0,0,1,.01369,15.36942l-93.48339,54.07138a27.37683,27.37683,0,0,1-27.36744.02708l-92.73727-53.3952A8.873,8.873,0,0,1,15.26247,174.29325Z"/><g id="Motor_Outline" data-name="Motor Outline"><path class="cls-2" d="M232.213,73.584a15.16939,15.16939,0,0,0-.33338-2.22229A16.54063,16.54063,0,0,0,229.31,65.28986a13.90026,13.90026,0,0,0-2.20593-2.26447c-.18579-.14569-.38635-.29394-.602-.442-.1662-.11414-.5918-.41022-.5918-.41022l-12.352-7.1217h0L124.02185,3.72708a4.137,4.137,0,0,0-4.12854-.3009c-33.51313,18.69458-65.26012,38.10843-98.77324,56.803.19635-.04388.14868-.01117,0,0A19.11742,19.11742,0,0,0,17.70581,62.822a20.22325,20.22325,0,0,0-5.4655,9.382,34.34066,34.34066,0,0,0-.68469,7.66693c.05005,7.63532.006,15.271,0,22.90644q-.00448,5.726,0,11.45324.00036,2.26383,0,4.52778L5.96755,122.17c-4.08692,1.88757-3.84943,9.56683.08282,16.29376s10.27057,10.33856,14.157,8.06671c.03937-.023.07209-.05432.11066-.07837l4.373-2.407.23754-.07563a6.20359,6.20359,0,0,0,.93586.34168,1.63818,1.63818,0,0,0,1.2976-.144,5.088,5.088,0,0,1,1.15906.29034,21.923,21.923,0,0,0,2.93329,8.75366c3.93225,6.727,10.27057,10.33857,14.157,8.06671,2.56348-1.49847,8.08411-4.44891,8.08411-4.44891l53.61426,30.95087.00592.00329-.00305.00208a.46072.46072,0,0,1,.054.03253.70031.70031,0,0,1,.10095.092,1.0087,1.0087,0,0,1,.105.13574,1.1901,1.1901,0,0,1,.08252.15314.81106.81106,0,0,1,.05658.16138l.00336.0177.02.00543c.01617.07721.03229.15442.05035.232a7.94958,7.94958,0,0,0,.5,1.42133,11.15108,11.15108,0,0,0,.75861,1.41516,10.62477,10.62477,0,0,0,.98425,1.31122,9.43856,9.43856,0,0,0,1.11786,1.084,7.53994,7.53994,0,0,0,1.24384.82782,4.59817,4.59817,0,0,0,1.267.46973,5.75527,5.75527,0,0,0,1.072.07019h.22467c.05292-.01172.115-.02954.18194-.05157.0979-.02069.15247-.04792.04816-.0177.43323-.1518.52875-.1698.313-.08918a17.4086,17.4086,0,0,1,3.79205-.76843,19.36914,19.36914,0,0,1,3.20636.1781c.53687.07684,1.06861.153,1.60987.23041.38555.05511,1.99353.28479,3.11322.4447a4.34976,4.34976,0,0,0,2.41748-.36053,2.66847,2.66847,0,0,0,.24774-.11c.06689-.03625.13574-.06579.2005-.106l19.18237-10.137L230.31,137.34282a2.90976,2.90976,0,0,0,.903-.87226,6.76684,6.76684,0,0,0,.67407-1.139,6.385,6.385,0,0,0,.47662-1.43958c.0445-.21979.46381-3.04852.46387-3.76538C232.82751,130.12663,232.22621,73.78925,232.213,73.584Z"/></g><g id="Right_1" data-name="Right 1"><line class="cls-3" x1="131.84535" y1="190.39887" x2="232.34282" y2="133.27186"/></g><g id="Line"><line class="cls-3" x1="124.54731" y1="119.49068" x2="116.84221" y2="126.35197"/></g><g id="Top_6" data-name="Top 6"><path class="cls-3" d="M29.29037,75.75609c.24229-.1707,8.95976-6.24965,9.30765-6.48712.01356-.00925,18.99381-11.3512,18.99381-11.3512"/></g><g id="Top_4" data-name="Top 4"><g id="ARC"><path class="cls-3" d="M148.77758,184.57992a5.53551,5.53551,0,0,0,2.35173-4.93147V120.20966a15.61,15.61,0,0,0-7.18229-12.44009L57.59183,57.91777,43.99422,50.06806a3.90069,3.90069,0,0,0-3.80374-.26965"/></g></g><g id="Motor_Base" data-name="Motor Base"><g id="SPLINE"><path class="cls-3" d="M226.01448,62.26606q.23768.14647.48761.31732c.21564.14807.4162.29632.602.442A13.90026,13.90026,0,0,1,229.31,65.28986a16.54063,16.54063,0,0,1,2.56964,6.07184A15.16939,15.16939,0,0,1,232.213,73.584c.01318.20526.61448,56.54264.61448,56.54264-.00006.71686-.41937,3.54559-.46387,3.76538a6.385,6.385,0,0,1-.47662,1.43958,6.76684,6.76684,0,0,1-.67407,1.139,2.90976,2.90976,0,0,1-.903.87226l-16.69134,10.158-.06726.04077L149.1432,184.38428l-.07684.043-19.73794,10.43061c1.75239-1.24425,2.36178-1.94739,2.51693-7.59846.10089-18.15179-.08483-35.97318.01607-54.125a16.86459,16.86459,0,0,0-4.40656-11.70745,28.01249,28.01249,0,0,0-2.46095-2.06336C158.66744,100.42133,192.341,81.20838,226.01448,62.26606Z"/></g><g id="SPLINE-2" data-name="SPLINE"><path class="cls-3" d="M53.49025,156.82581l53.61957,30.95392.00592.00329-.00305.00208a.46072.46072,0,0,1,.054.03253.70031.70031,0,0,1,.10095.092,1.0087,1.0087,0,0,1,.105.13574,1.1901,1.1901,0,0,1,.08252.15314.81106.81106,0,0,1,.05658.16138l.00336.0177.02.00543c.01617.07721.03229.15442.05035.232a7.94958,7.94958,0,0,0,.5,1.42133,11.15108,11.15108,0,0,0,.75861,1.41516,10.62477,10.62477,0,0,0,.98425,1.31122,9.43856,9.43856,0,0,0,1.11786,1.084,7.53994,7.53994,0,0,0,1.24384.82782,4.59817,4.59817,0,0,0,1.267.46973,5.75527,5.75527,0,0,0,1.072.07019h.22467a2.35383,2.35383,0,0,0,1.488-1.0332c.1001-.24066.215-.48584.31086-.73987l.28973-.11334a11.68551,11.68551,0,0,0,3.16388.79327,4.3046,4.3046,0,0,0,2.60016-.74225,5.088,5.088,0,0,0,1.67926-1.9273,8.13249,8.13249,0,0,0,.8136-2.968q.02965-.32034.04046-.65265v-46.827q-.011-.31978-.04046-.65051a16.26437,16.26437,0,0,0-.8136-3.69159,21.90117,21.90117,0,0,0-1.67932-3.73871,22.51446,22.51446,0,0,0-2.6-3.69036,17.786,17.786,0,0,0-2.86322-2.66529c-.10022-.07324-.20044-.14453-.30072-.21576l-.28973-.47186c-.09382-.38647-.18763-.77295-.31159-1.16174a10.66024,10.66024,0,0,0-1.05774-2.28589,10.12453,10.12453,0,0,0-1.29443-1.69818,7.55406,7.55406,0,0,0-1.6579-1.32953,4.6737,4.6737,0,0,0-1.79974-.63086,2.83115,2.83115,0,0,0-1.47052.20453,2.35947,2.35947,0,0,0-1.052.91412,5.41434,5.41434,0,0,0-.36408.75177l-.33777.09186L29.29036,75.75611l-.33356-.47943c-.10785-.429-.21576-.858-.36017-1.2884a10.57613,10.57613,0,0,0-1.05-2.20312,10.02316,10.02316,0,0,0-1.29224-1.66284,7.53727,7.53727,0,0,0-1.62567-1.28919,4.6259,4.6259,0,0,0-1.77954-.62066,2.83012,2.83012,0,0,0-1.49689.22168,2.35673,2.35673,0,0,0-1.03455.9107,5.32743,5.32743,0,0,0-.36352.77027l-.31049.12536c-1.623-.54028-4.1632-1.09015-5.99255.169-2.17175,1.49481-2.12677,4.70282-2.09558,9.46142.05005,7.63532.006,15.271,0,22.90644q-.00448,5.726,0,11.45324.00036,2.28288,0,4.5658Z"/></g><path class="cls-3" d="M116.84224,193.32807c8.62109,3.001,8.29736-5.49689,8.29736-5.49689s0-32.69672.03583-44.405a21.1299,21.1299,0,0,0-8.57306-17.286s-.75073-4.67236-4.37152-6.73541-4.68634,1.23956-4.68634,1.23956l-.33777.09186S29.88838,76.10132,29.01643,75.55213c-.62689-3.20734-2.66479-6.41767-5.172-7.09137s-3.36725.34064-4.20069,1.77972c-6.08288-2.31067-7.40344,1.9635-7.40344,1.9635a20.22325,20.22325,0,0,1,5.4655-9.382,19.11742,19.11742,0,0,1,3.41426-2.59277,13.768,13.768,0,0,1,3.09583.43976c1.22711,1.06854,32.18341,19.25464,101.17743,58.82172,3.39,2.7077,6.23211,7.13635,6.452,11.46942v59.43878a8.38483,8.38483,0,0,1-1.21631,3.57165l-.02944.03042a4.17019,4.17019,0,0,1-3.58131,1.13988c-1.11972-.1599-2.72769-.38958-3.11324-.44471-1.37171-.19611-2.72577-.38995-4.07984-.58386l2.47034.35351a19.37373,19.37373,0,0,0-3.20673-.17816,19.263,19.263,0,0,0-4.225.89179,2.52163,2.52163,0,0,0,1.14477-.53168A2.5494,2.5494,0,0,0,116.84224,193.32807Z"/><path class="cls-3" d="M124.99391,119.093C67.68385,86.03522,26.076,62.024,24.74178,61.18463A5.00619,5.00619,0,0,0,22.534,60.3949a5.05114,5.05114,0,0,0-1.41386-.16574c33.51313-18.69458,65.26011-38.10843,98.77324-56.803a4.137,4.137,0,0,1,4.12852.30093L225.91029,62.17316Z"/></g><g id="Top_2" data-name="Top 2"><polyline class="cls-3" points="19.821 70.292 24.005 60.786 123.73 3.962"/></g><line id="Top_1" data-name="Top 1" class="cls-3" x1="233.39091" y1="70.31688" x2="131.86142" y2="130.14639"/><g id="Top_7" data-name="Top 7"><path class="cls-3" d="M107.20672,120.73624c.10636-.237,4.07238-7.94714,4.62682-9.23466l101.72477-56.4501"/></g><g id="Screw_3" data-name="Screw 3"><g id="Screw_Cross" data-name="Screw Cross"><path d="M25.422,73.432l.84542-.22137c.06225.17622.1245.35245.19428.52348s.1471.33689.22441.50273l-.84541.22138a.74516.74516,0,0,0-.1864.08551.35778.35778,0,0,0-.119.15194.46826.46826,0,0,0-.03537.19549.6184.6184,0,0,0,.046.21686,1.48515,1.48515,0,0,0,.09918.18834l.97953,1.121-.67936.09131-.97954-1.121c-.05375-.07455-.10751-.14911-.16724-.2209a2.27453,2.27453,0,0,0-.191-.20232,1.79757,1.79757,0,0,0-.187-.15432.831.831,0,0,0-.16478-.09446.53941.53941,0,0,0-.1135-.02919l-.35882-.05953c-.08111-.16533-.16223-.33067-.232-.50171s-.12823-.34777-.18668-.52451l.35881.05954a.22453.22453,0,0,0,.10768-.04007.29123.29123,0,0,0,.07969-.12927.82283.82283,0,0,0,.04018-.19827,1.37744,1.37744,0,0,0-.00058-.24311c-.00657-.07429-.019-.15086-.03146-.22742a7.41641,7.41641,0,0,1-.12779-1.05l.67937-.0913a7.41785,7.41785,0,0,0,.12778,1.05,1.68567,1.68567,0,0,0,.08853.26634.871.871,0,0,0,.15178.225.77058.77058,0,0,0,.19177.15156.54593.54593,0,0,0,.21025.06821A.81988.81988,0,0,0,25.422,73.432Z"/></g><ellipse class="cls-3" cx="24.21591" cy="74.28076" rx="3.10076" ry="4.91525" transform="translate(-36.74756 25.41874) rotate(-33.23171)"/><path class="cls-3" d="M27.7216,77.37292c-1.36778.20134-3.06916-.73648-4.1803-2.43243-1.20035-1.83211-1.31448-3.94244-.36707-5.07133l.143.0262a5.97867,5.97867,0,0,1,3.49234,2.68611,5.52478,5.52478,0,0,1,.91227,4.79154Z"/></g><g id="Screw_2" data-name="Screw 2"><g id="Screw_Cross-2" data-name="Screw Cross"><path d="M113.03964,124.07766l.84541-.22138c.06225.17623.1245.35245.19429.52349s.14709.33688.22441.50273l-.84542.22137a.74547.74547,0,0,0-.18639.08552.35781.35781,0,0,0-.119.15193.46826.46826,0,0,0-.03537.19549.61819.61819,0,0,0,.046.21687,1.48376,1.48376,0,0,0,.09918.18833l.97953,1.121-.67937.0913-.97953-1.121c-.05376-.07456-.10751-.14911-.16724-.2209a2.2718,2.2718,0,0,0-.191-.20232,1.79791,1.79791,0,0,0-.187-.15433.832.832,0,0,0-.16478-.09446.53866.53866,0,0,0-.11351-.02918l-.35881-.05953c-.08112-.16534-.16223-.33067-.232-.50171s-.12824-.34777-.18669-.52451l.35882.05953a.22446.22446,0,0,0,.10768-.04007.29132.29132,0,0,0,.07969-.12927.82276.82276,0,0,0,.04017-.19826,1.37644,1.37644,0,0,0-.00057-.24311c-.00657-.07429-.019-.15086-.03147-.22743a7.41753,7.41753,0,0,1-.12778-1.05l.67937-.0913a7.41625,7.41625,0,0,0,.12778,1.05,1.684,1.684,0,0,0,.08853.26634.87081.87081,0,0,0,.15178.225.77059.77059,0,0,0,.19177.15155.54576.54576,0,0,0,.21025.06821A.82052.82052,0,0,0,113.03964,124.07766Z"/></g><ellipse class="cls-3" cx="111.83354" cy="124.92641" rx="3.10076" ry="4.91525" transform="translate(-50.17382 81.71803) rotate(-33.23171)"/><path class="cls-3" d="M115.33923,128.01856c-1.36779.20135-3.06916-.73648-4.1803-2.43242-1.20035-1.83211-1.31448-3.94244-.36707-5.07133l.143.02619a5.97878,5.97878,0,0,1,3.49234,2.68611,5.52478,5.52478,0,0,1,.91227,4.79154Z"/></g><g id="Screw_1" data-name="Screw 1"><g id="Screw_Cross-3" data-name="Screw Cross"><path d="M113.80626,188.14277l.84541-.22138c.06225.17623.1245.35245.19428.52349s.1471.33688.22442.50273l-.84542.22137a.7453.7453,0,0,0-.18639.08552.35773.35773,0,0,0-.119.15193.46826.46826,0,0,0-.03537.19549.61819.61819,0,0,0,.046.21687,1.48247,1.48247,0,0,0,.09918.18833l.97953,1.121-.67937.0913-.97953-1.121c-.05376-.07455-.10751-.1491-.16724-.22089a2.2718,2.2718,0,0,0-.19105-.20232,1.799,1.799,0,0,0-.187-.15433.83152.83152,0,0,0-.16478-.09446.53881.53881,0,0,0-.11351-.02918l-.35881-.05953c-.08112-.16534-.16223-.33067-.232-.50171s-.12823-.34777-.18668-.52451l.35882.05953a.22446.22446,0,0,0,.10768-.04007.29132.29132,0,0,0,.07969-.12927.82276.82276,0,0,0,.04017-.19826,1.37644,1.37644,0,0,0-.00057-.24311c-.00657-.07429-.019-.15086-.03147-.22743a7.41625,7.41625,0,0,1-.12778-1.05l.67937-.09131a7.41621,7.41621,0,0,0,.12778,1.05,1.684,1.684,0,0,0,.08853.26634.87078.87078,0,0,0,.15177.225.77081.77081,0,0,0,.19178.15155.54576.54576,0,0,0,.21025.06821A.82052.82052,0,0,0,113.80626,188.14277Z"/></g><ellipse class="cls-3" cx="112.60016" cy="188.99152" rx="3.10076" ry="4.91525" transform="translate(-85.15781 92.61529) rotate(-33.23171)"/><path class="cls-3" d="M116.10585,192.08367c-1.36779.20135-3.06916-.73648-4.1803-2.43242-1.20035-1.83212-1.31449-3.94244-.36708-5.07133l.143.02619a5.97877,5.97877,0,0,1,3.49235,2.68611,5.52481,5.52481,0,0,1,.91227,4.79154Z"/></g><g id="Port"><g id="LINE-2" data-name="LINE"><polygon class="cls-3" points="198.273 122.184 198.273 118.291 200.836 116.811 200.836 113.746 208.158 109.52 208.158 112.584 210.722 111.104 210.722 114.997 212.936 113.719 212.936 133.14 196.058 142.884 196.058 123.462 198.273 122.184"/></g><g id="ELLIPSE"><path class="cls-3" d="M212.33783,114.35067a1.73292,1.73292,0,0,0,.59859-.63187"/></g><g id="ARC-2" data-name="ARC"><path class="cls-3" d="M211.73938,133.14008a1.301,1.301,0,0,0,1.197,0"/></g><g id="LINE-3" data-name="LINE"><line class="cls-3" x1="211.73938" y1="133.14008" x2="210.34283" y2="132.33387"/></g><g id="LINE-4" data-name="LINE"><line class="cls-3" x1="210.34283" y1="130.4908" x2="210.34283" y2="132.33387"/></g><g id="ARC-3" data-name="ARC"><path class="cls-3" d="M210.34283,130.4908a2.168,2.168,0,0,0-.99753-1.72777"/></g><line class="cls-3" x1="198.11651" y1="122.28079" x2="209.3453" y2="128.76303"/><g id="LINE-5" data-name="LINE"><path class="cls-3" d="M214.64111,133.98045l-19.69359,11.77281c-.43305.25887-.7841.05615-.7841-.4528v-28.3371a1.792,1.792,0,0,1,.7841-1.39026l19.69359-11.77281Z"/></g><g id="LINE-6" data-name="LINE"><line class="cls-3" x1="211.73938" y1="114.69615" x2="211.73938" y2="133.14008"/></g></g><g id="Top_Slots" data-name="Top Slots"><g id="ELLIPSE-2" data-name="ELLIPSE"><path class="cls-3" d="M78.57858,67.72641c-.44071-.25441-.44049-.65962.00048-.90515l59.43952-33.09507a1.7932,1.7932,0,0,1,1.59642.01629l3.29129,1.9c.44081.25447.441.65988.00037.9055L83.50335,69.664a1.79137,1.79137,0,0,1-1.59581-.01581Z"/></g><g id="ELLIPSE-3" data-name="ELLIPSE"><path class="cls-3" d="M66.60818,60.81605c-.44071-.25442-.44049-.65962.00049-.90515l59.43951-33.09508a1.79323,1.79323,0,0,1,1.59642.0163l3.29129,1.9c.44081.25447.441.65988.00037.90551L71.533,62.75363a1.79141,1.79141,0,0,1-1.59581-.01581Z"/></g><g id="ELLIPSE-4" data-name="ELLIPSE"><path class="cls-3" d="M84.56378,71.18159c-.44071-.25441-.4405-.65962.00048-.90515l59.43952-33.09507a1.79323,1.79323,0,0,1,1.59642.01629l3.29129,1.9c.44081.25447.441.65988.00037.90551l-59.40331,33.116a1.79137,1.79137,0,0,1-1.59581-.01581Z"/></g><g id="ELLIPSE-5" data-name="ELLIPSE"><path class="cls-3" d="M161.95938,47.54691a1.79321,1.79321,0,0,1,1.59641.0163l3.2913,1.9c.4408.25448.441.65988.00036.90551l-59.4033,33.116a1.79141,1.79141,0,0,1-1.59581-.01581l-3.329-1.92177c-.44071-.25442-.44049-.65962.00049-.90515Z"/></g><g id="ELLIPSE-6" data-name="ELLIPSE"><path class="cls-3" d="M125.40656,93.84647a1.80583,1.80583,0,0,1-1.60262-.012l-3.33547-1.92553a.47371.47371,0,0,1,.007-.9014l59.80287-33.29746a.66329.66329,0,0,1,.66431.00617c.911.53723,2.88223,1.62994,4.00425,2.24385a.39609.39609,0,0,1-.00078.69448Z"/></g><g id="SPLINE-3" data-name="SPLINE"><path class="cls-3" d="M117.81874,90.37927l-3.329-1.92177c-.44071-.25441-.44049-.65962.00049-.90515L174.29,54.2567a.87088.87088,0,0,1,.86693.00711c.87728.51348,2.8758,1.68376,3.84891,2.25772a.36315.36315,0,0,1-.01141.63088l-59.5799,33.24267A1.79137,1.79137,0,0,1,117.81874,90.37927Z"/></g><g id="ELLIPSE-7" data-name="ELLIPSE"><path class="cls-3" d="M108.50457,85.00232c-.44071-.25441-.44049-.65962.00049-.90515L167.94457,51.0021a1.7932,1.7932,0,0,1,1.59642.01629l3.2913,1.9c.4408.25447.441.65988.00036.9055l-59.4033,33.116a1.79141,1.79141,0,0,1-1.59581-.01581Z"/></g><g id="ELLIPSE-8" data-name="ELLIPSE"><path class="cls-3" d="M155.97418,44.09173a1.79321,1.79321,0,0,1,1.59641.0163l3.2913,1.9c.44081.25447.441.65988.00036.90551l-59.4033,33.116a1.79144,1.79144,0,0,1-1.59581-.01581l-3.329-1.92177c-.44071-.25442-.4405-.65962.00048-.90516Z"/></g><g id="ELLIPSE-9" data-name="ELLIPSE"><path class="cls-3" d="M149.989,40.63655a1.7932,1.7932,0,0,1,1.59642.0163l3.29129,1.9c.44081.25447.441.65988.00037.90551l-59.40331,33.116a1.79141,1.79141,0,0,1-1.59581-.0158l-3.329-1.92177c-.44071-.25442-.4405-.65963.00048-.90516Z"/></g><g id="ELLIPSE-10" data-name="ELLIPSE"><path class="cls-3" d="M60.623,57.36087c-.44071-.25442-.44049-.65963.00049-.90516L120.063,23.36064a1.7932,1.7932,0,0,1,1.59642.0163l3.2913,1.9c.4408.25447.441.65988.00036.90551l-59.40331,33.116a1.79141,1.79141,0,0,1-1.59581-.0158Z"/></g><g id="ELLIPSE-11" data-name="ELLIPSE"><path class="cls-3" d="M72.59338,64.27123c-.44071-.25442-.44049-.65962.00049-.90515L132.03338,30.271a1.79323,1.79323,0,0,1,1.59642.0163l3.29129,1.9c.44081.25448.441.65989.00037.90551l-59.40331,33.116a1.79141,1.79141,0,0,1-1.59581-.01581Z"/></g></g><g id="Motor_Front" data-name="Motor Front"><path class="cls-4" d="M69.85494,152.12213c-.30347-.85485-.59852-1.806-.858-2.847-.26226-1.05225-.44946-2.04053-.58306-2.94611a8.1358,8.1358,0,0,1-2.36048,3.50568,37.189,37.189,0,0,1-6.19916,3.39825c3.03437,1.39954,5.99244,1.60114,8.30164.28711q.24473-.13925.47394-.2976a6.508,6.508,0,0,0,1.2251-1.10035"/><g id="LINE-7" data-name="LINE"><path class="cls-4" d="M37.28618,133.185l-8.189,4.7274a.53127.53127,0,0,0-.26566.46011v1.07569"/></g><path class="cls-4" d="M20.37416,113.40168c.34815-2.80115,1.54285-5.02747,3.58655-6.19318,4.96631-2.83283,13.06573,1.67053,18.09051,10.05841a28.62149,28.62149,0,0,1,2.82685,6.28888l.17413.45117a1.1557,1.1557,0,0,0,.57935.79859,1.1394,1.1394,0,0,0,.89575.053l2.01044-2.55108a1.23905,1.23905,0,0,1,.27386-.25592l5.16113-3.47736.41083-.33a28.14133,28.14133,0,0,0-3.09729-7.239c-5.02478-8.38794-13.12421-12.89123-18.09058-10.05847l-9.235,6.26178a7.75106,7.75106,0,0,0-2.16266,2.04913,7.90009,7.90009,0,0,0-1.42389,4.144"/><path class="cls-2" d="M69.89717,134.79378a1.45828,1.45828,0,0,1-.66846-.13477,1.92231,1.92231,0,0,1-.74512-.67236l-.86035-1.35889c-3.94531-6.56982-9.95752-10.977-14.9668-10.977a7.28388,7.28388,0,0,0-3.71777.96631.5.5,0,0,1-.5332-.84522l8.87988-6.05468a7.91013,7.91013,0,0,1,4.32666-1.22949c5.73291,0,12.51172,5.42236,16.86865,13.49267l.1792.34815a.49986.49986,0,0,1-.16113.64648l-6.21582,4.22754-1.37354,1.37744a.499.499,0,0,1-.31054.14355A4.65788,4.65788,0,0,1,69.89717,134.79378Z"/><path d="M61.61189,114.98762c5.41943,0,12.03332,5.08786,16.42871,13.23.03943.07306.13806.27039.177.34353l-6.21606,4.2276-1.44446,1.43671a5.02068,5.02068,0,0,1-.66028.06819,1.00837,1.00837,0,0,1-.44165-.08024,1.42745,1.42745,0,0,1-.55054-.49724l-.85913-1.35591c-4.11182-6.84731-10.243-11.20906-15.38879-11.20951a7.77975,7.77975,0,0,0-3.96936,1.03433L57.567,116.13a7.41769,7.41769,0,0,1,4.04493-1.14237m.00012-1a8.39354,8.39354,0,0,0-4.58179,1.29863l-8.90625,6.0726a1,1,0,0,0,1.06665,1.69027,6.78758,6.78758,0,0,1,3.46594-.89841c4.84009.00041,10.67994,4.31019,14.53162,10.72432l.8717,1.37632a2.43175,2.43175,0,0,0,.94239.85357,1.93738,1.93738,0,0,0,.89453.18869,4.64091,4.64091,0,0,0,.70691-.06507l.05823-.00879a1.0705,1.0705,0,0,0,.60034-.28532l1.37854-1.37115L78.78,129.388a1,1,0,0,0,.32031-1.29683l-.07294-.14191c-.04089-.08025-.08331-.16314-.10675-.2066-4.44128-8.22733-11.39709-13.755-17.30859-13.755Z"/><path class="cls-2" d="M20.22041,147.00618a.5.5,0,0,1-.25293-.93164c3.64209-2.1294,3.52441-9.13184-.26221-15.60986-2.97119-5.083-7.43213-8.498-11.09961-8.498a4.63715,4.63715,0,0,0-2.37353.61084.5562.5562,0,0,1-.28028.07422.50065.50065,0,0,1-.436-.22949.46822.46822,0,0,1,.13574-.66309l19.61523-11.91406a5.52783,5.52783,0,0,1,2.834-.7461c3.894,0,8.7749,3.644,12.43408,9.28321a28.45914,28.45914,0,0,1,3.50244,10.998.5.5,0,0,1-.24267.45557l-10.91016,6.53467A7.928,7.928,0,0,0,29.10176,140.68a7.55221,7.55221,0,0,0-.2876,3.69385.50034.50034,0,0,1-.14746.44433.6259.6259,0,0,1-.39112.15088,2.44271,2.44271,0,0,1-.71972-.187c-.104-.03613-.20606-.07373-.28809-.09863a1.92788,1.92788,0,0,1-.87549.19384,2.74083,2.74083,0,0,1-.645-.08056,5.60527,5.60527,0,0,1-.84326-.29444l-.061.01953-4.38184,2.42237A.49952.49952,0,0,1,20.22041,147.00618Z"/><path d="M28.10066,109.5993c3.7821-.00043,8.48718,3.61826,12.015,9.05487a28.193,28.193,0,0,1,3.42224,10.75269q-5.45508,3.26744-10.91015,6.53492a8.4,8.4,0,0,0-3.999,4.57556,8.03381,8.03381,0,0,0-.30761,3.94007.06669.06669,0,0,1-.04529.01163c-.19739,0-.89307-.30942-1.07776-.30946a.06673.06673,0,0,0-.036.00748,1.36888,1.36888,0,0,1-.76966.21057,2.25882,2.25882,0,0,1-.52795-.06653,6.19932,6.19932,0,0,1-.93579-.34167l-.23755.07562-4.47131,2.46118c3.88647-2.27185,3.84936-9.56683-.08289-16.29376-3.135-5.363-7.79944-8.74593-11.53125-8.74608a5.13214,5.13214,0,0,0-2.62573.67937l-.06848.04082L25.52668,110.2724a5.0263,5.0263,0,0,1,2.574-.6731m.00073-1h-.00012a6.01747,6.01747,0,0,0-3.07923.80978L5.39228,121.33189l.51917.85469.51916.85466.05432-.03241a4.14269,4.14269,0,0,1,2.12061-.54243c3.44165.00013,7.82849,3.39294,10.66809,8.25072,3.58582,6.13439,3.78809,12.96956.44153,14.92579a1,1,0,0,0,.98681,1.73937l4.23011-2.32839a5.18358,5.18358,0,0,0,.69751.22923,3.25832,3.25832,0,0,0,.76281.09451,2.51515,2.51515,0,0,0,.89722-.159l.10193.036a2.737,2.737,0,0,0,.88428.21445,1.12426,1.12426,0,0,0,.73449-.2871.99979.99979,0,0,0,.29676-.89124,7.05747,7.05747,0,0,1,.26745-3.44858,7.39565,7.39565,0,0,1,3.51941-4.01564q.02418-.01275.04761-.02682l5.2113-3.12141,5.69886-3.41351a.99976.99976,0,0,0,.48474-.91111,29.0984,29.0984,0,0,0-3.58191-11.24379c-3.80664-5.86632-8.73169-9.51054-12.85315-9.51054Z"/><polyline class="cls-4" points="27.29 136.409 44.045 126.007 46.619 127.536 30.721 137.147"/><path class="cls-2" d="M45.42353,161.77229a.5.5,0,0,1-.25293-.93164c3.64258-2.1289,3.52491-9.13183-.26172-15.60986-2.97119-5.083-7.43164-8.49854-11.09961-8.49854a4.63747,4.63747,0,0,0-2.37353.61133l-.05518.03272a.50331.50331,0,0,1-.68994-.166.49741.49741,0,0,1,.16455-.68506l19.61524-11.91406a5.72512,5.72512,0,0,1,2.93506-.76465c4.125,0,9.08642,3.7461,12.34521,9.32129,4.22119,7.2207,4.24854,14.88623.0625,17.45117L45.66426,161.71028A.49956.49956,0,0,1,45.42353,161.77229Z"/><path d="M53.40522,124.34652c3.8418-.0005,8.66333,3.51287,11.91394,9.07361,4.03894,6.90953,4.13269,14.3828.23255,16.7726L45.42317,161.27216c3.88659-2.27184,3.84948-9.56681-.08277-16.29376-3.13489-5.363-7.79944-8.74591-11.53137-8.74606a5.13255,5.13255,0,0,0-2.62573.67937l-.06372.038,19.61059-11.91135a5.23171,5.23171,0,0,1,2.675-.69181M31.11958,136.94968l-.00464.00284.00464-.00284M53.406,123.34652h-.00012a6.214,6.214,0,0,0-3.1803.82849l-19.62512,11.92-.00036.00028h0l-.00476.00284a1,1,0,0,0,1.03955,1.70866l.00329-.002.04956-.0296a4.14314,4.14314,0,0,1,2.12134-.54282c3.44153.00014,7.82849,3.393,10.66809,8.2507a19.265,19.265,0,0,1,2.83679,9.318c.01368,2.70531-.837,4.69686-2.39538,5.6078a1,1,0,0,0,.98681,1.73939l20.12854-11.07943c4.46045-2.73186,4.50806-10.69546.14856-18.15331-3.3457-5.72349-8.4801-9.569-12.77649-9.569Z"/><path class="cls-2" d="M42.78584,162.45686c-4.01075,0-8.81836-3.61377-11.96289-8.99316a20.773,20.773,0,0,1-3.042-10.06738c-.0166-3.26368,1.09766-5.71778,3.13819-6.91065a5.6244,5.6244,0,0,1,2.87842-.74756c4.01025,0,8.81787,3.61426,11.96289,8.99366a20.77019,20.77019,0,0,1,3.0415,10.06689c.0166,3.26367-1.09766,5.71777-3.13818,6.91064A5.62128,5.62128,0,0,1,42.78584,162.45686Z"/><path d="M33.79731,136.23794c3.73206-.00036,8.39612,3.38264,11.53137,8.746,3.93225,6.72695,3.96924,14.02192.08277,16.29377a5.13395,5.13395,0,0,1-2.62574.67936c-3.73205,0-8.39624-3.38264-11.53137-8.746-3.93213-6.727-3.96924-14.02192-.08276-16.29377a5.13533,5.13533,0,0,1,2.62573-.67936m.00061-1H33.7978a6.117,6.117,0,0,0-3.13086.816c-4.43005,2.58962-4.55127,10.34758-.27588,17.66173,3.23108,5.52758,8.21216,9.24141,12.39465,9.24141a6.11482,6.11482,0,0,0,3.13038-.816c4.43017-2.58968,4.55139-10.34764.27587-17.66175-3.23107-5.52756-8.21191-9.24139-12.394-9.24139Z"/><path class="cls-2" d="M95.1584,172.29182a.5.5,0,0,1-.25733-.92871c5.88965-3.53711,5.75147-15.07861-.30762-25.72851-4.7373-8.32617-11.87207-13.9209-17.7539-13.9209a7.43058,7.43058,0,0,0-3.88379,1.02978.50007.50007,0,0,1-.53858-.84228l5.18653-3.52734,3.68408-2.52247a8.8127,8.8127,0,0,1,4.59863-1.22656c6.48438,0,14.27588,5.99463,19.38867,14.917,6.33985,11.06348,6.79346,23.87647.99073,27.97852a.51071.51071,0,0,1-.08985.05078l-10.81884,4.67969A.50326.50326,0,0,1,95.1584,172.29182Z"/><path d="M85.88673,125.12508c6.13452-.00062,13.80115,5.672,18.95459,14.66543,6.46356,11.27981,6.52453,23.51207,1.13611,27.32152l-10.81879,4.68c6.13007-3.68161,6.07159-15.50339-.13062-26.40468-4.94464-8.69095-12.30188-14.17306-18.18811-14.17331a7.92709,7.92709,0,0,0-4.14148,1.10093l5.18641-3.52752,3.68585-2.52319a8.31149,8.31149,0,0,1,4.316-1.13915m.001-1h-.00109a9.28881,9.28881,0,0,0-4.82807,1.28027q-.02691.016-.05273.03372L77.32,127.96225l-5.1839,3.52582a1,1,0,0,0,1.07727,1.68414,6.93626,6.93626,0,0,1,3.62658-.9582c5.70795.00024,12.66791,5.49292,17.319,13.66782,5.926,10.41577,6.1435,21.65445.48487,25.0529a1,1,0,0,0,.91192,1.77508l10.81879-4.68a.99946.99946,0,0,0,.18024-.10126c6.1073-4.31766,5.7279-17.16338-.84571-28.63525-5.19885-9.07261-13.16442-15.16826-19.82129-15.16826Z"/><path class="cls-2" d="M37.27119,157.11507c-1.91943,0-4.20313-1.66944-5.68311-4.15479a8.2732,8.2732,0,0,1-1.26465-6.00488,3.08442,3.08442,0,0,1,1.40772-1.96973,2.86568,2.86568,0,0,1,1.44531-.37012c1.919,0,4.20264,1.66944,5.68311,4.15479a8.27321,8.27321,0,0,1,1.26465,6.00488A3.08442,3.08442,0,0,1,38.7165,156.745,2.86568,2.86568,0,0,1,37.27119,157.11507Z"/><path d="M33.17634,145.11536c1.70032-.00016,3.8252,1.5125,5.25354,3.91068,1.7915,3.00785,1.80835,6.26969.03772,7.28552a2.3733,2.3733,0,0,1-1.19617.30377c-1.70031,0-3.82519-1.5125-5.25354-3.91068-1.79138-3.00785-1.80835-6.26969-.03772-7.28553a2.3738,2.3738,0,0,1,1.19617-.30376m.00037-1h-.00013a3.35845,3.35845,0,0,0-1.694.43637,3.5712,3.5712,0,0,0-1.6427,2.27691,8.772,8.772,0,0,0,1.31885,6.3877c1.59155,2.6723,3.991,4.399,6.11267,4.399a3.35752,3.35752,0,0,0,1.69373-.43636,3.57151,3.57151,0,0,0,1.64282-2.277,8.77228,8.77228,0,0,0-1.319-6.38761c-1.59155-2.67226-3.99084-4.39895-6.1123-4.39895Z"/><path class="cls-2" d="M37.5124,155.36018c-1.50537,0-3.22022-1.26318-4.36914-3.21777a6.46134,6.46134,0,0,1-.957-4.66162,2.45528,2.45528,0,0,1,1.10888-1.55957,2.24969,2.24969,0,0,1,1.148-.29834c1.50537,0,3.22022,1.26318,4.36866,3.21777a6.45872,6.45872,0,0,1,.95752,4.66162,2.45526,2.45526,0,0,1-1.10889,1.55957A2.25085,2.25085,0,0,1,37.5124,155.36018Z"/><path d="M34.44294,146.12272c1.27442-.00013,2.86694,1.14918,3.9375,2.9713,1.34277,2.28535,1.35535,4.76367.02832,5.53548a1.76026,1.76026,0,0,1-.8966.23081c-1.27442,0-2.867-1.14918-3.9375-2.9713-1.34278-2.28536-1.35535-4.76368-.02832-5.53549a1.76075,1.76075,0,0,1,.8966-.2308m.00025-1h-.00013a2.7452,2.7452,0,0,0-1.39941.36636,2.94374,2.94374,0,0,0-1.34131,1.865,6.959,6.959,0,0,0,1.01013,5.0415c1.23658,2.10471,3.12049,3.4647,4.79969,3.4647a2.74474,2.74474,0,0,0,1.39929-.36636,2.94372,2.94372,0,0,0,1.34131-1.865,6.95889,6.95889,0,0,0-1.01014-5.04149c-1.23657-2.1047-3.12048-3.46471-4.79943-3.46471Z"/><path class="cls-2" d="M38.46748,156.81136a.50007.50007,0,0,1-.249-.9336,2.08484,2.08484,0,0,0,.93848-1.35644,7.38693,7.38693,0,0,0-1.15674-5.23926c-1.28564-2.15869-3.26953-3.66651-4.82373-3.66651a1.87525,1.87525,0,0,0-.94726.23731.50015.50015,0,0,1-.502-.86523l.1709-.1001,2.99512-2.11133a2.923,2.923,0,0,1,1.53223-.416c1.99121,0,4.36035,1.78028,5.8955,4.42969,2.03125,3.50488,1.96973,7.2251-.13965,8.46826l-3.5166,1.5127A.50422.50422,0,0,1,38.46748,156.81136Z"/><path d="M36.42536,142.86026c1.76795,0,3.97779,1.61688,5.463,4.18,1.86291,3.215,1.88049,6.70157.0393,7.78737l-3.46008,1.48388c1.77063-1.01582,1.75378-4.27766-.03772-7.28552-1.42834-2.39818-3.55322-3.91068-5.25354-3.91068a2.3733,2.3733,0,0,0-1.19617.30377l.1709-.09982,3.03027-2.13436a2.41506,2.41506,0,0,1,1.244-.32469m0-1a3.39961,3.39961,0,0,0-1.752.4633c-.02319.01369-.0459.02831-.06787.04383l-2.99548,2.10985-.13428.07839a1,1,0,0,0,1.002,1.73089,1.38621,1.38621,0,0,1,.69861-.17116c1.13477,0,2.9939,1.071,4.39441,3.4224a6.89038,6.89038,0,0,1,1.10254,4.857,1.60852,1.60852,0,0,1-.70337,1.04939,1,1,0,0,0,.89184,1.78644l3.46009-1.48388a1,1,0,0,0,.11377-.05768c2.34875-1.38511,2.4884-5.40431.318-9.15009-1.64685-2.8422-4.13086-4.6787-6.32825-4.6787Z"/><path class="cls-2" d="M91.01679,173.3929c-6.229,0-13.71289-5.79736-18.62255-14.42627-6.3252-11.11768-6.3042-23.26611.04687-27.08057a8.41344,8.41344,0,0,1,4.39844-1.17236c6.23,0,13.71387,5.79785,18.623,14.42676,6.32569,11.11767,6.30469,23.26562-.04687,27.08008A8.41394,8.41394,0,0,1,91.01679,173.3929Z"/><path d="M76.83991,131.214c5.88648-.00059,13.24311,5.48169,18.18811,14.17331,6.20221,10.90129,6.26069,22.72307.13062,26.40468a7.93016,7.93016,0,0,1-4.14148,1.10093c-5.88654,0-13.2431-5.48168-18.18811-14.17331-6.20227-10.90129-6.26074-22.72306-.13062-26.40468a7.93154,7.93154,0,0,1,4.14148-1.10093m.001-1h-.00012a8.9112,8.9112,0,0,0-4.65723,1.24366c-6.6936,4.02-6.79175,16.21211-.22363,27.75646,4.99524,8.77984,12.65375,14.6788,19.05725,14.6788a8.90775,8.90775,0,0,0,4.65631-1.24365c6.69354-4.02,6.79181-16.21211.22376-27.75647C90.902,136.113,83.24378,130.214,76.84089,130.214Z"/><path d="M79.30207,138.79491c3.7323-.00007,8.39722,3.38236,11.53083,8.74617,3.93048,6.72785,3.96734,14.02283.08282,16.29376a5.13391,5.13391,0,0,1-2.62573.67943c-3.73206,0-8.39618-3.38272-11.53137-8.74614-3.93226-6.727-3.96924-14.02192-.08277-16.29376a5.13446,5.13446,0,0,1,2.62622-.67946m.00012-1h0a6.11632,6.11632,0,0,0-3.131.81614c-2.201,1.28659-3.40356,3.895-3.386,7.34461a21.27705,21.27705,0,0,0,3.1101,10.31713c3.23114,5.52761,8.21216,9.24148,12.39466,9.24148a6.11463,6.11463,0,0,0,3.13043-.81613c4.42816-2.58875,4.54938-10.3466.27594-17.6615-3.22937-5.52776-8.21021-9.24173-12.39417-9.24173Z"/><g id="LINE-8" data-name="LINE"><path class="cls-2" d="M89.37129,161.90852a.4926.4926,0,0,1-.11963-.01464l-.33838-.0835a.49588.49588,0,0,1-.09766-.03516l-.35058-.16894-.42139-.28955-.39063-.36328-.34912-.41895-8.57177-11.7832a3.25685,3.25685,0,0,1-.49952-3.66651.49863.49863,0,0,1,.07764-.11279l4.79541-5.249a.58388.58388,0,0,1,.41992-.18409.44866.44866,0,0,1,.22559.05762,20.36609,20.36609,0,0,1,2.94092,2.05615,22.10725,22.10725,0,0,1,6.73584,10.477,22.50788,22.50788,0,0,1,.875,5.01124.50081.50081,0,0,1-.1294.36718l-3.65722,4.00342a.5052.5052,0,0,1-.104.08643l-.14209.10351a.49891.49891,0,0,1-.14941.08106l-.27539.09375a.49248.49248,0,0,1-.15235.02685Z"/><path d="M83.502,140.03028a19.8184,19.8184,0,0,1,2.86835,2.00531,21.65327,21.65327,0,0,1,6.57831,10.23572,21.91389,21.91389,0,0,1,.85528,4.89978l-.04016.04394-3.6167,3.95918-.07928.05-.108.085-.27552.094-.31292.00542-.33838-.08334-.35077-.16889-.34973-.248-.33521-.31748-.21979-.26758-.08807-.10723-8.35754-11.4902-.19513-.26836a2.77459,2.77459,0,0,1-.4571-3.14824l.30494-.33375,4.49-4.91526.0274-.03m.00043-1a.99936.99936,0,0,0-.73846.32526l-.02741.03-4.49036,4.91559-.30481.33367a1,1,0,0,0-.155.22492,3.78712,3.78712,0,0,0,.5758,4.233l.16089.22129,8.3576,11.49031q.01731.02376.03595.04647l.08808.10723.21979.26762a1.012,1.012,0,0,0,.08508.09131l.3352.31748a1.00369,1.00369,0,0,0,.10932.08974l.34973.248a1.00094,1.00094,0,0,0,.14453.08522l.35077.16889a1,1,0,0,0,.1947.07l.33838.08334a1.00025,1.00025,0,0,0,.23914.029l.01733-.00015.31293-.00542a.9999.9999,0,0,0,.30542-.05337l.27551-.094a.99967.99967,0,0,0,.29547-.16048l.06714-.05281.03528-.02224a1.00082,1.00082,0,0,0,.205-.17146l3.61669-3.95917.04-.04385a1,1,0,0,0,.26-.735,22.99143,22.99143,0,0,0-.89447-5.12288,22.62274,22.62274,0,0,0-6.894-10.71786,20.86044,20.86044,0,0,0-3.01325-2.10663.99757.99757,0,0,0-.49792-.133Z"/></g><path class="cls-2" d="M17.58174,147.70979c-4.01075,0-8.81836-3.61425-11.9629-8.99365-4.06494-6.9541-4.02148-14.5708.0962-16.978a5.62388,5.62388,0,0,1,2.87793-.74756c4.01123,0,8.81884,3.61426,11.96337,8.99366,4.06495,6.95459,4.02149,14.5708-.09667,16.978A5.62128,5.62128,0,0,1,17.58174,147.70979Z"/><path d="M8.59333,121.49062c3.73194-.00036,8.39612,3.38264,11.53125,8.746,3.93225,6.72695,3.96936,14.02192.08289,16.29377a5.13424,5.13424,0,0,1-2.62573.67936c-3.73206,0-8.39624-3.38264-11.53138-8.746C2.11811,131.7368,2.081,124.44183,5.9676,122.17a5.13523,5.13523,0,0,1,2.62573-.67936m.00061-1H8.59382a6.117,6.117,0,0,0-3.13086.816c-2.201,1.28658-3.40356,3.895-3.386,7.34462a21.2772,21.2772,0,0,0,3.11011,10.31713c3.23108,5.52756,8.21216,9.24139,12.39466,9.24139a6.11545,6.11545,0,0,0,3.13037-.816c4.43017-2.58966,4.55127-10.34762.27575-17.66176-3.23108-5.52756-8.21191-9.24139-12.39392-9.24139Z"/><path class="cls-2" d="M11.8415,142.46809c-1.91894,0-4.20264-1.66992-5.6831-4.15478a8.2787,8.2787,0,0,1-1.26465-6.00488,3.08546,3.08546,0,0,1,1.40771-1.97022,2.86568,2.86568,0,0,1,1.44531-.37012c1.919,0,4.20264,1.66993,5.68311,4.15479a8.27519,8.27519,0,0,1,1.26465,6.00537,3.08332,3.08332,0,0,1-1.4082,1.96973A2.86261,2.86261,0,0,1,11.8415,142.46809Z"/><path d="M7.74677,130.4682c1.7002-.00016,3.8252,1.5125,5.25342,3.91067,1.79151,3.00786,1.80835,6.2697.03772,7.28552a2.37371,2.37371,0,0,1-1.19629.30377c-1.70019,0-3.82507-1.51249-5.25329-3.91067-1.79151-3.00786-1.80835-6.2697-.03772-7.28553a2.37374,2.37374,0,0,1,1.19616-.30376m.00037-1H7.747a3.359,3.359,0,0,0-1.69409.43638,3.5717,3.5717,0,0,0-1.6427,2.277,8.7722,8.7722,0,0,0,1.319,6.3876c1.59143,2.67225,3.99084,4.399,6.11242,4.399a3.3582,3.3582,0,0,0,1.694-.43639,3.57168,3.57168,0,0,0,1.6427-2.277,8.77223,8.77223,0,0,0-1.319-6.38761c-1.59143-2.67225-3.99072-4.399-6.11218-4.399Z"/><path class="cls-2" d="M12.08222,140.71321c-1.48193,0-3.23779-1.29346-4.36816-3.21777a6.45944,6.45944,0,0,1-.95752-4.66162,2.45526,2.45526,0,0,1,1.10889-1.55957,2.2512,2.2512,0,0,1,1.14795-.29883c1.50537,0,3.22021,1.26318,4.36865,3.21826a6.45944,6.45944,0,0,1,.95752,4.66162,2.45465,2.45465,0,0,1-1.10889,1.55908A2.25171,2.25171,0,0,1,12.08222,140.71321Z"/><path d="M9.01325,131.47556c1.27442-.00013,2.867,1.14918,3.9375,2.97129,1.34278,2.28536,1.35547,4.76368.02832,5.53549a1.76025,1.76025,0,0,1-.8966.2308c-1.27429,0-2.867-1.14918-3.9375-2.97129-1.34265-2.28536-1.35535-4.76368-.02832-5.53549a1.76065,1.76065,0,0,1,.8966-.2308m.00025-1H9.01338a2.74521,2.74521,0,0,0-1.39942.36636,2.9429,2.9429,0,0,0-1.34118,1.86488,6.95851,6.95851,0,0,0,1.01,5.0416c1.23669,2.10476,3.1206,3.46474,4.79968,3.46474a2.74466,2.74466,0,0,0,1.39941-.36639,2.94362,2.94362,0,0,0,1.34119-1.86492,6.95859,6.95859,0,0,0-1.01013-5.04157c-1.23658-2.10471-3.12049-3.4647-4.79944-3.4647Z"/><path class="cls-2" d="M13.03779,142.16438a.49991.49991,0,0,1-.24853-.93359,2.0845,2.0845,0,0,0,.938-1.356,7.38688,7.38688,0,0,0-1.15673-5.24023c-1.28565-2.15869-3.26954-3.66651-4.82374-3.66651a1.88024,1.88024,0,0,0-.94726.23731.50012.50012,0,0,1-.501-.86572l.1709-.09961,2.99414-2.11084a2.923,2.923,0,0,1,1.53223-.416c1.99121,0,4.36035,1.77979,5.89551,4.4292,2.03076,3.50488,1.96923,7.2251-.13965,8.46875l-3.5166,1.5127A.50429.50429,0,0,1,13.03779,142.16438Z"/><path d="M10.99568,128.2131c1.76794,0,3.9779,1.61687,5.46313,4.18,1.86292,3.21505,1.88049,6.70157.03919,7.78737l-3.46009,1.48388c1.77063-1.01582,1.75379-4.27766-.03772-7.28552C11.572,131.98069,9.447,130.4682,7.74677,130.4682a2.37333,2.37333,0,0,0-1.19616.30376l.17077-.09982,3.03028-2.13436a2.4151,2.4151,0,0,1,1.244-.32468m0-1a3.39965,3.39965,0,0,0-1.752.4633c-.02319.01369-.0459.02831-.06787.04383l-2.9956,2.11-.13428.07844a1,1,0,0,0,1.00232,1.73072,1.38537,1.38537,0,0,1,.69848-.17115c1.13477,0,2.99378,1.071,4.39429,3.42237a6.89043,6.89043,0,0,1,1.10254,4.85705,1.60852,1.60852,0,0,1-.70337,1.04939,1,1,0,0,0,.89185,1.78644l3.46008-1.48388a1.00148,1.00148,0,0,0,.11377-.05766c2.34888-1.38509,2.48865-5.4043.31812-9.15011-1.647-2.84221-4.131-4.6787-6.32837-4.6787Z"/></g><path id="Red_Gear_Window" data-name="Red Gear Window" class="cls-5" d="M109.82915,175.0976a1.05114,1.05114,0,0,0,1.74377.09859,30.55046,30.55046,0,0,0,5.13014-10.69432c3.32147-13.08918-3.44616-24.20017-5.74012-27.53059a1.046,1.046,0,0,0-1.3058-.35055l-1.61266.74733a1.05406,1.05406,0,0,0-.48058,1.45043c4.49314,8.58356,5.7189,16.50054,4.91474,21.10477a25.13226,25.13226,0,0,1-2.878,7.94982,20.77053,20.77053,0,0,1-1.7898,2.48945,1.04134,1.04134,0,0,0-.09189,1.20923Q108.774,173.33471,109.82915,175.0976Z"/><path id="Blue_Gear_Window" data-name="Blue Gear Window" class="cls-6" d="M109.82915,175.0976a1.05114,1.05114,0,0,0,1.74377.09859,30.55046,30.55046,0,0,0,5.13014-10.69432c3.32147-13.08918-3.44616-24.20017-5.74012-27.53059a1.046,1.046,0,0,0-1.3058-.35055l-1.61266.74733a1.05406,1.05406,0,0,0-.48058,1.45043c4.49314,8.58356,5.7189,16.50054,4.91474,21.10477a25.13226,25.13226,0,0,1-2.878,7.94982,20.77053,20.77053,0,0,1-1.7898,2.48945,1.04134,1.04134,0,0,0-.09189,1.20923Q108.774,173.33471,109.82915,175.0976Z"/><path id="Green_Gear_Window" data-name="Green Gear Window" class="cls-7" d="M109.82915,175.0976a1.05114,1.05114,0,0,0,1.74377.09859,30.55046,30.55046,0,0,0,5.13014-10.69432c3.32147-13.08918-3.44616-24.20017-5.74012-27.53059a1.046,1.046,0,0,0-1.3058-.35055l-1.61266.74733a1.05406,1.05406,0,0,0-.48058,1.45043c4.49314,8.58356,5.7189,16.50054,4.91474,21.10477a25.13226,25.13226,0,0,1-2.878,7.94982,20.77053,20.77053,0,0,1-1.7898,2.48945,1.04134,1.04134,0,0,0-.09189,1.20923Q108.774,173.33471,109.82915,175.0976Z"/><g id="Motor_Outline-2" data-name="Motor Outline"><path d="M121.564,3a4.99191,4.99191,0,0,1,2.45782.72707l89.53644,51.3244,12.352,7.12167s.4256.29611.59179.41022c.21564.14807.4162.29635.602.442A13.89977,13.89977,0,0,1,229.31,65.28986a16.5409,16.5409,0,0,1,2.56964,6.07182A15.16913,15.16913,0,0,1,232.213,73.584c.01319.20525.6145,56.54264.6145,56.54264-.00006.71686-.41937,3.54558-.46386,3.76536a6.38478,6.38478,0,0,1-.47663,1.43957,6.76486,6.76486,0,0,1-.67407,1.139,2.9098,2.9098,0,0,1-.903.87225l-81.24366,47.0845-19.18237,10.137c-.06476.04018-.1336.06972-.2005.106,0,0-.23663.1133-.2503.1133l.00256-.0033a4.406,4.406,0,0,1-1.82654.40236,4.18018,4.18018,0,0,1-.59094-.04183c-1.11969-.15992-2.72766-.3896-3.11322-.44471-.54126-.07739-1.073-.15357-1.60986-.23039a23.91407,23.91407,0,0,0-2.61915-.19412c-.19616,0-.392.005-.58721.016a17.40751,17.40751,0,0,0-3.79206.76843c.08258-.03086.11957-.04727.1095-.04727a4.35832,4.35832,0,0,0-.42249.13644.352.352,0,0,1,.05512-.01345.3256.3256,0,0,1-.10327.03114c-.067.022-.129.03985-.182.05157H114.529a5.751,5.751,0,0,1-1.072-.07018,4.59878,4.59878,0,0,1-1.267-.46972,7.54262,7.54262,0,0,1-1.24383-.82782,9.43566,9.43566,0,0,1-1.11786-1.084,10.62523,10.62523,0,0,1-.98426-1.31121,11.15293,11.15293,0,0,1-.7586-1.41515,7.94793,7.94793,0,0,1-.5-1.42135c-.01807-.07761-.03418-.15482-.05036-.232l-.02-.00543-.00335-.01771a.81135.81135,0,0,0-.05658-.16136,1.18934,1.18934,0,0,0-.08252-.15314,1.00854,1.00854,0,0,0-.105-.13575.70241.70241,0,0,0-.10095-.092.46161.46161,0,0,0-.054-.03253l.00305-.00207-.00592-.00332L53.49555,156.82886s-5.52063,2.95043-8.0841,4.44893a5.13268,5.13268,0,0,1-2.62574.67935c-3.73181,0-8.39624-3.383-11.53125-8.74607a21.92246,21.92246,0,0,1-2.93334-8.75368A7.06367,7.06367,0,0,0,27.211,144.158a.09471.09471,0,0,0-.049.00907,1.36853,1.36853,0,0,1-.76966.21057,2.25935,2.25935,0,0,1-.52795-.06653,6.20265,6.20265,0,0,1-.93579-.34168l-.23755.07561-4.373,2.40707c-.03857.024-.07129.05536-.11059.07836a5.13227,5.13227,0,0,1-2.62573.67936c-3.73194,0-8.39649-3.38309-11.53138-8.74608C2.11811,131.73682,1.88069,124.05757,5.9676,122.17l5.588-3.41164q0-2.26381,0-4.52775-.00073-5.72673,0-11.45325c.006-7.63547.05005-15.27114,0-22.90646A34.34517,34.34517,0,0,1,12.2403,72.204a20.22357,20.22357,0,0,1,5.46546-9.382,19.121,19.121,0,0,1,3.41431-2.59279c.09252-.00695.14587-.02224.12585-.02224a.84459.84459,0,0,0-.12585.02224c33.51318-18.69457,65.26013-38.10842,98.77325-56.803A3.40788,3.40788,0,0,1,121.564,3M121.564,0a6.37706,6.37706,0,0,0-3.12286.8011C101.64955,10.16786,85.04859,19.862,68.99421,29.23686,52.9676,38.59554,36.395,48.27309,19.66718,57.60447q-.04248.02349-.08422.04839a22.17237,22.17237,0,0,0-3.9491,2.99954A23.17936,23.17936,0,0,0,9.3437,71.42307l-.01648.0639a37.26309,37.26309,0,0,0-.77149,8.40357c.03553,5.42385.0232,10.94535.01136,16.285q-.00733,3.29973-.01148,6.59942-.00328,4.21189-.00073,8.42457l.00073,3.03143.00012,2.844-4.02246,2.45579a7.86856,7.86856,0,0,0-3.97851,4.89289c-1.33447,4.24511-.22107,10.20507,2.90564,15.554,3.63342,6.21578,9.17639,10.2321,14.12134,10.2321a8.08826,8.08826,0,0,0,4.13977-1.08943q.10089-.059.196-.1242l3.22254-1.77382.01953.00477a5.46382,5.46382,0,0,0,.599.11013,26.20485,26.20485,0,0,0,2.90588,7.3878c3.63342,6.21575,9.17639,10.23207,14.12121,10.23207a8.08836,8.08836,0,0,0,4.13978-1.08942c1.68-.9821,4.71264-2.63077,6.51806-3.60489l51.39362,29.66893a11.93679,11.93679,0,0,0,.51086,1.33221,14.1896,14.1896,0,0,0,.96381,1.79635,13.63191,13.63191,0,0,0,1.26336,1.68329,12.44906,12.44906,0,0,0,1.4759,1.42886,10.56008,10.56008,0,0,0,1.7406,1.15632,7.47467,7.47467,0,0,0,2.10876.76343,8.4276,8.4276,0,0,0,1.62164.12225h.23157a3.00031,3.00031,0,0,0,.64874-.071c.104-.023.22223-.05385.34906-.09236q.13634-.03672.26447-.08254.05475-.01356.1095-.02928a14.90175,14.90175,0,0,1,3.13269-.6565c.139-.00785.27832-.01121.4179-.01121a21.07724,21.07724,0,0,1,2.24146.17062l.55878.08,1.00415.14367,3.11364.44479a7.20733,7.20733,0,0,0,1.01514.072,7.44989,7.44989,0,0,0,2.937-.61309c.15912-.06237.3017-.13063.43311-.19358q.06765-.03237.13348-.06807c.07166-.03518.1485-.07528.22638-.11945l19.12885-10.1087q.0519-.02742.1026-.05682l81.21978-47.07068a5.85122,5.85122,0,0,0,1.84479-1.71175,9.8301,9.8301,0,0,0,.97058-1.6406,9.43569,9.43569,0,0,0,.69812-2.11218,43.4016,43.4016,0,0,0,.52362-4.36079c-.60235-56.44989-.61383-56.62846-.62066-56.73515a17.93559,17.93559,0,0,0-.397-2.67443,19.45452,19.45452,0,0,0-3.10919-7.23985,16.8775,16.8775,0,0,0-2.74194-2.8101c-.23651-.18547-.4881-.37143-.75848-.55715l-.57666-.39975q-.10457-.07269-.21485-.13632l-12.352-7.12168L125.5138,1.12436A7.98184,7.98184,0,0,0,121.564,0Z"/></g><g id="Top_4-2" data-name="Top 4"><g id="ARC-4" data-name="ARC"><path class="cls-3" d="M220.50451,143.399a5.53551,5.53551,0,0,0,2.35173-4.93147V79.02878A15.61,15.61,0,0,0,215.674,66.58869l-86.3552-49.8518-13.5976-7.84971a5.14259,5.14259,0,0,0-4.37136-.6342"/></g></g></g></g></g></svg>