<svg xmlns="http://www.w3.org/2000/svg" viewBox="0 0 191.54639 180.7508"><defs><style>.cls-1{fill:#dededf;}.cls-2{fill:#d7282f;}.cls-3{fill:#fff;}.cls-4,.cls-5,.cls-6{fill:none;stroke:#000;stroke-linecap:round;stroke-linejoin:round;}.cls-5{stroke-width:1.03032px;}.cls-6{stroke-width:1.05961px;}</style></defs><title>Potentiometer</title><g id="Layer_2" data-name="Layer 2"><g id="EDR"><g id="Potentiometer"><g id="Shadow"><path id="Unselected" class="cls-1" d="M129.62742,42.437,108.33994,30.18012a.496.496,0,0,0-.22558-.0664c-2.29737-.11035-4.57764-.166-6.77784-.166-22.91992,0-44.52246,5.49707-60.82763,15.479C24.14512,55.44428,14.98106,68.8271,14.70518,83.10981a.472.472,0,0,0,.01782.07007c-.00037.00732-.00562.01343-.00562.02075v31.44531a.4998.4998,0,0,0,.25049.43311l82.79053,47.6687a.49588.49588,0,0,0,.45166.35327c1.707.07324,3.13818.11475,4.50391.13037.55517.00635,1.10595.00928,1.65918.00928,47.89843,0,86.85058-23.11914,87.17236-51.98926.0039-.35693-.00586-.71191-.01563-1.06738l-.00171-11.624c.00245-.11487.01661-.22827.01783-.34327a.468.468,0,0,0-.01795-.09423l-.00281-18.12793c.00293-.12793.0188-.254.02027-.38233.0039-.35693-.00586-.7124-.01563-1.06738L191.525,78.352c-.00024-.01074-.00769-.01929-.00867-.02979a.4862.4862,0,0,0-.05432-.187.46747.46747,0,0,0-.03686-.05469.48464.48464,0,0,0-.12085-.119c-.01172-.00818-.01734-.02222-.02979-.02942l-7.16357-4.12464Z"/><path id="Selected" class="cls-1" d="M129.40667,59.94709,108.1192,47.69026a.49612.49612,0,0,0-.22559-.06641c-2.29736-.11035-4.57763-.166-6.77783-.166-22.91992,0-44.52246,5.49708-60.82764,15.479-16.36377,10.01758-25.52783,23.40039-25.80371,37.6831a.47044.47044,0,0,0,.01783.07007c-.00037.00733-.00562.01343-.00562.02075v31.44532a.49976.49976,0,0,0,.25049.4331l82.79053,47.6687a.49589.49589,0,0,0,.45166.35328c1.707.07324,3.13818.11474,4.5039.13037.55518.00634,1.106.00927,1.65918.00927,47.89844,0,86.85059-23.11914,87.17236-51.98925.00391-.35694-.00585-.71192-.01562-1.06739l-.00171-11.624c.00244-.11487.0166-.22827.01782-.34326a.46729.46729,0,0,0-.01794-.09424l-.00281-18.12793c.00293-.12793.0188-.254.02026-.38232.00391-.35694-.00585-.71241-.01562-1.06739l-.00488-.19287c-.00025-.01074-.00769-.01929-.00867-.02978a.48637.48637,0,0,0-.05432-.187.4662.4662,0,0,0-.03687-.05468.48468.48468,0,0,0-.12085-.119c-.01171-.00818-.01733-.02222-.02978-.02942l-7.16358-4.12463Z"/></g><g id="Color"><path id="Base_Color" data-name="Base Color" class="cls-2" d="M186.59819,18.37272l-9.54541-5.4956a4.25634,4.25634,0,0,0-4.24218.002l-9.801,5.69687-13.89038-7.9978a.49629.49629,0,0,0-.3291-.06055l-30.85754,4.97168L96.64513,3.23244a.49608.49608,0,0,0-.22558-.06641C94.12218,3.05568,91.84191,3,89.64171,3,66.72179,3,45.11925,8.49709,28.81408,18.479,12.45031,28.4966,3.28624,41.87941,3.01037,56.16213a.47059.47059,0,0,0,.01782.07006c-.00037.00733-.00562.01343-.00562.02076V87.69826a.49978.49978,0,0,0,.25049.4331l82.79053,47.66871a.4959.4959,0,0,0,.45166.35327c1.707.07324,3.13818.11474,4.50391.13037.55517.00635,1.106.00928,1.65917.00928,47.89844,0,86.85059-23.11915,87.17237-51.98926.0039-.35694-.00586-.71192-.01563-1.06739l-.00171-11.624c.00245-.11487.01661-.22827.01783-.34326a.46813.46813,0,0,0-.018-.09424l-.00281-18.12793c.00293-.12793.0188-.254.02027-.38232.0039-.35694-.00586-.71241-.01563-1.06739l-.00488-.19287c-.00024-.01074-.00769-.01928-.00867-.02978a.48615.48615,0,0,0-.05432-.187.46663.46663,0,0,0-.03686-.05469.48485.48485,0,0,0-.12085-.119c-.01172-.00818-.01734-.02222-.02979-.02942l-7.16357-4.12463V30.31667l14.184-8.22813a2.14427,2.14427,0,0,0-.002-3.71582ZM47.13329,46.97206c-2.2572,5.06568-1.72913,8.45691-5.33337,11.33325a14.77091,14.77091,0,0,1-17.50916-.14917c4.16162-6.42565,11.21643-14.08642,22.99048-20.069.61255-.31115,1.23425-.61547,1.87085-.91589a80.104,80.104,0,0,1,11.486-4.226C52.45653,37.77638,48.88341,43.04445,47.13329,46.97206Zm98.44849,33.6438c-14.91077,12.49732-31.66834,14.57532-38.84461,15.02A48.11382,48.11382,0,0,0,121.577,91.21022c11.15576-5.46716,16.11364-16.79114,16.44006-19.33411a7.18665,7.18665,0,0,1,1.7489-4.00268,9.45592,9.45592,0,0,1,1.36365-1.29041,10.77736,10.77736,0,0,1,1.65515-1.08361c.01526-.00855.02856-.01795.04395-.02637l.00036.00024.00659-.0039a16.67316,16.67316,0,0,1,15.50928.51855A63.1031,63.1031,0,0,1,145.58178,80.61586Z"/><g id="Middle_Circle_Color" data-name="Middle Circle Color"><path class="cls-3" d="M110.49027,58.714c0,4.50592-8.45592,8.15868-18.88684,8.15868S72.186,62.89949,72.186,58.39357,81,49.1039,91.4309,49.1039,110.49027,54.20812,110.49027,58.714Z"/></g><g id="Wire_Color" data-name="Wire Color"><polygon id="White" class="cls-3" points="167.135 21.528 179.928 14.225 175.116 11.694 163.144 18.764 167.135 21.528"/><g id="Black"><polygon points="172.085 24.503 185.561 16.697 188.191 20.912 171.916 30.795 172.085 24.503"/></g><polygon id="Red" class="cls-2" points="166.85 21.47 179.373 14.213 184.034 17.256 171.916 24.607 166.85 21.47"/></g></g><g id="Outline"><g id="Outside_Outline" data-name="Outside Outline"><path d="M89.64172,3c2.2002,0,4.48047.05569,6.77784.166a.49621.49621,0,0,1,.22558.06641l21.28748,12.25685,30.85754-4.9717A.4821.4821,0,0,1,148.87,10.511a.5003.5003,0,0,1,.24926.06717l13.89038,7.99781,9.801-5.69688a4.25645,4.25645,0,0,1,4.24219-.00194l9.54541,5.49559a2.1443,2.1443,0,0,1,.00195,3.71585l-14.184,8.22809V46.85976l7.16357,4.12462c.01245.00721.01807.02125.02979.02943a.48545.48545,0,0,1,.12085.119.46915.46915,0,0,1,.03686.05469.4864.4864,0,0,1,.05432.187c.001.0105.00843.019.00867.02978l.00488.19287c.00977.355.01953.71044.01563,1.06739-.00147.12831-.01734.25441-.02027.38231l.00281,18.12792a.46832.46832,0,0,1,.018.09426c-.00122.115-.01538.22838-.01783.34324l.00171,11.624c.00977.35547.01953.71044.01563,1.06737-.32178,28.87013-39.27393,51.98926-87.17237,51.98926-.55322,0-1.104-.00291-1.65917-.00925-1.36573-.01562-2.79688-.05716-4.50391-.13038a.49589.49589,0,0,1-.45166-.35328L3.27307,88.13138a.49985.49985,0,0,1-.25049-.43314V56.25293c0-.00731.00525-.0134.00562-.02074a.47041.47041,0,0,1-.01782-.07007C3.28625,41.87941,12.45032,28.4966,28.81409,18.479,45.11926,8.4971,66.7218,3,89.64172,3m0-3c-23.46551,0-45.62408,5.654-62.394,15.92041C9.98016,26.49126.30731,40.76213.01093,56.10419L0,56.66853l.02258.06293V87.69824A3.508,3.508,0,0,0,1.77924,90.733l82.2536,47.35952A3.49426,3.49426,0,0,0,86.387,139.1506c1.74213.07471,3.20325.117,4.59784.13293.56665.00647,1.12879.00944,1.69348.00944,23.71912,0,46.07959-5.5369,62.96241-15.59075,17.3789-10.34931,27.04217-24.32943,27.20977-39.36506.00422-.38242-.00506-.76222-.01544-1.14246l-.00171-11.52705c.01007-.13268.01642-.24936.0177-.36681a3.16705,3.16705,0,0,0-.01788-.36793L182.83044,53.106l.00238-.027c.009-.12629.01624-.25269.0177-.38016.00434-.39705-.00573-.791-.01654-1.18434l-.00476-.18605-.01434-.56769-.12024-.28778a3.49864,3.49864,0,0,0-.27649-.69,3.22119,3.22119,0,0,0-.26037-.413,3.311,3.311,0,0,0-.38153-.44416l-.1991-.24534-.49433-.29244-5.66668-3.26275V32.04462l12.68933-7.36106a5.14428,5.14428,0,0,0-.01013-8.91057l-9.54572-5.49577a7.25641,7.25641,0,0,0-7.23871.00359l-8.30841,4.82928-12.38629-7.1318a3.49361,3.49361,0,0,0-2.32153-.41951l-29.788,4.79931L98.14209.6326a3.49946,3.49946,0,0,0-1.5755-.463C94.22205.057,91.89319,0,89.64172,0Z"/></g><g id="Middle_Circles" data-name="Middle Circles"><ellipse id="Outer_Middle_Circle" data-name="Outer Middle Circle" class="cls-4" cx="91.48784" cy="55.50512" rx="20.73324" ry="11.54533"/><path id="Inner_Middle_Circle" data-name="Inner Middle Circle" class="cls-5" d="M110.48742,58.82619c-.1969,4.50305-10.59888,8.26965-19.05652,8.22424-8.66528-.04663-19.14966-4.1156-19.24487-8.65686-.0951-4.5376,10.1853-9.38647,19.24487-9.28967C100.50792,49.20082,110.6859,54.28737,110.48742,58.82619Z"/></g><polygon id="Front" class="cls-4" points="3.523 56.253 3.523 87.698 86.443 135.442 86.443 103.997 3.523 56.253"/><path id="Top" class="cls-4" d="M96.39574,3.66567q-3.34368-.16059-6.75378-.16541c-47.23291,0-85.56861,23.52429-86.13159,52.67188l83.02646,47.84251c1.48718.064,2.981.113,4.48755.12977,47.58081.52966,87.99819-22.03955,88.32607-51.4851.00464-.41541-.00927-.82837-.02-1.24182Z"/><path id="Crease_Line" data-name="Crease Line" class="cls-4" d="M3.63661,74.772l82.67277,47.63871c1.48718.064,2.981.113,4.48755.12976,47.58081.52966,88.22656-21.83123,88.55444-51.27678"/><path id="Line_1" data-name="Line 1" class="cls-4" d="M86.53683,135.65381c1.48718.064,2.981.113,4.48755.12976,47.58081.52966,87.99819-22.03954,88.32607-51.4851.00464-.4154-.00927-.82837-.02-1.24182V51.4175"/><g id="Right"><path class="cls-4" d="M159.16742,52.11117c-4.22288-3.64238-11.85225-4.31477-16.98613-1.59227l-.00661.00387-.00026-.00023c-.01539.00841-.02873.01787-.044.02635a10.78328,10.78328,0,0,0-1.65513,1.08363,9.45691,9.45691,0,0,0-1.36362,1.29043,7.18566,7.18566,0,0,0-1.74885,4.00266c-.32651,2.543-5.28438,13.867-16.44013,19.334-10.60157,5.21467-26.49833,4.86718-29.86107,4.50939a16.425,16.425,0,0,0-5.50137.2609c-.0295.00683-.058.01616-.08742.02319a9.91931,9.91931,0,0,0-2.62177.92859c-.04486.02378-.08372.05173-.12778.07606-.05244.02652-.10725.04965-.15918.077l.01063.01151c-3.85566,2.23222-4.51255,6.624-1.42294,10.00421a12.00783,12.00783,0,0,0,8.235,3.60569c8.23721.76106,24.81977.98027,41.59775-6.39209.64451-.28315,1.27421-.57065,1.89485-.86527,19.69373-9.34862,26.6565-23.61448,28.74611-29.4782l-.02887-.00533C162.30907,56.69478,161.53947,54.15715,159.16742,52.11117Z"/><path class="cls-4" d="M158.34491,65.98791a16.67307,16.67307,0,0,0-15.50926-.51851l-.00662.00387-.00025-.00022c-.01539.0084-.02873.01787-.044.02634a10.78258,10.78258,0,0,0-1.65513,1.08364,9.45639,9.45639,0,0,0-1.36362,1.29043,7.18554,7.18554,0,0,0-1.74885,4.00265c-.32651,2.543-5.28438,13.867-16.44014,19.33406a48.11263,48.11263,0,0,1-14.83988,4.42567"/></g><g id="Left"><path class="cls-4" d="M23.3807,57.94143c4.31935,3.52744,11.964,3.99431,17.02282,1.13467l.00651-.004.00026.00021c.01516-.00881.02824-.01863.04331-.02752A10.78331,10.78331,0,0,0,42.079,57.917a9.45719,9.45719,0,0,0,1.32841-1.32666,7.18564,7.18564,0,0,0,1.64052-4.04826c.258-2.55087,4.90936-14.00415,15.914-19.76938,10.45743-5.498,26.35779-5.57837,29.72893-5.31119a16.42517,16.42517,0,0,0,5.49236-.40882c.02931-.00763.05752-.01772.08677-.02553a9.9196,9.9196,0,0,0,2.59583-.9988c.0442-.025.0823-.054.12569-.07947.05171-.02792.10588-.05252.157-.08123l-.01094-.01121c3.79421-2.33516,4.3327-6.743,1.15326-10.03887a12.00778,12.00778,0,0,0-8.329-3.38282c-8.2547-.53916-24.83716-.31212-41.4107,7.509-.63666.30039-1.2584.60472-1.8709.91594-19.43507,9.8751-26.01148,24.32313-27.94256,30.241l.029.00454C20.11686,53.444,20.95446,55.96,23.3807,57.94143Z"/><path class="cls-4" d="M60.63808,32.94532a80.09773,80.09773,0,0,0-11.486,4.22595c-.63666.30039-1.2584.60472-1.8709.91594-11.774,5.98247-18.82879,13.64325-22.99045,20.069"/></g><g id="Shaft_Insert" data-name="Shaft Insert"><line class="cls-4" x1="90.10957" y1="56.43051" x2="90.10957" y2="65.08444"/><path id="Shaft_Entry" data-name="Shaft Entry" class="cls-6" d="M92.6942,66.86659,82.34606,60.73525a8.1856,8.1856,0,0,1,7.86536-4.49341q5.174,3.06573,10.34814,6.13135a8.5061,8.5061,0,0,1-7.86536,4.4934Z"/></g><g id="Back_Top" data-name="Back/Top"><polygon id="Top-2" data-name="Top" class="cls-4" points="148.87 11.011 117.888 16.003 162.554 41.721 171.916 24.281 148.87 11.011"/><line id="Line_1-2" data-name="Line 1" class="cls-4" x1="169.73574" y1="45.8931" x2="171.83359" y2="41.98489"/><line id="Line_2" data-name="Line 2" class="cls-4" x1="171.91595" y1="24.28063" x2="171.91595" y2="47.14847"/></g><g id="Wire_Group" data-name="Wire Group"><line class="cls-4" x1="167.31843" y1="21.46801" x2="178.75814" y2="14.82524"/><line class="cls-4" x1="172.08526" y1="24.50332" x2="183.73681" y2="17.73827"/><path class="cls-4" d="M186.34868,18.80607l-2.55163-1.46924-4.22059-2.42993-2.77319-1.59668a3.746,3.746,0,0,0-3.74255.002L163.01024,19.153l8.90564,5.12769.00007,5.747,14.43444-8.372A1.64464,1.64464,0,0,0,186.34868,18.80607Z"/></g></g></g></g></g></svg>