<svg xmlns="http://www.w3.org/2000/svg" viewBox="0 0 299.51428 259.48545"><defs><style>.cls-1{fill:#dededf;opacity:0.9;}.cls-2{fill:#d7282f;}.cls-3{fill:#666;}.cls-4{fill:#fff;}.cls-5{fill:#333;}.cls-6,.cls-7{fill:none;stroke:#000;}.cls-6{stroke-linecap:round;stroke-linejoin:round;}.cls-7{stroke-miterlimit:10;}</style></defs><title>Ultrasonic Range Finder</title><g id="Layer_2" data-name="Layer 2"><g id="EDR"><g id="Ultrasonic_Range_Finder" data-name="Ultrasonic Range Finder"><g id="Color"><g id="Shadow"><path id="Unselected" class="cls-1" d="M10.40938,111.20282,86.89821,68.12827,294.11565,187.45483a8.873,8.873,0,0,1,.01369,15.36942l-62.04072,35.8484a27.37685,27.37685,0,0,1-27.36744.02708L10.41455,126.57891A8.873,8.873,0,0,1,10.40938,111.20282Z"/><path id="Selected" class="cls-1" d="M10.40938,128.337,86.89821,85.26243,294.11565,204.589a8.873,8.873,0,0,1,.01369,15.36942L232.08862,255.8068a27.37683,27.37683,0,0,1-27.36744.02708L10.41455,143.71306A8.873,8.873,0,0,1,10.40938,128.337Z"/></g><g id="Base_Color" data-name="Base Color"><path id="Red" class="cls-2" d="M294.71485,150.19258l-36.46911-20.93506a.347.347,0,0,1-.17444-.30127V88.312a14.344,14.344,0,0,0-7.19007-12.43262L227.39161,62.2956a.28217.28217,0,0,1-.00281-.48681l11.56511-7.038a2.21358,2.21358,0,0,0-.02667-3.822l-8.8714-5.10278a4.21556,4.21556,0,0,0-4.21686.008l-13.53776,7.65252a.28235.28235,0,0,1-.28229.00049l-9.9632-5.7356.00128-.603,11.92937-6.32171a2.18012,2.18012,0,0,0,.06586-3.78247l-9.13068-5.27539a4.88257,4.88257,0,0,0-4.92731.02441l-12.40336,7.42742a.34725.34725,0,0,1-.35.002l-61.344-35.3147a6.96385,6.96385,0,0,0-6.95477.00488l-73.5738,42.4729A4.52113,4.52113,0,0,0,43.1114,50.132a.34031.34031,0,0,1-.16724.28369L4.92481,72.36348A3.84967,3.84967,0,0,0,3,75.69722v7.04711a3.72352,3.72352,0,0,0,1.86639,3.2273L216.53559,207.76728a4.18126,4.18126,0,0,0,4.176-.00293L294.49,165.17305a4.04829,4.04829,0,0,0,2.02429-3.50611v-8.363A3.58981,3.58981,0,0,0,294.71485,150.19258ZM244.5434,172.53511a16.11182,16.11182,0,0,1-8.11316-2.35059l-6.51953-3.71045a5.62558,5.62558,0,0,0,.32959-1.29419,15.95924,15.95924,0,0,1,3.23371-.30835,14.7427,14.7427,0,0,1,7.87646,2.085l7.10626,3.91822a1.97422,1.97422,0,0,0,.01081,1.18945A16.34269,16.34269,0,0,1,244.5434,172.53511Z"/><path id="Gray_Color" data-name="Gray Color" class="cls-3" d="M297.26313,149.96357l-37.1319-21.50268L179.1587,174.89521a17.55842,17.55842,0,0,1-5.75824-2.3601c-3.58405-2.0752-3.32221-3.99805-3.32221-3.99805V138.71089c0-7.25-3.65081-9.6543-3.65081-9.6543s-104.92383-60.374-108.59809-62.488c-3.67425-2.11425-5.22381,2.14234-5.22381,2.14234L52.49226,100.956l-1.49543.95166L43.7497,97.9355l-.53485-1.42456.05347-47.28833S9.75623,68.21089,5.00623,70.58589s-3.5,6.25-3.5,6.25l-.14862,9.125,217.6781,123.96679,74.84552-42.23632,3.75635-4.10547ZM244.5434,172.53511a16.11182,16.11182,0,0,1-8.11316-2.35059l-6.51953-3.71045a5.62558,5.62558,0,0,0,.32959-1.29419,15.95924,15.95924,0,0,1,3.23371-.30835,14.7427,14.7427,0,0,1,7.87646,2.085l7.10626,3.91822a1.97422,1.97422,0,0,0,.01081,1.18945A16.34269,16.34269,0,0,1,244.5434,172.53511Z"/></g><g id="Wire_Color" data-name="Wire Color"><polygon id="White" class="cls-4" points="192.255 42.242 207.101 33.475 202.576 30.517 187.569 39.398 192.255 42.242"/><g id="Black"><polygon points="196.787 44.18 211.741 35.729 216.982 39.799 202.85 47.711 196.787 44.18"/></g><polygon id="Red-2" data-name="Red" class="cls-2" points="192.255 42.242 207.101 33.475 211.62 36.017 196.975 44.398 192.255 42.242"/><polygon id="White-2" data-name="White" class="cls-4" points="217.317 56.206 232.163 47.439 227.638 44.481 212.631 53.362 217.317 56.206"/><g id="Black-2" data-name="Black"><polygon points="221.85 58.144 236.804 49.693 242.044 53.763 227.912 61.675 221.85 58.144"/></g><polygon id="Red-3" data-name="Red" class="cls-2" points="217.317 56.206 232.163 47.439 236.682 49.981 222.037 58.362 217.317 56.206"/></g><ellipse id="Right_Sensor" data-name="Right Sensor" class="cls-5" cx="180.3378" cy="80.37881" rx="25.33033" ry="13.17618"/><ellipse id="Left_Sensor" data-name="Left Sensor" class="cls-5" cx="119.27022" cy="45.05373" rx="25.33033" ry="13.17618"/></g><g id="Outline"><g id="Outside_Outline" data-name="Outside Outline"><path d="M122.42378,3a6.96045,6.96045,0,0,1,3.47309.92792l61.344,35.31469a.34737.34737,0,0,0,.35009-.002l12.40337-7.42737a4.88231,4.88231,0,0,1,4.92727-.02453l9.13068,5.27551a2.1802,2.1802,0,0,1-.06582,3.78253L202.057,47.16846l-.00128.60284,9.96318,5.73566a.28211.28211,0,0,0,.28228-.00049L225.839,45.85394a4.21514,4.21514,0,0,1,4.21682-.00787l8.87141,5.1026a2.21351,2.21351,0,0,1,.02668,3.822l-11.56509,7.03821a.28209.28209,0,0,0,.00282.48675l23.48959,13.58374A14.344,14.344,0,0,1,258.07128,88.312V128.9563a.34741.34741,0,0,0,.17445.30127l36.46914,20.935a3.58978,3.58978,0,0,1,1.79941,3.11132v8.36316A4.04809,4.04809,0,0,1,294.49,165.173l-73.77846,42.59137a4.18146,4.18146,0,0,1-4.176.003L4.86642,85.97162A3.72348,3.72348,0,0,1,3,82.74432V75.6972a3.84924,3.84924,0,0,1,1.92484-3.33367l38.0193-21.94782a.34023.34023,0,0,0,.16728-.28369,4.521,4.521,0,0,1,2.25685-3.72632L118.94209,3.9328A6.95847,6.95847,0,0,1,122.42378,3m.00014-3h-.00005a9.97669,9.97669,0,0,0-4.98169,1.33466L43.86841,43.80756a7.47962,7.47962,0,0,0-3.52823,4.6474L3.425,69.76538A6.86826,6.86826,0,0,0,0,75.6972v7.04712a6.74125,6.74125,0,0,0,3.37,5.82746L215.03937,210.36761a7.18151,7.18151,0,0,0,7.17214-.00518l73.77836-42.59131a7.0676,7.0676,0,0,0,3.52441-6.10407v-8.36316a6.60682,6.60682,0,0,0-3.30318-5.7116l-35.13982-20.17188V88.312a17.38887,17.38887,0,0,0-8.69382-15.0329L232.85881,61.9917l7.65474-4.65833a5.21349,5.21349,0,0,0-.09055-8.98523l-8.87141-5.1026a7.21525,7.21525,0,0,0-7.21809.01349l-12.16156,6.87439-4.459-2.56695,7.67823-4.06891.03982-.02118.03923-.02228a5.24119,5.24119,0,0,0,2.64572-4.52557,5.07819,5.07819,0,0,0-2.5629-4.462l-9.13064-5.27545a7.88289,7.88289,0,0,0-7.95473.03955l-11.08,6.63489-59.994-34.5376A9.97924,9.97924,0,0,0,122.42392,0Z"/></g><g id="Lines"><line class="cls-6" x1="179.15872" y1="174.89515" x2="258.07129" y2="129.35391"/><line class="cls-6" x1="3.33295" y1="74.71909" x2="45.84146" y2="99.13689"/><polyline class="cls-6" points="176.984 174.61 216.282 197.222 295.866 151.294"/><path class="cls-6" d="M170.07825,168.53691v-33.1677a7.28315,7.28315,0,0,0-3.65079-6.31272L57.82935,66.56851a3.48548,3.48548,0,0,0-5.22381,3.02105v30.7869a1.534,1.534,0,0,1-2.2991,1.32962l-5.57417-3.20743a3.2416,3.2416,0,0,1-1.6249-2.80968V50.14014A2.73606,2.73606,0,0,1,47.208,47.76865L177.06136,122.4871a5.0174,5.0174,0,0,1,2.51506,4.34887V173.9437a1.24056,1.24056,0,0,1-1.85928,1.07527l-5.83034-3.35483A3.608,3.608,0,0,1,170.07825,168.53691Z"/><line class="cls-6" x1="125.62797" y1="3.67559" x2="255.48134" y2="78.39403"/></g><g id="Hole"><path d="M233.12152,153.90594a13.42434,13.42434,0,0,1,7.06651,1.84717q.0217.01392.04412.02674l11.15522,6.37317q.02253.01547.04605.02978c1.72964,1.05255,2.68219,2.4054,2.68219,3.80933,0,3.00457-4.38353,5.543-9.5722,5.543a15.03037,15.03037,0,0,1-7.61853-2.21967l-9.7606-5.55512c-1.64912-.92932-3.61495-2.43164-3.61495-4.31115,0-3.00476,4.38353-5.54322,9.57219-5.54322m0-1c-5.83885,0-10.57219,2.92945-10.57219,6.54322,0,2.11065,1.76941,3.85547,4.124,5.18237l9.75692,5.553a16.11183,16.11183,0,0,0,8.11317,2.35059c5.83886,0,10.5722-2.9292,10.5722-6.543,0-1.82666-1.2121-3.47681-3.16235-4.66358l.003-.0022-11.228-6.41479a14.28749,14.28749,0,0,0-7.6067-2.00562Z"/><path class="cls-6" d="M248.59721,171.52339l-7.51666-4.14624a14.28748,14.28748,0,0,0-7.60669-2.00561,15.10817,15.10817,0,0,0-3.78055.43132"/></g><g id="Right_Sensor-2" data-name="Right Sensor"><ellipse class="cls-6" cx="180.3378" cy="80.37881" rx="25.33033" ry="13.17618"/><ellipse class="cls-6" cx="180.3378" cy="78.0199" rx="29.07405" ry="17.48247"/></g><g id="Left_Sensor-2" data-name="Left Sensor"><ellipse class="cls-6" cx="119.27022" cy="45.05373" rx="25.33033" ry="13.17618"/><ellipse class="cls-6" cx="119.05191" cy="43.02627" rx="29.96039" ry="17.48247"/></g><g id="Wires"><polygon class="cls-7" points="207.101 33.614 192.255 41.968 196.475 44.398 211.321 36.044 207.101 33.614"/><path class="cls-7" d="M211.32126,36.04418,196.475,44.39839l5.32243,3.05367,12.07739-7.0889a1.64463,1.64463,0,0,0-.00159-2.84957Z"/><path class="cls-7" d="M200.58507,32.01962l-12.76855,7.43965,4.43813,2.50919,14.84627-8.35422-2.7732-1.59674A3.74666,3.74666,0,0,0,200.58507,32.01962Z"/><polygon class="cls-7" points="232.26 47.686 217.413 56.04 221.634 58.47 236.48 50.116 232.26 47.686"/><path class="cls-7" d="M236.48,50.11605l-14.84628,8.35421,5.32243,3.05368L239.03353,54.435a1.64462,1.64462,0,0,0-.00158-2.84956Z"/><path class="cls-7" d="M225.74381,46.09149l-12.76855,7.43966,4.43812,2.50918,14.84628-8.35421-2.77321-1.59675A3.74664,3.74664,0,0,0,225.74381,46.09149Z"/></g></g></g></g></g></svg>