<svg xmlns="http://www.w3.org/2000/svg" viewBox="0 0 225.07993 228.98447"><defs><style>.cls-1{fill:#dededf;opacity:0.9;}.cls-2{fill:#666;}.cls-3{fill:gray;}.cls-4{fill:#d7282f;}.cls-5{fill:none;stroke:#000;stroke-linecap:round;stroke-linejoin:round;}</style></defs><title>V5 Camera</title><g id="Layer_2" data-name="Layer 2"><g id="EDR"><g id="V5_Camera" data-name="V5 Camera"><g id="Shadows"><path id="Shadow_Selected_Height" data-name="Shadow Selected Height" class="cls-1" d="M4.44048,149.02877,94.85083,96.82645,214.42536,165.681a8.873,8.873,0,0,1,.0137,15.36943l-76.68429,43.94069c-8.46319,4.89517-18.386,5.50555-26.85882.62714L4.44564,164.40486A8.873,8.873,0,0,1,4.44048,149.02877Z"/><path id="Shadow_Unselected_Height" data-name="Shadow Unselected Height" class="cls-1" d="M5.63537,131.50023,96.04572,79.29791l119.57453,68.8546a8.873,8.873,0,0,1,.0137,15.36942l-76.68429,43.9407c-8.46319,4.89516-18.38595,5.50554-26.85882.62713L5.64053,146.87632A8.873,8.873,0,0,1,5.63537,131.50023Z"/></g><g id="Color"><g id="Base_Color" data-name="Base Color"><path class="cls-2" d="M93.93034,5.591,15.73768,50.73032A14.27459,14.27459,0,0,0,8.59977,63.09283v39.55484a14.08191,14.08191,0,0,0,7.05879,12.20558l91.563,52.68565a35.842,35.842,0,0,0,35.7951-.02527l71.93991-41.52975a14.24551,14.24551,0,0,0,7.12338-12.33733V76.54485a14.42972,14.42972,0,0,0-7.23312-12.507L113.24776,5.57735A19.3427,19.3427,0,0,0,93.93034,5.591Z"/></g><g id="Lens_Color" data-name="Lens Color"><path id="Outside" class="cls-3" d="M162.45207,41.17636,146.4055,31.943a3.44728,3.44728,0,0,0-3.44263.00244l-16.1311,9.3125a1.56965,1.56965,0,0,0,.00195,2.72l16.04657,9.2334a3.44725,3.44725,0,0,0,3.44263-.00244l16.131-9.3125A1.56965,1.56965,0,0,0,162.45207,41.17636Z"/><path id="Camera" d="M136.62038,41.4265l6.335-3.65726a3.47061,3.47061,0,0,1,3.46615-.00245l6.2421,3.59182a1.36709,1.36709,0,0,1,.00167,2.36888l-6.335,3.65726a3.47061,3.47061,0,0,1-3.46615.00245l-6.2421-3.59182A1.36709,1.36709,0,0,1,136.62038,41.4265Z"/></g><g id="VEX_Logo" data-name="VEX Logo"><path class="cls-4" d="M103.93576,90.44641a.22435.22435,0,0,0-.10149-.025s-5.40539-.20344-5.66571-.21317c-.01474-.14748-.32282-3.22174-.32282-3.22174a.07694.07694,0,0,0-.0429-.05758l-2.63711-1.51248a.31224.31224,0,0,0-.23617-.005.33772.33772,0,0,0-.0532.02362c-.05308.02972-.08369.06987-.07932.10726,0,0,.50607,4.23327.54273,4.5406-.54353-.02626-8.6441-.41615-8.6441-.41615a.37331.37331,0,0,0-.19107.04372.21074.21074,0,0,0-.04187.02984c-.0528.04747-.05054.10179.00528.13381l2.695,1.54568a.21852.21852,0,0,0,.10088.02489s5.99976.23318,6.26127.24332c.0136.14875.32575,3.53432.32575,3.53432a.07658.07658,0,0,0,.043.05792l2.65159,1.52078a.344.344,0,0,0,.28918-.01878c.05308-.02972.08369-.06987.07894-.10748,0,0-.5638-4.57864-.6019-4.88707.54058.02513,8.01943.37015,8.01943.37015a.371.371,0,0,0,.19064-.0437.23406.23406,0,0,0,.04206-.02973c.05225-.0478.05-.10212-.00529-.13381Z"/><path class="cls-4" d="M83.20171,78.55465a.267.267,0,0,0-.15735-.02265s-9.70052,1.16623-10.18491,1.22445c.11271-.27358,2.35254-5.715,2.35254-5.715a.06919.06919,0,0,0-.0374-.09069l-2.21445-1.27006a.29662.29662,0,0,0-.20758-.01329.22457.22457,0,0,0-.15635.10652L69.7018,80.19112a.06944.06944,0,0,0,.0384.08907l2.15619,1.23666a.26285.26285,0,0,0,.15539.0229L85.246,80.03017a.30163.30163,0,0,0,.19078-.087.07149.07149,0,0,0-.02041-.11831Z"/><path class="cls-4" d="M86.7031,80.56119A5.8266,5.8266,0,0,1,88.557,79.061c1.82387-1.02134,4.06418-1.47276,4.92681-.978l5.4571,3.12985c.29073.16675.01888.58975-.60116.937a2.18257,2.18257,0,0,1-1.66035.32946l-5.4571-3.12986a2.115,2.115,0,0,0-1.60684.31866c-.58344.32672-.94332.76131-.63623.93744l5.4571,3.12985c.29073.16674.02688.58526-.584.92732l-.00048.00027a2.14689,2.14689,0,0,1-1.64339.32L86.75138,81.853a2.23361,2.23361,0,0,0-1.66139.3492c-.58391.327-.872.74012-.58145.90676l5.4571,3.12986c.29073.16674.01889.58974-.6009.93681a2.18279,2.18279,0,0,1-1.66059.32959l-5.4571-3.12985c-.86264-.49475-.03926-1.759,1.78449-2.78023a10.16808,10.16808,0,0,1,2.66914-1.03262Z"/><path class="cls-4" d="M100.54413,95.34717a.28329.28329,0,0,1,.13841.1596.2266.2266,0,0,1-.04389.2048.64755.64755,0,0,1-.21841.18685,1.19532,1.19532,0,0,1-.32888.12047,1.13781,1.13781,0,0,1-.36043.02354.7141.7141,0,0,1-.2841-.08079.27881.27881,0,0,1-.13932-.16206.23155.23155,0,0,1,.04565-.20408.64179.64179,0,0,1,.21629-.185,1.19723,1.19723,0,0,1,.3325-.12143,1.12648,1.12648,0,0,1,.36224-.02221A.71917.71917,0,0,1,100.54413,95.34717Zm-.09089.0509a.59815.59815,0,0,0-.23372-.067.94582.94582,0,0,0-.30213.01878.99712.99712,0,0,0-.27747.10106.5316.5316,0,0,0-.18013.15413.19461.19461,0,0,0-.03768.17044.23081.23081,0,0,0,.11563.13527.595.595,0,0,0,.23731.06715.9567.9567,0,0,0,.3008-.01953.99151.99151,0,0,0,.27391-.10034.538.538,0,0,0,.18181-.15592.18988.18988,0,0,0,.03676-.171A.23541.23541,0,0,0,100.45324,95.39807Zm-.948.31931.59047-.33066.1573.09023a.32029.32029,0,0,1,.10046.076.059.059,0,0,1,.00031.065.161.161,0,0,1-.06511.06075.35535.35535,0,0,1-.14861.04253.29136.29136,0,0,1-.14872-.0243.0606.0606,0,0,1,.00764.03982.3765.3765,0,0,1-.04942.10436l-.0598.09676-.09021-.05174.05248-.0754a.2691.2691,0,0,0,.0602-.12126q.00007-.02306-.03886-.04536l-.0434-.02489-.25086.14048Zm.40618-.14373.08964.05141a.22955.22955,0,0,0,.1123.03639.18261.18261,0,0,0,.08894-.02318.086.086,0,0,0,.03575-.0328.03459.03459,0,0,0-.00061-.03524.192.192,0,0,0-.06387-.04817l-.084-.04818Z"/></g></g><g id="Outline"><g id="Outside_Outline" data-name="Outside Outline"><path d="M103.601,3a19.33185,19.33185,0,0,1,9.64679,2.57733L214.84683,64.03784a14.42965,14.42965,0,0,1,7.2331,12.507v37.10169a14.24559,14.24559,0,0,1-7.12336,12.33734l-71.93994,41.52972a35.842,35.842,0,0,1-35.7951.02527l-91.563-52.68561a14.082,14.082,0,0,1-7.05872-12.20563V63.09283a14.27452,14.27452,0,0,1,7.13782-12.36248L93.93033,5.591A19.32882,19.32882,0,0,1,103.601,3m0-3A22.3729,22.3729,0,0,0,92.43045,2.99286L14.23776,48.1322A17.32242,17.32242,0,0,0,5.59982,63.09283v39.55481a17.1263,17.1263,0,0,0,8.5625,14.80585l91.563,52.68567a38.84213,38.84213,0,0,0,38.7912-.0274L216.45645,128.582a17.29324,17.29324,0,0,0,8.62348-14.93548V76.54486a17.47479,17.47479,0,0,0-8.73688-15.1073L114.744,2.97705A22.37543,22.37543,0,0,0,103.601,0Z"/></g><g id="Camera_Lens" data-name="Camera Lens"><path class="cls-5" d="M142.9629,31.94538l-16.13113,9.31246a1.56977,1.56977,0,0,0,.00193,2.72009l16.04661,9.23331a3.4471,3.4471,0,0,0,3.4426-.00245L162.454,43.89633a1.56977,1.56977,0,0,0-.00193-2.72009l-16.04656-9.2333A3.44707,3.44707,0,0,0,142.9629,31.94538Z"/><path class="cls-5" d="M136.62038,41.4265l6.335-3.65726a3.47061,3.47061,0,0,1,3.46615-.00245l6.2421,3.59182a1.36709,1.36709,0,0,1,.00167,2.36888l-6.335,3.65726a3.47061,3.47061,0,0,1-3.46615.00245l-6.2421-3.59182A1.36709,1.36709,0,0,1,136.62038,41.4265Z"/></g><g id="Top_Outline" data-name="Top Outline"><path class="cls-5" d="M214.62644,63.837,183.39334,45.8538a14.75742,14.75742,0,0,0-14.74164.00834L152.26355,55.3227a14.54623,14.54623,0,0,1-14.53066.00822l-16.81653-9.68251a3.53245,3.53245,0,0,1-.00348-6.12055l20.62606-11.90724a3.38647,3.38647,0,0,0-.00333-5.86761L111.043,4.196a14.55634,14.55634,0,0,0-14.56285.02094l-80.3764,46.5874a3.40541,3.40541,0,0,0,.00849,5.89747l103.58355,59.64062a14.556,14.556,0,0,0,14.56274-.02076l80.37641-46.58716A3.4054,3.4054,0,0,0,214.62644,63.837Z"/><path class="cls-5" d="M96.359,4.189,13.66652,51.926A11.02166,11.02166,0,0,0,13.68,71.02441l92.64894,53.31066a35.88676,35.88676,0,0,0,35.83985-.02528L217.093,81.05723a9.07962,9.07962,0,0,0-.0111-15.73321L110.81711,4.17875A14.477,14.477,0,0,0,96.359,4.189Z"/></g><g id="Line_Group_1" data-name="Line Group 1"><path id="Line_3" data-name="Line 3" class="cls-5" d="M104.71476,142.73151l1.61417.9288a35.88678,35.88678,0,0,0,35.83985-.02528L217.093,100.38247c3.2051-1.85025,5.71193-5.11344,5.52354-8.34625"/><line id="Line_2" data-name="Line 2" class="cls-5" x1="65.37079" y1="120.09279" x2="83.38683" y2="130.45931"/><path id="Line_1" data-name="Line 1" class="cls-5" d="M8.1554,80.73263a10.92009,10.92009,0,0,0,5.52459,9.617l29.894,17.20113"/></g><g id="Smart_Port" data-name="Smart Port"><line id="Inside_Line" data-name="Inside Line" class="cls-5" x1="84.24778" y1="141.04239" x2="97.71253" y2="133.2694"/><polygon id="Smart_Port-2" data-name="Smart Port" class="cls-5" points="104.548 147.555 101.16 145.606 101.16 148.728 97.582 146.648 97.582 148.783 83.542 140.704 83.542 123.322 97.582 131.401 97.582 133.269 101.295 135.406 101.295 138.439 104.535 140.317 104.548 147.555"/></g><g id="Port_1" data-name="Port 1"><polyline id="Inside_Line-2" data-name="Inside Line" class="cls-5" points="65.193 120.653 59 124.228 59.004 125.952 52.185 129.889"/><polygon id="Port_1-2" data-name="Port 1" class="cls-5" points="63.18 138.78 55.38 134.292 55.37 131.86 52.065 129.958 52.077 125.981 43.794 121.215 43.794 100.451 65.196 112.766 65.196 135.308 65.196 135.308 63.18 134.148 63.18 138.78"/></g><g id="Micro_USB_Port" data-name="Micro USB Port"><polygon class="cls-5" points="35.527 92.431 23.764 85.662 21.312 87.078 21.312 91.196 37.397 100.452 37.397 95.88 35.527 92.431"/><polyline class="cls-5" points="24.592 86.139 24.592 88.784 37.142 96.005"/></g></g></g></g></g></svg>