<?xml version="1.0" encoding="UTF-8"?><svg id="b" xmlns="http://www.w3.org/2000/svg" width="102" height="102" viewBox="0 0 102 102"><defs><style>.c{fill:#fff;}</style></defs><path class="c" d="M82.49419,44.98169c-3.93787-3.21375-8.83911-4.58527-13.5791-5.9115-7.81702-2.18732-13.69434-3.83185-14.84912-12.36261-.03784-.27936-.11328-.54395-.20691-.7995v-7.52466c3.84192,2.91595,8.51697,4.224,13.04504,5.49103,7.84973,2.19653,13.74353,3.84564,14.86328,12.47021.2395,1.84467,1.83228,3.21655,3.6925,3.21655,2.27942,0,3.99548-2.0238,3.69556-4.28345-.72449-5.45636-2.92249-9.6283-6.66125-12.6795-3.93787-3.21375-8.83911-4.58527-13.5791-5.9115-7.81702-2.18732-13.69434-3.83185-14.84912-12.36261-.25781-1.90448-1.89246-3.32416-3.81421-3.32416-2.12964,0-3.85608,1.72638-3.85608,3.85602v64.20471c-3.55115-2.58081-8.10352-4.13373-13.06091-4.13373-11.31714,0-20.52429,8.09106-20.52429,18.0365s9.20715,18.0365,20.52429,18.0365,20.52429-8.09106,20.52429-18.0365v-42.19666c3.84192,2.91595,8.51697,4.22406,13.04504,5.49109,7.84973,2.19647,13.74353,3.84558,14.86328,12.47015.2395,1.84467,1.83228,3.21661,3.6925,3.21661,2.27942,0,3.99548-2.02386,3.69556-4.28345-.72449-5.45642-2.92249-9.62836-6.66125-12.67957Z"/></svg>