<?xml version="1.0" encoding="UTF-8"?><svg id="b" xmlns="http://www.w3.org/2000/svg" width="102" height="102" viewBox="0 0 102 102"><path d="M82.37727,22.59826c-3.93793-3.21373-8.83912-4.58525-13.57911-5.91149-7.81708-2.18733-13.69445-3.83183-14.84918-12.36263-.25779-1.90447-1.89243-3.32414-3.81427-3.32414h0c-2.12963,0-3.85603,1.7264-3.85603,3.85603v64.20471c-3.55107-2.58083-8.10348-4.13371-13.0609-4.13371-11.31721,0-20.52428,8.09105-20.52428,18.03649s9.20707,18.03649,20.52428,18.03649,20.52428-8.09105,20.52428-18.03649V18.38344c3.84189,2.91594,8.51695,4.22402,13.04498,5.49105,7.84981,2.19649,13.74364,3.8456,14.86342,12.4702.2395,1.84466,1.83229,3.21656,3.69243,3.21656h0c2.27942,0,3.99553-2.02385,3.69555-4.28345-.72438-5.45637-2.92255-9.62833-6.66116-12.67954Z"/></svg>