<?xml version="1.0" encoding="UTF-8"?>
<svg id="Layer_1" xmlns="http://www.w3.org/2000/svg" version="1.1" width="240" height="240" viewBox="0 0 512 512">
  <defs>
    <style>
      .st0 {
        fill: #1d78b6;
        fill-rule: evenodd;
      }
    </style>
  </defs>
  <g id="Icon">
    <path class="st0" d="M442.7,179.5c0-9.9-3.9-19.4-10.9-26.4-21.7-21.7-93.8-93.8-115.5-115.5-7-7-16.5-10.9-26.4-10.9h-161.8c-15.6,0-30.5,6.2-41.5,17.2-11,11-17.2,25.9-17.2,41.5v341.3c0,15.6,6.2,30.5,17.2,41.5,11,11,25.9,17.2,41.5,17.2h256c32.4,0,58.7-26.3,58.7-58.7v-247.2ZM256,208h-.4c-1.5,0-2.9.3-4.2.7h0c-2.4.7-4.7,2.1-6.6,4l-53.3,53.3c-6.3,6.2-6.3,16.4,0,22.6,6.2,6.3,16.4,6.3,22.6,0l26-26v121.4c0,8.8,7.2,16,16,16s16-7.2,16-16v-121.4l26,26c6.2,6.3,16.4,6.3,22.6,0,6.3-6.2,6.3-16.4,0-22.6l-53.3-53.3c-1.9-1.9-4.2-3.3-6.6-4h0c-1.3-.4-2.8-.7-4.2-.7h-.4ZM288,55.3v83.4c0,23.6,19.1,42.7,42.7,42.7h83.4c-1-2.3-2.5-4.4-4.3-6.3-21.7-21.7-93.8-93.8-115.5-115.5-1.8-1.8-3.9-3.3-6.3-4.3h0Z"/>
  </g>
</svg>
