<?xml version="1.0" encoding="UTF-8"?><svg id="b" xmlns="http://www.w3.org/2000/svg" width="50" height="50" viewBox="0 0 50 50"><defs><style>.d{fill:#e16fb2;}.e{fill:#da7355;}.f{fill:#fff;}.g{fill:#5b80be;}.h{fill:#575e75;}.i{fill:#2a55ad;}.j{fill:#3db0a8;}</style></defs><path class="f" d="M41.98307,11.68946H8.01682c-.89332,0-1.61789.72457-1.61789,1.61789v23.38529c0,.89332.72457,1.61789,1.61789,1.61789h33.96624c.89332,0,1.618-.72457,1.618-1.61789V13.30736c0-.89332-.72468-1.61789-1.618-1.61789ZM12.28877,18.14325c1.04104-.60582,2.23239-.92662,3.44456-.92759,1.1971,0,2.37478.31256,3.40714.90482.17981.10379.24228.33295.13904.51331-.10411.18025-.33241.24087-.5132.13904-.91848-.5273-1.96722-.80591-3.03255-.80591-1.07986.00098-2.14031.28642-3.06693.82587-.05965.03481-.1245.0513-.18849.0513-.12949,0-.25541-.06735-.32525-.18708-.10466-.17927-.0436-.40952.13567-.51374ZM12.82778,29.87358c-.06984.1206-.1963.18849-.32623.18849-.06344,0-.12797-.01648-.18708-.05043-2.11406-1.21944-3.43046-3.49054-3.43523-5.92736-.00054-.2079.16723-.37655.37459-.37655h.00098c.20747,0,.37568.16767.37568.37459.00434,2.17035,1.17671,4.19234,3.05912,5.27795.17981.10368.24185.33349.13817.51331ZM11.02237,24.12951c0-2.60199,2.1094-4.71139,4.71129-4.71139s4.71139,2.1094,4.71139,4.71139-2.1094,4.71129-4.71139,4.71129-4.71129-2.10929-4.71129-4.71129ZM22.58731,24.05175c.00054,2.45482-1.31043,4.72885-3.42113,5.95263-.05965.03438-.12407.05086-.18806.05086-.12993,0-.25595-.06735-.32568-.18751-.10422-.17981-.04273-.40952.13665-.51374,1.87948-1.08951,3.04752-3.11443,3.04752-5.28424,0-.20747.16767-.38924.37557-.38924.20747,0,.37514.15465.37514.36201h-.37557l.37557.00922ZM26.53054,35.21108c-.41537.41537-.96154.62328-1.50727.62328-.54617,0-1.0919-.2079-1.50782-.62328-.83064-.83161-.83064-2.18391,0-3.01509.40279-.40268.93833-.62425,1.50782-.62425s1.10448.22157,1.50727.62425c.40279.40279.62425.9379.62425,1.50738,0,.56938-.22146,1.10502-.62425,1.50771ZM29.82413,25.36218c-.71123.71134-1.86452.71134-2.57586,0-.71123-.71123-.71123-1.86452,0-2.57586.71134-.71123,1.86462-.71123,2.57586,0,.71134.71134.71134,1.86462,0,2.57586ZM32.45052,17.58407c.71134-.71123,1.86452-.71123,2.57586,0,.71134.71134.71134,1.86462,0,2.57596s-1.86452.71134-2.57586,0-.71134-1.86462,0-2.57596ZM35.07692,30.61486c-.71134.71134-1.86462.71134-2.57596,0-.71134-.71123-.71134-1.86452,0-2.57586s1.86462-.71134,2.57596,0c.71123.71134.71123,1.86462,0,2.57586ZM40.27906,25.41272c-.71134.71123-1.86452.71123-2.57586,0-.71134-.71134-.71134-1.86462,0-2.57596.71134-.71123,1.86452-.71123,2.57586,0,.71134.71134.71134,1.86462,0,2.57596Z"/><path class="h" d="M41.98307,9.91257H8.01682c-1.87189,0-3.39478,1.52289-3.39478,3.39478v23.38529c0,1.87189,1.52289,3.39478,3.39478,3.39478h33.96624c1.872,0,3.39489-1.52289,3.39489-3.39478V13.30736c0-1.87189-1.52289-3.39478-3.39489-3.39478ZM43.60107,36.69264c0,.89332-.72468,1.61789-1.618,1.61789H8.01682c-.89332,0-1.61789-.72457-1.61789-1.61789V13.30736c0-.89332.72457-1.61789,1.61789-1.61789h33.96624c.89332,0,1.618.72457,1.618,1.61789v23.38529Z"/><path class="i" d="M20.44505,24.12951c0-2.60199-2.1094-4.71139-4.71139-4.71139s-4.71129,2.1094-4.71129,4.71139,2.1094,4.71129,4.71129,4.71129,4.71139-2.10929,4.71139-4.71129Z"/><path class="i" d="M9.63049,24.08233c0-.20693-.16821-.37459-.37568-.37459h-.00098c-.20736,0-.37514.16864-.37459.37655.00477,2.43682,1.32117,4.70792,3.43523,5.92736.05911.03395.12364.05043.18708.05043.12993,0,.25638-.06789.32623-.18849.10368-.17981.04165-.40963-.13817-.51331-1.88241-1.08561-3.05478-3.1076-3.05912-5.27795Z"/><path class="i" d="M22.21217,23.68051c-.2079,0-.37557.18177-.37557.38924,0,2.16981-1.16803,4.19473-3.04752,5.28424-.17938.10422-.24087.33393-.13665.51374.06973.12017.19576.18751.32568.18751.06399,0,.12841-.01648.18806-.05086,2.1107-1.22378,3.42168-3.49781,3.42113-5.95263l-.37557-.00922h.37557c0-.20736-.16767-.36201-.37514-.36201Z"/><path class="i" d="M12.47834,18.84407c.06399,0,.12884-.01648.18849-.0513.92662-.53944,1.98707-.82489,3.06693-.82587,1.06533,0,2.11406.27861,3.03255.80591.18079.10184.40908.04121.5132-.13904.10325-.18036.04078-.40952-.13904-.51331-1.03236-.59226-2.21005-.90482-3.40714-.90482-1.21217.00098-2.40352.32178-3.44456.92759-.17927.10422-.24033.33447-.13567.51374.06984.11973.19576.18708.32525.18708Z"/><path class="j" d="M35.02638,20.16004c.71134-.71134.71134-1.86462,0-2.57596-.71134-.71123-1.86452-.71123-2.57586,0-.71134.71134-.71134,1.86462,0,2.57596s1.86452.71134,2.57586,0Z"/><path class="d" d="M37.70321,22.83675c-.71134.71134-.71134,1.86462,0,2.57596.71134.71123,1.86452.71123,2.57586,0,.71134-.71134.71134-1.86462,0-2.57596-.71134-.71123-1.86452-.71123-2.57586,0Z"/><path class="g" d="M27.24827,22.78632c-.71123.71134-.71123,1.86462,0,2.57586.71134.71134,1.86462.71134,2.57586,0,.71134-.71123.71134-1.86452,0-2.57586-.71123-.71123-1.86452-.71123-2.57586,0Z"/><path class="e" d="M25.02326,31.57173c-.56948,0-1.10502.22157-1.50782.62425-.83064.83118-.83064,2.18347,0,3.01509.41592.41537.96165.62328,1.50782.62328.54573,0,1.0919-.2079,1.50727-.62328.40279-.40268.62425-.93833.62425-1.50771,0-.56948-.22146-1.10459-.62425-1.50738-.40279-.40268-.93779-.62425-1.50727-.62425Z"/><path class="e" d="M32.50096,28.039c-.71134.71134-.71134,1.86462,0,2.57586.71134.71134,1.86462.71134,2.57596,0,.71123-.71123.71123-1.86452,0-2.57586-.71134-.71134-1.86462-.71134-2.57596,0Z"/></svg>