<?xml version="1.0" encoding="UTF-8"?><svg id="b" xmlns="http://www.w3.org/2000/svg" width="50" height="50" viewBox="0 0 50 50"><defs><style>.d{fill:#0067fb;}</style></defs><path class="d" d="M42.78318,11.05897c-2.49447-2.4513-7.67522-3.33112-11.76451-3.33112-4.91699,0-9.32361,1.18253-11.52928,3.11186-.07486.06809-.14839.13714-.21926.20596-2.13988,1.49879-2.46593,3.21079-2.46593,4.11299v19.97126c0,4.74562,7.3684,6.90715,14.21448,6.90715.46767,0,.91018-.00919,1.34338-.02721.521.17258,1.07067.26232,1.61719.26232.95263,0,1.85979-.25324,2.64891-.73252.7145-.13206,1.41135-.29557,2.08207-.48859l.33246-.09711c.04971-.01463.09856-.03084.14658-.04862.60784-.19628,1.74381-.63867,1.8818-.7093,3.61847-1.65516,4.15882-3.88466,4.15882-5.0661V15.15865c0-1.09764-.43114-2.68483-2.4467-4.09969ZM38.11049,38.99376c-.73071.21007-1.50229.38253-2.3052.51435-1.00778.79565-2.29263.72974-3.09227.33863-.54567.03144-1.09764.04717-1.6935.04717-6.76795,0-12.07133-2.09199-12.07133-4.764l.00278-4.8073c.72672,1.97528,6.45157,1.88216,8.51296,1.88216,5.97338,0,7.99547,1.02132,9.0411,1.89934,1.04575.87813,1.80258,2.05801,1.80258,3.66624,0,.34334.03314,1.15605.03314,1.15605l-.23027.06736ZM43.08758,35.12991c0,1.15738-1.02858,2.25816-2.90723,3.11743-.01367.00677-.17899.07389-.40865.16375l.00012-.00012s-.87378-5.63475-1.66846-10.58464c-.79469-4.94976-5.37208-7.14116-10.38642-7.97926-7.5249-1.08542-8.76875-3.73094-8.76875-4.41509v-.27332c0-.87196.58655-1.72192,1.69676-2.45565.0878-.09107.18504-.18504.28529-.27598,1.77513-1.55248,5.73622-2.55615,10.08927-2.55615,4.63218,0,8.80019,1.13851,10.38085,2.8383,1.10392.73071,1.68721,1.57752,1.68721,2.44948v19.97126Z"/><path class="d" d="M31.01863,12.37365c-3.37459,0-5.64519.96902-5.64519,1.87545,0,.90635,2.27059,1.87545,5.64519,1.87545,3.37769,0,5.64202-.96909,5.64202-1.87545,0-.90642-2.26433-1.87545-5.64202-1.87545Z"/><circle class="d" cx="33.98074" cy="37.07742" r="2.14313"/><path class="d" d="M14.38037,22.54883H5.625c-.55225,0-1-.44775-1-1s.44775-1,1-1h8.75537c.55225,0,1,.44775,1,1s-.44775,1-1,1Z"/><path class="d" d="M14.38037,27.7334H2.0542c-.55225,0-1-.44775-1-1s.44775-1,1-1h12.32617c.55225,0,1,.44775,1,1s-.44775,1-1,1Z"/></svg>