<?xml version="1.0" encoding="UTF-8"?><svg id="b" xmlns="http://www.w3.org/2000/svg" width="50" height="50" viewBox="0 0 50 50"><defs><style>.d{fill:#51d5f4;}.e{fill:#fff;}.f{fill:#fbdc7b;}.g{fill:#c0c2c4;}.h{fill:#2a55ad;}.i{fill:#3db0a8;}</style></defs><circle class="h" cx="25" cy="25" r="22.47827"/><rect class="i" x="28.70325" y="6.31732" width="4.49969" height="2.99982"/><path class="e" d="M25.02795,6.31732c.82837,0,1.49994.67151,1.49994,1.49988s-.67157,1.49994-1.49994,1.49994-1.49994-.67157-1.49994-1.49994.67157-1.49988,1.49994-1.49988Z"/><rect class="i" x="16.85291" y="6.31732" width="4.49976" height="2.99982"/><path class="d" d="M10.00085,28.43817c0,.39783-.15802.7793-.43927,1.06061l-3.51459,3.51453c-.0025.00244-.00555.00409-.00806.00653-1.047-2.466-1.62671-5.17639-1.62671-8.01984,0-2.25775.37061-4.42938,1.04523-6.46368.2193.07294.42303.18994.58954.35645l3.51459,3.51453c.28125.28125.43927.66278.43927,1.06061v4.97028Z"/><path class="g" d="M25,45.58783c-1.72253,0-3.3952-.21564-4.99536-.61603.88617-1.87457,2.784-3.17633,4.99536-3.17633s4.10913,1.3017,4.99536,3.17627c-1.60022.40039-3.27283.61609-4.99536.61609Z"/><rect class="e" x="18.70728" y="35.53186" width="12.58551" height="2.01233"/><path class="f" d="M34.28308,27.7533c0,.53583-.28589,1.03101-.75,1.29895l-7.78314,4.49359c-.46405.26794-1.03583.26794-1.49988,0l-7.78314-4.49359c-.46411-.26794-.74994-.76312-.74994-1.29895v-8.98718c0-.53589.28583-1.03107.74994-1.29895l7.78314-4.49365c.46405-.26788,1.03583-.26788,1.49988,0l7.78314,4.49365c.46411.26788.75.76306.75,1.29895v8.98718Z"/><path class="d" d="M39.78583,25.95306c0-3.22217,2.03473-5.96362,4.88727-7.02484.59387,1.92017.91467,3.95911.91467,6.07178,0,2.73206-.53955,5.33917-1.51013,7.72687-2.53644-1.20154-4.29181-3.78052-4.29181-6.7738Z"/></svg>