<?xml version="1.0" encoding="UTF-8"?><svg id="b" xmlns="http://www.w3.org/2000/svg" width="50" height="50" viewBox="0 0 50 50"><defs><style>.d{fill:#38902e;}</style></defs><path class="d" d="M40.92544,27.01704c.08174-.66657.20216-1.32462.20216-2.01709,0-.69236-.12042-1.35041-.20216-2.01699l3.87498-2.93304c.86447-.65379,1.10531-1.84936.56342-2.7912l-3.4793-6.02102c-.54189-.93747-1.69878-1.32889-2.69656-.90742l-4.45982,1.87941c-1.08805-.83005-2.24493-1.5611-3.52224-2.09446l-.59347-4.73508c-.13768-1.07515-1.04947-1.88367-2.13325-1.88367h-6.95422c-1.08378,0-1.99983.80852-2.13315,1.88367l-.59347,4.73508c-1.27731.53337-2.43846,1.26878-3.52224,2.09446l-4.45982-1.87941c-1.00205-.42147-2.15894-.03442-2.70083.90742l-3.47503,6.02102c-.54189.93757-.30105,2.13315.56342,2.7912l3.87498,2.93304c-.08611.66657-.20653,1.32462-.20653,2.01699,0,.69247.12042,1.35052.20216,2.01709l-3.87487,2.93304c-.86447.65379-1.10531,1.84936-.56342,2.7912l3.4793,6.02102c.54189.93747,1.69878,1.32889,2.69646.90742l4.45982-1.88367c1.08815.82994,2.24504,1.5611,3.52235,2.09436l.59347,4.73508c.13758,1.07952,1.04936,1.88804,2.13315,1.88804h6.95422c1.08378,0,1.99983-.80852,2.13315-1.88367l.59347-4.73508c1.27731-.53337,2.43857-1.26878,3.52235-2.09446l4.45982,1.87941c1.00205.42147,2.15894.03442,2.70083-.90742l3.47493-6.02102c.54189-.93757.30105-2.13315-.56331-2.7912l-3.87072-2.93304ZM25,36.21891c-6.19842,0-11.21898-5.02042-11.21898-11.21898s5.02056-11.21884,11.21898-11.21884,11.21898,5.02042,11.21898,11.21884-5.02056,11.21898-11.21898,11.21898ZM31.36348,24.13397l-9.9916-5.76865c-.66667-.3849-1.5.09623-1.5.86603v11.5373c0,.7698.83333,1.25093,1.5.86603l9.9916-5.76865c.66667-.3849.66667-1.34715,0-1.73205Z"/></svg>