<?xml version="1.0" encoding="utf-8"?>
<!-- Generator: Adobe Illustrator 23.0.3, SVG Export Plug-In . SVG Version: 6.00 Build 0)  -->
<svg version="1.1" id="Layer_1" xmlns="http://www.w3.org/2000/svg" xmlns:xlink="http://www.w3.org/1999/xlink" x="0px" y="0px"
	 viewBox="0 0 361.3 320.2" style="enable-background:new 0 0 361.3 320.2;" xml:space="preserve">
<style type="text/css">
	.st0{fill:#808184;}
	.st1{fill:#D0D2D3;}
	.st2{fill:#0075C9;}
	.st3{fill:#404041;}
	.st4{fill:none;}
	.st5{fill:#FFFFFF;}
	.st6{fill:#A6A8AB;}
	.st7{fill:none;stroke:#000000;stroke-width:0.7087;stroke-linecap:round;stroke-linejoin:round;}
	.st8{fill:none;stroke:#000000;stroke-linecap:round;stroke-linejoin:round;}
</style>
<title>IQBrain</title>
<g>
	<g id="Brain">
		<g id="Color">
			<path id="Top_Gray" class="st0" d="M17.2,78.5c0,0-4,1.8-5.3,4.3S11,88.6,11,89.7s-1.1,43.9-1.1,43.9c0,1.4,0.2,2.7,0.5,4
				l-4.6,2.9c0,0-4.1,2.9-2.2,11.7c1.9,8.9,9,15,9,15s2.6,2.3,13.7,8.3l2.1-0.9l2.2,3.4l21.3,12.2l2-0.9l2.3,3.3l21.1,12.3l2.1-1
				l2.3,3.5l21.2,12.1l2-1l2.3,3.5l21.2,12.2l2.1-1l2.3,3.5l21.1,12.2l2-1l2.3,3.4l21.3,12.3l1.9-1l2.3,3.4l9.8,5.8
				c0,0,5,3.4,8.8,1.6s15-7.8,18.9-9.9L333,198l21.7-12.6c2-1.2,3.4-3.5,3.7-6.6l0.1-1.1l0-0.5c0-5.5-2.6-12.1-6.8-17l-1-43.6
				c0.2-2.8-1.1-5.6-3.5-7.1L300,82.1L167.8,5.8c-3.7-2-7.9-3.1-12.1-3.2c-6.4,0.1-9.3,1.3-12.6,3.2S17.2,78.5,17.2,78.5z"/>
			<path id="Light_Gray_Side" class="st1" d="M350.1,115.4c-0.1-2.9-1.9-5.5-4.7-6.5L171.3,8.5c-6.2-4.2-10.6-5-10.6-5
				c-8.5-2.2-16.5,1.6-16.5,1.6S18.1,78.1,14.8,79.8C11,81.6,10.5,86,10.5,86l-1.2,46.5c0,0-0.1,5.6,4.4,8.1l179.3,103.4
				c0,0,7.3,5,18.8,2.6c2.7-0.8,5.2-1.8,7.7-3.2c4.2-2.7,47.3-27.3,47.3-27.3l78.8-45.5c0,0,3.2-1.4,3.9-2.9s1.7-2.4,1.6-5
				S350.1,115.4,350.1,115.4z M241.7,160.7c-0.5,0.2-3,1.1-3.4,2.1c-1,3.1,0.5,4.8,0.5,4.8l6.2,3.5l8.4,2.2l-10.4,6l-21,12.3
				c0,0-8.2,5.5-15.5,5.4c-2.3,0-6.1-0.1-12.3-4.2C188.4,188.9,15.4,90,15.4,90s-1.5-1.5-1-4.9c0.4-2.5,3.9-4.1,3.9-4.1
				S143.9,8.5,144.6,8.1c3.2-2.1,7-3.1,10.8-2.9c3.7,0.1,7.4,1,10.7,2.6l81.5,47.3c0,0,89.8,52.2,93.1,54c5.6,3,6.3,4.6,6.3,4.6
				c2,4-2.5,6.6-2.5,6.6c-4.8,2.4-21.8,12.8-21.8,12.8l-9.6,5.5"/>
			<path id="Radio_Blue" class="st2" d="M241.6,164.1v-12.7c0-0.4,0.1-0.9,0.2-1.3c0.1-0.5,0.3-0.9,0.5-1.4c0.2-0.4,0.5-0.9,0.8-1.2
				c0.3-0.4,0.6-0.7,0.9-1c0.2-0.2,0.4-0.3,0.6-0.4l51.4-29.7c0.3-0.2,0.6-0.3,1-0.4c0.3,0,0.6,0,0.8,0.1l0,0
				c0.6,0.2,1.1,0.4,1.7,0.6c1.3,0.5,2.5,1,3.7,1.6c0.7,0.3,1.3,0.7,1.9,1l-0.1-0.1c0.8,0.5,1.5,0.9,2.2,1.4
				c1.2,0.8,2.4,1.7,3.5,2.6c0.5,0.3,1,0.7,1.4,1.1c0.4,0.5,0.6,1.2,0.6,1.8v12.6l-3.4,2l-0.7,5l-46.2,26.7l-0.3-1.8l-2.3-1.3
				l-4.4,2.4l-0.7-0.1L241.6,164.1"/>
			<g id="Screen_Colors">
				<g id="Check">
					<path class="st3" d="M249,121.3l-0.1,3.9l9.9,5.7c0.7,0.3,1.4,0.3,2.1,0l17.9-10.3l-0.1-3.9c0-0.2,0-0.3-0.1-0.5
						c-0.1-0.1-0.1-0.2-0.2-0.4c-0.1-0.1-0.2-0.2-0.3-0.3c0,0-0.1,0-0.1,0l-9.5-5.5l0,0c-0.4-0.2-0.8-0.2-1.1,0l0,0l-17.6,10.1l0,0
						c-0.1,0-0.2,0.1-0.2,0.2c-0.1,0.1-0.2,0.2-0.3,0.4c-0.1,0.1-0.1,0.3-0.1,0.4C249,121.2,249,121.2,249,121.3"/>
				</g>
				<g id="X">
					<path class="st3" d="M238.7,138.2l-9.5-5.5l0,0c-0.4-0.2-0.8-0.2-1.1,0l0,0l-17.6,10.1l0,0c-0.1,0-0.2,0.1-0.2,0.2
						c-0.1,0.1-0.2,0.2-0.3,0.4c-0.1,0.1-0.1,0.3-0.1,0.4c0,0,0,0.1,0,0.1l0,0.7l-0.1,3.2l9.9,5.7c0.7,0.3,1.4,0.3,2.1,0l17.9-10.3
						l-0.1-3.9c0-0.2,0-0.3-0.1-0.5c-0.1-0.1-0.1-0.2-0.2-0.4C239,138.4,238.9,138.3,238.7,138.2
						C238.7,138.2,238.7,138.2,238.7,138.2"/>
				</g>
				<g id="UP">
					<path class="st3" d="M132,53.6l-0.1,3.9l9.9,5.7c0.7,0.3,1.4,0.3,2.1,0l17.9-10.3l-0.1-3.9c0-0.2,0-0.3-0.1-0.5
						c-0.1-0.1-0.1-0.2-0.2-0.4c-0.1-0.1-0.2-0.2-0.3-0.3c0,0-0.1,0-0.1,0l-9.5-5.5l0,0c-0.4-0.2-0.8-0.2-1.1,0l0,0l-17.6,10.1l0,0
						c-0.1,0-0.2,0.1-0.2,0.2c-0.1,0.1-0.2,0.2-0.3,0.4c-0.1,0.1-0.1,0.3-0.1,0.4C132,53.5,132,53.6,132,53.6"/>
				</g>
				<g id="Down">
					<path class="st3" d="M121.7,70.6l-9.5-5.5l0,0c-0.4-0.2-0.8-0.2-1.1,0l0,0L93.4,75.2l0,0c-0.1,0-0.2,0.1-0.2,0.2
						c-0.1,0.1-0.2,0.2-0.3,0.4c-0.1,0.1-0.1,0.3-0.1,0.4c0,0,0,0.1,0,0.1l0,0.7l-0.1,3.2l9.9,5.7c0.7,0.3,1.4,0.3,2.1,0l17.9-10.3
						l-0.1-3.9c0-0.2,0-0.3-0.1-0.5c-0.1-0.1-0.1-0.2-0.2-0.4C122,70.8,121.9,70.7,121.7,70.6C121.7,70.6,121.7,70.6,121.7,70.6"/>
				</g>
				<g id="Outlines">
					<g id="LINE">
						<line class="st4" x1="132" y1="53.7" x2="131.9" y2="57.6"/>
					</g>
					<g id="SPLINE">
						<path class="st4" d="M93.4,75.3c-0.1,0-0.2,0.1-0.2,0.2c-0.1,0.1-0.2,0.2-0.3,0.4c-0.1,0.1-0.1,0.3-0.1,0.4c0,0,0,0.1,0,0.1"
							/>
					</g>
					<g id="LINE-2">
						<line class="st4" x1="92.7" y1="76.4" x2="92.6" y2="80.3"/>
					</g>
					<g id="LINE-3">
						<line class="st4" x1="110.9" y1="65.1" x2="93.4" y2="75.2"/>
					</g>
					<g id="SPLINE-2">
						<path class="st4" d="M122.3,71.7c0-0.2,0-0.3-0.1-0.5c-0.1-0.1-0.1-0.2-0.2-0.4c-0.1-0.1-0.2-0.2-0.3-0.3c0,0,0,0-0.1,0"/>
					</g>
					<g id="LINE-4">
						<line class="st4" x1="122.4" y1="75.7" x2="122.3" y2="71.7"/>
					</g>
					<g id="LINE-5">
						<line class="st4" x1="207.3" y1="146.6" x2="207.1" y2="147"/>
					</g>
					<g id="LINE-6">
						<line class="st4" x1="241.7" y1="141.9" x2="239.4" y2="140.3"/>
					</g>
					<g id="LINE-7">
						<line class="st4" x1="246.6" y1="123.9" x2="246.4" y2="124.3"/>
					</g>
					<g id="LINE-8">
						<line class="st4" x1="249" y1="122.3" x2="246.7" y2="123.8"/>
					</g>
					<g id="LINE-9">
						<line class="st4" x1="90.3" y1="79" x2="90" y2="79.4"/>
					</g>
					<g id="LINE-10">
						<line class="st4" x1="92.7" y1="77.4" x2="90.3" y2="79"/>
					</g>
					<g id="LINE-11">
						<line class="st4" x1="125" y1="74.8" x2="124.7" y2="74.4"/>
					</g>
					<g id="LINE-12">
						<line class="st4" x1="124.7" y1="74.4" x2="122.3" y2="72.8"/>
					</g>
					<g id="LINE-13">
						<line class="st4" x1="129.6" y1="56.3" x2="129.3" y2="56.7"/>
					</g>
					<g id="LINE-14">
						<line class="st4" x1="132" y1="54.7" x2="129.6" y2="56.3"/>
					</g>
					<g id="LINE-15">
						<line class="st4" x1="164.3" y1="52.1" x2="164" y2="51.7"/>
					</g>
					<g id="LINE-16">
						<line class="st4" x1="163.2" y1="51" x2="161.6" y2="50.1"/>
					</g>
					<g id="ARC">
						<path class="st4" d="M219.7,149.2c0.5,0.3,1.1,0.3,1.6,0"/>
					</g>
					<g id="LINE-17">
						<line class="st4" x1="239" y1="139" x2="221.4" y2="149.2"/>
					</g>
					<g id="LINE-18">
						<line class="st4" x1="219.7" y1="149.2" x2="210.1" y2="143.6"/>
					</g>
					<g id="LINE-19">
						<path class="st4" d="M249.4,121l9.7,5.6c0.5,0.3,1.1,0.3,1.6,0l17.7-10.2"/>
					</g>
					<g id="ARC-2">
						<path class="st4" d="M142,59.7c0.5,0.3,1.1,0.3,1.6,0"/>
					</g>
					<g id="LINE-20">
						<line class="st4" x1="161.3" y1="49.5" x2="143.6" y2="59.7"/>
					</g>
					<g id="LINE-21">
						<line class="st4" x1="142" y1="59.7" x2="132.3" y2="54.2"/>
					</g>
					<path class="st5" d="M225.5,140.2v-2.3c0,0-0.8-0.5-1-0.6l0,0l-1,0.6c0,0.2,0,1.9,0,2.1l0,0.2c0,0-3.6,0-4,0l-1,0.6
						c0.2,0.1,1,0.6,1,0.6h4v2.3l1,0.5l1-0.6l0-2.3l4,0l1-0.6l-1-0.5L225.5,140.2"/>
					<g id="ARC-3">
						<path class="st4" d="M102.7,81.6c0.5,0.3,1.1,0.3,1.6,0"/>
					</g>
					<g id="LINE-22">
						<line class="st4" x1="122" y1="71.4" x2="104.3" y2="81.6"/>
					</g>
					<g id="LINE-23">
						<line class="st4" x1="102.7" y1="81.6" x2="93" y2="76"/>
					</g>
					<g id="LINE-24">
						<path class="st5" d="M266.5,119.3c0.5-0.1,1.1-0.2,1.6-0.3l1-0.6c-0.2-0.1-0.4-0.2-0.6-0.3l-0.4-0.2l-7.3,1.1l0.3-1.7
							l-0.4-0.2c-0.2-0.1-0.4-0.2-0.6-0.4l-1,0.6c0,0.3-0.1,0.5-0.1,0.8l-0.2,1.4l1.4,0.8L266.5,119.3"/>
					</g>
					<g id="LINE-25">
						<line class="st4" x1="126.1" y1="106.9" x2="174.2" y2="134.7"/>
					</g>
					<g id="LINE-26">
						<line class="st4" x1="174.2" y1="134.7" x2="175.9" y2="134"/>
					</g>
					<g id="LINE-27">
						<line class="st4" x1="175.9" y1="134" x2="215.1" y2="156.7"/>
					</g>
					<g id="ARC-4">
						<path class="st4" d="M215.1,156.7c3.4,1.8,7.4,1.8,10.8,0"/>
					</g>
					<g id="LINE-28">
						<line class="st4" x1="226" y1="156.7" x2="283.3" y2="123.6"/>
					</g>
					<g id="ARC-5">
						<path class="st4" d="M283.3,123.6c1.7-0.7,2.5-2.6,1.9-4.3c-0.4-0.9-1.1-1.5-1.9-1.9"/>
					</g>
					<g id="LINE-29">
						<line class="st4" x1="283.3" y1="117.3" x2="244" y2="94.7"/>
					</g>
					<g id="LINE-30">
						<line class="st4" x1="244" y1="94.7" x2="245.2" y2="93.7"/>
					</g>
					<g id="LINE-31">
						<line class="st4" x1="245.2" y1="93.7" x2="197.1" y2="65.9"/>
					</g>
					<g id="LINE-32">
						<line class="st4" x1="197.1" y1="65.9" x2="195.7" y2="66.5"/>
					</g>
					<g id="LINE-33">
						<line class="st4" x1="156.4" y1="43.8" x2="195.7" y2="66.5"/>
					</g>
					<g id="ARC-6">
						<path class="st4" d="M150.1,42.5c-1.7,0.1-3.4,0.5-4.9,1.3"/>
					</g>
					<g id="ARC-7">
						<path class="st4" d="M156.4,43.8c-1.5-0.8-3.2-1.3-4.9-1.3"/>
					</g>
					<g id="LINE-34">
						<line class="st4" x1="87.9" y1="76.9" x2="145.2" y2="43.8"/>
					</g>
					<g id="ARC-8">
						<path class="st4" d="M87.9,76.9c-1.8,0.7-2.7,2.7-2,4.5c0.4,0.9,1.1,1.6,2,2"/>
					</g>
					<g id="LINE-35">
						<line class="st4" x1="127.1" y1="106.1" x2="87.9" y2="83.4"/>
					</g>
					<g id="LINE-36">
						<line class="st4" x1="127.1" y1="106.1" x2="126.1" y2="106.9"/>
					</g>
					<g id="ARC-9">
						<path class="st4" d="M90,79.4c-0.4,0.8-0.1,1.7,0.6,2.2c0.1,0,0.1,0.1,0.2,0.1"/>
					</g>
					<g id="LINE-37">
						<line class="st4" x1="90.9" y1="81.7" x2="100.9" y2="87.5"/>
					</g>
					<g id="ARC-10">
						<path class="st4" d="M100.9,87.5c1.6,0.8,3.6,0.8,5.2,0"/>
					</g>
					<g id="LINE-38">
						<line class="st4" x1="106.1" y1="87.5" x2="124.1" y2="77"/>
					</g>
					<g id="ARC-11">
						<path class="st4" d="M124.1,77c0.8-0.3,1.2-1.2,0.9-2c0-0.1-0.1-0.1-0.1-0.2"/>
					</g>
					<g id="ARC-12">
						<path class="st4" d="M280.5,121.9c0.8-0.3,1.2-1.2,0.9-2c0-0.1-0.1-0.1-0.1-0.2"/>
					</g>
					<g id="ARC-13">
						<path class="st4" d="M246.4,124.3c-0.4,0.8-0.1,1.7,0.6,2.2c0.1,0,0.1,0.1,0.2,0.1"/>
					</g>
					<g id="LINE-39">
						<line class="st4" x1="247.2" y1="126.6" x2="257.2" y2="132.4"/>
					</g>
					<g id="ARC-14">
						<path class="st4" d="M257.2,132.4c1.6,0.8,3.6,0.8,5.2,0"/>
					</g>
					<g id="LINE-40">
						<line class="st4" x1="262.4" y1="132.4" x2="280.5" y2="121.9"/>
					</g>
					<g id="LINE-41">
						<line class="st4" x1="109.9" y1="90.1" x2="168.1" y2="56.6"/>
					</g>
					<g id="SPLINE-3">
						<path class="st4" d="M111.5,94c-0.2-0.1-2-1.1-2.1-1.2c-0.1-0.1-0.2-0.2-0.3-0.4c-0.4-0.5-0.4-1.2,0-1.7
							c0.1-0.1,0.2-0.3,0.3-0.4c0.1-0.1,0.3-0.2,0.5-0.3"/>
					</g>
					<g id="SPLINE-4">
						<path class="st4" d="M261.5,107.5c0.2,0.1,0.3,0.2,0.5,0.3c0.1,0.1,0.2,0.2,0.3,0.4c0.4,0.5,0.4,1.2,0,1.7
							c-0.1,0.1-0.2,0.3-0.3,0.4c-0.1,0.1-1.2,0.7-1.4,0.8"/>
					</g>
					<g id="LINE-42">
						<line class="st4" x1="173.2" y1="56.6" x2="261.5" y2="107.5"/>
					</g>
					<g id="SPLINE-5">
						<path class="st4" d="M168.1,56.6c0.2-0.1,0.4-0.2,0.5-0.3c0.2-0.1,0.4-0.1,0.6-0.2c0.9-0.2,1.9-0.2,2.9,0
							c0.2,0,0.4,0.1,0.6,0.2c0.2,0.1,0.4,0.2,0.5,0.3"/>
					</g>
					<g id="ARC-15">
						<path class="st4" d="M241.2,144.6c0.8-0.3,1.2-1.2,0.9-2c0-0.1-0.1-0.1-0.1-0.2"/>
					</g>
					<g id="ARC-16">
						<path class="st4" d="M207.1,147c-0.4,0.8-0.1,1.7,0.6,2.2c0.1,0,0.1,0.1,0.2,0.1"/>
					</g>
					<g id="LINE-43">
						<line class="st4" x1="207.9" y1="149.2" x2="217.9" y2="155"/>
					</g>
					<g id="ARC-17">
						<path class="st4" d="M217.9,155c1.6,0.8,3.6,0.8,5.2,0"/>
					</g>
					<g id="LINE-44">
						<line class="st4" x1="223.2" y1="155" x2="241.2" y2="144.6"/>
					</g>
					<g id="ARC-18">
						<path class="st4" d="M129.3,56.7c-0.4,0.8-0.1,1.7,0.6,2.2c0.1,0,0.1,0.1,0.2,0.1"/>
					</g>
					<g id="LINE-45">
						<line class="st4" x1="130.2" y1="59" x2="140.2" y2="64.8"/>
					</g>
					<g id="ARC-19">
						<path class="st4" d="M140.2,64.8c1.6,0.8,3.6,0.8,5.2,0"/>
					</g>
					<g id="LINE-46">
						<line class="st4" x1="145.4" y1="64.8" x2="163.7" y2="54.3"/>
					</g>
					<g id="ARC-20">
						<path class="st4" d="M163.4,54.4c0.8-0.4,1.2-1.2,0.9-2c0-0.1-0.1-0.1-0.1-0.2"/>
					</g>
					<g id="LINE-47">
						<line class="st4" x1="239.6" y1="141.9" x2="239.4" y2="141.8"/>
					</g>
					<g id="ARC-21">
						<path class="st4" d="M209.5,146.6c-0.3,0.1-0.5,0.5-0.4,0.8c0.1,0.2,0.2,0.3,0.4,0.4"/>
					</g>
					<g id="ARC-22">
						<path class="st4" d="M278.9,120.5c0.3-0.1,0.5-0.5,0.4-0.8c-0.1-0.2-0.2-0.3-0.4-0.4"/>
					</g>
					<g id="LINE-48">
						<line class="st4" x1="249" y1="123.8" x2="248.8" y2="123.9"/>
					</g>
					<g id="ARC-23">
						<path class="st4" d="M248.8,123.9c-0.3,0.1-0.5,0.5-0.4,0.8c0.1,0.2,0.2,0.3,0.4,0.4"/>
					</g>
					<g id="ARC-24">
						<path class="st4" d="M278.7,117.8c0,0,2,1.2,2,1.2c0.2,0.2,0.4,0.4,0.6,0.7"/>
					</g>
					<g id="ARC-25">
						<path class="st4" d="M102.4,86c0.7,0.3,1.4,0.3,2.1,0"/>
					</g>
					<g id="LINE-49">
						<line class="st4" x1="104.5" y1="86" x2="122.6" y2="75.6"/>
					</g>
					<g id="ARC-26">
						<path class="st4" d="M122.6,75.6c0.3-0.1,0.5-0.5,0.4-0.8c-0.1-0.2-0.2-0.3-0.4-0.4"/>
					</g>
					<g id="LINE-50">
						<line class="st4" x1="122.6" y1="74.4" x2="122.4" y2="74.2"/>
					</g>
					<g id="LINE-51">
						<line class="st4" x1="92.6" y1="78.9" x2="92.4" y2="79"/>
					</g>
					<g id="ARC-27">
						<path class="st4" d="M92.4,79c-0.3,0.1-0.5,0.5-0.4,0.8c0.1,0.2,0.2,0.3,0.4,0.4"/>
					</g>
					<g id="LINE-52">
						<line class="st4" x1="92.4" y1="80.2" x2="102.4" y2="86"/>
					</g>
					<g id="LINE-53">
						<line class="st4" x1="131.7" y1="57.5" x2="141.7" y2="63.3"/>
					</g>
					<g id="ARC-28">
						<path class="st4" d="M141.7,63.3c0.7,0.3,1.4,0.3,2.1,0"/>
					</g>
					<g id="LINE-54">
						<line class="st4" x1="143.8" y1="63.3" x2="161.9" y2="52.9"/>
					</g>
					<g id="LINE-55">
						<line class="st4" x1="131.9" y1="56.2" x2="131.7" y2="56.3"/>
					</g>
					<g id="ARC-29">
						<path class="st4" d="M131.7,56.3c-0.3,0.1-0.5,0.5-0.4,0.8c0.1,0.2,0.2,0.3,0.4,0.4"/>
					</g>
					<g id="ARC-30">
						<path class="st4" d="M163.2,51c0,0,0.8,0.8,0.8,0.7"/>
					</g>
					<g id="LWPOLYLINE">
						<path class="st4" d="M242.5,130.3l8,4.6l0,0c0.2,0.1,0.3,0.2,0.4,0.3c0.1,0.1,0.3,0.3,0.4,0.4c0.1,0.2,0.2,0.3,0.2,0.5
							c0,0.2,0.1,0.3,0.1,0.5l0,0l0,0.1l-0.2,0.6l-0.6,0.5l-0.9,0.3l-1.1,0.1l-1.1-0.1l-0.9-0.3l-8-4.6l-0.6-0.5l-0.2-0.6l0,0v0
							c0-0.1,0-0.3,0.1-0.4c0-0.1,0.1-0.3,0.1-0.4c0.1-0.2,0.3-0.4,0.4-0.6c0.3-0.2,0.6-0.4,0.9-0.6c0.2-0.1,0.3-0.1,0.5-0.1
							c0.2,0,0.5-0.1,0.7-0.1c0.3,0,0.6,0,0.8,0.1c0.2,0,0.3,0.1,0.4,0.1C242.2,130.1,242.4,130.2,242.5,130.3L242.5,130.3z"/>
					</g>
					<g id="LINE-56">
						<line class="st4" x1="209.7" y1="145.1" x2="207.3" y2="146.6"/>
					</g>
					<g id="LINE-57">
						<path class="st5" d="M105.5,70.8c-0.1,0.3-0.2,0.6-0.3,0.8l-1.3,3.5l6.1-0.7c0.5-0.1,1-0.1,1.5-0.2c-0.2-0.1-0.4-0.3-0.6-0.4
							l-4.8-2.8C105.9,71,105.7,70.9,105.5,70.8z"/>
					</g>
					<g id="LINE-58">
						<path class="st5" d="M143.1,49.8c-0.5,0.1-1,0.1-1.5,0.2c0.2,0.1,0.4,0.2,0.6,0.3l4.8,2.8c0.2,0.1,0.4,0.2,0.6,0.4
							c0.1-0.3,0.2-0.6,0.3-0.9l1.3-3.5L143.1,49.8z"/>
					</g>
				</g>
				<g id="Screen">
					<path class="st6" d="M171.6,59.3c-0.6-0.3-1.4-0.3-2,0l-59,34.1l87.5,50.6c0.2,0.1,0.4,0.2,0.5,0.3c0.2,0.1,0.4,0.1,0.6,0.2
						c0.9,0.2,1.9,0.2,2.9,0c0.2,0,0.4-0.1,0.6-0.2c0.2-0.1,0.4-0.2,0.5-0.3l57.5-33.2L171.6,59.3z"/>
				</g>
				<g id="Vent_3">
					<polygon class="st3" points="117.4,66.2 117.1,66 117,65.7 117.1,65.5 117.4,65.3 117.7,65.1 118.2,65.1 118.6,65.1 119,65.3 
						129.5,71.4 129.8,71.6 129.8,71.8 129.8,72.1 129.5,72.3 129.1,72.4 128.7,72.5 128.3,72.4 127.9,72.3 					"/>
				</g>
				<g id="Vent_2">
					<polygon class="st3" points="121.4,63.9 121.1,63.7 121.1,63.4 121.1,63.2 121.4,63 121.8,62.8 122.2,62.8 122.6,62.8 123,63 
						133.5,69 133.8,69.2 133.8,69.5 133.8,69.8 133.5,70 133.1,70.1 132.7,70.2 132.3,70.1 131.9,70 					"/>
				</g>
				<g id="Vent_1">
					<polygon class="st3" points="125.4,61.6 125.2,61.4 125.1,61.1 125.2,60.9 125.4,60.6 125.8,60.5 126.2,60.5 126.6,60.5 
						127,60.6 137.5,66.7 137.8,66.9 137.9,67.2 137.8,67.4 137.5,67.6 137.2,67.8 136.7,67.8 136.3,67.8 135.9,67.6 					"/>
				</g>
			</g>
			<g id="Logo">
				<path class="st1" d="M159.4,142.1c0,0-0.1,0-0.2,0c0,0-8.2-0.8-8.6-0.9c-0.1-0.2-1.6-5-1.6-5c0,0,0-0.1-0.1-0.1l-4.5-2.6
					c-0.1-0.1-0.2-0.1-0.4,0c0,0,0,0-0.1,0c-0.1,0-0.1,0.1-0.1,0.2c0,0,2.2,6.5,2.3,7c-0.8-0.1-13.1-1.5-13.1-1.5
					c-0.1,0-0.2,0-0.3,0c0,0,0,0-0.1,0c-0.1,0.1,0,0.2,0.1,0.2l4.6,2.6c0,0,0.1,0,0.2,0c0,0,9.1,0.9,9.5,1c0.1,0.2,1.7,5.4,1.7,5.4
					c0,0,0,0.1,0.1,0.1l4.5,2.6c0.1,0.1,0.2,0.1,0.4,0c0,0,0,0,0.1,0c0.1,0,0.1-0.1,0.1-0.2c0,0-2.4-7.1-2.5-7.5
					c0.8,0.1,12.1,1.3,12.1,1.3c0.1,0,0.2,0,0.3,0c0,0,0,0,0.1,0c0.1-0.1,0-0.2-0.1-0.2L159.4,142.1z"/>
				<path class="st1" d="M124.4,122c-0.1,0-0.2-0.1-0.2,0c0,0-14.2,0.9-14.9,0.9c0.1-0.4,1.6-8.5,1.6-8.5c0-0.1,0-0.1-0.1-0.1
					l-3.7-2.2c-0.1,0-0.2-0.1-0.3,0c-0.1,0-0.2,0.1-0.2,0.1l-1.9,11.1c0,0.1,0,0.1,0.1,0.1l3.6,2.1c0.1,0,0.2,0.1,0.2,0l19.3-1.1
					c0.1,0,0.2,0,0.3-0.1c0-0.1,0-0.1-0.1-0.2L124.4,122z"/>
				<path class="st2" d="M130.3,125.4c0.6-0.9,1.3-1.6,2.3-2.1c2.4-1.4,5.6-1.9,7.1-1l9.2,5.3c0.5,0.3,0.2,0.9-0.6,1.4
					c-0.7,0.5-1.6,0.6-2.4,0.3l-9.2-5.3c-0.8-0.2-1.6-0.1-2.3,0.3c-0.8,0.4-1.2,1.1-0.6,1.4l9.2,5.3c0.5,0.3,0.2,0.9-0.6,1.4l0,0
					c-0.7,0.5-1.6,0.6-2.4,0.3l-9.2-5.3c-0.8-0.2-1.7-0.1-2.4,0.4c-0.8,0.4-1.1,1-0.6,1.3l9.2,5.3c0.5,0.3,0.2,0.9-0.6,1.4
					c-0.7,0.5-1.6,0.6-2.4,0.3l-9.2-5.3c-1.5-0.8-0.6-2.7,1.7-4.1C127.8,126,129,125.6,130.3,125.4L130.3,125.4z"/>
				<path class="st2" d="M182.5,159.3l-2.7-1.5c-1.2-0.6-2.6-0.8-3.8-0.3l-1.2,0.3c-0.9,0.2-1.5,0.4-1.6,0.7
					c-0.1,0.2,0.1,0.5,0.7,0.8l2.9,1.7c0.1,0,0.1,0.1,0.2,0.1c0.1,0,0.1,0.1,0.2,0.1l0.1,0.1l0.3-0.1l-0.3-1.7l2.7,0l0.3,1.8
					l1.4-0.3c0.7-0.2,1.4-0.4,1.5-0.7C183.3,159.9,183.1,159.6,182.5,159.3z"/>
				<path class="st2" d="M190.6,160.1l-20.4-11.7c-0.4-0.2-0.9-0.2-1.3,0l-9.7,5.6c-0.2,0.1-0.3,0.3-0.2,0.5c0,0.1,0.1,0.2,0.2,0.2
					l20.4,11.7c0.4,0.2,0.9,0.2,1.3,0l9.7-5.6c0.2-0.1,0.3-0.3,0.2-0.5C190.8,160.2,190.8,160.1,190.6,160.1z M173.9,153.9l-0.3,0.1
					l-6.2,1.5l-0.4,0.1l0.9,0.5l-1.8,0.5l-3-1.7l-0.3-0.2l-0.6-0.3l1.8-0.5l1,0.6l0.2-0.1l6.2-1.6l0,0l0.4-0.1l-1-0.6l1.8-0.5
					l0.7,0.4l0,0l2.7,1.5l0,0l0.6,0.4l-1.8,0.5L173.9,153.9z M185,161.7l-3.2,0.8c-0.3,0.1-0.6,0.1-1,0.2l-0.2,0l0.1,0.7l-2.7,0
					l-0.1-0.6l-0.1,0c-1.1-0.2-2.1-0.6-3-1.2l-3.7-2.1c-1.2-0.7-1.7-1.2-1.6-1.6c0.1-0.4,0.8-0.7,2.1-1l3.2-0.8
					c2.3-0.7,4.9-0.4,7,0.9l3.7,2.1c1.2,0.7,1.7,1.2,1.6,1.6C186.9,161.1,186.3,161.4,185,161.7L185,161.7z"/>
			</g>
		</g>
		<g id="Ports">
			<g id="LINE-59">
				<line class="st7" x1="169.9" y1="190.2" x2="170.1" y2="190.3"/>
			</g>
			<g id="ELLIPSE">
				<path class="st7" d="M165.5,191.2c-0.5-0.3-1-0.1-1,0.6"/>
			</g>
			<g id="LINE-60">
				<line class="st7" x1="164.5" y1="191.8" x2="164.1" y2="216.5"/>
			</g>
			<g id="ELLIPSE-2">
				<path class="st7" d="M164.1,216.5c0,0.7,0.4,1.4,1,1.7"/>
			</g>
			<g id="LINE-61">
				<line class="st7" x1="165.1" y1="218.3" x2="184.1" y2="229.3"/>
			</g>
			<g id="ELLIPSE-3">
				<path class="st7" d="M184.1,229.3c0.6,0.3,1,0.1,1-0.6"/>
			</g>
			<g id="LINE-62">
				<line class="st7" x1="185.1" y1="228.7" x2="185.5" y2="203.9"/>
			</g>
			<g id="ELLIPSE-4">
				<path class="st7" d="M185.5,203.9c0-0.7-0.4-1.3-1-1.7"/>
			</g>
			<g id="LINE-63">
				<line class="st7" x1="184.5" y1="202.2" x2="173.7" y2="195.9"/>
			</g>
			<g id="LINE-64">
				<line class="st7" x1="173.7" y1="195.9" x2="173.7" y2="192.4"/>
			</g>
			<g id="LINE-65">
				<line class="st7" x1="173.7" y1="192.4" x2="167.3" y2="188.8"/>
			</g>
			<g id="LINE-66">
				<line class="st7" x1="167.3" y1="188.8" x2="167.3" y2="192.3"/>
			</g>
			<g id="LINE-67">
				<line class="st7" x1="167.3" y1="192.3" x2="165.5" y2="191.2"/>
			</g>
			<g id="LINE-68">
				<line class="st7" x1="169.9" y1="190.9" x2="167.3" y2="192.3"/>
			</g>
			<g id="LINE-69">
				<line class="st7" x1="169.9" y1="190.2" x2="169.9" y2="190.9"/>
			</g>
			<g id="LINE-70">
				<line class="st7" x1="167.1" y1="192.1" x2="167.1" y2="214.9"/>
			</g>
			<g id="LINE-71">
				<line class="st7" x1="168" y1="216.5" x2="185.2" y2="226.4"/>
			</g>
			<g id="ARC-31">
				<path class="st7" d="M167.1,214.9c0,0.7,0.4,1.3,0.9,1.6"/>
			</g>
			<line class="st7" x1="167.5" y1="215.6" x2="185.3" y2="205.2"/>
			<g id="LINE-72">
				<line class="st7" x1="141.9" y1="174.1" x2="142.1" y2="174.2"/>
			</g>
			<g id="ELLIPSE-5">
				<path class="st7" d="M137.5,175c-0.5-0.3-1-0.1-1,0.6"/>
			</g>
			<g id="LINE-73">
				<line class="st7" x1="136.5" y1="175.6" x2="136.1" y2="200.4"/>
			</g>
			<g id="ELLIPSE-6">
				<path class="st7" d="M136.1,200.4c0,0.7,0.4,1.4,1,1.7"/>
			</g>
			<g id="LINE-74">
				<line class="st7" x1="137.1" y1="202.1" x2="156.1" y2="213.1"/>
			</g>
			<g id="ELLIPSE-7">
				<path class="st7" d="M156.1,213.1c0.6,0.3,1,0.1,1-0.6"/>
			</g>
			<g id="LINE-75">
				<line class="st7" x1="157.1" y1="212.5" x2="157.5" y2="187.8"/>
			</g>
			<g id="ELLIPSE-8">
				<path class="st7" d="M157.5,187.8c0-0.7-0.4-1.3-1-1.7"/>
			</g>
			<g id="LINE-76">
				<line class="st7" x1="156.5" y1="186" x2="145.7" y2="179.8"/>
			</g>
			<g id="LINE-77">
				<line class="st7" x1="145.7" y1="179.8" x2="145.7" y2="176.3"/>
			</g>
			<g id="LINE-78">
				<line class="st7" x1="145.7" y1="176.3" x2="139.3" y2="172.6"/>
			</g>
			<g id="LINE-79">
				<line class="st7" x1="139.3" y1="172.6" x2="139.3" y2="176.1"/>
			</g>
			<g id="LINE-80">
				<line class="st7" x1="139.3" y1="176.1" x2="137.5" y2="175"/>
			</g>
			<g id="LINE-81">
				<line class="st7" x1="141.9" y1="174.7" x2="139.3" y2="176.1"/>
			</g>
			<g id="LINE-82">
				<line class="st7" x1="141.9" y1="174.1" x2="141.9" y2="174.7"/>
			</g>
			<g id="LINE-83">
				<line class="st7" x1="139.1" y1="176" x2="139.1" y2="198.7"/>
			</g>
			<g id="LINE-84">
				<line class="st7" x1="140" y1="200.3" x2="157.2" y2="210.2"/>
			</g>
			<g id="ARC-32">
				<path class="st7" d="M139.1,198.7c0,0.7,0.4,1.3,0.9,1.6"/>
			</g>
			<line class="st7" x1="139.5" y1="199.4" x2="157.3" y2="189"/>
			<g id="LINE-85">
				<line class="st7" x1="113.9" y1="157.9" x2="114.1" y2="158"/>
			</g>
			<g id="ELLIPSE-9">
				<path class="st7" d="M109.5,158.9c-0.5-0.3-1-0.1-1,0.6"/>
			</g>
			<g id="LINE-86">
				<line class="st7" x1="108.5" y1="159.5" x2="108.1" y2="184.2"/>
			</g>
			<g id="ELLIPSE-10">
				<path class="st7" d="M108.1,184.2c0,0.7,0.4,1.4,1,1.7"/>
			</g>
			<g id="LINE-87">
				<line class="st7" x1="109.1" y1="185.9" x2="128.1" y2="196.9"/>
			</g>
			<g id="ELLIPSE-11">
				<path class="st7" d="M128.1,196.9c0.6,0.3,1,0.1,1-0.6"/>
			</g>
			<g id="LINE-88">
				<line class="st7" x1="129.1" y1="196.3" x2="129.5" y2="171.6"/>
			</g>
			<g id="ELLIPSE-12">
				<path class="st7" d="M129.5,171.6c0-0.7-0.4-1.3-1-1.7"/>
			</g>
			<g id="LINE-89">
				<line class="st7" x1="128.5" y1="169.9" x2="117.7" y2="163.6"/>
			</g>
			<g id="LINE-90">
				<line class="st7" x1="117.7" y1="163.6" x2="117.7" y2="160.1"/>
			</g>
			<g id="LINE-91">
				<line class="st7" x1="117.7" y1="160.1" x2="111.3" y2="156.4"/>
			</g>
			<g id="LINE-92">
				<line class="st7" x1="111.3" y1="156.4" x2="111.3" y2="159.9"/>
			</g>
			<g id="LINE-93">
				<line class="st7" x1="111.3" y1="159.9" x2="109.5" y2="158.9"/>
			</g>
			<g id="LINE-94">
				<line class="st7" x1="113.9" y1="158.5" x2="111.3" y2="159.9"/>
			</g>
			<g id="LINE-95">
				<line class="st7" x1="113.9" y1="157.9" x2="113.9" y2="158.5"/>
			</g>
			<g id="LINE-96">
				<line class="st7" x1="111.1" y1="159.8" x2="111.1" y2="182.5"/>
			</g>
			<g id="LINE-97">
				<line class="st7" x1="112" y1="184.2" x2="129.2" y2="194.1"/>
			</g>
			<g id="ARC-33">
				<path class="st7" d="M111.1,182.5c0,0.7,0.4,1.3,0.9,1.6"/>
			</g>
			<line class="st7" x1="111.5" y1="183.3" x2="129.3" y2="172.8"/>
			<g id="LINE-98">
				<line class="st7" x1="85.9" y1="141.7" x2="86.1" y2="141.8"/>
			</g>
			<g id="ELLIPSE-13">
				<path class="st7" d="M81.5,142.7c-0.5-0.3-1-0.1-1,0.6"/>
			</g>
			<g id="LINE-99">
				<line class="st7" x1="80.5" y1="143.3" x2="80.1" y2="168"/>
			</g>
			<g id="ELLIPSE-14">
				<path class="st7" d="M80.1,168c0,0.7,0.4,1.4,1,1.7"/>
			</g>
			<g id="LINE-100">
				<line class="st7" x1="81.1" y1="169.8" x2="100.1" y2="180.8"/>
			</g>
			<g id="ELLIPSE-15">
				<path class="st7" d="M100.1,180.8c0.6,0.3,1,0.1,1-0.6"/>
			</g>
			<g id="LINE-101">
				<line class="st7" x1="101.1" y1="180.2" x2="101.5" y2="155.4"/>
			</g>
			<g id="ELLIPSE-16">
				<path class="st7" d="M101.5,155.4c0-0.7-0.4-1.3-1-1.7"/>
			</g>
			<g id="LINE-102">
				<line class="st7" x1="100.5" y1="153.7" x2="89.7" y2="147.4"/>
			</g>
			<g id="LINE-103">
				<line class="st7" x1="89.7" y1="147.4" x2="89.7" y2="143.9"/>
			</g>
			<g id="LINE-104">
				<line class="st7" x1="89.7" y1="143.9" x2="83.3" y2="140.3"/>
			</g>
			<g id="LINE-105">
				<line class="st7" x1="83.3" y1="140.3" x2="83.3" y2="143.8"/>
			</g>
			<g id="LINE-106">
				<line class="st7" x1="83.3" y1="143.8" x2="81.5" y2="142.7"/>
			</g>
			<g id="LINE-107">
				<line class="st7" x1="85.9" y1="142.4" x2="83.3" y2="143.8"/>
			</g>
			<g id="LINE-108">
				<line class="st7" x1="85.9" y1="141.7" x2="85.9" y2="142.4"/>
			</g>
			<g id="LINE-109">
				<line class="st7" x1="83.1" y1="143.6" x2="83.1" y2="166.4"/>
			</g>
			<g id="LINE-110">
				<line class="st7" x1="84" y1="168" x2="101.2" y2="177.9"/>
			</g>
			<g id="ARC-34">
				<path class="st7" d="M83.1,166.4c0,0.7,0.4,1.3,0.9,1.6"/>
			</g>
			<line class="st7" x1="83.5" y1="167.1" x2="101.3" y2="156.7"/>
			<g id="LINE-111">
				<line class="st7" x1="57.9" y1="125.6" x2="58.1" y2="125.7"/>
			</g>
			<g id="ELLIPSE-17">
				<path class="st7" d="M53.5,126.5c-0.5-0.3-1-0.1-1,0.6"/>
			</g>
			<g id="LINE-112">
				<line class="st7" x1="52.5" y1="127.1" x2="52.1" y2="151.9"/>
			</g>
			<g id="ELLIPSE-18">
				<path class="st7" d="M52.1,151.9c0,0.7,0.4,1.4,1,1.7"/>
			</g>
			<g id="LINE-113">
				<line class="st7" x1="53.1" y1="153.6" x2="72.1" y2="164.6"/>
			</g>
			<g id="ELLIPSE-19">
				<path class="st7" d="M72.1,164.6c0.6,0.3,1,0.1,1-0.6"/>
			</g>
			<g id="LINE-114">
				<line class="st7" x1="73.1" y1="164" x2="73.5" y2="139.3"/>
			</g>
			<g id="ELLIPSE-20">
				<path class="st7" d="M73.5,139.3c0-0.7-0.4-1.3-1-1.7"/>
			</g>
			<g id="LINE-115">
				<line class="st7" x1="72.5" y1="137.5" x2="61.7" y2="131.3"/>
			</g>
			<g id="LINE-116">
				<line class="st7" x1="61.7" y1="131.3" x2="61.7" y2="127.8"/>
			</g>
			<g id="LINE-117">
				<line class="st7" x1="61.7" y1="127.8" x2="55.3" y2="124.1"/>
			</g>
			<g id="LINE-118">
				<line class="st7" x1="55.3" y1="124.1" x2="55.3" y2="127.6"/>
			</g>
			<g id="LINE-119">
				<line class="st7" x1="55.3" y1="127.6" x2="53.5" y2="126.5"/>
			</g>
			<g id="LINE-120">
				<line class="st7" x1="57.9" y1="126.2" x2="55.3" y2="127.6"/>
			</g>
			<g id="LINE-121">
				<line class="st7" x1="57.9" y1="125.6" x2="57.9" y2="126.2"/>
			</g>
			<g id="LINE-122">
				<line class="st7" x1="55.1" y1="127.5" x2="55.1" y2="150.2"/>
			</g>
			<g id="LINE-123">
				<line class="st7" x1="56" y1="151.8" x2="73.2" y2="161.7"/>
			</g>
			<g id="ARC-35">
				<path class="st7" d="M55.1,150.2c0,0.7,0.4,1.3,0.9,1.6"/>
			</g>
			<line class="st7" x1="55.5" y1="150.9" x2="73.3" y2="140.5"/>
			<g id="LINE-124">
				<line class="st7" x1="29.9" y1="109.4" x2="30.1" y2="109.5"/>
			</g>
			<g id="ELLIPSE-21">
				<path class="st7" d="M25.5,110.4c-0.5-0.3-1-0.1-1,0.6"/>
			</g>
			<g id="LINE-125">
				<line class="st7" x1="24.5" y1="111" x2="24.1" y2="135.7"/>
			</g>
			<g id="ELLIPSE-22">
				<path class="st7" d="M24.1,135.7c0,0.7,0.4,1.4,1,1.7"/>
			</g>
			<g id="LINE-126">
				<line class="st7" x1="25.1" y1="137.4" x2="44.1" y2="148.4"/>
			</g>
			<g id="ELLIPSE-23">
				<path class="st7" d="M44.1,148.4c0.6,0.3,1,0.1,1-0.6"/>
			</g>
			<g id="LINE-127">
				<line class="st7" x1="45.1" y1="147.8" x2="45.5" y2="123.1"/>
			</g>
			<g id="ELLIPSE-24">
				<path class="st7" d="M45.5,123.1c0-0.7-0.4-1.3-1-1.7"/>
			</g>
			<g id="LINE-128">
				<line class="st7" x1="44.5" y1="121.4" x2="33.7" y2="115.1"/>
			</g>
			<g id="LINE-129">
				<line class="st7" x1="33.7" y1="115.1" x2="33.7" y2="111.6"/>
			</g>
			<g id="LINE-130">
				<line class="st7" x1="33.7" y1="111.6" x2="27.3" y2="107.9"/>
			</g>
			<g id="LINE-131">
				<line class="st7" x1="27.3" y1="107.9" x2="27.3" y2="111.4"/>
			</g>
			<g id="LINE-132">
				<line class="st7" x1="27.3" y1="111.4" x2="25.5" y2="110.4"/>
			</g>
			<g id="LINE-133">
				<line class="st7" x1="29.9" y1="110" x2="27.3" y2="111.4"/>
			</g>
			<g id="LINE-134">
				<line class="st7" x1="29.9" y1="109.4" x2="29.9" y2="110"/>
			</g>
			<g id="LINE-135">
				<line class="st7" x1="27.1" y1="111.3" x2="27.1" y2="134"/>
			</g>
			<g id="LINE-136">
				<line class="st7" x1="28" y1="135.7" x2="45.2" y2="145.6"/>
			</g>
			<g id="ARC-36">
				<path class="st7" d="M27.1,134c0,0.7,0.4,1.3,0.9,1.6"/>
			</g>
			<line class="st7" x1="27.5" y1="134.8" x2="45.3" y2="124.3"/>
		</g>
		<g id="Brain_Outline">
			<path class="st8" d="M241.6,164.1v-12.7c0-0.4,0.1-0.9,0.2-1.3c0.1-0.5,0.3-0.9,0.5-1.4c0.2-0.4,0.5-0.9,0.8-1.2
				c0.3-0.4,0.6-0.7,0.9-1c0.2-0.2,0.4-0.3,0.6-0.4l51.4-29.7c0.3-0.2,0.6-0.3,1-0.4c0.3,0,0.6,0,0.8,0.1l0,0
				c0.6,0.2,1.1,0.4,1.7,0.6c1.3,0.5,2.5,1,3.7,1.6c0.7,0.3,1.3,0.7,1.9,1l-0.1-0.1c0.8,0.5,1.5,0.9,2.2,1.4
				c1.2,0.8,2.4,1.7,3.5,2.6c0.5,0.3,1,0.7,1.4,1.1c0.4,0.5,0.6,1.2,0.6,1.8v12.6l-3.4,2l-0.7,5l-46.2,26.7l-0.3-1.8l-2.3-1.3
				l-4.4,2.4l-0.7-0.1L241.6,164.1"/>
		</g>
		<g id="Screen_Lines">
			<g id="LINE-137">
				<path class="st8" d="M248.9,121.3l-0.1,3.9l9.9,5.7c0.7,0.3,1.4,0.3,2.1,0l17.9-10.3l-0.1-3.9c0-0.2,0-0.3-0.1-0.5
					c-0.1-0.1-0.1-0.2-0.2-0.4c-0.1-0.1-0.2-0.2-0.3-0.3c0,0-0.1,0-0.1,0l-9.5-5.5l0,0c-0.4-0.2-0.8-0.2-1.1,0l0,0l-17.6,10.1l0,0
					c-0.1,0-0.2,0.1-0.2,0.2c-0.1,0.1-0.2,0.2-0.3,0.4c-0.1,0.1-0.1,0.3-0.1,0.4C248.9,121.2,248.9,121.2,248.9,121.3"/>
			</g>
			<g id="LINE-138">
				<path class="st8" d="M238.5,138.2l-9.5-5.5l0,0c-0.4-0.2-0.8-0.2-1.1,0l0,0l-17.6,10.1l0,0c-0.1,0-0.2,0.1-0.2,0.2
					c-0.1,0.1-0.2,0.2-0.3,0.4c-0.1,0.1-0.1,0.3-0.1,0.4c0,0,0,0.1,0,0.1l0,0.7l-0.1,3.2l9.9,5.7c0.7,0.3,1.4,0.3,2.1,0l17.9-10.3
					l-0.1-3.9c0-0.2,0-0.3-0.1-0.5c-0.1-0.1-0.1-0.2-0.2-0.4C238.8,138.4,238.7,138.3,238.5,138.2
					C238.6,138.2,238.5,138.2,238.5,138.2"/>
			</g>
			<g id="LINE-139">
				<path class="st8" d="M131.9,53.6l-0.1,3.9l9.9,5.7c0.7,0.3,1.4,0.3,2.1,0l17.9-10.3l-0.1-3.9c0-0.2,0-0.3-0.1-0.5
					c-0.1-0.1-0.1-0.2-0.2-0.4c-0.1-0.1-0.2-0.2-0.3-0.3c0,0-0.1,0-0.1,0l-9.5-5.5l0,0c-0.4-0.2-0.8-0.2-1.1,0l0,0l-17.6,10.1l0,0
					c-0.1,0-0.2,0.1-0.2,0.2c-0.1,0.1-0.2,0.2-0.3,0.4c-0.1,0.1-0.1,0.3-0.1,0.4C131.9,53.5,131.9,53.6,131.9,53.6"/>
			</g>
			<g id="LINE-140">
				<path class="st8" d="M121.5,70.6l-9.5-5.5l0,0c-0.4-0.2-0.8-0.2-1.1,0l0,0L93.3,75.2l0,0c-0.1,0-0.2,0.1-0.2,0.2
					c-0.1,0.1-0.2,0.2-0.3,0.4c-0.1,0.1-0.1,0.3-0.1,0.4c0,0,0,0.1,0,0.1l0,0.7l-0.1,3.2l9.9,5.7c0.7,0.3,1.4,0.3,2.1,0l17.9-10.3
					l-0.1-3.9c0-0.2,0-0.3-0.1-0.5c-0.1-0.1-0.1-0.2-0.2-0.4C121.8,70.8,121.7,70.7,121.5,70.6C121.6,70.6,121.5,70.6,121.5,70.6"/>
			</g>
			<g id="LINE-141">
				<line class="st8" x1="131.8" y1="53.7" x2="131.7" y2="57.6"/>
			</g>
			<g id="SPLINE-6">
				<path class="st8" d="M93.2,75.3c-0.1,0-0.2,0.1-0.2,0.2c-0.1,0.1-0.2,0.2-0.3,0.4c-0.1,0.1-0.1,0.3-0.1,0.4c0,0,0,0.1,0,0.1"/>
			</g>
			<g id="LINE-142">
				<line class="st8" x1="92.5" y1="76.4" x2="92.4" y2="80.3"/>
			</g>
			<g id="LINE-143">
				<line class="st8" x1="110.8" y1="65.1" x2="93.2" y2="75.2"/>
			</g>
			<g id="SPLINE-7">
				<path class="st8" d="M122.1,71.7c0-0.2,0-0.3-0.1-0.5c-0.1-0.1-0.1-0.2-0.2-0.4c-0.1-0.1-0.2-0.2-0.3-0.3c0,0,0,0-0.1,0"/>
			</g>
			<g id="LINE-144">
				<line class="st8" x1="122.3" y1="75.7" x2="122.1" y2="71.7"/>
			</g>
			<g id="LINE-145">
				<line class="st8" x1="207.2" y1="146.6" x2="206.9" y2="147"/>
			</g>
			<g id="LINE-146">
				<line class="st8" x1="241.6" y1="141.9" x2="239.2" y2="140.3"/>
			</g>
			<g id="LINE-147">
				<line class="st8" x1="246.5" y1="123.9" x2="246.2" y2="124.3"/>
			</g>
			<g id="LINE-148">
				<line class="st8" x1="248.9" y1="122.3" x2="246.6" y2="123.8"/>
			</g>
			<g id="LINE-149">
				<line class="st8" x1="90.1" y1="79" x2="89.9" y2="79.4"/>
			</g>
			<g id="LINE-150">
				<line class="st8" x1="92.5" y1="77.4" x2="90.2" y2="79"/>
			</g>
			<g id="LINE-151">
				<line class="st8" x1="124.8" y1="74.8" x2="124.6" y2="74.4"/>
			</g>
			<g id="LINE-152">
				<line class="st8" x1="124.5" y1="74.4" x2="122.2" y2="72.8"/>
			</g>
			<g id="LINE-153">
				<line class="st8" x1="129.4" y1="56.3" x2="129.2" y2="56.7"/>
			</g>
			<g id="LINE-154">
				<line class="st8" x1="131.8" y1="54.7" x2="129.5" y2="56.3"/>
			</g>
			<g id="LINE-155">
				<line class="st8" x1="164.1" y1="52.1" x2="163.8" y2="51.7"/>
			</g>
			<g id="LINE-156">
				<line class="st8" x1="163" y1="51" x2="161.5" y2="50.1"/>
			</g>
			<g id="ARC-37">
				<path class="st8" d="M219.6,149.2c0.5,0.3,1.1,0.3,1.6,0"/>
			</g>
			<g id="LINE-157">
				<line class="st8" x1="238.9" y1="139" x2="221.2" y2="149.2"/>
			</g>
			<g id="LINE-158">
				<line class="st8" x1="219.6" y1="149.2" x2="209.9" y2="143.6"/>
			</g>
			<g id="LINE-159">
				<path class="st8" d="M249.2,121l9.7,5.6c0.5,0.3,1.1,0.3,1.6,0l17.7-10.2"/>
			</g>
			<g id="ARC-38">
				<path class="st8" d="M141.8,59.7c0.5,0.3,1.1,0.3,1.6,0"/>
			</g>
			<g id="LINE-160">
				<line class="st8" x1="161.1" y1="49.5" x2="143.4" y2="59.7"/>
			</g>
			<g id="LINE-161">
				<line class="st8" x1="141.8" y1="59.7" x2="132.2" y2="54.2"/>
			</g>
			<path class="st8" d="M225.3,140.2v-2.3c0,0-0.8-0.5-1-0.6l0,0l-1,0.6c0,0.2,0,1.9,0,2.1l0,0.2c0,0-3.6,0-4,0l-1,0.6
				c0.2,0.1,1,0.6,1,0.6h4v2.3l1,0.5l1-0.6l0-2.3l4,0l1-0.6l-1-0.5L225.3,140.2"/>
			<g id="ARC-39">
				<path class="st8" d="M102.5,81.6c0.5,0.3,1.1,0.3,1.6,0"/>
			</g>
			<g id="LINE-162">
				<line class="st8" x1="121.8" y1="71.4" x2="104.1" y2="81.6"/>
			</g>
			<g id="LINE-163">
				<line class="st8" x1="102.5" y1="81.6" x2="92.9" y2="76"/>
			</g>
			<g id="LINE-164">
				<path class="st8" d="M266.4,119.3c0.5-0.1,1.1-0.2,1.6-0.3l1-0.6c-0.2-0.1-0.4-0.2-0.6-0.3l-0.4-0.2l-7.3,1.1l0.3-1.7l-0.4-0.2
					c-0.2-0.1-0.4-0.2-0.6-0.4l-1,0.6c0,0.3-0.1,0.5-0.1,0.8l-0.2,1.4l1.4,0.8L266.4,119.3"/>
			</g>
			<g id="LINE-165">
				<line class="st8" x1="126" y1="106.9" x2="174.1" y2="134.7"/>
			</g>
			<g id="LINE-166">
				<line class="st8" x1="174.1" y1="134.7" x2="175.7" y2="134"/>
			</g>
			<g id="LINE-167">
				<line class="st8" x1="175.7" y1="134" x2="215" y2="156.7"/>
			</g>
			<g id="ARC-40">
				<path class="st8" d="M215,156.7c3.4,1.8,7.4,1.8,10.8,0"/>
			</g>
			<g id="LINE-168">
				<line class="st8" x1="225.8" y1="156.7" x2="283.1" y2="123.6"/>
			</g>
			<g id="ARC-41">
				<path class="st8" d="M283.1,123.6c1.7-0.7,2.5-2.6,1.9-4.3c-0.4-0.9-1.1-1.5-1.9-1.9"/>
			</g>
			<g id="LINE-169">
				<line class="st8" x1="283.1" y1="117.3" x2="243.9" y2="94.7"/>
			</g>
			<g id="LINE-170">
				<line class="st8" x1="243.9" y1="94.7" x2="245" y2="93.7"/>
			</g>
			<g id="LINE-171">
				<line class="st8" x1="245" y1="93.7" x2="196.9" y2="65.9"/>
			</g>
			<g id="LINE-172">
				<line class="st8" x1="196.9" y1="65.9" x2="195.5" y2="66.5"/>
			</g>
			<g id="LINE-173">
				<line class="st8" x1="156.2" y1="43.8" x2="195.5" y2="66.5"/>
			</g>
			<g id="ARC-42">
				<path class="st8" d="M149.9,42.5c-1.7,0.1-3.4,0.5-4.9,1.3"/>
			</g>
			<g id="ARC-43">
				<path class="st8" d="M156.2,43.8c-1.5-0.8-3.2-1.3-4.9-1.3"/>
			</g>
			<g id="LINE-174">
				<line class="st8" x1="87.7" y1="76.9" x2="145" y2="43.8"/>
			</g>
			<g id="ARC-44">
				<path class="st8" d="M87.7,76.9c-1.8,0.7-2.7,2.7-2,4.5c0.4,0.9,1.1,1.6,2,2"/>
			</g>
			<g id="LINE-175">
				<line class="st8" x1="127" y1="106.1" x2="87.7" y2="83.4"/>
			</g>
			<g id="LINE-176">
				<line class="st8" x1="127" y1="106.1" x2="126" y2="106.9"/>
			</g>
			<g id="ARC-45">
				<path class="st8" d="M89.9,79.4c-0.4,0.8-0.1,1.7,0.6,2.2c0.1,0,0.1,0.1,0.2,0.1"/>
			</g>
			<g id="LINE-177">
				<line class="st8" x1="90.7" y1="81.7" x2="100.7" y2="87.5"/>
			</g>
			<g id="ARC-46">
				<path class="st8" d="M100.7,87.5c1.6,0.8,3.6,0.8,5.2,0"/>
			</g>
			<g id="LINE-178">
				<line class="st8" x1="105.9" y1="87.5" x2="124" y2="77"/>
			</g>
			<g id="ARC-47">
				<path class="st8" d="M124,77c0.8-0.3,1.2-1.2,0.9-2c0-0.1-0.1-0.1-0.1-0.2"/>
			</g>
			<g id="ARC-48">
				<path class="st8" d="M280.3,121.9c0.8-0.3,1.2-1.2,0.9-2c0-0.1-0.1-0.1-0.1-0.2"/>
			</g>
			<g id="ARC-49">
				<path class="st8" d="M246.2,124.3c-0.4,0.8-0.1,1.7,0.6,2.2c0.1,0,0.1,0.1,0.2,0.1"/>
			</g>
			<g id="LINE-179">
				<line class="st8" x1="247.1" y1="126.6" x2="257.1" y2="132.4"/>
			</g>
			<g id="ARC-50">
				<path class="st8" d="M257.1,132.4c1.6,0.8,3.6,0.8,5.2,0"/>
			</g>
			<g id="LINE-180">
				<line class="st8" x1="262.3" y1="132.4" x2="280.3" y2="121.9"/>
			</g>
			<g id="LINE-181">
				<line class="st8" x1="109.7" y1="90.1" x2="167.9" y2="56.6"/>
			</g>
			<g id="SPLINE-8">
				<path class="st8" d="M111.4,94c-0.2-0.1-2-1.1-2.1-1.2c-0.1-0.1-0.2-0.2-0.3-0.4c-0.4-0.5-0.4-1.2,0-1.7
					c0.1-0.1,0.2-0.3,0.3-0.4c0.1-0.1,0.3-0.2,0.5-0.3"/>
			</g>
			<g id="SPLINE-9">
				<path class="st8" d="M261.3,107.5c0.2,0.1,0.3,0.2,0.5,0.3c0.1,0.1,0.2,0.2,0.3,0.4c0.4,0.5,0.4,1.2,0,1.7
					c-0.1,0.1-0.2,0.3-0.3,0.4c-0.1,0.1-1.2,0.7-1.4,0.8"/>
			</g>
			<g id="LINE-182">
				<line class="st8" x1="173.1" y1="56.6" x2="261.3" y2="107.5"/>
			</g>
			<g id="SPLINE-10">
				<path class="st8" d="M167.9,56.6c0.2-0.1,0.4-0.2,0.5-0.3c0.2-0.1,0.4-0.1,0.6-0.2c0.9-0.2,1.9-0.2,2.9,0c0.2,0,0.4,0.1,0.6,0.2
					c0.2,0.1,0.4,0.2,0.5,0.3"/>
			</g>
			<g id="ARC-51">
				<path class="st8" d="M241,144.6c0.8-0.3,1.2-1.2,0.9-2c0-0.1-0.1-0.1-0.1-0.2"/>
			</g>
			<g id="ARC-52">
				<path class="st8" d="M206.9,147c-0.4,0.8-0.1,1.7,0.6,2.2c0.1,0,0.1,0.1,0.2,0.1"/>
			</g>
			<g id="LINE-183">
				<line class="st8" x1="207.8" y1="149.2" x2="217.8" y2="155"/>
			</g>
			<g id="ARC-53">
				<path class="st8" d="M217.8,155c1.6,0.8,3.6,0.8,5.2,0"/>
			</g>
			<g id="LINE-184">
				<line class="st8" x1="223" y1="155" x2="241" y2="144.6"/>
			</g>
			<g id="ARC-54">
				<path class="st8" d="M129.2,56.7c-0.4,0.8-0.1,1.7,0.6,2.2c0.1,0,0.1,0.1,0.2,0.1"/>
			</g>
			<g id="LINE-185">
				<line class="st8" x1="130" y1="59" x2="140" y2="64.8"/>
			</g>
			<g id="ARC-55">
				<path class="st8" d="M140,64.8c1.6,0.8,3.6,0.8,5.2,0"/>
			</g>
			<g id="LINE-186">
				<line class="st8" x1="145.2" y1="64.8" x2="163.5" y2="54.3"/>
			</g>
			<g id="ARC-56">
				<path class="st8" d="M163.3,54.4c0.8-0.4,1.2-1.2,0.9-2c0-0.1-0.1-0.1-0.1-0.2"/>
			</g>
			<g id="LINE-187">
				<line class="st8" x1="239.5" y1="141.9" x2="239.3" y2="141.8"/>
			</g>
			<g id="ARC-57">
				<path class="st8" d="M209.3,146.6c-0.3,0.1-0.5,0.5-0.4,0.8c0.1,0.2,0.2,0.3,0.4,0.4"/>
			</g>
			<g id="ARC-58">
				<path class="st8" d="M278.8,120.5c0.3-0.1,0.5-0.5,0.4-0.8c-0.1-0.2-0.2-0.3-0.4-0.4"/>
			</g>
			<g id="LINE-188">
				<line class="st8" x1="248.8" y1="123.8" x2="248.6" y2="123.9"/>
			</g>
			<g id="ARC-59">
				<path class="st8" d="M248.6,123.9c-0.3,0.1-0.5,0.5-0.4,0.8c0.1,0.2,0.2,0.3,0.4,0.4"/>
			</g>
			<g id="ARC-60">
				<path class="st8" d="M278.5,117.8c0,0,2,1.2,2,1.2c0.2,0.2,0.4,0.4,0.6,0.7"/>
			</g>
			<g id="ARC-61">
				<path class="st8" d="M102.3,86c0.7,0.3,1.4,0.3,2.1,0"/>
			</g>
			<g id="LINE-189">
				<line class="st8" x1="104.4" y1="86" x2="122.4" y2="75.6"/>
			</g>
			<g id="ARC-62">
				<path class="st8" d="M122.4,75.6c0.3-0.1,0.5-0.5,0.4-0.8c-0.1-0.2-0.2-0.3-0.4-0.4"/>
			</g>
			<g id="LINE-190">
				<line class="st8" x1="122.4" y1="74.4" x2="122.2" y2="74.2"/>
			</g>
			<g id="LINE-191">
				<line class="st8" x1="92.5" y1="78.9" x2="92.3" y2="79"/>
			</g>
			<g id="ARC-63">
				<path class="st8" d="M92.3,79c-0.3,0.1-0.5,0.5-0.4,0.8c0.1,0.2,0.2,0.3,0.4,0.4"/>
			</g>
			<g id="LINE-192">
				<line class="st8" x1="92.3" y1="80.2" x2="102.3" y2="86"/>
			</g>
			<g id="LINE-193">
				<line class="st8" x1="131.5" y1="57.5" x2="141.6" y2="63.3"/>
			</g>
			<g id="ARC-64">
				<path class="st8" d="M141.6,63.3c0.7,0.3,1.4,0.3,2.1,0"/>
			</g>
			<g id="LINE-194">
				<line class="st8" x1="143.7" y1="63.3" x2="161.7" y2="52.9"/>
			</g>
			<g id="LINE-195">
				<line class="st8" x1="131.7" y1="56.2" x2="131.5" y2="56.3"/>
			</g>
			<g id="ARC-65">
				<path class="st8" d="M131.5,56.3c-0.3,0.1-0.5,0.5-0.4,0.8c0.1,0.2,0.2,0.3,0.4,0.4"/>
			</g>
			<g id="ELLIPSE-25">
				<path class="st8" d="M171.5,59.3c-0.6-0.3-1.4-0.3-2,0l-59,34.1L198,144c0.2,0.1,0.4,0.2,0.5,0.3c0.2,0.1,0.4,0.1,0.6,0.2
					c0.9,0.2,1.9,0.2,2.9,0c0.2,0,0.4-0.1,0.6-0.2c0.2-0.1,0.4-0.2,0.5-0.3l57.5-33.2L171.5,59.3z"/>
			</g>
			<g id="ARC-66">
				<path class="st8" d="M163.1,51c0,0,0.8,0.8,0.8,0.7"/>
			</g>
			<g id="LWPOLYLINE-2">
				<path class="st8" d="M242.4,130.3l8,4.6l0,0c0.2,0.1,0.3,0.2,0.4,0.3c0.1,0.1,0.3,0.3,0.4,0.4c0.1,0.2,0.2,0.3,0.2,0.5
					c0,0.2,0.1,0.3,0.1,0.5l0,0l0,0.1l-0.2,0.6l-0.6,0.5l-0.9,0.3l-1.1,0.1l-1.1-0.1l-0.9-0.3l-8-4.6l-0.6-0.5l-0.2-0.6l0,0v0
					c0-0.1,0-0.3,0.1-0.4c0-0.1,0.1-0.3,0.1-0.4c0.1-0.2,0.3-0.4,0.4-0.6c0.3-0.2,0.6-0.4,0.9-0.6c0.2-0.1,0.3-0.1,0.5-0.1
					c0.2,0,0.5-0.1,0.7-0.1c0.3,0,0.6,0,0.8,0.1c0.2,0,0.3,0.1,0.4,0.1C242.1,130.1,242.2,130.2,242.4,130.3L242.4,130.3z"/>
			</g>
			<g id="LINE-196">
				<line class="st8" x1="209.6" y1="145.1" x2="207.2" y2="146.6"/>
			</g>
			<g id="LINE-197">
				<path class="st8" d="M105.3,70.8c-0.1,0.3-0.2,0.6-0.3,0.8l-1.3,3.5l6.1-0.7c0.5-0.1,1-0.1,1.5-0.2c-0.2-0.1-0.4-0.3-0.6-0.4
					l-4.8-2.8C105.7,71,105.5,70.9,105.3,70.8z"/>
			</g>
			<g id="LINE-198">
				<path class="st8" d="M142.9,49.8c-0.5,0.1-1,0.1-1.5,0.2c0.2,0.1,0.4,0.2,0.6,0.3l4.8,2.8c0.2,0.1,0.4,0.2,0.6,0.4
					c0.1-0.3,0.2-0.6,0.3-0.9l1.3-3.5L142.9,49.8z"/>
			</g>
			<g id="LWPOLYLINE-3">
				<polygon class="st8" points="117.2,66.2 117,66 116.9,65.7 117,65.5 117.2,65.3 117.6,65.1 118,65.1 118.5,65.1 118.8,65.3 
					129.3,71.4 129.6,71.6 129.7,71.8 129.6,72.1 129.3,72.3 129,72.4 128.5,72.5 128.1,72.4 127.7,72.3 				"/>
			</g>
			<g id="LWPOLYLINE-4">
				<polygon class="st8" points="121.2,63.9 121,63.7 120.9,63.4 121,63.2 121.2,63 121.6,62.8 122,62.8 122.5,62.8 122.8,63 
					133.4,69 133.6,69.2 133.7,69.5 133.6,69.8 133.4,70 133,70.1 132.6,70.2 132.1,70.1 131.8,70 				"/>
			</g>
			<g id="LWPOLYLINE-5">
				<polygon class="st8" points="125.2,61.6 125,61.4 124.9,61.1 125,60.9 125.2,60.6 125.6,60.5 126,60.5 126.5,60.5 126.8,60.6 
					137.4,66.7 137.6,66.9 137.7,67.2 137.6,67.4 137.4,67.6 137,67.8 136.6,67.8 136.1,67.8 135.8,67.6 				"/>
			</g>
		</g>
		<g id="Outside_Outline">
			<path d="M155.8,3c4.2,0.1,8.2,1.2,11.9,3.2l132.2,76.3l47.2,27.3c2.4,1.6,3.7,4.3,3.5,7.1l1,43.6c4.2,4.9,6.9,11.4,6.8,17l0,0.5
				l-0.1,1.1c-0.4,3.1-1.7,5.5-3.7,6.6l-21.7,12.6l-112.1,65.5c-3.9,2.1-15,8.1-18.9,9.9c-0.8,0.4-1.6,0.5-2.5,0.5
				c-2.3-0.2-4.4-0.9-6.3-2.2l-9.8-5.8l-2.3-3.4l-1.9,1l-21.3-12.3l-2.3-3.4l-2,1L132.4,237l-2.3-3.5l-2.1,1l-21.2-12.2l-2.3-3.5
				l-2,1l-21.2-12.1l-2.3-3.5l-2.1,1l-21.1-12.3l-2.3-3.3l-2,0.9l-21.3-12.2l-2.2-3.4l-2.1,0.9c-11.1-6-13.7-8.3-13.7-8.3
				s-7-6.1-9-15c-1.9-8.8,2.2-11.7,2.2-11.7l4.6-2.9c-0.3-1.3-0.5-2.7-0.5-4c0,0,1.1-42.8,1.1-43.9s-0.4-4.4,0.9-6.9
				s5.3-4.3,5.3-4.3S139.7,8,143,6.2s6.2-3.1,12.6-3.2C155.6,3,155.7,3,155.8,3 M155.8,0l-0.2,0c-7.2,0.1-10.6,1.6-14,3.5
				C138.3,5.3,22.1,72.4,15.6,76.2c-1.1,0.5-4.9,2.5-6.5,5.6c-1.1,2.4-1.5,5-1.3,7.5c0,0.2,0,0.5,0,0.6c0,1.1-1.1,42.2-1.1,43.9
				c0,0.1,0,0.1,0,0.2c0,0.4,0.1,1.4,0.2,2.5l-2.8,1.8c-0.1,0-0.1,0.1-0.2,0.1c-0.6,0.4-5.6,4.4-3.4,14.7c2.1,9.6,9.5,16.2,9.9,16.6
				c0.4,0.4,3.4,2.8,14.2,8.7c0.7,0.4,1.6,0.5,2.4,0.2l0.8,1.3c0.3,0.4,0.6,0.7,1,1L50.2,193c0.7,0.4,1.6,0.5,2.4,0.3l0.8,1.2
				c0.3,0.4,0.6,0.7,1,0.9l21.1,12.3c0.8,0.4,1.7,0.5,2.5,0.2l0.9,1.4c0.3,0.4,0.6,0.7,1,1l21.2,12.1c0.7,0.4,1.6,0.5,2.4,0.3
				l0.8,1.3c0.3,0.4,0.6,0.7,1,1l21.2,12.2c0.8,0.4,1.7,0.5,2.5,0.2l0.9,1.4c0.3,0.4,0.6,0.7,1,1l21.1,12.2c0.7,0.4,1.6,0.5,2.4,0.3
				l0.8,1.2c0.3,0.4,0.6,0.7,1,0.9l21.3,12.3c0.7,0.4,1.6,0.5,2.4,0.3l0.9,1.3c0.2,0.4,0.6,0.7,0.9,0.9l9.8,5.7
				c2.4,1.6,5.1,2.5,7.9,2.6c1.3,0,2.6-0.3,3.8-0.8c4.3-2,17.5-9.2,19-10c0,0,0.1,0,0.1,0l112.1-65.5l21.7-12.6
				c2.9-1.7,4.7-4.8,5.2-8.9c0,0,0-0.1,0-0.1l0.1-1.1c0,0,0-0.1,0-0.1l0-0.5c0,0,0-0.1,0-0.1c0-5.9-2.6-12.8-6.9-18.1l-0.9-42.4
				c0.2-3.9-1.6-7.6-4.8-9.7c-0.1,0-0.1-0.1-0.2-0.1l-47.2-27.3L169.2,3.6C165,1.4,160.4,0.1,155.8,0z"/>
		</g>
		<g id="Inside_Outlines">
			<g id="LINE-199">
				<line class="st8" x1="199.6" y1="265.1" x2="202.2" y2="263.7"/>
			</g>
			<g id="LINE-200">
				<line class="st8" x1="351.5" y1="165.5" x2="351.6" y2="163.4"/>
			</g>
			<g id="LINE-201">
				<line class="st8" x1="10.2" y1="138" x2="6.4" y2="140.3"/>
			</g>
			<g id="LINE-202">
				<line class="st8" x1="9.7" y1="134" x2="9.8" y2="136.1"/>
			</g>
			<g id="LINE-203">
				<line class="st8" x1="15" y1="145.3" x2="12.4" y2="146.8"/>
			</g>
			<g id="LINE-204">
				<line class="st8" x1="351.6" y1="163.1" x2="350.5" y2="115.7"/>
			</g>
			<g id="LINE-205">
				<line class="st8" x1="10.9" y1="86.3" x2="9.7" y2="133.7"/>
			</g>
			<g id="SPLINE-11">
				<path class="st8" d="M305.2,119.4c-0.2-0.1-0.4-0.2-0.7-0.3c-0.3,0-0.6,0-0.9,0.1c-0.2,0.1-0.4,0.2-0.7,0.3l-51.5,29.7
					c-0.4,0.2-0.7,0.5-1,0.8c-0.3,0.3-0.6,0.7-0.9,1.1c-0.3,0.4-0.5,0.8-0.7,1.3c-0.2,0.4-0.3,0.9-0.4,1.3c0,0.3-0.1,0.5-0.1,0.8
					V168"/>
			</g>
			<g id="SPLINE-12">
				<path class="st8" d="M255.5,159.4c0-0.4,0.1-0.9,0.2-1.3c0.1-0.5,0.3-0.9,0.5-1.4c0.2-0.4,0.5-0.9,0.8-1.2
					c0.3-0.4,0.6-0.7,0.9-1c0.2-0.2,0.4-0.3,0.6-0.4"/>
			</g>
			<g id="LINE-206">
				<line class="st8" x1="255.5" y1="159.4" x2="255.5" y2="171.8"/>
			</g>
			<g id="SPLINE-13">
				<path class="st8" d="M258.5,154.1l51.4-29.7c0.3-0.2,0.6-0.3,1-0.4c0.3-0.1,0.6,0,0.9,0.1c0.3,0.1,0.5,0.3,0.7,0.5
					c0.2,0.2,0.3,0.5,0.4,0.9c0,0.3,0.1,0.5,0.1,0.8"/>
			</g>
			<g id="ARC-67">
				<path class="st8" d="M310.9,140v-12.7c0-0.5-0.2-0.7-0.5-0.7c-0.2,0-0.4,0-0.5,0.1l-13.8,8.1l-0.2,1.7c0,0.3-0.2,0.5-0.4,0.6
					l-23.4,13.5l-0.9-1.1l-13.1,7.6c-0.1,0.1-0.2,0.2-0.2,0.3v13.1"/>
			</g>
			<g id="ARC-68">
				<path class="st8" d="M193.7,244.2c7.8,4,17.1,4,24.9,0"/>
			</g>
			<g id="ELLIPSE-26">
				<path class="st8" d="M201.6,248.9c6,1,12.5,0,16.9-2.4"/>
			</g>
			<g id="SPLINE-14">
				<path class="st8" d="M193.7,244.2c1.2,0.7,2.4,1.5,3.7,2.2c1.3,0.8,2.8,1.6,4.2,2.5"/>
			</g>
			<g id="LINE-207">
				<line class="st8" x1="193.7" y1="244.2" x2="193.7" y2="244.2"/>
			</g>
			<g id="ELLIPSE-27">
				<path class="st8" d="M206,265.3c-0.2-7.7-5.6-17-12.3-21.1"/>
			</g>
			<g id="ARC-69">
				<path class="st8" d="M9.7,133.7c0.2,3.2,2.2,6,5.1,7.3"/>
			</g>
			<g id="ARC-70">
				<path class="st8" d="M346.4,170.4c3-1.2,5-4.1,5.1-7.3"/>
			</g>
			<g id="LINE-208">
				<line class="st8" x1="218.5" y1="244.2" x2="346.4" y2="170.4"/>
			</g>
			<g id="LINE-209">
				<line class="st8" x1="14.9" y1="141" x2="193.7" y2="244.2"/>
			</g>
			<g id="ELLIPSE-28">
				<path class="st8" d="M157.4,251.1c0.2,0.3,0.4,0.6,0.7,0.7"/>
			</g>
			<g id="LINE-210">
				<line class="st8" x1="157.4" y1="251.1" x2="155.9" y2="248.6"/>
			</g>
			<g id="ELLIPSE-29">
				<path class="st8" d="M155.9,248.6c-0.2-0.3-0.4-0.4-0.6-0.3"/>
			</g>
			<g id="LINE-211">
				<line class="st8" x1="155.3" y1="248.3" x2="153.9" y2="249.1"/>
			</g>
			<g id="ELLIPSE-30">
				<path class="st8" d="M153.2,249c0.2,0.1,0.5,0.2,0.7,0.1"/>
			</g>
			<g id="LINE-212">
				<line class="st8" x1="132.6" y1="237.2" x2="153.2" y2="249"/>
			</g>
			<g id="ELLIPSE-31">
				<path class="st8" d="M131.9,236.4c0.2,0.3,0.4,0.6,0.7,0.7"/>
			</g>
			<g id="LINE-213">
				<line class="st8" x1="131.9" y1="236.4" x2="130.4" y2="233.9"/>
			</g>
			<g id="ELLIPSE-32">
				<path class="st8" d="M130.4,233.9c-0.2-0.3-0.4-0.4-0.6-0.3"/>
			</g>
			<g id="LINE-214">
				<line class="st8" x1="129.9" y1="233.6" x2="128.4" y2="234.4"/>
			</g>
			<g id="ELLIPSE-33">
				<path class="st8" d="M127.7,234.3c0.2,0.1,0.5,0.2,0.7,0.1"/>
			</g>
			<g id="LINE-215">
				<line class="st8" x1="107.2" y1="222.5" x2="127.7" y2="234.3"/>
			</g>
			<g id="ELLIPSE-34">
				<path class="st8" d="M106.5,221.7c0.2,0.3,0.4,0.6,0.7,0.7"/>
			</g>
			<g id="LINE-216">
				<line class="st8" x1="106.5" y1="221.7" x2="105" y2="219.2"/>
			</g>
			<g id="ELLIPSE-35">
				<path class="st8" d="M105,219.2c-0.2-0.3-0.4-0.4-0.6-0.3"/>
			</g>
			<g id="LINE-217">
				<line class="st8" x1="104.4" y1="218.9" x2="103" y2="219.7"/>
			</g>
			<g id="ELLIPSE-36">
				<path class="st8" d="M102.3,219.6c0.2,0.1,0.5,0.2,0.7,0.1"/>
			</g>
			<g id="LINE-218">
				<line class="st8" x1="81.7" y1="207.8" x2="102.3" y2="219.6"/>
			</g>
			<g id="ELLIPSE-37">
				<path class="st8" d="M81,207.1c0.2,0.3,0.4,0.6,0.7,0.7"/>
			</g>
			<g id="LINE-219">
				<line class="st8" x1="81" y1="207.1" x2="79.5" y2="204.5"/>
			</g>
			<g id="ELLIPSE-38">
				<path class="st8" d="M79.5,204.5c-0.2-0.3-0.4-0.4-0.6-0.3"/>
			</g>
			<g id="LINE-220">
				<line class="st8" x1="78.9" y1="204.2" x2="77.5" y2="205"/>
			</g>
			<g id="ELLIPSE-39">
				<path class="st8" d="M76.8,204.9c0.2,0.1,0.5,0.2,0.7,0.1"/>
			</g>
			<g id="LINE-221">
				<line class="st8" x1="56.3" y1="193.1" x2="76.8" y2="204.9"/>
			</g>
			<g id="ELLIPSE-40">
				<path class="st8" d="M55.6,192.4c0.2,0.3,0.4,0.6,0.7,0.7"/>
			</g>
			<g id="LINE-222">
				<line class="st8" x1="55.6" y1="192.4" x2="54.1" y2="189.8"/>
			</g>
			<g id="ELLIPSE-41">
				<path class="st8" d="M54.1,189.8c-0.2-0.3-0.4-0.4-0.6-0.3"/>
			</g>
			<g id="LINE-223">
				<line class="st8" x1="53.5" y1="189.5" x2="52" y2="190.3"/>
			</g>
			<g id="ELLIPSE-42">
				<path class="st8" d="M51.3,190.3c0.2,0.1,0.5,0.2,0.7,0.1"/>
			</g>
			<g id="LINE-224">
				<line class="st8" x1="30.8" y1="178.4" x2="51.3" y2="190.3"/>
			</g>
			<g id="ELLIPSE-43">
				<path class="st8" d="M30.1,177.7c0.2,0.3,0.4,0.6,0.7,0.7"/>
			</g>
			<g id="LINE-225">
				<line class="st8" x1="30.1" y1="177.7" x2="28.6" y2="175.1"/>
			</g>
			<g id="ELLIPSE-44">
				<path class="st8" d="M28.6,175.1c-0.2-0.3-0.4-0.4-0.6-0.3"/>
			</g>
			<g id="LINE-226">
				<line class="st8" x1="28" y1="174.8" x2="26.6" y2="175.6"/>
			</g>
			<g id="ELLIPSE-45">
				<path class="st8" d="M25.9,175.6c0.2,0.1,0.5,0.2,0.7,0.1"/>
			</g>
			<g id="LINE-227">
				<line class="st8" x1="15.6" y1="169.6" x2="25.9" y2="175.6"/>
			</g>
			<g id="ELLIPSE-46">
				<path class="st8" d="M3,148.6c0.3,7.8,5.9,17.1,12.6,21"/>
			</g>
			<g id="LINE-228">
				<line class="st8" x1="3" y1="148.6" x2="3" y2="148.1"/>
			</g>
			<g id="ELLIPSE-47">
				<path class="st8" d="M14.9,141c-6.7-3.7-12-0.5-11.9,7.1"/>
			</g>
			<g id="LINE-229">
				<line class="st8" x1="14.9" y1="141" x2="14.9" y2="141"/>
			</g>
			<g id="LINE-230">
				<line class="st8" x1="206" y1="265.8" x2="206" y2="265.3"/>
			</g>
			<g id="ELLIPSE-48">
				<path class="st8" d="M193.8,272.5c6.7,3.9,12.2,0.9,12.2-6.7"/>
			</g>
			<g id="LINE-231">
				<line class="st8" x1="183.6" y1="266.6" x2="193.8" y2="272.5"/>
			</g>
			<g id="ELLIPSE-49">
				<path class="st8" d="M182.8,265.8c0.2,0.3,0.4,0.6,0.7,0.7"/>
			</g>
			<g id="LINE-232">
				<line class="st8" x1="182.8" y1="265.8" x2="181.3" y2="263.3"/>
			</g>
			<g id="ELLIPSE-50">
				<path class="st8" d="M181.3,263.3c-0.2-0.3-0.4-0.4-0.6-0.3"/>
			</g>
			<g id="LINE-233">
				<line class="st8" x1="180.8" y1="263" x2="179.3" y2="263.8"/>
			</g>
			<g id="ELLIPSE-51">
				<path class="st8" d="M178.6,263.7c0.2,0.1,0.5,0.2,0.7,0.1"/>
			</g>
			<g id="LINE-234">
				<line class="st8" x1="158.1" y1="251.9" x2="178.6" y2="263.7"/>
			</g>
			<g id="LWPOLYLINE-6">
				<polyline class="st8" points="181.7,260.8 181.6,260.5 181.4,260.3 181.2,260.2 181,260 180.8,259.9 180.6,259.9 180.5,259.9 
					180.3,260 				"/>
			</g>
			<g id="LINE-235">
				<line class="st8" x1="184" y1="264.6" x2="181.7" y2="260.8"/>
			</g>
			<g id="LINE-236">
				<line class="st8" x1="184" y1="264.6" x2="193.8" y2="270.3"/>
			</g>
			<g id="ELLIPSE-52">
				<path class="st8" d="M193.8,270.3c5.8,3.3,10.4,0.7,10.3-6s-4.9-14.7-10.7-18.1"/>
			</g>
			<g id="LINE-237">
				<line class="st8" x1="193.4" y1="246.3" x2="183.9" y2="240.7"/>
			</g>
			<g id="LINE-238">
				<line class="st8" x1="181.4" y1="242.1" x2="183.9" y2="240.7"/>
			</g>
			<g id="LWPOLYLINE-7">
				<polyline class="st8" points="180,241.3 180.2,241.6 180.4,241.8 180.5,241.9 180.7,242.1 180.9,242.2 181.1,242.2 181.3,242.2 
					181.4,242.1 				"/>
			</g>
			<g id="LINE-239">
				<line class="st8" x1="177.5" y1="237.1" x2="180" y2="241.3"/>
			</g>
			<g id="LINE-240">
				<line class="st8" x1="177.5" y1="237.1" x2="158.4" y2="226"/>
			</g>
			<g id="LINE-241">
				<line class="st8" x1="156" y1="227.4" x2="158.4" y2="226"/>
			</g>
			<g id="LWPOLYLINE-8">
				<polyline class="st8" points="154.6,226.6 154.7,226.9 154.9,227.1 155.1,227.2 155.3,227.4 155.5,227.5 155.7,227.5 
					155.8,227.5 156,227.4 				"/>
			</g>
			<g id="LINE-242">
				<line class="st8" x1="152.1" y1="222.4" x2="154.6" y2="226.6"/>
			</g>
			<g id="LINE-243">
				<line class="st8" x1="152.1" y1="222.4" x2="132.9" y2="211.4"/>
			</g>
			<g id="LINE-244">
				<line class="st8" x1="130.5" y1="212.8" x2="132.9" y2="211.4"/>
			</g>
			<g id="LWPOLYLINE-9">
				<polyline class="st8" points="129.1,211.9 129.3,212.2 129.4,212.4 129.6,212.5 129.8,212.7 130,212.8 130.2,212.8 130.4,212.8 
					130.5,212.8 				"/>
			</g>
			<g id="LINE-245">
				<line class="st8" x1="126.6" y1="207.7" x2="129.1" y2="211.9"/>
			</g>
			<g id="LINE-246">
				<line class="st8" x1="126.6" y1="207.7" x2="107.5" y2="196.7"/>
			</g>
			<g id="LINE-247">
				<line class="st8" x1="105.1" y1="198.1" x2="107.5" y2="196.7"/>
			</g>
			<g id="LWPOLYLINE-10">
				<polyline class="st8" points="103.7,197.2 103.8,197.5 104,197.7 104.2,197.8 104.4,198 104.6,198.1 104.7,198.1 104.9,198.1 
					105.1,198.1 				"/>
			</g>
			<g id="LINE-248">
				<line class="st8" x1="101.1" y1="193" x2="103.7" y2="197.2"/>
			</g>
			<g id="LINE-249">
				<line class="st8" x1="101.1" y1="193" x2="82" y2="182"/>
			</g>
			<g id="LINE-250">
				<line class="st8" x1="79.6" y1="183.4" x2="82" y2="182"/>
			</g>
			<g id="LWPOLYLINE-11">
				<polyline class="st8" points="78.2,182.5 78.4,182.8 78.5,183 78.7,183.2 78.9,183.3 79.1,183.4 79.3,183.4 79.5,183.4 
					79.6,183.4 				"/>
			</g>
			<g id="LINE-251">
				<line class="st8" x1="75.7" y1="178.3" x2="78.2" y2="182.5"/>
			</g>
			<g id="LINE-252">
				<line class="st8" x1="75.7" y1="178.3" x2="56.6" y2="167.3"/>
			</g>
			<g id="LINE-253">
				<line class="st8" x1="54.2" y1="168.7" x2="56.6" y2="167.3"/>
			</g>
			<g id="LWPOLYLINE-12">
				<polyline class="st8" points="52.7,167.8 52.9,168.1 53.1,168.3 53.3,168.5 53.5,168.6 53.7,168.7 53.8,168.7 54,168.7 
					54.2,168.7 				"/>
			</g>
			<g id="LINE-254">
				<line class="st8" x1="50.2" y1="163.6" x2="52.7" y2="167.8"/>
			</g>
			<g id="LINE-255">
				<line class="st8" x1="50.2" y1="163.6" x2="31.1" y2="152.6"/>
			</g>
			<g id="LINE-256">
				<line class="st8" x1="28.7" y1="154" x2="31.1" y2="152.6"/>
			</g>
			<g id="LWPOLYLINE-13">
				<polyline class="st8" points="27.3,153.2 27.4,153.4 27.6,153.6 27.8,153.8 28,153.9 28.2,154 28.4,154 28.6,154 28.7,154 				
					"/>
			</g>
			<g id="LINE-257">
				<line class="st8" x1="24.8" y1="148.9" x2="27.3" y2="153.2"/>
			</g>
			<g id="LINE-258">
				<line class="st8" x1="24.8" y1="148.9" x2="15.2" y2="143.4"/>
			</g>
			<g id="ELLIPSE-53">
				<path class="st8" d="M15.2,143.4c-5.8-3.3-10.4-0.7-10.3,6s4.9,14.7,10.7,18.1"/>
			</g>
			<g id="LINE-259">
				<line class="st8" x1="15.6" y1="167.4" x2="25.4" y2="173.1"/>
			</g>
			<g id="LINE-260">
				<line class="st8" x1="27.6" y1="171.8" x2="25.4" y2="173.1"/>
			</g>
			<g id="LWPOLYLINE-14">
				<polyline class="st8" points="29,172.6 28.8,172.4 28.7,172.2 28.5,172 28.3,171.9 28.1,171.8 27.9,171.7 27.7,171.7 
					27.6,171.8 				"/>
			</g>
			<g id="LINE-261">
				<line class="st8" x1="31.3" y1="176.5" x2="29" y2="172.6"/>
			</g>
			<g id="LINE-262">
				<line class="st8" x1="31.3" y1="176.5" x2="50.8" y2="187.8"/>
			</g>
			<g id="LINE-263">
				<line class="st8" x1="53" y1="186.5" x2="50.8" y2="187.8"/>
			</g>
			<g id="LWPOLYLINE-15">
				<polyline class="st8" points="54.4,187.3 54.3,187.1 54.1,186.9 53.9,186.7 53.7,186.6 53.5,186.5 53.3,186.4 53.2,186.4 
					53,186.5 				"/>
			</g>
			<g id="LINE-264">
				<line class="st8" x1="56.7" y1="191.2" x2="54.4" y2="187.3"/>
			</g>
			<g id="LINE-265">
				<line class="st8" x1="56.7" y1="191.2" x2="76.3" y2="202.5"/>
			</g>
			<g id="LINE-266">
				<line class="st8" x1="78.5" y1="201.2" x2="76.3" y2="202.5"/>
			</g>
			<g id="LWPOLYLINE-16">
				<polyline class="st8" points="79.9,202 79.7,201.8 79.6,201.6 79.4,201.4 79.2,201.3 79,201.2 78.8,201.1 78.6,201.1 
					78.5,201.2 				"/>
			</g>
			<g id="LINE-267">
				<line class="st8" x1="82.2" y1="205.9" x2="79.9" y2="202"/>
			</g>
			<g id="LINE-268">
				<line class="st8" x1="82.2" y1="205.9" x2="101.7" y2="217.1"/>
			</g>
			<g id="LINE-269">
				<line class="st8" x1="103.9" y1="215.9" x2="101.7" y2="217.1"/>
			</g>
			<g id="LWPOLYLINE-17">
				<polyline class="st8" points="105.4,216.7 105.2,216.5 105,216.3 104.8,216.1 104.6,215.9 104.4,215.9 104.3,215.8 104.1,215.8 
					103.9,215.9 				"/>
			</g>
			<g id="LINE-270">
				<line class="st8" x1="107.6" y1="220.6" x2="105.4" y2="216.7"/>
			</g>
			<g id="LINE-271">
				<line class="st8" x1="107.6" y1="220.6" x2="127.2" y2="231.8"/>
			</g>
			<g id="LINE-272">
				<line class="st8" x1="129.4" y1="230.6" x2="127.2" y2="231.8"/>
			</g>
			<g id="LWPOLYLINE-18">
				<polyline class="st8" points="130.8,231.4 130.7,231.2 130.5,231 130.3,230.8 130.1,230.6 129.9,230.6 129.7,230.5 129.5,230.5 
					129.4,230.6 				"/>
			</g>
			<g id="LINE-273">
				<line class="st8" x1="133.1" y1="235.3" x2="130.8" y2="231.4"/>
			</g>
			<g id="LINE-274">
				<line class="st8" x1="133.1" y1="235.3" x2="152.6" y2="246.5"/>
			</g>
			<g id="LINE-275">
				<line class="st8" x1="154.8" y1="245.3" x2="152.6" y2="246.5"/>
			</g>
			<g id="LWPOLYLINE-19">
				<polyline class="st8" points="156.3,246.1 156.1,245.9 155.9,245.6 155.7,245.5 155.6,245.3 155.4,245.2 155.2,245.2 155,245.2 
					154.8,245.3 				"/>
			</g>
			<g id="LINE-276">
				<line class="st8" x1="158.5" y1="249.9" x2="156.3" y2="246.1"/>
			</g>
			<g id="LINE-277">
				<line class="st8" x1="158.5" y1="249.9" x2="178.1" y2="261.2"/>
			</g>
			<g id="LINE-278">
				<line class="st8" x1="180.3" y1="260" x2="178.1" y2="261.2"/>
			</g>
			<g id="LINE-279">
				<line class="st8" x1="346.4" y1="172.7" x2="218.5" y2="246.5"/>
			</g>
			<g id="ARC-71">
				<path class="st8" d="M197.7,267.9c1.5,1,3.3,1.5,5.2,1.4"/>
			</g>
			<g id="LINE-280">
				<line class="st8" x1="188.8" y1="262.8" x2="197.7" y2="267.9"/>
			</g>
			<g id="LINE-281">
				<line class="st8" x1="188.8" y1="262.8" x2="191.5" y2="261.2"/>
			</g>
			<g id="ARC-72">
				<path class="st8" d="M202.2,263.7c0.8-0.5,1.4-1.2,1.6-2.1"/>
			</g>
			<g id="LWPOLYLINE-20">
				<polyline class="st8" points="195.5,247.7 195.5,247.7 194,247.8 				"/>
			</g>
			<g id="LINE-282">
				<line class="st8" x1="194" y1="247.8" x2="193" y2="246"/>
			</g>
			<g id="LWPOLYLINE-21">
				<polyline class="st8" points="199.4,259.8 199.1,261.2 198.5,262.3 197.5,262.8 196.2,262.7 194.8,262 193.5,260.8 192.3,259.3 
					191.5,257.5 191,255.8 191,254.2 191.5,252.9 192.3,252.2 193.5,251.9 194.8,252.3 196.2,253.3 197.5,254.6 198.5,256.3 
					199.1,258.1 199.4,259.8 				"/>
			</g>
			<g id="LWPOLYLINE-22">
				<polyline class="st8" points="173.9,245.1 173.7,246.6 173,247.6 172,248.1 170.7,248 169.4,247.3 168,246.2 166.9,244.6 
					166,242.9 165.6,241.1 165.6,239.5 166,238.2 166.9,237.5 168,237.3 169.4,237.6 170.7,238.6 172,239.9 173,241.6 173.7,243.4 
					173.9,245.1 				"/>
			</g>
			<g id="LWPOLYLINE-23">
				<polyline class="st8" points="21.2,156.9 21,158.4 20.3,159.4 19.3,159.9 18,159.8 16.6,159.1 15.3,158 14.1,156.4 13.3,154.7 
					12.8,152.9 12.8,151.3 13.3,150.1 14.1,149.3 15.3,149.1 16.6,149.5 18,150.4 19.3,151.8 20.3,153.4 21,155.2 21.2,156.9 				
					"/>
			</g>
			<g id="LWPOLYLINE-24">
				<polyline class="st8" points="46.6,171.6 46.4,173.1 45.7,174.1 44.7,174.6 43.5,174.5 42.1,173.8 40.7,172.7 39.6,171.1 
					38.7,169.4 38.3,167.6 38.3,166 38.7,164.8 39.6,164 40.7,163.8 42.1,164.2 43.5,165.1 44.7,166.5 45.7,168.1 46.4,169.9 
					46.6,171.6 				"/>
			</g>
			<g id="LWPOLYLINE-25">
				<polyline class="st8" points="72.1,186.3 71.9,187.8 71.2,188.8 70.2,189.3 68.9,189.2 67.5,188.5 66.2,187.4 65,185.8 
					64.2,184.1 63.7,182.3 63.7,180.7 64.2,179.4 65,178.7 66.2,178.5 67.5,178.9 68.9,179.8 70.2,181.2 71.2,182.8 71.9,184.6 
					72.1,186.3 				"/>
			</g>
			<g id="LWPOLYLINE-26">
				<polyline class="st8" points="97.5,201 97.3,202.5 96.7,203.5 95.6,204 94.4,203.9 93,203.2 91.6,202.1 90.5,200.5 89.6,198.8 
					89.2,197 89.2,195.4 89.6,194.1 90.5,193.4 91.6,193.2 93,193.5 94.4,194.5 95.6,195.9 96.7,197.5 97.3,199.3 97.5,201 				"/>
			</g>
			<g id="LWPOLYLINE-27">
				<polyline class="st8" points="123,215.7 122.8,217.2 122.1,218.2 121.1,218.7 119.8,218.6 118.4,217.9 117.1,216.8 115.9,215.2 
					115.1,213.5 114.6,211.7 114.6,210.1 115.1,208.8 115.9,208.1 117.1,207.9 118.4,208.2 119.8,209.2 121.1,210.5 122.1,212.2 
					122.8,214 123,215.7 				"/>
			</g>
			<g id="LWPOLYLINE-28">
				<polyline class="st8" points="148.5,230.4 148.2,231.9 147.6,232.9 146.6,233.4 145.3,233.3 143.9,232.6 142.6,231.5 
					141.4,229.9 140.5,228.2 140.1,226.4 140.1,224.8 140.5,223.5 141.4,222.8 142.6,222.6 143.9,222.9 145.3,223.9 146.6,225.2 
					147.6,226.9 148.2,228.7 148.5,230.4 				"/>
			</g>
			<g id="LINE-283">
				<line class="st8" x1="178.8" y1="260" x2="179.4" y2="260.4"/>
			</g>
			<g id="LINE-284">
				<line class="st8" x1="173.4" y1="250.7" x2="178.8" y2="260"/>
			</g>
			<g id="ARC-73">
				<path class="st8" d="M166,246.5c1.4,2.7,4.3,4.4,7.4,4.3"/>
			</g>
			<g id="LINE-285">
				<line class="st8" x1="160.7" y1="249.5" x2="166" y2="246.5"/>
			</g>
			<g id="LINE-286">
				<line class="st8" x1="160" y1="249.1" x2="160.7" y2="249.5"/>
			</g>
			<g id="LINE-287">
				<line class="st8" x1="160" y1="249.1" x2="158.9" y2="247.3"/>
			</g>
			<g id="LINE-288">
				<line class="st8" x1="164.6" y1="244" x2="158.9" y2="247.3"/>
			</g>
			<g id="ARC-74">
				<path class="st8" d="M163.5,240.2c0.2,1.3,0.6,2.6,1.1,3.8"/>
			</g>
			<g id="LINE-289">
				<line class="st8" x1="150.5" y1="232.7" x2="163.5" y2="240.2"/>
			</g>
			<g id="ARC-75">
				<path class="st8" d="M149.4,235.2c0.6-0.7,1-1.6,1.1-2.5"/>
			</g>
			<g id="LINE-290">
				<line class="st8" x1="155.1" y1="245.1" x2="149.4" y2="235.2"/>
			</g>
			<g id="LINE-291">
				<line class="st8" x1="155.1" y1="245.1" x2="154" y2="245.7"/>
			</g>
			<g id="LINE-292">
				<line class="st8" x1="153.3" y1="245.3" x2="154" y2="245.7"/>
			</g>
			<g id="LINE-293">
				<line class="st8" x1="148" y1="236" x2="153.3" y2="245.3"/>
			</g>
			<g id="ARC-76">
				<path class="st8" d="M140.5,231.8c1.4,2.7,4.3,4.4,7.4,4.3"/>
			</g>
			<g id="LINE-294">
				<line class="st8" x1="135.2" y1="234.8" x2="140.5" y2="231.8"/>
			</g>
			<g id="LINE-295">
				<line class="st8" x1="134.5" y1="234.4" x2="135.2" y2="234.8"/>
			</g>
			<g id="LINE-296">
				<line class="st8" x1="134.5" y1="234.4" x2="133.4" y2="232.6"/>
			</g>
			<g id="LINE-297">
				<line class="st8" x1="139.1" y1="229.3" x2="133.4" y2="232.6"/>
			</g>
			<g id="ARC-77">
				<path class="st8" d="M138,225.5c0.2,1.3,0.6,2.6,1.1,3.8"/>
			</g>
			<g id="LINE-298">
				<line class="st8" x1="125" y1="218" x2="138" y2="225.5"/>
			</g>
			<g id="ARC-78">
				<path class="st8" d="M123.9,220.5c0.6-0.7,1-1.6,1.1-2.5"/>
			</g>
			<g id="LINE-299">
				<line class="st8" x1="129.6" y1="230.4" x2="123.9" y2="220.5"/>
			</g>
			<g id="LINE-300">
				<line class="st8" x1="129.6" y1="230.4" x2="128.5" y2="231"/>
			</g>
			<g id="LINE-301">
				<line class="st8" x1="127.8" y1="230.6" x2="128.5" y2="231"/>
			</g>
			<g id="LINE-302">
				<line class="st8" x1="122.5" y1="221.3" x2="127.8" y2="230.6"/>
			</g>
			<g id="ARC-79">
				<path class="st8" d="M115.1,217.1c1.4,2.7,4.3,4.4,7.4,4.3"/>
			</g>
			<g id="LINE-303">
				<line class="st8" x1="109.7" y1="220.1" x2="115.1" y2="217.1"/>
			</g>
			<g id="LINE-304">
				<line class="st8" x1="109.1" y1="219.8" x2="109.7" y2="220.1"/>
			</g>
			<g id="LINE-305">
				<line class="st8" x1="109.1" y1="219.8" x2="108" y2="217.9"/>
			</g>
			<g id="LINE-306">
				<line class="st8" x1="113.7" y1="214.6" x2="108" y2="217.9"/>
			</g>
			<g id="ARC-80">
				<path class="st8" d="M112.6,210.8c0.2,1.3,0.6,2.6,1.1,3.8"/>
			</g>
			<g id="LINE-307">
				<line class="st8" x1="99.6" y1="203.4" x2="112.6" y2="210.8"/>
			</g>
			<g id="ARC-81">
				<path class="st8" d="M98.5,205.8c0.6-0.7,1-1.6,1.1-2.5"/>
			</g>
			<g id="LINE-308">
				<line class="st8" x1="104.2" y1="215.7" x2="98.5" y2="205.8"/>
			</g>
			<g id="LINE-309">
				<line class="st8" x1="104.2" y1="215.7" x2="103.1" y2="216.3"/>
			</g>
			<g id="LINE-310">
				<line class="st8" x1="102.4" y1="215.9" x2="103.1" y2="216.3"/>
			</g>
			<g id="LINE-311">
				<line class="st8" x1="97" y1="206.6" x2="102.4" y2="215.9"/>
			</g>
			<g id="ARC-82">
				<path class="st8" d="M89.6,202.4c1.4,2.7,4.3,4.4,7.4,4.3"/>
			</g>
			<g id="LINE-312">
				<line class="st8" x1="84.3" y1="205.5" x2="89.6" y2="202.4"/>
			</g>
			<g id="LINE-313">
				<line class="st8" x1="83.6" y1="205.1" x2="84.3" y2="205.5"/>
			</g>
			<g id="LINE-314">
				<line class="st8" x1="83.6" y1="205.1" x2="82.5" y2="203.2"/>
			</g>
			<g id="LINE-315">
				<line class="st8" x1="88.2" y1="199.9" x2="82.5" y2="203.2"/>
			</g>
			<g id="ARC-83">
				<path class="st8" d="M87.1,196.1c0.2,1.3,0.6,2.6,1.1,3.8"/>
			</g>
			<g id="LINE-316">
				<line class="st8" x1="74.1" y1="188.7" x2="87.1" y2="196.1"/>
			</g>
			<g id="ARC-84">
				<path class="st8" d="M73,191.1c0.6-0.7,1-1.6,1.1-2.5"/>
			</g>
			<g id="LINE-317">
				<line class="st8" x1="78.7" y1="201" x2="73" y2="191.1"/>
			</g>
			<g id="LINE-318">
				<line class="st8" x1="78.7" y1="201" x2="77.6" y2="201.6"/>
			</g>
			<g id="LINE-319">
				<line class="st8" x1="76.9" y1="201.2" x2="77.6" y2="201.6"/>
			</g>
			<g id="LINE-320">
				<line class="st8" x1="71.6" y1="191.9" x2="76.9" y2="201.2"/>
			</g>
			<g id="ARC-85">
				<path class="st8" d="M64.2,187.7c1.4,2.7,4.3,4.4,7.4,4.3"/>
			</g>
			<g id="LINE-321">
				<line class="st8" x1="58.8" y1="190.8" x2="64.2" y2="187.7"/>
			</g>
			<g id="LINE-322">
				<line class="st8" x1="58.1" y1="190.4" x2="58.8" y2="190.8"/>
			</g>
			<g id="LINE-323">
				<line class="st8" x1="58.1" y1="190.4" x2="57.1" y2="188.5"/>
			</g>
			<g id="LINE-324">
				<line class="st8" x1="62.8" y1="185.2" x2="57.1" y2="188.5"/>
			</g>
			<g id="ARC-86">
				<path class="st8" d="M61.6,181.5c0.2,1.3,0.6,2.6,1.1,3.8"/>
			</g>
			<g id="LINE-325">
				<line class="st8" x1="48.7" y1="174" x2="61.6" y2="181.5"/>
			</g>
			<g id="ARC-87">
				<path class="st8" d="M47.5,176.4c0.6-0.7,1-1.6,1.1-2.5"/>
			</g>
			<g id="LINE-326">
				<line class="st8" x1="53.2" y1="186.3" x2="47.5" y2="176.4"/>
			</g>
			<g id="LINE-327">
				<line class="st8" x1="53.2" y1="186.3" x2="52.2" y2="186.9"/>
			</g>
			<g id="LINE-328">
				<line class="st8" x1="51.5" y1="186.5" x2="52.2" y2="186.9"/>
			</g>
			<g id="LINE-329">
				<line class="st8" x1="46.1" y1="177.3" x2="51.5" y2="186.5"/>
			</g>
			<g id="ARC-88">
				<path class="st8" d="M38.7,173c1.4,2.7,4.3,4.4,7.4,4.3"/>
			</g>
			<g id="LINE-330">
				<line class="st8" x1="33.4" y1="176.1" x2="38.7" y2="173"/>
			</g>
			<g id="LINE-331">
				<line class="st8" x1="32.7" y1="175.7" x2="33.4" y2="176.1"/>
			</g>
			<g id="LINE-332">
				<line class="st8" x1="32.7" y1="175.7" x2="31.6" y2="173.8"/>
			</g>
			<g id="LINE-333">
				<line class="st8" x1="37.3" y1="170.5" x2="31.6" y2="173.8"/>
			</g>
			<g id="ARC-89">
				<path class="st8" d="M36.2,166.8c0.2,1.3,0.6,2.6,1.1,3.8"/>
			</g>
			<g id="LINE-334">
				<line class="st8" x1="23.2" y1="159.3" x2="36.2" y2="166.8"/>
			</g>
			<g id="ARC-90">
				<path class="st8" d="M22.1,161.7c0.6-0.7,1-1.6,1.1-2.5"/>
			</g>
			<g id="LINE-335">
				<line class="st8" x1="27.8" y1="171.6" x2="22.1" y2="161.7"/>
			</g>
			<g id="LINE-336">
				<line class="st8" x1="27.8" y1="171.6" x2="26.7" y2="172.2"/>
			</g>
			<g id="LINE-337">
				<line class="st8" x1="26" y1="171.8" x2="26.7" y2="172.2"/>
			</g>
			<g id="LINE-338">
				<line class="st8" x1="20.7" y1="162.6" x2="26" y2="171.8"/>
			</g>
			<g id="LWPOLYLINE-29">
				<polyline class="st8" points="20.7,162.6 19.2,162.6 17.7,162.2 16,161.2 14.5,159.8 13.1,158 11.9,156 11.1,153.9 10.7,151.8 
					10.7,149.9 11.1,148.4 11.9,147.2 13.1,146.5 14.5,146.4 16,146.7 17.7,147.6 19.2,149 20.7,150.7 				"/>
			</g>
			<g id="LINE-339">
				<line class="st8" x1="24.3" y1="148.6" x2="20.7" y2="150.7"/>
			</g>
			<g id="LINE-340">
				<line class="st8" x1="22.1" y1="153.2" x2="26" y2="150.9"/>
			</g>
			<g id="ARC-91">
				<path class="st8" d="M23.2,156.9c-0.2-1.3-0.6-2.6-1.1-3.8"/>
			</g>
			<g id="LINE-341">
				<line class="st8" x1="36.2" y1="164.4" x2="23.2" y2="156.9"/>
			</g>
			<g id="ARC-92">
				<path class="st8" d="M37.3,162c-0.6,0.7-1,1.6-1.1,2.5"/>
			</g>
			<g id="LINE-342">
				<line class="st8" x1="32.3" y1="153.2" x2="37.3" y2="162"/>
			</g>
			<g id="LINE-343">
				<line class="st8" x1="38.7" y1="161.2" x2="35.1" y2="154.9"/>
			</g>
			<g id="ARC-93">
				<path class="st8" d="M46.1,165.4c-1.4-2.7-4.3-4.4-7.4-4.3"/>
			</g>
			<g id="LINE-344">
				<line class="st8" x1="49.8" y1="163.3" x2="46.1" y2="165.4"/>
			</g>
			<g id="LINE-345">
				<line class="st8" x1="47.5" y1="167.9" x2="51.4" y2="165.6"/>
			</g>
			<g id="ARC-94">
				<path class="st8" d="M48.7,171.6c-0.2-1.3-0.6-2.6-1.1-3.8"/>
			</g>
			<g id="LINE-346">
				<line class="st8" x1="61.6" y1="179.1" x2="48.7" y2="171.6"/>
			</g>
			<g id="ARC-95">
				<path class="st8" d="M62.8,176.7c-0.6,0.7-1,1.6-1.1,2.5"/>
			</g>
			<g id="LINE-347">
				<line class="st8" x1="57.7" y1="167.9" x2="62.8" y2="176.7"/>
			</g>
			<g id="LINE-348">
				<line class="st8" x1="64.2" y1="175.8" x2="60.6" y2="169.6"/>
			</g>
			<g id="ARC-96">
				<path class="st8" d="M71.6,180.1c-1.4-2.7-4.3-4.4-7.4-4.3"/>
			</g>
			<g id="LINE-349">
				<line class="st8" x1="75.2" y1="178" x2="71.6" y2="180.1"/>
			</g>
			<g id="LINE-350">
				<line class="st8" x1="73" y1="182.6" x2="76.9" y2="180.3"/>
			</g>
			<g id="ARC-97">
				<path class="st8" d="M74.1,186.3c-0.2-1.3-0.6-2.6-1.1-3.8"/>
			</g>
			<g id="LINE-351">
				<line class="st8" x1="87.1" y1="193.8" x2="74.1" y2="186.3"/>
			</g>
			<g id="ARC-98">
				<path class="st8" d="M88.2,191.4c-0.6,0.7-1,1.6-1.1,2.5"/>
			</g>
			<g id="LINE-352">
				<line class="st8" x1="83.2" y1="182.6" x2="88.2" y2="191.4"/>
			</g>
			<g id="LINE-353">
				<line class="st8" x1="89.6" y1="190.5" x2="86" y2="184.3"/>
			</g>
			<g id="ARC-99">
				<path class="st8" d="M97,194.8c-1.4-2.7-4.3-4.4-7.4-4.3"/>
			</g>
			<g id="LINE-354">
				<line class="st8" x1="100.7" y1="192.7" x2="97" y2="194.8"/>
			</g>
			<g id="LINE-355">
				<line class="st8" x1="98.5" y1="197.3" x2="102.3" y2="195"/>
			</g>
			<g id="ARC-100">
				<path class="st8" d="M99.6,201c-0.2-1.3-0.6-2.6-1.1-3.8"/>
			</g>
			<g id="LINE-356">
				<line class="st8" x1="112.6" y1="208.5" x2="99.6" y2="201"/>
			</g>
			<g id="ARC-101">
				<path class="st8" d="M113.7,206.1c-0.6,0.7-1,1.6-1.1,2.5"/>
			</g>
			<g id="LINE-357">
				<line class="st8" x1="108.6" y1="197.3" x2="113.7" y2="206.1"/>
			</g>
			<g id="LINE-358">
				<line class="st8" x1="115.1" y1="205.2" x2="111.5" y2="198.9"/>
			</g>
			<g id="ARC-102">
				<path class="st8" d="M122.5,209.5c-1.4-2.7-4.3-4.4-7.4-4.3"/>
			</g>
			<g id="LINE-359">
				<line class="st8" x1="126.1" y1="207.4" x2="122.5" y2="209.5"/>
			</g>
			<g id="LINE-360">
				<line class="st8" x1="123.9" y1="212" x2="127.8" y2="209.7"/>
			</g>
			<g id="ARC-103">
				<path class="st8" d="M125,215.7c-0.2-1.3-0.6-2.6-1.1-3.8"/>
			</g>
			<g id="LINE-361">
				<line class="st8" x1="138" y1="223.2" x2="125" y2="215.7"/>
			</g>
			<g id="ARC-104">
				<path class="st8" d="M139.1,220.8c-0.6,0.7-1,1.6-1.1,2.5"/>
			</g>
			<g id="LINE-362">
				<line class="st8" x1="134.1" y1="212" x2="139.1" y2="220.8"/>
			</g>
			<g id="LINE-363">
				<line class="st8" x1="140.5" y1="219.9" x2="136.9" y2="213.6"/>
			</g>
			<g id="ARC-105">
				<path class="st8" d="M148,224.2c-1.4-2.7-4.3-4.4-7.4-4.3"/>
			</g>
			<g id="LINE-364">
				<line class="st8" x1="151.6" y1="222.1" x2="148" y2="224.2"/>
			</g>
			<g id="LINE-365">
				<line class="st8" x1="149.4" y1="226.7" x2="153.3" y2="224.4"/>
			</g>
			<g id="ARC-106">
				<path class="st8" d="M150.5,230.4c-0.2-1.3-0.6-2.6-1.1-3.8"/>
			</g>
			<g id="LINE-366">
				<line class="st8" x1="163.5" y1="237.9" x2="150.5" y2="230.4"/>
			</g>
			<g id="ARC-107">
				<path class="st8" d="M164.6,235.4c-0.6,0.7-1,1.6-1.1,2.5"/>
			</g>
			<g id="LINE-367">
				<line class="st8" x1="159.5" y1="226.7" x2="164.6" y2="235.4"/>
			</g>
			<g id="LINE-368">
				<line class="st8" x1="166" y1="234.6" x2="162.4" y2="228.3"/>
			</g>
			<g id="ARC-108">
				<path class="st8" d="M173.4,238.9c-1.4-2.7-4.3-4.4-7.4-4.3"/>
			</g>
			<g id="LINE-369">
				<line class="st8" x1="177" y1="236.8" x2="173.4" y2="238.9"/>
			</g>
			<g id="LINE-370">
				<line class="st8" x1="174.8" y1="241.4" x2="178.7" y2="239.1"/>
			</g>
			<g id="ARC-109">
				<path class="st8" d="M175.9,245.1c-0.2-1.3-0.6-2.6-1.1-3.8"/>
			</g>
			<g id="LINE-371">
				<line class="st8" x1="188.9" y1="252.6" x2="175.9" y2="245.1"/>
			</g>
			<g id="ARC-110">
				<path class="st8" d="M190,250.1c-0.6,0.7-1,1.6-1.1,2.5"/>
			</g>
			<g id="LINE-372">
				<line class="st8" x1="185" y1="241.4" x2="190" y2="250.1"/>
			</g>
			<g id="LINE-373">
				<line class="st8" x1="191.5" y1="249.3" x2="187.8" y2="243"/>
			</g>
			<g id="LWPOLYLINE-30">
				<polyline class="st8" points="191.5,249.3 192.9,249.3 194.5,249.7 196.1,250.7 197.7,252.1 199.1,253.9 200.2,255.9 201,258 
					201.4,260 201.4,261.9 201,263.5 200.2,264.7 199.1,265.4 197.7,265.5 196.1,265.1 194.5,264.2 192.9,262.9 191.5,261.1 				"/>
			</g>
			<g id="LINE-374">
				<line class="st8" x1="186.1" y1="264.2" x2="191.5" y2="261.1"/>
			</g>
			<g id="LINE-375">
				<line class="st8" x1="185.4" y1="263.8" x2="186.1" y2="264.2"/>
			</g>
			<g id="LINE-376">
				<line class="st8" x1="185.4" y1="263.8" x2="184.3" y2="262"/>
			</g>
			<g id="LINE-377">
				<line class="st8" x1="190" y1="258.7" x2="184.3" y2="262"/>
			</g>
			<g id="ARC-111">
				<path class="st8" d="M188.9,254.9c0.2,1.3,0.6,2.6,1.1,3.8"/>
			</g>
			<g id="LINE-378">
				<line class="st8" x1="175.9" y1="247.4" x2="188.9" y2="254.9"/>
			</g>
			<g id="ARC-112">
				<path class="st8" d="M174.8,249.9c0.6-0.7,1-1.6,1.1-2.5"/>
			</g>
			<g id="LINE-379">
				<line class="st8" x1="180.5" y1="259.8" x2="174.8" y2="249.9"/>
			</g>
			<g id="LINE-380">
				<line class="st8" x1="180.5" y1="259.8" x2="179.4" y2="260.4"/>
			</g>
			<g id="LINE-381">
				<line class="st8" x1="183.9" y1="240.8" x2="181.4" y2="242.1"/>
			</g>
			<g id="LINE-382">
				<line class="st8" x1="190" y1="250.2" x2="178.6" y2="243.6"/>
			</g>
			<g id="ARC-113">
				<path class="st8" d="M178.6,243.6c-0.2-1.3-0.6-2.5-1.1-3.7"/>
			</g>
			<g id="LINE-383">
				<line class="st8" x1="177.5" y1="239.9" x2="178.7" y2="239.2"/>
			</g>
			<g id="LINE-384">
				<line class="st8" x1="177.5" y1="239.9" x2="174.8" y2="241.4"/>
			</g>
			<g id="LINE-385">
				<line class="st8" x1="177" y1="236.8" x2="176" y2="237.3"/>
			</g>
			<g id="LINE-386">
				<line class="st8" x1="173.4" y1="238.9" x2="176" y2="237.3"/>
			</g>
			<g id="ARC-114">
				<path class="st8" d="M176,237.3c-0.6-0.9-1.3-1.7-2.2-2.4"/>
			</g>
			<g id="ARC-115">
				<path class="st8" d="M170.7,233.2c-0.7-0.2-1.4-0.2-2.2-0.1"/>
			</g>
			<g id="LINE-387">
				<line class="st8" x1="168.6" y1="233.1" x2="167.6" y2="231.4"/>
			</g>
			<g id="LINE-388">
				<line class="st8" x1="183.1" y1="258.2" x2="177.5" y2="248.4"/>
			</g>
			<g id="LINE-389">
				<line class="st8" x1="177.5" y1="248.4" x2="177.5" y2="248.4"/>
			</g>
			<g id="LINE-390">
				<line class="st8" x1="190" y1="258.6" x2="186.9" y2="260.4"/>
			</g>
			<g id="LINE-391">
				<line class="st8" x1="186.9" y1="260.4" x2="185.8" y2="258.4"/>
			</g>
			<g id="ELLIPSE-54">
				<path class="st8" d="M185.8,258.4c-0.4-0.7-1.1-1.1-1.5-0.9"/>
			</g>
			<g id="LINE-392">
				<line class="st8" x1="184.3" y1="257.5" x2="183.1" y2="258.2"/>
			</g>
			<g id="LINE-393">
				<line class="st8" x1="186.1" y1="264.2" x2="188.8" y2="262.8"/>
			</g>
			<g id="LINE-394">
				<line class="st8" x1="184.3" y1="262" x2="186.9" y2="260.4"/>
			</g>
			<g id="LINE-395">
				<line class="st8" x1="183.1" y1="258.2" x2="180.5" y2="259.8"/>
			</g>
			<g id="LINE-396">
				<line class="st8" x1="184.3" y1="257.5" x2="180.3" y2="260"/>
			</g>
			<g id="LINE-397">
				<line class="st8" x1="179.4" y1="260.4" x2="178.1" y2="261.2"/>
			</g>
			<g id="LINE-398">
				<line class="st8" x1="179.3" y1="263.8" x2="180.8" y2="263"/>
			</g>
			<g id="LINE-399">
				<line class="st8" x1="158.4" y1="226.1" x2="156" y2="227.4"/>
			</g>
			<g id="LINE-400">
				<line class="st8" x1="164.5" y1="235.5" x2="153.1" y2="228.9"/>
			</g>
			<g id="ARC-116">
				<path class="st8" d="M153.1,228.9c-0.2-1.3-0.6-2.5-1.1-3.7"/>
			</g>
			<g id="LINE-401">
				<line class="st8" x1="152" y1="225.2" x2="153.3" y2="224.5"/>
			</g>
			<g id="LINE-402">
				<line class="st8" x1="163.3" y1="248.1" x2="176.1" y2="255.4"/>
			</g>
			<g id="LINE-403">
				<line class="st8" x1="163.3" y1="248.1" x2="166" y2="246.5"/>
			</g>
			<g id="LINE-404">
				<line class="st8" x1="160.7" y1="249.5" x2="163.3" y2="248.1"/>
			</g>
			<g id="LINE-405">
				<line class="st8" x1="152" y1="225.2" x2="149.4" y2="226.7"/>
			</g>
			<g id="LINE-406">
				<line class="st8" x1="151.5" y1="222.1" x2="150.5" y2="222.6"/>
			</g>
			<g id="LINE-407">
				<line class="st8" x1="148" y1="224.2" x2="150.5" y2="222.6"/>
			</g>
			<g id="ARC-117">
				<path class="st8" d="M150.5,222.6c-0.6-0.9-1.3-1.7-2.2-2.4"/>
			</g>
			<g id="ARC-118">
				<path class="st8" d="M145.3,218.5c-0.7-0.2-1.4-0.2-2.2-0.1"/>
			</g>
			<g id="LINE-408">
				<line class="st8" x1="143.1" y1="218.4" x2="142.1" y2="216.7"/>
			</g>
			<g id="LINE-409">
				<line class="st8" x1="157.6" y1="243.5" x2="152" y2="233.8"/>
			</g>
			<g id="LINE-410">
				<line class="st8" x1="152" y1="233.8" x2="152.1" y2="233.7"/>
			</g>
			<g id="LINE-411">
				<line class="st8" x1="164.6" y1="243.9" x2="161.5" y2="245.7"/>
			</g>
			<g id="LINE-412">
				<line class="st8" x1="161.5" y1="245.7" x2="160.3" y2="243.7"/>
			</g>
			<g id="ELLIPSE-55">
				<path class="st8" d="M160.3,243.7c-0.4-0.7-1.1-1.1-1.5-0.9"/>
			</g>
			<g id="LINE-413">
				<line class="st8" x1="158.8" y1="242.8" x2="157.6" y2="243.5"/>
			</g>
			<g id="LINE-414">
				<line class="st8" x1="158.9" y1="247.3" x2="161.5" y2="245.7"/>
			</g>
			<g id="LINE-415">
				<line class="st8" x1="157.6" y1="243.5" x2="155.1" y2="245.1"/>
			</g>
			<g id="LINE-416">
				<line class="st8" x1="158.8" y1="242.8" x2="154.8" y2="245.3"/>
			</g>
			<g id="LINE-417">
				<line class="st8" x1="154" y1="245.7" x2="152.6" y2="246.5"/>
			</g>
			<g id="LINE-418">
				<line class="st8" x1="153.9" y1="249.1" x2="155.3" y2="248.3"/>
			</g>
			<g id="LINE-419">
				<line class="st8" x1="133" y1="211.4" x2="130.5" y2="212.8"/>
			</g>
			<g id="LINE-420">
				<line class="st8" x1="139.1" y1="220.8" x2="127.6" y2="214.2"/>
			</g>
			<g id="ARC-119">
				<path class="st8" d="M127.6,214.2c-0.2-1.3-0.6-2.5-1.1-3.7"/>
			</g>
			<g id="LINE-421">
				<line class="st8" x1="126.6" y1="210.5" x2="127.8" y2="209.8"/>
			</g>
			<g id="LINE-422">
				<line class="st8" x1="137.9" y1="233.4" x2="150.7" y2="240.8"/>
			</g>
			<g id="LINE-423">
				<line class="st8" x1="137.9" y1="233.4" x2="140.6" y2="231.8"/>
			</g>
			<g id="LINE-424">
				<line class="st8" x1="135.2" y1="234.8" x2="137.9" y2="233.4"/>
			</g>
			<g id="LINE-425">
				<line class="st8" x1="126.6" y1="210.5" x2="123.9" y2="212"/>
			</g>
			<g id="LINE-426">
				<line class="st8" x1="126.1" y1="207.4" x2="125.1" y2="208"/>
			</g>
			<g id="LINE-427">
				<line class="st8" x1="122.5" y1="209.5" x2="125.1" y2="208"/>
			</g>
			<g id="ARC-120">
				<path class="st8" d="M125.1,208c-0.6-0.9-1.3-1.7-2.2-2.4"/>
			</g>
			<g id="ARC-121">
				<path class="st8" d="M119.8,203.8c-0.7-0.2-1.4-0.2-2.2-0.1"/>
			</g>
			<g id="LINE-428">
				<line class="st8" x1="117.7" y1="203.7" x2="116.7" y2="202"/>
			</g>
			<g id="LINE-429">
				<line class="st8" x1="132.2" y1="228.8" x2="126.6" y2="219.1"/>
			</g>
			<g id="LINE-430">
				<line class="st8" x1="126.6" y1="219.1" x2="126.6" y2="219"/>
			</g>
			<g id="LINE-431">
				<line class="st8" x1="139.1" y1="229.2" x2="136" y2="231"/>
			</g>
			<g id="LINE-432">
				<line class="st8" x1="136" y1="231" x2="134.9" y2="229"/>
			</g>
			<g id="ELLIPSE-56">
				<path class="st8" d="M134.9,229c-0.4-0.7-1.1-1.1-1.5-0.9"/>
			</g>
			<g id="LINE-433">
				<line class="st8" x1="133.3" y1="228.1" x2="132.2" y2="228.8"/>
			</g>
			<g id="LINE-434">
				<line class="st8" x1="133.4" y1="232.6" x2="136" y2="231"/>
			</g>
			<g id="LINE-435">
				<line class="st8" x1="117.7" y1="203.7" x2="115.1" y2="205.2"/>
			</g>
			<g id="LINE-436">
				<line class="st8" x1="132.2" y1="228.8" x2="129.6" y2="230.4"/>
			</g>
			<g id="LINE-437">
				<line class="st8" x1="133.3" y1="228.1" x2="129.4" y2="230.6"/>
			</g>
			<g id="LINE-438">
				<line class="st8" x1="128.5" y1="231" x2="127.2" y2="231.8"/>
			</g>
			<g id="LINE-439">
				<line class="st8" x1="128.4" y1="234.4" x2="129.9" y2="233.6"/>
			</g>
			<g id="LINE-440">
				<line class="st8" x1="107.5" y1="196.7" x2="105.1" y2="198.1"/>
			</g>
			<g id="LINE-441">
				<line class="st8" x1="113.6" y1="206.1" x2="102.2" y2="199.5"/>
			</g>
			<g id="ARC-122">
				<path class="st8" d="M102.2,199.5c-0.2-1.3-0.6-2.5-1.1-3.7"/>
			</g>
			<g id="LINE-442">
				<line class="st8" x1="101.1" y1="195.8" x2="102.4" y2="195.1"/>
			</g>
			<g id="LINE-443">
				<line class="st8" x1="112.4" y1="218.7" x2="125.2" y2="226.1"/>
			</g>
			<g id="LINE-444">
				<line class="st8" x1="112.4" y1="218.7" x2="115.1" y2="217.1"/>
			</g>
			<g id="LINE-445">
				<line class="st8" x1="109.7" y1="220.1" x2="112.4" y2="218.7"/>
			</g>
			<g id="LINE-446">
				<line class="st8" x1="101.1" y1="195.8" x2="98.5" y2="197.3"/>
			</g>
			<g id="LINE-447">
				<line class="st8" x1="100.6" y1="192.7" x2="99.6" y2="193.3"/>
			</g>
			<g id="LINE-448">
				<line class="st8" x1="97" y1="194.8" x2="99.6" y2="193.3"/>
			</g>
			<g id="ARC-123">
				<path class="st8" d="M99.6,193.3c-0.6-0.9-1.3-1.7-2.2-2.4"/>
			</g>
			<g id="ARC-124">
				<path class="st8" d="M94.4,189.1c-0.7-0.2-1.4-0.2-2.2-0.1"/>
			</g>
			<g id="LINE-449">
				<line class="st8" x1="92.2" y1="189" x2="91.2" y2="187.3"/>
			</g>
			<g id="LINE-450">
				<line class="st8" x1="106.7" y1="214.1" x2="101.1" y2="204.4"/>
			</g>
			<g id="LINE-451">
				<line class="st8" x1="101.1" y1="204.4" x2="101.2" y2="204.3"/>
			</g>
			<g id="LINE-452">
				<line class="st8" x1="113.6" y1="214.5" x2="110.6" y2="216.3"/>
			</g>
			<g id="LINE-453">
				<line class="st8" x1="110.6" y1="216.3" x2="109.4" y2="214.3"/>
			</g>
			<g id="ELLIPSE-57">
				<path class="st8" d="M109.4,214.3c-0.4-0.7-1.1-1.1-1.5-0.9"/>
			</g>
			<g id="LINE-454">
				<line class="st8" x1="107.9" y1="213.4" x2="106.7" y2="214.1"/>
			</g>
			<g id="LINE-455">
				<line class="st8" x1="108" y1="217.9" x2="110.6" y2="216.3"/>
			</g>
			<g id="LINE-456">
				<line class="st8" x1="106.7" y1="214.1" x2="104.2" y2="215.7"/>
			</g>
			<g id="LINE-457">
				<line class="st8" x1="107.9" y1="213.4" x2="103.9" y2="215.9"/>
			</g>
			<g id="LINE-458">
				<line class="st8" x1="103.1" y1="216.3" x2="101.7" y2="217.1"/>
			</g>
			<g id="LINE-459">
				<line class="st8" x1="103" y1="219.7" x2="104.4" y2="218.9"/>
			</g>
			<g id="LINE-460">
				<line class="st8" x1="82.1" y1="182" x2="79.6" y2="183.4"/>
			</g>
			<g id="LINE-461">
				<line class="st8" x1="88.2" y1="191.4" x2="76.7" y2="184.8"/>
			</g>
			<g id="ARC-125">
				<path class="st8" d="M76.7,184.8c-0.2-1.3-0.6-2.5-1.1-3.7"/>
			</g>
			<g id="LINE-462">
				<line class="st8" x1="75.6" y1="181.1" x2="76.9" y2="180.4"/>
			</g>
			<g id="LINE-463">
				<line class="st8" x1="87" y1="204" x2="99.8" y2="211.4"/>
			</g>
			<g id="LINE-464">
				<line class="st8" x1="87" y1="204" x2="89.7" y2="202.4"/>
			</g>
			<g id="LINE-465">
				<line class="st8" x1="84.3" y1="205.5" x2="87" y2="204"/>
			</g>
			<g id="LINE-466">
				<line class="st8" x1="75.6" y1="181.1" x2="73" y2="182.6"/>
			</g>
			<g id="LINE-467">
				<line class="st8" x1="75.2" y1="178" x2="74.2" y2="178.6"/>
			</g>
			<g id="LINE-468">
				<line class="st8" x1="71.6" y1="180.1" x2="74.2" y2="178.6"/>
			</g>
			<g id="ARC-126">
				<path class="st8" d="M74.2,178.6c-0.6-0.9-1.3-1.7-2.2-2.4"/>
			</g>
			<g id="ARC-127">
				<path class="st8" d="M68.9,174.4c-0.7-0.2-1.4-0.2-2.2-0.1"/>
			</g>
			<g id="LINE-469">
				<line class="st8" x1="66.8" y1="174.3" x2="65.8" y2="172.6"/>
			</g>
			<g id="LINE-470">
				<line class="st8" x1="81.3" y1="199.4" x2="75.6" y2="189.7"/>
			</g>
			<g id="LINE-471">
				<line class="st8" x1="75.6" y1="189.7" x2="75.7" y2="189.6"/>
			</g>
			<g id="LINE-472">
				<line class="st8" x1="88.2" y1="199.9" x2="85.1" y2="201.6"/>
			</g>
			<g id="LINE-473">
				<line class="st8" x1="85.1" y1="201.6" x2="83.9" y2="199.6"/>
			</g>
			<g id="ELLIPSE-58">
				<path class="st8" d="M83.9,199.6c-0.4-0.7-1.1-1.1-1.5-0.9"/>
			</g>
			<g id="LINE-474">
				<line class="st8" x1="82.4" y1="198.7" x2="81.3" y2="199.4"/>
			</g>
			<g id="LINE-475">
				<line class="st8" x1="82.5" y1="203.2" x2="85.1" y2="201.6"/>
			</g>
			<g id="ELLIPSE-59">
				<path class="st8" d="M17,78.8c0,0-4,1.8-5.3,4.3s-0.9,5.8-0.9,6.9s-1.1,43.9-1.1,43.9c0,1.4,0.2,2.7,0.5,4l-4.6,2.9
					c0,0-4.1,2.9-2.2,11.7c1.9,8.9,9,15,9,15s2.6,2.3,13.7,8.3l2.1-0.9l2.2,3.4l21.2,12.2l2-0.9l2.3,3.3L77,205.2l2.1-1l2.3,3.5
					l21.2,12.1l2-1l2.3,3.5l21.2,12.2l2.1-1l2.3,3.5l21.1,12.2l2-1l2.3,3.4l21.3,12.3l1.9-1l2.3,3.4l9.8,5.8c0,0,5,3.4,8.8,1.6
					s15-7.8,18.9-9.9l112.1-65.5l21.7-12.6c2-1.2,3.4-3.5,3.7-6.6l0.1-1.1l0-0.5c0-5.5-2.6-12.1-6.8-17"/>
			</g>
			<g id="ELLIPSE-60">
				<path class="st8" d="M346.4,172.7c3.2-1.9,5.1-4.5,5.1-7.2"/>
			</g>
			<g id="LINE-476">
				<line class="st8" x1="81.3" y1="199.4" x2="78.7" y2="201"/>
			</g>
			<g id="LINE-477">
				<line class="st8" x1="82.4" y1="198.7" x2="78.5" y2="201.2"/>
			</g>
			<g id="LINE-478">
				<line class="st8" x1="77.6" y1="201.6" x2="76.3" y2="202.5"/>
			</g>
			<g id="LINE-479">
				<line class="st8" x1="77.5" y1="205" x2="78.9" y2="204.2"/>
			</g>
			<g id="LINE-480">
				<line class="st8" x1="56.6" y1="167.3" x2="54.2" y2="168.7"/>
			</g>
			<g id="LINE-481">
				<line class="st8" x1="62.7" y1="176.7" x2="51.3" y2="170.1"/>
			</g>
			<g id="ARC-128">
				<path class="st8" d="M51.3,170.1c-0.2-1.3-0.6-2.5-1.1-3.7"/>
			</g>
			<g id="LINE-482">
				<line class="st8" x1="50.2" y1="166.4" x2="51.5" y2="165.7"/>
			</g>
			<g id="LINE-483">
				<line class="st8" x1="61.5" y1="189.3" x2="74.3" y2="196.7"/>
			</g>
			<g id="LINE-484">
				<line class="st8" x1="61.5" y1="189.3" x2="64.2" y2="187.7"/>
			</g>
			<g id="LINE-485">
				<line class="st8" x1="58.8" y1="190.8" x2="61.5" y2="189.3"/>
			</g>
			<g id="LINE-486">
				<line class="st8" x1="50.2" y1="166.4" x2="47.5" y2="167.9"/>
			</g>
			<g id="LINE-487">
				<line class="st8" x1="49.7" y1="163.3" x2="48.7" y2="163.9"/>
			</g>
			<g id="LINE-488">
				<line class="st8" x1="46.1" y1="165.4" x2="48.7" y2="163.9"/>
			</g>
			<g id="ARC-129">
				<path class="st8" d="M48.7,163.9c-0.6-0.9-1.3-1.7-2.2-2.4"/>
			</g>
			<g id="ARC-130">
				<path class="st8" d="M43.5,159.7c-0.7-0.2-1.4-0.2-2.2-0.1"/>
			</g>
			<g id="LINE-489">
				<line class="st8" x1="41.3" y1="159.6" x2="40.3" y2="157.9"/>
			</g>
			<g id="LINE-490">
				<line class="st8" x1="55.8" y1="184.7" x2="50.2" y2="175"/>
			</g>
			<g id="LINE-491">
				<line class="st8" x1="50.2" y1="175" x2="50.3" y2="174.9"/>
			</g>
			<g id="LINE-492">
				<line class="st8" x1="62.7" y1="185.2" x2="59.7" y2="186.9"/>
			</g>
			<g id="LINE-493">
				<line class="st8" x1="59.7" y1="186.9" x2="58.5" y2="184.9"/>
			</g>
			<g id="ELLIPSE-61">
				<path class="st8" d="M58.5,184.9c-0.4-0.7-1.1-1.1-1.5-0.9"/>
			</g>
			<g id="LINE-494">
				<line class="st8" x1="57" y1="184" x2="55.8" y2="184.7"/>
			</g>
			<g id="LINE-495">
				<line class="st8" x1="57.1" y1="188.5" x2="59.7" y2="186.9"/>
			</g>
			<g id="LINE-496">
				<line class="st8" x1="55.8" y1="184.7" x2="53.2" y2="186.3"/>
			</g>
			<g id="LINE-497">
				<line class="st8" x1="57" y1="184" x2="53" y2="186.5"/>
			</g>
			<g id="LINE-498">
				<line class="st8" x1="52.2" y1="186.9" x2="50.8" y2="187.8"/>
			</g>
			<g id="LINE-499">
				<line class="st8" x1="52" y1="190.3" x2="53.5" y2="189.5"/>
			</g>
			<g id="LINE-500">
				<line class="st8" x1="31.1" y1="152.6" x2="28.7" y2="154"/>
			</g>
			<g id="LINE-501">
				<line class="st8" x1="37.3" y1="162" x2="25.8" y2="155.4"/>
			</g>
			<g id="ARC-131">
				<path class="st8" d="M25.8,155.4c-0.2-1.3-0.6-2.5-1.1-3.7"/>
			</g>
			<g id="LINE-502">
				<line class="st8" x1="24.7" y1="151.7" x2="26" y2="151"/>
			</g>
			<g id="LINE-503">
				<line class="st8" x1="36.1" y1="174.6" x2="48.9" y2="182"/>
			</g>
			<g id="LINE-504">
				<line class="st8" x1="36.1" y1="174.6" x2="38.8" y2="173"/>
			</g>
			<g id="LINE-505">
				<line class="st8" x1="33.4" y1="176.1" x2="36.1" y2="174.6"/>
			</g>
			<g id="LINE-506">
				<line class="st8" x1="24.7" y1="151.7" x2="22.1" y2="153.2"/>
			</g>
			<g id="LINE-507">
				<line class="st8" x1="24.2" y1="148.6" x2="23.2" y2="149.2"/>
			</g>
			<g id="LINE-508">
				<line class="st8" x1="20.7" y1="150.7" x2="23.2" y2="149.2"/>
			</g>
			<g id="LINE-509">
				<line class="st8" x1="19.5" y1="165.1" x2="23.4" y2="167.3"/>
			</g>
			<g id="LWPOLYLINE-31">
				<polyline class="st8" points="10.4,142 9.6,143.6 9.2,145.8 9.2,148.3 9.6,151 10.5,153.8 11.8,156.6 13.4,159.2 15.3,161.6 
					17.4,163.5 19.5,165.1 				"/>
			</g>
			<g id="LWPOLYLINE-32">
				<polyline class="st8" points="23.2,149.2 21.8,147.4 21.1,146.8 				"/>
			</g>
			<g id="ARC-132">
				<path class="st8" d="M18,145c-1-0.3-2.1-0.3-3,0.3"/>
			</g>
			<g id="LINE-510">
				<line class="st8" x1="30.3" y1="170" x2="24.7" y2="160.3"/>
			</g>
			<g id="LINE-511">
				<line class="st8" x1="24.7" y1="160.3" x2="24.8" y2="160.2"/>
			</g>
			<g id="LINE-512">
				<line class="st8" x1="37.3" y1="170.5" x2="34.2" y2="172.2"/>
			</g>
			<g id="LINE-513">
				<line class="st8" x1="34.2" y1="172.2" x2="33" y2="170.2"/>
			</g>
			<g id="ELLIPSE-62">
				<path class="st8" d="M33,170.2c-0.4-0.7-1.1-1.1-1.5-0.9"/>
			</g>
			<g id="LINE-514">
				<line class="st8" x1="31.5" y1="169.3" x2="30.3" y2="170"/>
			</g>
			<g id="LINE-515">
				<line class="st8" x1="31.6" y1="173.8" x2="34.2" y2="172.2"/>
			</g>
			<g id="SPLINE-15">
				<path class="st8" d="M10.4,138.5c0.4,0.2,0.9,0.5,1.6,0.9c0.8,0.4,1.8,1,2.9,1.6"/>
			</g>
			<g id="ELLIPSE-63">
				<path class="st8" d="M9.8,136.1c0,0.8,0.2,1.7,0.6,2.4"/>
			</g>
			<g id="LINE-516">
				<line class="st8" x1="30.3" y1="170" x2="27.8" y2="171.6"/>
			</g>
			<g id="LINE-517">
				<line class="st8" x1="31.5" y1="169.3" x2="27.6" y2="171.8"/>
			</g>
			<g id="LINE-518">
				<line class="st8" x1="26.7" y1="172.2" x2="25.4" y2="173.1"/>
			</g>
			<g id="LINE-519">
				<line class="st8" x1="26.6" y1="175.6" x2="28" y2="174.8"/>
			</g>
			<g id="ARC-133">
				<path class="st8" d="M194.4,196.4c7.3,3.8,16.1,3.8,23.4,0"/>
			</g>
			<g id="LINE-520">
				<line class="st8" x1="15.6" y1="93.1" x2="194.4" y2="196.4"/>
			</g>
			<g id="ARC-134">
				<path class="st8" d="M15.6,79.6c-3.9,2.1-5.6,5.6-4.2,9.3c0.7,1.9,2.3,3.5,4.2,4.2"/>
			</g>
			<g id="LINE-521">
				<line class="st8" x1="143.5" y1="5.8" x2="15.6" y2="79.6"/>
			</g>
			<g id="ARC-135">
				<path class="st8" d="M166.9,5.8c-7.3-3.8-16.1-3.8-23.4,0"/>
			</g>
			<g id="LINE-522">
				<line class="st8" x1="345.7" y1="109" x2="166.9" y2="5.8"/>
			</g>
			<g id="ARC-136">
				<path class="st8" d="M345.7,122.5c3.7-1.4,5.6-5.6,4.2-9.3c-0.7-1.9-2.3-3.5-4.2-4.2"/>
			</g>
			<g id="LINE-523">
				<line class="st8" x1="311.7" y1="142.1" x2="345.7" y2="122.5"/>
			</g>
			<g id="LINE-524">
				<line class="st8" x1="311.7" y1="142.1" x2="309.4" y2="140.8"/>
			</g>
			<g id="LINE-525">
				<line class="st8" x1="241.6" y1="162.8" x2="241.2" y2="163.1"/>
			</g>
			<g id="ELLIPSE-64">
				<path class="st8" d="M241.2,163.1c-0.2,0.1-0.3,0.3-0.2,0.5c0,0.1,0.1,0.2,0.2,0.2"/>
			</g>
			<g id="LINE-526">
				<line class="st8" x1="241.2" y1="163.8" x2="254.8" y2="171.7"/>
			</g>
			<g id="ELLIPSE-65">
				<path class="st8" d="M254.8,171.7c0.4,0.2,0.8,0.2,1.2,0"/>
			</g>
			<g id="LINE-527">
				<line class="st8" x1="256" y1="171.7" x2="259.9" y2="169.4"/>
			</g>
			<g id="LINE-528">
				<line class="st8" x1="262.2" y1="170.7" x2="259.9" y2="169.4"/>
			</g>
			<g id="LINE-529">
				<line class="st8" x1="217.8" y1="196.4" x2="262.2" y2="170.7"/>
			</g>
			<g id="LINE-530">
				<line class="st8" x1="239.2" y1="165" x2="253.7" y2="173.3"/>
			</g>
			<g id="ELLIPSE-66">
				<path class="st8" d="M239.2,161.9c-1.4,0.8-1.4,2.2,0,3"/>
			</g>
			<g id="LINE-531">
				<line class="st8" x1="241.6" y1="160.5" x2="239.2" y2="161.9"/>
			</g>
			<g id="LINE-532">
				<line class="st8" x1="311.1" y1="147.2" x2="263" y2="175"/>
			</g>
			<g id="LINE-533">
				<line class="st8" x1="311.7" y1="142.1" x2="311.1" y2="147.2"/>
			</g>
			<g id="LINE-534">
				<line class="st8" x1="263" y1="175" x2="262.2" y2="170.7"/>
			</g>
			<g id="LINE-535">
				<line class="st8" x1="244.9" y1="171.1" x2="239.1" y2="167.7"/>
			</g>
			<g id="LINE-536">
				<line class="st8" x1="253.7" y1="173.4" x2="244.9" y2="171.1"/>
			</g>
			<g id="LINE-537">
				<line class="st8" x1="311.1" y1="147.2" x2="308.7" y2="145.8"/>
			</g>
			<g id="LINE-538">
				<line class="st8" x1="262.5" y1="172.5" x2="308.7" y2="145.8"/>
			</g>
			<g id="LINE-539">
				<line class="st8" x1="308.7" y1="145.8" x2="309.4" y2="140.8"/>
			</g>
			<g id="LINE-540">
				<line class="st8" x1="241.2" y1="163.1" x2="241.2" y2="163.8"/>
			</g>
			<g id="LINE-541">
				<polyline class="st8" points="243.2,170.4 206.4,191.7 141.2,154.1 142.2,153.3 94.1,125.5 92.4,126.1 27.2,88.5 155.3,14.4 
					220.7,52.1 219.5,53 267.7,80.8 269.1,80.3 334.2,117.9 313,130.1 				"/>
			</g>
			<path class="st8" d="M238.1,163.6c0,0-0.1,2.1,0,2.6c0,0.6,0.2,1,1,1.5"/>
			<path class="st8" d="M313.1,138.6l31.5-18.4c2.5-1,3.8-3.8,2.8-6.3c-0.5-1.3-1.6-2.3-2.8-2.8l-2.5-1.4L164.9,6.9
				c-5-2.6-13.6-2.6-18.6,0L17.5,81.2c-2.5,1.9-3.1,2.7-3.4,4.4c-0.6,2.9,1.2,4.8,3,5.8l181.5,104c5,2.6,13.3,2,19-1l36-21"/>
		</g>
	</g>
</g>
</svg>
