<?xml version="1.0" encoding="utf-8"?>
<!-- Generator: Adobe Illustrator 23.0.3, SVG Export Plug-In . SVG Version: 6.00 Build 0)  -->
<svg version="1.1" id="Layer_1" xmlns="http://www.w3.org/2000/svg" xmlns:xlink="http://www.w3.org/1999/xlink" x="0px" y="0px"
	 viewBox="0 0 206.6 234.2" style="enable-background:new 0 0 206.6 234.2;" xml:space="preserve">
<style type="text/css">
	.st0{fill:#D0D2D3;}
	.st1{fill:#808184;}
	.st2{fill:none;stroke:#000000;stroke-linecap:round;stroke-linejoin:round;}
</style>
<title>IQBumper</title>
<g>
	<g id="Bumper">
		<path class="st0" d="M164.8,61.4c-1.5,2.2-3.4,4-5.8,5.3l-36.1,20.8c-12.1,7-27,7-39.2,0L46.7,66c-1.9-1.1-3.5-2.7-4.7-4.6h-0.3
			l-0.3,1.2c-0.4,1.5-0.5,3-0.3,4.5h-0.1v38c-0.4,5.4,1.6,9.4,6,11.9l36.6,21.1c12.1,7,27,7,39.2,0l35.6-20.1
			c2.3-1.3,4.3-3.1,5.7-5.3c1-1.7,1.5-3.6,1.5-5.5V67.1c0.2-1.9,0-3.9-0.7-5.7L164.8,61.4z"/>
		<path class="st1" d="M198.4,119.9l-18-10.4l-6.4,0.2l-0.2-4l-8.2-4.7l-0.1,0V67.5c0.2-1.5,0-3-0.4-4.5c0.3,1.3,0.4,2.7,0.3,4.1
			v40.1c0,1.9-0.5,3.8-1.5,5.5c-1.4,2.2-3.4,4.1-5.7,5.3l-35.6,20.1c-12.1,7-27,7-39.2,0L47,117.1c-4.4-2.5-6.4-6.5-6-11.9v-38h0.1
			c-0.2-1.5-0.1-3,0.3-4.5l0.3-1.2c0,0-1.1-3.5-1-3l0,0L32.6,63l0.1,3.7h-6.4L9.3,76.6c-3.4,2-5.7,5.5-6,9.5l0,0l0,0
			c0,0.3,0,0.7,0,1v18.5c0,4.5,2.4,8.6,6.2,10.8l16.6,9.6h6.6v3.8l67.9,39.1l6.7,0l0.1,3.8l14.5,8.4c11.6,6.7,25.9,6.7,37.5,0
			l14.7-8.4l0.2-3.9l6.6,0l16.5-9.5c3.9-2.2,6.3-6.4,6.3-10.8v-18.4l0,0C204,126.6,202.5,122.9,198.4,119.9z"/>
		<path class="st1" d="M165.3,51.8l-3.6-16.4l0,0c-0.2-2.8-1.8-5.2-4.2-6.6L118.7,6.4c-9.6-5.5-21.4-5.5-31,0.1L48.7,28.9
			c-2.1,1.2-3.6,3.4-4,5.8h0l-4.2,18.7c-1.3,5.2,1.4,10.2,5.9,12.7l37,21.4c12.1,7,27,7,39.2,0l36.1-20.8
			C163.9,63.7,167.7,58.9,165.3,51.8z"/>
		<path class="st2" d="M142.5,27.4l11.5,6.6c1.7,1,2.9,2.6,3.4,4.4"/>
		<line class="st2" x1="129.7" y1="20" x2="138.3" y2="25"/>
		<path class="st2" d="M114.1,11.3c1.1,0.5,2.2,1,3.2,1.6l2.3,1.3"/>
		<path class="st2" d="M86.9,14.2l2.2-1.3c1-0.6,2-1.1,3.1-1.6"/>
		<line class="st2" x1="68.1" y1="25.1" x2="76.6" y2="20.2"/>
		<path class="st2" d="M48.7,38.8c0.4-2.1,1.8-3.8,3.7-4.8l11.5-6.6"/>
		<path class="st2" d="M44.8,35.4L40.5,54c-1.3,5.2,1.4,10.2,5.9,12.7l37,21.4c12.1,7,27,7,39.2,0l36.1-20.8c5.2-3,9-7.8,6.6-14.9
			l-3.6-16.4"/>
		<path class="st2" d="M41.5,61.7l-0.3,1.2c-1.3,5.2,0.8,9.2,5.2,11.8l37,21.4c12.1,7,27,7,39.2,0l36.1-20.8c5.2-3,8.3-6.7,5.9-13.7
			"/>
		<path class="st2" d="M40.9,67.4v38c-0.4,5.4,1.6,9.4,6,11.9l36.6,21.1c12.1,7,27,7,39.2,0l35.6-20.1c2.3-1.3,4.3-3.1,5.7-5.3
			c1-1.7,1.5-3.6,1.5-5.5V67.3"/>
		<path class="st2" d="M150.3,130.3l7.9-4.5c2.3-1.3,4.3-3.1,5.7-5.3c1-1.7,1.5-3.6,1.5-5.5v-8.8"/>
		<path class="st2" d="M111,149.9c4.1-0.7,8-2,11.6-4l15.8-8.9"/>
		<line class="st2" x1="148.7" y1="73.2" x2="148.7" y2="77.5"/>
		<path class="st2" d="M124.1,87.4l0,4.2l-5.2,3c-9.8,5.6-21.8,5.6-31.5,0l-36.6-21c-1.8-1-3.2-2.4-4.2-4.2
			c-0.1-0.1-0.1-0.3-0.2-0.4c-0.5-1-0.8-2.1-1-3.2"/>
		<line class="st2" x1="146.7" y1="74.3" x2="146.7" y2="77.2"/>
		<line class="st2" x1="142.5" y1="76.8" x2="142.5" y2="79.8"/>
		<line class="st2" x1="126.8" y1="85.9" x2="126.8" y2="88.8"/>
		<path class="st2" d="M139.8,78.2l2.7,1.5l5-2.9l1.2,0.7l7.6-4.5c1.5-0.9,2.8-2.2,3.7-3.7l0,0c0.6-1.1,0.9-2.3,1.1-3.5"/>
		<polyline class="st2" points="124.1,90.5 127.9,88.3 126.8,87.6 		"/>
		<ellipse class="st2" cx="103.1" cy="15.5" rx="8.5" ry="5"/>
		<ellipse class="st2" cx="103.3" cy="37.1" rx="8.5" ry="5"/>
		<ellipse class="st2" cx="177.7" cy="131.5" rx="8.5" ry="5"/>
		<ellipse class="st2" cx="140.4" cy="153" rx="8.5" ry="5"/>
		<ellipse class="st2" cx="65.9" cy="37.1" rx="8.5" ry="5"/>
		<ellipse class="st2" cx="140.4" cy="37.1" rx="8.5" ry="5"/>
		<ellipse class="st2" cx="103.3" cy="58.5" rx="8.5" ry="5"/>
		<path class="st2" d="M90.3,21.1c0-0.1-0.1-0.1-0.1-0.2"/>
		<path class="st2" d="M101.2,26.8c-2-0.2-3.9-0.7-5.7-1.4"/>
		<path class="st2" d="M111,25.4c-1.8,0.8-3.7,1.3-5.7,1.4"/>
		<path class="st2" d="M116.2,16.7v2.6c0,0.6-0.1,1.1-0.3,1.6"/>
		<path class="st2" d="M116.2,38.2v2.3c0,3.8-4.7,6.9-10.8,7.5"/>
		<path class="st2" d="M78.9,38.2v2.3c0,0.7-0.1,1.3-0.4,1.9"/>
		<path class="st2" d="M138.3,48.2c-1.9-0.2-3.8-0.6-5.5-1.3"/>
		<path class="st2" d="M146.5,47.3c-1.3,0.4-2.7,0.7-4,0.8"/>
		<path class="st2" d="M153.3,36.7v3.9c-0.1,1.5-0.7,3-1.9,4"/>
		<line class="st2" x1="90.2" y1="21.2" x2="90.2" y2="16.7"/>
		<line class="st2" x1="110.9" y1="25.3" x2="127.7" y2="35.1"/>
		<path class="st2" d="M63.8,48c-4.7-0.5-8.8-2.7-10.4-5.3c-0.3-0.5-0.5-1.1-0.5-1.7v-4.9"/>
		<path class="st2" d="M90.5,56.8l-17.1-10c-1.7,0.7-3.5,1.1-5.3,1.2"/>
		<polyline class="st2" points="78.7,35.1 95.5,25.3 95.5,21.6 		"/>
		<polyline class="st2" points="115.7,56.8 132.9,46.9 132.9,43.1 		"/>
		<path class="st2" d="M115.9,41.8h11.6c0.1,0.3,0.2,0.5,0.3,0.7"/>
		<line class="st2" x1="78.6" y1="41.8" x2="90.2" y2="41.8"/>
		<path class="st2" d="M157.5,29.5L118.7,7.1c-9.6-5.5-21.4-5.5-31,0.1L48.8,29.6c-5.8,3.4-5.4,11.8,0.4,15.1l37.6,21.8
			c10,5.8,22.4,5.8,32.5,0l38.2-22.2c4.1-2.4,5.5-7.6,3.1-11.7C159.9,31.3,158.8,30.2,157.5,29.5z M116,38.2h11.5
			c0.4,1.3,1.2,2.4,2.3,3.2l-19,11c-1.8-0.8-3.7-1.2-5.6-1.4v-6.6C110.7,43.9,115.1,41.4,116,38.2z M105.2,29.4V23
			c1.9-0.2,3.8-0.6,5.6-1.4l18.8,10.9c-1.1,0.8-1.8,2-2.2,3.3H116C115.2,32.5,110.8,29.9,105.2,29.4z M132.9,43.1
			c1.7,0.7,3.6,1.1,5.5,1.3v7.7l-9,5.2L116,57.3c-0.4-1.3-1.1-2.4-2.2-3.2L132.9,43.1z M132.7,30.7l-18.9-10.9
			c1-0.8,1.8-1.9,2.2-3.1h13.5l8.9,5.1v7.6C136.4,29.5,134.5,30,132.7,30.7L132.7,30.7z M89.2,9.7c8.7-5,19.4-5.1,28.1-0.1l8.1,4.6
			H116c-1-3.6-6.3-6.4-12.8-6.4s-11.8,2.8-12.8,6.4l-9.1,0L89.2,9.7z M73.4,43.1l19.1,11.1c-1,0.8-1.7,1.9-2.1,3.1l-13.7,0L68,52.2
			l0-7.8C69.8,44.2,71.7,43.8,73.4,43.1z M68.1,21.8l8.9-5.1h13.4c0.4,1.2,1.1,2.3,2.2,3.1l-18.9,11c-1.8-0.7-3.6-1.2-5.6-1.4
			L68.1,21.8z M76.4,41.4c1.1-0.8,1.9-1.9,2.3-3.2h11.7c0.9,3.2,5.2,5.7,10.7,6.2V51c-1.9,0.2-3.9,0.6-5.7,1.4L76.4,41.4z
			 M90.4,35.8H78.7c-0.4-1.3-1.1-2.4-2.2-3.2l18.9-11c1.8,0.7,3.7,1.2,5.6,1.4v6.4C95.5,29.9,91.2,32.5,90.4,35.8z M48.5,36.6
			c0.1-2.5,1.6-4.7,3.8-5.8l11.4-6.5l0.1,5.1c-6.2,0.6-10.9,3.7-10.9,7.5s4.7,6.9,10.9,7.5v5.4l-12-7C49.7,41.5,48.4,39.1,48.5,36.6
			z M117.8,64c-4.5,2.6-9.6,3.9-14.8,4c-2.6,0-5.2-0.3-7.7-1c-2.5-0.7-4.9-1.7-7.1-3l-7.4-4.3l9.5,0c1,3.6,6.4,6.4,12.8,6.4
			c6.5,0,11.8-2.8,12.8-6.4h9.3L117.8,64z M157.6,37.3c-0.1,2.8-2.2,5-4.6,6.2l-10.6,6.1l0-5.3c6.1-0.6,10.8-3.7,10.8-7.5
			c0-3.8-4.7-6.9-10.8-7.5l0-5.2l11.5,6.6C156.4,32.1,157.8,34.7,157.6,37.3z"/>
		<ellipse class="st2" cx="28.8" cy="88.6" rx="8.5" ry="5"/>
		<path class="st2" d="M40.8,83.3l0.1-3.6 M40.9,85.7c-0.4-0.6-0.9-1.1-1.4-1.6l1.5-0.9 M40.9,79.8l-4.4,2.5
			c-1.8-0.7-3.6-1.2-5.6-1.4v-9.5h-3.3l-1,0.6l0.1,8.9c-6.2,0.6-10.9,3.7-10.9,7.5s4.7,6.9,10.9,7.5c3.3,0.2,6.7-0.3,9.8-1.6
			c1.4-0.6,2.8-1.5,3.9-2.6c0.2-0.2,0.4-0.5,0.5-0.8l0,0"/>
		<path class="st2" d="M15.8,88.2v5.4c0,0.3,0.1,0.7,0.2,1c1.3,2.9,5.6,5.4,10.7,5.8c3.3,0.2,6.7-0.3,9.8-1.6
			c1.7-0.8,3.2-1.9,4.4-3.2"/>
		<polyline class="st2" points="129.7,16.8 129.7,20.3 129.7,20.3 116,20.3 		"/>
		<polyline class="st2" points="76.7,16.8 76.7,20.2 76.7,20.2 90.2,20.3 		"/>
		<line class="st2" x1="127.4" y1="41.8" x2="127.4" y2="38.2"/>
		<line class="st2" x1="73.4" y1="43.1" x2="73.4" y2="46.8"/>
		<path class="st2" d="M90.2,38.2v3.7l0,0.2c1.2,3,5.6,5.4,10.9,5.9"/>
		<line class="st2" x1="110.9" y1="21.6" x2="110.9" y2="25.4"/>
		<path class="st2" d="M114.7,65.5c0.9-1,1.5-2.2,1.5-3.6v-2.3"/>
		<path class="st2" d="M90.2,59.7v3.5c0,0.3,0.1,0.6,0.2,0.8c0.3,0.6,0.8,1.2,1.3,1.7"/>
		<line class="st2" x1="115.9" y1="63.4" x2="118.9" y2="63.4"/>
		<line class="st2" x1="87.2" y1="63.4" x2="90.2" y2="63.4"/>
		<path class="st2" d="M165.5,100.9l8.2,4.7l0.2,4l6.4-0.2l18,10.4c7.9,5.8,6.4,14.2-1.4,18.9l-16.2,9.6l-6.7-0.1l0.1,3.9l-13.9,8
			c-12.2,7-27.3,7-39.5-0.1l-13.5-7.8v-3.9l-6.7,0l-67.8-39.3l0-3.8l-6.6,0L7.8,94.6c-1.4-1.1-2.6-2.5-3.4-4.1
			c-0.8-1.4-1.2-2.9-1.3-4.5"/>
		<path class="st2" d="M203.3,130v18.4c0,4.5-2.4,8.6-6.3,10.8l-16.5,9.5l-6.6,0l-0.2,3.9l-14.7,8.4c-11.6,6.7-25.9,6.7-37.5,0
			l-14.5-8.4l-0.1-3.8l-6.7,0l-67.9-39.1v-3.8h-6.6l-16.6-9.6C5.4,114,3,109.9,3,105.4V86.9c0-4.3,2.3-8.3,6-10.5l17.1-9.9h6.4
			l-0.1-3.7l7.9-4.6"/>
		<line class="st2" x1="25.9" y1="105.1" x2="25.9" y2="125.8"/>
		<line class="st2" x1="32.5" y1="108.9" x2="32.5" y2="129.6"/>
		<line class="st2" x1="100.3" y1="148" x2="100.3" y2="168.7"/>
		<line class="st2" x1="107" y1="151.9" x2="107" y2="172.6"/>
		<line class="st2" x1="180.5" y1="148.3" x2="180.5" y2="168.4"/>
		<line class="st2" x1="173.9" y1="152" x2="173.9" y2="168.8"/>
		<path class="st2" d="M41.5,111l-5-2.9l-0.1-5.2l-8.9,0l-16.1-9.3c-4.3-2.5-5.8-7.9-3.3-12.2c0.8-1.4,1.9-2.5,3.2-3.3l16.2-9.3h8.8
			l0-5.2l4.7-2.7"/>
		<polyline class="st2" points="30.9,75.7 36.4,75.7 36.4,68.8 		"/>
		<path class="st2" d="M7.9,89.8c0.7-2,2.1-3.7,3.9-4.8l14.8-8.6"/>
		<line class="st2" x1="27.6" y1="71.5" x2="27.6" y2="68.8"/>
		<line class="st2" x1="36.4" y1="68.1" x2="40.8" y2="68.1"/>
		<line class="st2" x1="36.4" y1="72.4" x2="40.8" y2="72.4"/>
		<polyline class="st2" points="40.9,65.8 37.3,65.8 36.4,66.3 		"/>
		<path class="st2" d="M165.5,104.2l4.3,2.5l0.1,5.2l9,0l14.4,8.3c6.9,3.8,8.1,12.6,0.9,16.9l-15.3,8.9h-9l0,5.2l-12.5,7.3
			c-10.3,6-23.1,6-33.4,0l-13-7.5v-5.1l-8.8,0l-4.7-2.7"/>
		<polyline class="st2" points="178.9,111.9 178.9,118.9 169.9,118.9 169.9,111.9 		"/>
		<line class="st2" x1="165.5" y1="111.1" x2="169.9" y2="113.8"/>
		<path class="st2" d="M178.9,118.9l15.1,8.7c1.1,0.6,2.1,1.4,2.9,2.4l0,0c0.6,0.8,1.1,1.6,1.5,2.5"/>
		<path class="st2" d="M175.7,143.3c-1.9-0.1-3.9-0.6-5.7-1.3"/>
		<line class="st2" x1="153" y1="151.7" x2="170" y2="142"/>
		<path class="st2" d="M190.6,131.5c0-4.2-5.8-7.7-12.9-7.7c-6.5,0-11.8,2.8-12.7,6.5h-23.5l-3,1.7l-0.1,13.4
			c-6.1,0.6-10.8,3.7-10.8,7.6c0,4.2,5.8,7.7,12.9,7.7c6.5,0,11.8-2.8,12.7-6.5h11.6l3.8-2.3h-15.4c-0.4-1.3-1.2-2.5-2.3-3.3l19-11
			c1.8,0.8,3.8,1.3,5.7,1.5v6.9h3.3l0.8-0.4V139C185.9,138.5,190.6,135.3,190.6,131.5z M148.2,146.9c-1.8-0.8-3.7-1.3-5.7-1.4
			l0-12.8h22.5c0.4,1.3,1.2,2.4,2.2,3.3L148.2,146.9z"/>
		<path class="st2" d="M152.1,160.9c0.5-0.6,0.8-1.2,1.1-1.9l0-4.8"/>
		<path class="st2" d="M127.5,152.8v4.8c0,1.1,0.4,2.3,1.1,3.2"/>
		<line class="st2" x1="142.6" y1="137" x2="165.2" y2="137"/>
		<line class="st2" x1="164.9" y1="132.6" x2="164.9" y2="137"/>
		<line class="st2" x1="169.9" y1="137.6" x2="169.9" y2="142"/>
		<path class="st2" d="M190.6,131.5v4.4c0,0.7-0.2,1.5-0.5,2.1c-1.5,2.6-5.4,5.2-10.3,5.3"/>
		<path d="M103.3,3c5.4,0,10.7,1.4,15.4,4.1l38.8,22.4c2.4,1.4,4,3.8,4.2,6.6l0,0l3.6,16.4c1.2,3,0.9,6.4-0.6,9.3
			c0.7,1.8,0.9,3.7,0.7,5.6v33.6l0.1,0l8.2,4.7l0.2,4l6.4-0.2l18,10.4c4.1,3,5.6,6.7,5.1,10.2l0,0v18.4c0,4.5-2.4,8.6-6.3,10.8
			l-16.5,9.5l-6.6,0l-0.2,3.9l-14.7,8.4c-11.6,6.7-25.9,6.7-37.5,0l-14.5-8.4l-0.1-3.8l-6.7,0l-67.9-39.1v-3.8h-6.6l-16.6-9.6
			C5.4,114,3,109.9,3,105.4V86.9c0-0.3,0-0.7,0-1l0,0l0,0c0.3-3.9,2.6-7.5,6-9.5l17.1-9.9h6.4l-0.1-3.7l7.9-4.6l0,0
			c-0.2-1.4-0.2-2.9,0.2-4.3l4.2-18.6c0.4-2.5,1.8-4.6,4-5.9L87.7,7.2C92.4,4.4,97.8,3,103.3,3 M103.3,0L103.3,0
			c-6,0-11.9,1.6-17,4.6L47.3,27c-2.9,1.7-4.9,4.6-5.5,7.9l-4.2,18.4c-0.3,1.1-0.4,2.2-0.4,3.4l-6.3,3.6c-0.9,0.5-1.5,1.6-1.5,2.7
			l0,0.6h-3.3c-0.5,0-1,0.1-1.5,0.4L7.5,73.9c-4.2,2.4-7,6.8-7.5,11.7c0,0.1,0,0.2,0,0.3c0,0.4,0,0.8,0,1.1v18.5
			c0,5.5,3,10.6,7.7,13.4l16.6,9.6c0.5,0.3,1,0.4,1.5,0.4h3.6v0.8c0,1.1,0.6,2.1,1.5,2.6l67.9,39.1c0.4,0.3,1,0.4,1.5,0.4l3.7,0
			l0,0.9c0,1.1,0.6,2,1.5,2.5l14.5,8.4c12.5,7.2,28,7.3,40.5,0l14.7-8.4c0.9-0.5,1.5-1.5,1.5-2.5l0-1l3.8,0c0.5,0,1-0.1,1.5-0.4
			l16.5-9.5c4.8-2.8,7.8-7.9,7.8-13.4V130l0,0c0.5-4.7-1.8-9.2-6.4-12.6c-0.1-0.1-0.2-0.1-0.3-0.2l-18-10.4c-0.5-0.3-1-0.4-1.5-0.4
			c0,0-0.1,0-0.1,0l-3.4,0.1l0-1c0-1-0.6-2-1.5-2.5l-6.8-3.9V67.5c0.2-1.9,0-3.7-0.5-5.5c1.4-3.3,1.5-7,0.3-10.3l-3.5-16.2
			c0,0,0-0.1,0-0.1c-0.5-3.6-2.6-6.7-5.7-8.5L120.2,4.5C115,1.6,109.2,0,103.3,0z"/>
	</g>
</g>
</svg>
