<?xml version="1.0" encoding="utf-8"?>
<!-- Generator: Adobe Illustrator 23.0.3, SVG Export Plug-In . SVG Version: 6.00 Build 0)  -->
<svg version="1.1" id="Layer_1" xmlns="http://www.w3.org/2000/svg" xmlns:xlink="http://www.w3.org/1999/xlink" x="0px" y="0px"
	 viewBox="0 0 127.5 199.1" style="enable-background:new 0 0 127.5 199.1;" xml:space="preserve">
<style type="text/css">
	.st0{fill:#D0D2D3;}
	.st1{fill:#808184;}
	.st2{fill:none;stroke:#000000;stroke-linecap:round;stroke-linejoin:round;}
	.st3{fill:#404041;}
</style>
<title>IQColorSensor</title>
<g>
	<g id="Color_Sensor">
		<path class="st0" d="M46.2,152.6c11.6,5.4,25.1,4.7,36.1-1.7l36.4-21.2c3-1.8,4.9-5,4.8-8.5v-79c0-5.8-3.1-11.1-8.1-14L80.7,7.9
			c-11.1-6.5-24.9-6.5-36.1,0L9.8,28.1C5.6,30.6,3,35,3,39.9v82.4c0,3.3,1.8,6.4,4.7,8.1L46.2,152.6z"/>
		<path class="st1" d="M123.9,119.1c-0.3-7.1,0-17.2,0-17.2c-0.2,2.8-1.7,5.3-4.1,6.8l-38.4,21.6c-11.7,6.7-26.1,6.7-37.9,0
			l-38.2-22c-1.7-1.1-2.8-3-2.8-5.1v21.5c0,0-1.8,2.8,6.6,8.2c8.4,5.4,35.4,19.7,35.4,19.7s13.8,10.5,34.1,1.6
			c13.5-5.9,42.3-25,42.3-25S124.3,126.2,123.9,119.1z"/>
		<path class="st2" d="M123.8,102.5c-0.1,2.6-1.6,5-3.9,6.2l0,0l-38.5,22.2c-11.7,6.7-26.1,6.7-37.9,0l-38.2-22l0,0
			c-1.7-1.1-2.8-3-2.8-5.1v-1.9"/>
		<path class="st2" d="M8.9,28.7c-6.8,4.8-8.3,13.1-1,17.3l37.2,22.3c5.6,3.2,10.4,4.7,16.7,4.5c6.4,0,12.6-1.8,18-5.1L117,46.1
			c6.4-3.7,7.1-13.2-0.8-17.5L81.1,8C69.8,1.4,55.7,1.4,44.4,8L8.9,28.7z"/>
		<path class="st2" d="M46.2,152.6c11.6,5.4,25.1,4.7,36.1-1.7l36.4-21.2c3-1.8,4.9-5,4.8-8.5v-79c0-5.8-3.1-11.1-8.1-14L80.7,7.9
			c-11.1-6.5-24.9-6.5-36.1,0L9.8,28.1C5.6,30.6,3,35,3,39.9v82.4c0,3.3,1.8,6.4,4.7,8.1L46.2,152.6z"/>
		<path class="st1" d="M61,67.9c-4.7,0-8.6-1.1-13.4-3.9l-34-20.3c-3.3-2-4.4-6.3-2.4-9.7c0.6-1,1.5-1.9,2.5-2.5l33.2-19.5
			c4.8-2.8,10.3-5.1,15.9-5.1c5.6,0,11.1,2.3,15.9,5.1l33.1,19.6c3.3,1.9,4.3,6.1,2.4,9.4c-0.6,1-1.4,1.8-2.5,2.4L77.4,63.5
			c-4.5,2.8-9.7,4.3-14.9,4.4C62.3,67.9,61.2,67.9,61,67.9z"/>
		<path class="st2" d="M61,67.9c-4.7,0-8.6-1.1-13.4-3.9l-34-20.3c-3.3-2-4.4-6.3-2.4-9.7c0.6-1,1.5-1.9,2.5-2.5l33.2-19.5
			c4.8-2.8,10.3-5.1,15.9-5.1c5.6,0,11.1,2.3,15.9,5.1l33.1,19.6c3.3,1.9,4.3,6.1,2.4,9.4c-0.6,1-1.4,1.8-2.5,2.4L77.4,63.5
			c-4.5,2.8-9.7,4.3-14.9,4.4C62.3,67.9,61.2,67.9,61,67.9z"/>
		<ellipse class="st2" cx="24" cy="38.6" rx="10.1" ry="5.6"/>
		<ellipse class="st2" cx="23.9" cy="37.4" rx="12.2" ry="7.2"/>
		<ellipse class="st2" cx="42.9" cy="48.6" rx="12.2" ry="7.1"/>
		<ellipse class="st2" cx="43.1" cy="50.2" rx="8.9" ry="4.8"/>
		<ellipse class="st2" cx="62.6" cy="59.6" rx="12.2" ry="7.1"/>
		<ellipse class="st2" cx="62.5" cy="60.9" rx="10.1" ry="5.6"/>
		<path class="st2" d="M99,39.3L73.1,54.4L36,33l26.4-15.3c0.2-0.1,0.4-0.1,0.5,0L73,23.6c0.2,0.1,0.3,0.4,0.2,0.6
			c0,0.1-0.1,0.1-0.2,0.2l-0.8,0.4c-0.2,0.1-0.3,0.4-0.2,0.6c0,0.1,0.1,0.1,0.2,0.2l14.2,8.2c0.1,0.1,0.3,0.1,0.4,0l1.6-0.9
			c0.1-0.1,0.3-0.1,0.4,0L99,38.6c0.2,0.1,0.2,0.3,0.1,0.5C99.1,39.2,99.1,39.3,99,39.3z"/>
		<path class="st2" d="M73.3,23.9v0.8c0,0.1-0.1,0.2-0.1,0.3l-0.6,0.4c-0.1,0.1-0.2,0.1-0.2,0.3"/>
		<path d="M62.7,3C69,3,75.3,4.7,80.7,7.9l34.6,20.2c5,2.9,8.1,8.2,8.1,14v79c0,3.5-1.8,6.7-4.8,8.5l-36.4,21.2
			c-11,6.4-24.5,7.1-36.1,1.7L7.7,130.4c-2.9-1.7-4.7-4.7-4.7-8.1V39.9c0-4.9,2.6-9.3,6.8-11.8L44.7,7.9C50.2,4.7,56.4,3,62.7,3
			 M62.7,0c-6.9,0-13.6,1.8-19.5,5.3L8.3,25.5C3.2,28.5,0,34,0,39.9v82.4c0,4.4,2.4,8.5,6.2,10.7l38.5,22.2c0.1,0,0.2,0.1,0.2,0.1
			c12.5,5.8,27,5.1,38.9-1.8l36.4-21.2c3.9-2.3,6.4-6.6,6.3-11.1l0-79c0-6.9-3.7-13.2-9.6-16.6L82.3,5.3C76.3,1.8,69.6,0,62.7,0z"/>
		<ellipse class="st3" cx="24" cy="38.6" rx="10.1" ry="5.6"/>
		<ellipse class="st3" cx="43.1" cy="50.2" rx="8.9" ry="4.8"/>
		<ellipse class="st3" cx="62.5" cy="60.9" rx="10.1" ry="5.6"/>
	</g>
</g>
</svg>
