<?xml version="1.0" encoding="utf-8"?>
<!-- Generator: Adobe Illustrator 23.0.3, SVG Export Plug-In . SVG Version: 6.00 Build 0)  -->
<svg version="1.1" id="Layer_1" xmlns="http://www.w3.org/2000/svg" xmlns:xlink="http://www.w3.org/1999/xlink" x="0px" y="0px"
	 viewBox="0 0 299.9 271.5" style="enable-background:new 0 0 299.9 271.5;" xml:space="preserve">
<style type="text/css">
	.st0{fill:#808184;}
	.st1{fill:#D0D2D3;}
	.st2{fill:#404041;}
	.st3{fill:#0075C9;}
</style>
<title>IQController</title>
<g>
	<g id="Controller">
		<g id="Controller-2">
			<path id="Base_Color" class="st0" d="M296.2,114.7L296.2,114.7L296.2,114.7c-0.1-1-0.2-2-0.3-3c-0.6-6.8-4.2-12.9-9.7-16.8
				c0,0-46.5-32.4-69.4-45.4c-22.9-13-67.3-35.7-81.2-39.4l0,0C130.8,3,118.1,3,118.1,3s-13.4-0.1-18.8,7.5
				c-2.2,0.7-25.4,8.2-29.8,21.6c-4.3,2.1-26.1,13.4-62.5,46.8c-2.2,2.5-3.7,3.8-4,13.3c-0.1,2.5,0,6.1,0.2,10l0,0l0,0.1
				c0.5,10.9,1.6,24.4,1.6,24.4s2.5,21.9,12.8,24.2c2,0.8,5.1,0.6,7.8,0.1l0,0l0,0c1.6-0.3,3.2-0.7,4.8-1.2c1.1-0.3,2.1-0.6,3.2-0.9
				c6.7-1.6,35-10.7,54.9-22l9.6,6.2c1.7,1.1,3.5,2.2,5.4,3.1c3.7,1.9,10.4,1.3,10.4,1.3l8.7,5.6l8,4.6c0.6,0.6,1,1.4,0.9,2.3
				c0,0.6,0.1,1.1,0.2,1.6c-0.3,2.5,10.8,6.6,10.8,6.6s-14.7,26.5-15.9,29.9l0,0c-1,2.9-1.6,6-1.6,9.1l-0.1,0c0,0,0,0.1,0.1,0.2
				c-0.1,4.6,1,9.2,3.1,13.3c1,1.9,2.4,3.7,4,5.1c4.9,4.1,18.3,14.2,36.5,17.7c9.7,1.8,15.9,2.8,21.1,2.3c3.7-0.4,7.4-1.4,10.7-3.1
				c0,0,40.2-14.7,54.6-40.5c5.9-10.6,12.8-20.6,20.7-29.9l0,0c0,0,6.8,6.5,13,5c0.5-0.1,1-0.3,1.4-0.6l0,0l0,0c5-2.9,6-14,6-14
				C297.2,140.2,297.3,127.4,296.2,114.7z"/>
			<g id="Top_Color">
				<path class="st1" d="M170,33c0,0,3.9-3.3-1.8-6.3c-5.7-2.9-31.6-14.3-31.6-14.3l-39.1,1.5l-10.3,4.9c0,0-16.9,8.1-13.9,20.6
					S81.1,71,83.6,86.2c0.8,8,5.5,9.9,5.5,9.9l14.8,7.7l12.7-5.9c0,0,4.7-2.1,8.3,0c3.7,2.1,12.8,7.4,12.8,7.4c2.1,1.2,3,3.8,2.2,6
					c-1.4,4.2-3.6,11.2-3.6,11.2l14.5,9c0,0,4.2,2.9,11.1,2.3c7-0.6,41.1-3.1,76.2,1.2C273.3,139.5,289,118,289,118
					c2-2.5,2.7-5.8,1.8-8.8c-1.6-5.2-2-7-2-7c-1-1.9-2.5-3.5-4.2-4.8c-2.9-2.1-25.4-18.5-25.4-18.5c-4.3-2.1-9.2-2.9-13.9-2.3
					L232,79.8l-8.4,2c0,0-8,2.5-14.7-1.6s-46.8-27.4-46.8-27.4s-7.4-3.7-3.1-8.4S170,33,170,33c0,0,3.9-3.3-1.8-6.3
					s-31.6-14.3-31.6-14.3"/>
			</g>
			<path id="Top_Color-2" class="st0" d="M264.2,92.9c13.4,6.7,12.9,16.7,12.9,16.7s0.8,13.8-22,18.1s-36.9-8.3-36.9-8.3l-7.6,0.8
				l-2.5-1.4l-1.7,1.8l-23.2,4.2l-2.7-1.2l-1.7,2.3c0,0-7.1,1.9-11.6,3.3s-14.9,1.7-17.1-5.6c-1.4-4-0.2-8.5,3.1-11.3l1.1-2l16-4.9
				l3-0.6l3,1.7l1.7-2.4l7.9-1.1l11-1l4.2-0.3l2.7,1.7l1.7-2.1c0,0,5-0.4,7.4-0.7c3.9-6.9,11.5-9.6,11.5-9.6L264.2,92.9z"/>
			<path d="M186.4,236.9c-4.4,0-9.8-0.8-18.1-2.4c-18.3-3.5-31.8-13.6-36.7-17.8c-1.7-1.4-3.1-3.2-4.1-5.2c-3.6-7.2-4.1-15.5-1.5-23
				c5.1-15.1,18.5-33.8,18.6-34c2.3-3.1,4.7-6.1,7.3-8.9c4.9-5.5,21.7-5.7,36.5-6c2,0,4-0.1,5.9-0.1c13.7-0.3,23.7,0.5,43.6,2
				c5.5,0.4,11.7,0.9,19,1.5c4.6,0.2,9.2,0,13.9-0.4c4.7-0.3,8.8-0.6,10.3-0.2c3,0.8,4.5,4.2,5.1,5.6c0.4,1,0.3,2.2-0.2,3.1
				c-0.2,0.5-0.4,0.9-0.5,1.4c-0.1,0.3-0.2,0.6-0.5,0.8c-1.6,1.5-16.4,15.4-29.7,39.4c-14.1,25.3-53.4,40.2-54.8,40.7
				C196,235.8,191.3,236.9,186.4,236.9L186.4,236.9z M200.1,140.5c-1.9,0-3.8,0-5.8,0.1c-1.9,0-3.8,0.1-5.9,0.1
				c-13.9,0.2-31.1,0.5-35.7,5.6c-2.6,2.8-5,5.7-7.3,8.8c-0.1,0.2-13.4,18.8-18.5,33.8c-2.6,7.3-2.1,15.3,1.4,22.2
				c1,1.9,2.3,3.5,3.9,4.9c4.9,4.1,18.2,14.1,36.3,17.6c10.2,1.9,16,2.8,21,2.3c3.7-0.4,7.2-1.4,10.5-3c0,0,0,0,0.1,0
				c0.4-0.1,40.2-15,54.3-40.3c13.4-24.1,28.3-38.2,29.9-39.7c0.1-0.1,0.1-0.2,0.2-0.3c0.1-0.6,0.3-1.1,0.6-1.7
				c0.4-0.7,0.4-1.5,0.2-2.3c-0.4-1-1.8-4.3-4.4-5c-1.4-0.4-5.6-0.1-10,0.2c-4.7,0.4-9.3,0.5-14,0.4c-7.3-0.5-13.5-1-19-1.5
				C220.8,141.2,211.1,140.5,200.1,140.5L200.1,140.5z"/>
			<path d="M200.2,233.7c-0.3,0-0.5-0.2-0.5-0.5c0-0.2,0.1-0.4,0.3-0.5c0.1,0,10.9-5.2,11.8-23.5c0.9-18.2-17.8-20.8-18.6-20.9
				c-0.4,0-38.9-3.4-51.9-3.9c-12.6-0.5-14.4,4.4-14.4,4.5c-0.1,0.3-0.4,0.4-0.6,0.3s-0.4-0.4-0.3-0.6c0.1-0.2,2-5.7,15.4-5.2
				c13.1,0.5,51.6,3.9,52,3.9c0.2,0,20.4,2.8,19.5,22c-0.9,19-11.9,24.2-12.4,24.4C200.3,233.6,200.2,233.7,200.2,233.7z"/>
			<path d="M200.8,212.2c-20,0-59.1-5.6-68.6-7.1c-3.9-0.5-7.1-3.4-8-7.2c0-0.3,0.1-0.5,0.4-0.6c0.3,0,0.5,0.1,0.6,0.4
				c0.8,3.4,3.7,6,7.2,6.4c10.3,1.7,55.6,8.1,73.2,7c5.8-0.4,10.9-5,20.2-13.3c1.8-1.6,3.7-3.3,5.8-5.2c25-22,53.6-42.5,53.9-42.7
				c0.2-0.2,0.5-0.1,0.7,0.1s0.1,0.5-0.1,0.7c0,0,0,0,0,0c-0.3,0.2-28.9,20.7-53.8,42.7c-2.1,1.9-4,3.6-5.8,5.2
				c-9.5,8.5-14.7,13.2-20.8,13.6C204.2,212.2,202.6,212.2,200.8,212.2z"/>
			<path d="M286.7,168.4c-5.7,0-11.1-5.1-11.4-5.3c-0.1-0.1-0.1-0.3,0-0.5c0.1-0.1,0.3-0.1,0.5,0c0.1,0.1,6.7,6.3,12.7,5
				c6-1.3,7.2-14.2,7.2-14.3c1.3-13.7,1.3-27.4-0.1-41.1c-0.6-6.6-4.1-12.7-9.6-16.5c-0.5-0.3-46.7-32.6-69.4-45.4
				c-24-13.6-67.5-35.7-81-39.4c-0.2,0-0.3-0.2-0.2-0.4c0-0.2,0.2-0.3,0.4-0.2c13.5,3.7,57.1,25.8,81.2,39.4
				c22.7,12.8,69,45.1,69.4,45.4c5.6,4,9.2,10.2,9.9,17c1.4,13.7,1.4,27.5,0.1,41.2c0,0.5-1.3,13.4-7.7,14.9
				C288,168.3,287.3,168.4,286.7,168.4z"/>
			<path d="M142,159.5c0,0-0.1,0-0.1,0c-0.1,0-5.1-2.5-7.8-3.9c-2.8-1.5-2.9-3.2-3-5l0-0.1c0-0.8-0.3-1.5-0.8-2.1l-16.9-9.7
				c-8.5-0.2-11.8-1.9-11.9-1.9l-13.5-8.6c-20.4,12.8-46.8,19.7-54.5,21.5c-1.1,0.3-2.1,0.5-3.2,0.9c-3.3,1-9.3,2.5-12.8,1.1
				c-10.3-2.3-12.9-23.6-13-24.5c0-0.3-2-25.1-1.7-34.5C3,83.3,4.4,81.7,6.5,79.3L6.8,79c36-33.1,58.1-44.7,62.4-46.8
				c4.8-14.1,28.8-21.3,29.8-21.6c0.2-0.1,0.4,0,0.4,0.2c0.1,0.2,0,0.4-0.2,0.4c0,0,0,0,0,0c-0.2,0.1-24.8,7.5-29.4,21.4
				c0,0.1-0.1,0.2-0.2,0.2c-4.1,2-26.2,13.4-62.4,46.7L7,79.8c-2,2.3-3.4,3.8-3.7,12.8C3,101.9,5.1,126.7,5.1,127
				c0,0.2,2.6,21.7,12.5,23.9c3.4,1.4,9.8-0.3,12.4-1.1c1-0.3,2.1-0.6,3.2-0.9c7.6-1.8,34.1-8.7,54.5-21.5c0.1-0.1,0.2-0.1,0.3,0
				l13.6,8.7c0,0,3.3,1.7,11.7,1.8c0.1,0,0.1,0,0.2,0l17,9.8c0.7,0.7,1.1,1.6,1.1,2.6l0,0.1c0.1,1.7,0.2,3.1,2.7,4.4
				c2.7,1.4,7.7,3.9,7.8,3.9c0.2,0.1,0.2,0.3,0.2,0.4C142.2,159.4,142.1,159.5,142,159.5L142,159.5z"/>
			<path d="M87.9,128.2c0,0-0.1,0-0.1,0c-0.3,0-0.4-0.3-0.4-0.5c-0.4-0.3-0.8-0.5-1.2-0.8c-3.2-2-3.5-4.1-3-11.3
				c0.5-7-3.8-21.2-3.9-21.3c-0.1-0.5-9.1-44.8-10.9-52.3c-2-7.9,0.7-9.8,0.8-9.9c0.2-0.2,0.5-0.1,0.7,0.1c0.2,0.2,0.1,0.5-0.1,0.7
				c-0.1,0-2.2,1.7-0.4,8.8c1.9,7.6,10.8,51.9,10.9,52.3c0.2,0.5,4.4,14.4,3.9,21.6c-0.5,7.3-0.1,8.8,2.5,10.4
				c1.6,1,1.9,1.3,1.8,1.8C88.4,128.1,88.2,128.3,87.9,128.2z"/>
			<path d="M246.4,138.1c-2.9,0-5.8-0.2-8.7-0.6c-10.6-1.5-37.7-2-38-2c-0.2,0-25.3,0.1-38.4,1.9c-4.6,0.6-9.2-0.3-13.3-2.6
				l-14.8-9.2c-0.9-0.5-1.2-1.6-0.8-2.5c0,0,1.7-5.5,3.3-10c1.4-4-0.6-5-0.7-5.1c-0.1-0.1-10.3-6-12.8-7.4c-1.6-0.8-3.4-0.7-4.9,0
				l-13.2,6.2c-0.9,0.5-1.9,0.5-2.8,0.2c-0.1-0.1-9.1-5-14.8-7.9c-3.6-1.8-6-5.2-6.6-9.2l0,0c0,0-3.9-21.3-4.7-25.7
				c-1.3-6.6-2.2-11.1-3.2-15.5c-0.9-3.9-1.7-7.6-2.5-12.3C67.5,26.4,81.2,18,81.8,17.7c0.2-0.1,0.5-0.1,0.7,0.2
				c0.1,0.2,0.1,0.5-0.2,0.7c-0.1,0.1-13.7,8.4-11.9,18.1c0.9,4.7,1.7,8.4,2.5,12.2c1,4.3,2,8.8,3.2,15.5c0.8,4.3,4.8,25.7,4.8,25.7
				c0.6,3.6,2.8,6.7,6.1,8.4c5.8,2.9,14.7,7.8,14.8,7.9l0,0c0.6,0.2,1.3,0.1,1.9-0.2l13.2-6.2c1.8-0.9,4-1,5.9,0
				c2.6,1.5,12.7,7.3,12.8,7.4c0.1,0,2.9,1.4,1.2,6.3c-1.6,4.4-3.3,9.9-3.3,10c-0.1,0.2-0.3,0.9,0.3,1.3l14.8,9.2
				c3.8,2.1,8.3,3,12.6,2.4c13.2-1.7,38.3-1.9,38.6-1.9c0.3,0,27.4,0.5,38.1,2c13.6,1.9,34-0.8,46.5-11c9.8-8,10.3-11.2,9.3-16.2
				c-0.7-3.4-1.8-6.7-3.3-9.8c-0.1-0.2,0-0.5,0.2-0.7c0.2-0.1,0.5,0,0.7,0.2c1.5,3.2,2.6,6.6,3.4,10c1.2,5.6,0.1,9.2-9.7,17.2
				C274.7,134.7,259.2,138.1,246.4,138.1z"/>
			<path d="M246.5,140.1c-3,0-6.1-0.1-9.1-0.5c-0.1,0-9.3-1.6-35.3-2.1c-20.8-0.4-28.7,0.5-35.7,1.3c-1.7,0.2-3.3,0.4-5.1,0.5
				c-9.1,0.8-13.9-2.9-14.1-3.1c-0.1-0.1-13-8.1-14.7-9.1c-1.2-0.7-1.7-2.3-1.2-3.6c0-0.1,3.3-10.2,3.7-11.8
				c0.2-0.8-0.2-1.6-0.9-1.9c-0.1-0.1-11-6.3-12.8-7.4c-1.1-0.5-2.3-0.4-3.3,0.2c-0.5,0.2-10.8,5.3-13.2,6.2c-1.4,0.6-3,0.6-4.3-0.1
				c-0.1,0-10-5.5-14.7-7.8c-3.3-1.5-5.7-4.3-6.8-7.8c-0.1-0.3,0.1-0.5,0.4-0.6c0.3-0.1,0.5,0.1,0.6,0.4c1,3.1,3.3,5.7,6.3,7.1
				c4.8,2.4,14.7,7.8,14.8,7.9c1.1,0.5,2.3,0.5,3.4,0c2.3-0.8,12.9-6.1,13-6.1c1.3-0.8,2.9-0.9,4.3-0.3c1.9,1,12.7,7.3,12.8,7.4
				c1.1,0.6,1.7,1.9,1.3,3.1c-0.5,1.7-3.6,11.5-3.8,11.9c-0.4,0.9-0.1,1.9,0.7,2.4c1.7,1.1,14.6,9.1,14.7,9.2
				c0.1,0.1,4.8,3.7,13.5,2.9c1.7-0.2,3.4-0.3,5-0.5c7-0.8,14.9-1.7,35.8-1.3c26.1,0.5,35.4,2.1,35.5,2.1c0.2,0,24.4,3,41.1-6.8
				c16.4-9.8,17-16.7,17-16.8c0-0.3,0.3-0.5,0.5-0.5c0.3,0,0.5,0.2,0.5,0.5c0,0.3-0.5,7.5-17.5,17.6
				C268.7,138.9,255.3,140.1,246.5,140.1z"/>
			<path d="M25.3,151.8c-0.3,0-0.5-0.2-0.5-0.5c0-0.1,0-0.2,0.1-0.3c0.7-0.8,0.8-6.4,0.6-10.1c0-0.1,0.5-8.5-2-15
				c-2.6-6.7-12.1-36.6-13.3-41.5c-1.1-4.5-2.8-4.8-2.9-4.8c-0.3,0-0.5-0.3-0.4-0.5c0-0.3,0.3-0.5,0.5-0.4c0.2,0,2.5,0.3,3.7,5.5
				c1.2,4.9,10.6,34.7,13.2,41.4c2.6,6.7,2.1,15,2.1,15.4c0.1,1.5,0.3,9.3-0.9,10.7C25.6,151.7,25.5,151.8,25.3,151.8z"/>
			<path d="M146.8,152.4c-0.1,0-0.2,0-0.2-0.1l-59.1-34.1c-1.6-1-3.5-2.1-3.8-2.3c-0.1,0-0.1,0-0.1-0.1c-0.7-0.5-1.5-0.6-2.3-0.4
				c-0.7,0.2-15,5.5-20.7,7.8c-5.5,2.1-33.8,14-34.1,14.2c-0.4,0.2-10.5,4.4-13.6-1.4c-3-5.4-9.7-32.3-10-33.4
				c-0.1-0.3,0.1-0.5,0.4-0.6c0.3-0.1,0.5,0.1,0.6,0.4c0.1,0.3,7,27.8,9.9,33.2c2.7,5,12.3,1,12.4,0.9c0.3-0.1,28.6-12,34.1-14.2
				c5.4-2.1,20-7.5,20.8-7.8c1.1-0.3,2.2-0.1,3.2,0.5l0,0c0.5,0.2,1.5,0.8,3.9,2.3l59.1,34.1c0.2,0.1,0.3,0.4,0.2,0.7
				C147.1,152.3,146.9,152.4,146.8,152.4L146.8,152.4z"/>
			<path d="M132.3,138.6c-0.1,0-0.2,0-0.3-0.1l-31.5-18.2c-0.2-0.1-0.3-0.3-0.3-0.4l0.1-11.6c0-0.3,0.2-0.5,0.5-0.5h0
				c0.3,0,0.5,0.2,0.5,0.5l-0.1,11.3l30.5,17.6l0.5-10.5c0-0.3,0.2-0.5,0.5-0.5c0.3,0,0.5,0.2,0.5,0.5l0,0l-0.5,11.4
				C132.8,138.4,132.6,138.6,132.3,138.6L132.3,138.6z"/>
			<path d="M113.9,138.8c-0.1,0-0.2,0-0.3-0.1l-12.4-7.4l0.1,4.7c0,0.3-0.2,0.5-0.5,0.5h0c-0.3,0-0.5-0.2-0.5-0.5l-0.1-5.6
				c0-0.3,0.2-0.5,0.5-0.5c0.1,0,0.2,0,0.3,0.1l13.2,7.9c0.2,0.1,0.3,0.4,0.2,0.7C114.3,138.7,114.1,138.8,113.9,138.8L113.9,138.8z
				"/>
			<path d="M115.9,123.8c-0.3,0-0.5-0.2-0.5-0.5l-0.4-4.3c-1.2-1.5-3-2.3-4.9-2.1c-1.8,0.2-3.6,0.5-5.4,0.9
				c-1.3,0.7-2.6,1.5-3.7,2.5c-0.2,0.2-0.5,0.2-0.7-0.1c-0.2-0.2-0.2-0.5,0.1-0.7c1.2-1.1,2.6-2,4.1-2.6c1.8-0.5,3.7-0.8,5.6-1
				c2.3-0.3,4.5,0.7,5.9,2.6c0.1,0.1,0.1,0.2,0.1,0.3l0.4,4.5C116.5,123.5,116.3,123.8,115.9,123.8C116,123.8,116,123.8,115.9,123.8
				z"/>
			<path d="M132.3,138.6c-0.2,0-0.4-0.1-0.5-0.3c-1-2.3-1.4-4.9-1-7.4c-1.4,0.1-2.9-0.2-4.1-0.9c0,0-12.6-7.3-13.7-7.9
				c-0.5-0.2-0.8-0.8-0.8-1.3c0.1-0.8,0.6-1.5,1.4-1.9c0.6-0.3,1.3-0.6,2-0.6c0.3,0,0.5,0.2,0.5,0.5c0,0.3-0.2,0.5-0.5,0.5
				c-0.6,0.1-1.1,0.2-1.6,0.5c-0.4,0.2-0.7,0.6-0.8,1c0,0.1,0,0.2,0.3,0.4c1.1,0.7,13.7,7.9,13.7,7.9c1.3,0.7,2.8,0.9,4.2,0.7
				c0.3,0,0.5,0.2,0.6,0.4c0,0.1,0,0.1,0,0.2c-0.5,2.5-0.2,5,0.8,7.4c0.1,0.2,0,0.5-0.2,0.7C132.4,138.6,132.4,138.6,132.3,138.6
				L132.3,138.6z M126.7,130.1L126.7,130.1z"/>
			<path d="M131.5,130.9L131.5,130.9c-0.3,0-0.5-0.2-0.5-0.5l0.2-6c0-0.3,0.2-0.5,0.5-0.5c0.3,0,0.5,0.2,0.5,0.5l-0.2,6
				C132,130.7,131.7,130.9,131.5,130.9z"/>
			<path id="Top_Color-3" class="st0" d="M98.1,21.4c-3,1.3-10.5,5.3-12,12.3c-1.9,9,12.3,13.8,12.3,14.1c0,0.1-1.7,5.8-1.7,5.8
				l1.4,1.4l-2.1,1.2l-4,14.1l1.6,1.3L91.2,73l-2.8,11.1c0,0-1.9,9.2,9.8,10.1c13.9,1.1,18.1-10.4,18.1-10.4l2.7-9.2l-1.4-1.5
				l2.1-0.9l4.4-14.9l-1.5-1l2.1-1l1.8-6c0,0,21.4-2.8,21.8-17c0.2-7.1-8-10.8-11.2-12L98.1,21.4z"/>
			<path d="M117.9,124.8c-0.3,0-0.5-0.2-0.5-0.5c0,0,0,0,0,0v-22.1c0-0.3,0.2-0.5,0.5-0.5s0.5,0.2,0.5,0.5v22.1
				C118.4,124.6,118.1,124.8,117.9,124.8C117.9,124.8,117.9,124.8,117.9,124.8z"/>
			<path d="M121.7,127c-0.3,0-0.5-0.2-0.5-0.5c0,0,0,0,0,0v-24.2c0-0.3,0.2-0.5,0.5-0.5s0.5,0.2,0.5,0.5v24.2
				C122.2,126.8,122,127,121.7,127C121.7,127,121.7,127,121.7,127z"/>
			<path d="M134.5,115.8c-0.3,0-0.5-0.2-0.5-0.5c0,0,0,0,0,0v-5.9c0-0.3,0.2-0.5,0.5-0.5s0.5,0.2,0.5,0.5v5.9
				C135,115.6,134.8,115.8,134.5,115.8C134.5,115.8,134.5,115.8,134.5,115.8z"/>
			<path d="M247.2,136c-3,0-6.1-0.2-9.1-0.6c-33.5-4.1-66.7-2-76.1-1.2c-7,0.6-11.2-2.2-11.3-2.4l-14.4-9c-0.1-0.1-0.2-0.2-0.1-0.4
				c0-0.1,2.2-7.1,3.6-11.2c0.8-2.1,0-4.5-2-5.6c-0.1-0.1-9.2-5.3-12.8-7.4c-3.5-2-8,0-8,0l-12.7,5.9c-0.1,0-0.2,0-0.3,0l-14.8-7.7
				c-0.2-0.1-4.8-2.1-5.7-10.2C81.1,72.8,77,56,74.1,43.8L73,39.5c-3-12.5,13.9-20.8,14.1-20.9l10.3-4.9c0.2-0.1,0.4,0,0.4,0.2
				c0.1,0.2,0,0.4-0.2,0.4l0,0l-10.3,4.9c-0.2,0.1-16.6,8.2-13.7,20.2l1.1,4.4c2.9,12.2,7,28.9,9.2,42.5c0.8,7.7,5.2,9.7,5.3,9.7
				l14.7,7.7l12.6-5.9c0.2-0.1,4.9-2.1,8.6,0.1c3.6,2.1,12.7,7.4,12.8,7.4c2.2,1.3,3.2,4,2.3,6.4c-1.2,3.7-3.1,9.7-3.5,11l14.2,8.8
				c0.1,0,4.2,2.8,10.9,2.2c9.4-0.8,42.7-2.9,76.3,1.2c34.5,4.2,50.4-16.8,50.5-17c2-2.4,2.6-5.6,1.7-8.5c-1.6-5.2-2-6.9-2-7v0
				c-1-1.8-2.4-3.4-4.1-4.6c-2.9-2.1-25.4-18.5-25.4-18.5c-4.3-2-9-2.8-13.7-2.2c-0.2,0-0.3-0.1-0.4-0.3c0,0,0,0,0,0
				c0-0.2,0.1-0.3,0.3-0.4c4.8-0.6,9.7,0.2,14.1,2.3c0,0,22.6,16.4,25.5,18.5c1.8,1.3,3.3,3,4.3,4.9c0,0.1,0.5,1.8,2,7
				c1,3.2,0.3,6.6-1.8,9.1C289.1,118.4,275.8,136,247.2,136z"/>
			<path d="M217.8,83c-3.2,0.1-6.4-0.8-9.2-2.4c-6.6-4-46.4-27.2-46.8-27.4c-0.1-0.1-4.1-2.1-4.6-5.1c-0.2-1.5,0.3-3,1.4-4.1
				c4.3-4.7,11-11.3,11-11.4c0.7-0.6,1.2-1.5,1.2-2.5c-0.1-1.1-1.1-2-2.8-2.9c-5.6-2.9-31.3-14.2-31.5-14.3
				c-0.3-0.1-0.4-0.4-0.3-0.7c0.1-0.2,0.4-0.4,0.7-0.3c0.3,0.1,26,11.4,31.6,14.3c2.1,1.1,3.2,2.3,3.3,3.7c0,1.3-0.5,2.5-1.5,3.4
				c0,0-6.7,6.6-11,11.3c-0.9,0.8-1.3,2-1.2,3.2c0.5,2.6,4.1,4.4,4.1,4.4c0.4,0.2,40.2,23.4,46.8,27.4c6.4,3.9,14.2,1.5,14.3,1.5
				l8.4-2c0.3-0.1,0.5,0.1,0.6,0.4s-0.1,0.5-0.4,0.6l-8.4,2C221.8,82.7,219.8,83,217.8,83z"/>
			<path d="M218.4,80.6c-2.5,0.1-5-0.5-7.2-1.7c-7.7-4.8-41.7-24.3-47.1-27.1c-1.9-1-3-2.2-3.2-3.6c-0.1-1.2,0.3-2.5,1.1-3.4
				l14-14.3c0.2-0.2,0.4-0.2,0.6-0.1c0.3,0.1,27.2,14,38,20c10.8,6,36.3,22.7,36.5,22.9c0.2,0.2,0.3,0.5,0.1,0.7
				c-0.1,0.1-0.2,0.2-0.4,0.2c-5.8,0.1-26,5.6-26.2,5.7C222.6,80.3,220.5,80.6,218.4,80.6z M176.4,31.4l-13.7,14.1
				c-0.6,0.7-0.9,1.6-0.9,2.6c0.2,1.1,1.1,2,2.7,2.9c5.6,2.9,39.3,22.1,47.2,27.1c5,2.8,12.5,0.8,12.6,0.8
				c0.8-0.2,17.8-4.8,24.9-5.6c-5.3-3.4-25.9-16.8-35.2-22C203.9,45.6,179.5,33,176.4,31.4L176.4,31.4z"/>
			<path id="Joy_Stick_Line" class="st2" d="M99.6,24c0,0-6.3,2.1-6.3,8.8s7.3,12.1,18.9,13.3c11.1,1.1,28.7-2.5,30-12.1
				c1.1-7.8-6.3-11.4-6.3-11.4"/>
			<path id="Joy_Stick_Line-2" class="st2" d="M226.9,97.4c0,0-6.3,2.1-6.3,8.8s7.3,12.1,18.9,13.3c11.1,1.1,28.7-2.5,30-12.1
				c1.1-7.8-6.3-11.4-6.3-11.4"/>
			<path id="Button_Color" class="st2" d="M148.5,72.9l-4.4,5.2c0,0-0.9,1.1,0.9,2.2s16.7,9.6,16.7,9.6c0.7,0.4,1.5,0.4,2.2,0.1
				c1.5-0.5,9.9-3.1,9.9-3.1s2.4-1.3,0.2-2.7s-20.5-11.8-20.5-11.8C151.9,71.6,149.9,71.8,148.5,72.9z"/>
			<path id="Joy_Stick_Color" class="st2" d="M118.1,3.2c0,0-17.8-0.1-20.6,11.4s11.8,15.4,19.1,15.6s21.7-2.7,20.7-14.9
				S118.1,3.2,118.1,3.2z"/>
			<path d="M117.4,30.8c-0.3,0-0.5,0-0.8,0c-4.3-0.1-13.7-1.9-17.8-7.3c-1.9-2.5-2.6-5.9-1.7-8.9c2.8-11.7,20.3-11.8,21-11.8h0
				c0.2,0,18.6,0.1,19.7,12.6c0.4,3.5-0.7,6.9-3.1,9.4C130.1,29.6,122,30.8,117.4,30.8z M118.1,3.7c-0.3,0-17.4,0.1-20.1,11.1
				c-0.8,2.8-0.2,5.8,1.5,8.1c3.9,5.2,12.9,6.8,17.1,6.9c4.3,0.1,12.7-0.9,17.3-5.7c2.2-2.3,3.2-5.5,2.9-8.7
				C135.8,3.9,118.3,3.7,118.1,3.7C118.1,3.7,118.1,3.7,118.1,3.7z"/>
			<path d="M164.3,51.9c-0.1,0-0.2,0-0.3-0.1c-0.9-0.7-1.5-1.8-1.6-3c0-0.9,0.3-1.8,0.9-2.5c2.4-2.9,5-5.7,7.8-8.2
				c5-4.8,4.8-7.2,4.8-7.2c0-0.3,0.1-0.5,0.4-0.6c0.3,0,0.5,0.1,0.6,0.4c0.1,0.3,0.4,2.9-5,8.1c-2.7,2.5-5.3,5.3-7.7,8.2
				c-0.4,0.5-0.7,1.1-0.7,1.8c0.1,0.9,0.5,1.7,1.3,2.3c0.2,0.2,0.2,0.5,0,0.7C164.6,51.8,164.5,51.9,164.3,51.9L164.3,51.9z"/>
			<path d="M243.8,120.1c-1.5,0-2.9-0.1-4.4-0.2c-11.5-1.2-19.2-6.7-19.2-13.6c0-6.9,6.5-9.1,6.5-9.1c0.2-0.1,0.4,0,0.4,0.2
				c0.1,0.2,0,0.4-0.2,0.4l0,0c-0.2,0.1-6.1,2.1-6.1,8.5c0,6.6,7.5,11.8,18.6,13c11.5,1.2,28.4-2.7,29.6-11.8c1-7.4-6-11-6.1-11
				c-0.2-0.1-0.2-0.3-0.1-0.4c0.1-0.2,0.3-0.2,0.4-0.1c0.1,0,7.5,3.8,6.5,11.7C268.6,116.2,255,120.1,243.8,120.1z"/>
			<path d="M162.7,90.6c-0.5,0-1-0.1-1.4-0.4c-0.5-0.3-14.8-8.4-16.6-9.6c-0.7-0.3-1.2-0.9-1.3-1.7c-0.1-0.5,0.1-0.9,0.3-1.3
				l4.4-5.2c0,0,0,0,0.1-0.1c1.6-1.3,3.7-1.5,5.5-0.5c0.2,0.1,18.3,10.5,20.5,11.8c0.7,0.3,1.1,0.9,1.2,1.7c0,1.1-1.2,1.8-1.4,1.9
				c0,0-0.1,0-0.1,0c0,0-8.4,2.6-9.9,3.1C163.6,90.6,163.1,90.6,162.7,90.6z M144.5,78.4c-0.1,0.1-0.1,0.3-0.1,0.5
				c0.1,0.4,0.5,0.8,0.9,1c1.8,1.1,16.5,9.5,16.6,9.6c0.6,0.3,1.2,0.3,1.8,0c1.4-0.4,9.1-2.8,9.9-3.1c0.3-0.2,0.8-0.6,0.8-1
				c0-0.3-0.4-0.6-0.7-0.8c-2.2-1.3-20.3-11.7-20.5-11.8c-1.4-0.7-3.1-0.6-4.3,0.4L144.5,78.4L144.5,78.4z"/>
			<path id="Button_Color-2" class="st2" d="M150.8,89.7c0,0,1.9,1-0.3,2.6c-1.3,0.9-3,0.8-4.2-0.2l-4.9-2.8
				c-0.2-0.1-1.7-1.2,0.1-2.6c1.1-0.7,2.5-0.8,3.7-0.2L150.8,89.7z"/>
			<path id="Button_Color-3" class="st2" d="M142.9,95.8c0,0,1.8,1.3-0.3,2.9c-1.2,0.8-2.8,0.8-4-0.1c-0.1-0.1-0.3-0.2-0.4-0.2
				l-4.7-2.6c-0.2-0.1-0.4-0.3-0.6-0.5c-0.3-0.4-0.6-1.2,0.5-2.2c1-0.9,2.5-1.1,3.7-0.4L142.9,95.8z"/>
			<polygon id="Power_Symbol" points="160.6,79.7 158.1,81.1 158.9,81.6 161.5,80.2 			"/>
			<path id="Power_Symbol-2" d="M159.5,79.8l-1,0.6c-0.9-0.2-1.8,0.1-2.5,0.6c-1,0.9,0.3,1.6,0.3,1.6c1.1,0.5,2.3,0.5,3.3,0
				c1-0.6,0.6-1.3,0.6-1.3l1.1-0.6c0.3,0.3,0.4,0.8,0.3,1.2c-0.1,0.7-0.8,1.5-2.4,1.8c-4.1,0.7-4.9-1.6-4.9-1.6s-0.5-1.5,1.7-2.3
				c0.6-0.2,1.1-0.3,1.7-0.3C158.4,79.5,159,79.6,159.5,79.8z"/>
			<path d="M148.7,93.5c-1,0-1.9-0.4-2.7-1l-4.9-2.7c-0.6-0.3-1-0.9-1-1.5c0-0.8,0.4-1.5,1.1-1.9c1.2-0.9,2.8-1,4.2-0.3l5.7,3.3
				c0.6,0.3,0.9,0.9,1,1.5c0,0.8-0.5,1.6-1.2,2C150.2,93.2,149.4,93.5,148.7,93.5z M143.4,86.6c-0.6,0-1.1,0.2-1.6,0.5
				c-0.3,0.3-0.7,0.7-0.7,1.1c0,0.4,0.5,0.7,0.5,0.7l4.9,2.8c1,0.9,2.5,1,3.7,0.3c0.5-0.4,0.8-0.8,0.8-1.1c-0.1-0.3-0.2-0.5-0.5-0.7
				l0,0l-5.6-3.3l0,0C144.4,86.7,143.9,86.6,143.4,86.6z"/>
			<path d="M140.8,99.8c-0.9,0-1.8-0.3-2.5-0.8c-0.1-0.1-0.2-0.2-0.4-0.2l-4.7-2.6c-0.3-0.2-0.5-0.4-0.7-0.6
				c-0.3-0.4-0.9-1.6,0.6-2.9c1.2-1,2.9-1.2,4.3-0.5l5.7,3.3c0,0,0,0,0,0c0.5,0.4,0.9,1,0.9,1.7c-0.1,0.8-0.5,1.6-1.2,2
				C142.3,99.5,141.5,99.8,140.8,99.8z M135.6,92.7c-0.7,0-1.3,0.2-1.8,0.7c-1,0.9-0.6,1.4-0.5,1.5c0.1,0.1,0.2,0.3,0.4,0.3l4.7,2.6
				c0.1,0.1,0.3,0.2,0.4,0.3c0.3,0.2,2,1.2,3.4,0.1c0.4-0.3,0.7-0.7,0.8-1.2c0-0.3-0.2-0.6-0.5-0.9L137,93
				C136.5,92.8,136.1,92.7,135.6,92.7z"/>
			<path d="M100,94.8c-0.6,0-1.3,0-1.9-0.1c-4.1-0.3-7-1.7-8.7-4c-1.4-2-1.9-4.4-1.5-6.7l2.8-11.1c0-0.1,0.1-0.2,0.2-0.3l1.6-1
				l-1-0.9c-0.1-0.1-0.2-0.3-0.2-0.5l4-14.1c0-0.1,0.1-0.2,0.2-0.3l1.6-0.9L96.3,54c-0.1-0.1-0.2-0.3-0.1-0.5
				c0.5-1.8,1.3-4.5,1.6-5.5c-0.1-0.1-0.3-0.1-0.5-0.2c-8.9-4.1-12.9-8.9-11.8-14.2c1.5-7.2,9.1-11.2,12.3-12.6
				c0.3-0.1,0.5,0,0.7,0.3s0,0.5-0.3,0.7c-2.4,1-10.3,5-11.7,11.9c-1,4.8,2.8,9.2,11.2,13.1c0.9,0.4,1.1,0.5,1.1,0.8
				c0,0.2,0.1,0.2-1.6,5.8l1.2,1.2c0.2,0.2,0.2,0.5,0,0.7c0,0-0.1,0.1-0.1,0.1l-2,1.1l-3.9,13.6l1.3,1.1c0.2,0.2,0.2,0.5,0.1,0.7
				c0,0-0.1,0.1-0.1,0.1l-2,1.3l-2.8,10.9c-0.3,2.1,0.2,4.2,1.3,5.9c1.5,2.1,4.2,3.2,8,3.6c13.3,1.1,17.4-9.6,17.6-10l2.6-8.9
				l-1.2-1.3c-0.2-0.2-0.2-0.5,0-0.7c0,0,0.1-0.1,0.1-0.1l1.9-0.8l4.2-14.3l-1.2-0.8c-0.2-0.2-0.3-0.5-0.1-0.7
				c0.1-0.1,0.1-0.1,0.2-0.2l1.9-0.9l1.7-5.7c0.1-0.2,0.2-0.3,0.4-0.4c0.2,0,21-3,21.4-16.5c0.2-6.7-7.5-10.3-10.9-11.5
				c-0.3-0.1-0.4-0.4-0.3-0.6c0.1-0.3,0.4-0.4,0.6-0.3c3.5,1.3,11.8,5.1,11.5,12.5c-0.4,13.4-19.2,17-21.9,17.4l-1.7,5.7
				c0,0.1-0.1,0.3-0.3,0.3l-1.3,0.6l0.8,0.5c0.2,0.1,0.3,0.3,0.2,0.6l-4.4,14.9c0,0.1-0.1,0.3-0.3,0.3l-1.5,0.6l0.9,1
				c0.1,0.1,0.2,0.3,0.1,0.5l-2.7,9.2C113.9,90.6,107.3,94.9,100,94.8z"/>
			<path d="M116.5,47c-1.5,0-2.9-0.1-4.4-0.2c-11.7-1.2-19.3-6.6-19.3-13.8c0-7,6.6-9.3,6.6-9.3c0.3-0.1,0.5,0.1,0.6,0.3
				s-0.1,0.5-0.3,0.6c-0.2,0.1-6,2.1-6,8.3c0,6.5,7.4,11.6,18.4,12.8c11.5,1.2,28.2-2.7,29.4-11.7c1-7.3-5.9-10.8-6-10.8
				c-0.2-0.1-0.4-0.4-0.2-0.7s0.4-0.4,0.7-0.2l0,0c0.1,0,7.6,3.8,6.5,11.9C141.4,43,127.7,47,116.5,47z"/>
			<path d="M93.3,33.5c0,0-0.1,0-0.1,0c-0.3-0.1-0.4-0.3-0.3-0.6c0-0.2,1.3-4.4,7.6-8.5c0.2-0.1,0.5-0.1,0.7,0.1
				c0.1,0.2,0.1,0.5-0.1,0.7l0,0C95,29,93.8,33,93.8,33.1C93.7,33.3,93.5,33.5,93.3,33.5z"/>
			<path d="M142.1,32.9c-0.2,0-0.4-0.1-0.5-0.3c-1.4-3.4-3.8-6.4-7-8.3c-0.2-0.1-0.3-0.4-0.2-0.7c0.1-0.2,0.4-0.3,0.7-0.2
				c3.4,2,6,5.1,7.4,8.8c0.1,0.3-0.1,0.5-0.3,0.6C142.3,32.9,142.2,32.9,142.1,32.9z"/>
			<path d="M117.4,30.9c-0.3,0-0.5,0-0.8,0c-4.3-0.1-13.7-1.9-17.8-7.3c-1.9-2.5-2.6-5.9-1.7-8.9c2.8-11.7,20.3-11.8,21-11.8h0
				c0.2,0,18.6,0.1,19.7,12.6c0.4,3.5-0.7,6.9-3.1,9.4C130.1,29.7,122,30.9,117.4,30.9z M118.1,3.8c-0.3,0-17.4,0.1-20.1,11.1
				c-0.8,2.8-0.2,5.8,1.5,8.1c3.9,5.2,12.9,6.8,17.1,6.9c4.3,0.1,12.7-0.9,17.3-5.7c2.2-2.3,3.2-5.5,2.9-8.7
				C135.8,4,118.3,3.8,118.1,3.8C118.1,3.8,118.1,3.8,118.1,3.8z"/>
			<path d="M118.3,28.6c-0.6,0-1.2,0-1.8,0C98,27.7,96.8,17.7,96.7,17.3c0-0.3,0.2-0.5,0.4-0.5c0.3,0,0.5,0.2,0.5,0.4
				c0,0.1,1.3,9.6,18.8,10.4c17.2,0.7,20.3-9.6,20.3-9.7c0.1-0.3,0.3-0.4,0.6-0.3s0.4,0.3,0.3,0.6c0,0,0,0,0,0
				C137.7,18.2,134.7,28.6,118.3,28.6z"/>
			<path id="Joy_Stick_Color-2" class="st2" d="M245.5,76.6c0,0-17.8-0.1-20.6,11.4s11.8,15.4,19.1,15.6s21.7-2.7,20.7-14.9
				S245.5,76.6,245.5,76.6z"/>
			<path d="M244.7,104.2c-0.3,0-0.5,0-0.8,0c-4.3-0.1-13.7-1.9-17.8-7.3c-1.9-2.5-2.6-5.9-1.7-8.9c2.8-11.7,20.2-11.8,21-11.8h0
				c0.2,0,18.6,0.1,19.7,12.6c0.4,3.5-0.7,6.9-3.1,9.4C257.5,103,249.4,104.2,244.7,104.2z M245.5,77.1c-0.3,0-17.4,0.1-20.1,11.1
				c-0.8,2.8-0.2,5.8,1.5,8.1c3.9,5.2,12.9,6.8,17.1,6.9c4.3,0.1,12.7-0.9,17.3-5.7c2.2-2.3,3.2-5.5,2.9-8.7
				C263.1,77.3,245.6,77.1,245.5,77.1L245.5,77.1z"/>
			<path id="Joy_Stick_Color-3" class="st2" d="M99.2,57.9c0,0,1.5-5.6,9.6-5.3s8.6,5.8,8.6,5.8s0.7,5.4-9.6,5.6
				C97.3,63.4,99.2,57.9,99.2,57.9z"/>
			<path id="Button_Color-4" class="st2" d="M99.1,59.7l0,5.2c0,0,3.1,3.5,10.5,2.8s7.7-2.8,7.7-2.8l0.1-5.2L99.1,59.7z"/>
			<path d="M243.8,120.3c-1.5,0-2.9-0.1-4.4-0.2c-11.7-1.2-19.3-6.6-19.3-13.8c0-7,6.6-9.3,6.6-9.3c0.3-0.1,0.5,0.1,0.6,0.3
				s-0.1,0.5-0.3,0.6l0,0c-0.2,0.1-6,2.1-6,8.3c0,6.5,7.4,11.6,18.4,12.8c11.5,1.2,28.2-2.7,29.4-11.7c1-7.3-5.7-10.7-6-10.8
				c-0.2-0.1-0.3-0.4-0.2-0.7c0.1-0.2,0.4-0.3,0.7-0.2c0.1,0,7.6,3.8,6.5,11.9C268.8,116.3,255,120.3,243.8,120.3z"/>
			<path id="Button_Color-5" class="st2" d="M94.3,74.3c0,0,1.5-5.6,9.6-5.3s8.6,5.8,8.6,5.8s0.7,5.4-9.6,5.6
				C92.5,79.8,94.3,74.3,94.3,74.3z"/>
			<path id="Button_Color-6" class="st2" d="M94.2,76.1l0,4.8c2.3,2.3,5.5,3.5,8.7,3.3c3.5-0.2,6.8-1.3,9.6-3.4l-0.2-4.7H94.2z"/>
			<path d="M220.6,106.8c0,0-0.1,0-0.1,0c-0.3-0.1-0.4-0.3-0.3-0.6c0-0.2,1.3-4.4,7.6-8.5c0.2-0.1,0.5-0.1,0.7,0.1
				c0.1,0.2,0.1,0.5-0.1,0.7c-5.9,3.8-7.1,7.8-7.1,7.9C221.1,106.6,220.9,106.8,220.6,106.8z"/>
			<path d="M269.5,106.2c-0.2,0-0.4-0.1-0.5-0.3c-1.4-3.4-3.8-6.4-7-8.3c-0.2-0.1-0.3-0.4-0.2-0.7c0.1-0.2,0.4-0.3,0.7-0.2
				c3.4,2,6,5.1,7.4,8.8c0.1,0.3-0.1,0.5-0.3,0.6C269.6,106.2,269.5,106.2,269.5,106.2L269.5,106.2z"/>
			<path d="M244.7,104.2c-0.3,0-0.5,0-0.8,0c-4.3-0.1-13.7-1.9-17.8-7.3c-1.9-2.5-2.6-5.9-1.7-8.9c2.8-11.7,20.2-11.8,21-11.8h0
				c0.2,0,18.6,0.1,19.7,12.6c0.4,3.5-0.7,6.9-3.1,9.4C257.5,103,249.4,104.2,244.7,104.2z M245.5,77.1c-0.3,0-17.4,0.1-20.1,11.1
				c-0.8,2.8-0.2,5.8,1.5,8.1c3.9,5.2,12.9,6.8,17.1,6.9c4.3,0.1,12.7-0.9,17.3-5.7c2.2-2.3,3.2-5.5,2.9-8.7
				C263.1,77.3,245.6,77.1,245.5,77.1L245.5,77.1z"/>
			<path d="M245.6,101.9c-0.6,0-1.2,0-1.8,0c-18.4-0.9-19.7-10.9-19.7-11.3c0-0.3,0.2-0.5,0.4-0.6c0.3,0,0.5,0.2,0.6,0.4l0,0
				c0,0.1,1.3,9.6,18.8,10.4c17.2,0.7,20.3-9.6,20.3-9.7c0.1-0.3,0.3-0.4,0.6-0.3s0.4,0.3,0.3,0.6c0,0,0,0,0,0
				C265.1,91.5,262,101.9,245.6,101.9z"/>
			<path d="M107.7,64.9c-4.3-0.3-7.1-1.4-8.4-3.3c-0.7-1-0.9-2.3-0.6-3.5c0.1-0.4,1.9-6,10.1-5.6c8.4,0.4,9.1,6.2,9.1,6.3
				c0.1,1.2-0.4,2.4-1.2,3.2C115.1,63.8,112,64.8,107.7,64.9z M99.6,58.3c-0.2,0.9-0.1,1.9,0.5,2.7c1.1,1.6,3.7,2.6,7.6,2.9
				c5-0.1,7.2-1.4,8.2-2.6c0.6-0.7,1-1.6,0.9-2.5c0-0.2-0.7-5.1-8.2-5.4C101.1,53.1,99.6,58.3,99.6,58.3L99.6,58.3z M99.1,58.2
				L99.1,58.2z"/>
			<path d="M102.9,80.8c-4.3-0.3-7.1-1.4-8.4-3.3c-0.7-1-0.9-2.3-0.6-3.5c0.1-0.4,1.9-6,10.1-5.6c8.4,0.4,9.1,6.2,9.1,6.3
				c0.1,1.2-0.4,2.4-1.2,3.2C110.3,79.7,107.2,80.7,102.9,80.8z M94.8,74.2c-0.2,0.9-0.1,1.9,0.5,2.7c1.1,1.6,3.7,2.6,7.6,2.9
				c5-0.1,7.2-1.5,8.2-2.6c0.6-0.7,1-1.6,0.9-2.5c0-0.2-0.7-5.1-8.2-5.4C96.3,69,94.8,74.2,94.8,74.2L94.8,74.2z M94.3,74.1
				L94.3,74.1z"/>
			<path d="M117.2,65.5L117.2,65.5c-0.3,0-0.5-0.2-0.5-0.5l0.1-6.3c0-0.3,0.2-0.5,0.5-0.5c0.3,0,0.5,0.2,0.5,0.5l-0.1,6.3
				C117.7,65.3,117.5,65.5,117.2,65.5z"/>
			<path d="M99.1,65.5c-0.3,0-0.5-0.2-0.5-0.5l0-6.4c0-0.3,0.2-0.5,0.5-0.5c0,0,0,0,0,0h0c0.3,0,0.5,0.2,0.5,0.5l0,6.4
				C99.6,65.3,99.3,65.5,99.1,65.5C99.1,65.5,99.1,65.5,99.1,65.5L99.1,65.5z"/>
			<path d="M108.2,69.8c-0.4,0-0.7,0-1.1,0c-0.3,0-0.5-0.2-0.5-0.5c0,0,0,0,0,0c0-0.3,0.2-0.5,0.5-0.5c0,0,0,0,0,0
				c5.1,0.2,8.9-1.1,11.2-3.8c0.6-0.7,0.9-1.6,0.9-2.5c-0.2-2.1-2.3-3.9-2.4-3.9c-0.2-0.2-0.2-0.5-0.1-0.7c0.2-0.2,0.5-0.2,0.7-0.1
				l0,0c0.1,0.1,2.5,2.1,2.7,4.6c0.1,1.2-0.3,2.3-1.1,3.2C116.8,68.4,113.1,69.8,108.2,69.8z"/>
			<path d="M103.5,69.3c0,0-0.1,0-0.1,0c-4.2-1-7-3.3-7.3-6.2c-0.3-2.2,0.8-4.3,2.8-5.3c0.3-0.1,0.5,0,0.7,0.2
				c0.1,0.3,0,0.5-0.2,0.7c-1.6,0.8-2.5,2.5-2.2,4.3c0.3,2.5,2.8,4.5,6.6,5.3c0.3,0.1,0.4,0.3,0.4,0.6
				C103.9,69.1,103.7,69.3,103.5,69.3L103.5,69.3z"/>
			<path d="M98.9,69.9c-0.1,0-0.2,0-0.2-0.1c-3-1.6-2.9-3.9-2.9-4l0.3-3.4c0-0.3,0.3-0.5,0.5-0.5c0,0,0,0,0,0c0.3,0,0.5,0.3,0.5,0.5
				l-0.3,3.4c0,0.1,0,1.8,2.4,3.1c0.2,0.1,0.3,0.4,0.2,0.7C99.2,69.8,99,69.9,98.9,69.9L98.9,69.9z"/>
			<path d="M110.1,71.2C110.1,71.2,110.1,71.2,110.1,71.2c-0.4,0-0.6-0.3-0.5-0.6c0-0.3,0.3-0.5,0.5-0.4c0,0,0,0,0,0h0
				c1.3-0.2,2.5-0.6,3.6-1.2c5.8-2.5,5.6-5.7,5.6-5.9c0-0.3,0.2-0.5,0.5-0.5c0.3,0,0.5,0.2,0.5,0.4c0,0.2,0.3,4-6.2,6.9
				C112.9,70.6,111.5,71.1,110.1,71.2z"/>
			<path d="M112.5,81.1c-0.3,0-0.5-0.2-0.5-0.5c0,0,0,0,0,0v-5.7c0-0.3,0.2-0.5,0.5-0.5s0.5,0.2,0.5,0.5v5.7
				C113,80.9,112.8,81.1,112.5,81.1C112.5,81.1,112.5,81.1,112.5,81.1z"/>
			<path d="M94.3,81.2c-0.3,0-0.5-0.2-0.5-0.5l-0.1-5.1c0-0.3,0.2-0.5,0.5-0.5h0c0.3,0,0.5,0.2,0.5,0.5l0.1,5.1
				C94.8,80.9,94.6,81.2,94.3,81.2L94.3,81.2z"/>
			<path id="Button_Color-7" class="st2" d="M155.9,109.6c0,0,1.5-5.6,9.6-5.3s8.6,5.8,8.6,5.8s0.7,5.4-9.6,5.6
				C154,115.1,155.9,109.6,155.9,109.6z"/>
			<path d="M102.3,85.8c-0.1,0-0.2,0-0.3,0c-3.5,0.1-6.9-1.3-9.4-3.8c-1.1-1.1-1.7-2.6-1.6-4.1c0.1-1.9,1.3-3.6,3.1-4.3
				c0.3-0.1,0.5,0,0.6,0.3c0.1,0.3,0,0.5-0.3,0.6l0,0c-1.4,0.6-2.3,1.9-2.4,3.5c0,1.3,0.5,2.5,1.4,3.3c2.3,2.3,5.4,3.5,8.6,3.4
				c6.5,0.1,11.3-2.8,12.1-4.9c0.4-1.2,0.3-2.5-0.2-3.6c-0.3-0.8-0.9-1.4-1.6-1.8c-0.3-0.1-0.4-0.4-0.3-0.6s0.4-0.4,0.6-0.3l0,0
				c1,0.4,1.8,1.3,2.2,2.3c0.6,1.4,0.7,2.9,0.2,4.4C114.1,82.6,109.2,85.8,102.3,85.8z"/>
			<path d="M99.5,92.3c-0.8,0-1.5-0.1-2.3-0.2c-6.8-1.2-6.8-6.1-6.8-6.2l0.6-7.6c0-0.3,0.3-0.5,0.5-0.5c0.3,0,0.5,0.3,0.5,0.5
				c0,0,0,0,0,0l-0.6,7.5c0,0.1,0.1,4.1,6,5.1c5,0.6,10-0.9,13.7-4.2c2.4-2.2,3.6-5.5,3.2-8.7c0-0.3,0.2-0.5,0.4-0.6
				c0.3,0,0.5,0.2,0.6,0.4c0.5,3.6-0.8,7.1-3.5,9.6C108.4,90.6,104,92.2,99.5,92.3z"/>
			<path id="Button_Color-8" class="st2" d="M155.7,111.4l0,4.8c2.3,2.3,5.5,3.5,8.7,3.3c3.5-0.2,6.8-1.3,9.6-3.4l-0.2-4.7H155.7z"
				/>
			<path d="M102.8,84.4c-2.4,0-4.8-0.6-6.9-1.8c-2.3-1.3-3.5-2.9-3.7-4.6c-0.1-1.5,0.5-2.9,1.5-3.9c0.2-0.2,0.5-0.2,0.7,0
				c0.2,0.2,0.2,0.5,0,0.7c-0.8,0.8-1.2,1.9-1.2,3.1c0.2,1.4,1.2,2.7,3.2,3.8c6,3.5,14.7,0.6,16.5-2.4c1.5-2.5-0.6-4.6-0.7-4.7
				c-0.2-0.2-0.2-0.5,0-0.7c0.2-0.2,0.5-0.2,0.7,0c1.6,1.6,2,4,0.9,6C112.4,82.2,107.7,84.4,102.8,84.4z"/>
			<path d="M164.4,116.3c-4.3-0.3-7.1-1.4-8.4-3.3c-0.7-1-0.9-2.3-0.6-3.5c0.1-0.4,1.9-6,10.1-5.6c8.4,0.4,9.1,6.2,9.1,6.3
				c0.1,1.2-0.4,2.4-1.2,3.2C171.8,115.2,168.8,116.2,164.4,116.3z M156.3,109.8c-0.2,0.9-0.1,1.9,0.5,2.7c1.1,1.6,3.7,2.6,7.6,2.9
				c5-0.1,7.2-1.4,8.2-2.6c0.6-0.7,1-1.6,0.9-2.5c0-0.2-0.7-5.1-8.2-5.4C157.9,104.5,156.4,109.5,156.3,109.8
				C156.3,109.7,156.3,109.8,156.3,109.8z M155.9,109.6L155.9,109.6z"/>
			<path d="M174.1,116.7c-0.3,0-0.5-0.2-0.5-0.5c0,0,0,0,0,0v-5.7c0-0.3,0.2-0.5,0.5-0.5s0.5,0.2,0.5,0.5v5.7
				C174.6,116.4,174.4,116.7,174.1,116.7C174.1,116.7,174.1,116.7,174.1,116.7z"/>
			<path id="Button_Color-9" class="st2" d="M183.3,106.7c0,0,1.5-5.6,9.6-5.3s8.6,5.8,8.6,5.8s0.7,5.4-9.6,5.6
				C181.5,112.2,183.3,106.7,183.3,106.7z"/>
			<path d="M155.7,109.8L155.7,109.8c0.3,0,0.5,0.2,0.5,0.5l0,0v6c0,0.3-0.2,0.5-0.5,0.5h0c-0.3,0-0.5-0.2-0.5-0.5l0,0v-6
				C155.2,110,155.5,109.8,155.7,109.8z"/>
			<path d="M163.9,121.3c-0.1,0-0.2,0-0.3,0c-3.5,0.1-6.9-1.3-9.4-3.8c-1.1-1.1-1.7-2.6-1.6-4.1c0.1-1.9,1.3-3.6,3.1-4.3
				c0.3-0.1,0.5,0,0.6,0.3c0.1,0.3,0,0.5-0.3,0.6l0,0l0,0c-1.4,0.6-2.3,1.9-2.4,3.5c0,1.3,0.5,2.5,1.4,3.3c2.3,2.3,5.4,3.5,8.6,3.4
				c6.5,0.1,11.3-2.8,12.1-4.9c0.4-1.2,0.3-2.5-0.2-3.6c-0.3-0.8-0.9-1.4-1.6-1.8c-0.3-0.1-0.4-0.4-0.3-0.6s0.4-0.4,0.6-0.3
				c1,0.4,1.8,1.3,2.2,2.3c0.6,1.4,0.7,2.9,0.2,4.4C175.7,118.1,170.8,121.3,163.9,121.3z"/>
			<path d="M161,127.8c-0.8,0-1.5-0.1-2.3-0.2c-6.8-1.2-6.8-6.1-6.8-6.2l0.6-7.6c0-0.3,0.3-0.5,0.5-0.5c0.3,0,0.5,0.3,0.5,0.5
				c0,0,0,0,0,0l-0.6,7.5c0,0.1,0.1,4.1,6,5.1c5,0.6,10-0.9,13.7-4.2c2.4-2.2,3.6-5.5,3.2-8.7c0-0.3,0.2-0.5,0.4-0.6
				c0.3,0,0.5,0.2,0.6,0.4c0.5,3.6-0.8,7.2-3.5,9.6C169.9,126.1,165.6,127.8,161,127.8z"/>
			<path id="Button_Color-10" class="st2" d="M183.2,108.5l0,5c0,0,3.1,3.4,10.5,2.7s7.7-2.7,7.7-2.7l0.1-5H183.2z"/>
			<path d="M164.3,120c-2.4,0-4.8-0.6-6.9-1.8c-2.3-1.3-3.5-2.9-3.7-4.6c-0.1-1.5,0.5-2.9,1.5-3.9c0.2-0.2,0.5-0.2,0.7,0
				c0.2,0.2,0.2,0.5,0,0.7c-0.8,0.8-1.2,1.9-1.2,3.1c0.2,1.4,1.2,2.7,3.2,3.8c6,3.5,14.7,0.6,16.5-2.4c1.5-2.5-0.6-4.6-0.7-4.7
				c-0.2-0.2-0.2-0.5,0-0.7c0.2-0.2,0.5-0.2,0.7,0c1.6,1.6,2,4,0.9,6C173.9,117.7,169.2,120,164.3,120z"/>
			<path d="M107.8,68.3c-2.7,0.1-5.3-0.5-7.7-1.8c-1.6-0.7-2.7-2.2-3.1-3.9c-0.2-1.6,0.3-3.1,1.4-4.4c0.2-0.2,0.5-0.2,0.7,0
				s0.2,0.5,0,0.7c-0.8,1-1.2,2.3-1.1,3.5c0.3,1.4,1.3,2.6,2.6,3.2c5.1,3,12.9,1,12.9,0.9c0,0,3.9-1.2,4.6-3.7
				c0.4-1.2-0.1-2.5-1.3-4c-0.2-0.2-0.1-0.5,0.1-0.7s0.5-0.1,0.7,0.1l0,0c1.4,1.7,1.9,3.4,1.5,4.9c-0.9,3-5.1,4.3-5.3,4.3
				C111.9,68,109.9,68.3,107.8,68.3z"/>
			<path d="M191.9,113.3c-4.3-0.3-7.1-1.4-8.4-3.3c-0.7-1-0.9-2.3-0.6-3.5c0.1-0.4,1.9-6,10.1-5.6c8.4,0.4,9.1,6.2,9.1,6.3
				c0.1,1.2-0.4,2.4-1.2,3.2C199.3,112.3,196.2,113.3,191.9,113.3z M183.8,106.8c-0.2,0.9-0.1,1.9,0.5,2.7c1.1,1.6,3.7,2.6,7.6,2.9
				c5-0.1,7.2-1.4,8.2-2.6c0.6-0.7,1-1.6,0.9-2.5c0-0.2-0.7-5.1-8.2-5.4C185.3,101.6,183.8,106.7,183.8,106.8L183.8,106.8z
				 M183.3,106.7L183.3,106.7z"/>
			<path d="M201.4,114L201.4,114c-0.3,0-0.5-0.2-0.5-0.5l0.1-6.3c0-0.3,0.2-0.5,0.5-0.5s0.5,0.2,0.5,0.5l-0.1,6.3
				C201.9,113.8,201.7,114,201.4,114z"/>
			<path d="M183.3,114c-0.3,0-0.5-0.2-0.5-0.5l0-6.4c0-0.3,0.2-0.5,0.5-0.5h0h0c0.3,0,0.5,0.2,0.5,0.5l0,6.4
				C183.8,113.8,183.6,114,183.3,114L183.3,114L183.3,114z"/>
			<path d="M192.4,118.3c-0.4,0-0.7,0-1.1,0c-0.5,0-10.8-0.9-11.1-6.7c-0.2-2.1,0.9-4.2,2.8-5.3c0.2-0.1,0.5,0,0.7,0.2
				c0.1,0.2,0,0.5-0.2,0.7c0,0,0,0,0,0c-1.5,0.9-2.4,2.6-2.2,4.3c0.3,5,10.1,5.8,10.2,5.8c5.1,0.2,8.9-1.1,11.2-3.8
				c0.6-0.7,0.9-1.6,0.9-2.5c-0.2-2.1-2.3-3.9-2.4-3.9c-0.2-0.2-0.2-0.5-0.1-0.7c0.2-0.2,0.5-0.2,0.7-0.1c0.1,0.1,2.5,2.1,2.7,4.6
				c0.1,1.2-0.3,2.3-1.1,3.2C201,116.9,197.3,118.3,192.4,118.3z"/>
			<path d="M191.4,120.8c-0.9,0-1.7-0.1-2.6-0.2c-4.2-0.6-6.1-2.3-6.2-2.4c-2.6-2.1-2.8-3.8-2.8-3.8l0.3-3.5c0-0.3,0.2-0.5,0.5-0.5
				c0,0,0,0,0,0c0.3,0,0.5,0.3,0.5,0.5l-0.3,3.3c0.5,1.3,1.3,2.4,2.5,3.2c1.6,1.2,3.6,2,5.6,2.2c3.3,0.5,6.6,0,9.7-1.4l0.1-0.1
				c5.8-2.5,4.8-6.4,4.7-6.4c-0.1-0.3,0.1-0.5,0.3-0.6c0.3-0.1,0.5,0.1,0.6,0.3c0,0,1.2,4.8-5.3,7.6l-0.3-0.4l0.2,0.5
				C196.7,120.3,194.1,120.8,191.4,120.8z"/>
			<path d="M192,116.7c-2.7,0.1-5.3-0.5-7.7-1.8c-1.6-0.7-2.7-2.2-3.1-3.9c-0.2-1.6,0.3-3.1,1.4-4.4c0.2-0.2,0.5-0.2,0.7,0
				c0.2,0.2,0.2,0.5,0,0.7c-0.8,1-1.2,2.3-1.1,3.5c0.3,1.4,1.3,2.6,2.6,3.2c5.1,3,12.9,1,12.9,0.9c0,0,3.9-1.2,4.6-3.7
				c0.4-1.2-0.1-2.5-1.3-4c-0.2-0.2-0.1-0.5,0.1-0.7s0.5-0.1,0.7,0.1c1.4,1.7,1.9,3.4,1.5,4.9c-0.9,3-5.1,4.3-5.3,4.3
				C196.1,116.5,194.1,116.7,192,116.7z"/>
			<path d="M289.9,167.8c-0.3,0-0.5-0.2-0.5-0.5c0-0.1,0.1-0.3,0.2-0.4c3.4-3.2,2.9-8.6,2.6-11.9c0-0.7-0.3-1.3-0.8-1.7
				c-0.8-0.4-2.1,0.2-2.1,0.2l-9.5,4.9c-0.2,0.1-0.5,0-0.7-0.2c-0.1-0.2,0-0.5,0.2-0.7l9.5-4.9c0.9-0.5,2-0.6,3-0.2
				c0.8,0.5,1.4,1.5,1.3,2.5c0.3,3.4,0.9,9.1-2.9,12.7C290.2,167.7,290.1,167.8,289.9,167.8z"/>
			<path d="M285.5,151.9c-0.3,0-0.5-0.2-0.5-0.5c0-0.2,0.1-0.4,0.3-0.5l6.9-3.3c0.3-0.1,2.7-1.2,4-0.6c0.4,0.2,0.7,0.5,0.8,0.9
				c0.1,0.3-0.1,0.5-0.4,0.6c-0.3,0.1-0.5-0.1-0.6-0.4c0,0,0,0,0,0c0-0.1-0.1-0.2-0.2-0.3c-0.6-0.3-2.2,0.2-3.1,0.6l-6.8,3.3
				C285.6,151.9,285.6,151.9,285.5,151.9z"/>
			<path d="M284.3,166.6c-0.7,0-1.3-0.1-1.9-0.3c-2.7-0.7-6.5-3.7-6.7-3.8c-0.2-0.2-0.3-0.5-0.1-0.7c0.2-0.2,0.5-0.3,0.7-0.1
				c0,0,3.8,3,6.3,3.7c2.4,0.6,3.6,0.1,4.6-2.1c1.1-2.4,2.3-5.1,1.1-9.7c-0.1-0.3,0.1-0.5,0.4-0.6s0.5,0.1,0.6,0.4c0,0,0,0,0,0
				c1,3.5,0.6,7.2-1.2,10.3C287.2,165.7,286.1,166.6,284.3,166.6z"/>
			<path d="M203.9,103.9c-0.1,0-0.2,0-0.3-0.1l-2.6-1.6l-4,0.3c-0.3,0-0.5-0.2-0.5-0.5c0-0.3,0.2-0.5,0.5-0.5c0,0,0,0,0,0l4.2-0.3
				c0.1,0,0.2,0,0.3,0.1l2.3,1.5l1.4-1.8c0.1-0.1,0.2-0.2,0.3-0.2c0,0,4.7-0.4,7.2-0.7c2.8-4.4,6.8-7.7,11.6-9.6
				c0.3-0.1,0.5,0,0.6,0.3c0.1,0.3,0,0.5-0.3,0.6c-0.1,0-7.4,2.7-11.2,9.3c-0.1,0.1-0.2,0.2-0.4,0.2c-2.1,0.2-6.2,0.6-7.2,0.7
				l-1.5,1.9C204.2,103.8,204.1,103.9,203.9,103.9z"/>
			<path d="M176.4,107c-0.1,0-0.2,0-0.2-0.1l-2.8-1.6l-2.8,0.6c-0.3,0.1-0.5-0.1-0.6-0.4s0.1-0.5,0.4-0.6l3-0.6c0.1,0,0.2,0,0.3,0.1
				l2.6,1.5l1.5-2.1c0.1-0.1,0.2-0.2,0.3-0.2l7.9-1.1c0.3,0,0.5,0.2,0.6,0.4c0,0.3-0.2,0.5-0.4,0.6c0,0,0,0,0,0l-7.7,1.1l-1.6,2.3
				C176.7,107,176.5,107,176.4,107z"/>
			<path d="M161.5,130.4c-2.6,0.1-5.2-0.5-7.6-1.6c-2.1-1-3.6-2.9-4.3-5.1c-1.4-4.4,0-9.2,3.5-12.1c0.2-0.2,0.5-0.1,0.7,0.1
				c0.2,0.2,0.1,0.5-0.1,0.7l0,0c-3.2,2.7-4.5,7.1-3.1,11.1c0.6,2,2,3.6,3.8,4.5c4,2.2,9.8,1.6,12.7,0.8c4-1.2,10.3-2.9,11.4-3.2
				l1.6-2.2c0.1-0.2,0.4-0.3,0.6-0.2l2.5,1.2l22.9-4.2l1.6-1.7c0.2-0.2,0.4-0.2,0.6-0.1l2.4,1.3l7.4-0.8c0.1,0,0.3,0,0.4,0.1
				c0.1,0.1,14.2,12.4,36.5,8.2c22.1-4.1,21.6-17.4,21.6-17.5c0-0.2,0.3-9.8-12.6-16.3c-0.2-0.1-0.3-0.4-0.2-0.7
				c0.1-0.2,0.4-0.3,0.7-0.2c13.5,6.8,13.2,16.8,13.1,17.2c0,0.1,0.6,14.2-22.4,18.5c-21.5,4-35.4-6.9-37.1-8.3l-7.4,0.8
				c-0.1,0-0.2,0-0.3-0.1l-2.2-1.2l-1.4,1.5c-0.1,0.1-0.2,0.1-0.3,0.2l-23.2,4.2c-0.1,0-0.2,0-0.3,0l-2.3-1.1l-1.5,2
				c-0.1,0.1-0.2,0.2-0.3,0.2c-0.1,0-7.2,2-11.6,3.3C165.5,130.2,163.5,130.5,161.5,130.4z"/>
			<g id="Logo">
				<path class="st1" d="M222.9,68.3c0,0-0.1,0-0.1,0c0,0-7.2-0.8-7.5-0.8c-0.1-0.2-1.4-4.4-1.4-4.4c0,0,0-0.1-0.1-0.1l-3.9-2.3
					c-0.1,0-0.2-0.1-0.3,0c0,0,0,0-0.1,0c-0.1,0-0.1,0.1-0.1,0.1c0,0,1.9,5.7,2.1,6.2c-0.7-0.1-11.5-1.3-11.5-1.3
					c-0.1,0-0.2,0-0.2,0c0,0,0,0,0,0c-0.1,0.1,0,0.1,0,0.2l4,2.3c0,0,0.1,0,0.1,0c0,0,8,0.8,8.3,0.9c0.1,0.2,1.5,4.8,1.5,4.8
					c0,0,0,0.1,0.1,0.1l3.9,2.3c0.1,0,0.2,0.1,0.3,0c0,0,0,0,0.1,0c0.1,0,0.1-0.1,0.1-0.1c0,0-2.1-6.2-2.2-6.6
					c0.7,0.1,10.7,1.2,10.7,1.2c0.1,0,0.2,0,0.2,0c0,0,0,0,0,0c0.1-0.1,0-0.1,0-0.2L222.9,68.3z"/>
				<path class="st1" d="M192.1,50.4c-0.1,0-0.1,0-0.2,0c0,0-12.4,0.7-13.1,0.7c0.1-0.4,1.4-7.5,1.4-7.5c0-0.1,0-0.1-0.1-0.1
					l-3.3-1.9c-0.1,0-0.2-0.1-0.3,0c-0.1,0-0.2,0.1-0.2,0.1l-1.6,9.7c0,0.1,0,0.1,0.1,0.1l3.2,1.9c0.1,0,0.1,0,0.2,0l16.9-0.9
					c0.1,0,0.2,0,0.2-0.1c0-0.1,0-0.1-0.1-0.2L192.1,50.4z"/>
				<path class="st3" d="M197.3,53.4c0.5-0.8,1.2-1.4,2-1.9c2.1-1.2,4.9-1.6,6.2-0.9l8.1,4.7c0.4,0.3,0.2,0.8-0.5,1.2
					c-0.6,0.4-1.4,0.5-2.1,0.3l-8.1-4.7c-0.7-0.2-1.4-0.1-2,0.3c-0.7,0.4-1,0.9-0.6,1.2l8.1,4.7c0.4,0.3,0.2,0.8-0.5,1.2l0,0
					c-0.6,0.4-1.4,0.5-2.1,0.3l-8.1-4.7c-0.7-0.2-1.5-0.1-2.1,0.3c-0.7,0.4-0.9,0.9-0.5,1.2l8.1,4.7c0.4,0.3,0.2,0.8-0.5,1.2
					c-0.6,0.4-1.4,0.5-2.1,0.3l-8.1-4.7c-1.3-0.7-0.6-2.4,1.5-3.6C195.1,54,196.2,53.6,197.3,53.4L197.3,53.4z"/>
				<path class="st1" d="M219.9,74.6c0.1,0.1,0.2,0.1,0.2,0.2c0,0.1,0,0.2,0,0.3c-0.1,0.1-0.1,0.2-0.2,0.2c-0.1,0.1-0.3,0.1-0.4,0.1
					c-0.2,0-0.3,0-0.5,0c-0.1,0-0.3-0.1-0.4-0.1c-0.1-0.1-0.2-0.1-0.2-0.2c0-0.1,0-0.2,0-0.3c0.1-0.1,0.1-0.2,0.2-0.2
					c0.1-0.1,0.3-0.1,0.4-0.1c0.2,0,0.3,0,0.5,0C219.7,74.4,219.8,74.5,219.9,74.6z M219.8,74.6c-0.1-0.1-0.2-0.1-0.3-0.1
					c-0.1,0-0.3,0-0.4,0c-0.1,0-0.2,0.1-0.3,0.1c-0.1,0-0.1,0.1-0.2,0.2c0,0.1,0,0.2,0,0.2c0,0.1,0.1,0.1,0.2,0.2
					c0.1,0.1,0.2,0.1,0.3,0.1c0.1,0,0.3,0,0.4,0c0.1,0,0.2-0.1,0.3-0.1c0.1,0,0.1-0.1,0.2-0.2c0-0.1,0-0.2,0-0.2
					C219.9,74.7,219.9,74.7,219.8,74.6L219.8,74.6z M218.6,75l0.7-0.4l0.2,0.1c0.1,0,0.1,0.1,0.2,0.1c0,0,0,0.1,0,0.1
					c0,0,0,0.1-0.1,0.1c-0.1,0-0.1,0-0.2,0c-0.1,0-0.1,0-0.2,0c0,0,0,0,0,0.1c0,0,0,0.1,0,0.1l-0.1,0.1l-0.1-0.1l0-0.1
					c0,0,0-0.1,0-0.2c0,0,0,0-0.1-0.1l-0.1,0l-0.3,0.2L218.6,75z M219.1,74.8l0.1,0.1c0,0,0.1,0.1,0.2,0.1c0,0,0.1,0,0.1,0
					c0,0,0,0,0,0c0,0,0,0,0,0c0,0-0.1-0.1-0.1-0.1l-0.1-0.1L219.1,74.8z"/>
			</g>
			<path id="Outline" d="M118.1,3L118.1,3c0,0,12.7,0,17.5,7.2l0,0c13.9,3.8,58.3,26.4,81.2,39.4c22.9,13,69.4,45.4,69.4,45.4
				c5.5,3.9,9.1,10,9.7,16.8c0.1,1,0.2,2,0.3,2.9l0,0l0,0c1.1,12.7,1.1,25.5-0.2,38.2c0,0-1,11.1-6,14l0,0l0,0
				c-0.4,0.3-0.9,0.4-1.4,0.6c-0.6,0.1-1.2,0.2-1.9,0.2c-5.7,0-11.2-5.2-11.2-5.2l0,0c-7.9,9.3-14.8,19.3-20.7,29.9
				c-14.4,25.8-54.6,40.5-54.6,40.5c-3.3,1.7-7,2.7-10.7,3.1c-1,0.1-2,0.2-3,0.1c-4.6,0-10.2-0.9-18.1-2.4
				c-18.2-3.4-31.6-13.5-36.5-17.7c-1.7-1.4-3-3.1-4-5.1c-2.1-4.1-3.1-8.7-3.1-13.3c0-0.1-0.1-0.2-0.1-0.2l0.1,0
				c0.1-3.1,0.6-6.2,1.6-9.1l0,0c1.2-3.4,15.9-29.9,15.9-29.9s-11.1-4.2-10.8-6.6c-0.1-0.5-0.2-1.1-0.2-1.6c0-0.9-0.3-1.7-0.9-2.3
				l-8-4.6l-8.7-5.6c0,0-0.9,0.1-2.2,0.1c-2.3,0-5.9-0.2-8.2-1.4c-1.9-0.9-3.7-2-5.4-3.1l-9.6-6.2c-19.9,11.3-48.2,20.4-54.9,22
				c-1.1,0.3-2.1,0.5-3.2,0.9c-1.6,0.5-3.2,0.9-4.8,1.2l0,0l0,0c-1.4,0.3-2.9,0.4-4.4,0.5c-1.2,0-2.3-0.1-3.4-0.5
				c-10.3-2.3-12.8-24.2-12.8-24.2s-1.1-13.5-1.6-24.4l0-0.1l0,0C3,98.3,2.9,94.7,3,92.2c0.3-9.5,1.8-10.8,4-13.3
				c36.3-33.4,58.2-44.7,62.5-46.8C74,18.6,97.2,11.2,99.4,10.5C104.6,3,117.8,3,118.1,3 M118.1,0L118.1,0c-1.5,0-14.3,0.2-20.6,7.9
				c-5.8,1.9-25.1,9.1-30.4,22C60,33.5,38.7,45.7,5,76.7c-0.1,0.1-0.2,0.1-0.2,0.2l-0.3,0.3C2,80.1,0.4,82.4,0,92.1
				C0,94.4,0,97.7,0.2,102c0,0.2,0,0.4,0,0.6c0.5,10.8,1.5,24.2,1.6,24.3c0,0,0,0.1,0,0.1c0.3,2.4,3.1,23.9,14.9,26.8
				c1.4,0.5,2.8,0.7,4.3,0.7c1.6,0,3.2-0.2,4.8-0.5c0.1,0,0.1,0,0.2,0c1.7-0.3,3.4-0.7,5-1.2c1-0.3,2-0.6,3-0.8
				c5.8-1.4,33.7-10.1,54.1-21.4l8.1,5.2c1.8,1.2,3.7,2.3,5.7,3.2c2.8,1.5,6.7,1.8,9.6,1.8c0.5,0,1,0,1.4,0l7.9,5.1
				c0,0,0.1,0.1,0.1,0.1l7.4,4.3c0,0.1,0,0.2,0,0.3l0,0.1c0,0.5,0.1,1,0.2,1.5c0,1.5,0.7,4.2,9.6,8c-4.2,7.6-13.4,24.4-14.4,27.4
				c-1.1,3.1-1.7,6.3-1.8,9.5c-0.1,0.4-0.1,0.8,0,1.1c0,5,1.2,9.9,3.4,14.4c1.2,2.3,2.8,4.3,4.8,6c5.1,4.3,19,14.8,37.9,18.3
				c8.4,1.6,13.9,2.5,18.6,2.5c1.1,0,2.2-0.1,3.3-0.2c4-0.4,8-1.5,11.6-3.3c3.5-1.3,41.6-16,56-41.8c5.3-9.6,11.5-18.7,18.5-27.2
				c2.5,1.8,6.5,4.1,10.8,4.1c0.8,0,1.7-0.1,2.5-0.3c0.7-0.2,1.4-0.4,2-0.7c0.2-0.1,0.3-0.2,0.4-0.3c6-3.6,7.2-14.7,7.3-16.2
				c1.3-12.9,1.3-25.9,0.2-38.7c0,0,0-0.1,0-0.1c-0.1-1-0.2-1.9-0.3-2.9c-0.7-7.7-4.8-14.6-11.1-19c-1.8-1.3-47.1-32.8-69.6-45.5
				c-20.2-11.5-65-34.6-80.9-39.4C131.4,0.1,118.7,0,118.1,0z"/>
			<path d="M247.2,136.2c-3,0-6.1-0.2-9.1-0.6c-33.5-4.1-66.7-2-76.1-1.2c-7.1,0.6-11.3-2.3-11.4-2.4l-14.4-9
				c-0.2-0.1-0.3-0.4-0.2-0.6c0-0.1,2.2-7.1,3.6-11.2c0.8-2,0-4.4-1.9-5.4c-0.1-0.1-9.2-5.3-12.8-7.4c-3.4-1.9-7.8,0-7.9,0
				l-12.7,5.9c-0.1,0.1-0.3,0.1-0.4,0l-14.8-7.7c-0.2-0.1-4.9-2.2-5.7-10.3c-2.2-13.5-6.3-30.2-9.2-42.4l-1.1-4.4
				c-3-12.7,14-21,14.2-21.1l10.3-4.9c0.2-0.1,0.5,0,0.7,0.2c0.1,0.2,0,0.5-0.2,0.7c0,0,0,0,0,0l-10.3,4.9
				c-0.2,0.1-16.5,8.1-13.6,20l1.1,4.4c3,12.2,7,28.9,9.2,42.5c0.8,7.6,5.1,9.5,5.2,9.6l14.6,7.6l12.5-5.8c0.2-0.1,4.9-2.1,8.8,0.1
				c3.6,2.1,12.7,7.4,12.8,7.4c2.3,1.3,3.3,4.1,2.4,6.6c-1.2,3.6-3,9.3-3.5,10.8l14.1,8.8c3.3,1.9,7.1,2.6,10.8,2.2
				c9.4-0.8,42.7-2.9,76.3,1.2c34.4,4.2,50.2-16.7,50.4-17c2-2.3,2.6-5.5,1.7-8.4c-1.4-4.7-1.9-6.6-2-6.9c-1-1.8-2.4-3.4-4-4.6
				c-2.9-2.1-25.4-18.5-25.4-18.5l0,0c-4.2-2-8.9-2.7-13.6-2.2c-0.3,0-0.5-0.1-0.6-0.4s0.1-0.5,0.4-0.6c4.9-0.6,9.8,0.2,14.2,2.3
				c0.1,0,22.6,16.4,25.5,18.5c1.8,1.3,3.3,3,4.4,5c0,0,0,0.1,0,0.1c0,0,0.5,1.8,2,6.9c1,3.2,0.3,6.7-1.9,9.3
				C289.3,118.5,275.9,136.2,247.2,136.2z"/>
			<path d="M170,33.3c-0.2,0-0.3-0.1-0.3-0.3c0-0.1,0-0.2,0.1-0.2c0.8-0.7,1.2-1.6,1.2-2.6c-0.1-1.1-1.1-2.2-2.9-3.1
				c-5.6-2.9-31.3-14.2-31.6-14.3c-0.2-0.1-0.2-0.3-0.2-0.4c0.1-0.2,0.3-0.2,0.4-0.2c0,0,0,0,0,0c0.3,0.1,25.9,11.4,31.6,14.3
				c2,1,3.1,2.2,3.2,3.6c0,1.2-0.5,2.4-1.4,3.2C170.1,33.2,170,33.3,170,33.3z"/>
		</g>
	</g>
</g>
</svg>
