<svg xmlns="http://www.w3.org/2000/svg" width="385.10999" height="231.48" viewBox="0 0 385.10999 231.48"><defs><style>.a{fill:#e8eaed;}.b{fill:#97a0ae;}</style></defs><path class="a" d="M244.42675,224h0a12.28336,12.28336,0,0,0-1.35-.11,11.83009,11.83009,0,0,1-6.93-2.14,10.31013,10.31013,0,0,1-4.07-5.85l-5-22a10.4,10.4,0,0,0-4.08-5.85,11.9,11.9,0,0,0-6.92-2.14h-46a11.82989,11.82989,0,0,0-6.93,2.14,10.34,10.34,0,0,0-4.07,5.85l-6,22a10.37,10.37,0,0,1-4.08,5.85,11.83,11.83,0,0,1-6.92,2.14,12.07913,12.07913,0,0,0-1.35.11h0a11.74773,11.74773,0,0,1-1.32.11,3.63977,3.63977,0,0,1-1.31-.22l-36-20a12,12,0,0,1-5.82-4.74,13.41,13.41,0,0,1-2.23-7.15V101.1a25.78975,25.78975,0,0,1,25.64845-25.93025q.16079-.00087.32158.00025h146a25.92,25.92,0,0,1,26,25.83975v0q.0002.08012,0,.16025V192a13.44,13.44,0,0,1-2.19,7.25,12.17994,12.17994,0,0,1-5.81,4.74l-37,20a3.7299,3.7299,0,0,1-1.32.21A9.50926,9.50926,0,0,1,244.42675,224Zm-136.43-134.95a17,17,0,0,0-4.91,12.08v20a35.34,35.34,0,0,0,16,30l35,23c2.08,1.33,5.1,2,9,2h60a13.91987,13.91987,0,0,0,8-2l35-23a38.00014,38.00014,0,0,0,12.32-12.91,34.34014,34.34014,0,0,0,4.68-17.09v-20a16.37008,16.37008,0,0,0-5.42-12.08,18.69993,18.69993,0,0,0-12.58-4.92h-43c-3,1.14-3.89,3.23-6,8.28h0c-.57,1.36-1.2,2.9-2,4.7-2.1,3.65-5.89,8-12,8h-18a12.12,12.12,0,0,1-7.33-2.44,16.30011,16.30011,0,0,1-4.67-5.56,73.64213,73.64213,0,0,0-4.51-9.11,8.85,8.85,0,0,0-4.52-3.86h-43A16.93,16.93,0,0,0,107.99674,89.05Zm-15.94-4.94v-43a16.72,16.72,0,0,1,1-7,18.38,18.38,0,0,1,10-10l.51-.21a16.73,16.73,0,0,1,6.49-1.79h38a16.73,16.73,0,0,1,9,3,13.62992,13.62992,0,0,1,5,7,15,15,0,0,0,5,7c1.94,1.37,4.48,2,8,2h35c3.51,0,6.05-.63,8-2a15,15,0,0,0,5-7,13.51991,13.51991,0,0,1,5-7,16.67009,16.67009,0,0,1,9-3h38a16.80012,16.80012,0,0,1,6.47,1.78l.53.22a18.38,18.38,0,0,1,10,10,17.0003,17.0003,0,0,1,1,7V83.65a31.39,31.39,0,0,0-18.72-13.49,33.53969,33.53969,0,0,0-8.28-1h-146a34.06024,34.06024,0,0,0-16.2,4.09,32.59994,32.59994,0,0,0-11.8,10.85h0Z"/><path class="b" d="M155.43675,39.86v6.39h-1.3V40.94h-3.24V39.86Z"/><path class="b" d="M233.65676,39.86V46.3h-2.74a4.85987,4.85987,0,0,1-1.5-.17,1.56,1.56,0,0,1-.75-.62,2.00008,2.00008,0,0,1-.28-1,1.67,1.67,0,0,1,.43-1.19,2,2,0,0,1,1.27-.6,2.75991,2.75991,0,0,1-.69-.54,7.13068,7.13068,0,0,1-.74-1l-.79-1.25h1.55l1,1.4a9.46263,9.46263,0,0,0,.68,1,.87.87,0,0,0,.39.26,2.08946,2.08946,0,0,0,.66.08h.26V39.86Zm-1.3,3.71h-1a5.05024,5.05024,0,0,0-1.17.08.75.75,0,0,0-.37.28.89993.89993,0,0,0-.13.48.77.77,0,0,0,.18.53.82.82,0,0,0,.49.25h1.95Z"/><path class="b" d="M171.44675,145.19V138h5.31v1.21h-3.87v1.59h3.6V142h-3.6v2h4v1.21Z"/><path class="b" d="M210.99675,145.19V138h4.91v1.21h-3.46v1.7h3v1.21h-3v3Z"/><polygon class="b" points="221.557 136.39 218.747 140.55 224.357 140.55 221.557 136.39"/><polygon class="b" points="221.557 146.4 224.357 142.25 218.747 142.25 221.557 146.4"/><polygon class="b" points="165.557 136.39 162.747 140.55 168.357 140.55 165.557 136.39"/><polygon class="b" points="165.557 146.4 168.357 142.25 162.747 142.25 165.557 146.4"/><polygon class="b" points="145.557 37.75 142.747 41.9 148.357 41.9 145.557 37.75"/><polygon class="b" points="145.557 47.76 148.357 43.6 142.747 43.6 145.557 47.76"/><polygon class="b" points="239.557 37.75 236.746 41.9 242.357 41.9 239.557 37.75"/><polygon class="b" points="239.557 47.76 242.357 43.6 236.746 43.6 239.557 47.76"/><path class="b" d="M266.14415,131.72978a4.07675,4.07675,0,0,1,1.36881.19481,2.28369,2.28369,0,0,1,.85108.50748,1.732,1.732,0,0,1,.43584.69217,2.41818,2.41818,0,0,1,.123.74853,2.34423,2.34423,0,0,1-.282,1.19976,2.00616,2.00616,0,0,1-.90755.77933l1.51761,3.19921h-1.3535L266.585,136.1389q-.0923.01038-.19481.0154-.10269.00529-.21539.00517h-1.31245v2.8916h-1.22023v-7.32129Zm.09221,3.38378a2.35993,2.35993,0,0,0,.69724-.08717,1.04953,1.04953,0,0,0,.43584-.2461.89255.89255,0,0,0,.22562-.38454,1.77272,1.77272,0,0,0,.06658-.50243,1.35161,1.35161,0,0,0-.07682-.46653.83247.83247,0,0,0-.25643-.35891,1.26838,1.26838,0,0,0-.47677-.23068,2.822,2.822,0,0,0-.73827-.08211h-1.25093v2.35848Z"/><path class="b" d="M271.07613,136.949a1.5361,1.5361,0,0,0,.38454.98943,1.43155,1.43155,0,0,0,.99979.29232,1.45631,1.45631,0,0,0,.95367-.28714,1.1159,1.1159,0,0,0,.34856-.91262,1.06908,1.06908,0,0,0-.32292-.87156,1.45982,1.45982,0,0,0-.94849-.26667h-.7691v-1.03554h.82027a.88208.88208,0,0,0,1.00061-.7449l.00435-.03444a1.2239,1.2239,0,0,0,.04094-.51277.81256.81256,0,0,0-.35878-.59983,1.72051,1.72051,0,0,0-1.69712.07175,1.60055,1.60055,0,0,0-.46654.846l-1.10742-.15387a3.25626,3.25626,0,0,1,.25128-.75369,2.0259,2.0259,0,0,1,.46653-.62546,2.11355,2.11355,0,0,1,.7331-.42549,3.207,3.207,0,0,1,1.06131-.15387,3.14606,3.14606,0,0,1,1.03567.15387,2.13764,2.13764,0,0,1,.728.41008,1.60792,1.60792,0,0,1,.42549.59477,1.87677,1.87677,0,0,1,.13846.71781,1.722,1.722,0,0,1-.98437,1.64065,1.777,1.777,0,0,1,.88194.70241,1.91151,1.91151,0,0,1,.26656.99966,2.1825,2.1825,0,0,1-.62041,1.64584,2.58185,2.58185,0,0,1-1.86112.59983,3.21677,3.21677,0,0,1-1.23047-.205,2.12108,2.12108,0,0,1-.7844-.53325,1.99194,1.99194,0,0,1-.42042-.73827,3.26663,3.26663,0,0,1-.14868-.81Z"/><path class="b" d="M255.777,131.57336l-2.07063,3.14757a.16737.16737,0,0,1-.04633.04607.16075.16075,0,0,1-.22221-.04607l-2.07126-3.14757a.16611.16611,0,0,1-.02616-.08853.15963.15963,0,0,1,.15945-.15983h4.14352a.15726.15726,0,0,1,.08737.02579A.1612.1612,0,0,1,255.777,131.57336Z"/><path class="b" d="M253.57169,141.37224c-1.316,0-2.89271-.35021-3.00546-1.33705l-.00359-.05976-.00811-1.71289c-2.13421-.54588-3.44049-1.62837-3.44049-2.87948,0-1.21671,1.22171-2.279,3.26813-2.84165a.54893.54893,0,1,1,.29224,1.05825l-.00122.00034c-1.47215.40473-2.46122,1.1213-2.46122,1.783,0,.749,1.23482,1.53286,3.0029,1.90635l.43338.09152.01182,2.48622a4.69127,4.69127,0,0,0,3.82344,0l.01176-2.48622.43336-.09152c1.76807-.37349,3.00291-1.15737,3.00291-1.90635,0-.66145-.98849-1.37786-2.45968-1.7827a.54891.54891,0,0,1,.29126-1.05848c2.04528.56276,3.26632,1.62487,3.26632,2.84118,0,1.25112-1.30628,2.33354-3.44042,2.87949l-.01171,1.77266C256.4645,141.022,254.88768,141.37224,253.57169,141.37224Z"/><path class="b" d="M114.22709,131.72978v6.24455H117.857l-.15381,1.07672h-4.71682v-7.32127Z"/><path class="b" d="M119.70267,136.949a1.53609,1.53609,0,0,0,.38449.98943,1.4315,1.4315,0,0,0,.99978.29232,1.456,1.456,0,0,0,.95361-.28715,1.11556,1.11556,0,0,0,.34867-.91261,1.069,1.069,0,0,0-.323-.87156,1.45961,1.45961,0,0,0-.9485-.26667h-.769v-1.03556h.82033a.882.882,0,0,0,1.00054-.74491l.00435-.03441a1.22589,1.22589,0,0,0,.041-.51277.8125.8125,0,0,0-.35891-.59983,1.7203,1.7203,0,0,0-1.697.07176,1.59974,1.59974,0,0,0-.46653.846l-1.10748-.15387a3.25348,3.25348,0,0,1,.25127-.7537,2.02524,2.02524,0,0,1,.46653-.62551,2.11255,2.11255,0,0,1,.73317-.42549,3.20655,3.20655,0,0,1,1.06125-.15386,3.14626,3.14626,0,0,1,1.03566.15386,2.1374,2.1374,0,0,1,.728.41009,1.60882,1.60882,0,0,1,.42554.59476,1.87818,1.87818,0,0,1,.1384.71781,1.722,1.722,0,0,1-.98438,1.64066,1.7767,1.7767,0,0,1,.88185.7024,1.911,1.911,0,0,1,.26663.99967,2.18267,2.18267,0,0,1-.62041,1.64583,2.58189,2.58189,0,0,1-1.86106.59983,3.21611,3.21611,0,0,1-1.23046-.205,2.12065,2.12065,0,0,1-.78447-.53325,1.9919,1.9919,0,0,1-.42044-.73827,3.26748,3.26748,0,0,1-.14869-.81Z"/><path class="b" d="M134.42415,131.57336l-2.07063,3.14757a.16755.16755,0,0,1-.04634.04607.16071.16071,0,0,1-.22219-.04607l-2.07128-3.14757a.16629.16629,0,0,1-.02616-.08853.15965.15965,0,0,1,.15947-.15983h4.14346a.15726.15726,0,0,1,.08737.02579A.16122.16122,0,0,1,134.42415,131.57336Z"/><path class="b" d="M132.2189,141.37224c-1.31594,0-2.89266-.35009-3.00553-1.33705l-.00359-.05976-.00812-1.71289c-2.13413-.546-3.44041-1.62842-3.44041-2.87948,0-1.21671,1.22169-2.27907,3.26808-2.8416a.54888.54888,0,1,1,.291,1.05848c-1.47215.40479-2.46123,1.12142-2.46123,1.78312,0,.74886,1.23482,1.53279,3.0029,1.90628l.43337.09164.01176,2.4861a4.6902,4.6902,0,0,0,3.8235.00011l.01176-2.48621.43338-.09164c1.76806-.37349,3.0029-1.15742,3.0029-1.90628,0-.66146-.98849-1.37776-2.45968-1.78266a.54891.54891,0,1,1,.29127-1.05848c2.04527.56277,3.26632,1.62487,3.26632,2.84114,0,1.251-1.30628,2.33353-3.44043,2.87948l-.0117,1.77266C135.11167,141.022,133.53488,141.37224,132.2189,141.37224Z"/></svg>
