<?xml version="1.0" encoding="utf-8"?>
<!-- Generator: Adobe Illustrator 23.0.3, SVG Export Plug-In . SVG Version: 6.00 Build 0)  -->
<svg version="1.1" id="Layer_1" xmlns="http://www.w3.org/2000/svg" xmlns:xlink="http://www.w3.org/1999/xlink" x="0px" y="0px"
	 viewBox="0 0 124.6 195.8" style="enable-background:new 0 0 124.6 195.8;" xml:space="preserve">
<style type="text/css">
	.st0{fill:#D0D2D3;}
	.st1{fill:#808184;}
	.st2{fill:none;stroke:#000000;stroke-linecap:round;stroke-linejoin:round;}
</style>
<title>IQGyro</title>
<g>
	<g id="Gyro">
		<path class="st0" d="M45.5,150.2c11.4,5.3,24.7,4.7,35.5-1.7l35.8-20.9c3-1.7,4.8-4.9,4.7-8.4V41.5c0-5.7-3-11-8-13.8L79.5,7.8
			C68.6,1.4,55,1.4,44,7.8l-34.4,20C5.5,30.1,3,34.6,3,39.3v81.1c0,3.3,1.8,6.3,4.6,8L45.5,150.2z"/>
		<path class="st1" d="M121.6,100c0,3.4-1.8,6.6-4.7,8.4L81,129.3c-10.9,6.3-24.1,7-35.5,1.7l-0.5-0.2L9.8,110.6c0,0-5-3.1-6.7-6.1
			C3,110.4,3,121.1,3,121.1c0.4,3.1,2.2,5.8,4.9,7.5l37.6,21.7c11.4,5.2,24.6,4.5,35.5-1.7l35.8-20.9c3.1-2,4.9-5.5,4.7-9.2V100z"/>
		<polygon class="st1" points="9.8,95.2 9.8,110.6 45.1,130.8 44.9,115.4 		"/>
		<path class="st1" d="M30.6,74v-5.5l-4.5-2.6v-4.2l-10.7-6.2v3.6l-3-1.8v35.8l0,0l30.1,17.4V80.8L30.6,74z"/>
		<path class="st1" d="M48.7,65.4l-36-20.7c-3.4-2-4.6-6.4-2.7-9.8c0.6-1.1,1.6-2,2.7-2.7l36.5-20.9c7.8-4.4,17.3-4.4,25,0
			l36.4,20.9c3.5,2,4.7,6.4,2.7,9.9c-0.6,1.1-1.6,2-2.7,2.7l-36,20.6C66.5,70,56.7,70,48.7,65.4z"/>
		<line class="st2" x1="45.1" y1="72.7" x2="45.1" y2="130.8"/>
		<path class="st2" d="M45.1,72.7L9.8,52.4v58.2l-2-1.4c-2-1.2-3.6-2.9-4.8-5"/>
		<path class="st2" d="M45.5,150.2c11.4,5.3,24.7,4.7,35.5-1.7l35.8-20.9c3-1.7,4.8-4.9,4.7-8.4V41.5c0-5.7-3-11-8-13.8L79.5,7.8
			C68.6,1.4,55,1.4,44,7.8l-34.4,20C5.5,30.1,3,34.6,3,39.3v81.1c0,3.3,1.8,6.3,4.6,8L45.5,150.2z"/>
		<path class="st2" d="M48.7,65.4l-36-20.7c-3.4-2-4.6-6.4-2.7-9.8c0.6-1.1,1.6-2,2.7-2.7l36.5-20.9c7.8-4.4,17.3-4.4,25,0
			l36.4,20.9c3.5,2,4.7,6.4,2.7,9.9c-0.6,1.1-1.6,2-2.7,2.7l-36,20.6C66.5,70,56.7,70,48.7,65.4z"/>
		<path class="st2" d="M63.3,60.5l35.3-20.2c0.3-0.2,0.4-0.6,0.2-0.9c-0.1-0.1-0.1-0.2-0.2-0.2l-36.3-21c-0.5-0.3-1-0.3-1.5,0
			L24.5,39c-0.2,0.1-0.3,0.4-0.2,0.6c0,0.1,0.1,0.1,0.2,0.2l35.9,20.7C61.3,61,62.4,61.1,63.3,60.5z"/>
		<path class="st0" d="M77.9,38.7l-9.5,3.5l2.9,1.2l0.2,0.1c-3,1.4-6.3,2-9.6,2c-7.9,0-14.6-3.6-14.6-7.9s6.7-7.9,14.6-7.9
			c3.6-0.1,7.3,0.8,10.5,2.5c0.3,0.2,0.7,0.1,0.8-0.2c0.2-0.3,0.1-0.7-0.2-0.8c-3.4-1.8-7.2-2.7-11.1-2.6c-8.7,0-15.8,4.1-15.8,9.2
			s7.1,9.2,15.8,9.2c3.8,0.1,7.6-0.8,11-2.6l3.2,1.3L77.9,38.7z"/>
		<path class="st0" d="M69.2,36.5l-5.3-3.1c-0.2-0.1-0.5-0.2-0.8-0.2l0,0c-0.6,0-1,0.3-1,0.6c0,0.2,0.1,0.3,0.3,0.4l4.3,2.5L55,37.3
			c-0.6,0-1.3,0.4-1.3,0.8c0,0.4,0.5,0.7,0.5,0.7l6.6,3.8c0.2,0.1,0.4,0.1,0.6,0.1c0.6,0,1-0.3,1-0.6c0-0.2-0.1-0.3-0.2-0.4
			l-5.3-3.1l12-0.6c0.5,0,0.8-0.4,0.8-0.9C69.6,36.8,69.5,36.6,69.2,36.5z"/>
		<path class="st2" d="M45.5,150.2c11.4,5.3,24.7,4.7,35.5-1.7l35.8-20.9c3-1.7,4.8-4.9,4.7-8.4V41.5c0-5.7-3-11-8-13.8L79.5,7.8
			C68.6,1.4,55,1.4,44,7.8l-34.4,20C5.5,30.1,3,34.6,3,39.3v81.1c0,3.3,1.8,6.3,4.6,8L45.5,150.2z"/>
		<path class="st2" d="M33.8,75.7l-13,7.5c-0.9,0.5-1.5,1.6-1.5,2.6v4.7L15.2,93c-0.9,0.5-2,0.5-2.8,0l0,0l30.1,17.4V80.7l-11.8-6.8
			v-5.5l-4.5-2.6v-3.9l-10.7-6.2v3.3l-3-1.8V93"/>
		<path class="st2" d="M121.6,100c0,3.4-1.8,6.6-4.7,8.4L81,129.3c-10.9,6.3-24.1,7-35.5,1.7l-0.5-0.2L9.8,110.6"/>
		<line class="st2" x1="9.8" y1="95.2" x2="44.9" y2="115.4"/>
		<path d="M61.8,3C68,3,74.1,4.7,79.5,7.8l34.1,19.9c4.9,2.8,8,8.1,8,13.8v77.8c0,3.4-1.8,6.6-4.7,8.4L81,148.6
			c-10.9,6.3-24.1,7-35.5,1.7L7.6,128.4c-2.8-1.6-4.6-4.7-4.6-8V39.3c0-4.8,2.5-9.2,6.7-11.6L44,7.8C49.4,4.6,55.5,3,61.8,3 M61.8,0
			C55,0,48.4,1.8,42.5,5.2l-34.4,20C3.1,28.1,0,33.5,0,39.3v81.1c0,4.4,2.3,8.4,6.1,10.6L44,152.8c0.1,0,0.2,0.1,0.2,0.1
			c12.3,5.7,26.6,5,38.3-1.8l35.8-20.9c3.9-2.3,6.3-6.5,6.2-11l0-77.8c0-6.8-3.6-13-9.5-16.4L81,5.2C75.2,1.8,68.5,0,61.8,0L61.8,0z
			"/>
	</g>
</g>
</svg>
