<svg xmlns="http://www.w3.org/2000/svg" width="121" height="100" viewBox="0 0 121 100">
    <defs>
        <style>
            .a {
                fill: #2ca3fc;
            }
        </style>
    </defs>
    <path class="a"
        d="M78.82273,10.35854,61.63292,36.48848a1.38778,1.38778,0,0,1-.38488.38235,1.33417,1.33417,0,0,1-1.84459-.38235L42.20859,10.35854a1.37994,1.37994,0,0,1-.21719-.73491,1.32531,1.32531,0,0,1,1.3237-1.3269l.00823,0H77.713a1.30587,1.30587,0,0,1,.72532.21408A1.33829,1.33829,0,0,1,78.82273,10.35854Z" />
    <path class="a"
        d="M60.51562,91.70478c-10.9248,0-24.01416-2.90722-24.95019-11.0996l-.02979-.4961-.06738-14.21972C17.751,61.35762,6.90674,52.37129,6.90674,41.98506c0-10.10059,10.14209-18.91944,27.13037-23.59033a4.55707,4.55707,0,1,1,2.42705,8.785l-.011.003C24.23193,30.54268,16.021,36.49141,16.021,41.98506c0,6.21777,10.251,12.7251,24.92871,15.82568l3.59765.75977.09815,20.63965c1.398,1.26806,7.0625,3.38037,15.87011,3.38037,8.80811,0,14.47266-2.11231,15.87061-3.38037l.09766-20.63965,3.59765-.75977c14.67774-3.10058,24.92871-9.60791,24.92871-15.82568,0-5.49121-8.20605-11.43848-20.41943-14.79932a4.55686,4.55686,0,0,1,2.418-8.78711c16.979,4.67188,27.11572,13.48926,27.11572,23.58643,0,10.38623-10.84424,19.37207-28.561,23.9043l-.09717,14.71582C84.53027,88.79756,71.44043,91.70478,60.51562,91.70478Z" />
</svg>
