<svg xmlns="http://www.w3.org/2000/svg" width="121" height="100" viewBox="0 0 121 100">
    <defs>
        <style>
            .a {
                fill: #2ca3fc;
            }
        </style>
    </defs>
    <path class="a"
        d="M87.00885,18.39862a4.54611,4.54611,0,0,0-5.142,2.12439l-.03027-.00763L68.3999,40.94019l-.02215.03369-.02253.03344a9.4351,9.4351,0,0,1-15.71814-.06622L39.05457,20.30066l-.00867.00189a4.54182,4.54182,0,0,0-5.00879-1.90784C17.04883,23.06561,6.90674,31.88446,6.90674,41.98505c0,10.38623,10.84424,19.37255,28.56152,23.90429l.06738,14.21973.02979.49609c.936,8.19239,14.02539,11.09961,24.95019,11.09961s24.01465-2.90722,24.95075-11.09961l.09717-14.71582c17.71679-4.53222,28.561-13.51806,28.561-23.90429C114.12457,31.88788,103.98785,23.0705,87.00885,18.39862Z" />
    <path class="a"
        d="M59.40344,36.48846a1.3337,1.3337,0,0,0,1.84461.38233,1.38756,1.38756,0,0,0,.38488-.38233L78.82275,10.35852a1.33833,1.33833,0,0,0-.3844-1.84772,1.30617,1.30617,0,0,0-.71655-.21411l-.00879.00006H43.31512A1.3253,1.3253,0,0,0,41.99139,9.6236a1.38012,1.38012,0,0,0,.21717.73492Z" />
</svg>
