<svg id="Layer_1" data-name="Layer 1" xmlns="http://www.w3.org/2000/svg" viewBox="0 0 245 100">
    <path d="M26.16528,11.65692V63.49676H56.29907l-1.27685,8.93848H15.865V11.65692Z" />
    <path
        d="M71.62134,54.985q.59472,5.78907,3.19189,8.21387,2.5957,2.42724,8.29981,2.42676,5.02147,0,7.9165-2.38379,2.89307-2.38184,2.89453-7.57617,0-5.02149-2.68164-7.23535-2.6814-2.21338-7.874-2.21387H76.98413V37.61981h6.81006q7.31982,0,8.34228-6.46973a10.17678,10.17678,0,0,0,.34034-4.25683,6.7449,6.7449,0,0,0-2.9795-4.9795A11.70734,11.70734,0,0,0,83.113,20.33954q-5.10718,0-7.70362,2.16992-2.59789,2.17089-3.873,7.02344l-9.19385-1.27735a27.01207,27.01207,0,0,1,2.08594-6.25683,16.81158,16.81158,0,0,1,3.873-5.19239,17.53667,17.53667,0,0,1,6.08643-3.53222A26.61777,26.61777,0,0,1,83.198,11.99676a26.1178,26.1178,0,0,1,8.59765,1.27735,17.7397,17.7397,0,0,1,6.044,3.40429,13.35522,13.35522,0,0,1,3.53271,4.9375,15.5904,15.5904,0,0,1,1.14893,5.959q0,9.36474-8.17187,13.62011a14.74983,14.74983,0,0,1,7.3208,5.83106,15.86437,15.86437,0,0,1,2.21337,8.29883q0,8.68359-5.15039,13.66308-5.15112,4.979-15.4497,4.9795A26.69934,26.69934,0,0,1,73.0686,72.26532a17.60529,17.60529,0,0,1-6.5122-4.42676,16.536,16.536,0,0,1-3.49024-6.12891A27.12,27.12,0,0,1,61.83179,54.985Z" />
    <path
        d="M194.36989,10.35855,177.18008,36.48849a1.388,1.388,0,0,1-.38488.38236,1.33419,1.33419,0,0,1-1.8446-.38236L157.75574,10.35855a1.38011,1.38011,0,0,1-.21719-.73491,1.32531,1.32531,0,0,1,1.33193-1.32688H193.2602a1.306,1.306,0,0,1,.72531.21408A1.33828,1.33828,0,0,1,194.36989,10.35855Z" />
    <path
        d="M175.52612,91.70477c-10.92431,0-24.01367-2.90625-24.95068-11.09961l-.02979-.49609-.06738-14.21973c-17.7168-4.53223-28.561-13.51855-28.561-23.9043,0-10.10058,10.14209-18.91992,27.13037-23.58984a4.5566,4.5566,0,1,1,2.416,8.78711c-12.22119,3.36035-20.43213,9.30957-20.43213,14.80273,0,6.2168,10.251,12.72461,24.92872,15.8252l3.59765.76074.09766,20.63867c1.398,1.26856,7.0625,3.38184,15.8706,3.38184s14.47266-2.11328,15.87061-3.38086l.09765-20.63965,3.59766-.76074c14.67774-3.10059,24.92871-9.6084,24.92871-15.8252,0-5.49121-8.20605-11.4375-20.41943-14.79882a4.55686,4.55686,0,1,1,2.418-8.78711C218.99829,23.071,229.135,31.88836,229.135,41.985c0,10.38575-10.84424,19.37207-28.561,23.9043l-.09716,14.71582C199.54077,88.79754,186.45093,91.70477,175.52612,91.70477Z" />
</svg>
