<svg xmlns="http://www.w3.org/2000/svg" width="184" height="76.288" viewBox="0 0 184 76.288">
  <g id="motor-reverse" transform="translate(-306 -425.213)">
    <path id="BG" d="M315.008,432.5H480.992A6.946,6.946,0,0,1,488,439.381v53.238a6.946,6.946,0,0,1-7.008,6.881H315.008A6.946,6.946,0,0,1,308,492.619V439.381A6.946,6.946,0,0,1,315.008,432.5Z" fill="#e7e9ec"/>
    <path id="pattern" d="M482.912,444.139a9.015,9.015,0,0,0-14.651-7.043l-4.6-4.6h-2.828l6.01,6.01a8.97,8.97,0,0,0-1.92,4.629h-25.1a8.98,8.98,0,0,0-1.919-4.629l6.01-6.01H441.1l-4.6,4.6a9,9,0,0,0-11.258,0l-4.6-4.6h-2.829l6.009,6.009a8.979,8.979,0,0,0-1.921,4.63H396.812a8.973,8.973,0,0,0-1.92-4.63L400.9,432.5h-2.828l-4.6,4.6a8.995,8.995,0,0,0-11.258,0l-4.6-4.6H374.8l6.01,6.01a8.97,8.97,0,0,0-1.92,4.629h-25.1a8.97,8.97,0,0,0-1.92-4.629l6.01-6.01h-2.828l-4.6,4.6a8.995,8.995,0,0,0-11.258,0l-4.6-4.6h-2.829l6.01,6.009a9,9,0,0,0,0,11.259l-8.836,8.838a9.022,9.022,0,1,0,0,14.086l8.838,8.838a9,9,0,0,0,0,11.259l-6.711,6.711H333.9l5.3-5.3a9,9,0,0,0,11.26,0l5.3,5.3h2.828l-6.711-6.711a8.98,8.98,0,0,0,1.919-4.629h25.1a8.981,8.981,0,0,0,1.919,4.629l-6.711,6.711h2.828l5.3-5.3a9,9,0,0,0,11.259,0l5.3,5.3H401.6l-6.711-6.711a8.978,8.978,0,0,0,1.92-4.63H421.9a8.979,8.979,0,0,0,1.921,4.63l-6.711,6.711h2.828l5.3-5.3a9,9,0,0,0,11.259,0l5.3,5.3h2.828l-6.712-6.712a8.977,8.977,0,0,0,1.919-4.629h25.1a8.973,8.973,0,0,0,1.92,4.63l-6.711,6.711h2.828l5.3-5.3A9.019,9.019,0,1,0,474.89,478.2V453.1A9.022,9.022,0,0,0,482.912,444.139Zm-43.08,1h25.1a8.98,8.98,0,0,0,1.919,4.629l-8.837,8.838a9,9,0,0,0-11.258,0l-8.838-8.838A8.973,8.973,0,0,0,439.832,445.139Zm16.748,26.127a6.983,6.983,0,0,1-8.4,0h0a6.99,6.99,0,0,1-1.414-1.414h0a6.984,6.984,0,0,1,.006-8.413,7.062,7.062,0,0,1,1.409-1.407h0a6.984,6.984,0,0,1,8.4,0h0A7.05,7.05,0,0,1,458,461.448h0a6.984,6.984,0,0,1,0,8.4,7.073,7.073,0,0,1-1.415,1.414Zm-32.654-28.127a6.967,6.967,0,0,1,1.33-3.207,7.039,7.039,0,0,1,1.412-1.41h0a6.984,6.984,0,0,1,8.4,0h0a6.97,6.97,0,0,1,1.414,1.415h0a6.964,6.964,0,0,1,1.327,3.2,6.37,6.37,0,0,1,0,2h0a6.967,6.967,0,0,1-1.334,3.211,7.081,7.081,0,0,1-1.4,1.4,7.016,7.016,0,0,1-8.411,0,7.1,7.1,0,0,1-1.412-1.412,6.851,6.851,0,0,1-1.326-5.2Zm-27.114,2H421.9a8.978,8.978,0,0,0,1.921,4.63l-8.837,8.837a9,9,0,0,0-11.26,0l-8.837-8.838A8.97,8.97,0,0,0,396.812,445.139Zm8.344,14.894a6.985,6.985,0,0,1,8.406,0h0a7.086,7.086,0,0,1,1.413,1.413,6.985,6.985,0,0,1,0,8.406,7.1,7.1,0,0,1-1.4,1.407,6.985,6.985,0,0,1-8.415.005,7.076,7.076,0,0,1-1.412-1.412,6.984,6.984,0,0,1,0-8.4h0a7.038,7.038,0,0,1,1.413-1.414Zm-2.84-.013a9,9,0,0,0,0,11.259l-8.838,8.837a8.982,8.982,0,0,0-4.629-1.92V453.1a8.979,8.979,0,0,0,4.629-1.921Zm-21.41-16.881a6.966,6.966,0,0,1,1.331-3.208,7.08,7.08,0,0,1,1.4-1.4,6.984,6.984,0,0,1,8.413-.006,7.09,7.09,0,0,1,1.413,1.414h0a7.015,7.015,0,0,1,0,8.4h0a6.992,6.992,0,0,1-1.414,1.414h0a7.006,7.006,0,0,1-11.145-4.616h0a6.368,6.368,0,0,1,0-2Zm-41.694-3.2h0a7.059,7.059,0,0,1,1.413-1.413,6.981,6.981,0,0,1,8.41,0,7.079,7.079,0,0,1,1.4,1.4,6.977,6.977,0,0,1,1.331,3.208,6.368,6.368,0,0,1,0,2h0a7.014,7.014,0,0,1-11.145,4.616h0a6.992,6.992,0,0,1-1.414-1.414h0a6.986,6.986,0,0,1,0-8.4ZM328.928,469.86a7.132,7.132,0,0,1-1.4,1.4,7.022,7.022,0,1,1-.008-11.226h0a7.076,7.076,0,0,1,1.412,1.412,6.985,6.985,0,0,1-.005,8.415Zm1.433,1.418a9,9,0,0,0,0-11.258l8.837-8.838a8.971,8.971,0,0,0,4.629,1.921V478.2a8.978,8.978,0,0,0-4.629,1.92Zm21.41,16.882a6.956,6.956,0,0,1-1.327,3.2h0a6.966,6.966,0,0,1-1.414,1.414h0a7.016,7.016,0,0,1-9.819-1.415h0a6.984,6.984,0,0,1,0-8.4,7.059,7.059,0,0,1,1.413-1.413,6.963,6.963,0,0,1,3.2-1.327h0a6.368,6.368,0,0,1,2,0h0a6.984,6.984,0,0,1,5.943,5.943h0a6.368,6.368,0,0,1,0,2Zm27.115-2h-25.1a9.022,9.022,0,0,0-7.963-7.964V453.1a9.022,9.022,0,0,0,7.963-7.964h25.1a9.022,9.022,0,0,0,7.963,7.964V478.2A9.022,9.022,0,0,0,378.886,486.16Zm15.906,2a6.959,6.959,0,0,1-1.331,3.21,7.072,7.072,0,0,1-1.4,1.4,7.015,7.015,0,0,1-9.828-1.408h0a6.954,6.954,0,0,1-1.326-3.2h0a6.368,6.368,0,0,1,0-2h0a6.984,6.984,0,0,1,5.943-5.943h0a6.329,6.329,0,0,1,2,0h0a6.968,6.968,0,0,1,3.2,1.327,7.059,7.059,0,0,1,1.413,1.413,6.862,6.862,0,0,1,1.327,5.2Zm27.113-2H396.812a8.97,8.97,0,0,0-1.92-4.629l8.838-8.837a9,9,0,0,0,11.258,0l8.838,8.837A8.974,8.974,0,0,0,421.9,486.159Zm-5.5-14.881a9,9,0,0,0,0-11.258l8.837-8.837a8.978,8.978,0,0,0,4.629,1.92V478.2a8.978,8.978,0,0,0-4.629,1.92Zm21.409,16.881a6.956,6.956,0,0,1-1.327,3.2h0a6.965,6.965,0,0,1-1.414,1.414h0a6.983,6.983,0,0,1-8.4,0h0a7.034,7.034,0,0,1-1.412-1.409,6.957,6.957,0,0,1-1.33-3.207h0a7,7,0,0,1-.08-1,7.11,7.11,0,0,1,.079-1,6.954,6.954,0,0,1,1.327-3.206,7.061,7.061,0,0,1,1.413-1.413,6.963,6.963,0,0,1,3.2-1.327h0a6.368,6.368,0,0,1,2,0h0a6.967,6.967,0,0,1,3.206,1.329,7.064,7.064,0,0,1,1.4,1.4,6.967,6.967,0,0,1,1.334,3.211h0a6.37,6.37,0,0,1,0,2Zm-1.313-8.043a8.979,8.979,0,0,0-4.63-1.921V453.1a8.979,8.979,0,0,0,4.63-1.921l8.837,8.838a9,9,0,0,0,0,11.259Zm28.428,6.043h-25.1a8.98,8.98,0,0,0-1.919-4.629l8.838-8.837a9,9,0,0,0,11.257,0l8.838,8.838A8.965,8.965,0,0,0,464.927,486.159Zm-5.505-14.88a9,9,0,0,0,0-11.258l8.838-8.838a8.982,8.982,0,0,0,4.629,1.92V478.2a8.979,8.979,0,0,0-4.63,1.921Zm19.433,10.914a7.018,7.018,0,1,1-10.581,9.168h0a7.015,7.015,0,0,1,0-8.4h0a7.016,7.016,0,0,1,4.617-2.742h0a6.328,6.328,0,0,1,2,0h0A6.991,6.991,0,0,1,478.855,482.193Zm-3.969-31.111a7.016,7.016,0,0,1-5.2-1.328,7.066,7.066,0,0,1-1.411-1.411,7.013,7.013,0,0,1,0-8.412,7.05,7.05,0,0,1,1.4-1.4,7.017,7.017,0,1,1,5.206,12.553Z" fill="#dedfe2"/>
    <path id="border" d="M-5373.5-2850.638h-168a8.01,8.01,0,0,1-8-8v-55a8.009,8.009,0,0,1,8-8h168a8.009,8.009,0,0,1,8,8v55A8.009,8.009,0,0,1-5373.5-2850.638Zm-167-69a7.008,7.008,0,0,0-7,7v53a7.009,7.009,0,0,0,7,7h166a7.009,7.009,0,0,0,7-7v-53a7.008,7.008,0,0,0-7-7Z" transform="translate(5855.5 3352.139)" fill="#c6c6c6"/>
    <g id="ARROW-TOP" transform="translate(338 445.5) rotate(-90)" fill="#076fbc">
      <path d="M 3.212615489959717 53.50000381469727 C 1.948005437850952 53.50000381469727 0.7608554363250732 52.99920272827148 -0.1301545351743698 52.08986282348633 C -1.949834585189819 50.23358154296875 -1.950384497642517 47.21234130859375 -0.1311545372009277 45.35524368286133 L -0.0030882537830621 45.22451019287109 C 4.558484077453613 40.50244903564453 7.070228576660156 34.25423049926758 7.07381534576416 27.60907173156738 C 7.07381534576416 24.05267333984375 6.319988250732422 20.50701904296875 4.883546352386475 17.26542282104492 L 1.734825491905212 18.9714527130127 L -0.394894540309906 20.1253719329834 L -0.4788545370101929 17.70459175109863 L -1.091114521026611 0.05199221894145012 L -1.197154521942139 -3.005427837371826 L 1.284885406494141 -1.216977834701538 L 15.53159523010254 9.048542022705078 L 17.47073554992676 10.44579219818115 L 15.36926555633545 11.58438205718994 L 13.2081127166748 12.75531196594238 C 15.36550712585449 17.38700675964355 16.49999618530273 22.49135589599609 16.49999618530273 27.60988235473633 C 16.50187492370605 32.09770202636719 15.66542530059814 36.47935104370117 14.01388549804688 40.63249206542969 C 12.30360507965088 44.93334197998047 9.794255256652832 48.78833389282227 6.555525302886963 52.09039306640625 C 5.664285659790039 52.99933242797852 4.477035522460938 53.50000381469727 3.212615489959717 53.50000381469727 Z" stroke="none"/>
      <path d="M 3.212619304656982 52 C 4.034828186035156 52 4.857145309448242 51.68001556396484 5.484645366668701 51.0400505065918 C 11.82171535491943 44.57907104492188 15.00353527069092 36.07952117919922 14.99999523162842 27.60988235473633 C 14.99999523162842 22.28390312194824 13.73395538330078 16.95865249633789 11.22591590881348 12.12326240539551 L 14.65469551086426 10.26552200317383 L 0.4079854488372803 2.218017471022904e-06 L 1.020245432853699 17.65260314941406 L 5.553455352783203 15.19643211364746 C 7.558415412902832 19.06557273864746 8.57381534576416 23.33360290527344 8.57381534576416 27.60988235473633 C 8.570135116577148 34.42307281494141 6.035455226898193 41.20621109008789 0.941245436668396 46.40492248535156 L 0.9403754472732544 46.40492248535156 C -0.3136045336723328 47.68500137329102 -0.3136045336723328 49.75996398925781 0.941245436668396 51.0400505065918 C 1.568310499191284 51.68001556396484 2.390410423278809 52 3.212619304656982 52 M 3.212615489959717 55.00000381469727 C 1.541565418243408 55.00000381469727 -0.0260845422744751 54.33932113647461 -1.20156455039978 53.13966369628906 C -2.360914468765259 51.95699310302734 -2.999784469604492 50.38824081420898 -3.000004529953003 48.72287368774414 C -3.000214576721191 47.05769348144531 -2.36191463470459 45.48892211914062 -1.20268452167511 44.30556106567383 L -1.078896999359131 44.17919921875 C 3.209258317947388 39.73844146728516 5.570437431335449 33.86087417602539 5.57381534576416 27.60826301574707 C 5.57381534576416 24.80603408813477 5.076497077941895 22.0107479095459 4.121105670928955 19.38455581665039 L 2.449405431747437 20.29031181335449 L -1.810024499893188 22.59814262390137 L -1.977954506874084 17.756591796875 L -2.590214490890503 0.1039922162890434 L -2.802294492721558 -6.010847568511963 L 2.161785364151001 -2.433957815170288 L 16.40849494934082 7.831562042236328 L 20.28676605224609 10.62606239318848 L 16.08383560180664 12.90324211120605 L 15.13962268829346 13.41482448577881 C 17.01717376708984 17.89305686950684 17.99999618530273 22.74538040161133 17.99999618530273 27.60988235473633 C 18.00195503234863 32.28793334960938 17.12978553771973 36.85627365112305 15.40772533416748 41.18676376342773 C 13.62342548370361 45.67376327514648 11.00540542602539 49.69566345214844 7.626405239105225 53.14073181152344 C 6.450915336608887 54.33958053588867 4.883285522460938 55.00000381469727 3.212615489959717 55.00000381469727 Z" stroke="none" fill="#fff"/>
    </g>
    <path id="motor-minus" d="M-5573.225-2910.033a15.9,15.9,0,0,1-11.314-4.686,15.892,15.892,0,0,1-4.687-11.313,15.893,15.893,0,0,1,4.687-11.314,15.9,15.9,0,0,1,11.314-4.687,15.891,15.891,0,0,1,11.313,4.687,15.894,15.894,0,0,1,4.687,11.314,15.892,15.892,0,0,1-4.687,11.313A15.893,15.893,0,0,1-5573.225-2910.033Zm-8-18v4h16v-4Z" transform="translate(5939.226 3392.532)" fill="#444"/>
  </g>
</svg>
