<?xml version="1.0" encoding="utf-8"?>
<!-- Generator: Adobe Illustrator 23.0.3, SVG Export Plug-In . SVG Version: 6.00 Build 0)  -->
<svg version="1.1" id="Layer_1" xmlns="http://www.w3.org/2000/svg" xmlns:xlink="http://www.w3.org/1999/xlink" x="0px" y="0px"
	 viewBox="0 0 231.6 228.1" style="enable-background:new 0 0 231.6 228.1;" xml:space="preserve">
<style type="text/css">
	.st0{fill:#808184;}
	.st1{fill:#404041;}
	.st2{fill:#D0D2D3;}
	.st3{fill:none;stroke:#000000;stroke-linecap:round;stroke-linejoin:round;}
	.st4{fill:none;stroke:#000000;stroke-width:1.0116;stroke-linecap:round;stroke-linejoin:round;}
</style>
<title>IQMotor</title>
<g>
	<g id="Motor_Lineart">
		<path class="st0" d="M145.1,160.6c0,0-0.3-12.5-0.2-29.2c0.1-9.8-5-19-13.3-24.3L97.4,87.5c0,0,7-5.1,9.4-7.5s0.6-2.6,0.6-2.6
			S93,69.6,90.6,67.9c-1.4-1-3.3-1.1-4.8-0.1l-13.4,5c0,0-31.1-18-34.7-20.1c-2.3-1.3-5-2-7.7-2.1L8.4,63.1l0.1,0.1
			c-0.3,0.1-0.6,0.2-0.9,0.3C4,65.1,3.2,68,3,72.2l0,31.9c0.2,5,1.8,9.8,4.6,14c4.7,6.5,9.1,8.6,9.1,8.6l94,54.4
			c1.4,0.9,3,1.6,4.7,1.9c1.6,0.3,3.3,0.1,4.8-0.6c0.5-0.2,0.9-0.5,1.3-0.9c3.9-2.4,15.3-9.2,19.4-11.6
			C145.9,167,145.1,160.6,145.1,160.6z"/>
		<path class="st1" d="M89.7,130.1c3.9,5.6,4.1,12.6,0.9,15s-8.7-0.6-12.6-6.3c-3.9-5.8-3.9-12.7-0.6-15.1S85.7,124.4,89.7,130.1z"
			/>
		<path class="st2" d="M143.1,168.6l82.5-47.7c0,0,2.9-1.8,2.9-7.8V79.4c-0.4-7.9-4.7-15.1-11.4-19.2c-11.4-7.2-96-55.7-96-55.7
			s-5.6-3.5-10.3-0.6L30,50.6c1.5-0.1,3.1,0.1,4.6,0.5c1.1,0.4,2.1,0.9,3.1,1.5l34.7,20.1c0,0,12.1-4.5,13.4-5
			c1.3-0.5,2.1-1.4,5.5,0.5c1,0.5,10.3,5.8,14.4,8.1c1.1,0.6,4.1,1.4,1.2,3.6l-9.4,7.5l34.2,19.7c0,0,14,7.8,13.3,24.3
			c0,0,0.2,24.4,0.2,29.2C145.1,163.4,144.4,166.2,143.1,168.6z"/>
		<polygon class="st0" points="214.4,94.5 214.6,119.1 192.4,131.8 192.5,127.1 189.2,128.8 189.2,123.8 190,122.8 190.2,121.3 
			192.4,120 192.4,116.4 196.4,114.2 196.2,104.9 		"/>
		<polygon class="st0" points="228.3,86.6 215.9,93.8 215.9,118.5 228.5,111.1 		"/>
		<path class="st0" d="M155.9,24.5l-9.9,8c0,0-1,1.1,0.8,2.1c1.8,0.9,17,9.8,17,9.8c1.1,0.5,2.4,0.6,3.6,0.1
			c1.9-0.7,13.9-5.4,13.9-5.4L155.9,24.5z"/>
		<ellipse transform="matrix(0.8578 -0.5139 0.5139 0.8578 -50.647 68.6942)" class="st3" cx="98.8" cy="125.9" rx="3.6" ry="6.2"/>
		
			<ellipse transform="matrix(0.8578 -0.5139 0.5139 0.8578 -60.7183 78.939)" class="st3" cx="112.3" cy="149.2" rx="3.6" ry="6.2"/>
		
			<ellipse transform="matrix(0.8578 -0.5139 0.5139 0.8578 -52.3659 46.8389)" class="st3" cx="58.5" cy="118.1" rx="3.6" ry="6.2"/>
		
			<ellipse transform="matrix(0.8578 -0.5139 0.5139 0.8578 -48.1897 30.7931)" class="st3" cx="31.6" cy="102.5" rx="3.6" ry="6.2"/>
		<ellipse transform="matrix(0.8578 -0.5139 0.5139 0.8578 -66.662 73.1638)" class="st3" cx="98.9" cy="157.1" rx="3.6" ry="6.2"/>
		
			<ellipse transform="matrix(0.8578 -0.5139 0.5139 0.8578 -46.4708 52.6484)" class="st3" cx="71.9" cy="110.3" rx="3.6" ry="6.2"/>
		<ellipse transform="matrix(0.8578 -0.5139 0.5139 0.8578 -62.4858 57.1181)" class="st3" cx="72" cy="141.5" rx="3.6" ry="6.2"/>
		<ellipse transform="matrix(0.8578 -0.5139 0.5139 0.8578 -42.2576 36.5683)" class="st3" cx="45" cy="94.7" rx="3.6" ry="6.2"/>
		<ellipse transform="matrix(0.8578 -0.5139 0.5139 0.8578 -58.2726 41.038)" class="st3" cx="45" cy="125.8" rx="3.6" ry="6.2"/>
		<ellipse transform="matrix(0.8578 -0.5139 0.5139 0.8578 -38.0772 20.5182)" class="st3" cx="18" cy="79.1" rx="3.6" ry="6.2"/>
		
			<ellipse transform="matrix(0.8578 -0.5139 0.5139 0.8578 -54.0921 24.9879)" class="st3" cx="18.1" cy="110.3" rx="3.6" ry="6.2"/>
		<path class="st3" d="M121.9,180.8l103.7-59.9c0,0,2.9-1.8,2.9-7.8V79.4c-0.4-7.9-4.7-15.1-11.4-19.2c-11.4-7.2-96-55.7-96-55.7
			s-5.6-3.5-10.3-0.6L8.4,63.1"/>
		<path class="st3" d="M122.6,173.6c0,0,0.3,0.3,0.9,0c0.3-0.2,37.1-21.4,66.5-38.4"/>
		<path class="st3" d="M122.1,144c0.4,0.2,0.9,0.1,1.4,0c0.5-0.3,1.2-0.6,105-60.6"/>
		<line class="st3" x1="192.4" y1="120" x2="190.5" y2="121.1"/>
		<line class="st3" x1="192.4" y1="120" x2="192.4" y2="116.4"/>
		<line class="st3" x1="196.2" y1="114.2" x2="192.4" y2="116.4"/>
		<line class="st3" x1="196.2" y1="114.2" x2="196.2" y2="104.9"/>
		<line class="st3" x1="214.4" y1="94.5" x2="196.2" y2="104.9"/>
		<polyline class="st3" points="198.3,103.7 210.4,110.8 210.4,115.7 		"/>
		<path class="st3" d="M210.4,115.7l3,1.7c0.6,0.4,1,1,1,1.7V94.5"/>
		<path class="st3" d="M228.3,114.9l-36.8,21.2c0,0-1,0.6-1.3-0.2c0,0-0.2-0.2-0.2-1.4s0-4,0-4l-0.4,0.2c0,0-0.4,0.2-0.4-0.2
			s0-6.8,0-6.8c0-0.4,0.4-0.8,0.8-0.9c0-1.1,0-15.4,0-15.4c0.2-0.9,0.7-1.8,1.3-2.4c1-0.8,34.3-20,34.3-20"/>
		<polyline class="st3" points="214.4,119.1 192.4,131.8 192.4,126.9 189.2,128.8 		"/>
		<polyline class="st3" points="228.3,86.6 215.9,93.8 215.9,118.5 228.5,111.1 		"/>
		<path class="st3" d="M109.7,120.3c0-0.3,0.2-0.6,0.4-0.7c0.4-0.2,105.2-60.5,105.2-60.5"/>
		<path class="st3" d="M15.3,65.9c0-0.3,0.2-0.5,0.4-0.7C16.2,65,121,4.5,121,4.5"/>
		<path class="st3" d="M141.7,169.4c0,0,3.4-2,3.4-8.2s-0.2-29.8-0.2-29.8s-0.1-8.9-3.3-13.9c-2.5-4.2-5.9-7.7-10-10.4L97.4,87.5
			l10.1-8c0,0,1.4-1.2-0.1-2.1s-17.5-9.9-17.5-9.9c-1.1-0.5-2.3-0.5-3.3,0c-2,0.8-14.2,5.3-14.2,5.3L37.7,52.6c0,0-4.3-3.2-8.6-1.6"
			/>
		<path class="st3" d="M130.9,175.6c0,0,3.4-1.6,3.4-7.9s-0.2-29.8-0.2-29.8s-0.1-8.9-3.3-13.9c-2.5-4.2-5.9-7.7-10-10.4L26.5,58.9
			c0,0-4.5-2.9-8.4-1.5"/>
		<path class="st3" d="M181.3,39.2c0,0-12,4.7-13.9,5.4c-1.2,0.4-2.5,0.4-3.6-0.1c0,0-15.2-8.9-17-9.8c-1.8-0.9-0.8-2.1-0.8-2.1
			l9.9-8"/>
		<path class="st4" d="M110.6,180.9c1.4,0.9,3,1.6,4.7,1.9c1.6,0.3,3.3,0.1,4.8-0.6c4.3-2.2,4.1-9,4.1-9l0-29.4
			c0,0,0.2-8.2-3.8-14.4c-4.8-7.3-9.2-9.7-9.2-9.7L15.6,64.4c0,0-4.5-2.7-8.1-1.1c-3.6,1.6-4.3,4.5-4.5,8.7l0,31.9
			c0.2,5,1.8,9.8,4.6,14c4.7,6.5,9.1,8.6,9.1,8.6L110.6,180.9z"/>
		<path class="st3" d="M109.7,178.6c1.3,0.8,2.7,1.4,4.1,1.8c1.5,0.4,3.2,0.2,4.6-0.5c4.1-2.1,3.9-8.6,3.9-8.6l-0.2-27.3
			c0,0,0.6-8.1-3.2-14c-4.6-7-9.1-9.2-9.1-9.2L17,67.1c0,0-4.7-2.9-8.1-1.3s-3.8,4.7-4,8.7l0,30.4c0.2,4.6,1.8,9.1,4.6,12.8
			c4.5,5.9,6.9,6.9,6.9,6.9L109.7,178.6z"/>
		<path class="st3" d="M10.9,65.4C9.8,67,9.3,69,9.3,71c0,2.9,0,31.1,0,31.1c0.4,8.1,4.7,15.5,11.5,19.9l4.5,2.6"/>
		<line class="st3" x1="5" y1="73.5" x2="9.3" y2="71"/>
		<line class="st3" x1="5" y1="104.5" x2="9.3" y2="102.1"/>
		<line class="st3" x1="16.4" y1="124.5" x2="20.8" y2="122"/>
		<path class="st3" d="M26.4,72.6L22,75.2c-3.9-5.4-7.5-4.6-7.5-4.6s-4,0.5-3,6.4c0.7,3.7,2.6,6.9,5.5,9.3l0,15.7
			c-0.6-0.2-1.2-0.3-1.8-0.3c-1.5,0-2.9,0.9-3.5,2.3c-0.8,1.9-0.6,5.1,2,9.5c3.7,6.4,8.4,5.4,8.4,5.4l6,10.4l3,1.7"/>
		<path class="st3" d="M13.5,70.9l2.4-1.5c1.3-0.7,2.9-0.7,4.2,0c1.8,1,3.4,2.4,4.7,4.1"/>
		<path class="st3" d="M29.4,74.4l-5.9,3.4c0.6,1.3,1,2.6,1.2,4l13.6,7.9c0.1-1,0.5-1.9,1.2-2.6l-5.9-10.2"/>
		<path class="st3" d="M39.4,87.2l-12-6.9c-0.2-1.4-0.6-2.8-1.2-4"/>
		<line class="st3" x1="24.7" y1="81.8" x2="27.5" y2="80.2"/>
		<path class="st3" d="M83.3,105.5l-5.8,3.4c0.6,1.3,1,2.6,1.2,4l13.6,7.9c0.1-1,0.5-1.9,1.2-2.6L87.6,108"/>
		<path class="st3" d="M93.4,118.3l-12-6.9c-0.2-1.4-0.6-2.8-1.2-4"/>
		<line class="st3" x1="78.6" y1="112.9" x2="81.4" y2="111.4"/>
		<path class="st3" d="M56.3,89.9l-5.8,3.4c0.6,1.3,1,2.6,1.2,4l13.6,7.9c0.1-1,0.5-1.9,1.2-2.6l-5.9-10.2"/>
		<path class="st3" d="M66.4,102.7l-12-6.9c-0.2-1.4-0.6-2.8-1.2-4"/>
		<line class="st3" x1="51.6" y1="97.4" x2="54.4" y2="95.8"/>
		<line class="st3" x1="13.3" y1="102.1" x2="17" y2="100"/>
		<path class="st3" d="M19.1,87.3v15.8c1.2,0.8,2.2,1.9,2.9,3.1l4.1-2.3c-0.9-1.7-1.3-3.7-1.2-5.6c0.1-2.7,1.3-3.5,1.3-3.5l-4.1-7
			C21,87.9,20,87.7,19.1,87.3z"/>
		<path class="st3" d="M21.8,87.8v13.9c1.1,0.8,2.1,1.8,2.8,3"/>
		<line class="st3" x1="19.2" y1="103" x2="21.8" y2="101.6"/>
		<path class="st3" d="M99.9,134.1v15.8c1.2,0.8,2.2,1.9,2.9,3.1l4.1-2.3c-0.9-1.7-1.3-3.7-1.2-5.6c0.1-2.7,1.3-3.5,1.3-3.5l-4.1-7
			C101.8,134.7,100.8,134.5,99.9,134.1z"/>
		<path class="st3" d="M102.6,134.6v13.9c1.1,0.8,2.1,1.8,2.8,3"/>
		<line class="st3" x1="100" y1="149.9" x2="102.6" y2="148.5"/>
		<path class="st3" d="M38.4,92.1c0.2,1.4,0.6,2.8,1.2,4l-4.1,2.3c-0.8-1.1-1.7-2.2-2.8-3c-2.9-2.3-5.1-1.6-5.1-1.6l-4.1-7
			c0.7-0.7,1.2-1.6,1.2-2.6L38.4,92.1z"/>
		<path class="st3" d="M23.5,86.9l2.7-1.6l4,7c1.4-0.2,2.8,0.1,4,0.8c1.5,1,2.9,2.3,3.9,3.8"/>
		<line class="st3" x1="27.6" y1="93.9" x2="30.3" y2="92.4"/>
		<line class="st3" x1="54.5" y1="109.5" x2="57.2" y2="107.9"/>
		<path class="st3" d="M44,101.8c-1.1-0.9-2.1-1.9-2.9-3.1l-4.1,2.3c0.6,1.2,1,2.6,1.1,4c0.6,3.6-1.2,5.2-1.2,5.2l4,7.1
			c1-0.3,2-0.2,2.9,0.3L44,101.8z"/>
		<path class="st3" d="M41,117.3l2.7-1.6l-4-7c0.8-1.1,1.3-2.5,1.3-3.9c-0.1-1.8-0.5-3.6-1.3-5.3"/>
		<line class="st3" x1="36.9" y1="110.2" x2="39.7" y2="108.7"/>
		<path class="st3" d="M24.7,112.9c-0.2-1.4-0.6-2.8-1.2-4l4.1-2.4c0.8,1.1,1.7,2.2,2.8,3c2.9,2.3,5.1,1.6,5.1,1.6s3.7,6.5,4.1,7.1
			c-0.7,0.7-1.2,1.6-1.2,2.6L24.7,112.9z"/>
		<path class="st3" d="M26.3,107.3c0.6,1.3,1,2.6,1.1,4l11.9,6.9"/>
		<line class="st3" x1="24.7" y1="112.9" x2="27.4" y2="111.3"/>
		<path class="st3" d="M46,102.9v15.8c1.2,0.8,2.2,1.9,2.9,3.1l4.1-2.3c-0.9-1.7-1.3-3.7-1.2-5.6c0.1-2.7,1.3-3.5,1.3-3.5l-4.1-7
			C47.9,103.4,46.9,103.3,46,102.9z"/>
		<path class="st3" d="M48.7,103.3v13.9c1.1,0.8,2.1,1.8,2.8,3"/>
		<line class="st3" x1="46.1" y1="118.6" x2="48.7" y2="117.2"/>
		<path class="st3" d="M65.2,107.7c0.2,1.4,0.6,2.8,1.2,4l-4.1,2.3c-0.8-1.1-1.7-2.2-2.8-3c-2.9-2.3-5.1-1.6-5.1-1.6l-4.1-7
			c0.7-0.7,1.2-1.6,1.2-2.6L65.2,107.7z"/>
		<path class="st3" d="M50.4,102.4l2.7-1.6l4,7c1.4-0.2,2.8,0.1,4,0.8c1.5,1,2.9,2.3,3.9,3.8"/>
		<path class="st3" d="M70.8,117.4c-1.1-0.9-2.1-1.9-2.9-3.1l-4.1,2.3c0.6,1.2,1,2.6,1.1,4c0.6,3.6-1.2,5.2-1.2,5.2l4,7.1
			c1-0.3,2-0.2,2.9,0.3L70.8,117.4z"/>
		<path class="st3" d="M67.8,132.8l2.7-1.6l-4-7c0.8-1.1,1.3-2.5,1.3-3.9c-0.1-1.8-0.5-3.6-1.3-5.3"/>
		<line class="st3" x1="63.8" y1="125.7" x2="66.5" y2="124.2"/>
		<path class="st3" d="M51.6,128.5c-0.2-1.4-0.6-2.8-1.2-4l4.1-2.4c0.8,1.1,1.7,2.2,2.8,3c2.9,2.3,5.1,1.6,5.1,1.6s3.7,6.5,4.1,7.1
			c-0.7,0.7-1.2,1.6-1.2,2.6L51.6,128.5z"/>
		<path class="st3" d="M53.2,122.8c0.6,1.3,1,2.6,1.1,4l11.9,6.9"/>
		<line class="st3" x1="51.6" y1="128.5" x2="54.3" y2="126.9"/>
		<path class="st3" d="M24.7,115.4c-0.1,1-0.5,1.9-1.2,2.5l7.5,13l2.7-1.6l1,0.6l4.8-2.8c-0.7-1.2-1.1-2.6-1.2-4
			C34.2,120.9,24.7,115.4,24.7,115.4z"/>
		<polyline class="st3" points="33.7,129.5 26.3,116.4 23.5,118 		"/>
		<path class="st3" d="M34.7,130l-2.7,1.6l3,1.7l6-3.5c0.9,1.3,2,2.4,3.2,3.3c1.3,1,3,1.4,4.7,1.3l6,10.5l3,1.7l-7.5-13.1
			c0.8-0.7,1.2-1.6,1.2-2.6l13.6,7.9c0.1,1.4,0.5,2.8,1.2,4l-4.8,2.8l-1-0.6l-7.7-13.4"/>
		<line class="st3" x1="57.9" y1="146.6" x2="60.7" y2="145"/>
		<line class="st3" x1="50.4" y1="133.6" x2="53.1" y2="132"/>
		<line class="st3" x1="37.8" y1="131.8" x2="52.1" y2="140.1"/>
		<path class="st3" d="M61.6,145.6l-2.7,1.6l3,1.7l6-3.5c0.9,1.5,2.2,2.8,3.8,3.7c2.6,1.4,4.1,0.9,4.1,0.9l6,10.5l3,1.7l-7.5-13
			c0.7-0.7,1.2-1.6,1.2-2.6l13.6,7.9c0.1,1.4,0.5,2.8,1.2,4l-4.8,2.8l-1-0.6l-7.5-13l-2.7,1.6"/>
		<line class="st3" x1="84.9" y1="162.2" x2="87.6" y2="160.6"/>
		<line class="st3" x1="64.6" y1="147.3" x2="79.1" y2="155.7"/>
		<path class="st3" d="M88.6,161.2l-2.7,1.5l3,1.8l6-3.5c1,1.6,2.4,2.9,4.1,3.8c1.2,0.6,2.5,0.9,3.9,0.7l6,10.5l3,1.7l-7.5-13
			c0,0,1.7-1.5,1.2-5.3c-0.1-1.3-0.5-2.6-1.1-3.8l4.1-2.3c0,0,4.7,6.5,9,4.1c2.9-1.6,3-1.9,3-1.9s2.7-2.2,0.7-8
			c-1.2-3.5-3.7-6.4-7-8.1c-0.9-0.4-1.9-0.5-2.9-0.3l-4.1-7c0,0,2.9-2.8,0-9.1l3.2-1.8"/>
		<path class="st3" d="M111.8,177.8l2.7-1.6l-7.5-13c0,0,1.9-1.5,1.1-5.6c-0.2-1.2-0.6-2.4-1.1-3.4"/>
		<line class="st3" x1="104.2" y1="164.7" x2="107" y2="163.1"/>
		<line class="st3" x1="91.5" y1="162.9" x2="106.1" y2="171.3"/>
		<path class="st3" d="M114.5,176.2c1.1,0.7,2.3,1.2,3.5,1.6c2,0.5,2.5,0.2,2.5,0.2"/>
		<line class="st3" x1="110.6" y1="179" x2="115" y2="176.5"/>
		<path class="st3" d="M36.7,78.5l4.4,7.6c0,0,2-0.6,4.7,1.3c2.7,1.9,3.2,3.2,3.2,3.2l4.4-2.5"/>
		<path class="st3" d="M42.1,81.7l1.7,2.9c0,0,1.9-0.6,4.6,1.3c1.3,0.8,2.4,1.9,3.2,3.3"/>
		<line class="st3" x1="41.1" y1="86.2" x2="43.8" y2="84.6"/>
		<path class="st3" d="M63.6,94.1l4.4,7.6c0,0,2-0.6,4.7,1.3c2.7,1.9,3.2,3.2,3.2,3.2l4.4-2.5"/>
		<path class="st3" d="M69,97.3l1.7,2.9c0,0,1.9-0.6,4.6,1.3c1.3,0.8,2.4,1.9,3.2,3.3"/>
		<line class="st3" x1="68" y1="101.8" x2="70.7" y2="100.2"/>
		<path class="st3" d="M90.5,109.7l4.4,7.6c0,0,2-0.6,4.7,1.3c2.7,1.9,3.2,3.2,3.2,3.2l4.4-2.5"/>
		<path class="st3" d="M95.9,112.8l1.7,2.9c0,0,1.9-0.6,4.6,1.3c1.3,0.8,2.4,1.9,3.2,3.3"/>
		<line class="st3" x1="94.9" y1="117.3" x2="97.6" y2="115.8"/>
		<path class="st3" d="M107,122.9l-2.7,1.6c0.8,1.7,1.2,3.5,1.3,5.3c0,1.4-0.5,2.7-1.3,3.8l4.1,7c0,0,4.9-1.5,8.9,6.3
			c3.8,7.3,0,10.4,0,10.4"/>
		<line class="st3" x1="104.3" y1="133.6" x2="107" y2="132"/>
		<line class="st3" x1="108.3" y1="140.7" x2="111.1" y2="139.1"/>
		<path class="st3" d="M77.6,140.7c0.5,1.1,0.8,2.2,1,3.4l13.6,7.9c0.1-1,0.5-1.9,1.2-2.6l-1.3-2.2l1.5-0.9l1.3,2.3
			c1-0.2,2-0.1,2.9,0.3c0,0,0-15.2,0-15.8c-1.2-0.8-2.1-1.9-2.9-3.1l-1.3,0.8l-1.5-2.6l1.3-0.8c-0.6-1.3-1.1-2.6-1.2-4l-13.6-7.9
			c-0.2,1-0.6,1.9-1.2,2.6l1.3,2.2l-1.5,0.8l-1.3-2.2c-1,0.2-2,0.1-2.9-0.3l0,15.7c0.8,0.5,1.5,1.2,2.1,2.1"/>
		<line class="st3" x1="78.5" y1="144.1" x2="79.8" y2="143.3"/>
		<line class="st3" x1="93.3" y1="149.4" x2="90.6" y2="147.9"/>
		<polyline class="st3" points="94.9,148.4 97.6,146.9 96.3,144.6 		"/>
		<line class="st3" x1="75.7" y1="119.1" x2="75.7" y2="122.1"/>
		<polyline class="st3" points="77.4,118 80.1,116.5 81.4,118.7 		"/>
		<path class="st3" d="M83.8,118.5c-0.9-0.1-1.8,0-2.6,0.4c-1,0.6-4.6,2.6-4.6,2.6"/>
		<path class="st3" d="M97.8,142.6c-0.3,0.9-1,1.7-1.8,2.2c-1.4,0.8-3.8,2.3-3.8,2.3"/>
		<path class="st3" d="M90.9,129.4c4.7,6.7,4.9,14.9,1,17.8s-10.4-0.7-15-7.5c-4.7-6.9-4.6-15-0.8-17.9S86.1,122.6,90.9,129.4z"/>
		<line class="st3" x1="73" y1="134.4" x2="74" y2="133.7"/>
		<polygon class="st3" points="78.9,133.8 82,128.6 88.1,135.7 85,140.9 		"/>
		<path class="st3" d="M89.7,130.1c3.9,5.6,4.1,12.6,0.9,15s-8.7-0.6-12.6-6.3c-3.9-5.8-3.9-12.7-0.6-15.1S85.7,124.4,89.7,130.1z"
			/>
		<path d="M115.1,3c0.4,0,0.7,0,1.1,0.1c1.8,0.2,3.5,0.8,5,1.7c0,0,77.7,44.5,94.2,54.6c0.7,0.4,1.3,0.8,1.8,1.1
			c3.4,2.1,6.2,5,8.2,8.5c0.4,0.8,0.8,1.6,1.2,2.4c0.2,0.5,0.4,1,0.6,1.5c0.3,0.7,0.5,1.4,0.7,2.1c0.4,1.6,0.7,3.2,0.8,4.8v33.8
			c0,0.7,0,1.4-0.1,2c-0.1,0.6-0.2,1.1-0.3,1.7c-0.3,1.6-1.2,3-2.5,4l-47.8,27.6L141,170.1l0,0c-4.1,2.4-15.5,9.2-19.4,11.6
			c-0.4,0.4-0.8,0.7-1.3,0.9c-1,0.5-2.1,0.7-3.1,0.7c-0.5,0-1.1-0.1-1.6-0.2c-1.7-0.3-3.3-1-4.7-1.9l-94-54.4c-1.8-1-3.5-2.3-5-3.8
			c-1.6-1.5-3-3.2-4.2-4.9c-2.8-4.1-4.4-9-4.6-14l0-31.9c0.2-4.2,0.9-7.1,4.5-8.7c0.3-0.1,0.6-0.2,0.9-0.3l0,0l0,0l9.8-5.7l0,0
			c0.1,0,0.2,0,0.3-0.1l5.8-3.3l5-2.9l0,0c0.1,0,0.2-0.1,0.3-0.1l0.7-0.4L40.2,45l70.7-40.8C112.2,3.4,113.6,3,115.1,3 M215.4,59.3
			L215.4,59.3L215.4,59.3 M8.4,63.3L8.4,63.3 M115.1,0L115.1,0c-2,0-4,0.5-5.7,1.6L38.7,42.4l-10.1,5.8l-0.4,0.2c0,0-0.1,0-0.1,0
			c-0.3,0.1-0.6,0.3-0.9,0.5l-4.4,2.6l-5.5,3.2c0,0-0.1,0-0.1,0c-0.4,0.1-0.7,0.3-1,0.6l-9,5.2c-0.3,0.1-0.6,0.2-0.9,0.4
			C1.1,63.3,0.2,67.8,0,72.2c0,0,0,0.1,0,0.1l0,31.9c0.2,5.6,2,11.1,5.2,15.7c1.4,1.9,2.9,3.7,4.6,5.3c1.7,1.7,3.5,3.1,5.6,4.2
			l93.8,54.3c1.7,1.1,3.7,1.9,5.7,2.3c0.7,0.1,1.4,0.2,2.2,0.2c1.6,0,3.1-0.3,4.5-1c0.6-0.3,1.2-0.7,1.7-1.1
			c3.8-2.3,15.1-9,19.1-11.4l36.9-21.3l47.8-27.6c0,0,0,0,0.1,0c0.4-0.3,2.7-1.8,3.8-5.8c0.2-0.7,0.3-1.4,0.4-2.1
			c0.1-0.8,0.2-1.6,0.2-2.4V79.7c-0.1-1.9-0.3-3.8-0.9-5.6c-0.2-0.8-0.5-1.6-0.7-2.3c-0.2-0.6-0.4-1.1-0.7-1.7
			c-0.4-0.9-0.8-1.8-1.3-2.6c-2.2-3.9-5.4-7.1-9.2-9.5c-0.5-0.3-1.1-0.7-1.8-1.1c-16.2-9.9-92.1-53.3-94.3-54.6
			c-1.9-1.1-4-1.8-6.2-2.1C116,0,115.6,0,115.1,0z"/>
	</g>
</g>
</svg>
