<svg xmlns="http://www.w3.org/2000/svg" width="184" height="76.288" viewBox="0 0 184 76.288">
  <g id="motor-reverse" transform="translate(-306 -425.213)">
    <path id="BG" d="M315.008,432.5H480.992A6.946,6.946,0,0,1,488,439.381v53.238a6.946,6.946,0,0,1-7.008,6.881H315.008A6.946,6.946,0,0,1,308,492.619V439.381A6.946,6.946,0,0,1,315.008,432.5Z" fill="#e7e9ec"/>
    <path id="pattern" d="M482.912,444.139a9.015,9.015,0,0,0-14.651-7.043l-4.6-4.6h-2.828l6.01,6.01a8.97,8.97,0,0,0-1.92,4.629h-25.1a8.98,8.98,0,0,0-1.919-4.629l6.01-6.01H441.1l-4.6,4.6a9,9,0,0,0-11.258,0l-4.6-4.6h-2.829l6.009,6.009a8.979,8.979,0,0,0-1.921,4.63H396.812a8.973,8.973,0,0,0-1.92-4.63L400.9,432.5h-2.828l-4.6,4.6a8.995,8.995,0,0,0-11.258,0l-4.6-4.6H374.8l6.01,6.01a8.97,8.97,0,0,0-1.92,4.629h-25.1a8.97,8.97,0,0,0-1.92-4.629l6.01-6.01h-2.828l-4.6,4.6a8.995,8.995,0,0,0-11.258,0l-4.6-4.6h-2.829l6.01,6.009a9,9,0,0,0,0,11.259l-8.836,8.838a9.022,9.022,0,1,0,0,14.086l8.838,8.838a9,9,0,0,0,0,11.259l-6.711,6.711H333.9l5.3-5.3a9,9,0,0,0,11.26,0l5.3,5.3h2.828l-6.711-6.711a8.98,8.98,0,0,0,1.919-4.629h25.1a8.981,8.981,0,0,0,1.919,4.629l-6.711,6.711h2.828l5.3-5.3a9,9,0,0,0,11.259,0l5.3,5.3H401.6l-6.711-6.711a8.978,8.978,0,0,0,1.92-4.63H421.9a8.979,8.979,0,0,0,1.921,4.63l-6.711,6.711h2.828l5.3-5.3a9,9,0,0,0,11.259,0l5.3,5.3h2.828l-6.712-6.712a8.977,8.977,0,0,0,1.919-4.629h25.1a8.973,8.973,0,0,0,1.92,4.63l-6.711,6.711h2.828l5.3-5.3A9.019,9.019,0,1,0,474.89,478.2V453.1A9.022,9.022,0,0,0,482.912,444.139Zm-43.08,1h25.1a8.98,8.98,0,0,0,1.919,4.629l-8.837,8.838a9,9,0,0,0-11.258,0l-8.838-8.838A8.973,8.973,0,0,0,439.832,445.139Zm16.748,26.127a6.983,6.983,0,0,1-8.4,0h0a6.99,6.99,0,0,1-1.414-1.414h0a6.984,6.984,0,0,1,.006-8.413,7.062,7.062,0,0,1,1.409-1.407h0a6.984,6.984,0,0,1,8.4,0h0A7.05,7.05,0,0,1,458,461.448h0a6.984,6.984,0,0,1,0,8.4,7.073,7.073,0,0,1-1.415,1.414Zm-32.654-28.127a6.967,6.967,0,0,1,1.33-3.207,7.039,7.039,0,0,1,1.412-1.41h0a6.984,6.984,0,0,1,8.4,0h0a6.97,6.97,0,0,1,1.414,1.415h0a6.964,6.964,0,0,1,1.327,3.2,6.37,6.37,0,0,1,0,2h0a6.967,6.967,0,0,1-1.334,3.211,7.081,7.081,0,0,1-1.4,1.4,7.016,7.016,0,0,1-8.411,0,7.1,7.1,0,0,1-1.412-1.412,6.851,6.851,0,0,1-1.326-5.2Zm-27.114,2H421.9a8.978,8.978,0,0,0,1.921,4.63l-8.837,8.837a9,9,0,0,0-11.26,0l-8.837-8.838A8.97,8.97,0,0,0,396.812,445.139Zm8.344,14.894a6.985,6.985,0,0,1,8.406,0h0a7.086,7.086,0,0,1,1.413,1.413,6.985,6.985,0,0,1,0,8.406,7.1,7.1,0,0,1-1.4,1.407,6.985,6.985,0,0,1-8.415.005,7.076,7.076,0,0,1-1.412-1.412,6.984,6.984,0,0,1,0-8.4h0a7.038,7.038,0,0,1,1.413-1.414Zm-2.84-.013a9,9,0,0,0,0,11.259l-8.838,8.837a8.982,8.982,0,0,0-4.629-1.92V453.1a8.979,8.979,0,0,0,4.629-1.921Zm-21.41-16.881a6.966,6.966,0,0,1,1.331-3.208,7.08,7.08,0,0,1,1.4-1.4,6.984,6.984,0,0,1,8.413-.006,7.09,7.09,0,0,1,1.413,1.414h0a7.015,7.015,0,0,1,0,8.4h0a6.992,6.992,0,0,1-1.414,1.414h0a7.006,7.006,0,0,1-11.145-4.616h0a6.368,6.368,0,0,1,0-2Zm-41.694-3.2h0a7.059,7.059,0,0,1,1.413-1.413,6.981,6.981,0,0,1,8.41,0,7.079,7.079,0,0,1,1.4,1.4,6.977,6.977,0,0,1,1.331,3.208,6.368,6.368,0,0,1,0,2h0a7.014,7.014,0,0,1-11.145,4.616h0a6.992,6.992,0,0,1-1.414-1.414h0a6.986,6.986,0,0,1,0-8.4ZM328.928,469.86a7.132,7.132,0,0,1-1.4,1.4,7.022,7.022,0,1,1-.008-11.226h0a7.076,7.076,0,0,1,1.412,1.412,6.985,6.985,0,0,1-.005,8.415Zm1.433,1.418a9,9,0,0,0,0-11.258l8.837-8.838a8.971,8.971,0,0,0,4.629,1.921V478.2a8.978,8.978,0,0,0-4.629,1.92Zm21.41,16.882a6.956,6.956,0,0,1-1.327,3.2h0a6.966,6.966,0,0,1-1.414,1.414h0a7.016,7.016,0,0,1-9.819-1.415h0a6.984,6.984,0,0,1,0-8.4,7.059,7.059,0,0,1,1.413-1.413,6.963,6.963,0,0,1,3.2-1.327h0a6.368,6.368,0,0,1,2,0h0a6.984,6.984,0,0,1,5.943,5.943h0a6.368,6.368,0,0,1,0,2Zm27.115-2h-25.1a9.022,9.022,0,0,0-7.963-7.964V453.1a9.022,9.022,0,0,0,7.963-7.964h25.1a9.022,9.022,0,0,0,7.963,7.964V478.2A9.022,9.022,0,0,0,378.886,486.16Zm15.906,2a6.959,6.959,0,0,1-1.331,3.21,7.072,7.072,0,0,1-1.4,1.4,7.015,7.015,0,0,1-9.828-1.408h0a6.954,6.954,0,0,1-1.326-3.2h0a6.368,6.368,0,0,1,0-2h0a6.984,6.984,0,0,1,5.943-5.943h0a6.329,6.329,0,0,1,2,0h0a6.968,6.968,0,0,1,3.2,1.327,7.059,7.059,0,0,1,1.413,1.413,6.862,6.862,0,0,1,1.327,5.2Zm27.113-2H396.812a8.97,8.97,0,0,0-1.92-4.629l8.838-8.837a9,9,0,0,0,11.258,0l8.838,8.837A8.974,8.974,0,0,0,421.9,486.159Zm-5.5-14.881a9,9,0,0,0,0-11.258l8.837-8.837a8.978,8.978,0,0,0,4.629,1.92V478.2a8.978,8.978,0,0,0-4.629,1.92Zm21.409,16.881a6.956,6.956,0,0,1-1.327,3.2h0a6.965,6.965,0,0,1-1.414,1.414h0a6.983,6.983,0,0,1-8.4,0h0a7.034,7.034,0,0,1-1.412-1.409,6.957,6.957,0,0,1-1.33-3.207h0a7,7,0,0,1-.08-1,7.11,7.11,0,0,1,.079-1,6.954,6.954,0,0,1,1.327-3.206,7.061,7.061,0,0,1,1.413-1.413,6.963,6.963,0,0,1,3.2-1.327h0a6.368,6.368,0,0,1,2,0h0a6.967,6.967,0,0,1,3.206,1.329,7.064,7.064,0,0,1,1.4,1.4,6.967,6.967,0,0,1,1.334,3.211h0a6.37,6.37,0,0,1,0,2Zm-1.313-8.043a8.979,8.979,0,0,0-4.63-1.921V453.1a8.979,8.979,0,0,0,4.63-1.921l8.837,8.838a9,9,0,0,0,0,11.259Zm28.428,6.043h-25.1a8.98,8.98,0,0,0-1.919-4.629l8.838-8.837a9,9,0,0,0,11.257,0l8.838,8.838A8.965,8.965,0,0,0,464.927,486.159Zm-5.505-14.88a9,9,0,0,0,0-11.258l8.838-8.838a8.982,8.982,0,0,0,4.629,1.92V478.2a8.979,8.979,0,0,0-4.63,1.921Zm19.433,10.914a7.018,7.018,0,1,1-10.581,9.168h0a7.015,7.015,0,0,1,0-8.4h0a7.016,7.016,0,0,1,4.617-2.742h0a6.328,6.328,0,0,1,2,0h0A6.991,6.991,0,0,1,478.855,482.193Zm-3.969-31.111a7.016,7.016,0,0,1-5.2-1.328,7.066,7.066,0,0,1-1.411-1.411,7.013,7.013,0,0,1,0-8.412,7.05,7.05,0,0,1,1.4-1.4,7.017,7.017,0,1,1,5.206,12.553Z" fill="#dedfe2"/>
    <path id="border" d="M-5373.5-2850.638h-168a8.01,8.01,0,0,1-8-8v-55a8.009,8.009,0,0,1,8-8h168a8.009,8.009,0,0,1,8,8v55A8.009,8.009,0,0,1-5373.5-2850.638Zm-167-69a7.008,7.008,0,0,0-7,7v53a7.009,7.009,0,0,0,7,7h166a7.009,7.009,0,0,0,7-7v-53a7.008,7.008,0,0,0-7-7Z" transform="translate(5855.5 3352.139)" fill="#c6c6c6"/>
    <g id="ARROW-TOP" transform="translate(340 445.5) rotate(-90)" fill="#076fbc">
      <path d="M -1.197154521942139 55.00542831420898 L -1.091114521026611 51.9480094909668 L -0.4788545370101929 34.29540634155273 L -0.394894540309906 31.8746280670166 L 1.734825491905212 33.02854919433594 L 4.883543968200684 34.73457717895508 C 6.319986343383789 31.49298095703125 7.07381534576416 27.94722366333008 7.07381534576416 24.39011764526367 C 7.070224285125732 17.73758506774902 4.552443981170654 11.48232269287109 -0.0198042169213295 6.758201599121094 L -0.1311545372009277 6.644757747650146 C -1.950384497642517 4.787667751312256 -1.949834585189819 1.766427755355835 -0.1299245357513428 -0.09009221941232681 C 0.7608554363250732 -0.9991922378540039 1.948005437850952 -1.499992251396179 3.212615489959717 -1.499992251396179 C 4.477035522460938 -1.499992251396179 5.664295673370361 -0.9993321895599365 6.555685520172119 -0.09021221846342087 C 9.794255256652832 3.21167778968811 12.30360507965088 7.066667556762695 14.01388549804688 11.36751747131348 C 15.66542530059814 15.52065753936768 16.50187492370605 19.90229797363281 16.49999618530273 24.3907470703125 C 16.49999618530273 29.50869941711426 15.36550712585449 34.61299896240234 13.2081127166748 39.24468994140625 L 15.36926555633545 40.41561889648438 L 17.47073554992676 41.55420684814453 L 15.53159523010254 42.95145797729492 L 1.284885406494141 53.21697616577148 L -1.197154521942139 55.00542831420898 Z" stroke="none"/>
      <path d="M 3.212618827819824 0 C 2.390410423278809 0 1.568310737609863 0.3199844360351562 0.9412450790405273 0.9599494934082031 C -0.3136043548583984 2.240036010742188 -0.3136043548583984 4.314998626708984 0.9403753280639648 5.595077514648438 L 0.9412450790405273 5.595077514648438 C 6.035455703735352 10.79378890991211 8.570135116577148 17.57692718505859 8.57381534576416 24.39011764526367 C 8.57381534576416 28.66639709472656 7.558415412902832 32.93442535400391 5.553455352783203 36.80356597900391 L 1.020245552062988 34.34739685058594 L 0.4079856872558594 51.99999618530273 L 14.65469551086426 41.73447799682617 L 11.22591590881348 39.87673950195312 C 13.73395538330078 35.04134750366211 14.99999523162842 29.71609687805176 14.99999523162842 24.39011764526367 C 15.00353527069092 15.92047882080078 11.82171535491943 7.420928955078125 5.484645843505859 0.9599494934082031 C 4.857145309448242 0.3199844360351562 4.034828186035156 0 3.212618827819824 0 M 3.212615013122559 -3.000003814697266 C 4.883285522460938 -3.000003814697266 6.450915336608887 -2.339580535888672 7.626735687255859 -1.140403747558594 C 11.00540542602539 2.304336547851562 13.62342548370361 6.326236724853516 15.40772533416748 10.81323623657227 C 17.12978553771973 15.14372634887695 18.00195503234863 19.71206855773926 17.99999618530273 24.39136695861816 C 17.99999618530273 29.25482940673828 17.01717567443848 34.10697174072266 15.13962459564209 38.58517456054688 L 16.08383560180664 39.09675598144531 L 20.28676605224609 41.37393951416016 L 16.40849494934082 44.16843795776367 L 2.161785125732422 54.43395614624023 L -2.802294731140137 58.01084899902344 L -2.590214729309082 51.8960075378418 L -1.977953910827637 34.243408203125 L -1.810025215148926 29.40185737609863 L 2.449405670166016 31.70968818664551 L 4.121096611022949 32.61544036865234 C 5.07648754119873 29.98916053771973 5.57381534576416 27.19353294372559 5.57381534576416 24.39011764526367 C 5.570435523986816 18.13525772094727 3.206154823303223 12.25411605834961 -1.087018013000488 7.812393188476562 L -1.20268440246582 7.694438934326172 C -2.36191463470459 6.511077880859375 -3.000214576721191 4.942306518554688 -3.000004768371582 3.277126312255859 C -2.999785423278809 1.611759185791016 -2.360915184020996 0.04300689697265625 -1.201094627380371 -1.140140533447266 C -0.02611446380615234 -2.339313507080078 1.541545867919922 -3.000003814697266 3.212615013122559 -3.000003814697266 Z" stroke="none" fill="#fff"/>
    </g>
    <path id="motor-minus" d="M-5573.225-2910.033a15.9,15.9,0,0,1-11.314-4.686,15.892,15.892,0,0,1-4.687-11.313,15.893,15.893,0,0,1,4.687-11.314,15.9,15.9,0,0,1,11.314-4.687,15.891,15.891,0,0,1,11.313,4.687,15.894,15.894,0,0,1,4.687,11.314,15.892,15.892,0,0,1-4.687,11.313A15.893,15.893,0,0,1-5573.225-2910.033Zm-8-18v4h16v-4Z" transform="translate(5939.226 3392.532)" fill="#444"/>
  </g>
</svg>
