<svg id="Layer_1" data-name="Layer 1" xmlns="http://www.w3.org/2000/svg" viewBox="0 0 245 100">
    <path
        d="M164.88721,11.65693a33.84322,33.84322,0,0,1,11.36328,1.61719,18.96,18.96,0,0,1,7.06543,4.21289,14.37778,14.37778,0,0,1,3.61816,5.7461,20.07453,20.07453,0,0,1,1.02149,6.21386,19.45958,19.45958,0,0,1-2.34082,9.96,16.65378,16.65378,0,0,1-7.53418,6.46973L190.6792,72.43525H179.44287L168.54736,48.25947c-.51074.05762-1.05078.10059-1.61718.12793q-.85254.04395-1.78809.043H154.24658V72.43525H144.1167V11.65693Zm.76562,28.09082a19.58829,19.58829,0,0,0,5.78809-.72363,8.71282,8.71282,0,0,0,3.61816-2.043,7.40953,7.40953,0,0,0,1.87305-3.19238,14.71748,14.71748,0,0,0,.55273-4.1709,11.22394,11.22394,0,0,0-.63769-3.873,6.91141,6.91141,0,0,0-2.12891-2.97949,10.53081,10.53081,0,0,0-3.958-1.915,23.43227,23.43227,0,0,0-6.1289-.68164H154.24658v19.5791Z" />
    <path
        d="M205.83057,54.98506q.59472,5.78906,3.19238,8.21387,2.5957,2.42724,8.2998,2.42675,5.02149,0,7.917-2.38379,2.8916-2.38183,2.89355-7.57617,0-5.02148-2.68066-7.23535-2.68214-2.21339-7.874-2.21387h-6.38476V37.61982h6.80957q7.32129,0,8.34277-6.46972a10.16145,10.16145,0,0,0,.33985-4.25684,6.74539,6.74539,0,0,0-2.97852-4.97949,11.71134,11.71134,0,0,0-6.38477-1.57422q-5.1079,0-7.7041,2.16992-2.59716,2.1709-3.873,7.02344l-9.19336-1.27734a27.0359,27.0359,0,0,1,2.08593-6.25684,16.81946,16.81946,0,0,1,3.87305-5.19238,17.54806,17.54806,0,0,1,6.08594-3.53223,26.62516,26.62516,0,0,1,8.81054-1.27734,26.11809,26.11809,0,0,1,8.59766,1.27734,17.74464,17.74464,0,0,1,6.04395,3.4043,13.34824,13.34824,0,0,1,3.53222,4.9375,15.58165,15.58165,0,0,1,1.14942,5.959q0,9.36476-8.17188,13.62012a14.751,14.751,0,0,1,7.32129,5.831,15.86855,15.86855,0,0,1,2.21289,8.29883q0,8.68359-5.15039,13.66309-5.15038,4.979-15.45019,4.97949a26.70275,26.70275,0,0,1-10.21485-1.70215,17.60729,17.60729,0,0,1-6.51172-4.42676,16.536,16.536,0,0,1-3.49023-6.1289,27.12051,27.12051,0,0,1-1.23438-6.72461Z" />
    <path
        d="M79.35946,10.35854,62.16965,36.48848a1.3877,1.3877,0,0,1-.38488.38235,1.33417,1.33417,0,0,1-1.84459-.38235L42.74532,10.35854a1.38,1.38,0,0,1-.21719-.73491,1.3253,1.3253,0,0,1,1.33193-1.32688H78.24977a1.30592,1.30592,0,0,1,.72532.21408A1.33828,1.33828,0,0,1,79.35946,10.35854Z" />
    <path
        d="M60.51562,91.70478c-10.9248,0-24.01416-2.90722-24.95019-11.0996l-.02979-.4961-.06738-14.21972C17.751,61.35762,6.90674,52.37129,6.90674,41.98506c0-10.10059,10.14209-18.91944,27.13037-23.59033a4.55707,4.55707,0,1,1,2.416,8.78808C24.23193,30.54268,16.021,36.49141,16.021,41.98506c0,6.21777,10.251,12.7251,24.92871,15.82568l3.59765.75977.09815,20.63965c1.398,1.26806,7.0625,3.38037,15.87011,3.38037,8.80811,0,14.47266-2.11231,15.87061-3.38037l.09766-20.63965,3.59765-.75977c14.67774-3.10058,24.92871-9.60791,24.92871-15.82568,0-5.49121-8.20605-11.43848-20.41943-14.79932a4.55686,4.55686,0,0,1,2.418-8.78711c16.979,4.67188,27.11572,13.48926,27.11572,23.58643,0,10.38623-10.84424,19.37207-28.561,23.9043l-.09717,14.71582C84.53027,88.79756,71.44043,91.70478,60.51562,91.70478Z" />
</svg>
