<svg id="Layer_1" data-name="Layer 1" xmlns="http://www.w3.org/2000/svg" xmlns:xlink="http://www.w3.org/1999/xlink" width="362" height="321" viewBox="0 0 362 321"><defs><style>.cls-1{fill:none;stroke:#101010;stroke-width:3.96px;}.cls-2{fill:#101010;}.cls-3{fill:#241c3c;}.cls-4{fill:#abb2be;}.cls-5{fill:url(#linear-gradient);}.cls-6{fill:#5b5e63;}.cls-7{fill:#fbfdfd;}.cls-8{fill:#e5e5e6;}.cls-9{fill:#bbbfc1;}.cls-10{fill:url(#linear-gradient-2);}.cls-11{fill:url(#linear-gradient-3);}.cls-12{fill:url(#linear-gradient-4);}.cls-13{fill:url(#linear-gradient-5);}.cls-14{fill:url(#linear-gradient-6);}.cls-15{fill:url(#linear-gradient-7);}.cls-16{fill:url(#linear-gradient-8);}.cls-17{fill:url(#linear-gradient-9);}.cls-18{fill:url(#linear-gradient-10);}.cls-19{fill:url(#linear-gradient-11);}.cls-20{fill:url(#linear-gradient-12);}</style><linearGradient id="linear-gradient" x1="192.16" y1="-545.25" x2="192.16" y2="-805.19" gradientTransform="translate(-494 104) rotate(90)" gradientUnits="userSpaceOnUse"><stop offset="0" stop-color="#292929"/><stop offset="0.1" stop-color="#797979" stop-opacity="0"/><stop offset="0.9" stop-color="#797979" stop-opacity="0"/><stop offset="1" stop-color="#292929"/></linearGradient><linearGradient id="linear-gradient-2" x1="137.4" y1="258.17" x2="137.4" y2="161.11" gradientTransform="matrix(1, 0, 0, 1, 0, 0)" xlink:href="#linear-gradient"/><linearGradient id="linear-gradient-3" x1="-797.29" y1="258.17" x2="-797.29" y2="161.11" gradientTransform="matrix(-1, 0, 0, 1, -573, 0)" xlink:href="#linear-gradient"/><linearGradient id="linear-gradient-4" x1="47.12" y1="289.76" x2="47.12" y2="31.71" gradientTransform="matrix(1, 0, 0, 1, 0, 0)" xlink:href="#linear-gradient"/><linearGradient id="linear-gradient-5" x1="89.25" y1="289.76" x2="89.25" y2="31.71" gradientTransform="matrix(1, 0, 0, 1, 0, 0)" xlink:href="#linear-gradient"/><linearGradient id="linear-gradient-6" x1="272.82" y1="289.76" x2="272.82" y2="31.71" gradientTransform="matrix(1, 0, 0, 1, 0, 0)" xlink:href="#linear-gradient"/><linearGradient id="linear-gradient-7" x1="315.7" y1="289.76" x2="315.7" y2="31.71" gradientTransform="matrix(1, 0, 0, 1, 0, 0)" xlink:href="#linear-gradient"/><linearGradient id="linear-gradient-8" x1="-79.16" y1="-545.25" x2="-79.16" y2="-805.19" xlink:href="#linear-gradient"/><linearGradient id="linear-gradient-9" x1="342.86" y1="151.33" x2="342.86" y2="42.25" gradientUnits="userSpaceOnUse"><stop offset="0" stop-color="#292929"/><stop offset="0.4" stop-color="#797979"/><stop offset="0.6" stop-color="#797979"/><stop offset="1" stop-color="#292929"/></linearGradient><linearGradient id="linear-gradient-10" x1="20.14" y1="151.33" x2="20.14" y2="42.25" xlink:href="#linear-gradient-9"/><linearGradient id="linear-gradient-11" x1="342.86" y1="282.24" x2="342.86" y2="173.15" xlink:href="#linear-gradient-9"/><linearGradient id="linear-gradient-12" x1="20.14" y1="282.24" x2="20.14" y2="173.15" xlink:href="#linear-gradient-9"/></defs><title>drivetrain</title><rect class="cls-1" x="29.8" y="88.1" width="15" height="15.8"/><rect class="cls-1" x="314.2" y="88.1" width="15" height="15.8"/><rect class="cls-1" x="29.8" y="217.5" width="15" height="15.8"/><rect class="cls-1" x="314.2" y="217.5" width="15" height="15.8"/><path class="cls-1" d="M263,274.9V270a2.9,2.9,0,0,1,2.9-2.8h2.4v24.1H245V280.6a2.8,2.8,0,0,1,2.8-2.9h12.4A2.7,2.7,0,0,0,263,274.9Z"/><path class="cls-1" d="M305.9,274.9V270a2.9,2.9,0,0,1,2.8-2.8h2.5v24.1H287.9V280.6a2.8,2.8,0,0,1,2.8-2.9h12.4A2.7,2.7,0,0,0,305.9,274.9Z"/><path class="cls-1" d="M99.8,274.9V270a2.9,2.9,0,0,0-2.8-2.8H94.5v24.1h23.3V280.6a2.8,2.8,0,0,0-2.8-2.9H102.6A2.7,2.7,0,0,1,99.8,274.9Z"/><path class="cls-1" d="M56.9,274.9V270a2.9,2.9,0,0,0-2.8-2.8H51.6v24.1H75V280.6a2.9,2.9,0,0,0-2.9-2.9H59.7A2.8,2.8,0,0,1,56.9,274.9Z"/><path class="cls-1" d="M263,47.3v4.9a2.8,2.8,0,0,0,2.9,2.8h2.4V31H245V41.7a2.8,2.8,0,0,0,2.8,2.8h12.4A2.8,2.8,0,0,1,263,47.3Z"/><path class="cls-1" d="M305.9,47.3v4.9a2.8,2.8,0,0,0,2.8,2.8h2.5V31H287.9V41.7a2.8,2.8,0,0,0,2.8,2.8h12.4A2.8,2.8,0,0,1,305.9,47.3Z"/><path class="cls-1" d="M99.8,47.3v4.9A2.8,2.8,0,0,1,97,55H94.5V31h23.3V41.7a2.8,2.8,0,0,1-2.8,2.8H102.6A2.8,2.8,0,0,0,99.8,47.3Z"/><path class="cls-1" d="M56.9,47.3v4.9A2.8,2.8,0,0,1,54.1,55H51.6V31H75V41.7a2.9,2.9,0,0,1-2.9,2.8H59.7A2.9,2.9,0,0,0,56.9,47.3Z"/><rect class="cls-1" x="51.3" y="290.1" width="259.9" height="12.04"/><rect class="cls-1" x="51.3" y="290.1" width="259.9" height="12.04"/><rect class="cls-1" x="288.1" y="290.1" width="2.3" height="12.04"/><rect class="cls-1" x="265.7" y="290.1" width="2.3" height="12.04"/><rect class="cls-1" x="244.5" y="290.1" width="2.3" height="12.04"/><rect class="cls-1" x="222.5" y="290.1" width="2.3" height="12.04"/><rect class="cls-1" x="200.5" y="290.1" width="2.3" height="12.04"/><rect class="cls-1" x="179.3" y="290.1" width="2.3" height="12.04"/><rect class="cls-1" x="157.3" y="290.1" width="2.3" height="12.04"/><rect class="cls-1" x="136.1" y="290.1" width="2.3" height="12.04"/><rect class="cls-1" x="114.2" y="290.1" width="2.3" height="12.04"/><rect class="cls-1" x="92.2" y="290.1" width="2.3" height="12.04"/><rect class="cls-1" x="70.2" y="290.1" width="2.3" height="12.04"/><rect class="cls-1" x="16.3" y="92.7" width="85" height="6.77"/><rect class="cls-1" x="262.3" y="92.7" width="85" height="6.77"/><rect class="cls-1" x="16.3" y="222.1" width="85" height="6.77"/><rect class="cls-1" x="262.3" y="222.1" width="85" height="6.77"/><path class="cls-1" d="M168.5,214.6V203.2a3.3,3.3,0,0,1,2.5-3.1l8.5-1.9V163.4l-65.9-1.8v36.6l8.5,1.9a3.3,3.3,0,0,1,2.5,3.1v11.4a3.2,3.2,0,0,1-2.5,3l-8.5,1.9v38.2l65.9-1.8V219.5l-8.5-1.9A3.2,3.2,0,0,1,168.5,214.6Z"/><path class="cls-1" d="M122.1,217.6a3.2,3.2,0,0,0,2.5-3V203.2a3.3,3.3,0,0,0-2.5-3.1l-8.5-1.9V161.6l-18.3-.5v97.1l18.3-.5V219.5Z"/><path class="cls-1" d="M171,200.1a3.3,3.3,0,0,0-2.5,3.1v11.4a3.2,3.2,0,0,0,2.5,3l8.5,1.9V198.2Z"/><polygon class="cls-1" points="113.6 161.6 95.3 161.1 95.3 258.2 113.6 257.7 179.5 255.9 179.5 219.5 179.5 198.2 179.5 163.4 113.6 161.6"/><path class="cls-1" d="M192.9,214.6V203.2a3.3,3.3,0,0,0-2.5-3.1l-8.6-1.9V163.4l66.5-1.8v36.6l-8.6,1.9a3.3,3.3,0,0,0-2.5,3.1v11.4a3.2,3.2,0,0,0,2.5,3l8.6,1.9v38.2l-66.5-1.8V219.5l8.6-1.9A3.2,3.2,0,0,0,192.9,214.6Z"/><path class="cls-1" d="M239.7,217.6a3.2,3.2,0,0,1-2.5-3V203.2a3.3,3.3,0,0,1,2.5-3.1l8.6-1.9V161.6l18.5-.5v97.1l-18.5-.5V219.5Z"/><path class="cls-1" d="M190.4,200.1a3.3,3.3,0,0,1,2.5,3.1v11.4a3.2,3.2,0,0,1-2.5,3l-8.6,1.9V198.2Z"/><polygon class="cls-1" points="248.3 161.6 266.8 161.1 266.8 258.2 248.3 257.7 181.8 255.9 181.8 219.5 181.8 198.2 181.8 163.4 248.3 161.6"/><rect class="cls-1" x="41.1" y="31.7" width="12" height="258.05"/><rect class="cls-1" x="41.1" y="31.7" width="12" height="258.05"/><rect class="cls-1" x="41.1" y="52.4" width="12" height="2.26"/><rect class="cls-1" x="41.1" y="74.6" width="12" height="2.26"/><rect class="cls-1" x="41.1" y="95.7" width="12" height="2.26"/><rect class="cls-1" x="41.1" y="117.5" width="12" height="2.26"/><rect class="cls-1" x="41.1" y="139.3" width="12" height="2.26"/><rect class="cls-1" x="41.1" y="160.4" width="12" height="2.26"/><rect class="cls-1" x="41.1" y="182.2" width="12" height="2.26"/><rect class="cls-1" x="41.1" y="203.2" width="12" height="2.26"/><rect class="cls-1" x="41.1" y="225.1" width="12" height="2.26"/><rect class="cls-1" x="41.1" y="246.9" width="12" height="2.26"/><rect class="cls-1" x="41.1" y="268.7" width="12" height="2.26"/><rect class="cls-1" x="83.2" y="31.7" width="12" height="258.05"/><rect class="cls-1" x="83.2" y="31.7" width="12" height="258.05"/><rect class="cls-1" x="83.2" y="52.4" width="12" height="2.26"/><rect class="cls-1" x="83.2" y="74.6" width="12" height="2.26"/><rect class="cls-1" x="83.2" y="95.7" width="12" height="2.26"/><rect class="cls-1" x="83.2" y="117.5" width="12" height="2.26"/><rect class="cls-1" x="83.2" y="139.3" width="12" height="2.26"/><rect class="cls-1" x="83.2" y="160.4" width="12" height="2.26"/><rect class="cls-1" x="83.2" y="182.2" width="12" height="2.26"/><rect class="cls-1" x="83.2" y="203.2" width="12" height="2.26"/><rect class="cls-1" x="83.2" y="225.1" width="12" height="2.26"/><rect class="cls-1" x="83.2" y="246.9" width="12" height="2.26"/><rect class="cls-1" x="83.2" y="268.7" width="12" height="2.26"/><rect class="cls-1" x="266.8" y="31.7" width="12" height="258.05"/><rect class="cls-1" x="266.8" y="31.7" width="12" height="258.05"/><rect class="cls-1" x="266.8" y="52.4" width="12" height="2.26"/><rect class="cls-1" x="266.8" y="74.6" width="12" height="2.26"/><rect class="cls-1" x="266.8" y="95.7" width="12" height="2.26"/><rect class="cls-1" x="266.8" y="117.5" width="12" height="2.26"/><rect class="cls-1" x="266.8" y="139.3" width="12" height="2.26"/><rect class="cls-1" x="266.8" y="160.4" width="12" height="2.26"/><rect class="cls-1" x="266.8" y="182.2" width="12" height="2.26"/><rect class="cls-1" x="266.8" y="203.2" width="12" height="2.26"/><rect class="cls-1" x="266.8" y="225.1" width="12" height="2.26"/><rect class="cls-1" x="266.8" y="246.9" width="12" height="2.26"/><rect class="cls-1" x="266.8" y="268.7" width="12" height="2.26"/><rect class="cls-1" x="309.7" y="31.7" width="12" height="258.05"/><rect class="cls-1" x="309.7" y="31.7" width="12" height="258.05"/><rect class="cls-1" x="309.7" y="52.4" width="12" height="2.26"/><rect class="cls-1" x="309.7" y="74.6" width="12" height="2.26"/><rect class="cls-1" x="309.7" y="95.7" width="12" height="2.26"/><rect class="cls-1" x="309.7" y="117.5" width="12" height="2.26"/><rect class="cls-1" x="309.7" y="139.3" width="12" height="2.26"/><rect class="cls-1" x="309.7" y="160.4" width="12" height="2.26"/><rect class="cls-1" x="309.7" y="182.2" width="12" height="2.26"/><rect class="cls-1" x="309.7" y="203.2" width="12" height="2.26"/><rect class="cls-1" x="309.7" y="225.1" width="12" height="2.26"/><rect class="cls-1" x="309.7" y="246.9" width="12" height="2.26"/><rect class="cls-1" x="309.7" y="268.7" width="12" height="2.26"/><rect class="cls-1" x="51.3" y="18.8" width="259.9" height="12.04"/><rect class="cls-1" x="51.3" y="18.8" width="259.9" height="12.04"/><rect class="cls-1" x="288.1" y="18.8" width="2.3" height="12.04"/><rect class="cls-1" x="265.7" y="18.8" width="2.3" height="12.04"/><rect class="cls-1" x="244.5" y="18.8" width="2.3" height="12.04"/><rect class="cls-1" x="222.5" y="18.8" width="2.3" height="12.04"/><rect class="cls-1" x="200.5" y="18.8" width="2.3" height="12.04"/><rect class="cls-1" x="179.3" y="18.8" width="2.3" height="12.04"/><rect class="cls-1" x="157.3" y="18.8" width="2.3" height="12.04"/><rect class="cls-1" x="136.1" y="18.8" width="2.3" height="12.04"/><rect class="cls-1" x="114.2" y="18.8" width="2.3" height="12.04"/><rect class="cls-1" x="92.2" y="18.8" width="2.3" height="12.04"/><rect class="cls-1" x="70.2" y="18.8" width="2.3" height="12.04"/><path class="cls-1" d="M357.1,44.2h0a52.3,52.3,0,0,0-27.2-.3l-1.2.3a2.6,2.6,0,0,0-2,2.5V146.9a2.6,2.6,0,0,0,1.9,2.5,52.7,52.7,0,0,0,27.3.3l1.1-.3a2.7,2.7,0,0,0,2-2.6V46.7A2.6,2.6,0,0,0,357.1,44.2Z"/><path class="cls-1" d="M342.8,56.3l-8.6-3.6-7.5,3.1V63l7.5,3.2,8.6-3.6,8.6,3.6L359,63V55.9l-7.6-3.2Zm-8.6,4.5-3.1-1.3,3.1-1.3,3.1,1.3Zm20.6-1.3-3.1,1.3-3.1-1.3,3.1-1.3Z"/><polygon class="cls-1" points="352.5 52.3 359 55 359 49.6 352.5 52.3"/><polygon class="cls-1" points="335.3 52.3 342.8 55.4 350.3 52.3 342.8 49.1 335.3 52.3"/><polygon class="cls-1" points="335.3 95.3 342.8 98.4 350.3 95.3 342.8 92.2 335.3 95.3"/><polygon class="cls-1" points="359 83.7 359 78.3 352.5 81 359 83.7"/><path class="cls-1" d="M342.8,85l-8.6-3.6-7.5,3.1v7.2l7.5,3.2,8.6-3.6,8.6,3.6,7.6-3.2V84.6l-7.6-3.2Zm-8.6,4.5-3.1-1.3,3.1-1.3,3.1,1.3Zm20.6-1.3-3.1,1.3-3.1-1.3,3.1-1.3Z"/><path class="cls-1" d="M342.8,70.7l-8.6-3.6-7.5,3.1v7.2l7.5,3.1,8.6-3.6,8.6,3.6,7.6-3.2v-7l-7.6-3.2Zm-8.6,4.5-3.1-1.3,3.1-1.3,3.1,1.3Zm20.6-1.3-3.1,1.3-3.1-1.3,3.1-1.3Z"/><polygon class="cls-1" points="335.3 81 342.8 84.1 350.3 81 342.8 77.8 335.3 81"/><polygon class="cls-1" points="335.3 66.6 342.8 69.7 350.3 66.6 342.8 63.5 335.3 66.6"/><polygon class="cls-1" points="359 69.3 359 63.9 352.5 66.6 359 69.3"/><polygon class="cls-1" points="335.3 124 342.8 127.1 350.3 124 342.8 120.9 335.3 124"/><polygon class="cls-1" points="326.7 64 326.7 69.3 333.1 66.6 326.7 64"/><polygon class="cls-1" points="326.7 92.7 326.7 98 333.1 95.3 326.7 92.7"/><polygon class="cls-1" points="326.7 78.3 326.7 83.6 333.1 81 326.7 78.3"/><polygon class="cls-1" points="326.7 49.6 326.7 54.9 333.1 52.3 326.7 49.6"/><path class="cls-1" d="M342.8,48.2l8.6,3.6,7.6-3.2V46.7a2.6,2.6,0,0,0-1.9-2.5h0a52.3,52.3,0,0,0-27.2-.3l-1.2.3a2.6,2.6,0,0,0-2,2.5v2l7.5,3.1Zm8.9-4.3,3.1,1.3-3.1,1.3-3.1-1.3Zm-17.5,0,3.1,1.3-3.1,1.3-3.1-1.3Z"/><path class="cls-1" d="M338.9,151.2a49.5,49.5,0,0,0,7.7,0l-3.8-1.6Z"/><polygon class="cls-1" points="326.7 135.7 326.7 141 333.1 138.4 326.7 135.7"/><polygon class="cls-1" points="326.7 107 326.7 112.3 333.1 109.7 326.7 107"/><polygon class="cls-1" points="326.7 121.4 326.7 126.7 333.1 124 326.7 121.4"/><path class="cls-1" d="M342.8,99.4l-8.6-3.6-7.5,3.1v7.2l7.5,3.1,8.6-3.6,8.6,3.6L359,106V99l-7.6-3.2Zm-8.6,4.5-3.1-1.3,3.1-1.3,3.1,1.3Zm20.6-1.3-3.1,1.3-3.1-1.3,3.1-1.3Z"/><polygon class="cls-1" points="359 112.4 359 107 352.5 109.7 359 112.4"/><path class="cls-1" d="M342.8,113.7l-8.6-3.6-7.5,3.1v7.2l7.5,3.1,8.6-3.5,8.6,3.5,7.6-3.1v-7.1l-7.6-3.2Zm-8.6,4.5-3.1-1.3,3.1-1.3,3.1,1.3Zm20.6-1.3-3.1,1.3-3.1-1.3,3.1-1.3Z"/><polygon class="cls-1" points="335.3 109.7 342.8 112.8 350.3 109.7 342.8 106.5 335.3 109.7"/><polygon class="cls-1" points="359 98 359 92.6 352.5 95.3 359 98"/><path class="cls-1" d="M342.8,142.4l-8.6-3.6-7.5,3.1v5a2.6,2.6,0,0,0,1.9,2.5,49,49,0,0,0,8.5,1.6l5.7-2.3,5.7,2.3a67.7,67.7,0,0,0,7.4-1.3l1.1-.3a2.7,2.7,0,0,0,2-2.6V142l-7.6-3.2Zm-8.6,4.5-3.1-1.3,3.1-1.3,3.1,1.3Zm20.6-1.3-3.1,1.3-3.1-1.3,3.1-1.3Z"/><polygon class="cls-1" points="359 141.1 359 135.7 352.5 138.4 359 141.1"/><path class="cls-1" d="M342.8,128.1l-8.6-3.6-7.5,3.1v7.2l7.5,3.1,8.6-3.6,8.6,3.6,7.6-3.2v-7.1l-7.6-3.1Zm-8.6,4.5-3.1-1.3,3.1-1.3,3.1,1.3Zm20.6-1.3-3.1,1.3-3.1-1.3,3.1-1.3Z"/><polygon class="cls-1" points="335.3 138.4 342.8 141.5 350.3 138.4 342.8 135.2 335.3 138.4"/><polygon class="cls-1" points="359 126.7 359 121.3 352.5 124 359 126.7"/><path class="cls-1" d="M342.8,62.6l-8.6,3.6L326.7,63v1l6.4,2.6-6.4,2.7v.9l7.5-3.1,8.6,3.6,8.6-3.6,7.6,3.2v-1l-6.5-2.7,6.5-2.7V63l-7.6,3.2Zm0,7.1-7.5-3.1,7.5-3.1,7.5,3.1Z"/><polygon class="cls-1" points="351.7 75.2 354.8 73.9 351.7 72.6 348.6 73.9 351.7 75.2"/><polygon class="cls-1" points="331.1 73.9 334.2 75.2 337.3 73.9 334.2 72.6 331.1 73.9"/><path class="cls-1" d="M359,49.6v-1l-7.6,3.2-8.6-3.6-8.6,3.6-7.5-3.1v.9l6.4,2.7-6.4,2.6v.9l7.5-3.1,8.6,3.6,8.6-3.6,7.6,3.2V55l-6.5-2.7Zm-16.2,5.8-7.5-3.1,7.5-3.2,7.5,3.2Z"/><polygon class="cls-1" points="351.7 60.8 354.8 59.5 351.7 58.2 348.6 59.5 351.7 60.8"/><polygon class="cls-1" points="331.1 59.5 334.2 60.8 337.3 59.5 334.2 58.2 331.1 59.5"/><polygon class="cls-1" points="354.8 45.2 351.7 43.9 348.6 45.2 351.7 46.5 354.8 45.2"/><polygon class="cls-1" points="337.3 45.2 334.2 43.9 331.1 45.2 334.2 46.5 337.3 45.2"/><path class="cls-1" d="M342.8,76.9l-8.6,3.6-7.5-3.1v.9l6.4,2.7-6.4,2.6v.9l7.5-3.1,8.6,3.6,8.6-3.6,7.6,3.2v-.9L352.5,81l6.5-2.7v-1l-7.6,3.2Zm0,7.2L335.3,81l7.5-3.2,7.5,3.2Z"/><polygon class="cls-1" points="351.7 89.5 354.8 88.2 351.7 86.9 348.6 88.2 351.7 89.5"/><polygon class="cls-1" points="331.1 88.2 334.2 89.5 337.3 88.2 334.2 86.9 331.1 88.2"/><path class="cls-1" d="M342.8,91.3l-8.6,3.6-7.5-3.2v1l6.4,2.6L326.7,98v.9l7.5-3.1,8.6,3.6,8.6-3.6L359,99V98l-6.5-2.7,6.5-2.7v-.9l-7.6,3.2Zm0,7.1-7.5-3.1,7.5-3.1,7.5,3.1Z"/><polygon class="cls-1" points="351.7 103.9 354.8 102.6 351.7 101.3 348.6 102.6 351.7 103.9"/><polygon class="cls-1" points="331.1 102.6 334.2 103.9 337.3 102.6 334.2 101.3 331.1 102.6"/><path class="cls-1" d="M342.8,105.6l-8.6,3.6-7.5-3.1v.9l6.4,2.7-6.4,2.6v.9l7.5-3.1,8.6,3.6,8.6-3.6,7.6,3.2v-.9l-6.5-2.7L359,107v-1l-7.6,3.2Zm0,7.2-7.5-3.1,7.5-3.2,7.5,3.2Z"/><polygon class="cls-1" points="351.7 118.2 354.8 116.9 351.7 115.6 348.6 116.9 351.7 118.2"/><polygon class="cls-1" points="331.1 116.9 334.2 118.2 337.3 116.9 334.2 115.6 331.1 116.9"/><path class="cls-1" d="M342.8,120l-8.6,3.5-7.5-3.1v1l6.4,2.6-6.4,2.7v.9l7.5-3.1,8.6,3.6,8.6-3.6,7.6,3.1v-.9l-6.5-2.7,6.5-2.7v-.9l-7.6,3.1Zm0,7.1-7.5-3.1,7.5-3.1,7.5,3.1Z"/><polygon class="cls-1" points="351.7 132.6 354.8 131.3 351.7 130 348.6 131.3 351.7 132.6"/><polygon class="cls-1" points="331.1 131.3 334.2 132.6 337.3 131.3 334.2 130 331.1 131.3"/><path class="cls-1" d="M342.8,134.3l-8.6,3.6-7.5-3.1v.9l6.4,2.7-6.4,2.6v.9l7.5-3.1,8.6,3.6,8.6-3.6L359,142v-.9l-6.5-2.7,6.5-2.7v-1l-7.6,3.2Zm0,7.2-7.5-3.1,7.5-3.2,7.5,3.2Z"/><polygon class="cls-1" points="351.7 146.9 354.8 145.6 351.7 144.3 348.6 145.6 351.7 146.9"/><polygon class="cls-1" points="331.1 145.6 334.2 146.9 337.3 145.6 334.2 144.3 331.1 145.6"/><path class="cls-1" d="M337.1,151l1.8.2,3.9-1.6,3.8,1.6,1.9-.2-5.7-2.3Z"/><path class="cls-1" d="M34.4,44.2h0a52.7,52.7,0,0,0-27.3-.3L6,44.2a2.6,2.6,0,0,0-2,2.5V146.9a2.6,2.6,0,0,0,1.9,2.5,52.3,52.3,0,0,0,27.2.3l1.2-.3a2.7,2.7,0,0,0,2-2.6V46.7A2.6,2.6,0,0,0,34.4,44.2Z"/><path class="cls-1" d="M20.1,56.3l-8.6-3.6L4,55.8V63l7.5,3.2,8.6-3.6,8.6,3.6L36.3,63V55.9l-7.6-3.2Zm-8.6,4.5L8.4,59.5l3.1-1.3,3.1,1.3Zm20.6-1.3L29,60.8l-3.1-1.3L29,58.2Z"/><polygon class="cls-1" points="29.8 52.3 36.3 55 36.3 49.6 29.8 52.3"/><polygon class="cls-1" points="12.6 52.3 20.1 55.4 27.6 52.3 20.1 49.1 12.6 52.3"/><polygon class="cls-1" points="12.6 95.3 20.1 98.4 27.6 95.3 20.1 92.2 12.6 95.3"/><polygon class="cls-1" points="36.3 83.7 36.3 78.3 29.8 81 36.3 83.7"/><path class="cls-1" d="M20.1,85l-8.6-3.6L4,84.5v7.2l7.5,3.2,8.6-3.6,8.6,3.6,7.6-3.2V84.6l-7.6-3.2Zm-8.6,4.5L8.4,88.2l3.1-1.3,3.1,1.3Zm20.6-1.3L29,89.5l-3.1-1.3L29,86.9Z"/><path class="cls-1" d="M20.1,70.7l-8.6-3.6L4,70.2v7.2l7.5,3.1,8.6-3.6,8.6,3.6,7.6-3.2v-7l-7.6-3.2Zm-8.6,4.5L8.4,73.9l3.1-1.3,3.1,1.3Zm20.6-1.3L29,75.2l-3.1-1.3L29,72.6Z"/><polygon class="cls-1" points="12.6 81 20.1 84.1 27.6 81 20.1 77.8 12.6 81"/><polygon class="cls-1" points="12.6 66.6 20.1 69.7 27.6 66.6 20.1 63.5 12.6 66.6"/><polygon class="cls-1" points="36.3 69.3 36.3 63.9 29.8 66.6 36.3 69.3"/><polygon class="cls-1" points="12.6 124 20.1 127.1 27.6 124 20.1 120.9 12.6 124"/><polygon class="cls-1" points="4 64 4 69.3 10.3 66.6 4 64"/><polygon class="cls-1" points="4 92.7 4 98 10.3 95.3 4 92.7"/><polygon class="cls-1" points="4 78.3 4 83.6 10.3 81 4 78.3"/><polygon class="cls-1" points="4 49.6 4 54.9 10.3 52.3 4 49.6"/><path class="cls-1" d="M20.1,48.2l8.6,3.6,7.6-3.2V46.7a2.6,2.6,0,0,0-1.9-2.5h0a52.7,52.7,0,0,0-27.3-.3L6,44.2a2.6,2.6,0,0,0-2,2.5v2l7.5,3.1ZM29,43.9l3.1,1.3L29,46.5l-3.1-1.3Zm-17.5,0,3.1,1.3-3.1,1.3L8.4,45.2Z"/><path class="cls-1" d="M16.2,151.2a49.5,49.5,0,0,0,7.7,0l-3.8-1.6Z"/><polygon class="cls-1" points="4 135.7 4 141 10.3 138.4 4 135.7"/><polygon class="cls-1" points="4 107 4 112.3 10.3 109.7 4 107"/><polygon class="cls-1" points="4 121.4 4 126.7 10.3 124 4 121.4"/><path class="cls-1" d="M20.1,99.4l-8.6-3.6L4,98.9v7.2l7.5,3.1,8.6-3.6,8.6,3.6,7.6-3.2V99l-7.6-3.2Zm-8.6,4.5-3.1-1.3,3.1-1.3,3.1,1.3Zm20.6-1.3L29,103.9l-3.1-1.3,3.1-1.3Z"/><polygon class="cls-1" points="36.3 112.4 36.3 107 29.8 109.7 36.3 112.4"/><path class="cls-1" d="M20.1,113.7l-8.6-3.6L4,113.2v7.2l7.5,3.1,8.6-3.5,8.6,3.5,7.6-3.1v-7.1l-7.6-3.2Zm-8.6,4.5-3.1-1.3,3.1-1.3,3.1,1.3Zm20.6-1.3L29,118.2l-3.1-1.3,3.1-1.3Z"/><polygon class="cls-1" points="12.6 109.7 20.1 112.8 27.6 109.7 20.1 106.5 12.6 109.7"/><polygon class="cls-1" points="36.3 98 36.3 92.6 29.8 95.3 36.3 98"/><path class="cls-1" d="M20.1,142.4l-8.6-3.6L4,141.9v5a2.6,2.6,0,0,0,1.9,2.5,49,49,0,0,0,8.5,1.6l5.7-2.3,5.6,2.3a60.2,60.2,0,0,0,7.4-1.3l1.2-.3a2.7,2.7,0,0,0,2-2.6V142l-7.6-3.2Zm-8.6,4.5-3.1-1.3,3.1-1.3,3.1,1.3Zm20.6-1.3L29,146.9l-3.1-1.3,3.1-1.3Z"/><polygon class="cls-1" points="36.3 141.1 36.3 135.7 29.8 138.4 36.3 141.1"/><path class="cls-1" d="M20.1,128.1l-8.6-3.6L4,127.6v7.2l7.5,3.1,8.6-3.6,8.6,3.6,7.6-3.2v-7.1l-7.6-3.1Zm-8.6,4.5-3.1-1.3,3.1-1.3,3.1,1.3Zm20.6-1.3L29,132.6l-3.1-1.3L29,130Z"/><polygon class="cls-1" points="12.6 138.4 20.1 141.5 27.6 138.4 20.1 135.2 12.6 138.4"/><polygon class="cls-1" points="36.3 126.7 36.3 121.3 29.8 124 36.3 126.7"/><path class="cls-1" d="M20.1,62.6l-8.6,3.6L4,63v1l6.3,2.6L4,69.3v.9l7.5-3.1,8.6,3.6,8.6-3.6,7.6,3.2v-1l-6.5-2.7,6.5-2.7V63l-7.6,3.2Zm0,7.1-7.5-3.1,7.5-3.1,7.5,3.1Z"/><polygon class="cls-1" points="29 75.2 32.1 73.9 29 72.6 25.9 73.9 29 75.2"/><polygon class="cls-1" points="8.4 73.9 11.5 75.2 14.6 73.9 11.5 72.6 8.4 73.9"/><path class="cls-1" d="M36.3,49.6v-1l-7.6,3.2-8.6-3.6-8.6,3.6L4,48.7v.9l6.3,2.7L4,54.9v.9l7.5-3.1,8.6,3.6,8.6-3.6,7.6,3.2V55l-6.5-2.7ZM20.1,55.4l-7.5-3.1,7.5-3.2,7.5,3.2Z"/><polygon class="cls-1" points="29 60.8 32.1 59.5 29 58.2 25.9 59.5 29 60.8"/><polygon class="cls-1" points="8.4 59.5 11.5 60.8 14.6 59.5 11.5 58.2 8.4 59.5"/><polygon class="cls-1" points="32.1 45.2 29 43.9 25.9 45.2 29 46.5 32.1 45.2"/><polygon class="cls-1" points="14.6 45.2 11.5 43.9 8.4 45.2 11.5 46.5 14.6 45.2"/><path class="cls-1" d="M20.1,76.9l-8.6,3.6L4,77.4v.9L10.3,81,4,83.6v.9l7.5-3.1L20.1,85l8.6-3.6,7.6,3.2v-.9L29.8,81l6.5-2.7v-1l-7.6,3.2Zm0,7.2L12.6,81l7.5-3.2L27.6,81Z"/><polygon class="cls-1" points="29 89.5 32.1 88.2 29 86.9 25.9 88.2 29 89.5"/><polygon class="cls-1" points="8.4 88.2 11.5 89.5 14.6 88.2 11.5 86.9 8.4 88.2"/><path class="cls-1" d="M20.1,91.3l-8.6,3.6L4,91.7v1l6.3,2.6L4,98v.9l7.5-3.1,8.6,3.6,8.6-3.6L36.3,99V98l-6.5-2.7,6.5-2.7v-.9l-7.6,3.2Zm0,7.1-7.5-3.1,7.5-3.1,7.5,3.1Z"/><polygon class="cls-1" points="29 103.9 32.1 102.6 29 101.3 25.9 102.6 29 103.9"/><polygon class="cls-1" points="8.4 102.6 11.5 103.9 14.6 102.6 11.5 101.3 8.4 102.6"/><path class="cls-1" d="M20.1,105.6l-8.6,3.6L4,106.1v.9l6.3,2.7L4,112.3v.9l7.5-3.1,8.6,3.6,8.6-3.6,7.6,3.2v-.9l-6.5-2.7,6.5-2.7v-1l-7.6,3.2Zm0,7.2-7.5-3.1,7.5-3.2,7.5,3.2Z"/><polygon class="cls-1" points="29 118.2 32.1 116.9 29 115.6 25.9 116.9 29 118.2"/><polygon class="cls-1" points="8.4 116.9 11.5 118.2 14.6 116.9 11.5 115.6 8.4 116.9"/><path class="cls-1" d="M20.1,120l-8.6,3.5L4,120.4v1l6.3,2.6L4,126.7v.9l7.5-3.1,8.6,3.6,8.6-3.6,7.6,3.1v-.9L29.8,124l6.5-2.7v-.9l-7.6,3.1Zm0,7.1L12.6,124l7.5-3.1,7.5,3.1Z"/><polygon class="cls-1" points="29 132.6 32.1 131.3 29 130 25.9 131.3 29 132.6"/><polygon class="cls-1" points="8.4 131.3 11.5 132.6 14.6 131.3 11.5 130 8.4 131.3"/><path class="cls-1" d="M20.1,134.3l-8.6,3.6L4,134.8v.9l6.3,2.7L4,141v.9l7.5-3.1,8.6,3.6,8.6-3.6,7.6,3.2v-.9l-6.5-2.7,6.5-2.7v-1l-7.6,3.2Zm0,7.2-7.5-3.1,7.5-3.2,7.5,3.2Z"/><polygon class="cls-1" points="29 146.9 32.1 145.6 29 144.3 25.9 145.6 29 146.9"/><polygon class="cls-1" points="8.4 145.6 11.5 146.9 14.6 145.6 11.5 144.3 8.4 145.6"/><path class="cls-1" d="M14.4,151l1.8.2,3.9-1.6,3.8,1.6,1.8-.2-5.6-2.3Z"/><path class="cls-1" d="M357.1,175.1h0a52.3,52.3,0,0,0-27.2-.3l-1.2.3a2.6,2.6,0,0,0-2,2.5V277.8a2.6,2.6,0,0,0,1.9,2.5,52.7,52.7,0,0,0,27.3.3l1.1-.3a2.7,2.7,0,0,0,2-2.6V177.6A2.6,2.6,0,0,0,357.1,175.1Z"/><path class="cls-1" d="M342.8,187.2l-8.6-3.6-7.5,3.2V194l7.5,3.1,8.6-3.6,8.6,3.6,7.6-3.2v-7.1l-7.6-3.2Zm-8.6,4.5-3.1-1.3,3.1-1.3,3.1,1.3Zm20.6-1.3-3.1,1.3-3.1-1.3,3.1-1.3Z"/><polygon class="cls-1" points="352.5 183.2 359 185.9 359 180.5 352.5 183.2"/><polygon class="cls-1" points="335.3 183.2 342.8 186.3 350.3 183.2 342.8 180.1 335.3 183.2"/><polygon class="cls-1" points="335.3 226.2 342.8 229.3 350.3 226.2 342.8 223.1 335.3 226.2"/><polygon class="cls-1" points="359 214.6 359 209.2 352.5 211.9 359 214.6"/><path class="cls-1" d="M342.8,215.9l-8.6-3.6-7.5,3.1v7.2l7.5,3.2,8.6-3.6,8.6,3.6,7.6-3.2v-7.1l-7.6-3.2Zm-8.6,4.5-3.1-1.3,3.1-1.3,3.1,1.3Zm20.6-1.3-3.1,1.3-3.1-1.3,3.1-1.3Z"/><path class="cls-1" d="M342.8,201.6l-8.6-3.6-7.5,3.1v7.2l7.5,3.1,8.6-3.6,8.6,3.6,7.6-3.2v-7l-7.6-3.2Zm-8.6,4.5-3.1-1.3,3.1-1.3,3.1,1.3Zm20.6-1.3-3.1,1.3-3.1-1.3,3.1-1.3Z"/><polygon class="cls-1" points="335.3 211.9 342.8 215 350.3 211.9 342.8 208.8 335.3 211.9"/><polygon class="cls-1" points="335.3 197.5 342.8 200.6 350.3 197.5 342.8 194.4 335.3 197.5"/><polygon class="cls-1" points="359 200.2 359 194.8 352.5 197.5 359 200.2"/><polygon class="cls-1" points="335.3 254.9 342.8 258 350.3 254.9 342.8 251.8 335.3 254.9"/><polygon class="cls-1" points="326.7 194.9 326.7 200.2 333.1 197.5 326.7 194.9"/><polygon class="cls-1" points="326.7 223.6 326.7 228.9 333.1 226.2 326.7 223.6"/><polygon class="cls-1" points="326.7 209.2 326.7 214.5 333.1 211.9 326.7 209.2"/><polygon class="cls-1" points="326.7 180.5 326.7 185.8 333.1 183.2 326.7 180.5"/><path class="cls-1" d="M342.8,179.1l8.6,3.6,7.6-3.2v-1.9a2.6,2.6,0,0,0-1.9-2.5h0a52.3,52.3,0,0,0-27.2-.3l-1.2.3a2.6,2.6,0,0,0-2,2.5v2l7.5,3.1Zm8.9-4.3,3.1,1.3-3.1,1.3-3.1-1.3Zm-17.5,0,3.1,1.3-3.1,1.3-3.1-1.3Z"/><path class="cls-1" d="M338.9,282.1a49.5,49.5,0,0,0,7.7,0l-3.8-1.6Z"/><polygon class="cls-1" points="326.7 266.6 326.7 271.9 333.1 269.3 326.7 266.6"/><polygon class="cls-1" points="326.7 237.9 326.7 243.2 333.1 240.6 326.7 237.9"/><polygon class="cls-1" points="326.7 252.3 326.7 257.6 333.1 254.9 326.7 252.3"/><path class="cls-1" d="M342.8,230.3l-8.6-3.6-7.5,3.1V237l7.5,3.1,8.6-3.6,8.6,3.6,7.6-3.2v-7l-7.6-3.2Zm-8.6,4.5-3.1-1.3,3.1-1.3,3.1,1.3Zm20.6-1.3-3.1,1.3-3.1-1.3,3.1-1.3Z"/><polygon class="cls-1" points="359 243.3 359 237.9 352.5 240.6 359 243.3"/><path class="cls-1" d="M342.8,244.6l-8.6-3.6-7.5,3.1v7.2l7.5,3.2,8.6-3.6,8.6,3.6,7.6-3.2v-7.1l-7.6-3.2Zm-8.6,4.5-3.1-1.3,3.1-1.3,3.1,1.3Zm20.6-1.3-3.1,1.3-3.1-1.3,3.1-1.3Z"/><polygon class="cls-1" points="335.3 240.6 342.8 243.7 350.3 240.6 342.8 237.5 335.3 240.6"/><polygon class="cls-1" points="359 228.9 359 223.5 352.5 226.2 359 228.9"/><path class="cls-1" d="M342.8,273.3l-8.6-3.6-7.5,3.1v5a2.6,2.6,0,0,0,1.9,2.5,49,49,0,0,0,8.5,1.6l5.7-2.3,5.7,2.3a50,50,0,0,0,7.4-1.3l1.1-.3a2.7,2.7,0,0,0,2-2.6v-4.8l-7.6-3.2Zm-8.6,4.5-3.1-1.3,3.1-1.3,3.1,1.3Zm20.6-1.3-3.1,1.3-3.1-1.3,3.1-1.3Z"/><polygon class="cls-1" points="359 272 359 266.6 352.5 269.3 359 272"/><path class="cls-1" d="M342.8,259l-8.6-3.6-7.5,3.1v7.2l7.5,3.1,8.6-3.6,8.6,3.6,7.6-3.2v-7l-7.6-3.2Zm-8.6,4.5-3.1-1.3,3.1-1.3,3.1,1.3Zm20.6-1.3-3.1,1.3-3.1-1.3,3.1-1.3Z"/><polygon class="cls-1" points="335.3 269.3 342.8 272.4 350.3 269.3 342.8 266.1 335.3 269.3"/><polygon class="cls-1" points="359 257.6 359 252.2 352.5 254.9 359 257.6"/><path class="cls-1" d="M342.8,193.5l-8.6,3.6-7.5-3.1v.9l6.4,2.6-6.4,2.7v.9l7.5-3.1,8.6,3.6,8.6-3.6,7.6,3.2v-1l-6.5-2.7,6.5-2.7v-.9l-7.6,3.2Zm0,7.1-7.5-3.1,7.5-3.1,7.5,3.1Z"/><polygon class="cls-1" points="351.7 206.1 354.8 204.8 351.7 203.5 348.6 204.8 351.7 206.1"/><polygon class="cls-1" points="331.1 204.8 334.2 206.1 337.3 204.8 334.2 203.5 331.1 204.8"/><path class="cls-1" d="M359,180.5v-1l-7.6,3.2-8.6-3.6-8.6,3.6-7.5-3.1v.9l6.4,2.7-6.4,2.6v1l7.5-3.2,8.6,3.6,8.6-3.6,7.6,3.2v-.9l-6.5-2.7Zm-16.2,5.8-7.5-3.1,7.5-3.1,7.5,3.1Z"/><polygon class="cls-1" points="351.7 191.7 354.8 190.4 351.7 189.1 348.6 190.4 351.7 191.7"/><polygon class="cls-1" points="331.1 190.4 334.2 191.7 337.3 190.4 334.2 189.1 331.1 190.4"/><polygon class="cls-1" points="354.8 176.1 351.7 174.8 348.6 176.1 351.7 177.4 354.8 176.1"/><polygon class="cls-1" points="337.3 176.1 334.2 174.8 331.1 176.1 334.2 177.4 337.3 176.1"/><path class="cls-1" d="M342.8,207.8l-8.6,3.6-7.5-3.1v.9l6.4,2.7-6.4,2.6v.9l7.5-3.1,8.6,3.6,8.6-3.6,7.6,3.2v-.9l-6.5-2.7,6.5-2.7v-1l-7.6,3.2Zm0,7.2-7.5-3.1,7.5-3.1,7.5,3.1Z"/><polygon class="cls-1" points="351.7 220.4 354.8 219.1 351.7 217.8 348.6 219.1 351.7 220.4"/><polygon class="cls-1" points="331.1 219.1 334.2 220.4 337.3 219.1 334.2 217.8 331.1 219.1"/><path class="cls-1" d="M342.8,222.2l-8.6,3.6-7.5-3.2v1l6.4,2.6-6.4,2.7v.9l7.5-3.1,8.6,3.6,8.6-3.6,7.6,3.2v-1l-6.5-2.7,6.5-2.7v-.9l-7.6,3.2Zm0,7.1-7.5-3.1,7.5-3.1,7.5,3.1Z"/><polygon class="cls-1" points="351.7 234.8 354.8 233.5 351.7 232.2 348.6 233.5 351.7 234.8"/><polygon class="cls-1" points="331.1 233.5 334.2 234.8 337.3 233.5 334.2 232.2 331.1 233.5"/><path class="cls-1" d="M342.8,236.5l-8.6,3.6-7.5-3.1v.9l6.4,2.7-6.4,2.6v.9l7.5-3.1,8.6,3.6,8.6-3.6,7.6,3.2v-.9l-6.5-2.7,6.5-2.7v-1l-7.6,3.2Zm0,7.2-7.5-3.1,7.5-3.1,7.5,3.1Z"/><polygon class="cls-1" points="351.7 249.1 354.8 247.8 351.7 246.5 348.6 247.8 351.7 249.1"/><polygon class="cls-1" points="331.1 247.8 334.2 249.1 337.3 247.8 334.2 246.5 331.1 247.8"/><path class="cls-1" d="M342.8,250.9l-8.6,3.6-7.5-3.2v1l6.4,2.6-6.4,2.7v.9l7.5-3.1,8.6,3.6,8.6-3.6,7.6,3.2v-1l-6.5-2.7,6.5-2.7v-.9l-7.6,3.2Zm0,7.1-7.5-3.1,7.5-3.1,7.5,3.1Z"/><polygon class="cls-1" points="351.7 263.5 354.8 262.2 351.7 260.9 348.6 262.2 351.7 263.5"/><polygon class="cls-1" points="331.1 262.2 334.2 263.5 337.3 262.2 334.2 260.9 331.1 262.2"/><path class="cls-1" d="M342.8,265.2l-8.6,3.6-7.5-3.1v.9l6.4,2.7-6.4,2.6v.9l7.5-3.1,8.6,3.6,8.6-3.6,7.6,3.2V272l-6.5-2.7,6.5-2.7v-1l-7.6,3.2Zm0,7.2-7.5-3.1,7.5-3.2,7.5,3.2Z"/><polygon class="cls-1" points="351.7 277.8 354.8 276.5 351.7 275.2 348.6 276.5 351.7 277.8"/><polygon class="cls-1" points="331.1 276.5 334.2 277.8 337.3 276.5 334.2 275.2 331.1 276.5"/><path class="cls-1" d="M337.1,281.9l1.8.2,3.9-1.6,3.8,1.6,1.9-.2-5.7-2.3Z"/><path class="cls-1" d="M34.4,175.1h0a52.7,52.7,0,0,0-27.3-.3l-1.1.3a2.6,2.6,0,0,0-2,2.5V277.8a2.6,2.6,0,0,0,1.9,2.5,52.3,52.3,0,0,0,27.2.3l1.2-.3a2.7,2.7,0,0,0,2-2.6V177.6A2.6,2.6,0,0,0,34.4,175.1Z"/><path class="cls-1" d="M20.1,187.2l-8.6-3.6L4,186.8V194l7.5,3.1,8.6-3.6,8.6,3.6,7.6-3.2v-7.1l-7.6-3.2Zm-8.6,4.5-3.1-1.3,3.1-1.3,3.1,1.3Zm20.6-1.3L29,191.7l-3.1-1.3,3.1-1.3Z"/><polygon class="cls-1" points="29.8 183.2 36.3 185.9 36.3 180.5 29.8 183.2"/><polygon class="cls-1" points="12.6 183.2 20.1 186.3 27.6 183.2 20.1 180.1 12.6 183.2"/><polygon class="cls-1" points="12.6 226.2 20.1 229.3 27.6 226.2 20.1 223.1 12.6 226.2"/><polygon class="cls-1" points="36.3 214.6 36.3 209.2 29.8 211.9 36.3 214.6"/><path class="cls-1" d="M20.1,215.9l-8.6-3.6L4,215.4v7.2l7.5,3.2,8.6-3.6,8.6,3.6,7.6-3.2v-7.1l-7.6-3.2Zm-8.6,4.5-3.1-1.3,3.1-1.3,3.1,1.3Zm20.6-1.3L29,220.4l-3.1-1.3,3.1-1.3Z"/><path class="cls-1" d="M20.1,201.6,11.5,198,4,201.1v7.2l7.5,3.1,8.6-3.6,8.6,3.6,7.6-3.2v-7L28.7,198Zm-8.6,4.5-3.1-1.3,3.1-1.3,3.1,1.3Zm20.6-1.3L29,206.1l-3.1-1.3,3.1-1.3Z"/><polygon class="cls-1" points="12.6 211.9 20.1 215 27.6 211.9 20.1 208.8 12.6 211.9"/><polygon class="cls-1" points="12.6 197.5 20.1 200.6 27.6 197.5 20.1 194.4 12.6 197.5"/><polygon class="cls-1" points="36.3 200.2 36.3 194.8 29.8 197.5 36.3 200.2"/><polygon class="cls-1" points="12.6 254.9 20.1 258 27.6 254.9 20.1 251.8 12.6 254.9"/><polygon class="cls-1" points="4 194.9 4 200.2 10.3 197.5 4 194.9"/><polygon class="cls-1" points="4 223.6 4 228.9 10.3 226.2 4 223.6"/><polygon class="cls-1" points="4 209.2 4 214.5 10.3 211.9 4 209.2"/><polygon class="cls-1" points="4 180.5 4 185.8 10.3 183.2 4 180.5"/><path class="cls-1" d="M20.1,179.1l8.6,3.6,7.6-3.2v-1.9a2.6,2.6,0,0,0-1.9-2.5h0a52.7,52.7,0,0,0-27.3-.3l-1.1.3a2.6,2.6,0,0,0-2,2.5v2l7.5,3.1Zm8.9-4.3,3.1,1.3L29,177.4l-3.1-1.3Zm-17.5,0,3.1,1.3-3.1,1.3-3.1-1.3Z"/><path class="cls-1" d="M16.2,282.1a49.5,49.5,0,0,0,7.7,0l-3.8-1.6Z"/><polygon class="cls-1" points="4 266.6 4 271.9 10.3 269.3 4 266.6"/><polygon class="cls-1" points="4 237.9 4 243.2 10.3 240.6 4 237.9"/><polygon class="cls-1" points="4 252.3 4 257.6 10.3 254.9 4 252.3"/><path class="cls-1" d="M20.1,230.3l-8.6-3.6L4,229.8V237l7.5,3.1,8.6-3.6,8.6,3.6,7.6-3.2v-7l-7.6-3.2Zm-8.6,4.5-3.1-1.3,3.1-1.3,3.1,1.3Zm20.6-1.3L29,234.8l-3.1-1.3,3.1-1.3Z"/><polygon class="cls-1" points="36.3 243.3 36.3 237.9 29.8 240.6 36.3 243.3"/><path class="cls-1" d="M20.1,244.6,11.5,241,4,244.1v7.2l7.5,3.2,8.6-3.6,8.6,3.6,7.6-3.2v-7.1L28.7,241Zm-8.6,4.5-3.1-1.3,3.1-1.3,3.1,1.3Zm20.6-1.3L29,249.1l-3.1-1.3,3.1-1.3Z"/><polygon class="cls-1" points="12.6 240.6 20.1 243.7 27.6 240.6 20.1 237.5 12.6 240.6"/><polygon class="cls-1" points="36.3 228.9 36.3 223.5 29.8 226.2 36.3 228.9"/><path class="cls-1" d="M20.1,273.3l-8.6-3.6L4,272.8v5a2.6,2.6,0,0,0,1.9,2.5,49,49,0,0,0,8.5,1.6l5.7-2.3,5.6,2.3a45.8,45.8,0,0,0,7.4-1.3l1.2-.3a2.7,2.7,0,0,0,2-2.6v-4.8l-7.6-3.2Zm-8.6,4.5-3.1-1.3,3.1-1.3,3.1,1.3Zm20.6-1.3L29,277.8l-3.1-1.3,3.1-1.3Z"/><polygon class="cls-1" points="36.3 272 36.3 266.6 29.8 269.3 36.3 272"/><path class="cls-1" d="M20.1,259l-8.6-3.6L4,258.5v7.2l7.5,3.1,8.6-3.6,8.6,3.6,7.6-3.2v-7l-7.6-3.2Zm-8.6,4.5-3.1-1.3,3.1-1.3,3.1,1.3Zm20.6-1.3L29,263.5l-3.1-1.3,3.1-1.3Z"/><polygon class="cls-1" points="12.6 269.3 20.1 272.4 27.6 269.3 20.1 266.1 12.6 269.3"/><polygon class="cls-1" points="36.3 257.6 36.3 252.2 29.8 254.9 36.3 257.6"/><path class="cls-1" d="M20.1,193.5l-8.6,3.6L4,194v.9l6.3,2.6L4,200.2v.9l7.5-3.1,8.6,3.6,8.6-3.6,7.6,3.2v-1l-6.5-2.7,6.5-2.7v-.9l-7.6,3.2Zm0,7.1-7.5-3.1,7.5-3.1,7.5,3.1Z"/><polygon class="cls-1" points="29 206.1 32.1 204.8 29 203.5 25.9 204.8 29 206.1"/><polygon class="cls-1" points="8.4 204.8 11.5 206.1 14.6 204.8 11.5 203.5 8.4 204.8"/><path class="cls-1" d="M36.3,180.5v-1l-7.6,3.2-8.6-3.6-8.6,3.6L4,179.6v.9l6.3,2.7L4,185.8v1l7.5-3.2,8.6,3.6,8.6-3.6,7.6,3.2v-.9l-6.5-2.7Zm-16.2,5.8-7.5-3.1,7.5-3.1,7.5,3.1Z"/><polygon class="cls-1" points="29 191.7 32.1 190.4 29 189.1 25.9 190.4 29 191.7"/><polygon class="cls-1" points="8.4 190.4 11.5 191.7 14.6 190.4 11.5 189.1 8.4 190.4"/><polygon class="cls-1" points="32.1 176.1 29 174.8 25.9 176.1 29 177.4 32.1 176.1"/><polygon class="cls-1" points="14.6 176.1 11.5 174.8 8.4 176.1 11.5 177.4 14.6 176.1"/><path class="cls-1" d="M20.1,207.8l-8.6,3.6L4,208.3v.9l6.3,2.7L4,214.5v.9l7.5-3.1,8.6,3.6,8.6-3.6,7.6,3.2v-.9l-6.5-2.7,6.5-2.7v-1l-7.6,3.2Zm0,7.2-7.5-3.1,7.5-3.1,7.5,3.1Z"/><polygon class="cls-1" points="29 220.4 32.1 219.1 29 217.8 25.9 219.1 29 220.4"/><polygon class="cls-1" points="8.4 219.1 11.5 220.4 14.6 219.1 11.5 217.8 8.4 219.1"/><path class="cls-1" d="M20.1,222.2l-8.6,3.6L4,222.6v1l6.3,2.6L4,228.9v.9l7.5-3.1,8.6,3.6,8.6-3.6,7.6,3.2v-1l-6.5-2.7,6.5-2.7v-.9l-7.6,3.2Zm0,7.1-7.5-3.1,7.5-3.1,7.5,3.1Z"/><polygon class="cls-1" points="29 234.8 32.1 233.5 29 232.2 25.9 233.5 29 234.8"/><polygon class="cls-1" points="8.4 233.5 11.5 234.8 14.6 233.5 11.5 232.2 8.4 233.5"/><path class="cls-1" d="M20.1,236.5l-8.6,3.6L4,237v.9l6.3,2.7L4,243.2v.9l7.5-3.1,8.6,3.6,8.6-3.6,7.6,3.2v-.9l-6.5-2.7,6.5-2.7v-1l-7.6,3.2Zm0,7.2-7.5-3.1,7.5-3.1,7.5,3.1Z"/><polygon class="cls-1" points="29 249.1 32.1 247.8 29 246.5 25.9 247.8 29 249.1"/><polygon class="cls-1" points="8.4 247.8 11.5 249.1 14.6 247.8 11.5 246.5 8.4 247.8"/><path class="cls-1" d="M20.1,250.9l-8.6,3.6L4,251.3v1l6.3,2.6L4,257.6v.9l7.5-3.1,8.6,3.6,8.6-3.6,7.6,3.2v-1l-6.5-2.7,6.5-2.7v-.9l-7.6,3.2Zm0,7.1-7.5-3.1,7.5-3.1,7.5,3.1Z"/><polygon class="cls-1" points="29 263.5 32.1 262.2 29 260.9 25.9 262.2 29 263.5"/><polygon class="cls-1" points="8.4 262.2 11.5 263.5 14.6 262.2 11.5 260.9 8.4 262.2"/><path class="cls-1" d="M20.1,265.2l-8.6,3.6L4,265.7v.9l6.3,2.7L4,271.9v.9l7.5-3.1,8.6,3.6,8.6-3.6,7.6,3.2V272l-6.5-2.7,6.5-2.7v-1l-7.6,3.2Zm0,7.2-7.5-3.1,7.5-3.2,7.5,3.2Z"/><polygon class="cls-1" points="29 277.8 32.1 276.5 29 275.2 25.9 276.5 29 277.8"/><polygon class="cls-1" points="8.4 276.5 11.5 277.8 14.6 276.5 11.5 275.2 8.4 276.5"/><path class="cls-1" d="M14.4,281.9l1.8.2,3.9-1.6,3.8,1.6,1.8-.2-5.6-2.3Z"/><rect class="cls-2" x="29.8" y="88.1" width="15" height="15.8"/><rect class="cls-2" x="314.2" y="88.1" width="15" height="15.8"/><rect class="cls-2" x="29.8" y="217.5" width="15" height="15.8"/><rect class="cls-2" x="314.2" y="217.5" width="15" height="15.8"/><path class="cls-3" d="M263,274.9V270a2.9,2.9,0,0,1,2.9-2.8h2.4v24.1H245V280.6a2.8,2.8,0,0,1,2.8-2.9h12.4A2.7,2.7,0,0,0,263,274.9Z"/><path class="cls-3" d="M305.9,274.9V270a2.9,2.9,0,0,1,2.8-2.8h2.5v24.1H287.9V280.6a2.8,2.8,0,0,1,2.8-2.9h12.4A2.7,2.7,0,0,0,305.9,274.9Z"/><path class="cls-3" d="M99.8,274.9V270a2.9,2.9,0,0,0-2.8-2.8H94.5v24.1h23.3V280.6a2.8,2.8,0,0,0-2.8-2.9H102.6A2.7,2.7,0,0,1,99.8,274.9Z"/><path class="cls-3" d="M56.9,274.9V270a2.9,2.9,0,0,0-2.8-2.8H51.6v24.1H75V280.6a2.9,2.9,0,0,0-2.9-2.9H59.7A2.8,2.8,0,0,1,56.9,274.9Z"/><path class="cls-3" d="M263,47.3v4.9a2.8,2.8,0,0,0,2.9,2.8h2.4V31H245V41.7a2.8,2.8,0,0,0,2.8,2.8h12.4A2.8,2.8,0,0,1,263,47.3Z"/><path class="cls-3" d="M305.9,47.3v4.9a2.8,2.8,0,0,0,2.8,2.8h2.5V31H287.9V41.7a2.8,2.8,0,0,0,2.8,2.8h12.4A2.8,2.8,0,0,1,305.9,47.3Z"/><path class="cls-3" d="M99.8,47.3v4.9A2.8,2.8,0,0,1,97,55H94.5V31h23.3V41.7a2.8,2.8,0,0,1-2.8,2.8H102.6A2.8,2.8,0,0,0,99.8,47.3Z"/><path class="cls-3" d="M56.9,47.3v4.9A2.8,2.8,0,0,1,54.1,55H51.6V31H75V41.7a2.9,2.9,0,0,1-2.9,2.8H59.7A2.9,2.9,0,0,0,56.9,47.3Z"/><rect class="cls-4" x="51.3" y="290.1" width="259.9" height="12.04"/><rect class="cls-5" x="51.3" y="290.1" width="259.9" height="12.04"/><rect class="cls-6" x="288.1" y="290.1" width="2.3" height="12.04"/><rect class="cls-6" x="265.7" y="290.1" width="2.3" height="12.04"/><rect class="cls-6" x="244.5" y="290.1" width="2.3" height="12.04"/><rect class="cls-6" x="222.5" y="290.1" width="2.3" height="12.04"/><rect class="cls-6" x="200.5" y="290.1" width="2.3" height="12.04"/><rect class="cls-6" x="179.3" y="290.1" width="2.3" height="12.04"/><rect class="cls-6" x="157.3" y="290.1" width="2.3" height="12.04"/><rect class="cls-6" x="136.1" y="290.1" width="2.3" height="12.04"/><rect class="cls-6" x="114.2" y="290.1" width="2.3" height="12.04"/><rect class="cls-6" x="92.2" y="290.1" width="2.3" height="12.04"/><rect class="cls-6" x="70.2" y="290.1" width="2.3" height="12.04"/><rect class="cls-7" x="16.3" y="92.7" width="85" height="6.77"/><rect class="cls-7" x="262.3" y="92.7" width="85" height="6.77"/><rect class="cls-7" x="16.3" y="222.1" width="85" height="6.77"/><rect class="cls-7" x="262.3" y="222.1" width="85" height="6.77"/><path class="cls-8" d="M168.5,214.6V203.2a3.3,3.3,0,0,1,2.5-3.1l8.5-1.9V163.4l-65.9-1.8v36.6l8.5,1.9a3.3,3.3,0,0,1,2.5,3.1v11.4a3.2,3.2,0,0,1-2.5,3l-8.5,1.9v38.2l65.9-1.8V219.5l-8.5-1.9A3.2,3.2,0,0,1,168.5,214.6Z"/><path class="cls-9" d="M122.1,217.6a3.2,3.2,0,0,0,2.5-3V203.2a3.3,3.3,0,0,0-2.5-3.1l-8.5-1.9V161.6l-18.3-.5v97.1l18.3-.5V219.5Z"/><path class="cls-9" d="M171,200.1a3.3,3.3,0,0,0-2.5,3.1v11.4a3.2,3.2,0,0,0,2.5,3l8.5,1.9V198.2Z"/><polygon class="cls-10" points="113.6 161.6 95.3 161.1 95.3 258.2 113.6 257.7 179.5 255.9 179.5 219.5 179.5 198.2 179.5 163.4 113.6 161.6"/><path class="cls-8" d="M192.9,214.6V203.2a3.3,3.3,0,0,0-2.5-3.1l-8.6-1.9V163.4l66.5-1.8v36.6l-8.6,1.9a3.3,3.3,0,0,0-2.5,3.1v11.4a3.2,3.2,0,0,0,2.5,3l8.6,1.9v38.2l-66.5-1.8V219.5l8.6-1.9A3.2,3.2,0,0,0,192.9,214.6Z"/><path class="cls-9" d="M239.7,217.6a3.2,3.2,0,0,1-2.5-3V203.2a3.3,3.3,0,0,1,2.5-3.1l8.6-1.9V161.6l18.5-.5v97.1l-18.5-.5V219.5Z"/><path class="cls-9" d="M190.4,200.1a3.3,3.3,0,0,1,2.5,3.1v11.4a3.2,3.2,0,0,1-2.5,3l-8.6,1.9V198.2Z"/><polygon class="cls-11" points="248.3 161.6 266.8 161.1 266.8 258.2 248.3 257.7 181.8 255.9 181.8 219.5 181.8 198.2 181.8 163.4 248.3 161.6"/><rect class="cls-4" x="41.1" y="31.7" width="12" height="258.05"/><rect class="cls-12" x="41.1" y="31.7" width="12" height="258.05"/><rect class="cls-6" x="41.1" y="52.4" width="12" height="2.26"/><rect class="cls-6" x="41.1" y="74.6" width="12" height="2.26"/><rect class="cls-6" x="41.1" y="95.7" width="12" height="2.26"/><rect class="cls-6" x="41.1" y="117.5" width="12" height="2.26"/><rect class="cls-6" x="41.1" y="139.3" width="12" height="2.26"/><rect class="cls-6" x="41.1" y="160.4" width="12" height="2.26"/><rect class="cls-6" x="41.1" y="182.2" width="12" height="2.26"/><rect class="cls-6" x="41.1" y="203.2" width="12" height="2.26"/><rect class="cls-6" x="41.1" y="225.1" width="12" height="2.26"/><rect class="cls-6" x="41.1" y="246.9" width="12" height="2.26"/><rect class="cls-6" x="41.1" y="268.7" width="12" height="2.26"/><rect class="cls-4" x="83.2" y="31.7" width="12" height="258.05"/><rect class="cls-13" x="83.2" y="31.7" width="12" height="258.05"/><rect class="cls-6" x="83.2" y="52.4" width="12" height="2.26"/><rect class="cls-6" x="83.2" y="74.6" width="12" height="2.26"/><rect class="cls-6" x="83.2" y="95.7" width="12" height="2.26"/><rect class="cls-6" x="83.2" y="117.5" width="12" height="2.26"/><rect class="cls-6" x="83.2" y="139.3" width="12" height="2.26"/><rect class="cls-6" x="83.2" y="160.4" width="12" height="2.26"/><rect class="cls-6" x="83.2" y="182.2" width="12" height="2.26"/><rect class="cls-6" x="83.2" y="203.2" width="12" height="2.26"/><rect class="cls-6" x="83.2" y="225.1" width="12" height="2.26"/><rect class="cls-6" x="83.2" y="246.9" width="12" height="2.26"/><rect class="cls-6" x="83.2" y="268.7" width="12" height="2.26"/><rect class="cls-4" x="266.8" y="31.7" width="12" height="258.05"/><rect class="cls-14" x="266.8" y="31.7" width="12" height="258.05"/><rect class="cls-6" x="266.8" y="52.4" width="12" height="2.26"/><rect class="cls-6" x="266.8" y="74.6" width="12" height="2.26"/><rect class="cls-6" x="266.8" y="95.7" width="12" height="2.26"/><rect class="cls-6" x="266.8" y="117.5" width="12" height="2.26"/><rect class="cls-6" x="266.8" y="139.3" width="12" height="2.26"/><rect class="cls-6" x="266.8" y="160.4" width="12" height="2.26"/><rect class="cls-6" x="266.8" y="182.2" width="12" height="2.26"/><rect class="cls-6" x="266.8" y="203.2" width="12" height="2.26"/><rect class="cls-6" x="266.8" y="225.1" width="12" height="2.26"/><rect class="cls-6" x="266.8" y="246.9" width="12" height="2.26"/><rect class="cls-6" x="266.8" y="268.7" width="12" height="2.26"/><rect class="cls-4" x="309.7" y="31.7" width="12" height="258.05"/><rect class="cls-15" x="309.7" y="31.7" width="12" height="258.05"/><rect class="cls-6" x="309.7" y="52.4" width="12" height="2.26"/><rect class="cls-6" x="309.7" y="74.6" width="12" height="2.26"/><rect class="cls-6" x="309.7" y="95.7" width="12" height="2.26"/><rect class="cls-6" x="309.7" y="117.5" width="12" height="2.26"/><rect class="cls-6" x="309.7" y="139.3" width="12" height="2.26"/><rect class="cls-6" x="309.7" y="160.4" width="12" height="2.26"/><rect class="cls-6" x="309.7" y="182.2" width="12" height="2.26"/><rect class="cls-6" x="309.7" y="203.2" width="12" height="2.26"/><rect class="cls-6" x="309.7" y="225.1" width="12" height="2.26"/><rect class="cls-6" x="309.7" y="246.9" width="12" height="2.26"/><rect class="cls-6" x="309.7" y="268.7" width="12" height="2.26"/><rect class="cls-4" x="51.3" y="18.8" width="259.9" height="12.04"/><rect class="cls-16" x="51.3" y="18.8" width="259.9" height="12.04"/><rect class="cls-6" x="288.1" y="18.8" width="2.3" height="12.04"/><rect class="cls-6" x="265.7" y="18.8" width="2.3" height="12.04"/><rect class="cls-6" x="244.5" y="18.8" width="2.3" height="12.04"/><rect class="cls-6" x="222.5" y="18.8" width="2.3" height="12.04"/><rect class="cls-6" x="200.5" y="18.8" width="2.3" height="12.04"/><rect class="cls-6" x="179.3" y="18.8" width="2.3" height="12.04"/><rect class="cls-6" x="157.3" y="18.8" width="2.3" height="12.04"/><rect class="cls-6" x="136.1" y="18.8" width="2.3" height="12.04"/><rect class="cls-6" x="114.2" y="18.8" width="2.3" height="12.04"/><rect class="cls-6" x="92.2" y="18.8" width="2.3" height="12.04"/><rect class="cls-6" x="70.2" y="18.8" width="2.3" height="12.04"/><path class="cls-17" d="M357.1,44.2h0a52.3,52.3,0,0,0-27.2-.3l-1.2.3a2.6,2.6,0,0,0-2,2.5V146.9a2.6,2.6,0,0,0,1.9,2.5,52.7,52.7,0,0,0,27.3.3l1.1-.3a2.7,2.7,0,0,0,2-2.6V46.7A2.6,2.6,0,0,0,357.1,44.2Z"/><path class="cls-2" d="M342.8,62.6l-8.6,3.6L326.7,63v1l6.4,2.6-6.4,2.7v.9l7.5-3.1,8.6,3.6,8.6-3.6,7.6,3.2v-1l-6.5-2.7,6.5-2.7V63l-7.6,3.2Zm0,7.1-7.5-3.1,7.5-3.1,7.5,3.1Z"/><polygon class="cls-2" points="351.7 75.2 354.8 73.9 351.7 72.6 348.6 73.9 351.7 75.2"/><polygon class="cls-2" points="331.1 73.9 334.2 75.2 337.3 73.9 334.2 72.6 331.1 73.9"/><path class="cls-2" d="M359,49.6v-1l-7.6,3.2-8.6-3.6-8.6,3.6-7.5-3.1v.9l6.4,2.7-6.4,2.6v.9l7.5-3.1,8.6,3.6,8.6-3.6,7.6,3.2V55l-6.5-2.7Zm-16.2,5.8-7.5-3.1,7.5-3.2,7.5,3.2Z"/><polygon class="cls-2" points="351.7 60.8 354.8 59.5 351.7 58.2 348.6 59.5 351.7 60.8"/><polygon class="cls-2" points="331.1 59.5 334.2 60.8 337.3 59.5 334.2 58.2 331.1 59.5"/><polygon class="cls-2" points="354.8 45.2 351.7 43.9 348.6 45.2 351.7 46.5 354.8 45.2"/><polygon class="cls-2" points="337.3 45.2 334.2 43.9 331.1 45.2 334.2 46.5 337.3 45.2"/><path class="cls-2" d="M342.8,76.9l-8.6,3.6-7.5-3.1v.9l6.4,2.7-6.4,2.6v.9l7.5-3.1,8.6,3.6,8.6-3.6,7.6,3.2v-.9L352.5,81l6.5-2.7v-1l-7.6,3.2Zm0,7.2L335.3,81l7.5-3.2,7.5,3.2Z"/><polygon class="cls-2" points="351.7 89.5 354.8 88.2 351.7 86.9 348.6 88.2 351.7 89.5"/><polygon class="cls-2" points="331.1 88.2 334.2 89.5 337.3 88.2 334.2 86.9 331.1 88.2"/><path class="cls-2" d="M342.8,91.3l-8.6,3.6-7.5-3.2v1l6.4,2.6L326.7,98v.9l7.5-3.1,8.6,3.6,8.6-3.6L359,99V98l-6.5-2.7,6.5-2.7v-.9l-7.6,3.2Zm0,7.1-7.5-3.1,7.5-3.1,7.5,3.1Z"/><polygon class="cls-2" points="351.7 103.9 354.8 102.6 351.7 101.3 348.6 102.6 351.7 103.9"/><polygon class="cls-2" points="331.1 102.6 334.2 103.9 337.3 102.6 334.2 101.3 331.1 102.6"/><path class="cls-2" d="M342.8,105.6l-8.6,3.6-7.5-3.1v.9l6.4,2.7-6.4,2.6v.9l7.5-3.1,8.6,3.6,8.6-3.6,7.6,3.2v-.9l-6.5-2.7L359,107v-1l-7.6,3.2Zm0,7.2-7.5-3.1,7.5-3.2,7.5,3.2Z"/><polygon class="cls-2" points="351.7 118.2 354.8 116.9 351.7 115.6 348.6 116.9 351.7 118.2"/><polygon class="cls-2" points="331.1 116.9 334.2 118.2 337.3 116.9 334.2 115.6 331.1 116.9"/><path class="cls-2" d="M342.8,120l-8.6,3.5-7.5-3.1v1l6.4,2.6-6.4,2.7v.9l7.5-3.1,8.6,3.6,8.6-3.6,7.6,3.1v-.9l-6.5-2.7,6.5-2.7v-.9l-7.6,3.1Zm0,7.1-7.5-3.1,7.5-3.1,7.5,3.1Z"/><polygon class="cls-2" points="351.7 132.6 354.8 131.3 351.7 130 348.6 131.3 351.7 132.6"/><polygon class="cls-2" points="331.1 131.3 334.2 132.6 337.3 131.3 334.2 130 331.1 131.3"/><path class="cls-2" d="M342.8,134.3l-8.6,3.6-7.5-3.1v.9l6.4,2.7-6.4,2.6v.9l7.5-3.1,8.6,3.6,8.6-3.6L359,142v-.9l-6.5-2.7,6.5-2.7v-1l-7.6,3.2Zm0,7.2-7.5-3.1,7.5-3.2,7.5,3.2Z"/><polygon class="cls-2" points="351.7 146.9 354.8 145.6 351.7 144.3 348.6 145.6 351.7 146.9"/><polygon class="cls-2" points="331.1 145.6 334.2 146.9 337.3 145.6 334.2 144.3 331.1 145.6"/><path class="cls-2" d="M337.1,151l1.8.2,3.9-1.6,3.8,1.6,1.9-.2-5.7-2.3Z"/><path class="cls-18" d="M34.4,44.2h0a52.7,52.7,0,0,0-27.3-.3L6,44.2a2.6,2.6,0,0,0-2,2.5V146.9a2.6,2.6,0,0,0,1.9,2.5,52.3,52.3,0,0,0,27.2.3l1.2-.3a2.7,2.7,0,0,0,2-2.6V46.7A2.6,2.6,0,0,0,34.4,44.2Z"/><path class="cls-2" d="M20.1,62.6l-8.6,3.6L4,63v1l6.3,2.6L4,69.3v.9l7.5-3.1,8.6,3.6,8.6-3.6,7.6,3.2v-1l-6.5-2.7,6.5-2.7V63l-7.6,3.2Zm0,7.1-7.5-3.1,7.5-3.1,7.5,3.1Z"/><polygon class="cls-2" points="29 75.2 32.1 73.9 29 72.6 25.9 73.9 29 75.2"/><polygon class="cls-2" points="8.4 73.9 11.5 75.2 14.6 73.9 11.5 72.6 8.4 73.9"/><path class="cls-2" d="M36.3,49.6v-1l-7.6,3.2-8.6-3.6-8.6,3.6L4,48.7v.9l6.3,2.7L4,54.9v.9l7.5-3.1,8.6,3.6,8.6-3.6,7.6,3.2V55l-6.5-2.7ZM20.1,55.4l-7.5-3.1,7.5-3.2,7.5,3.2Z"/><polygon class="cls-2" points="29 60.8 32.1 59.5 29 58.2 25.9 59.5 29 60.8"/><polygon class="cls-2" points="8.4 59.5 11.5 60.8 14.6 59.5 11.5 58.2 8.4 59.5"/><polygon class="cls-2" points="32.1 45.2 29 43.9 25.9 45.2 29 46.5 32.1 45.2"/><polygon class="cls-2" points="14.6 45.2 11.5 43.9 8.4 45.2 11.5 46.5 14.6 45.2"/><path class="cls-2" d="M20.1,76.9l-8.6,3.6L4,77.4v.9L10.3,81,4,83.6v.9l7.5-3.1L20.1,85l8.6-3.6,7.6,3.2v-.9L29.8,81l6.5-2.7v-1l-7.6,3.2Zm0,7.2L12.6,81l7.5-3.2L27.6,81Z"/><polygon class="cls-2" points="29 89.5 32.1 88.2 29 86.9 25.9 88.2 29 89.5"/><polygon class="cls-2" points="8.4 88.2 11.5 89.5 14.6 88.2 11.5 86.9 8.4 88.2"/><path class="cls-2" d="M20.1,91.3l-8.6,3.6L4,91.7v1l6.3,2.6L4,98v.9l7.5-3.1,8.6,3.6,8.6-3.6L36.3,99V98l-6.5-2.7,6.5-2.7v-.9l-7.6,3.2Zm0,7.1-7.5-3.1,7.5-3.1,7.5,3.1Z"/><polygon class="cls-2" points="29 103.9 32.1 102.6 29 101.3 25.9 102.6 29 103.9"/><polygon class="cls-2" points="8.4 102.6 11.5 103.9 14.6 102.6 11.5 101.3 8.4 102.6"/><path class="cls-2" d="M20.1,105.6l-8.6,3.6L4,106.1v.9l6.3,2.7L4,112.3v.9l7.5-3.1,8.6,3.6,8.6-3.6,7.6,3.2v-.9l-6.5-2.7,6.5-2.7v-1l-7.6,3.2Zm0,7.2-7.5-3.1,7.5-3.2,7.5,3.2Z"/><polygon class="cls-2" points="29 118.2 32.1 116.9 29 115.6 25.9 116.9 29 118.2"/><polygon class="cls-2" points="8.4 116.9 11.5 118.2 14.6 116.9 11.5 115.6 8.4 116.9"/><path class="cls-2" d="M20.1,120l-8.6,3.5L4,120.4v1l6.3,2.6L4,126.7v.9l7.5-3.1,8.6,3.6,8.6-3.6,7.6,3.1v-.9L29.8,124l6.5-2.7v-.9l-7.6,3.1Zm0,7.1L12.6,124l7.5-3.1,7.5,3.1Z"/><polygon class="cls-2" points="29 132.6 32.1 131.3 29 130 25.9 131.3 29 132.6"/><polygon class="cls-2" points="8.4 131.3 11.5 132.6 14.6 131.3 11.5 130 8.4 131.3"/><path class="cls-2" d="M20.1,134.3l-8.6,3.6L4,134.8v.9l6.3,2.7L4,141v.9l7.5-3.1,8.6,3.6,8.6-3.6,7.6,3.2v-.9l-6.5-2.7,6.5-2.7v-1l-7.6,3.2Zm0,7.2-7.5-3.1,7.5-3.2,7.5,3.2Z"/><polygon class="cls-2" points="29 146.9 32.1 145.6 29 144.3 25.9 145.6 29 146.9"/><polygon class="cls-2" points="8.4 145.6 11.5 146.9 14.6 145.6 11.5 144.3 8.4 145.6"/><path class="cls-2" d="M14.4,151l1.8.2,3.9-1.6,3.8,1.6,1.8-.2-5.6-2.3Z"/><path class="cls-19" d="M357.1,175.1h0a52.3,52.3,0,0,0-27.2-.3l-1.2.3a2.6,2.6,0,0,0-2,2.5V277.8a2.6,2.6,0,0,0,1.9,2.5,52.7,52.7,0,0,0,27.3.3l1.1-.3a2.7,2.7,0,0,0,2-2.6V177.6A2.6,2.6,0,0,0,357.1,175.1Z"/><path class="cls-2" d="M342.8,193.5l-8.6,3.6-7.5-3.1v.9l6.4,2.6-6.4,2.7v.9l7.5-3.1,8.6,3.6,8.6-3.6,7.6,3.2v-1l-6.5-2.7,6.5-2.7v-.9l-7.6,3.2Zm0,7.1-7.5-3.1,7.5-3.1,7.5,3.1Z"/><polygon class="cls-2" points="351.7 206.1 354.8 204.8 351.7 203.5 348.6 204.8 351.7 206.1"/><polygon class="cls-2" points="331.1 204.8 334.2 206.1 337.3 204.8 334.2 203.5 331.1 204.8"/><path class="cls-2" d="M359,180.5v-1l-7.6,3.2-8.6-3.6-8.6,3.6-7.5-3.1v.9l6.4,2.7-6.4,2.6v1l7.5-3.2,8.6,3.6,8.6-3.6,7.6,3.2v-.9l-6.5-2.7Zm-16.2,5.8-7.5-3.1,7.5-3.1,7.5,3.1Z"/><polygon class="cls-2" points="351.7 191.7 354.8 190.4 351.7 189.1 348.6 190.4 351.7 191.7"/><polygon class="cls-2" points="331.1 190.4 334.2 191.7 337.3 190.4 334.2 189.1 331.1 190.4"/><polygon class="cls-2" points="354.8 176.1 351.7 174.8 348.6 176.1 351.7 177.4 354.8 176.1"/><polygon class="cls-2" points="337.3 176.1 334.2 174.8 331.1 176.1 334.2 177.4 337.3 176.1"/><path class="cls-2" d="M342.8,207.8l-8.6,3.6-7.5-3.1v.9l6.4,2.7-6.4,2.6v.9l7.5-3.1,8.6,3.6,8.6-3.6,7.6,3.2v-.9l-6.5-2.7,6.5-2.7v-1l-7.6,3.2Zm0,7.2-7.5-3.1,7.5-3.1,7.5,3.1Z"/><polygon class="cls-2" points="351.7 220.4 354.8 219.1 351.7 217.8 348.6 219.1 351.7 220.4"/><polygon class="cls-2" points="331.1 219.1 334.2 220.4 337.3 219.1 334.2 217.8 331.1 219.1"/><path class="cls-2" d="M342.8,222.2l-8.6,3.6-7.5-3.2v1l6.4,2.6-6.4,2.7v.9l7.5-3.1,8.6,3.6,8.6-3.6,7.6,3.2v-1l-6.5-2.7,6.5-2.7v-.9l-7.6,3.2Zm0,7.1-7.5-3.1,7.5-3.1,7.5,3.1Z"/><polygon class="cls-2" points="351.7 234.8 354.8 233.5 351.7 232.2 348.6 233.5 351.7 234.8"/><polygon class="cls-2" points="331.1 233.5 334.2 234.8 337.3 233.5 334.2 232.2 331.1 233.5"/><path class="cls-2" d="M342.8,236.5l-8.6,3.6-7.5-3.1v.9l6.4,2.7-6.4,2.6v.9l7.5-3.1,8.6,3.6,8.6-3.6,7.6,3.2v-.9l-6.5-2.7,6.5-2.7v-1l-7.6,3.2Zm0,7.2-7.5-3.1,7.5-3.1,7.5,3.1Z"/><polygon class="cls-2" points="351.7 249.1 354.8 247.8 351.7 246.5 348.6 247.8 351.7 249.1"/><polygon class="cls-2" points="331.1 247.8 334.2 249.1 337.3 247.8 334.2 246.5 331.1 247.8"/><path class="cls-2" d="M342.8,250.9l-8.6,3.6-7.5-3.2v1l6.4,2.6-6.4,2.7v.9l7.5-3.1,8.6,3.6,8.6-3.6,7.6,3.2v-1l-6.5-2.7,6.5-2.7v-.9l-7.6,3.2Zm0,7.1-7.5-3.1,7.5-3.1,7.5,3.1Z"/><polygon class="cls-2" points="351.7 263.5 354.8 262.2 351.7 260.9 348.6 262.2 351.7 263.5"/><polygon class="cls-2" points="331.1 262.2 334.2 263.5 337.3 262.2 334.2 260.9 331.1 262.2"/><path class="cls-2" d="M342.8,265.2l-8.6,3.6-7.5-3.1v.9l6.4,2.7-6.4,2.6v.9l7.5-3.1,8.6,3.6,8.6-3.6,7.6,3.2V272l-6.5-2.7,6.5-2.7v-1l-7.6,3.2Zm0,7.2-7.5-3.1,7.5-3.2,7.5,3.2Z"/><polygon class="cls-2" points="351.7 277.8 354.8 276.5 351.7 275.2 348.6 276.5 351.7 277.8"/><polygon class="cls-2" points="331.1 276.5 334.2 277.8 337.3 276.5 334.2 275.2 331.1 276.5"/><path class="cls-2" d="M337.1,281.9l1.8.2,3.9-1.6,3.8,1.6,1.9-.2-5.7-2.3Z"/><path class="cls-20" d="M34.4,175.1h0a52.7,52.7,0,0,0-27.3-.3l-1.1.3a2.6,2.6,0,0,0-2,2.5V277.8a2.6,2.6,0,0,0,1.9,2.5,52.3,52.3,0,0,0,27.2.3l1.2-.3a2.7,2.7,0,0,0,2-2.6V177.6A2.6,2.6,0,0,0,34.4,175.1Z"/><path class="cls-2" d="M20.1,193.5l-8.6,3.6L4,194v.9l6.3,2.6L4,200.2v.9l7.5-3.1,8.6,3.6,8.6-3.6,7.6,3.2v-1l-6.5-2.7,6.5-2.7v-.9l-7.6,3.2Zm0,7.1-7.5-3.1,7.5-3.1,7.5,3.1Z"/><polygon class="cls-2" points="29 206.1 32.1 204.8 29 203.5 25.9 204.8 29 206.1"/><polygon class="cls-2" points="8.4 204.8 11.5 206.1 14.6 204.8 11.5 203.5 8.4 204.8"/><path class="cls-2" d="M36.3,180.5v-1l-7.6,3.2-8.6-3.6-8.6,3.6L4,179.6v.9l6.3,2.7L4,185.8v1l7.5-3.2,8.6,3.6,8.6-3.6,7.6,3.2v-.9l-6.5-2.7Zm-16.2,5.8-7.5-3.1,7.5-3.1,7.5,3.1Z"/><polygon class="cls-2" points="29 191.7 32.1 190.4 29 189.1 25.9 190.4 29 191.7"/><polygon class="cls-2" points="8.4 190.4 11.5 191.7 14.6 190.4 11.5 189.1 8.4 190.4"/><polygon class="cls-2" points="32.1 176.1 29 174.8 25.9 176.1 29 177.4 32.1 176.1"/><polygon class="cls-2" points="14.6 176.1 11.5 174.8 8.4 176.1 11.5 177.4 14.6 176.1"/><path class="cls-2" d="M20.1,207.8l-8.6,3.6L4,208.3v.9l6.3,2.7L4,214.5v.9l7.5-3.1,8.6,3.6,8.6-3.6,7.6,3.2v-.9l-6.5-2.7,6.5-2.7v-1l-7.6,3.2Zm0,7.2-7.5-3.1,7.5-3.1,7.5,3.1Z"/><polygon class="cls-2" points="29 220.4 32.1 219.1 29 217.8 25.9 219.1 29 220.4"/><polygon class="cls-2" points="8.4 219.1 11.5 220.4 14.6 219.1 11.5 217.8 8.4 219.1"/><path class="cls-2" d="M20.1,222.2l-8.6,3.6L4,222.6v1l6.3,2.6L4,228.9v.9l7.5-3.1,8.6,3.6,8.6-3.6,7.6,3.2v-1l-6.5-2.7,6.5-2.7v-.9l-7.6,3.2Zm0,7.1-7.5-3.1,7.5-3.1,7.5,3.1Z"/><polygon class="cls-2" points="29 234.8 32.1 233.5 29 232.2 25.9 233.5 29 234.8"/><polygon class="cls-2" points="8.4 233.5 11.5 234.8 14.6 233.5 11.5 232.2 8.4 233.5"/><path class="cls-2" d="M20.1,236.5l-8.6,3.6L4,237v.9l6.3,2.7L4,243.2v.9l7.5-3.1,8.6,3.6,8.6-3.6,7.6,3.2v-.9l-6.5-2.7,6.5-2.7v-1l-7.6,3.2Zm0,7.2-7.5-3.1,7.5-3.1,7.5,3.1Z"/><polygon class="cls-2" points="29 249.1 32.1 247.8 29 246.5 25.9 247.8 29 249.1"/><polygon class="cls-2" points="8.4 247.8 11.5 249.1 14.6 247.8 11.5 246.5 8.4 247.8"/><path class="cls-2" d="M20.1,250.9l-8.6,3.6L4,251.3v1l6.3,2.6L4,257.6v.9l7.5-3.1,8.6,3.6,8.6-3.6,7.6,3.2v-1l-6.5-2.7,6.5-2.7v-.9l-7.6,3.2Zm0,7.1-7.5-3.1,7.5-3.1,7.5,3.1Z"/><polygon class="cls-2" points="29 263.5 32.1 262.2 29 260.9 25.9 262.2 29 263.5"/><polygon class="cls-2" points="8.4 262.2 11.5 263.5 14.6 262.2 11.5 260.9 8.4 262.2"/><path class="cls-2" d="M20.1,265.2l-8.6,3.6L4,265.7v.9l6.3,2.7L4,271.9v.9l7.5-3.1,8.6,3.6,8.6-3.6,7.6,3.2V272l-6.5-2.7,6.5-2.7v-1l-7.6,3.2Zm0,7.2-7.5-3.1,7.5-3.2,7.5,3.2Z"/><polygon class="cls-2" points="29 277.8 32.1 276.5 29 275.2 25.9 276.5 29 277.8"/><polygon class="cls-2" points="8.4 276.5 11.5 277.8 14.6 276.5 11.5 275.2 8.4 276.5"/><path class="cls-2" d="M14.4,281.9l1.8.2,3.9-1.6,3.8,1.6,1.8-.2-5.6-2.3Z"/></svg>