<?xml version="1.0" encoding="utf-8"?>
<!-- Generator: Adobe Illustrator 23.0.3, SVG Export Plug-In . SVG Version: 6.00 Build 0)  -->
<svg version="1.1" id="Layer_1" xmlns="http://www.w3.org/2000/svg" xmlns:xlink="http://www.w3.org/1999/xlink" x="0px" y="0px"
	 viewBox="0 0 210.2 252.2" style="enable-background:new 0 0 210.2 252.2;" xml:space="preserve">
<style type="text/css">
	.st0{fill:#D0D2D3;}
	.st1{fill:#808184;}
	.st2{fill:none;stroke:#000000;stroke-linecap:round;stroke-linejoin:round;}
	.st3{fill:#404041;}
</style>
<title>IQDistanceSensor</title>
<g>
	<g id="Distance_Sensor">
		<path class="st0" d="M201,149V83.9c0.5-4.3-1.6-8.5-5.4-10.6L81.9,7.6C71.3,1.5,58.3,1.5,47.7,7.5L8.5,30
			c-3.4,1.9-5.4,5.4-5.5,9.3l0,0v64.2l0,0c0,0.4,0,0.8,0,1.2V124c0,3.5,1.9,6.8,4.9,8.6l114.2,66c10.6,6.1,23.7,6.2,34.3,0.1
			l39.6-22.7c3.1-1.8,5-5,5-8.6v-17.3C201.1,149.7,201.1,149.4,201,149z"/>
		<polygon class="st1" points="47,135.1 46.9,118.5 83.8,139.8 83.8,156 		"/>
		<path class="st1" d="M201,149c0.1,1.4-0.2,2.7-1,3.9c-0.6,0.9-1.4,1.5-2.3,2L159,177.2c-12.2,7-27.1,7-39.3,0L7,112
			c-1.1-0.8-2-1.9-2.7-3.1c-0.9-1.7-1.4-3.6-1.2-5.5l0.1,22c0,0,0.7,4.7,6.5,8.1s115,66.3,115,66.3s14,7.8,31.2-1
			s41.2-23.7,41.2-23.7s4.2-2,3.9-9.2S201,149,201,149z"/>
		<path class="st1" d="M49.8,9.8L12.5,31.3c-3.8,2.2-5.1,7-2.9,10.7c0.7,1.2,1.7,2.2,2.9,2.9l112.2,64.7c9.1,5.2,20.3,5.3,29.4,0
			l37.4-21.5c3.8-2.2,5.1-7,2.9-10.7c-0.7-1.2-1.7-2.2-2.9-2.9L79.3,9.8C70.2,4.5,58.9,4.5,49.8,9.8z"/>
		<path class="st2" d="M47.7,7.5L8.5,30c-5.2,3-7,9.7-4,14.9c1,1.7,2.3,3.1,4,4l113.6,65.7c10.6,6.1,23.7,6.2,34.3,0.1l39.2-22.5
			c5.2-3,7-9.6,4-14.8c-1-1.7-2.3-3-4-4L81.9,7.6C71.3,1.5,58.3,1.5,47.7,7.5z"/>
		<path class="st2" d="M3,39.3V124c0,3.5,1.9,6.8,4.9,8.6l114.2,66c10.6,6.1,23.7,6.2,34.3,0.1l39.6-22.7c3.1-1.8,5-5,5-8.6V83.6"/>
		<path class="st3" d="M145.1,68.5c-16.8,0-30.4,7.8-30.4,17.4c0,4,2.4,7.8,6.5,10.7c5.6,4.1,14.2,6.7,24,6.7
			c10.1,0,19.1-2.8,24.6-7.2c3.6-2.9,5.8-6.4,5.8-10.2C175.5,76.3,161.9,68.5,145.1,68.5z"/>
		<path class="st3" d="M59.1,18.4c-16.8,0-30.4,7.8-30.4,17.4c0,4,2.4,7.8,6.5,10.7c5.6,4.1,14.2,6.7,24,6.7
			c10.1,0,19.1-2.8,24.6-7.2c3.6-2.9,5.8-6.4,5.8-10.2C89.5,26.2,75.9,18.4,59.1,18.4z"/>
		<path class="st0" d="M34.8,46.3c-3.8-2.9-6.1-6.5-6.1-10.4c0-9.6,13.6-17.4,30.4-17.4s30.4,7.8,30.4,17.4c0,3.9-2.3,7.5-6.1,10.4
			c0.9-1.5,1.4-3.2,1.5-5c0-8.3-11.5-14.9-25.8-14.9S33.3,33,33.3,41.3C33.3,43.1,33.8,44.8,34.8,46.3z"/>
		<path class="st0" d="M120.4,95.9c-3.8-2.9-6.1-6.5-6.1-10.4c0-9.6,13.6-17.4,30.4-17.4s30.4,7.8,30.4,17.4c0,3.9-2.3,7.5-6.1,10.4
			c0.9-1.5,1.4-3.2,1.5-5c0-8.3-11.5-14.9-25.8-14.9s-25.8,6.7-25.8,14.9C119,92.7,119.5,94.4,120.4,95.9z"/>
		<path class="st2" d="M49.8,9.8L12.5,31.3c-3.8,2.2-5.1,7-2.9,10.7c0.7,1.2,1.7,2.2,2.9,2.9l112.2,64.7c9.1,5.2,20.3,5.3,29.4,0
			l37.4-21.5c3.8-2.2,5.1-7,2.9-10.7c-0.7-1.2-1.7-2.2-2.9-2.9L79.3,9.8C70.2,4.5,58.9,4.5,49.8,9.8z"/>
		<polygon class="st1" points="76.2,101 70.5,97.7 70.5,97.7 69.6,97.2 69.6,91.3 64.8,88.6 64.8,84.5 53.5,78 53.5,81.5 50.3,79.6 
			50.3,98.9 50.3,114.5 50.3,117.3 82,135.6 82,104.3 		"/>
		<path class="st2" d="M83.4,46.3c0.9-1.5,1.4-3.2,1.5-5c0-8.3-11.5-14.9-25.8-14.9S33.3,33,33.3,41.3c0,1.8,0.5,3.5,1.5,5"/>
		<path class="st2" d="M83.4,46.3c3.8-2.9,6.1-6.5,6.1-10.4c0-9.6-13.6-17.4-30.4-17.4s-30.4,7.8-30.4,17.4c0,3.9,2.3,7.5,6.1,10.4"
			/>
		<path class="st2" d="M83.4,46.3c-5.6,4.2-14.4,6.9-24.3,6.9s-18.8-2.7-24.3-6.9"/>
		<path class="st2" d="M169.3,95.5c0.9-1.4,1.3-3.1,1.3-4.8c0-8.3-11.5-14.9-25.8-14.9s-25.8,6.7-25.8,14.9c0,1.9,0.6,3.7,1.6,5.3"
			/>
		<path class="st2" d="M169.3,95.5c-5.5,4.3-14.5,7.2-24.6,7.2c-9.7,0-18.4-2.6-24-6.7"/>
		<path class="st2" d="M169.3,95.5c3.6-2.9,5.8-6.4,5.8-10.2c0-9.6-13.6-17.4-30.4-17.4s-30.4,7.8-30.4,17.4c0,4,2.4,7.8,6.5,10.7"
			/>
		<path class="st2" d="M73,99.1L59.3,107c-1,0.6-1.6,1.6-1.6,2.8v5l-4.4,2.6c-0.9,0.5-2.1,0.5-3,0l0,0L82,135.6v-31.3l-12.4-7.2
			v-5.8l-4.7-2.7v-4.1L53.5,78v3.5l-3.2-1.9v37.7"/>
		<path class="st2" d="M201,149c0.1,1.4-0.2,2.7-1,3.9c-0.6,0.9-1.4,1.5-2.3,2L159,177.2c-12.2,7-27.1,7-39.3,0L7,112
			c-1.1-0.8-2-1.9-2.7-3.1c-0.9-1.7-1.4-3.6-1.2-5.5"/>
		<path class="st2" d="M47,135.1V76c0-0.6,0.5-1,1-1c0.2,0,0.4,0,0.5,0.1l33.8,19.3c0.9,0.5,1.5,1.5,1.5,2.6v59.3L47,135.1z"/>
		<path class="st2" d="M156.5,69.2L136,57.4c-0.3-0.2-0.6-0.2-0.9-0.1l-1.5,0.5c-0.3,0.1-0.6,0.1-0.8-0.1L107,42.9
			c-0.2-0.1-0.3-0.5-0.2-0.7c0,0,0.1-0.1,0.1-0.1l0.7-0.7c0.1-0.1,0.1-0.3,0-0.4c0,0,0,0-0.1,0L87.3,29.2"/>
		<path class="st2" d="M107.6,41.2v1c0,0.1,0,0.2-0.1,0.2l-0.4,0.4"/>
		<path class="st2" d="M47.1,51.9l20.7,11.9c0.3,0.2,0.6,0.2,0.9,0.1l1.5-0.5c0.3-0.1,0.6-0.1,0.8,0.1l25.9,14.9
			c0.2,0.1,0.3,0.5,0.2,0.7c0,0-0.1,0.1-0.1,0.1l-0.7,0.7c-0.1,0.1-0.1,0.3,0,0.4c0,0,0,0,0.1,0l20.4,11.8"/>
		<path class="st2" d="M201,149V83.9c0.5-4.3-1.6-8.5-5.4-10.6L81.9,7.6C71.3,1.5,58.3,1.5,47.7,7.5L8.5,30
			c-3.4,1.9-5.4,5.4-5.5,9.3l0,0v64.2l0,0c0,0.4,0,0.8,0,1.2V124c0,3.5,1.9,6.8,4.9,8.6l114.2,66c10.6,6.1,23.7,6.2,34.3,0.1
			l39.6-22.7c3.1-1.8,5-5,5-8.6v-17.3C201.1,149.7,201.1,149.4,201,149z"/>
		<path d="M64.8,3c6,0,11.9,1.6,17.2,4.6l113.7,65.7c3.7,2.1,5.9,6.3,5.4,10.6V149c0,0.3,0,0.7,0,1v17.3c0,3.5-1.9,6.8-5,8.6
			l-39.6,22.7c-10.6,6.1-23.7,6.1-34.3-0.1L8,132.6c-3.1-1.8-4.9-5-4.9-8.6v-19.3c0-0.4,0-0.8,0-1.2V39.3l0,0c0-3.9,2.1-7.4,5.5-9.3
			L47.7,7.5C52.9,4.6,58.8,3,64.8,3 M64.8,0c-6.5,0-12.9,1.7-18.5,4.9L7,27.4c-4.2,2.4-6.9,6.8-7,11.7c0,0.1,0,0.1,0,0.2v64.1
			c0,0.5,0,0.9,0,1.4V124c0,4.6,2.5,8.8,6.4,11.2l114.2,66c11.5,6.7,25.7,6.7,37.3,0.1l39.6-22.7c4-2.3,6.5-6.6,6.5-11.2v-17.2
			c0-0.4,0-0.8,0-1.3V84.1c0.6-5.4-2.1-10.7-6.9-13.4L83.4,5C77.8,1.7,71.3,0,64.8,0z"/>
		<line class="st2" x1="47" y1="118.5" x2="83.8" y2="139.8"/>
	</g>
</g>
</svg>
