<?xml version="1.0" encoding="utf-8"?>
<!-- Generator: Adobe Illustrator 23.0.3, SVG Export Plug-In . SVG Version: 6.00 Build 0)  -->
<svg version="1.1" id="Touch_LED_1_" xmlns="http://www.w3.org/2000/svg" xmlns:xlink="http://www.w3.org/1999/xlink" x="0px"
	 y="0px" viewBox="0 0 126.6 212.5" style="enable-background:new 0 0 126.6 212.5;" xml:space="preserve">
<style type="text/css">
	.st0{fill:#D0D2D3;}
	.st1{fill:#808184;}
	.st2{fill:#FFFFFF;}
	.st3{fill:none;stroke:#000000;stroke-linecap:round;stroke-linejoin:round;}
</style>
<g id="Touch_LED">
	<path class="st0" d="M15.7,26.5L51.4,6c7-4,15.5-4,22.5,0l36.6,21.1c2,1.1,3.6,2.9,4.6,4.9l7,14.6c1.1,2.3,1.7,4.7,1.7,7.3v79.4
		c0,4.9-2.6,9.4-6.9,11.9l-35.2,20.3c-11.6,6.7-25.9,6.7-37.6,0.1L9.9,146.1c-4.3-2.4-6.9-7-6.9-11.9V53c0-2.4,0.5-4.7,1.5-6.9
		L11,31.6C12,29.5,13.6,27.7,15.7,26.5z"/>
	<path class="st1" d="M10,127l35.9,20.6l0.5,0.2c11.6,5.4,25.1,4.8,36.2-1.7l36.5-21.3c3-1.9,4.7-5.2,4.6-8.7v17.2
		c0,0,0.2,7.8-6.3,11.5s-37.5,21.6-37.5,21.6c-9.7,5.1-21.2,5.6-31.3,1.4L9.3,145.7C5,142.9,2.6,138,3,132.8c0.5-9.2,0-12.2,0-12.2
		S4.3,123.8,10,127z"/>
	<polygon class="st1" points="10,110.7 10,127 45.9,147.6 45.7,131.3 	"/>
	<path class="st1" d="M31.5,90v-5.6l-4.6-2.6v-4.3l-11-6.3v3.6L12.8,73v36.5l0,0l30.7,17.7V96.9L31.5,90z"/>
	<path class="st2" d="M4.3,46.6c-0.8,1.5-1.1,3.3-0.9,5C3.7,54,5,56.2,7,57.6l39.4,22.6C56.6,86,69,86,79.2,80.1l39-22.3
		c3.1-2.9,4.5-7.1,3.8-11.2L115,32c0,0,0.6-1.9-6.1-5.8S72.5,5.3,72.5,5.3c-6-2.9-12.9-3-19-0.4C43.1,9.4,15.7,26.5,15.7,26.5
		s-2.4,0.1-5.8,7.6S4.3,46.6,4.3,46.6z"/>
	<path class="st1" d="M53.5,7.4L17.1,28.6c-2.5,1.4-3.3,4.6-1.9,7c0.4,0.8,1.1,1.4,1.9,1.9l36.6,21.2c5.6,3.3,12.6,3.3,18.2,0
		l36.6-21.2c2.5-1.4,3.3-4.6,1.9-7.1c-0.5-0.8-1.1-1.4-1.9-1.9L72,7.4C66.3,4.1,59.2,4.1,53.5,7.4z"/>
	<path class="st3" d="M34.8,91.9l-13.2,7.6c-1,0.6-1.6,1.6-1.6,2.7v4.8l-4.3,2.5c-0.9,0.5-2,0.5-2.9,0l0,0l30.7,17.7V96.9l-12-6.9
		v-5.6l-4.6-2.6v-4.3l-11-6.3v3.6L12.8,73v36.5"/>
	<line class="st3" x1="45.9" y1="88.5" x2="45.9" y2="147.6"/>
	<path class="st3" d="M45.9,88.5L10,67.7V127l-2-1.4c-2-1.3-3.7-3-4.9-5"/>
	<path class="st3" d="M15.7,26.5L51.4,6c7-4,15.5-4,22.5,0l36.6,21.1c2,1.1,3.6,2.9,4.6,4.9l7,14.6c1.1,2.3,1.7,4.7,1.7,7.3v79.4
		c0,4.9-2.6,9.4-6.9,11.9l-35.2,20.3c-11.6,6.7-25.9,6.7-37.6,0.1L9.9,146.1c-4.3-2.4-6.9-7-6.9-11.9V53c0-2.4,0.5-4.7,1.5-6.9
		L11,31.6C12,29.5,13.6,27.7,15.7,26.5z"/>
	<path class="st3" d="M53.5,7.4L17.1,28.6c-2.5,1.4-3.3,4.6-1.9,7c0.4,0.8,1.1,1.4,1.9,1.9l36.6,21.2c5.6,3.3,12.6,3.3,18.2,0
		l36.6-21.2c2.5-1.4,3.3-4.6,1.9-7.1c-0.5-0.8-1.1-1.4-1.9-1.9L72,7.4C66.3,4.1,59.2,4.1,53.5,7.4z"/>
	<path class="st3" d="M122,46.6c0.7,4.1-0.7,8.3-3.8,11.2l-39,22.3C69,86,56.6,86,46.4,80.2L7,57.6c-2-1.4-3.3-3.6-3.6-6
		c-0.2-1.7,0.1-3.5,0.9-5"/>
	<path class="st2" d="M41.7,22.4L41.7,22.4c0.1,0,6.9,0.7,7.2,0.7c0.1,0.2,1.3,4.1,1.3,4.1s0,0.1,0.1,0.1l3.7,2.1
		c0.1,0,0.2,0.1,0.3,0c0,0,0,0,0.1,0s0.1-0.1,0.1-0.1s-1.8-5.4-1.9-5.8c0.7,0.1,10.8,1.2,10.8,1.2c0.1,0,0.2,0,0.2,0l0,0
		c0.1-0.1,0-0.1,0-0.2l-3.8-2.2h-0.1c0,0-7.5-0.8-7.8-0.8c-0.1-0.2-1.4-4.5-1.4-4.5s0-0.1-0.1-0.1l-3.7-2.1c-0.1,0-0.2-0.1-0.3,0
		c0,0,0,0-0.1,0s-0.1,0.1-0.1,0.1s2,5.8,2.1,6.2c-0.7-0.1-10-1.1-10-1.1c-0.1,0-0.2,0-0.2,0l0,0c-0.1,0.1,0,0.1,0,0.2L41.7,22.4z"/>
	<path class="st2" d="M70.7,39.2c0.1,0,0.1,0,0.2,0c0,0,11.7-0.7,12.3-0.7c-0.1,0.3-1.3,7-1.3,7c0,0.1,0,0.1,0.1,0.1l3.1,1.8
		c0.1,0,0.2,0.1,0.3,0c0.1,0,0.2-0.1,0.2-0.1l1.5-9.2c0-0.1,0-0.1-0.1-0.1l-3-1.7c-0.1,0-0.1,0-0.2,0l-15.9,0.8
		c-0.1,0-0.2,0-0.2,0.1s0,0.1,0.1,0.2L70.7,39.2z"/>
	<path class="st2" d="M65.8,36.4c-0.5,0.7-1.1,1.3-1.9,1.7c-2,1.1-4.6,1.5-5.8,0.8l-7.6-4.4c-0.4-0.2-0.2-0.7,0.5-1.1
		c0.6-0.4,1.3-0.5,2-0.3l7.6,4.4c0.6,0.2,1.3,0.1,1.9-0.3c0.6-0.4,1-0.9,0.5-1.1l-7.6-4.4c-0.4-0.2-0.2-0.7,0.5-1.1l0,0
		c0.6-0.4,1.3-0.5,1.9-0.3l7.6,4.4c0.7,0.2,1.4,0.1,2-0.3c0.6-0.4,0.9-0.9,0.5-1.1l-7.6-4.4c-0.4-0.2-0.2-0.7,0.5-1.1
		c0.6-0.4,1.3-0.5,2-0.3l7.6,4.4c1.2,0.7,0.5,2.2-1.4,3.4C67.9,35.8,66.9,36.2,65.8,36.4L65.8,36.4z"/>
	<path class="st2" d="M44.6,16.5c-0.1,0-0.2-0.1-0.2-0.2s0-0.2,0-0.3c0-0.1,0.1-0.2,0.2-0.2c0.1-0.1,0.2-0.1,0.4-0.1
		c0.1,0,0.3,0,0.4,0c0.1,0,0.3,0.1,0.4,0.1c0.1,0,0.2,0.1,0.2,0.2s0,0.2,0,0.3s-0.1,0.2-0.2,0.2c-0.1,0.1-0.2,0.1-0.4,0.1
		c-0.1,0-0.3,0-0.4,0C44.8,16.6,44.7,16.6,44.6,16.5z M44.7,16.5c0.1,0.1,0.2,0.1,0.3,0.1s0.2,0,0.4,0c0.1,0,0.2-0.1,0.3-0.1
		s0.1-0.1,0.2-0.2c0-0.1,0-0.1,0-0.2s-0.1-0.1-0.2-0.2c-0.1-0.1-0.2-0.1-0.3-0.1s-0.2,0-0.4,0c-0.1,0-0.2,0.1-0.3,0.1
		s-0.1,0.1-0.2,0.2c0,0.1,0,0.1,0,0.2C44.5,16.3,44.6,16.4,44.7,16.5z M45.8,16.1l-0.6,0.4L45,16.4c-0.1,0-0.1-0.1-0.1-0.1v-0.1
		c0,0,0-0.1,0.1-0.1s0.1,0,0.2,0c0.1,0,0.1,0,0.2,0c0,0,0,0,0-0.1v-0.1v-0.1l0.1,0.1V16v0.1c0,0,0,0,0.1,0.1h0.1L46,16L45.8,16.1z
		 M45.3,16.3l-0.1-0.1c0,0-0.1,0-0.1-0.1H45l0,0l0,0c0,0,0.1,0,0.1,0.1L45.3,16.3L45.3,16.3z"/>
	<path class="st3" d="M10,127l35.9,20.6l0.5,0.2c11.6,5.4,25.1,4.8,36.2-1.7l36.5-21.3c3-1.9,4.7-5.2,4.6-8.7"/>
	<line class="st3" x1="10" y1="110.7" x2="45.7" y2="131.3"/>
	<path d="M62.6,3c3.9,0,7.8,1,11.2,3l36.6,21.1c2,1.1,3.6,2.9,4.6,4.9l7,14.6c1.1,2.3,1.7,4.7,1.7,7.3v79.4c0,4.9-2.6,9.4-6.9,11.9
		l-35.2,20.3c-11.6,6.7-25.9,6.7-37.6,0.1L9.9,146.1c-4.3-2.4-6.9-7-6.9-11.9V53c0-2.4,0.5-4.7,1.5-6.9L11,31.6
		c1-2.2,2.6-3.9,4.6-5.1L51.4,6C54.8,4,58.7,3,62.6,3 M62.6,0L62.6,0c-4.5,0-8.9,1.2-12.7,3.4L14.2,23.9c-2.6,1.5-4.7,3.8-5.9,6.5
		L1.8,44.9C0.6,47.4,0,50.2,0,53v81.1c0,6,3.2,11.5,8.4,14.5l34.1,19.5c12.6,7.2,28,7.2,40.6-0.1l35.2-20.3c5.2-3,8.4-8.5,8.4-14.5
		V53.9c0-3-0.7-5.9-2-8.6l-6.9-14.6c-1.2-2.6-3.3-4.8-5.8-6.2L75.3,3.4C71.5,1.2,67.1,0,62.6,0z"/>
</g>
</svg>
