<?xml version="1.0" encoding="UTF-8"?><svg id="a" xmlns="http://www.w3.org/2000/svg" width="50" height="50" viewBox="0 0 50 50"><defs><style>.d{fill:#32a0c8;}</style></defs><path class="d" d="M26.55712,20.12482v-5.75988c.01213,0,3.12431.00057,3.11311.00057,1.23563,0,1.98419-1.37913,1.29804-2.41576l-4.67153-7.0585c-.61322-.92658-1.97959-.93198-2.5962.00029l-4.66791,7.05666c-.6816,1.03031.05511,2.41524,1.29793,2.41547l3.1134.00063v5.76022c.50208-.10913,1.0218-.17004,1.55607-.17004.53461,0,1.05473.06109,1.5571.17033Z"/><path class="d" d="M18.31816,30.27298l-3.8658,3.32412-1.85196-2.48362c-.73878-.99083-2.29117-.76619-2.71228.40284l-2.86802,7.95991c-.37709,1.04657.43651,2.144,1.55135,2.08194l8.45096-.47272c1.23213-.0689,1.90552-1.48613,1.16093-2.48466l-1.87-2.50782,3.84816-3.32378c-.77947-.68804-1.41177-1.53624-1.84334-2.49621Z"/><path class="d" d="M42.98086,39.47622l-2.8679-7.95991c-.41812-1.16041-1.96798-1.40108-2.71222-.40284l-1.85196,2.48362-3.8666-3.32481c-.43151.96003-1.06375,1.80834-1.84317,2.49644l3.84867,3.32424-1.87006,2.50782c-.73758.98928-.08246,2.41513,1.16093,2.48466,5.98865.33439,8.47021.47507,8.53819.47507,1.07852,0,1.82897-1.07186,1.46412-2.08429Z"/><path class="d" d="M30.44413,27.28164c0-3.00203-2.44208-5.4441-5.4441-5.4441s-5.4441,2.44208-5.4441,5.4441c0,3.00157,2.44208,5.44364,5.4441,5.44364s5.4441-2.44208,5.4441-5.44364Z"/></svg>