<?xml version="1.0" encoding="UTF-8"?><svg id="b" xmlns="http://www.w3.org/2000/svg" width="50" height="50" viewBox="0 0 50 50"><defs><style>.d{fill:#ff5776;}</style></defs><path class="d" d="M11.87678,37.02351c-.28735,0-.55748.1119-.76069.31511l-2.78415,2.78412c-.42092.42096-.42092,1.10586,0,1.52679.22247.22244.49355.33474.78192.33474s.55949-.11231.76341-.31623l2.78415-2.78415c.20613-.20613.31799-.48024.315-.7718-.00296-.28664-.11686-.5567-.32071-.76045-.21405-.21418-.48808-.32812-.77893-.32812Z"/><path class="d" d="M25,42.45397c-.60253,0-1.09275.49022-1.09275,1.09275v3.93268c0,.59529.48431,1.0796,1.0796,1.0796.62158,0,1.1059-.48431,1.1059-1.0796v-3.93268c0-.60253-.49019-1.09275-1.09275-1.09275Z"/><path class="d" d="M25.01318,1.44099h-.02633c-.59529,0-1.0796.48428-1.0796,1.07957v3.93272c0,.60253.49022,1.09272,1.09275,1.09272.60256,0,1.09275-.49019,1.09275-1.09272v-3.93272c0-.59529-.48431-1.07957-1.07957-1.07957Z"/><path class="d" d="M6.45328,23.90725h-3.93268c-.59529,0-1.0796.48428-1.0796,1.07957,0,.62162.48431,1.10593,1.0796,1.10593h3.93268c.60253,0,1.09275-.49022,1.09275-1.09275,0-.60256-.49022-1.09275-1.09275-1.09275Z"/><path class="d" d="M40.88615,8.0157c-.28837,0-.55949.11231-.76338.31623l-2.78415,2.78415c-.20613.20613-.31803.48024-.31504.77183.00296.28664.11686.5567.32075.76045.21405.21418.48808.32808.7789.32808.28735,0,.55752-.1119.76069-.31507l2.78415-2.78415c.20392-.20392.31623-.475.31623-.76338,0-.28841-.11234-.55952-.31626-.76341-.22237-.2224-.49348-.33474-.78189-.33474Z"/><path class="d" d="M9.87723,8.33193c-.20389-.20389-.47497-.31623-.76338-.31623-.28837,0-.55949.11231-.76338.31623-.43947.43944-.43947,1.12434-.01855,1.5453l2.78419,2.78415c.20318.20318.47331.31507.76066.31507.29085,0,.56489-.1139.7716-.32078.21119-.21106.32509-.48112.32805-.76776.00299-.29157-.10887-.56567-.315-.77183l-2.78419-2.78415Z"/><path class="d" d="M38.88392,37.33858c-.20318-.20318-.47334-.31507-.76069-.31507-.29085,0-.56489.11394-.7716.32081-.21119.21106-.32509.48112-.32805.76776-.00299.29157.10891.56567.31504.7718l2.78415,2.78415c.20392.20392.47504.31623.76338.31623.28841,0,.55952-.11231.76341-.31623.2224-.2224.33474-.49352.33474-.78189s-.11231-.55949-.31623-.76341l-2.78415-2.78415Z"/><path class="d" d="M47.47944,23.90725h-3.93272c-.60253,0-1.09272.49019-1.09272,1.09275,0,.60253.49019,1.09275,1.09272,1.09275h3.93272c.59529,0,1.07957-.48431,1.07957-1.0796,0-.1554-.03027-.30222-.08497-.43504-.16411-.39845-.54813-.67086-.9946-.67086Z"/><circle class="d" cx="25" cy="25" r="12.52273"/></svg>