<?xml version="1.0" encoding="UTF-8"?><svg id="b" xmlns="http://www.w3.org/2000/svg" width="67" height="67" viewBox="0 0 67 67"><path d="M58.62,0H8.38C3.77002,0,0,3.76996,0,8.38V58.62c0,4.60999,3.77002,8.38,8.38,8.38H58.62c4.60999,0,8.38-3.77002,8.38-8.38V8.38c0-4.61005-3.77002-8.38-8.38-8.38Zm-.8772,48.57996H9.16272c-1.87988-5.65997-1.87988-11.72998,0-17.16998,4.82007-13.39996,19.46997-20.51996,32.87012-15.70996,13.3999,4.60999,20.5199,19.46997,15.70996,32.87994Zm3.78723-36.92999h-3.23999v3.24005c0,.83997-.63013,1.46997-1.46997,1.46997-.84009,0-1.47009-.63-1.47009-1.46997v-3.24005h-3.23999c-.83997,0-1.46997-.63-1.46997-1.46997,0-.84003,.63-1.47003,1.46997-1.47003h3.23999v-3.23999c0-.83997,.63-1.46997,1.47009-1.46997,.83984,0,1.46997,.63,1.46997,1.46997v3.23999h3.23999c.83997,0,1.46997,.63,1.46997,1.47003,0,.83997-.63,1.46997-1.46997,1.46997Z" fill="#A0A0A0"/><path d="M44.51746,40.74872c0,.83746,.62805,1.46558,1.4657,1.46558h9.42188c.8374,0,1.46558-.62811,1.46558-1.46558,0-.83752-.62817-1.46564-1.46558-1.46564h-9.42188c-.83765,0-1.4657,.62811-1.4657,1.46564Z" fill="#A0A0A0"/><path d="M43.04138,35.23999c.41882,.72528,1.27673,.9552,2.00208,.53644l8.15967-4.71094c.72522-.41876,.95508-1.27679,.53638-2.00208-.4187-.72534-1.27686-.9552-2.00208-.5365l-8.15955,4.71094c-.72534,.41876-.95532,1.27679-.5365,2.00214Z" fill="#A0A0A0"/><path d="M45.1853,20.50916c-.72534-.41876-1.58337-.18884-2.00208,.5365l-4.71094,8.15955c-.41882,.72528-.18884,1.58331,.5365,2.00208,.72522,.41876,1.58325,.18884,2.00195-.53644l4.71094-8.15961c.41882-.72528,.18896-1.58331-.53638-2.00208Z" fill="#A0A0A0"/><path d="M33.5,29.73126c.83752,0,1.46558-.62817,1.46558-1.46564v-9.42188c0-.83752-.62805-1.46564-1.46558-1.46564s-1.46558,.62811-1.46558,1.46564v9.42188c0,.83746,.62805,1.46564,1.46558,1.46564Z" fill="#A0A0A0"/><path d="M21.01685,39.28308H11.59497c-.8374,0-1.46558,.62811-1.46558,1.46564,0,.83746,.62817,1.46558,1.46558,1.46558h9.42188c.83765,0,1.4657-.62811,1.4657-1.46558,0-.83752-.62805-1.46564-1.4657-1.46564Z" fill="#A0A0A0"/><path d="M25.98926,30.67084c.4187,.72528,1.27673,.9552,2.00195,.53644,.72534-.4187,.95532-1.27679,.5365-2.00208l-4.71094-8.15955c-.4187-.72534-1.27673-.95526-2.00208-.5365s-.9552,1.27679-.53638,2.00208l4.71094,8.15961Z" fill="#A0A0A0"/><path d="M36.36621,35.78418c-2.30225-1.32928-5.13904-.87445-6.92798,.92712l-14.17578-8.18433c-.72522-.41876-1.58325-.1889-2.00195,.53644-.4187,.72528-.18884,1.58325,.53638,2.00201l14.17578,8.18433c-.66577,2.45007,.35876,5.13422,2.66113,6.46344,2.7417,1.58301,6.2478,.64362,7.83081-2.09821,1.58301-2.74188,.64355-6.24786-2.09839-7.83081Z" fill="#A0A0A0"/></svg>