<?xml version="1.0" encoding="utf-8"?>
<!-- Generator: Adobe Illustrator 26.0.2, SVG Export Plug-In . SVG Version: 6.00 Build 0)  -->
<svg version="1.1" id="Layer_1" xmlns="http://www.w3.org/2000/svg" xmlns:xlink="http://www.w3.org/1999/xlink" x="0px" y="0px"
	 viewBox="0 0 385.1 231.5" style="enable-background:new 0 0 385.1 231.5;" xml:space="preserve">
<style type="text/css">
	.st0{fill:#E8EAED;}
	.st1{fill:#97A0AE;}
</style>
<path class="st0" d="M244.4,224L244.4,224c-0.4-0.1-0.9-0.1-1.4-0.1c-2.5,0-4.9-0.7-6.9-2.1c-2-1.4-3.5-3.5-4.1-5.9l-5-22
	c-0.6-2.4-2.1-4.4-4.1-5.9c-2-1.4-4.4-2.2-6.9-2.1h-46c-2.5,0-4.9,0.7-6.9,2.1c-2,1.4-3.4,3.5-4.1,5.9l-6,22
	c-0.6,2.4-2.1,4.4-4.1,5.9c-2,1.4-4.4,2.2-6.9,2.1c-0.5,0-0.9,0-1.4,0.1l0,0c-0.4,0.1-0.9,0.1-1.3,0.1c-0.4,0-0.9-0.1-1.3-0.2
	l-36-20c-2.4-0.9-4.4-2.6-5.8-4.7c-1.4-2.1-2.2-4.6-2.2-7.1v-90.9c-0.1-14.2,11.4-25.9,25.6-25.9l0,0c0.1,0,0.2,0,0.3,0h146
	c14.3,0,26,11.5,26,25.8l0,0l0,0c0,0.1,0,0.1,0,0.2V192c0,2.6-0.8,5.1-2.2,7.2c-1.4,2.2-3.4,3.8-5.8,4.7l-37,20
	c-0.4,0.1-0.9,0.2-1.3,0.2C245.3,224.2,244.8,224.1,244.4,224z M108,89.1c-3.2,3.2-4.9,7.6-4.9,12.1v20c-0.1,12.1,5.9,23.4,16,30
	l35,23c2.1,1.3,5.1,2,9,2h60c2.8,0.2,5.6-0.5,8-2l35-23c5.1-3.3,9.3-7.7,12.3-12.9c3-5.2,4.6-11.1,4.7-17.1v-20c0-4.6-2-9-5.4-12.1
	c-3.4-3.2-7.9-4.9-12.6-4.9h-43c-3,1.1-3.9,3.2-6,8.3l0,0c-0.6,1.4-1.2,2.9-2,4.7c-2.1,3.7-5.9,8-12,8h-18c-2.6,0-5.2-0.8-7.3-2.4
	c-2-1.5-3.6-3.4-4.7-5.6c-1.3-3.1-2.8-6.2-4.5-9.1c-1-1.8-2.6-3.1-4.5-3.9h-43C115.5,84.1,111.2,85.9,108,89.1z M92.1,84.1v-43
	c-0.2-2.4,0.2-4.8,1-7c1.9-4.5,5.5-8.1,10-10l0.5-0.2c2-1,4.2-1.6,6.5-1.8h38c3.2,0.1,6.4,1.2,9,3c2.4,1.7,4.1,4.2,5,7
	c0.9,2.8,2.7,5.2,5,7c1.9,1.4,4.5,2,8,2h35c3.5,0,6.1-0.6,8-2c2.3-1.8,4.1-4.2,5-7c0.9-2.8,2.6-5.3,5-7c2.6-1.9,5.8-2.9,9-3h38
	c2.3,0.2,4.5,0.8,6.5,1.8l0.5,0.2c4.5,1.9,8.1,5.5,10,10c0.8,2.2,1.2,4.6,1,7v42.5c-4.3-6.7-11-11.5-18.7-13.5c-2.7-0.7-5.5-1-8.3-1
	h-146c-5.7,0-11.2,1.4-16.2,4.1C99.1,75.8,95,79.6,92.1,84.1L92.1,84.1L92.1,84.1z"/>
<polygon class="st1" points="162.8,133.3 159.9,137.5 165.6,137.5 "/>
<polygon class="st1" points="172.5,156.1 175.3,152 169.7,152 "/>
<polygon class="st1" points="145.6,37.8 142.7,41.9 148.4,41.9 "/>
<polygon class="st1" points="145.6,47.8 148.4,43.6 142.7,43.6 "/>
<polygon class="st1" points="239.6,37.8 236.7,41.9 242.4,41.9 "/>
<polygon class="st1" points="239.6,47.8 242.4,43.6 236.7,43.6 "/>
<path class="st1" d="M266.1,131.7c0.5,0,0.9,0.1,1.4,0.2c0.3,0.1,0.6,0.3,0.9,0.5c0.2,0.2,0.3,0.4,0.4,0.7c0.1,0.2,0.1,0.5,0.1,0.7
	c0,0.4-0.1,0.8-0.3,1.2c-0.2,0.3-0.5,0.6-0.9,0.8l1.5,3.2h-1.4l-1.3-2.9c-0.1,0-0.1,0-0.2,0c-0.1,0-0.1,0-0.2,0h-1.3v2.9h-1.2v-7.3
	H266.1z M266.2,135.1c0.2,0,0.5,0,0.7-0.1c0.2,0,0.3-0.1,0.4-0.2c0.1-0.1,0.2-0.2,0.2-0.4c0-0.2,0.1-0.3,0.1-0.5
	c0-0.2,0-0.3-0.1-0.5c-0.1-0.1-0.1-0.3-0.3-0.4c-0.1-0.1-0.3-0.2-0.5-0.2c-0.2-0.1-0.5-0.1-0.7-0.1h-1.3v2.4H266.2z"/>
<path class="st1" d="M271.1,136.9c0,0.4,0.1,0.7,0.4,1c0.3,0.2,0.6,0.3,1,0.3c0.3,0,0.7-0.1,1-0.3c0.3-0.2,0.4-0.6,0.3-0.9
	c0-0.3-0.1-0.6-0.3-0.9c-0.3-0.2-0.6-0.3-0.9-0.3h-0.8v-1h0.8c0.5,0.1,0.9-0.3,1-0.7l0,0c0-0.2,0.1-0.3,0-0.5c0-0.2-0.2-0.5-0.4-0.6
	c-0.5-0.3-1.2-0.2-1.7,0.1c-0.2,0.2-0.4,0.5-0.5,0.8l-1.1-0.2c0.1-0.3,0.1-0.5,0.3-0.8c0.1-0.2,0.3-0.4,0.5-0.6
	c0.2-0.2,0.5-0.3,0.7-0.4c0.3-0.1,0.7-0.2,1.1-0.2c0.4,0,0.7,0,1,0.2c0.3,0.1,0.5,0.2,0.7,0.4c0.2,0.2,0.3,0.4,0.4,0.6
	c0.1,0.2,0.1,0.5,0.1,0.7c0,0.7-0.4,1.3-1,1.6c0.4,0.1,0.7,0.4,0.9,0.7c0.2,0.3,0.3,0.6,0.3,1c0,0.6-0.2,1.2-0.6,1.6
	c-0.5,0.4-1.2,0.7-1.9,0.6c-0.4,0-0.8-0.1-1.2-0.2c-0.3-0.1-0.6-0.3-0.8-0.5c-0.2-0.2-0.3-0.5-0.4-0.7c-0.1-0.3-0.1-0.5-0.1-0.8
	L271.1,136.9z"/>
<path class="st1" d="M255.8,131.6l-2.1,3.1c0,0,0,0,0,0c-0.1,0-0.2,0-0.2,0l-2.1-3.1c0,0,0-0.1,0-0.1c0-0.1,0.1-0.2,0.2-0.2h0h4.1
	c0,0,0.1,0,0.1,0C255.8,131.4,255.8,131.5,255.8,131.6z"/>
<path class="st1" d="M253.6,141.4c-1.3,0-2.9-0.4-3-1.3l0-0.1l0-1.7c-2.1-0.5-3.4-1.6-3.4-2.9c0-1.2,1.2-2.3,3.3-2.8
	c0.3-0.1,0.6,0.1,0.7,0.4s-0.1,0.6-0.4,0.7l0,0l0,0l0,0c-1.5,0.4-2.5,1.1-2.5,1.8c0,0.7,1.2,1.5,3,1.9l0.4,0.1l0,2.5
	c1.2,0.5,2.6,0.5,3.8,0l0-2.5l0.4-0.1c1.8-0.4,3-1.2,3-1.9c0-0.7-1-1.4-2.5-1.8c-0.3-0.1-0.5-0.4-0.4-0.7c0.1-0.3,0.4-0.5,0.7-0.4
	c2,0.6,3.3,1.6,3.3,2.8c0,1.3-1.3,2.3-3.4,2.9l0,1.8C256.5,141,254.9,141.4,253.6,141.4z"/>
<path class="st1" d="M114.2,131.7v6.2h3.6l-0.2,1.1H113v-7.3L114.2,131.7z"/>
<path class="st1" d="M119.7,136.9c0,0.4,0.1,0.7,0.4,1c0.3,0.2,0.6,0.3,1,0.3c0.3,0,0.7-0.1,1-0.3c0.3-0.2,0.4-0.6,0.3-0.9
	c0-0.3-0.1-0.6-0.3-0.9c-0.3-0.2-0.6-0.3-0.9-0.3h-0.8v-1h0.8c0.5,0.1,0.9-0.3,1-0.7v0v0l0,0c0-0.2,0.1-0.3,0-0.5
	c0-0.2-0.2-0.5-0.4-0.6c-0.5-0.3-1.2-0.2-1.7,0.1c-0.2,0.2-0.4,0.5-0.5,0.8l-1.1-0.2c0.1-0.3,0.1-0.5,0.3-0.8
	c0.1-0.2,0.3-0.4,0.5-0.6c0.2-0.2,0.5-0.3,0.7-0.4c0.3-0.1,0.7-0.2,1.1-0.2c0.4,0,0.7,0,1,0.2c0.3,0.1,0.5,0.2,0.7,0.4
	c0.2,0.2,0.3,0.4,0.4,0.6c0.1,0.2,0.1,0.5,0.1,0.7c0,0.7-0.4,1.3-1,1.6c0.4,0.1,0.7,0.4,0.9,0.7c0.2,0.3,0.3,0.6,0.3,1
	c0,0.6-0.2,1.2-0.6,1.6c-0.5,0.4-1.2,0.7-1.9,0.6c-0.4,0-0.8-0.1-1.2-0.2c-0.3-0.1-0.6-0.3-0.8-0.5c-0.2-0.2-0.3-0.5-0.4-0.7
	c-0.1-0.3-0.1-0.5-0.1-0.8L119.7,136.9z"/>
<path class="st1" d="M134.4,131.6l-2.1,3.1c0,0,0,0,0,0c-0.1,0-0.2,0-0.2,0l-2.1-3.1c0,0,0-0.1,0-0.1c0-0.1,0.1-0.2,0.2-0.2l0,0h4.1
	c0,0,0.1,0,0.1,0C134.5,131.4,134.5,131.5,134.4,131.6z"/>
<path class="st1" d="M132.2,141.4c-1.3,0-2.9-0.4-3-1.3l0-0.1l0-1.7c-2.1-0.5-3.4-1.6-3.4-2.9c0-1.2,1.2-2.3,3.3-2.8
	c0.3-0.1,0.6,0.1,0.7,0.4s-0.1,0.6-0.4,0.7l0,0c-1.5,0.4-2.5,1.1-2.5,1.8c0,0.7,1.2,1.5,3,1.9l0.4,0.1l0,2.5c1.2,0.5,2.6,0.5,3.8,0
	l0-2.5l0.4-0.1c1.8-0.4,3-1.2,3-1.9c0-0.7-1-1.4-2.5-1.8c-0.3-0.1-0.5-0.4-0.4-0.7c0.1-0.3,0.4-0.5,0.7-0.4l0,0
	c2,0.6,3.3,1.6,3.3,2.8c0,1.3-1.3,2.3-3.4,2.9l0,1.8C135.1,141,133.5,141.4,132.2,141.4z"/>
<path class="st1" d="M226.4,140.5h-1.6l-0.6-1.6h-2.9l-0.6,1.6h-1.5l2.8-7.2h1.5L226.4,140.5z M223.7,137.7l-1-2.7l-1,2.7H223.7z"/>
<path class="st1" d="M210,148.9h2.9c0.4,0,0.9,0,1.3,0.1c0.3,0,0.5,0.1,0.8,0.3c0.2,0.2,0.4,0.4,0.6,0.6c0.1,0.3,0.2,0.5,0.2,0.8
	c0,0.7-0.4,1.3-1,1.6c0.4,0.1,0.8,0.3,1,0.7c0.2,0.3,0.4,0.7,0.4,1.1c0,0.3-0.1,0.7-0.2,1c-0.1,0.3-0.4,0.6-0.6,0.7
	c-0.3,0.2-0.6,0.3-1,0.3c-0.2,0-0.8,0-1.8,0H210L210,148.9z M211.4,150.1v1.7h1c0.6,0,0.9,0,1.1,0c0.2,0,0.4-0.1,0.6-0.3
	c0.1-0.2,0.2-0.4,0.2-0.6c0-0.2-0.1-0.4-0.2-0.5c-0.1-0.2-0.3-0.2-0.6-0.3c-0.1,0-0.6,0-1.2,0H211.4z M211.4,153v1.9h1.4
	c0.3,0,0.7,0,1,0c0.2,0,0.4-0.1,0.5-0.3c0.1-0.2,0.2-0.4,0.2-0.6c0-0.2,0-0.4-0.2-0.6c-0.1-0.2-0.3-0.3-0.5-0.3
	c-0.4-0.1-0.9-0.1-1.3-0.1H211.4z"/>
<g>
	<path class="st1" d="M234.5,52.2c-0.5,0-0.9-0.1-1.2-0.2c-0.3-0.1-0.6-0.3-0.7-0.4c-0.2-0.2-0.3-0.4-0.4-0.6
		c-0.1-0.2-0.1-0.4-0.1-0.7c0-0.4,0.1-0.8,0.2-1.1s0.4-0.5,0.8-0.7l-1.3-2.8h1.2l1.2,2.6c0.1,0,0.1,0,0.2,0c0.1,0,0.1,0,0.2,0h1.2
		v-2.5h1.1v6.4H234.5z M234.5,49.2c-0.2,0-0.5,0-0.6,0.1s-0.3,0.1-0.4,0.2c-0.1,0.1-0.2,0.2-0.2,0.3s-0.1,0.3-0.1,0.4
		c0,0.1,0,0.3,0.1,0.4s0.1,0.2,0.2,0.3c0.1,0.1,0.2,0.2,0.4,0.2s0.4,0.1,0.6,0.1h1.1v-2.1H234.5z"/>
	<path class="st1" d="M230.4,50l0.5,0.8l-1.9,1.2H228v-6.2h1v5.1L230.4,50z"/>
</g>
<g>
	<path class="st1" d="M234.5,39.8c-0.5,0-0.9-0.1-1.2-0.2c-0.3-0.1-0.6-0.3-0.7-0.4c-0.2-0.2-0.3-0.4-0.4-0.6
		c-0.1-0.2-0.1-0.4-0.1-0.7c0-0.4,0.1-0.8,0.2-1.1s0.4-0.5,0.8-0.7l-1.3-2.8h1.2l1.2,2.6c0.1,0,0.1,0,0.2,0c0.1,0,0.1,0,0.2,0h1.2
		v-2.5h1.1v6.4H234.5z M234.5,36.8c-0.2,0-0.5,0-0.6,0.1s-0.3,0.1-0.4,0.2c-0.1,0.1-0.2,0.2-0.2,0.3s-0.1,0.3-0.1,0.4
		c0,0.1,0,0.3,0.1,0.4s0.1,0.2,0.2,0.3c0.1,0.1,0.2,0.2,0.4,0.2s0.4,0.1,0.6,0.1h1.1v-2.1H234.5z"/>
	<path class="st1" d="M231.1,34.1c-0.5,0.4-0.9,0.8-1.3,1.1c-0.4,0.3-0.7,0.6-1,0.9s-0.5,0.6-0.7,0.8c-0.2,0.3-0.2,0.6-0.2,0.9
		s0.1,0.6,0.3,0.8c0.2,0.2,0.4,0.3,0.7,0.3c0.4,0,0.7-0.1,0.8-0.2c0.2-0.2,0.3-0.4,0.4-0.8l1,0.1c-0.1,0.2-0.1,0.5-0.2,0.7
		c-0.1,0.2-0.2,0.4-0.4,0.6c-0.2,0.2-0.4,0.3-0.7,0.4c-0.3,0.1-0.6,0.1-1,0.1c-0.7,0-1.2-0.2-1.5-0.5c-0.3-0.3-0.5-0.8-0.5-1.4
		c0-0.4,0.1-0.7,0.2-1c0.1-0.3,0.3-0.6,0.5-0.8c0.2-0.3,0.5-0.6,0.9-0.8s0.7-0.6,1.1-1h-2.8l0.1-0.9h4.2V34V34.1z"/>
</g>
<g>
	<path class="st1" d="M155.6,52.2v-5.5h-3.2l0.1-0.9h4.1v6.4H155.6z"/>
	<path class="st1" d="M151,50l0.5,0.8l-1.9,1.2h-0.9v-6.2h1v5.1L151,50z"/>
</g>
<g>
	<path class="st1" d="M155.6,39.8v-5.5h-3.2l0.1-0.9h4.1v6.4H155.6z"/>
	<path class="st1" d="M151.8,34.1c-0.5,0.4-0.9,0.8-1.3,1.1c-0.4,0.3-0.7,0.6-1,0.9s-0.5,0.6-0.7,0.8c-0.2,0.3-0.2,0.6-0.2,0.9
		s0.1,0.6,0.3,0.8c0.2,0.2,0.4,0.3,0.7,0.3c0.4,0,0.7-0.1,0.8-0.2c0.2-0.2,0.3-0.4,0.4-0.8l1,0.1c-0.1,0.2-0.1,0.5-0.2,0.7
		c-0.1,0.2-0.2,0.4-0.4,0.6c-0.2,0.2-0.4,0.3-0.7,0.4c-0.3,0.1-0.6,0.1-1,0.1c-0.7,0-1.2-0.2-1.5-0.5c-0.3-0.3-0.5-0.8-0.5-1.4
		c0-0.4,0.1-0.7,0.2-1c0.1-0.3,0.3-0.6,0.5-0.8c0.2-0.3,0.5-0.6,0.9-0.8s0.7-0.6,1.1-1h-2.8l0.1-0.9h4.2V34V34.1z"/>
</g>
</svg>
