<svg xmlns="http://www.w3.org/2000/svg" width="385.10999" height="231.48" viewBox="0 0 385.10999 231.48"><defs><style>.a{fill:#e8eaed;}.b{fill:#97a0ae;}</style></defs><path class="a" d="M244.42674,224h0a12.28565,12.28565,0,0,0-1.35-.11,11.83,11.83,0,0,1-6.93-2.14,10.3102,10.3102,0,0,1-4.07-5.85l-5-22a10.4,10.4,0,0,0-4.08-5.85,11.9,11.9,0,0,0-6.92-2.14h-46a11.82992,11.82992,0,0,0-6.93,2.14,10.34,10.34,0,0,0-4.07,5.85l-6,22a10.37,10.37,0,0,1-4.08,5.85,11.82987,11.82987,0,0,1-6.92,2.14,12.07678,12.07678,0,0,0-1.35.11h0a11.74771,11.74771,0,0,1-1.32.11,3.63936,3.63936,0,0,1-1.31-.22l-36-20a12,12,0,0,1-5.82-4.74,13.41,13.41,0,0,1-2.23-7.15V101.1a25.78974,25.78974,0,0,1,25.64846-25.93025q.16079-.00087.32157.00025h146a25.92,25.92,0,0,1,26,25.83975h0q.0002.08012,0,.16025V192a13.44007,13.44007,0,0,1-2.19,7.25,12.17988,12.17988,0,0,1-5.81,4.74l-37,20a3.72965,3.72965,0,0,1-1.32.21A9.5093,9.5093,0,0,1,244.42674,224Zm-136.43-134.95a17,17,0,0,0-4.91,12.08v20a35.34,35.34,0,0,0,16,30l35,23c2.08,1.33,5.1,2,9,2h60a13.91986,13.91986,0,0,0,8-2l35-23a38,38,0,0,0,12.32-12.91,34.34,34.34,0,0,0,4.68-17.09v-20a16.37005,16.37005,0,0,0-5.42-12.08,18.69992,18.69992,0,0,0-12.58-4.92h-43c-3,1.14-3.89,3.23-6,8.28h0c-.57,1.36-1.2,2.9-2,4.7-2.1,3.65-5.89,8-12,8h-18a12.12,12.12,0,0,1-7.33-2.44,16.3,16.3,0,0,1-4.67-5.56,73.64341,73.64341,0,0,0-4.51-9.11,8.85,8.85,0,0,0-4.52-3.86h-43A16.93,16.93,0,0,0,107.99675,89.05Zm-15.94-4.94v-43a16.71994,16.71994,0,0,1,1-7,18.38,18.38,0,0,1,10-10l.51-.21a16.73,16.73,0,0,1,6.49-1.79h38a16.73,16.73,0,0,1,9,3,13.62992,13.62992,0,0,1,5,7,15,15,0,0,0,5,7c1.94,1.37,4.48,2,8,2h35c3.51,0,6.05-.63,8-2a15,15,0,0,0,5-7,13.51991,13.51991,0,0,1,5-7,16.67009,16.67009,0,0,1,9-3h38a16.80007,16.80007,0,0,1,6.47,1.78l.53.22a18.38,18.38,0,0,1,10,10,17.00011,17.00011,0,0,1,1,7V83.65a31.39,31.39,0,0,0-18.72-13.49,33.53959,33.53959,0,0,0-8.28-1h-146a34.06029,34.06029,0,0,0-16.2,4.09,32.59991,32.59991,0,0,0-11.8,10.85h0Z"/><path class="b" d="M155.43675,39.86v6.39h-1.3V40.94h-3.24V39.86Z"/><path class="b" d="M233.65675,39.86V46.3h-2.74a4.85994,4.85994,0,0,1-1.5-.17,1.56,1.56,0,0,1-.75-.62,2.00008,2.00008,0,0,1-.28-1,1.67,1.67,0,0,1,.43-1.19,2,2,0,0,1,1.27-.6,2.75983,2.75983,0,0,1-.69-.54,7.13023,7.13023,0,0,1-.74-1l-.79-1.25h1.55l1,1.4a9.46215,9.46215,0,0,0,.68,1,.86992.86992,0,0,0,.39.26,2.0895,2.0895,0,0,0,.66.08h.26V39.86Zm-1.3,3.71h-1a5.05031,5.05031,0,0,0-1.17.08.75.75,0,0,0-.37.28.89994.89994,0,0,0-.13.48.77009.77009,0,0,0,.18.53.82.82,0,0,0,.49.25h1.95Z"/><polygon class="b" points="162.752 133.31 159.942 137.47 165.552 137.47 162.752 133.31"/><polygon class="b" points="172.489 156.127 175.289 151.977 169.679 151.977 172.489 156.127"/><polygon class="b" points="145.557 37.75 142.747 41.9 148.357 41.9 145.557 37.75"/><polygon class="b" points="145.557 47.76 148.357 43.6 142.747 43.6 145.557 47.76"/><polygon class="b" points="239.557 37.75 236.746 41.9 242.357 41.9 239.557 37.75"/><polygon class="b" points="239.557 47.76 242.357 43.6 236.746 43.6 239.557 47.76"/><path class="b" d="M266.14417,131.72978a4.077,4.077,0,0,1,1.3688.19481,2.28352,2.28352,0,0,1,.85107.50748,1.73227,1.73227,0,0,1,.43586.69217,2.419,2.419,0,0,1,.123.74853,2.3442,2.3442,0,0,1-.282,1.19976,2.00621,2.00621,0,0,1-.90756.77932l1.51761,3.19921h-1.35349L266.585,136.1389q-.09228.01037-.19482.0154-.10272.00528-.2154.00517h-1.31243v2.8916h-1.22022v-7.32129Zm.09222,3.38378a2.35971,2.35971,0,0,0,.69723-.08718,1.04971,1.04971,0,0,0,.43586-.24609.89253.89253,0,0,0,.22561-.38454,1.77225,1.77225,0,0,0,.06659-.50242,1.351,1.351,0,0,0-.07681-.46654.83235.83235,0,0,0-.25644-.35892,1.26828,1.26828,0,0,0-.47678-.23068,2.82164,2.82164,0,0,0-.73828-.08211h-1.25091v2.35848Z"/><path class="b" d="M271.07614,136.949a1.53605,1.53605,0,0,0,.38455.98942,1.43153,1.43153,0,0,0,.99979.29231,1.45622,1.45622,0,0,0,.95367-.28714,1.11592,1.11592,0,0,0,.34858-.91261,1.06918,1.06918,0,0,0-.32291-.87157,1.45979,1.45979,0,0,0-.94849-.26666h-.7691v-1.03554h.82028a.88208.88208,0,0,0,1.00061-.7449l.00437-.03444a1.22374,1.22374,0,0,0,.041-.51277.8125.8125,0,0,0-.3588-.59982,1.72049,1.72049,0,0,0-1.69711.07174,1.60059,1.60059,0,0,0-.46655.846l-1.10742-.15387a3.25618,3.25618,0,0,1,.25128-.7537,2.02535,2.02535,0,0,1,.46652-.62545,2.11353,2.11353,0,0,1,.73309-.4255,3.2075,3.2075,0,0,1,1.06131-.15386,3.14577,3.14577,0,0,1,1.03568.15386,2.13791,2.13791,0,0,1,.728.41008,1.60806,1.60806,0,0,1,.42547.59478,1.87691,1.87691,0,0,1,.13846.7178,1.722,1.722,0,0,1-.98437,1.64066,1.77706,1.77706,0,0,1,.88192.7024,1.91156,1.91156,0,0,1,.26657.99967,2.18245,2.18245,0,0,1-.62042,1.64584,2.58182,2.58182,0,0,1-1.86111.59983,3.21688,3.21688,0,0,1-1.23047-.205,2.121,2.121,0,0,1-.7844-.53325,1.99223,1.99223,0,0,1-.42041-.73826,3.26762,3.26762,0,0,1-.14868-.81Z"/><path class="b" d="M255.777,131.57336l-2.07063,3.14757a.16751.16751,0,0,1-.04633.04607.16074.16074,0,0,1-.22221-.04607l-2.07126-3.14757a.16616.16616,0,0,1-.02615-.08853.15962.15962,0,0,1,.15942-.15983h4.14356a.15725.15725,0,0,1,.08737.02578A.16121.16121,0,0,1,255.777,131.57336Z"/><path class="b" d="M253.57169,141.37224c-1.316,0-2.89272-.35021-3.00547-1.33705l-.00358-.05976-.00811-1.71289c-2.13421-.54588-3.44049-1.62837-3.44049-2.87948,0-1.21671,1.22171-2.279,3.26813-2.84165a.54893.54893,0,1,1,.29617,1.05716l-.00393.00109-.00122.00033c-1.47216.40472-2.46123,1.12131-2.46123,1.783,0,.749,1.23482,1.53286,3.0029,1.90635l.43338.09152.01182,2.48623a4.69129,4.69129,0,0,0,3.82345,0l.01176-2.48623.43336-.09152c1.76809-.37349,3.00292-1.15736,3.00292-1.90635,0-.66146-.9885-1.37786-2.45969-1.7827a.54892.54892,0,0,1,.29126-1.05849c2.04529.56276,3.26633,1.62486,3.26633,2.84119,0,1.25111-1.30627,2.33354-3.44043,2.87948l-.01172,1.77266C256.46451,141.022,254.88768,141.37224,253.57169,141.37224Z"/><path class="b" d="M114.22709,131.72978v6.24455H117.857l-.15381,1.07673h-4.71682v-7.32128Z"/><path class="b" d="M119.70267,136.949a1.536,1.536,0,0,0,.38449.98942,1.4315,1.4315,0,0,0,.99978.29231,1.456,1.456,0,0,0,.95361-.28715,1.11557,1.11557,0,0,0,.34867-.91261,1.069,1.069,0,0,0-.323-.87157,1.45949,1.45949,0,0,0-.9485-.26666h-.769v-1.03556h.82033a.882.882,0,0,0,1.00054-.74484v-.00006l.00435-.03441a1.2259,1.2259,0,0,0,.041-.51277.81246.81246,0,0,0-.35891-.59982,1.72028,1.72028,0,0,0-1.697.07176,1.59974,1.59974,0,0,0-.46653.846l-1.10748-.15387a3.25325,3.25325,0,0,1,.25127-.75369,2.02508,2.02508,0,0,1,.46653-.6255,2.11242,2.11242,0,0,1,.73317-.4255,3.2068,3.2068,0,0,1,1.06125-.15385,3.14632,3.14632,0,0,1,1.03566.15385,2.13749,2.13749,0,0,1,.728.4101,1.60879,1.60879,0,0,1,.42554.59476,1.87809,1.87809,0,0,1,.1384.7178,1.722,1.722,0,0,1-.98439,1.64066,1.77661,1.77661,0,0,1,.88186.70239,1.91108,1.91108,0,0,1,.26663.99966,2.18266,2.18266,0,0,1-.62041,1.64583,2.58183,2.58183,0,0,1-1.86106.59982,3.21628,3.21628,0,0,1-1.23046-.205,2.12065,2.12065,0,0,1-.78447-.53325,1.99165,1.99165,0,0,1-.42044-.73826,3.26718,3.26718,0,0,1-.14869-.81Z"/><path class="b" d="M134.42415,131.57336l-2.07063,3.14757a.16731.16731,0,0,1-.04635.04607.16071.16071,0,0,1-.22218-.04607l-2.07127-3.14757a.16635.16635,0,0,1-.02616-.08853.15965.15965,0,0,1,.15947-.15983h4.14347a.15725.15725,0,0,1,.08737.02578A.16122.16122,0,0,1,134.42415,131.57336Z"/><path class="b" d="M132.2189,141.37224c-1.31593,0-2.89265-.35008-3.00552-1.33705l-.00359-.05976-.00811-1.71289c-2.13414-.546-3.44041-1.62842-3.44041-2.87948,0-1.21671,1.22169-2.27907,3.26807-2.8416a.54888.54888,0,0,1,.292,1.05821l-.001.00028c-1.47215.40478-2.46122,1.12141-2.46122,1.78312,0,.74886,1.23481,1.53279,3.00289,1.90628l.43337.09165.01176,2.4861a4.69021,4.69021,0,0,0,3.82351.0001l.01176-2.4862.43338-.09165c1.76807-.37349,3.0029-1.15742,3.0029-1.90628,0-.66145-.9885-1.37776-2.45969-1.78265a.54892.54892,0,0,1,.29128-1.05849h0c2.04527.56278,3.26633,1.62486,3.26633,2.84114,0,1.251-1.30628,2.33353-3.44043,2.87949l-.01171,1.77266C135.11166,141.022,133.53488,141.37224,132.2189,141.37224Z"/><path class="b" d="M226.35224,140.53991h-1.58789l-.63134-1.64258h-2.88965l-.59717,1.64258h-1.54834l2.81592-7.22949h1.54346Zm-2.6875-2.86035-.99658-2.68262-.97607,2.68262Z"/><path class="b" d="M209.97263,148.89721h2.89063a8.32441,8.32441,0,0,1,1.27929.07129,1.88378,1.88378,0,0,1,.75391.29785,1.8397,1.8397,0,0,1,.55469.60449,1.633,1.633,0,0,1,.22265.84571,1.71182,1.71182,0,0,1-1.01562,1.56836,1.9002,1.9002,0,0,1,1.01562.65625,1.74173,1.74173,0,0,1,.35547,1.08984,2.13215,2.13215,0,0,1-.23047.959,1.941,1.941,0,0,1-.625.74512,2.08029,2.08029,0,0,1-.98046.34277c-.24219.02539-.83008.042-1.75977.04883h-2.46094Zm1.459,1.20312v1.67188h.957c.56836,0,.92187-.00879,1.06054-.02441a.96645.96645,0,0,0,.58985-.25977.76422.76422,0,0,0,.21484-.56445.79444.79444,0,0,0-.18554-.54492.83609.83609,0,0,0-.55079-.25391q-.2168-.0249-1.24609-.02442Zm0,2.875v1.9336h1.35156a6.49431,6.49431,0,0,0,1.002-.04492.90414.90414,0,0,0,.5293-.28809.88766.88766,0,0,0,.20508-.61426.94345.94345,0,0,0-.15821-.55273.89458.89458,0,0,0-.45507-.33008,4.95132,4.95132,0,0,0-1.29493-.10352Z"/></svg>