<?xml version="1.0" encoding="UTF-8"?><svg id="b" xmlns="http://www.w3.org/2000/svg" width="50" height="50" viewBox="0 0 50 50"><defs><style>.d{fill:#00a857;}</style></defs><path class="d" d="M32.67117,24.65705c-1.3442-.5077-2.24318-1.68425-2.46386-3.00891l-9.76194,8.26996c1.68277.59168,2.98716,1.99327,3.44116,3.73557l10.3271-8.74867c-.05574.00238-.11157.00394-.16764.00394-.46974-.00002-.93558-.08536-1.37482-.25188h0ZM22.94995,33.88928c-.49834-1.90461-2.23054-3.31005-4.29138-3.31005-2.44982,0-4.43579,1.98597-4.43579,4.43587,0,.08111.00246.16157.00673.24162-.00394.04433-.00673.089-.00673.13439v3.11113c.26838-.07085.5448-.10669.82238-.10665h20.22721c.28414,0,.55967.03735.82238.10665v-1.71446c0-1.60076-1.29765-2.89849-2.89841-2.89849h-10.2464ZM35.27238,39.06675H15.04517c-1.41045,0-2.55376,1.14339-2.55376,2.55384v3.72383h25.33473v-3.72383c0-1.41045-1.14339-2.55384-2.55376-2.55384h0ZM42.99975,16.89076l-2.83084-1.06909-1.9583-.73946-4.69752-1.77399-.62789-.2371-13.45851-5.0824c.08487.13253.15997.27107.2247.41452.35286.781.38045,1.65265.07767,2.45442-.34695.91868-1.0979,1.61381-2.00247,1.91347l13.36582,5.04742.62789.2371-.68774,1.82136c-.62863,1.66455.21116,3.52351,1.87579,4.15214.36349.13771.74894.20839,1.13764.20861,1.30167,0,2.52732-.79455,3.01442-2.0844l.26083-.69053.62789.2371-.02249.05944.0555-.04696,2.79784,1.05653c.67493.25483,1.42868-.08563,1.68352-.76056l1.29683-3.4341c.25492-.67493-.08563-1.42868-.76056-1.68351h0ZM19.10117,10.62057c.49505-1.31095-.16641-2.7751-1.47736-3.27015l-4.36625-1.64879c-.28626-.10849-.58982-.16418-.89594-.16436-1.02525,0-1.99048.62576-2.37413,1.64164-.49505,1.31095.16633,2.77501,1.47728,3.27007l4.36625,1.64887c.28629.10847.58987.16413.89602.16428,1.02517,0,1.99048-.62576,2.37413-1.64156ZM13.2665,16.39555l1.12171-2.97041c.20188-.53446-.06781-1.1314-.60228-1.33328l-2.81188-1.06178c-.53446-.2018-1.13132.0679-1.33328.60236l-1.12171,2.97041c-.40368,1.06901.13563,2.2628,1.20463,2.66648l.87632.33094c1.06892.40368,2.2628-.13563,2.66648-1.20463v-.00008Z"/></svg>