<?xml version="1.0" encoding="UTF-8"?><svg id="b" xmlns="http://www.w3.org/2000/svg" width="50" height="50" viewBox="0 0 50 50"><defs><style>.d{fill:none;stroke:#0067fb;stroke-linecap:round;stroke-linejoin:round;stroke-width:2px;}.e{fill:#0067fb;}</style></defs><line class="d" x1="2.52365" y1="27.6204" x2="8.88749" y2="27.6204"/><line class="d" x1="8.88749" y1="22.00525" x2="4.52365" y2="22.00525"/><path class="e" d="M41.78314,37.15875h-1.02039c.60773-.23621,1.03998-.82318,1.03998-1.51422,0-.89893-.72852-1.62793-1.62793-1.62793h-13.94177V15.9834h13.94177c.89941,0,1.62793-.729,1.62793-1.62793,0-.6911-.43231-1.27814-1.04016-1.51428h.70959c.68701,0,1.24402-.55695,1.24402-1.24396v-2.17706c0-.68701-.55701-1.24402-1.24402-1.24402h-8.08606c-.68707,0-1.24402.55701-1.24402,1.24402v2.17706c0,.505.30383.93542.73621,1.13031h-6.65369c.00049-.01471.00842-.02698.00842-.04181v-.45294c0-.55255-.36646-1.00531-.86499-1.16748v-1.60046c0-.68701-.55695-1.24402-1.24402-1.24402h-.04346c-.16217-.49854-.61493-.86493-1.16748-.86493h-1.66388c-.55261,0-1.00531.36639-1.16748.86493h-1.19104c-.16217-.49854-.61487-.86493-1.16748-.86493h-1.66388c-.55255,0-1.00531.36639-1.16748.86493h-.04346c-.68707,0-1.24402.55701-1.24402,1.24402v1.53058c-.67084.01855-1.211.56207-1.211,1.23737v.45294c0,.68701.55701,1.24402,1.24402,1.24402h1.23181c-.51306.41791-.84747,1.04675-.84747,1.76001v2.62152h-1.19226c-.71924,0-1.30231.58307-1.30231,1.30231v11.36737c0,.71924.58307,1.30231,1.30231,1.30231h1.19226v2.02692c0,.71332.33447,1.34216.8476,1.76007h-.9209c-.68707,0-1.24402.55701-1.24402,1.24402v.45294c0,.67529.5401,1.21881,1.21094,1.23737v1.53052c0,.68707.55695,1.24402,1.24402,1.24402h.04352c.16217.49854.61487.86499,1.16748.86499h1.66382c.55261,0,1.00531-.36646,1.16748-.86499h1.19104c.16217.49854.61493.86499,1.16748.86499h1.66388c.55261,0,1.00531-.36646,1.16748-.86499h.04352c.68701,0,1.24396-.55695,1.24396-1.24402v-1.6004c.49854-.16217.86499-.61493.86499-1.16748v-.45294c0-.01483-.00793-.0271-.00842-.04181h6.65369c-.43231.19489-.73621.62531-.73621,1.13031v2.17706c0,.68701.55701,1.24402,1.24402,1.24402h8.08606c.68707,0,1.24402-.55701,1.24402-1.24402v-2.17706c0-.68701-.55695-1.24402-1.24402-1.24402ZM24.44672,40.84131c-.0564-.63489-.57312-1.13812-1.22266-1.13812h-1.66388c-.65112,0-1.16968.5058-1.22363,1.14294l-1.07874-.00006c-.05396-.63715-.57245-1.14288-1.22363-1.14288h-1.66382c-.64948,0-1.16614.50323-1.2226,1.13806-.16522-.00708-.29944-.13916-.29944-.30615v-1.52386h.76392c.68707,0,1.24402-.55701,1.24402-1.24402v-.24493h.69202v.24493c0,.68701.55695,1.24402,1.24402,1.24402h1.66382c.68707,0,1.24402-.55701,1.24402-1.24402v-.24493h.69202v.24493c0,.68701.55695,1.24402,1.24402,1.24402h1.10986v1.52386c0,.16699-.13409.29907-.29932.30621ZM19.01385,32.28326c.71924,0,1.30231-.58307,1.30231-1.30231v-11.36737c0-.71924-.58307-1.30231-1.30231-1.30231h-2.06189v-1.97034h6.35083v17.31805h-6.35083v-1.37573h2.06189ZM14.47919,26.48358c-.17981,0-.32556-.14575-.32556-.32556v-4.01471c0-.17981.14575-.32556.32556-.32556h2.88495c.17981,0,.32562.14575.32562.32556v4.01471c0,.17981-.14581.32556-.32562.32556h-2.88495ZM14.83667,9.15869c.0564.63483.57324,1.13812,1.22266,1.13812h1.66388c.65125,0,1.16968-.50574,1.22363-1.14294h1.07874c.05396.63721.57239,1.14294,1.22363,1.14294h1.66388c.64941,0,1.16626-.5033,1.22266-1.13812.16522.00714.29932.13928.29932.30615v1.52393h-1.10992c-.68701,0-1.24402.55701-1.24402,1.24402v.24493h-.69196v-.24493c0-.68701-.55695-1.24402-1.24402-1.24402h-1.66388c-.68701,0-1.24402.55701-1.24402,1.24402v.24493h-.69196v-.24493c0-.68701-.55695-1.24402-1.24402-1.24402h-.76392v-1.52393c0-.16687.13409-.29901.29932-.30615ZM16.28516,13.41071h.01562c-.00574,0-.01099.00165-.01672.00171.00043-.00055.00067-.00116.0011-.00171Z"/></svg>