<?xml version="1.0" encoding="UTF-8"?><svg id="b" xmlns="http://www.w3.org/2000/svg" width="50" height="50" viewBox="0 0 50 50"><defs><style>.c{fill:#9fbcbb;}.d{fill:#fff;}.e{fill:#626668;}.f{fill:#575e75;}.g{fill:#1a1a1a;}.h{fill:#d7282f;}.i{fill:#2e2e2e;}</style></defs><path class="f" d="M43.51001,12.33575v25.49847c0,1.17999-.96002,2.14001-2.14001,2.14001H8.63c-1.17999,0-2.14001-.96002-2.14001-2.14001V12.27997c0-1.17999.96002-2.13995,2.14001-2.13995h32.73999c1.17999,0,2.14001.95996,2.14001,2.13995v.05579Z"/><path class="g" d="M41.37,37.20001H8.63c-1.17999,0-2.14001-.96002-2.14001-2.14001v2.77423c0,1.17999.96002,2.14001,2.14001,2.14001h32.73999c1.17999,0,2.14001-.96002,2.14001-2.14001v-2.77423c0,1.17999-.96002,2.14001-2.14001,2.14001Z"/><path class="i" d="M41.37,10.14001H8.63c-1.17999,0-2.14001.95996-2.14001,2.13995v22.78003c0,1.17999.96002,2.14001,2.14001,2.14001h32.73999c1.17999,0,2.14001-.96002,2.14001-2.14001V12.27997c0-1.17999-.96002-2.13995-2.14001-2.13995ZM14.00415,11.54303c0-.17944.14954-.32892.32898-.32892h1.91376c.17944,0,.32898.14948.32898.32892v1.91382c0,.17938-.14954.32892-.32898.32892h-1.91376c-.17944,0-.32898-.14954-.32898-.32892v-1.91382ZM17.84039,11.54303c0-.17944.1496-.32892.32898-.32892h1.91382c.17944,0,.32892.14948.32892.32892v1.91382c0,.17938-.14948.32892-.32892.32892h-1.91382c-.17938,0-.32898-.14954-.32898-.32892v-1.91382ZM21.6767,11.54303c0-.17944.14954-.32892.32892-.32892h1.91382c.17944,0,.32892.14948.32892.32892v1.91382c0,.17938-.14948.32892-.32892.32892h-1.91382c-.17938,0-.32892-.14954-.32892-.32892v-1.91382ZM25.51294,11.54303c0-.17944.14954-.32892.32892-.32892h1.91382c.17944,0,.32892.14948.32892.32892v1.91382c0,.17938-.14948.32892-.32892.32892h-1.91382c-.17938,0-.32892-.14954-.32892-.32892v-1.91382ZM29.34918,11.54303c0-.17944.14954-.32892.32892-.32892h1.91382c.17944,0,.32892.14948.32892.32892v1.91382c0,.17938-.14948.32892-.32892.32892h-1.91382c-.17938,0-.32892-.14954-.32892-.32892v-1.91382ZM16.57587,35.74188c0,.17938-.14954.32892-.32898.32892h-1.91376c-.17944,0-.32898-.14954-.32898-.32892v-1.91382c0-.17944.14954-.32892.32898-.32892h1.91376c.17944,0,.32898.14948.32898.32892v1.91382ZM20.41211,35.74188c0,.17938-.14948.32892-.32892.32892h-1.91382c-.17938,0-.32898-.14954-.32898-.32892v-1.91382c0-.17944.1496-.32892.32898-.32892h1.91382c.17944,0,.32892.14948.32892.32892v1.91382ZM24.24835,35.74188c0,.17938-.14948.32892-.32892.32892h-1.91382c-.17938,0-.32892-.14954-.32892-.32892v-1.91382c0-.17944.14954-.32892.32892-.32892h1.91382c.17944,0,.32892.14948.32892.32892v1.91382ZM28.08459,35.74188c0,.17938-.14948.32892-.32892.32892h-1.91382c-.17938,0-.32892-.14954-.32892-.32892v-1.91382c0-.17944.14954-.32892.32892-.32892h1.91382c.17944,0,.32892.14948.32892.32892v1.91382ZM31.92084,35.74188c0,.17938-.14948.32892-.32892.32892h-1.91382c-.17938,0-.32892-.14954-.32892-.32892v-1.91382c0-.17944.14954-.32892.32892-.32892h1.91382c.17944,0,.32892.14948.32892.32892v1.91382ZM40.08319,35.73431h-5.48639c-.52472,0-.94934-.42505-.94934-.94934,0-.52423.42462-.94928.94934-.94928h5.48639c.52472,0,.94928.42505.94928.94928,0,.52429-.42456.94934-.94928.94934ZM42.47205,31.7002c0,.55225-.44769,1-1,1H8.52795c-.55231,0-1-.44775-1-1V15.63965c0-.55231.44769-1,1-1h32.94409c.55231,0,1,.44769,1,1v16.06055Z"/><path class="e" d="M41.47205,14.63965H8.52795c-.55231,0-1,.44769-1,1v16.06055c0,.55225.44769,1,1,1h32.94409c.55231,0,1-.44775,1-1V15.63965c0-.55231-.44769-1-1-1ZM34.83209,20.65979l1.59802-1.58826c.10791-.10779.28436-.10779.39221,0l1.59808,1.58826c.10785.11768.10785.29413,0,.40204l-1.59808,1.58826c-.10785.10779-.2843.10779-.39221,0l-1.59802-1.58826c-.10785-.10791-.10785-.28436,0-.40204ZM11.86798,31.10999h-3.34003v-1.03003h3.34003v1.03003ZM11.86798,29.17999h-3.34003v-1.03998h3.34003v1.03998ZM11.86798,27.25h-3.34003v-1.04004h3.34003v1.04004ZM11.86798,25.31h-3.34003v-1.03003h3.34003v1.03003ZM11.86798,23.38h-3.34003v-1.04004h3.34003v1.04004ZM11.86798,21.44h-3.34003v-1.03003h3.34003v1.03003ZM11.86798,19.51001h-3.34003v-1.04004h3.34003v1.04004ZM11.86798,17.57996h-3.34003v-1.03998h3.34003v1.03998ZM31.08002,20.85382v8.37616c0,.55225-.44769,1-1,1h-14.98004c-.55231,0-1-.44775-1-1v-11.17004c0-.55225.44769-1,1-1h14.98004c.55231,0,1,.44775,1,1v2.79388ZM31.82715,28.23047c0,.06934-.05566.125-.125.125s-.125-.05566-.125-.125v-2.55957c0-.06934.05566-.125.125-.125s.125.05566.125.125v2.55957ZM31.82715,21.61914c0,.06934-.05566.125-.125.125s-.125-.05566-.125-.125v-2.55957c0-.06934.05566-.125.125-.125s.125.05566.125.125v2.55957ZM33.63599,25.44421l-1.59808-1.59808c-.10779-.10785-.10779-.2843,0-.39209l1.59808-1.59808c.10785-.10791.2843-.10791.40198,0l1.58826,1.59808c.10785.10779.10785.28424,0,.39209l-1.58826,1.59808c-.11768.10785-.29413.10785-.40198,0ZM38.42041,26.64032l-1.59808,1.59802c-.10785.10791-.2843.10791-.39221,0l-1.59802-1.59802c-.10785-.10785-.10785-.2843,0-.39215l1.59802-1.59808c.10791-.10785.28436-.10785.39221,0l1.59808,1.59808c.10785.10785.10785.2843,0,.39215ZM41.38953,23.84998l-1.62,1.63c-.12.10999-.29999.10999-.40997,0l-1.62-1.63c-.12-.10999-.12-.28998,0-.39996l1.62-1.63c.10999-.11005.28998-.11005.40997,0l1.62,1.63c.11005.10999.11005.28998,0,.39996Z"/><rect class="i" x="8.52795" y="28.14001" width="3.34003" height="1.03998"/><rect class="i" x="8.52795" y="24.27997" width="3.34003" height="1.03003"/><rect class="i" x="8.52795" y="26.20996" width="3.34003" height="1.04004"/><rect class="i" x="8.52795" y="30.07996" width="3.34003" height="1.03003"/><rect class="i" x="8.52795" y="18.46997" width="3.34003" height="1.04004"/><rect class="i" x="8.52795" y="16.53998" width="3.34003" height="1.03998"/><rect class="i" x="8.52795" y="22.33997" width="3.34003" height="1.04004"/><rect class="i" x="8.52795" y="20.40997" width="3.34003" height="1.03003"/><path class="i" d="M35.62622,23.45404l-1.58826-1.59808c-.11768-.10791-.29413-.10791-.40198,0l-1.59808,1.59808c-.10779.10779-.10779.28424,0,.39209l1.59808,1.59808c.10785.10785.2843.10785.40198,0l1.58826-1.59808c.10785-.10785.10785-.2843,0-.39209ZM33.83203,24.24365c-.32788,0-.59357-.26581-.59357-.59363s.26569-.59357.59357-.59357.59363.26575.59363.59357-.26575.59363-.59363.59363Z"/><path class="i" d="M36.82233,24.65009c-.10785-.10785-.2843-.10785-.39221,0l-1.59802,1.59808c-.10785.10785-.10785.2843,0,.39215l1.59802,1.59802c.10791.10791.28436.10791.39221,0l1.59808-1.59802c.10785-.10785.10785-.2843,0-.39215l-1.59808-1.59808ZM36.62622,27.03784c-.32788,0-.59357-.26581-.59357-.59363s.26569-.59357.59357-.59357.59363.26575.59363.59357-.26575.59363-.59363.59363Z"/><path class="i" d="M39.76953,21.82001c-.12-.11005-.29999-.11005-.40997,0l-1.62,1.63c-.12.10999-.12.28998,0,.39996l1.62,1.63c.10999.10999.28998.10999.40997,0l1.62-1.63c.11005-.10999.11005-.28998,0-.39996l-1.62-1.63ZM39.56079,24.25543c-.33447,0-.60547-.27112-.60547-.60553,0-.33435.271-.60541.60547-.60541.33441,0,.60547.27106.60547.60541,0,.33441-.27106.60553-.60547.60553Z"/><path class="i" d="M36.43011,22.65009c.10791.10779.28436.10779.39221,0l1.59808-1.58826c.10785-.10791.10785-.28436,0-.40204l-1.59808-1.58826c-.10785-.10779-.2843-.10779-.39221,0l-1.59802,1.58826c-.10785.11768-.10785.29413,0,.40204l1.59802,1.58826ZM36.62622,20.26721c.32788,0,.59363.26575.59363.59357s-.26575.59363-.59363.59363-.59357-.26581-.59357-.59363.26569-.59357.59357-.59357Z"/><path class="d" d="M33.83203,23.05646c-.32788,0-.59357.26575-.59357.59357s.26569.59363.59357.59363.59363-.26581.59363-.59363-.26575-.59357-.59363-.59357Z"/><path class="d" d="M36.62622,21.45441c.32788,0,.59363-.26581.59363-.59363s-.26575-.59357-.59363-.59357-.59357.26575-.59357.59357.26569.59363.59357.59363Z"/><path class="d" d="M39.56079,23.04449c-.33447,0-.60547.27106-.60547.60541,0,.33441.271.60553.60547.60553.33441,0,.60547-.27112.60547-.60553,0-.33435-.27106-.60541-.60547-.60541Z"/><path class="d" d="M36.62622,25.85065c-.32788,0-.59357.26575-.59357.59357s.26569.59363.59357.59363.59363-.26581.59363-.59363-.26575-.59357-.59363-.59357Z"/><rect x="29.34918" y="33.49915" width="2.57166" height="2.57166" rx=".32892" ry=".32892"/><rect x="25.51294" y="33.49915" width="2.57166" height="2.57166" rx=".32892" ry=".32892"/><rect x="17.84039" y="33.49915" width="2.57172" height="2.57166" rx=".32892" ry=".32892"/><rect x="21.6767" y="33.49915" width="2.57166" height="2.57166" rx=".32892" ry=".32892"/><rect x="14.00415" y="33.49915" width="2.57172" height="2.57166" rx=".32892" ry=".32892"/><rect x="17.84039" y="11.21411" width="2.57172" height="2.57166" rx=".32892" ry=".32892"/><rect x="21.6767" y="11.21411" width="2.57166" height="2.57166" rx=".32892" ry=".32892"/><rect x="29.34918" y="11.21411" width="2.57166" height="2.57166" rx=".32892" ry=".32892"/><rect x="25.51294" y="11.21411" width="2.57166" height="2.57166" rx=".32892" ry=".32892"/><rect x="14.00415" y="11.21411" width="2.57172" height="2.57166" rx=".32892" ry=".32892"/><path class="h" d="M40.08319,33.83569h-5.48639c-.52472,0-.94934.42505-.94934.94928,0,.52429.42462.94934.94934.94934h5.48639c.52472,0,.94928-.42505.94928-.94934,0-.52423-.42456-.94928-.94928-.94928Z"/><path class="i" d="M31.70215,18.93457c-.06934,0-.125.05566-.125.125v2.55957c0,.06934.05566.125.125.125s.125-.05566.125-.125v-2.55957c0-.06934-.05566-.125-.125-.125Z"/><path class="i" d="M31.70215,25.5459c-.06934,0-.125.05566-.125.125v2.55957c0,.06934.05566.125.125.125s.125-.05566.125-.125v-2.55957c0-.06934-.05566-.125-.125-.125Z"/><path class="c" d="M25.18964,20.85382c0-.38104-.31006-.6911-.6911-.6911h-3.81708c-.38104,0-.6911.31006-.6911.6911v6.16003h5.19928v-6.16003Z"/><path class="c" d="M30.08002,17.05994h-14.98004c-.55231,0-1,.44775-1,1v2.79388c0-.50891.41254-.92145.92151-.92145h3.81702c.50891,0,.92151.41254.92151.92145,0-.50891.41254-.92145.92145-.92145h3.81708c.50891,0,.92145.41254.92145.92145,0-.50891.4126-.92145.92151-.92145h3.81702c.50897,0,.92151.41254.92151.92145v-2.79388c0-.55225-.44769-1-1-1ZM18.27832,19.32715h-3.67383c-.12695,0-.23047-.10352-.23047-.23047s.10352-.23047.23047-.23047h3.67383c.12695,0,.23047.10352.23047.23047s-.10352.23047-.23047.23047ZM28.5625,18.11035h-1.30566c-.12695,0-.23047-.10352-.23047-.23047s.10352-.23047.23047-.23047h1.30566c.12695,0,.23047.10352.23047.23047s-.10352.23047-.23047.23047ZM30.5752,18.11035h-1.30566c-.12695,0-.23047-.10352-.23047-.23047s.10352-.23047.23047-.23047h1.30566c.12695,0,.23047.10352.23047.23047s-.10352.23047-.23047.23047Z"/><path class="c" d="M30.15851,20.16272h-3.81702c-.3811,0-.6911.31006-.6911.6911v6.16003h5.19928v-6.16003c0-.38104-.31006-.6911-.69116-.6911Z"/><path class="i" d="M30.15851,19.93237h-3.81702c-.50891,0-.92151.41254-.92151.92145,0-.50891-.41254-.92145-.92145-.92145h-3.81708c-.50891,0-.92145.41254-.92145.92145,0-.50891-.4126-.92145-.92151-.92145h-3.81702c-.50897,0-.92151.41254-.92151.92145v8.37616c0,.55225.44769,1,1,1h14.98004c.55231,0,1-.44775,1-1v-8.37616c0-.50891-.41254-.92145-.92151-.92145ZM19.99036,20.85382c0-.38104.31006-.6911.6911-.6911h3.81708c.38104,0,.6911.31006.6911.6911v6.16003h-5.19928v-6.16003ZM15.58203,22.89648h2.69629c.38184,0,.69141.30957.69141.69141s-.30957.69141-.69141.69141h-2.69629c-.38184,0-.69141-.30957-.69141-.69141s.30957-.69141.69141-.69141ZM24.21387,28.96777h-3.24512c-.12695,0-.23047-.10352-.23047-.23047s.10352-.23047.23047-.23047h3.24512c.12695,0,.23047.10352.23047.23047s-.10352.23047-.23047.23047ZM30.84967,27.01385h-5.19928v-6.16003c0-.38104.31-.6911.6911-.6911h3.81702c.3811,0,.69116.31006.69116.6911v6.16003Z"/><path class="h" d="M15.58203,24.2793h2.69629c.38184,0,.69141-.30957.69141-.69141s-.30957-.69141-.69141-.69141h-2.69629c-.38184,0-.69141.30957-.69141.69141s.30957.69141.69141.69141Z"/><path class="i" d="M18.27832,18.86621h-3.67383c-.12695,0-.23047.10352-.23047.23047s.10352.23047.23047.23047h3.67383c.12695,0,.23047-.10352.23047-.23047s-.10352-.23047-.23047-.23047Z"/><path class="i" d="M30.5752,17.64941h-1.30566c-.12695,0-.23047.10352-.23047.23047s.10352.23047.23047.23047h1.30566c.12695,0,.23047-.10352.23047-.23047s-.10352-.23047-.23047-.23047Z"/><path class="i" d="M28.5625,17.64941h-1.30566c-.12695,0-.23047.10352-.23047.23047s.10352.23047.23047.23047h1.30566c.12695,0,.23047-.10352.23047-.23047s-.10352-.23047-.23047-.23047Z"/><path class="d" d="M24.21387,28.50684h-3.24512c-.12695,0-.23047.10352-.23047.23047s.10352.23047.23047.23047h3.24512c.12695,0,.23047-.10352.23047-.23047s-.10352-.23047-.23047-.23047Z"/></svg>