<?xml version="1.0" encoding="UTF-8"?><svg id="b" xmlns="http://www.w3.org/2000/svg" width="50" height="50" viewBox="0 0 50 50"><defs><style>.c{fill:#fc0;}.d{fill:#80878d;}.e{fill:#aa182c;}.f{fill:#00943c;}.g{fill:#53575a;}.h{fill:#d7282f;}</style></defs><path class="g" d="M25.00049,40.23203c-10.01074,0-18.91699-3.91211-18.91699-6.99512v6.27148c0,3.08301,8.90625,6.99512,18.91699,6.99512,10.00977,0,18.91602-3.91211,18.91602-6.99512v-6.27148c0,3.08301-8.90625,6.99512-18.91602,6.99512Z"/><path class="d" d="M25.00049,40.23203c10.00977,0,18.91602-3.91211,18.91602-6.99512,0-1.23364-1.33746-2.25635-3.48438-3.05603v1.27087c0,3.33301-7.95117,5.13086-15.43164,5.13086-7.48145,0-15.43262-1.79785-15.43262-5.13086v-1.27087c-2.14697.79968-3.48438,1.82239-3.48438,3.05603,0,3.08301,8.90625,6.99512,18.91699,6.99512Z"/><path class="f" d="M10.56787,31.45175c0,1.9541,5.92773,4.13086,14.43262,4.13086s14.43164-2.17676,14.43164-4.13086v-5.23468c-2.35181,2.10919-8.52979,3.23273-14.43164,3.23273-5.90265,0-12.08081-1.12354-14.43262-3.23273v5.23468Z"/><path class="g" d="M9.56787,31.45175c0,3.33301,7.95117,5.13086,15.43262,5.13086,7.48047,0,15.43164-1.79785,15.43164-5.13086V10.96054c0-.04883-.00684-.09668-.02051-.14258l-1.13477-3.80469c-.02716-.09076-.08765-.16101-.15485-.22119.02356.12054.05035.24078.05035.36377,0,2.80664-6.22461,5.00586-14.17188,5.00586s-14.17285-2.19922-14.17285-5.00586c0-.12299.02679-.24323.05035-.36377-.0672.06018-.12769.13043-.15485.22119l-1.13477,3.80469c-.01367.0459-.02051.09375-.02051.14258v20.49121ZM10.56787,12.85867c2.35181,2.10919,8.52997,3.23273,14.43262,3.23273,5.90186,0,12.07983-1.12354,14.43164-3.23273v4.32843c0,1.9541-5.92676,4.13086-14.43164,4.13086s-14.43262-2.17676-14.43262-4.13086v-4.32843ZM10.56787,19.08524c2.35181,2.10919,8.52997,3.23273,14.43262,3.23273,5.90186,0,12.07983-1.12354,14.43164-3.23273v5.2337c0,1.9541-5.92676,4.13086-14.43164,4.13086s-14.43262-2.17676-14.43262-4.13086v-5.2337ZM10.56787,26.21707c2.35181,2.10919,8.52997,3.23273,14.43262,3.23273,5.90186,0,12.07983-1.12354,14.43164-3.23273v5.23468c0,1.9541-5.92676,4.13086-14.43164,4.13086s-14.43262-2.17676-14.43262-4.13086v-5.23468Z"/><path class="c" d="M25.00049,28.4498c8.50488,0,14.43164-2.17676,14.43164-4.13086v-5.2337c-2.35181,2.10919-8.52979,3.23273-14.43164,3.23273-5.90265,0-12.08081-1.12354-14.43262-3.23273v5.2337c0,1.9541,5.92773,4.13086,14.43262,4.13086Z"/><path class="e" d="M10.56787,17.1871c0,1.9541,5.92773,4.13086,14.43262,4.13086s14.43164-2.17676,14.43164-4.13086v-4.32843c-2.35181,2.10919-8.52979,3.23273-14.43164,3.23273-5.90265,0-12.08081-1.12354-14.43262-3.23273v4.32843Z"/><path class="h" d="M25.00049,12.16171c7.94727,0,14.17188-2.19922,14.17188-5.00586,0-.12299-.02679-.24323-.05035-.36377-.51337-2.62982-6.52252-4.64209-14.12152-4.64209s-13.60907,2.01227-14.1225,4.64209c-.02356.12054-.05035.24078-.05035.36377,0,2.80664,6.22559,5.00586,14.17285,5.00586Z"/></svg>