<svg width="75" height="60" viewBox="0 0 75 60" xmlns="http://www.w3.org/2000/svg">
  <path fill="#2ca3fc" d="M67.60494,13.7731v32.4541c0,1.92969-1.57031,3.5-3.5,3.5H10.89498c-1.92969,0-3.5-1.57031-3.5-3.5V13.7731c0-1.92969,1.57031-3.5,3.5-3.5h14.31689v18.99982c0,2.76147,2.23859,5,5,5h14.57617c2.76141,0,5-2.23853,5-5V10.2731h14.31689c1.92969,0,3.5,1.57031,3.5,3.5ZM75.00002,11.49997v37c0,4.41827-3.58173,8-8,8H8.00002C3.58174,56.49997.00002,52.91824.00002,48.49997V11.49997C.00002,7.08169,3.58174,3.49997,8.00002,3.49997h59c4.41827,0,8,3.58173,8,8ZM70.60494,13.7731c0-3.58398-2.91602-6.5-6.5-6.5H10.89498c-3.58398,0-6.5,2.91602-6.5,6.5v32.4541c0,3.58398,2.91602,6.5,6.5,6.5h53.20996c3.58398,0,6.5-2.91602,6.5-6.5V13.7731ZM30.45033,23.56918c0,3.82721,3.10254,6.92975,6.92975,6.92975s6.92975-3.10254,6.92975-6.92975-3.10254-6.92969-6.92975-6.92969-6.92975,3.10254-6.92975,6.92969Z"/>
</svg>
