<?xml version="1.0" encoding="utf-8"?>
<!-- Generator: Adobe Illustrator 28.0.0, SVG Export Plug-In . SVG Version: 6.00 Build 0)  -->
<svg version="1.1" id="Layer_1" xmlns="http://www.w3.org/2000/svg" xmlns:xlink="http://www.w3.org/1999/xlink" x="0px" y="0px"
	 viewBox="0 0 32 32" style="enable-background:new 0 0 32 32;" xml:space="preserve">
<style type="text/css">
	.st0{fill:#FFFFFF;}
</style>
<path class="st0" d="M28,0H4C1.8,0,0,1.8,0,4v24c0,2.2,1.8,4,4,4h24c2.2,0,4-1.8,4-4V4C32,1.8,30.2,0,28,0z M4.8,3.3
	c0.3-0.7,0.9-1.1,1.6-1.1c0.2,0,0.4,0,0.6,0.1l3,1.1c0.9,0.3,1.4,1.4,1,2.3c-0.3,0.7-0.9,1.1-1.6,1.1c-0.2,0-0.4,0-0.6-0.1l-3-1.1
	C4.9,5.2,4.4,4.2,4.8,3.3z M13.8,21.9h7.1c1.1,0,2,0.9,2,2v1.2c-0.2,0-0.4-0.1-0.6-0.1H8.3c-0.2,0-0.4,0-0.6,0.1v-2.2
	c0,0,0-0.1,0-0.1c0-0.1,0-0.1,0-0.2c0-1.7,1.4-3.1,3.1-3.1C12.3,19.6,13.5,20.5,13.8,21.9z M12.1,19.1l6.8-5.7
	c0.2,0.9,0.8,1.7,1.7,2.1c0.3,0.1,0.6,0.2,1,0.2c0,0,0.1,0,0.1,0l-7.2,6.1C14.1,20.5,13.2,19.5,12.1,19.1z M5.2,10.6l-0.6-0.2
	C3.9,10,3.5,9.2,3.8,8.5l0.8-2.1C4.7,6,5.1,5.8,5.5,6l2,0.7C7.8,6.9,8,7.3,7.9,7.7L7.1,9.7C6.8,10.5,6,10.8,5.2,10.6z M24.1,29.8
	H6.5v-2.6c0-1,0.8-1.8,1.8-1.8h14.1c1,0,1.8,0.8,1.8,1.8V29.8z M28.3,11.2l-0.9,2.4c-0.2,0.5-0.7,0.7-1.2,0.5l-1.9-0.7l0,0l0,0
	l-0.4-0.2l-0.2,0.5c-0.3,0.9-1.2,1.4-2.1,1.4c-0.3,0-0.5,0-0.8-0.1c-1.2-0.4-1.7-1.7-1.3-2.9l0.5-1.3l-0.4-0.2l-9.3-3.5
	c0.6-0.2,1.2-0.7,1.4-1.3c0.2-0.6,0.2-1.2-0.1-1.7c0-0.1-0.1-0.2-0.2-0.3l9.4,3.5l0.4,0.2l3.3,1.2l1.4,0.5l2,0.7
	C28.2,10.2,28.4,10.8,28.3,11.2z"/>
</svg>
