<svg id="Layer_1" data-name="Layer 1" xmlns="http://www.w3.org/2000/svg" width="84" height="84" viewBox="0 0 84 84"><defs><style>.cls-1{fill:#2f76de;}.cls-2{fill:#ff654c;}</style></defs><title>Stop_Icon</title><path class="cls-1" d="M80.8,22.1,62,3.3A9.9,9.9,0,0,0,55.1.5H28.6a9.8,9.8,0,0,0-6.9,2.8L2.9,22.1A9.8,9.8,0,0,0,.1,29V55.5a9.8,9.8,0,0,0,2.8,6.9L21.7,81.2A9.8,9.8,0,0,0,28.6,84H55.1A9.9,9.9,0,0,0,62,81.2L80.8,62.4a9.8,9.8,0,0,0,2.8-6.9V29A9.8,9.8,0,0,0,80.8,22.1Zm-2,33.4A5,5,0,0,1,77.4,59L58.6,77.8a5,5,0,0,1-3.5,1.4H28.6a5,5,0,0,1-3.5-1.4L6.3,59a5.1,5.1,0,0,1-1.5-3.5V29a5.1,5.1,0,0,1,1.5-3.5L25.1,6.7a5,5,0,0,1,3.5-1.4H55.1a5,5,0,0,1,3.5,1.4L77.4,25.5A5,5,0,0,1,78.8,29Z"/><path class="cls-2" d="M58.6,6.7a5,5,0,0,0-3.5-1.4H28.6a5,5,0,0,0-3.5,1.4L6.3,25.5A5.1,5.1,0,0,0,4.8,29V55.5A5.1,5.1,0,0,0,6.3,59L25.1,77.8a5,5,0,0,0,3.5,1.4H55.1a5,5,0,0,0,3.5-1.4L77.4,59a5,5,0,0,0,1.4-3.5V29a5,5,0,0,0-1.4-3.5Z"/></svg>