<svg id="Layer_1" data-name="Layer 1" xmlns="http://www.w3.org/2000/svg" width="84" height="84" viewBox="0 0 84 84"><defs><style>.cls-1{fill:#2f76de;}.cls-2{fill:#ffd91a;}</style></defs><title>Step_Icon</title><path class="cls-1" d="M76.1,35.7h0L39.4,3.4A9.6,9.6,0,0,0,29.1,2a8.2,8.2,0,0,0-3.5,2.9A8.8,8.8,0,0,0,17.8.3H13.9a8.9,8.9,0,0,0-9,8.9V74.8a9,9,0,0,0,9,9h3.9a8.9,8.9,0,0,0,7.8-4.7A8.2,8.2,0,0,0,29.1,82a9.8,9.8,0,0,0,4.1.9,9.5,9.5,0,0,0,6.2-2.3L76.1,48.3a8.1,8.1,0,0,0,0-12.6ZM21.9,74.8A4.1,4.1,0,0,1,17.8,79H13.9a4.2,4.2,0,0,1-4.2-4.2V9.2A4.2,4.2,0,0,1,13.9,5h3.9a4.1,4.1,0,0,1,4.1,4.2ZM73,44.8,36.3,77c-2.8,2.5-7.6.7-7.6-2.7V9.7c0-3.4,4.8-5.2,7.6-2.7L73,39.2A3.7,3.7,0,0,1,73,44.8Z"/><path class="cls-2" d="M36.3,7c-2.8-2.5-7.6-.7-7.6,2.7V74.3c0,3.4,4.8,5.2,7.6,2.7L73,44.8a3.7,3.7,0,0,0,0-5.6Z"/><rect class="cls-2" x="9.7" y="5" width="12.2" height="73.99" rx="4.2"/></svg>