<svg id="Layer_1" data-name="Layer 1" xmlns="http://www.w3.org/2000/svg" width="84" height="84" viewBox="0 0 84 84"><defs><style>.cls-1{fill:#2f76de;}.cls-2{fill:#9ef239;}</style></defs><title>Play_Icon</title><path class="cls-1" d="M67,35.6h0L29.7,2.8A9.7,9.7,0,0,0,19.3,1.3,8.5,8.5,0,0,0,14,9.2V74.8a8.5,8.5,0,0,0,5.3,7.9,9.6,9.6,0,0,0,10.4-1.5L67,48.4a8.3,8.3,0,0,0,0-12.8Zm-3.1,9.2L26.5,77.6c-2.8,2.5-7.7.8-7.7-2.8V9.2c0-3.6,4.9-5.3,7.7-2.8L63.9,39.2A3.7,3.7,0,0,1,63.9,44.8Z"/><path class="cls-2" d="M26.5,6.4c-2.8-2.5-7.7-.8-7.7,2.8V74.8c0,3.6,4.9,5.3,7.7,2.8L63.9,44.8a3.7,3.7,0,0,0,0-5.6Z"/></svg>