<svg id="Layer_1" data-name="Layer 1" xmlns="http://www.w3.org/2000/svg" width="84" height="84" viewBox="0 0 84 84"><defs><style>.cls-1{fill:none;}.cls-2{fill:#ff931e;}.cls-3{fill:#2f76de;}</style></defs><title>blockly_download</title><path class="cls-1" d="M74.7,37.1a4,4,0,0,0-2.2-2.2A4,4,0,0,1,74.7,37.1Z"/><path class="cls-1" d="M50.8,60.7h0l23-19.5a6.5,6.5,0,0,0,1-1.5,6.5,6.5,0,0,1-1,1.5Z"/><path class="cls-1" d="M11.5,34.9a4,4,0,0,0-2.2,2.2A4,4,0,0,1,11.5,34.9Z"/><path class="cls-1" d="M73.3,77.7l-1.2.5Z"/><path class="cls-1" d="M10.2,41.2a6.5,6.5,0,0,1-1-1.5,6.5,6.5,0,0,0,1,1.5l23,19.5h0Z"/><path class="cls-1" d="M71.3,34.7h0l1.2.2Z"/><path class="cls-1" d="M9.2,39.7a3.6,3.6,0,0,1-.2-1A3.6,3.6,0,0,0,9.2,39.7Z"/><path class="cls-1" d="M12.7,34.7l-1.2.2,1.2-.2Z"/><path class="cls-1" d="M71.2,78.3h0Z"/><path class="cls-1" d="M75,38.7a3.6,3.6,0,0,1-.2,1A3.6,3.6,0,0,0,75,38.7Z"/><path class="cls-1" d="M71.2,65Z"/><path class="cls-1" d="M73.9,77.3a4.1,4.1,0,0,0,1-1.3A4.1,4.1,0,0,1,73.9,77.3Z"/><path class="cls-1" d="M12.8,65h0Z"/><path class="cls-1" d="M11.9,78.2l-1.2-.5Z"/><path class="cls-1" d="M9.9,77.1h0Z"/><path class="cls-1" d="M12.8,78.3Z"/><path class="cls-1" d="M9.7,76.9a2.4,2.4,0,0,1-.6-.9A2.4,2.4,0,0,0,9.7,76.9Z"/><path class="cls-2" d="M74.7,66.9a1.8,1.8,0,0,0-.5-.7,6,6,0,0,0-1.3-.9l-.8-.2H52.3l-5,4.2a7.7,7.7,0,0,1-10.6,0l-5-4.2H11.9l-.8.2a4.4,4.4,0,0,0-2.6,3.9V74c0,.3.1.6.1.9A3.7,3.7,0,0,0,9.1,76a2.4,2.4,0,0,0,.6.9h.2l.8.6,1.2.5H72.1l1.2-.5.6-.4a4.1,4.1,0,0,0,1-1.3,3.7,3.7,0,0,0,.5-1.1c0-.3.1-.6.1-.9V69.2A3.6,3.6,0,0,0,74.7,66.9Z"/><path class="cls-3" d="M71.2,60.7H57.4L76.6,44.5h.1a8,8,0,0,0,2-8.8,7.9,7.9,0,0,0-7.4-5.1h-12V8.7a7,7,0,0,0-7-7H31.7a7,7,0,0,0-7,7V30.4h-12a7.9,7.9,0,0,0-7.4,5.1,8,8,0,0,0,2,8.8h.1L26.6,60.7H12.8a8.6,8.6,0,0,0-8.6,8.5V74a8.6,8.6,0,0,0,8.6,8.5H71.2A8.6,8.6,0,0,0,79.8,74V69.2A8.6,8.6,0,0,0,71.2,60.7Zm-61-19.5a6.5,6.5,0,0,1-1-1.5,3.6,3.6,0,0,1-.2-1,4.1,4.1,0,0,1,.3-1.6,4,4,0,0,1,2.2-2.2l1.2-.2H29V8.7A2.7,2.7,0,0,1,31.7,6H52.3A2.7,2.7,0,0,1,55,8.7v26H71.3l1.2.2a4,4,0,0,1,2.2,2.2,4.1,4.1,0,0,1,.3,1.6,3.6,3.6,0,0,1-.2,1,6.5,6.5,0,0,1-1,1.5l-23,19.5h0L45.7,65h0l-1.2,1a2.4,2.4,0,0,1-1.2.7l-.6.2H41.3l-.6-.2a2.4,2.4,0,0,1-1.2-.7l-1.2-1h0l-5.1-4.3h0ZM75.5,74c0,.3-.1.6-.1.9a3.7,3.7,0,0,1-.5,1.1,4.1,4.1,0,0,1-1,1.3l-.6.4-1.2.5H11.9l-1.2-.5-.8-.6H9.7a2.4,2.4,0,0,1-.6-.9,3.7,3.7,0,0,1-.5-1.1c0-.3-.1-.6-.1-.9V69.2a4.4,4.4,0,0,1,2.6-3.9l.8-.2H31.7l5,4.2a7.7,7.7,0,0,0,10.6,0l5-4.2H72.1l.8.2a6,6,0,0,1,1.3.9,1.8,1.8,0,0,1,.5.7,3.6,3.6,0,0,1,.8,2.3Z"/><path class="cls-2" d="M33.2,60.7,38.3,65h0l1.2,1a2.4,2.4,0,0,0,1.2.7l.6.2h1.4l.6-.2a2.4,2.4,0,0,0,1.2-.7l1.2-1h0l5.1-4.3,23-19.5a6.5,6.5,0,0,0,1-1.5,3.6,3.6,0,0,0,.2-1,4.1,4.1,0,0,0-.3-1.6,4,4,0,0,0-2.2-2.2l-1.2-.2H55V8.7A2.7,2.7,0,0,0,52.3,6H31.7A2.7,2.7,0,0,0,29,8.7v26H12.7l-1.2.2a4,4,0,0,0-2.2,2.2A4.1,4.1,0,0,0,9,38.7a3.6,3.6,0,0,0,.2,1,6.5,6.5,0,0,0,1,1.5Z"/></svg>