<svg id="Layer_1" data-name="Layer 1" xmlns="http://www.w3.org/2000/svg" width="500" height="500" viewBox="0 0 500 500"><defs><style>.cls-1{fill:#c1e8ff;opacity:0.71;}.cls-2{fill:#ffebba;}.cls-3{fill:#ffadad;}.cls-4{fill:#f58e8e;}.cls-5{fill:#759bba;}.cls-6{fill:#ffa969;}.cls-7{fill:#ffd15e;}.cls-8{fill:#517797;}.cls-9{fill:#ff7a7a;}.cls-10{fill:#b6862d;}</style></defs><path class="cls-1" d="M412.44,200.18c-3.15-3.29-8.58-3.55-11.43.23-2.38,3.16-3.16,8.76,0,11.71a7.86,7.86,0,0,0,5.79,2,6.84,6.84,0,0,0,4.77-1.54C415.06,209.57,415.73,203.61,412.44,200.18Z"/><path class="cls-1" d="M386.1,195.06a6.21,6.21,0,0,0-4.32-3.84c-3.51-.92-5.92,1.63-7,4.67-1.22,3.39.37,7,4.25,7.08a2.63,2.63,0,0,0,1.23-.23,6.81,6.81,0,0,0,4.64-2.45A5.81,5.81,0,0,0,386.1,195.06Z"/><path class="cls-1" d="M403,176.4a4.89,4.89,0,0,0-3.51-1.06c-4.79.25-6.78,7-1.54,8.41a5.09,5.09,0,0,0,5.52-2.44,4.14,4.14,0,0,0-.14-4.57A2.65,2.65,0,0,0,403,176.4Z"/><path class="cls-1" d="M425.17,182.93a3.59,3.59,0,0,0-4.37-1.53,3.4,3.4,0,0,0-2.09,3,4.78,4.78,0,0,0-.56,2.28,3.4,3.4,0,0,0,2.57,3.23,4.05,4.05,0,0,0,3.76-1.15A5,5,0,0,0,425.17,182.93Z"/><path class="cls-1" d="M417.18,152.63a5.15,5.15,0,0,0-2-1c-2.65-.68-4.62,1.19-5.59,3.44a.93.93,0,0,0-.05.1.54.54,0,0,0,0,.1l-.09.22c-.69,1.88-1,4.78.16,6.54a4.33,4.33,0,0,0,1.51,1.44l.18.15a5.27,5.27,0,0,0,6.27-.67,6.8,6.8,0,0,0,2-4.82.36.36,0,0,1,0-.11A5.14,5.14,0,0,0,417.18,152.63Z"/><path class="cls-1" d="M393.38,150.42a3.85,3.85,0,0,0-3.91-2.65,6.62,6.62,0,0,0-1.61.16,6.51,6.51,0,0,0-1.32.66,3.62,3.62,0,0,0-2.13,3.38,3.51,3.51,0,0,0,1.68,3,3.15,3.15,0,0,0,4.37,1.06,7.32,7.32,0,0,0,1.87-1.73A4.2,4.2,0,0,0,393.38,150.42Z"/><path class="cls-1" d="M403,128.75a3.41,3.41,0,0,0-4.8-.16,4.06,4.06,0,0,0-1.06,1.77,3.64,3.64,0,0,0-.16,1.06,3.24,3.24,0,0,0,1.61,3.64,2.82,2.82,0,0,0,2.81,0,7,7,0,0,0,1.95-2A3.56,3.56,0,0,0,403,128.75Z"/><path class="cls-1" d="M424.07,117.52a4.34,4.34,0,0,0-3-1.36,3.47,3.47,0,0,0-3.27,2.5,5.66,5.66,0,0,0-.19,1.92,3,3,0,0,0,1.79,2.61,3.28,3.28,0,0,0,3.59.23,4.35,4.35,0,0,0,1.88-2.43A3.52,3.52,0,0,0,424.07,117.52Z"/><path class="cls-2" d="M157.36,198.39a1.62,1.62,0,0,0-2.44-.75l0,0a5.06,5.06,0,0,0-2.71,4.25c-.11,3.17-.9,6.32-.81,9.56.15,5.76-4.46,10.78-4.5,16.54-1.33-1.19-1.48-3.24-1.11-5s1.18-3.38,1.44-5.14,0-3.37.29-5c.4-2.33,1.83-4.46,1.72-6.82a3.11,3.11,0,0,0-1.35-2.62,2.87,2.87,0,0,0-3.59,1.11,6.8,6.8,0,0,0-.88,4,16.59,16.59,0,0,1-.19,4.22c-.35,1.39-1.19,2.6-1.58,4-.74,2.66.12,5.9-1.7,8a11.27,11.27,0,0,1-1.14-7.27c.25-2.16.64-4.51.8-6.75.18-2.43-.25-4.82-.09-7.23.23-3.5,1.9-7.18.39-10.35-.6-1.27-2-2.38-3.32-1.91a2.83,2.83,0,0,0-1.59,2.65,21,21,0,0,0,.44,3.24,17.45,17.45,0,0,1-.27,4.94q-1.21,7.69-3.07,15.28a61.57,61.57,0,0,1-4.57,13.33,15.05,15.05,0,0,1,.15-9.83c.71-1.93,1.82-3.72,2.26-5.73s.25-3.91.55-5.86,1.18-3.62,1.5-5.5,0-4.06-1.59-5.16a1.27,1.27,0,0,0-.94-.29,1.54,1.54,0,0,0-.87.74A20.78,20.78,0,0,0,125,209.66c-.11,2.3.16,4.63-.37,6.86-.31,1.29-.86,2.49-1.26,3.75s-.64,2.67-.94,4a32.73,32.73,0,0,1-3.57,9,20.72,20.72,0,0,1,.71-13.33c.83-2,2-4,2.07-6.2.06-2-.79-3.86-.85-5.82-.09-3.45,2.23-6.53,2.67-9.95a4.06,4.06,0,0,0-.45-2.77c-1.2-1.78-2.49-.76-3,.67-.82,2.14-1.55,4.33-2.33,6.49a25.79,25.79,0,0,0-1.45,5.15c-.46,3.48-1.82,6.33-2.71,11.3a45.1,45.1,0,0,1-2.07,6.44c-1.43,4.28-2,8.79-2.84,13.22-.67,3.53-1.48,7.34,0,10.61s5.16,5.25,8.52,6.86c2.58,1.24,5.28,2.51,8.13,2.51s5.4-1.18,8-2.29c5.45-2.37,11.07-4.47,16.07-7.69,1.83-1.18,3.65-2.61,4.44-4.65a12.48,12.48,0,0,0,.45-5,150.38,150.38,0,0,1,.9-23.91,54.93,54.93,0,0,1,1.72-8.65C157.49,203.81,158.81,200.89,157.36,198.39Z"/><path class="cls-3" d="M155.64,226.11c-1.85-.19-3.06.63-4.59,1.52-.52.3-1,.68-1.49,1a15,15,0,0,1-2.63,1.24c-8.92,3.94-21.35,8.63-30.62,10.21a8.69,8.69,0,0,0-2.43,1,15,15,0,0,0-4.88,3.33,12.45,12.45,0,0,0-2.17,3.32.91.91,0,0,0-.1.86,21.88,21.88,0,0,1,1.75,3.1,31.87,31.87,0,0,1,1.42,3,13.74,13.74,0,0,0,1,2.36c.94,1.91,1,4.24,1.31,6.33.27,1.6.38,3.18.55,4.79.11,1,.12,2,.23,3s.39,2.28.52,3.43a31,31,0,0,0,1.33,5.6c1.33,4.28,2.34,8.65,3.51,13,.58,2.15,1.17,4.29,1.87,6.4a27.26,27.26,0,0,0,2.06,5.25c.62,1.1,1.76,2.56,3.1,2.73a2.59,2.59,0,0,0,1.74-.64c.92-.61,1.85-1.07,2.8-1.61a15.63,15.63,0,0,1,2.39-1.44,19.25,19.25,0,0,0,2.5-1.22,9.53,9.53,0,0,1,2.65-.59,24.88,24.88,0,0,0,2.93-.92c1.88-.68,3.75-1.41,5.66-2a13.93,13.93,0,0,0,4.62-3.05c1.54-1.31,2.83-3.82,4.89-4.13a10.89,10.89,0,0,0,2.41-.44c3.23-1.23,7.83-1.48,6.8-6.38a12.14,12.14,0,0,0-3-5.1,13.75,13.75,0,0,1-3.18-5,13,13,0,0,1-.33-3.52c0-6.05-.28-12.16-.06-18.2.15-4.15,2.27-10.12,1.37-14.08,0-.92.16-1.77.26-2.68a25.76,25.76,0,0,0-.07-2.91,11.07,11.07,0,0,0-.85-5.19A4.1,4.1,0,0,0,155.64,226.11Z"/><path class="cls-4" d="M154.54,233.2c-.37,1.69-3.28,3.17-4.59,4.15-2,1.47-4,1.57-6.15,2.53-1.54.71-2.61,2.07-3.86,3.16-1.5,1.3-3.24,2.32-4.62,3.76a6.2,6.2,0,0,1-2.53,2.08c-1.53.63-2.37.24-3.88-.1a10,10,0,0,0-4-.12c-2.18.42-4.23,1.61-6.36,2.23-1.93.57-5.15,1.56-7.15,1.1-.68-.16-1,.88-.34,1,1.57.36,3-.16,4.57-.42a42.74,42.74,0,0,0,7.41-2.16,9.6,9.6,0,0,1,5.57-.63c.75.16,1.47.46,2.23.56a5,5,0,0,0,4.5-1.75,55.4,55.4,0,0,1,5-4.5c.92-.77,1.69-1.79,2.67-2.47,1.47-1,2.88-1,4.44-1.58,2-.72,3.43-2.21,5.11-3.4,1.29-.91,2.66-1.49,3-3.13C155.73,232.86,154.7,232.52,154.54,233.2Z"/><path class="cls-4" d="M136.21,241.51a14,14,0,0,1-5.39,3.06c-1.21.44-2.4.11-3.56.28s-2.08.82-3.27.86c-2.19.08-4.41.27-6.59.27-2.55,0-3.18,1.13-5.34,2.21a.55.55,0,0,0,.49,1c1.4-.7,2.51-1.89,4.08-2.08,1.17-.14,2.29.14,3.47,0,1.55-.23,3.06-.09,4.58-.26.81-.09,1.5-.52,2.32-.62s1.6.32,2.47.21,1.86-.9,2.76-1.21a10.93,10.93,0,0,0,4.71-2.85C137.42,241.81,136.69,241,136.21,241.51Z"/><path class="cls-4" d="M154.23,250.16a19.77,19.77,0,0,1-7.81,5.45,18.83,18.83,0,0,0-6.53,3.34c-3,2.35-6,3.3-9.62,4.39a7.33,7.33,0,0,0-2.42,1.36,30.39,30.39,0,0,1-4.85,3.09.54.54,0,0,0,.49,1,24.9,24.9,0,0,0,3.77-2.2,14.94,14.94,0,0,1,5.48-2.62,21.59,21.59,0,0,0,7.19-3.63,23.22,23.22,0,0,1,4.18-2.82c1.36-.64,2.87-.78,4.22-1.46A24,24,0,0,0,155,251C155.43,250.45,154.7,249.63,154.23,250.16Z"/><path class="cls-4" d="M150.87,258a14.89,14.89,0,0,1-6.13,2.93c-2.07.32-3.3,1.24-5.19,2.16-.63.3-.13,1.28.5,1,1.25-.61,2.45-1.65,3.79-1.95.9-.19,1.84-.17,2.72-.43a18,18,0,0,0,5-2.87C152.17,258.41,151.44,257.6,150.87,258Z"/><path class="cls-4" d="M152.28,277.57c-1.87,3-6.06,3.93-9.2,4.77-2.06.55-4.43.2-6.07,1.68-1.21,1.1-1.94,2.45-3.38,3.34s-3.32,1.69-4.93,2.52a12.81,12.81,0,0,1-4.64,1.63c-1.33.14-2.73,0-4,.28a.55.55,0,0,0,.22,1.07c1.36-.28,3-.16,4.42-.31a11.54,11.54,0,0,0,4.11-1.48,32.33,32.33,0,0,0,8.22-5.3c2.34-2.22,6.91-2.37,10-3.36,2.2-.72,5-2.23,6.21-4.25C153.56,277.57,152.65,277,152.28,277.57Z"/><path class="cls-2" d="M100.22,179.08c-2.2.3-3.91,2.51-5.21,4.11-1.9,2.33-1.06,8.71-2,11.59-.22.72-6.84,16.71-7.18,17.33.33-1,4.72-21,4.72-22.19a26.28,26.28,0,0,1,.84-8.26c.29-.92.32-1.85.64-2.77s.8-1.76,1.13-2.68a4.8,4.8,0,0,0,0-3.72c-1.14-2.8-4.19.37-5.26,1.68a5.87,5.87,0,0,0-1.61,3.68,45.12,45.12,0,0,1-.64,6.87c-.46,2.16-.25,4.6-1.49,6.44-1.11,1.67-2.4,3.1-3.1,5-.86,2.37-.61,17.29-3.31,18.95-2-.28.42-14.08.06-15.17a12.51,12.51,0,0,1,.14-8.28c.76-2.49.8-5.09,1.6-7.57a5.77,5.77,0,0,0,.34-1.65,33.56,33.56,0,0,1-.09-4c.31-2.29,1.78-4.15,2.4-6.32.48-1.7,1.1-3.85.23-5.56a2.21,2.21,0,0,0-3-1.19c-1.28.62-1.28,2.22-1.88,3.36-.86,1.61-2.49,2.65-3.25,4.36-.93,2.08-.57,4.94-.74,7.2A28.88,28.88,0,0,1,72,187.65a36.94,36.94,0,0,0-2,7.16c-.16,1.34-.11,2.66-.4,4s.32,4.77-.06,6.12c-.08.3-1.73,11.21-1.82,11.51-.67-1.79-.28-4.47-.32-6.33-.1-5.59.16-11.33-.36-16.91-.19-2.06-.11-4-.83-6a11.5,11.5,0,0,1,0-8.09c.58-1.49,1.41-3.17,1.2-4.84-.15-1.21-.83-3.08-2.13-3.42-2.21-.57-5,2.44-5.08,4.52-.07,1.16.3,2.13,0,3.32a15.06,15.06,0,0,0-.35,3.08c-.09,2.29,1.13,4.49.68,6.82-.38,2-1.82,3.56-2.15,5.59a16.26,16.26,0,0,0,.36,6.51,20,20,0,0,1,.49,8.4c-.31,1.93-1,3.68-1.22,5.59a16.47,16.47,0,0,0-.62-4.11c-.67-2.08-2.21-3.61-3.14-5.54a22.76,22.76,0,0,1-2.08-8.73c-.13-2.26,0-4.2-1-6.31-1.11-2.34-2.57-4.41-3.33-6.92-.71-2.35-.21-4.76-1.09-7.09-.5-1.31-1-3.7-2.58-4.18-3-.91-3.72,4.74-3.58,6.57a20.2,20.2,0,0,0,1.82,6c.45,1.12.93,2.25,1.27,3.41a20.59,20.59,0,0,1,.45,4.7,19.84,19.84,0,0,0,1.3,6c.46,1.24.86,2.51,1.32,3.74s1.24,2.29,1.69,3.51a15.6,15.6,0,0,1,.83,4.75,22.62,22.62,0,0,0,.09,3.77,33.48,33.48,0,0,0,2.91,7.41c.61,1.31,1.36,2.54,1.84,3.91a24.26,24.26,0,0,1,.9,4.16,11.67,11.67,0,0,1-2.11-3.09c-1.22-2.7-2.13-5.59-3.54-8.2a11.07,11.07,0,0,0-3.21-3.77,12.3,12.3,0,0,1-2.68-2.71c-1.87-2.73-2.91-5.82-5.06-8.33A10.72,10.72,0,0,0,36.62,202c-.63-.42-1.11-1.14-1.76-1.56a2.9,2.9,0,0,0-2.28-.42,1.06,1.06,0,0,0-.77,1.08,3.76,3.76,0,0,0,.42,1.22c.29.81.38,1.66.65,2.48a35.24,35.24,0,0,0,4,7.91c1.88,2.86,2.75,6.25,4.28,9.33a8.51,8.51,0,0,0,2.49,3.28,14,14,0,0,1,4.2,4,36.27,36.27,0,0,1,3.23,5.68c.18.44.3,1,.47,1.45a.37.37,0,0,0-.27.27,3.29,3.29,0,0,0,.4,2.07c.54,1.18,1.16,2.27,1.66,3.48s.45,2.28.95,3.3,1.1,2.37,1.69,3.55a11.36,11.36,0,0,0,1.42,2.72A5.41,5.41,0,0,0,60.55,253a16.51,16.51,0,0,0,3.44.17c1.62-.08,3.25.08,4.86,0a19.8,19.8,0,0,0,7.7-2.18c2.81-1.41,5.63-2.65,8.51-3.89a35.29,35.29,0,0,0,7.43-4.25,22,22,0,0,0,4.89-6.11c3.15-5.2,4.32-11.06,4.62-17.15.15-3.13.69-6.21.79-9.35s-.29-6.2-.31-9.27c0-3.27.1-6.52,0-9.78-.1-3.08.3-6.23-.12-9.3C102.19,180.61,101.68,178.88,100.22,179.08Z"/><path class="cls-3" d="M102,216.37c-1.36-.12-2.74.19-4.12,0-1.82-.2-3.52-1.55-5.11-.27a16.64,16.64,0,0,1-2.07,1.75c-.43.25-.88.46-1.32.7a10.85,10.85,0,0,1-4.89,1.51,44.5,44.5,0,0,0-8.37,1.07,23.64,23.64,0,0,0-3.77,1.37c-.87.1-1.74.21-2.59.37-3.78.68-7.41,1.9-11.09,2.92-3.09.86-7.21.81-9.71,3.15-1.83,1.71-1.58,4.25-.53,6.32a24,24,0,0,0,2.67,3.44c2.1,2.81.56,3.62.34,6.35a6.67,6.67,0,0,0,.79,3.39c1.18,2.27,2.14,2.37,2.6,5.67a19,19,0,0,0,1,4.09c.35,2.58.86,5.14,1.33,7.58S58,270.6,58.46,273a69.69,69.69,0,0,1,.86,8.51,174.11,174.11,0,0,0,2.3,17.35c1,5.35,3.05,10.42,3.23,15.93.15,4.62.41,9.17.66,13.8a29.91,29.91,0,0,1-1.18,10.09c-.63,2.32-2.12,4.39-2.24,6.84a6.52,6.52,0,0,0,6.69,7c2.78.08,5.46-1.13,8-2.1,3.08-1.19,6.23-2.07,9.31-3.23a.73.73,0,0,0,.23-1.22c2.84-2.84,3.09-5.66,7.29-7.54,2.35-1,5.29-1.65,7.35-3.23a8,8,0,0,0,2.49-4.47,45.19,45.19,0,0,0,1.45-7.36,71,71,0,0,0,.17-8.25c-.06-3-.09-6.16-.34-9.18s-.1-6.08-.35-9.13a41,41,0,0,1-.18-9.32c.2-1.29.33-2.57.48-3.87s.64-2.46.75-3.72c.24-2.67-.25-5.4-.14-8.08s-.15-5.53-.19-8.29c0-3.06,0-6.12-.22-9.18a49.79,49.79,0,0,0-1.15-8.16c-.3-1.25-.67-2.47-1-3.71a8.29,8.29,0,0,1-.33-2.32,16.28,16.28,0,0,1,.52-2.4c.45-2.41-.55-5-.44-7.4s.75-5.06.25-7.55a13,13,0,0,1-.23-4.85A2.73,2.73,0,0,0,102,216.37Z"/><path class="cls-4" d="M94.07,231.45a17.46,17.46,0,0,1-10.53,3.23c-3.17-.07-6.8-.94-9.94-.07s-5,3.51-8.25,4a24.63,24.63,0,0,1-4,0c-1.51,0-4.54.43-5.94-.14-.88-.35-1.49,1-.61,1.35,2.55,1,6.48.41,9.23.33,3.45-.1,5.17-1.71,8-3.23,4-2.16,9-.63,13.34-.76,3.59-.1,6.63-1.61,9.58-3.53C95.74,232.13,94.87,230.93,94.07,231.45Z"/><path class="cls-4" d="M97.57,232.86c-2.39,3-8.74,4.25-12.3,5s-8.44,2.4-12,1.68c-.93-.19-1.18,1.27-.25,1.46,4,.8,9.47-.94,13.34-1.87s9.79-2.12,12.37-5.39C99.31,233.05,98.16,232.11,97.57,232.86Z"/><path class="cls-4" d="M95.73,332.55c-1.34,1.6-3.54,1.77-5.46,2.47-2.67,1-5.21,2.67-7.9,3.46-5,1.49-9.35-3.61-14.31-1.47-.87.37-.35,1.76.52,1.39,4.78-2.06,9.61,3.17,14.81,1.3,3.1-1.11,5.84-2.9,9-3.86,2-.6,3.12-.76,4.45-2.35C97.49,332.76,96.34,331.82,95.73,332.55Z"/><path class="cls-4" d="M88.18,329.7c-1.46,3-5,2.31-7.65,2.76a19.19,19.19,0,0,0-5,2c-.85.41-.33,1.8.52,1.39a23,23,0,0,1,3.87-1.72c1.57-.41,3.18-.12,4.75-.49,2.23-.54,3.87-1.26,4.86-3.34A.74.74,0,0,0,88.18,329.7Z"/><path class="cls-4" d="M96.78,259.18c-2.53.83-4.22,2.87-6.15,4.63a20.62,20.62,0,0,1-9.38,5C75.41,270.35,69.62,272,64,274.12a.74.74,0,0,0,.52,1.39c6.33-2.35,12.93-3.65,19.33-5.75a19.36,19.36,0,0,0,6.12-3.35c2.32-1.88,4.48-4.9,7.36-5.84C98.21,260.27,97.69,258.89,96.78,259.18Z"/><path class="cls-4" d="M93,272.59c-2.77,3.06-8.59,3.66-12.38,3.82s-7.54-.1-11.28.22a.74.74,0,0,0,.13,1.48c4.9-.42,9.88.24,14.77-.46,3.19-.46,7.65-1.62,9.91-4.12C94.78,272.82,93.63,271.89,93,272.59Z"/><path class="cls-5" d="M170.46,329.52c-2-3.33-6.15-4.27-9-6.65s-5.5-6.42-10-6.38c-4.14,0-9.25,2.95-11.58,6.31A25,25,0,0,0,136,334.44a34.75,34.75,0,0,0,.16,8.7,6.7,6.7,0,0,0,.66,4.36c1.28,2.42,5.25,4.58,8,4.15,2-.32,4.3-1.42,6.25-1.93a71.89,71.89,0,0,0,7.28-2.37c4-1.53,8.5-2.69,11.06-6.44C171.69,337.52,172.63,333.2,170.46,329.52Z"/><path class="cls-5" d="M366.32,243c-9.81-13.65-32.43-28.1-48.82-33.22-12.65-4-14.44-.06-27.17-3.78-11.14-3.26-21.85-6.23-33.54-4.22-6.21,1.06-12.17,3.13-18.26,4.65a72.78,72.78,0,0,1-20.64,1.78c-11.41-.35-21,4.82-30.95,9.87-14.57,7.44-34.46,11.54-41.21,26.2-6.14,13.32-15.27,12-19.3,21.4-5.59,13-17.8,68.61-17.8,68.61s.61,12.71,6.74,14.47c1.11.32,5.58,1.81,5.58,1.81s47.06,4.95,87.2,7.55c42.73,2.77,171.28,0,171.28,0l43.93-44L411.65,295l-23.26-31.4Z"/><path class="cls-6" d="M378.3,76.14c-4.86-2.4-6.93,4.38-7.91,7.52-2.73,8.83-4.2,17.58-11.18,24.35a153.83,153.83,0,0,1-23,18.14,71,71,0,0,1-7.77,4c3.17-7.17,5.51-15,7.66-21.79,4.23-13.48,10-26.73,15.33-39.77,2.31-5.59,9.34-17.76.94-21.67-10.16-4.74-11.14,6.67-13.54,13.79-1.68,5-4.05,9.71-5.77,14.65-1.47,4.19-4.63,20.35-12.73,11.84C310,76.4,322.86,61.92,325,50.72c.44-2.34.71-6.95-1.73-8.42-3-1.81-5.36,1.64-6.87,3.74-2.44,3.4-4,8.38-5.36,12.27-1,3.06-1.05,6.23-1.73,9.36-.71,3.29-2.42,6.3-3.12,9.55-1.08,5.06.82,11.17,3.17,15.57,2.61,4.91,6.23,10.67,7.24,16.16-.05.25-.1.49-.16.75-.47,2.21-1.69,3.57-2.75,5.41-3.54,6.15-5.66,14.51-11.53,19.09-5.47,4.27-13.07,1.91-17.43-2.57a17.35,17.35,0,0,1-1.52-1.83c-2-5.59.69-15.19,1.62-19.15a127.21,127.21,0,0,0,3.13-20.86c.53-8.07,3.44-15.9,4.26-23.94.78-7.54,1.58-15.09,2.44-22.6.31-2.71.67-5.46.77-8.18.09-2.31,1.11-6.19.38-8.29-1.18-3.41-7-3.11-9.78-1.66-4,2.09-3.8,7.27-4.76,11.24a225.84,225.84,0,0,0-4.76,25.58c-.68,5.58-1.35,11.07-2.13,16.62-1.08,7.6-1.14,15.74-3,23.23-.76,3.1-1.87,6.09-2.57,9.22s-1.21,9.77-4.08,11.62c-7.43,4.79-12.32-21.26-12.61-25.9-1-15.6-4.54-30.63-6.21-46.14-.44-4.12,1.55-10.61-3.55-12.33-4.65-1.56-7.79,1.71-7.94,6-.14,4.05,1.56,8.36,2,12.45.42,3.56.77,7,1.36,10.58,1.37,8.3,2.1,16.67,4.49,24.7a74.53,74.53,0,0,1,2.62,28.69c-.43,4.52-.45,9.08-1,13.57-.17,1.36-.39,2.68-.61,4l-.49-.45c-2.88-2.61-4.37-6.23-6-9.63a129.68,129.68,0,0,1-8.67-22.53c-1.74-6.34-2.53-12.84-3.89-19.27-.64-3-2.38-4.9-6.12-3.51s-3.66,5.8-3.69,9c-.06,6.37.35,13,2.5,19.06a102.18,102.18,0,0,0,9.52,20c.79,1.26,1.57,2.82,2.4,4.43-1.87-1.25-3.58-2.75-5.39-4.08-8.76-6.44-13.5-16.95-17.12-26.88a95.28,95.28,0,0,1-5.44-33c0-5.3.14-10.48.42-15.74.25-4.78.71-10.69-.54-15.37-1.47-5.5-5.61-8.92-9.77-4-5.08,6-2.54,14-1.62,21.09.65,5,.13,10.12.4,15.17a93.3,93.3,0,0,0,2.49,15.83c2.3,10,3.27,22.75,9.05,31.52,5.09,7.72,9.54,13.91,17.85,18.54a20.84,20.84,0,0,0,3.45,1.51c-1.58,0-3.17,0-4.78,0-8.27-.19-16.71-.42-24.75-2.29-5-1.14-10.35-2.77-11.85-8.13-1.13-4.07-.65-8.46-.38-12.6a201.72,201.72,0,0,0-.06-26.82c-.39-5.6-1.13-14.61-7-17.42-4.16-2-6.93.47-7.22,4.59-.58,8.41,2.34,16.92,2.82,25.19.32,5.64-1.28,30.86-12.9,25.49-7.14-3.31-16.15-23.15-17.93-26.35-5.42-9.82-2.24-20.47-2.55-31.11-.11-3.91-2.9-6.65-6.41-3.41-5.68,5.25-1.88,14.78-1.38,21.08.83,10.38,2.24,20.64,5.87,30.58,1.66,4.52,4.43,8.78,5.93,13.31,1.12,3.37,1.71,6.28,4.33,9,4.86,5,11.07,6.72,17.45,9a84,84,0,0,0,24.41,4.51c13.28.64,26.47,1.53,39.72,2.34,7.43.46,15.17,2.8,19.64,9.1,2.25,3.17,2.11,6.17,2.83,9.32-.18.46-.38.92-.57,1.37-1.66-1.19-3.14-2.12-3.79-2.53-4.85-3.1-15.24-7.77-21.14-5.13-5.49,2.46-2.68,8.56,1.74,10.1,4.74,1.65,9.52,2.16,14.42,3,2,.36,3.85.83,5.72,1.26-2.08,4.33-4.27,8.64-6,13a11.11,11.11,0,0,0-2.61-.82,131.74,131.74,0,0,0-13.23-1.34c-8.92-.5-16.87-.38-25.06-4.4-4.59-2.26-9.86-5.12-13.44-8.74-2.53-2.56-2.75-6.71-5.4-9a5.91,5.91,0,0,0-9,2.3c-1.86,4.71,3,13.47,6,16.91,5.19,5.94,13.32,7.29,20.49,9.58a161,161,0,0,0,21.69,5.28c4.8.81,16.52-.13,18.61,4.21.81,1.67,3.1,1.91,5,1.79,6.43-.41,12.94,1.59,19.19.86,4.65-.55,9.11-1.85,12.46-5.26a28.06,28.06,0,0,0,5.59-8.54c9.33-3.4,19.35-5.43,28.37-9.29,3.17-1.35,22.14-9.17,14-15.85-3.13-2.58-7.13,1.35-9.63,2.85-5.87,3.51-12.62,3.31-19,5.4a66.5,66.5,0,0,0-7.6,3c3.59-5.58,8.59-10.41,12.76-15.44,2.55-3.08,5.05-6.17,7.87-9,3-3,6.91-5.09,9.54-8.38a.62.62,0,0,0,.11-.17c2.67-1.35,5.6-2.26,8.35-3.38,5.95-2.42,12.1-4.2,18.06-6.81,6.41-2.8,12.95-5.83,18-10.75,5.82-5.7,8.86-12.69,12.41-19.79,3.45-6.92,7.07-15.55,8.13-23.21C380.84,85.3,382,78,378.3,76.14Z"/><path class="cls-7" d="M222,289.08c-3.17-.18-14.92-1.24-17.32-2.36-4.19-2,.52-6.19,2.11-8.19q3.34-4.21,6.71-8.42c2-2.48,4.1-4.91,6-7.48.77-1.06,2.3-3.28,1.23-4.66s-2.24-.12-3,.68c-2.53,2.52-4.88,5.26-7.31,7.88L203,274.41c-1.07,1.15-3.8,3.51-4.94,4.61-2.59,2.53-4.64.74-7.76-.28a30.14,30.14,0,0,1-3.74-1.51,53.8,53.8,0,0,1-6.54-3.77c-3.16-2.1-6.24-4.32-9.4-6.4-1.08-.71-3.55-2.63-4.82-1.38-2.91,2.86,6.25,8.05,7.77,9.13a84.15,84.15,0,0,0,8.88,5.57c2.77,1.49,6,3,7.53,5.76-.84,3.43-4.54,4.71-7.66,6.26-3.63,1.79-7.39,4.12-11.18,5.52a70.1,70.1,0,0,0-8.87,3.55c-1.37.74-4.66,2.77-4.47,4.73.34,3.48,12.22-2.92,13.32-3.37q4.82-2,9.65-4c1.78-.73,3.52-1.55,5.31-2.26,1.58-.62,3.45-1.53,5.18-1.28,3,.43,4.33,3.31,5,5.93.83,3.25,1.48,6.55,2.22,9.82s1.47,6.58,2.22,9.86c.35,1.54.73,4,2.81,4.05,3.92.06,1.49-8,1.07-9.77q-1.23-5.29-2.11-10.68c-.41-2.5-1.28-4.94-1.24-7.51.05-3.25,1.32-5,4.37-5.36,4.59-.55,10.09.5,14.63,1,2,.23,11.06,2.26,11.94-.85C233.13,288.48,223.54,289.16,222,289.08Z"/><path class="cls-8" d="M64.08,332.39c1.12-9.13,3.2-19,10.37-24.64,3.56-2.81,7.66-4,11.83-5.27,5.46-1.67,8.61-4.23,14.27-4.3,4.5-.06,8.82-.4,12.77,2.17a82.47,82.47,0,0,1,10.46,8.32c7.8,7.19,12,16.63,17.76,25.51,3.1,4.76,8.14,7.69,10.91,12.69a32.13,32.13,0,0,1,4,12.38,11.22,11.22,0,0,1,.09,2c0,.33-1.78,1.88-1.92,2.08a105.38,105.38,0,0,1-30.93,5c-17.94,0-37.78-5-37.78-5s-13.16-3.8-19.05-9.33C60.62,348.12,63.21,339.51,64.08,332.39Z"/><path class="cls-8" d="M237.34,363.13s31,3.36,42,3.64c18.86.5,65.26-2,83.39,3.23,13.36,3.82,33-1.61,45.2,0a350.39,350.39,0,0,0,36.49,2.43c5.79.05,23-2.88,23-2.88,6.11-13.17-24.27-40.32-29.83-42.2-6.84-2.3-9.21-11.14-15.06-15.4-5.29-3.85-11.24-5.7-17.55-7.26-3.39-.85-6.84-1.56-10.13-2.74-4.64-1.66-7.87-4.45-11.84-7.19-11.17-7.72-28.34-3.74-40.85-1.3-7.66,1.48-15.51,3.3-22.53,6.75-8.75,4.3-15.61,10.12-25.11,13.18-7.73,2.48-15.43,4.81-22.93,7.93-5,2.1-10.16,4.39-12,9.65-1.09-.35-.48,1.07-1.64,1.86C245.35,341.43,227.93,364.87,237.34,363.13Z"/><path class="cls-9" d="M445.09,263.3c-1.65-1-4.62,0-6.24.53-2.14.75-10.14,5.59-7.56.25,1.46-3,9.13-7.28,6.07-11.58a1.4,1.4,0,0,0-1.53-.61c-2.8.64-5.09,1.07-7.56,2.7-3.21,2.11-8.42,7.74-7.87-.15.2-2.81,5.42-10.1,1.54-12.7-3.14-2.11-7.6,3.39-9,5.54a19.14,19.14,0,0,0-1.8,3.73c-.38,1-.72,1.91-1,2.89q-3.71.21-3.05-3c-1-2.4.44-5.45-1.69-7.61-2.41-2.45-4.8-.48-5.94,2.15-3.06,7,1.58,15.19-2.41,22-1.62,2.78-4.71,5.09-6.63,7.79-2.3,3.25-5.3,5.89-7.8,9-2.16,2.68-6.83,6.86-6.54,10.62.38,4.94,5.5,7.37,9.68,8.81,2.18.75,4.44,1.21,6.65,1.88,4.39,1.33,8.9,5.61,13.4,1.8,3.17-2.69,5.06-6.5,7.48-9.78,4.06-5.52,6.72-13.3,12.3-17.53,5.06-3.84,12.45-4,17.55-7.68C445.45,270.66,448.59,265.51,445.09,263.3Z"/><path class="cls-9" d="M357.29,250.73c-2.71.24-5.32,1.26-8,1.37a17.13,17.13,0,0,1-3.2-.25,3.25,3.25,0,0,0,1.83-.67c4.09-3.13,10-3.1,14.23-6.21,2.82-2.07,8.18-7.57,2.9-10-2.91-1.33-8.45.71-11,1.82-1.91.82-3.62,1.84-5.59,2.56-1,.37-5.32,2.36-6.34,2-6.28-2.2,6.49-21.23,5.26-26.6-1.45-6.28-7.32-2.17-9.89,1.12-2,2.52-8,20.1-11.44,25.06-5-7.82-10-28.71-19.65-24-4,2-1,9.89-.09,12.76a29.07,29.07,0,0,0,2.9,6.79c1.49,2.44,3.9,4.15,4.68,7,.34,1.24,1.07,4.41-.42,5.17-7.4-2-13.23-8-20.34-10.82-3.52-1.37-11.79-1.3-11.25,4.15.43,4.3,10.9,9.16,14,11,4.06,2.47,8.94,3.74,12.8,6.34a13.18,13.18,0,0,1,1.23,1c-10.09.89-30.35,1.39-29,7.46,1,4.32,10.74,3,13.51,2.76,2.53-.22,5.22-.33,7.91-.58l-1.25.89c-1.61,1.13-3.48,1.91-5,3.19-2.07,1.8-4.91,5.48-2.22,8,2.24,2.11,6,.15,8.31-.85a39.75,39.75,0,0,0,5.62-2.89c1.08-.68,2.41-1.59,3.77-2.35a87.47,87.47,0,0,0,4.29,14c.88,2.37,1.83,4.68,2.66,7.06.56,1.63.79,4.77,1.91,6,2.25,2.43,11.05,0,13.28-.41,5.45-1,10.83-2.65,16.24-3.89,3.84-.88,10.57.47,13.48-2.64s2.13-8.68.87-12.09a63.3,63.3,0,0,0-14.87-22.67c5.27-.21,10.62-.55,14.43-4.57C368.85,251.48,361.67,250.34,357.29,250.73Z"/><polygon class="cls-10" points="218.08 393.62 176.16 447.83 168.04 393.62 146.08 393.62 159.7 477.59 180.83 477.59 246.06 393.62 218.08 393.62"/><path class="cls-10" d="M334.55,393.62H258.78l-32,84h26l8-21h40.67a7.75,7.75,0,0,1,7.24,10.5l-4,10.49h26l8-21h0a7.74,7.74,0,0,0-7.23-10.5,16.31,16.31,0,0,0,15.23-10.5l6-15.74A19.35,19.35,0,0,0,334.55,393.62Zm-9.89,31.49a16.3,16.3,0,0,1-15.23,10.49H268.76l8.14-21h40.53A7.74,7.74,0,0,1,324.66,425.11Z"/></svg>