<?xml version="1.0" encoding="utf-8"?>
<!-- Generator: Adobe Illustrator 26.0.2, SVG Export Plug-In . SVG Version: 6.00 Build 0)  -->
<svg version="1.1" id="Layer_1" xmlns="http://www.w3.org/2000/svg" xmlns:xlink="http://www.w3.org/1999/xlink" x="0px" y="0px"
	 viewBox="0 0 500 118" style="enable-background:new 0 0 500 118;" xml:space="preserve">
<style type="text/css">
	.st0{fill:#d7282f;}
</style>
<path class="st0" d="M473,0.5H375l-44.6,117.1h36.2l11.2-29.3h69.6c18.9,0,35.8-11.7,42.5-29.3l8.4-22c5.3-13.9-1.7-29.5-15.6-34.8
	C479.5,1.1,476.2,0.5,473,0.5z M459.2,44.4c-3.4,8.8-11.8,14.6-21.2,14.6h-49l11.2-29.3h49c6,0,10.8,4.8,10.8,10.8
	C459.9,41.9,459.7,43.2,459.2,44.4z M134.5,73.7l11.2-29.3H64.1l5.6-14.6h95l11.2-29.3H44.6L0,117.6h131.3l11.2-29.3l-95.1,0
	L53,73.7H134.5z M356.8,0.5h-54.3l-44.4,34l-22.8-34H194l36.8,54.9l-81.4,62.2h54.3l45.5-34.8l23.3,34.8h41.3l-37.3-55.7L356.8,0.5z
	"/>
</svg>
