<?xml version="1.0" encoding="UTF-8"?>
<svg id="Layer_1" xmlns="http://www.w3.org/2000/svg" version="1.1" viewBox="0 0 32 32">
  <!-- Generator: Adobe Illustrator 29.1.0, SVG Export Plug-In . SVG Version: 2.1.0 Build 142)  -->
  <defs>
    <style>
      .st0 {
        fill: #fff;
      }
    </style>
  </defs>
  <circle class="st0" cx="16" cy="16" r="5.5"/>
  <path class="st0" d="M28,0H4C1.8,0,0,1.8,0,4v24c0,2.2,1.8,4,4,4h24c2.2,0,4-1.8,4-4V4c0-2.2-1.8-4-4-4ZM29,17.5c0,.3-.2.7-.6.7l-3,.7c-.2.5-.4,1.1-.7,1.6l1.4,2.3c.2.3.1.7-.1.9l-2.2,2.2c-.2.2-.6.3-.9.1,0,0-1.5-.9-2.3-1.4-.5.3-1.1.5-1.7.7l-.7,3c0,.3-.4.6-.7.6h-3.1c-.3,0-.7-.2-.7-.6l-.7-3c-.6-.2-1.1-.4-1.7-.7-.7.4-2.2,1.3-2.2,1.3-.3.2-.7.1-.9-.1l-2.2-2.2c-.2-.2-.3-.6-.1-.9l1.3-2.2c-.3-.5-.5-1.1-.7-1.7l-3-.7c-.3,0-.6-.4-.6-.7v-3.1c0-.3.2-.7.6-.7l3-.7c.2-.5.4-1,.6-1.5l-1.5-2.5c-.2-.3-.1-.7.1-.9l2.2-2.2c.2-.2.6-.3.9-.1l2.4,1.4c.5-.3,1.1-.5,1.7-.7.2-.9.7-3,.7-3,0-.3.4-.6.7-.6h3.1c.3,0,.7.2.7.6l.7,3c.6.2,1.1.4,1.6.7l2.3-1.4c.3-.2.7-.1.9.1l2.2,2.2c.2.2.3.6.1.9,0,0-.9,1.6-1.4,2.3.3.5.5,1.1.7,1.6l3,.7h0c.3,0,.6.4.6.7v3.1Z"/>
</svg>
