<?xml version="1.0" encoding="utf-8"?>
<!-- Generator: Adobe Illustrator 24.2.0, SVG Export Plug-In . SVG Version: 6.00 Build 0)  -->
<svg version="1.1" id="Layer_1" xmlns="http://www.w3.org/2000/svg" xmlns:xlink="http://www.w3.org/1999/xlink" x="0px" y="0px"
	 viewBox="0 0 18 18" style="enable-background:new 0 0 18 18;" xml:space="preserve">
<style type="text/css">
	.st0{fill:#3E8DFB;}
</style>
<path id="icon-world" class="st0" d="M9,17.5c-4.7,0-8.5-3.8-8.5-8.5c0-4.7,3.8-8.5,8.5-8.5h0h0c4.7,0,8.5,3.8,8.5,8.5
	S13.7,17.5,9,17.5L9,17.5L9,17.5L9,17.5z M6.3,13.3c0.3,1.1,1,2.1,2,2.7v-4.1H5.9C6,12.4,6.2,12.9,6.3,13.3z M9.7,16
	c1-0.6,1.7-1.6,2-2.7c0.2-0.5,0.3-0.9,0.4-1.4H9.7V16z M12.9,13.8c-0.2,0.6-0.5,1.2-0.8,1.7c1.6-0.7,2.8-2,3.5-3.6h-2.2
	C13.3,12.6,13.1,13.2,12.9,13.8z M6,15.5c-0.3-0.5-0.6-1.1-0.8-1.7c-0.2-0.6-0.4-1.2-0.5-1.9H2.4C3.1,13.5,4.4,14.8,6,15.5z M13.7,9
	c0,0.5,0,1.1-0.1,1.6H16c0.3-1.1,0.3-2.2,0-3.2h-2.4C13.7,7.9,13.7,8.5,13.7,9z M9.7,10.6h2.6c0.1-0.5,0.1-1.1,0.1-1.6
	c0-0.5,0-1.1-0.1-1.6H9.7V10.6z M5.6,9c0,0.5,0,1.1,0.1,1.6h2.6V7.4H5.7C5.7,7.9,5.6,8.5,5.6,9z M1.8,9c0,0.5,0.1,1.1,0.2,1.6h2.4
	C4.3,10.1,4.3,9.5,4.3,9c0-0.5,0-1.1,0.1-1.6H2C1.9,7.9,1.8,8.5,1.8,9z M12.9,4.2c0.2,0.6,0.4,1.2,0.5,1.9h2.2
	c-0.7-1.6-2-2.9-3.5-3.6C12.4,3,12.7,3.6,12.9,4.2z M9.7,6.1h2.4c-0.1-0.5-0.2-1-0.4-1.4c-0.3-1.1-1-2.1-2-2.7L9.7,6.1z M6.3,4.7
	C6.2,5.1,6,5.6,5.9,6.1h2.4V2C7.4,2.6,6.6,3.5,6.3,4.7z M2.4,6.1h2.2c0.1-0.6,0.3-1.3,0.5-1.9C5.3,3.6,5.6,3,6,2.5
	C4.4,3.2,3.1,4.5,2.4,6.1z"/>
</svg>
