<?xml version="1.0" encoding="utf-8"?>
<!-- Generator: Adobe Illustrator 26.0.2, SVG Export Plug-In . SVG Version: 6.00 Build 0)  -->
<svg version="1.1" id="Layer_1" xmlns="http://www.w3.org/2000/svg" xmlns:xlink="http://www.w3.org/1999/xlink" x="0px" y="0px"
	 viewBox="0 0 500 500" style="enable-background:new 0 0 500 500;" xml:space="preserve">
<style type="text/css">
	.st0{fill:#2CA3FC;}
</style>
<path class="st0" d="M471.7,350.9V51.4C471.6,23,448.7,0.1,420.4,0H79.6C51.3,0.1,28.4,23,28.3,51.4v299.6c0,0.3,0,0.6,0,0.9v96.8
	c0,28.4,23,51.4,51.4,51.4h340.8c28.4,0,51.4-23,51.4-51.4v-96.8C471.8,351.5,471.7,351.2,471.7,350.9z M420.4,487.1H79.6
	c-21.2,0-38.5-17.2-38.5-38.5v-97.7c0.5-19.5,16.4-35,35.9-35.1h345.9c19.5,0.1,35.4,15.6,35.9,35.1v97.7
	C458.8,469.8,441.6,487,420.4,487.1z M41.2,87.5h0.4C44,69.8,59.2,56.6,77.1,56.6h345.9c17.9,0.1,33,13.2,35.6,30.9h0.4v15.7
	c-9.2-10.1-22.3-15.8-35.9-15.8H77.1c-13.6,0-26.7,5.7-35.9,15.8L41.2,87.5z M79.6,12.9h340.8c21.2,0,38.5,17.2,38.5,38.5v8.1
	c-9.2-10.1-22.3-15.8-35.9-15.8H77.1c-13.6,0-26.7,5.7-35.9,15.8v-8.1C41.2,30.1,58.4,12.9,79.6,12.9L79.6,12.9z M41.2,131.2h0.4
	c2.5-17.7,17.7-30.9,35.6-30.9h345.9c17.9,0.1,33,13.2,35.6,30.9h0.4v187.6c-9.2-10.1-22.2-15.8-35.9-15.9H77.1
	c-13.7,0-26.7,5.8-35.9,15.9L41.2,131.2z"/>
<path class="st0" d="M225.7,405.7c0-36.3-29.4-65.7-65.7-65.7s-65.7,29.4-65.7,65.7c0,36.3,29.4,65.7,65.7,65.7c3.7,0,6.7-3,6.7-6.6
	c0-3.7-3-6.7-6.6-6.7c0,0,0,0-0.1,0c-28.9-0.1-52.2-23.5-52.1-52.4c0.1-28.9,23.5-52.2,52.4-52.1c28.9,0.1,52.2,23.5,52.1,52.4l0,0
	c0,2.8-0.3,5.7-0.8,8.5l-11.6-3.6l8.5,33.6l26.2-22.6l-10.3-3.1C225.3,414.5,225.8,410.1,225.7,405.7z"/>
<polygon class="st0" points="165.2,386 152.4,386 152.4,399.2 139.2,399.2 139.2,412.1 152.4,412.1 152.4,425.3 165.2,425.3 
	165.2,412.1 178.4,412.1 178.4,399.2 165.2,399.2 "/>
<circle class="st0" cx="379.4" cy="448.3" r="28.9"/>
<circle class="st0" cx="379.4" cy="354.3" r="28.9"/>
</svg>
