<svg xmlns="http://www.w3.org/2000/svg" viewBox="0 0 231 231"><defs><style>.cls-1{fill:#3fa9f5;}</style></defs><g id="Artwork"><path class="cls-1" d="M230.84,168.72,218.15,66.1a37.2,37.2,0,0,0-37-29.83l-64.22.46-67-.46a37.2,37.2,0,0,0-37,29.83L.16,168.72a22.28,22.28,0,0,0,.17,6.47l.28,1.53a21.79,21.79,0,0,0,33.25,14.53,21.84,21.84,0,0,0,7.19-7.61l21.11-37.38a28.38,28.38,0,0,0,46.89-19.37l7.84-.11,5.06.11a28.38,28.38,0,0,0,46.89,19.37L190,183.64a21.84,21.84,0,0,0,7.19,7.61,21.79,21.79,0,0,0,33.25-14.53l.28-1.53A22.28,22.28,0,0,0,230.84,168.72ZM61.75,86v9.07a5.57,5.57,0,0,1-5.57,5.58H52.71a5.58,5.58,0,0,1-5.58-5.58V86H38.05a5.58,5.58,0,0,1-5.58-5.58V77a5.58,5.58,0,0,1,5.58-5.58h9.08V62.29a5.58,5.58,0,0,1,5.58-5.58h3.47a5.57,5.57,0,0,1,5.57,5.58v9.08h9.09A5.58,5.58,0,0,1,76.41,77v3.47A5.58,5.58,0,0,1,70.84,86Zm19,55.62a16.81,16.81,0,1,1,16.8-16.8A16.81,16.81,0,0,1,80.75,141.62Zm69.51,0a16.81,16.81,0,1,1,16.81-16.8A16.81,16.81,0,0,1,150.26,141.62Zm18.23-39.17a8.08,8.08,0,1,1,8.07-8.08A8.08,8.08,0,0,1,168.49,102.45Zm0-22.38A8.08,8.08,0,1,1,176.56,72,8.08,8.08,0,0,1,168.49,80.07Zm21.35,14.3a8.08,8.08,0,1,1,8.07-8.08A8.08,8.08,0,0,1,189.84,94.37Zm0-22.37a8.08,8.08,0,1,1,8.07-8.08A8.08,8.08,0,0,1,189.84,72Z"/></g></svg>