<svg id="Layer_1" data-name="Layer 1" xmlns="http://www.w3.org/2000/svg" viewBox="0 0 150 150"><defs><style>.cls-1{fill:#fff;}</style></defs><path class="cls-1" d="M143.48,79.24l-1.69-.51L140,78.3l-.55-.17-.92-.47-.53-.47-.42-.63-.22-.67,0-.36V74.47l0-.36.21-.67.43-.63.53-.47.92-.47.55-.17,1.75-.43,1.69-.51,3.38-1.62,3.14-2-.52-3.92-3.56-1.14-3.67-.69-1.78-.06-1.79,0-.58,0-1-.22-.64-.32-.56-.5-.38-.59-.14-.34-.27-1L135,58l0-.7.24-.72.39-.59.77-.7L137,55l1.58-.86,1.5-.94,2.84-2.43L145.4,48l-1.51-3.66-3.73-.18-3.73.29-1.73.4-1.72.51-.57.13-1,.05-.7-.14L130,45l-.52-.47-.22-.29-.53-.92-.15-.33-.14-.69.05-.75.22-.68.56-.87.4-.42L131,38.38l1.22-1.29L134.3,34,136,30.68l-2.41-3.14-3.65.79-3.53,1.24-1.56.84-1.53.93-.52.28-1,.31-.71,0-.74-.14-.62-.32-.29-.23-.75-.75-.23-.29-.32-.62-.14-.74,0-.71.31-1,.27-.52.94-1.53.84-1.56,1.24-3.53.79-3.66L119.32,14,116,15.7l-3.09,2.11L111.62,19l-1.24,1.3-.42.4-.87.56-.68.22-.75.05-.68-.14-.34-.15-.92-.53-.3-.22L105,20l-.34-.67-.14-.7,0-1,.13-.57.51-1.72.4-1.73.29-3.73-.19-3.73L102,4.6,99.25,7.11,96.82,10l-.94,1.5L95,13l-.31.49-.7.76-.59.4-.72.24L92,15l-.37-.06-1-.27-.34-.14-.59-.38-.5-.56-.32-.64-.22-1,0-.58,0-1.79-.06-1.78-.69-3.67L86.8.52,82.88,0l-2,3.14L79.24,6.52l-.52,1.69L78.3,10l-.17.55-.47.92-.47.53-.63.42-.66.22-.37,0H74.47l-.37,0-.66-.22L72.81,12l-.47-.53-.47-.91L71.7,10l-.42-1.75-.52-1.69L69.14,3.14,67.12,0,63.2.52,62.06,4.08l-.69,3.67-.06,1.78,0,1.79,0,.58-.21,1-.32.64-.5.56-.59.38-.34.14-1,.27L58,15l-.69,0-.72-.24-.59-.4-.7-.76L55,13l-.85-1.58L53.18,10,50.75,7.11,48,4.6,44.33,6.11l-.19,3.73.29,3.73.4,1.73L45.34,17l.13.57.05,1-.14.7L45,20l-.46.52-.3.22-.92.53-.34.15-.68.14-.75-.05-.68-.22L40,20.72l-.42-.39L38.38,19l-1.29-1.21L34,15.7,30.67,14l-3.13,2.4.79,3.66,1.24,3.53.84,1.56.94,1.53.27.52.31,1,0,.71-.14.74-.32.62-.23.29-.75.75-.29.23-.62.32-.74.14-.71,0-1-.31-.52-.27-1.53-.94-1.56-.84-3.53-1.24-3.66-.79L14,30.68,15.7,34l2.11,3.09L19,38.38l1.3,1.24.4.42.56.87.22.68.05.75-.14.68-.15.34-.53.92-.22.29L20,45l-.67.34-.7.14-1-.05L17,45.34l-1.72-.51-1.73-.4-3.73-.29-3.73.18L4.6,48l2.51,2.77L10,53.18l1.5.94L13,55l.49.3.76.7.4.59.24.72,0,.7-.06.36-.27,1-.14.34-.38.59-.56.5-.64.32-1,.22-.58,0-1.79,0-1.78.06-3.67.69L.52,63.2,0,67.12l3.14,2,3.38,1.62,1.69.51L10,71.7l.55.17.92.47.53.47.42.63.22.67,0,.36v1.06l0,.36-.22.67-.42.63-.53.47-.92.47L10,78.3l-1.75.43-1.69.51L3.14,80.86,0,82.88.52,86.8l3.56,1.14,3.67.69,1.78.06,1.79,0,.58,0,1,.22.64.32.56.5.38.59.14.34.27,1L15,92l0,.7-.24.72-.39.59-.77.7L13,95l-1.58.86-1.5.94L7.11,99.25,4.6,102l1.51,3.66,3.73.18,3.73-.29,1.73-.4,1.72-.51.57-.13,1,0,.7.14L20,105l.52.47.22.29.53.92.15.33.14.69-.05.75-.22.68-.56.87-.4.42L19,111.62l-1.21,1.29L15.7,116,14,119.32l2.4,3.14,3.66-.79,3.53-1.24,1.56-.84,1.53-.93.52-.28,1-.31.71,0,.74.14.62.32.29.23.75.75.23.29.32.62.14.74,0,.71-.31,1-.27.52-.94,1.53-.84,1.56L28.33,130l-.79,3.66,3.13,2.4L34,134.3l3.09-2.11L38.38,131l1.24-1.31.42-.39.87-.56.68-.22.75-.05.68.14.34.15.92.53.29.22L45,130l.34.67.14.7-.05,1-.13.57-.51,1.72-.4,1.73-.29,3.73.19,3.73L48,145.4l2.77-2.51,2.43-2.84.94-1.51L55,137l.31-.49.7-.76.59-.4.72-.24.69,0,.37.06,1,.27.34.14.59.38.5.56.32.64.21,1,0,.58,0,1.79.06,1.78.69,3.67,1.14,3.56,3.92.52,2-3.14,1.62-3.38.52-1.69L71.7,140l.17-.55.47-.92.47-.53.63-.42.66-.22.37,0h1.06l.37,0,.66.22.63.42.47.53.47.92.17.55.42,1.75.52,1.69,1.61,3.38,2,3.14,3.92-.52,1.14-3.56.69-3.67.06-1.78,0-1.79,0-.58.22-1,.32-.64.5-.56.59-.38.34-.14,1-.27L92,135l.7,0,.72.24.59.4.69.76L95,137l.85,1.57.94,1.51,2.43,2.84L102,145.4l3.65-1.51.19-3.73-.29-3.73-.4-1.73-.51-1.72-.13-.57,0-1,.14-.7L105,130l.46-.52.3-.22.92-.53.33-.15.69-.14.75.05.68.22.86.56.43.39,1.24,1.31,1.29,1.21L116,134.3l3.32,1.71,3.14-2.4-.79-3.66-1.24-3.53-.84-1.56-.94-1.53-.27-.52-.31-1,0-.71.14-.74.32-.62.23-.29.75-.75.29-.23.62-.32.74-.14.71,0,1,.31.52.27,1.53.94,1.56.84,3.53,1.24,3.65.79,2.41-3.14L134.3,116l-2.11-3.09L131,111.62l-1.29-1.24-.4-.42-.56-.87-.22-.68-.05-.75.14-.68.15-.34.53-.92.22-.29L130,105l.67-.34.7-.14,1,0,.57.13,1.72.51,1.73.4,3.73.29,3.73-.18L145.4,102l-2.51-2.77-2.84-2.43-1.5-.94L137,95l-.49-.3-.77-.7-.39-.59-.24-.72,0-.7.06-.36.27-1,.14-.34.38-.59.56-.5.64-.32,1-.22.58,0,1.79,0,1.78-.06,3.67-.69,3.56-1.14.52-3.92-3.14-2ZM30,42.11l-.89,2.33-.65,2.4-.39,2.47L28,51.8V98.2l.13,2.49.39,2.47.65,2.4.35.91a55.14,55.14,0,0,1,1.14-65.53ZM74.48,19.27a55,55,0,0,1,32,10.23l-.91-.35-2.41-.65-2.46-.39L98.2,28H51.8l-2.49.13-2.46.39-2.41.65L42.11,30l-1.18.6A55,55,0,0,1,74.48,19.27Zm0,110.42a55,55,0,0,1-29.87-8.79l2.24.6,2.46.39,2.49.13H98.2l2.49-.13,2.46-.39.46-.13A54.91,54.91,0,0,1,74.48,129.69Zm43.37-31.6-.11,2.17-.33,2-.53,2-.73,1.92-.94,1.83-1.12,1.73-1.29,1.6-1.46,1.45-1.59,1.29L108,115.21l-1.83.94-1.92.73-2,.53-2,.33-2.17.11H51.9l-2.16-.11-2-.33-2-.53-1.92-.73L42,115.21l-1.73-1.12-1.6-1.29-1.45-1.45-1.29-1.6L34.79,108l-.94-1.83-.73-1.92-.53-2-.33-2-.11-2.17V51.91l.11-2.17.33-2,.53-2,.73-1.92L34.79,42l1.12-1.73,1.29-1.6,1.45-1.45,1.6-1.29L42,34.79l1.83-.94,1.92-.73,2-.53,2-.33,2.16-.11H98.09l2.17.11,2,.33,2,.53,1.92.73,1.83.94,1.73,1.12,1.59,1.29,1.46,1.45,1.29,1.6L115.21,42l.94,1.83.73,1.92.53,2,.33,2,.11,2.17Zm3.52,5.52.12-.45.4-2.47L122,98.2V51.8l-.13-2.49-.4-2.47-.6-2.24a55.14,55.14,0,0,1,.48,59Z"/><rect class="cls-1" x="69.1" y="69.1" width="11.8" height="11.8"/><path class="cls-1" d="M100.06,63.56l0-.11.07-.11.09-.09.1-.07.11-.06.21-.07a11.54,11.54,0,1,0-13.76-13.6l-.11.18-.07.1-.09.09-.1.07-.12,0-.12,0H63.71l-.13,0-.11,0-.1-.07-.09-.09-.07-.1-.06-.11-.08-.21A11.53,11.53,0,1,0,49.48,63.08l.18.1.1.07.08.09.07.11.05.11,0,.12V86.29l0,.12-.05.12-.07.1-.08.09-.1.07-.12.06-.21.08A11.53,11.53,0,1,0,63.1,100.52l.11-.18.07-.1.09-.08.1-.07.11-.06.13,0H86.32l.12,0,.12.06.1.07.09.08.07.1.06.11.08.22A11.53,11.53,0,1,0,100.55,86.9l-.18-.11-.1-.07-.08-.09-.08-.1,0-.12,0-.12V63.68ZM61.38,58.35l0-.12.06-.11.28-.45L62,57.2l.24-.49.22-.49.19-.5.17-.51.15-.52.12-.52,0-.12.06-.12.07-.09.09-.09.1-.07.11,0,.13,0H86.29l.12,0,.12,0,.1.07.09.09.07.09.06.12,0,.12.13.52.14.52.18.51.19.5.22.49.24.49.26.47.28.45.06.11,0,.12,0,.12v.13l0,.12-.05.12-.06.11-.08.09-4,4-.1.09-.11.06-.12,0-.13,0H83.8l-.13,0-.12,0-1.33-.73h0a14.38,14.38,0,0,0-14.39,0h0l-1.34.73-.11,0-.13,0h-.13l-.13,0-.12,0-.11-.06-.1-.09-4-4L61.49,59l-.06-.11,0-.12,0-.12v-.13ZM84.13,75A9.13,9.13,0,1,1,75,65.87,9.13,9.13,0,0,1,84.13,75Zm-40-23.2a7.66,7.66,0,1,1,7.66,7.66A7.66,7.66,0,0,1,44.14,51.8Zm7.66,54.06a7.66,7.66,0,1,1,7.66-7.66A7.66,7.66,0,0,1,51.8,105.86ZM59,88.43l-.1.08-.1.06-.12.05-.12,0h-.13l-.12,0-.12,0-.11,0-.45-.29L57.2,88l-.49-.24-.49-.22-.5-.19-.51-.18L54.69,87l-.52-.12-.12,0-.11-.06-.11-.07-.08-.09-.07-.1,0-.12,0-.12,0-.12V63.83l0-.12,0-.13,0-.11.07-.1.08-.09.11-.07.11-.06.12,0,.52-.12.52-.14.51-.18.5-.19.49-.22L57.2,62l.47-.26.45-.29.11,0,.12,0,.12,0h.13l.12,0,.12,0,.1.06.1.08,4,4,.09.1.06.11,0,.12,0,.13v.13l0,.13,0,.12-.73,1.33v0a14.38,14.38,0,0,0,0,14.39v0l.73,1.33,0,.12,0,.13v.13l0,.13,0,.12-.06.11-.09.09Zm29.58,3.22,0,.12-.06.11-.28.45L88,92.8l-.24.49-.22.49-.19.5-.18.51-.14.52-.13.52,0,.12-.06.12-.07.09-.09.09-.1.07-.12.05-.12,0H63.71l-.13,0-.11-.05-.1-.07-.09-.09-.07-.09L63.15,96l0-.12L63,95.31l-.15-.52-.17-.51-.19-.5-.22-.49L62,92.8l-.26-.47-.28-.45-.06-.11,0-.12,0-.12V91.4l0-.12,0-.12.06-.11.08-.09,4-4,.1-.09.11-.06.12,0,.13,0h.13l.13,0,.11,0,1.34.73h0a14.38,14.38,0,0,0,14.39,0h0l1.33-.73.12,0,.13,0h.13l.13,0,.12,0,.11.06.1.09,4,4,.08.09.06.11.05.12,0,.12v.13Zm-1.71-7.27-.08-.09-.06-.11,0-.12,0-.13V83.8l0-.13,0-.12.73-1.33v0a14.4,14.4,0,0,0,0-14.4v0l-.73-1.33,0-.12,0-.13v-.13l0-.13,0-.12.06-.11.08-.1,4-4,.1-.08.1-.06.12,0,.12,0h.13l.12,0,.12,0,.11,0,.45.29.47.26.49.24.49.22.5.19.51.18.52.14.52.12.12,0,.11.06.11.07.08.09.07.1.05.11,0,.13,0,.12V86.17l0,.12,0,.12-.05.12-.07.1-.08.09-.11.07-.11.06-.12,0-.52.12-.52.14-.51.18-.5.19-.49.22L92.8,88l-.47.26-.45.29-.11,0-.12,0-.12,0H91.4l-.12,0-.12-.05-.1-.06-.1-.08Zm19,13.82a7.66,7.66,0,1,1-7.66-7.66A7.66,7.66,0,0,1,105.88,98.2ZM98.22,59.46a7.66,7.66,0,1,1,7.66-7.66A7.66,7.66,0,0,1,98.22,59.46Z"/></svg>