<?xml version="1.0" encoding="utf-8"?>
<!-- Generator: Adobe Illustrator 24.0.1, SVG Export Plug-In . SVG Version: 6.00 Build 0)  -->
<svg version="1.1" id="Layer_1" xmlns="http://www.w3.org/2000/svg" xmlns:xlink="http://www.w3.org/1999/xlink" x="0px" y="0px"
	 viewBox="0 0 20 20" style="enable-background:new 0 0 20 20;" xml:space="preserve">
<style type="text/css">
	.st0{fill:darkgray;}
</style>
<path class="st0" d="M10,0C4.5,0,0,4.5,0,10c0,5.5,4.5,10,10,10c5.5,0,10-4.5,10-10C20,4.5,15.5,0,10,0z M11.5,16.5H8.8V14h2.6V16.5
	z M14,7.6c0,0.4-0.1,0.8-0.3,1.1c-0.2,0.3-0.4,0.7-0.7,0.9l-0.8,0.7c-0.2,0.2-0.5,0.5-0.6,0.7c-0.2,0.3-0.2,0.6-0.2,1v0.1l0,0.5H8.8
	v-0.9c0-0.5,0.1-0.9,0.3-1.4l0,0C9.4,10,9.6,9.6,10,9.3l1-1c0.2-0.2,0.3-0.5,0.3-0.8c0-0.3-0.1-0.5-0.3-0.7l0,0h0
	c-0.2-0.2-0.5-0.3-0.9-0.3h0c-0.3,0-0.6,0.1-0.8,0.3h0l0,0C9,7,8.9,7.3,8.9,7.6V8H6.3l0-0.5v0c0-0.6,0.2-1.3,0.5-1.8
	c0.4-0.5,0.8-1,1.4-1.3C8.8,4.2,9.5,4,10.1,4h0.1c0.7,0,1.3,0.2,1.9,0.5c0.6,0.3,1.1,0.7,1.4,1.3C13.8,6.3,14,6.9,14,7.6L14,7.6z"/>
</svg>
