<svg xmlns="http://www.w3.org/2000/svg" width="500" height="500" viewBox="0 0 500 500"><defs><style>.a{fill:#ffab19;stroke:#e59a16;stroke-linecap:round;stroke-linejoin:round;stroke-width:3px;}.b{fill:#fff;}</style></defs><path class="a" d="M142.36084,132.42438a8.00021,8.00021,0,0,1,5.3667,2.06708l8.11374,7.33908a8.00011,8.00011,0,0,0,5.36661,2.067H176.9537a8,8,0,0,0,5.36661-2.06707l8.11353-7.33905a8,8,0,0,1,5.36661-2.06708h216.9327a8,8,0,0,0,8-8v-70.322a8,8,0,0,0-8-8H166.57727a7.99979,7.99979,0,0,0-5.36641,2.067l-8.11369,7.33914a8.00031,8.00031,0,0,1-5.3668,2.06714H131.98462a7.99962,7.99962,0,0,1-5.36628-2.06691l-8.114-7.33928a8.00024,8.00024,0,0,0-5.36669-2.06707H87.26685a8,8,0,0,0-8,8v380.322a8,8,0,0,0,8,8H113.1377a8.0002,8.0002,0,0,1,5.36669,2.06708l8.11377,7.33911a8,8,0,0,0,5.36654,2.067h15.74577a8.00023,8.00023,0,0,0,5.36677-2.06714l8.11345-7.339a8,8,0,0,1,5.36661-2.06708H412.73315a8,8,0,0,0,8-8v-32.8393a8,8,0,0,0-8-8H195.80045a8,8,0,0,0-5.36661,2.06708l-8.11355,7.33907a7.99993,7.99993,0,0,1-5.36655,2.06706H161.20789a7.99994,7.99994,0,0,1-5.36649-2.067l-8.11392-7.33925a7.99979,7.99979,0,0,0-5.3664-2.067H120.50024a8,8,0,0,1-8-8v-25.1607a8,8,0,0,1,8-8h21.8606a8.00021,8.00021,0,0,1,5.3667,2.06708l8.11374,7.33908a8.00011,8.00011,0,0,0,5.36661,2.067H176.9537a8,8,0,0,0,5.36661-2.06707l8.11346-7.339a8.00021,8.00021,0,0,1,5.36677-2.06714H412.73315a8,8,0,0,0,8-8v-52.8393a8,8,0,0,0-8-8H195.80054a8.00026,8.00026,0,0,0-5.36677,2.06714l-8.11348,7.339a7.99993,7.99993,0,0,1-5.36655,2.06706H161.20789a7.99994,7.99994,0,0,1-5.36649-2.067l-8.11392-7.33925a7.99979,7.99979,0,0,0-5.3664-2.067H120.50024a8,8,0,0,1-8-8v-25.1607a8,8,0,0,1,8-8h21.8606a8.00021,8.00021,0,0,1,5.3667,2.06708l8.11374,7.33908a8.00011,8.00011,0,0,0,5.36661,2.067H176.9537a8,8,0,0,0,5.36661-2.06707l8.11353-7.33905a8,8,0,0,1,5.36661-2.06708h216.9327a8,8,0,0,0,8-8v-52.8393a8,8,0,0,0-8-8H195.80054a8.00026,8.00026,0,0,0-5.36677,2.06714l-8.11348,7.339a7.99993,7.99993,0,0,1-5.36655,2.06706H161.20789a7.99994,7.99994,0,0,1-5.36649-2.067l-8.11392-7.33925a7.99979,7.99979,0,0,0-5.3664-2.067H120.50024a8,8,0,0,1-8-8v-25.1607a8,8,0,0,1,8-8Z"/><polygon class="b" points="400.827 316.812 370.374 299.23 370.374 334.394 400.827 316.812"/><polygon class="b" points="316.407 316.812 346.861 334.394 346.861 299.23 316.407 316.812"/></svg>