<svg xmlns="http://www.w3.org/2000/svg" viewBox="0 0 44.48582 47.99943" width="60" height="48">
<g id="Layer_2" data-name="Layer 2">
  <g id="Layer_1-2" data-name="Layer 1">
    <circle fill="#2CA3FC" cx="26.65061" cy="40.8654" r="1.78348"/>
    <path fill="#2CA3FC" d="M40.91868,19.46318H25.96922v1.78351h3.05932v1.189a.59443.59443,0,0,0,.59448.59449h4.75611a.59443.59443,0,0,0,.59448-.59449v-1.189H40.3242a2.378,2.378,0,0,1,2.37793,2.378v9.72253a2.38211,2.38211,0,0,0-1.78345-.805H34.97361v-1.189a.59448.59448,0,0,0-.59448-.59455H29.623a.59449.59449,0,0,0-.59448.59455v1.189H23.08347a2.385,2.385,0,0,0-1.78344.8056V29.53667H19.51658V44.43242a3.571,3.571,0,0,0,3.56689,3.567H40.91868a3.57139,3.57139,0,0,0,3.56714-3.567V23.0302A3.57144,3.57144,0,0,0,40.91868,19.46318Zm1.78345,24.37476a2.378,2.378,0,0,1-2.37793,2.378H23.678A2.378,2.378,0,0,1,21.3,43.83794V37.89287A2.378,2.378,0,0,1,23.678,35.51482H40.3242a2.378,2.378,0,0,1,2.37793,2.37805Z"/>
    <path fill="#2CA3FC" d="M9.29912,34.91249l-.526.526a2.7797,2.7797,0,0,1-.2093,3.67455l-.789.789-1.3231,1.3231-.98143.98143a2.77976,2.77976,0,0,1-3.93117-3.93117l3.09357-3.09357A2.77128,2.77128,0,0,1,6.59822,34.371a2.80942,2.80942,0,0,1,.55536.05767l.59053-.59056a3.52156,3.52156,0,0,0-1.14589-.19364A3.48178,3.48178,0,0,0,4.1189,34.66811L1.02533,37.76167A3.5063,3.5063,0,0,0,5.984,42.72032l1.0578-1.0578,1.39415-1.39415.64162-.64162a3.51469,3.51469,0,0,0,.22157-4.71426Z"/>
    <path fill="#2CA3FC" d="M14.7286,32.61319a3.51444,3.51444,0,0,0-4.95865,0l-.9844.9844.00055.00017-1.447,1.44649-.00014,0-.66253.66254a3.49886,3.49886,0,0,0-.2094,4.70212l.51387-.51384a2.77976,2.77976,0,0,1,.20927-3.67454l1.65278-1.65278.49524-.49535,0,.00007.94551-.94551a2.77976,2.77976,0,0,1,3.93117,3.93118L11.1213,40.15166a2.77124,2.77124,0,0,1-1.96559.81081,2.80971,2.80971,0,0,1-.55539-.05766l-.59053.59052a3.52194,3.52194,0,0,0,1.14592.19367A3.48171,3.48171,0,0,0,11.635,40.6654l3.09356-3.09357a3.51443,3.51443,0,0,0,0-4.95864Z"/>
    <polygon fill="#E8E9EA" points="9.338 34.072 8.843 34.568 9.338 34.072 9.338 34.072"/>
    <rect fill="#E8E9EA" x="7.03944" y="34.32077" width="2.04594" height="0.00036" transform="translate(-21.9036 15.74763) rotate(-44.98905)"/>
    <g id="MOTOR-190620">
      <g id="MOTOR-JUNE">
        <path id="MOTOR" fill="#2CA3FC" d="M3.567,28.53626A3.57119,3.57119,0,0,1,0,24.96923V3.567A3.57119,3.57119,0,0,1,3.567,0H21.4022a3.57119,3.57119,0,0,1,3.567,3.567v21.4022a3.57119,3.57119,0,0,1-3.567,3.567ZM1.78352,18.42967v5.94506a2.378,2.378,0,0,0,2.378,2.378H20.80769a2.378,2.378,0,0,0,2.378-2.378V18.42967a2.378,2.378,0,0,0-2.378-2.378H4.16154A2.378,2.378,0,0,0,1.78352,18.42967Zm0-14.26813v9.72314A2.38514,2.38514,0,0,1,3.567,13.07912H9.51209v-1.189a.59451.59451,0,0,1,.5945-.59451h4.75605a.59451.59451,0,0,1,.5945.59451v1.189H21.4022a2.38217,2.38217,0,0,1,1.78351.805V4.16154a2.378,2.378,0,0,0-2.378-2.378H15.45714v1.189a.5945.5945,0,0,1-.5945.5945h-4.756a.5945.5945,0,0,1-.5945-.5945v-1.189H4.16154A2.378,2.378,0,0,0,1.78352,4.16154Zm3.567,17.24066a1.78352,1.78352,0,1,1,1.78352,1.78351A1.78351,1.78351,0,0,1,5.35055,21.4022Z"/>
      </g>
    </g>
  </g>
</g>
</svg>
