<svg xmlns="http://www.w3.org/2000/svg" viewBox="0 0 26.29 11.5"><defs><style>.cls-1{fill:#fff;}</style></defs><title>logoIq</title><g id="Layer_2" data-name="Layer 2"><g id="Layer_1-2" data-name="Layer 1"><g id="IQ_Print_White" data-name="IQ Print White"><polygon class="cls-1" points="4.38 0 3.29 2.87 5.06 2.87 2.87 8.62 1.09 8.62 0 11.5 7.11 11.5 8.21 8.62 6.43 8.62 8.62 2.87 10.4 2.87 11.49 0 4.38 0"/><path class="cls-1" d="M23.64,0h-7.3a4.46,4.46,0,0,0-4.17,2.87h0l-2,5.31a2.45,2.45,0,0,0,2.29,3.32H20a4.44,4.44,0,0,0,2.45-.74l.63.74h1.77l.55-1.44L24.2,8.62l1.92-5A2.65,2.65,0,0,0,23.64,0ZM20.51,4.31,19.42,7.19l.91,1.07a2.21,2.21,0,0,1-1.22.36h-4a1.05,1.05,0,0,1-1-1.43h0l1.09-2.88a2.23,2.23,0,0,1,2.09-1.44h4a1.07,1.07,0,0,1,1,1.44l-.55,1.44Z"/></g></g></g></svg>