<svg xmlns="http://www.w3.org/2000/svg" viewBox="0 0 32.3 11.5"><defs><style>.cls-1{fill:#fff;}</style></defs><title>logoGo</title><g id="Layer_2" data-name="Layer 2"><g id="Layer_1-2" data-name="Layer 1"><g id="GO_Print_White" data-name="GO Print White"><path class="cls-1" d="M29.65,0h-7.3a4.46,4.46,0,0,0-4.17,2.87h0l-2,5.31a2.45,2.45,0,0,0,2.29,3.32H26a4.47,4.47,0,0,0,4.17-2.88h0l1.91-5A2.65,2.65,0,0,0,29.65,0ZM28.3,4.31h0L27.2,7.19a2.23,2.23,0,0,1-2.08,1.43h-4a1.06,1.06,0,0,1-1-1.43l1.1-2.88a2.23,2.23,0,0,1,2.08-1.44h4A1.07,1.07,0,0,1,28.3,4.31Z"/><path class="cls-1" d="M2.45,11.5A2.45,2.45,0,0,1,.16,8.18l2-5.31h0A4.46,4.46,0,0,1,6.35,0h7.3a2.65,2.65,0,0,1,2.48,3.59H12.57a.53.53,0,0,0-.49-.72H7.28A2.24,2.24,0,0,0,5.19,4.31h0L4.1,7.19h0a1,1,0,0,0,1,1.43h4A2.23,2.23,0,0,0,11.2,7.19H7.65L8.47,5h7.11L14.21,8.62h0A4.47,4.47,0,0,1,10,11.5Z"/></g></g></g></svg>