<svg id="Layer_1" data-name="Layer 1" xmlns="http://www.w3.org/2000/svg" width="32" height="32" viewBox="0 0 32 32"><defs><style>.cls-1{fill:#3fa9f5;}</style></defs><title>Data_Icon</title><path class="cls-1" d="M29,6a2.8,2.8,0,0,0-1.8.6L22.9,3.7A1.5,1.5,0,0,0,23,3a3,3,0,0,0-6,0,2.8,2.8,0,0,0,.6,1.8l-4.9,7.3H12a2.8,2.8,0,0,0-1.8.6L5.9,9.7A1.5,1.5,0,0,0,6,9,2.9,2.9,0,0,0,3,6,2.9,2.9,0,0,0,0,9a2.9,2.9,0,0,0,3,3,2.8,2.8,0,0,0,1.8-.6l4.3,2.9A1.5,1.5,0,0,0,9,15a3,3,0,0,0,6,0,2.8,2.8,0,0,0-.6-1.8l4.9-7.3H20a2.8,2.8,0,0,0,1.8-.6l4.3,2.9A1.5,1.5,0,0,0,26,9a3,3,0,0,0,6,0A2.9,2.9,0,0,0,29,6ZM3,10A.9.9,0,0,1,2,9,.9.9,0,0,1,3,8,.9.9,0,0,1,4,9,.9.9,0,0,1,3,10Zm9,6a1,1,0,1,1,1-1A.9.9,0,0,1,12,16ZM20,4a.9.9,0,0,1-1-1,1,1,0,0,1,2,0A.9.9,0,0,1,20,4Zm9,6a.9.9,0,0,1-1-1,1,1,0,0,1,2,0A.9.9,0,0,1,29,10Z"/><rect class="cls-1" y="18.2" width="6" height="13.85" rx="1"/><rect class="cls-1" x="9" y="22.3" width="6" height="9.69" rx="1"/><rect class="cls-1" x="17" y="14" width="6" height="18" rx="1"/><rect class="cls-1" x="26" y="18.2" width="6" height="13.85" rx="1"/></svg>