<svg id="Layer_1" data-name="Layer 1" xmlns="http://www.w3.org/2000/svg" width="32" height="32" viewBox="0 0 32 32"><defs><style>.cls-1{fill:#ff9233;}</style></defs><title>Dashboard_Icon_Active</title><path class="cls-1" d="M31.9,17.1A16.2,16.2,0,0,0,17.8,3.3,16,16,0,0,0,0,19.2a15.8,15.8,0,0,0,2.2,8.1,3.3,3.3,0,0,0,2.7,1.5H27.1a3.3,3.3,0,0,0,2.7-1.5A16.6,16.6,0,0,0,31.9,17.1ZM15.2,5.1a1.1,1.1,0,0,1,.8-.3h1.1a.7.7,0,0,1,.6.3,1.1,1.1,0,0,1,.3.7l-.2,2.9a1.6,1.6,0,0,1-.4.7l-.6.3H16a1,1,0,0,1-1-1V5.8A1.9,1.9,0,0,1,15.2,5.1ZM6.9,21a1,1,0,0,1-1,1H3a.9.9,0,0,1-.7-.3A.9.9,0,0,1,2,21V19.9a1.6,1.6,0,0,1,.4-.7,1,1,0,0,1,.7-.2l2.9.2a.9.9,0,0,1,.7.3,1.1,1.1,0,0,1,.2.8ZM9,13l-.5.5a1.1,1.1,0,0,1-.7.3.8.8,0,0,1-.7-.3L5,11.4a.8.8,0,0,1-.3-.7A1.1,1.1,0,0,1,5,10l.8-.7A1.1,1.1,0,0,1,6.6,9c.2.1.5.2.6.4h0l1.9,2.2a.9.9,0,0,1,.3.7A1.6,1.6,0,0,1,9,13ZM19,27.7H13a3.6,3.6,0,0,1-.2-1,3.2,3.2,0,0,1,.7-2,3.6,3.6,0,0,1,1.6-1.1L21.5,9.5a1.6,1.6,0,1,1,2.9,1.3L18.3,24.4a4.1,4.1,0,0,1,.7,1.1,5,5,0,0,1,.2,1.2A3.6,3.6,0,0,1,19,27.7Zm5.1-13.6,1.3-2.9a2.7,2.7,0,0,0,.2-1.3l.6-.2h.1a.6.6,0,0,1,.6.3,6,6,0,0,1,.8.8,1.1,1.1,0,0,1-.1,1.4l-2.2,1.9-.7.2Zm5.9,8a1.1,1.1,0,0,1-1,.9l-3-.2a1,1,0,0,1-.9-1.1V21a.9.9,0,0,1,1-1H29a1.1,1.1,0,0,1,.7.3.9.9,0,0,1,.3.7Z"/></svg>