<svg id="b76cc42f-63b1-4f78-a246-28ae72f20c8e" data-name="Layer 1" xmlns="http://www.w3.org/2000/svg" width="305" height="305" viewBox="0 0 305 305"><defs><style>.bc120710-bf78-4f60-84b3-784ad0dbfcbe{fill:#2699fb;}</style></defs><title>VEXcode Code Icon</title><path class="bc120710-bf78-4f60-84b3-784ad0dbfcbe" d="M46.4,132.91l79-47.17a1.7,1.7,0,0,1,2.48,1.67V124.8a1.94,1.94,0,0,1-.93,1.7L84.49,150.29a2,2,0,0,0,0,3.39l42.45,23.79a1.94,1.94,0,0,1,.93,1.7v38.42a1.7,1.7,0,0,1-2.48,1.67l-79-47.17a1.92,1.92,0,0,1-.9-1.67V134.58A1.92,1.92,0,0,1,46.4,132.91Z"/><path class="bc120710-bf78-4f60-84b3-784ad0dbfcbe" d="M258.6,172.09l-79,47.17a1.7,1.7,0,0,1-2.48-1.67V180.2a1.94,1.94,0,0,1,.93-1.7l42.45-23.79a2,2,0,0,0,0-3.39l-42.45-23.79a1.94,1.94,0,0,1-.93-1.7V87.41a1.7,1.7,0,0,1,2.48-1.67l79,47.17a1.92,1.92,0,0,1,.9,1.67v35.84A1.92,1.92,0,0,1,258.6,172.09Z"/></svg>