<svg id="Layer_1" data-name="Layer 1" xmlns="http://www.w3.org/2000/svg" width="32" height="32" viewBox="0 0 32 32"><defs><style>.cls-1{fill:#3fa9f5;}</style></defs><title>Connect_Icon</title><path class="cls-1" d="M3.8,26.5V15.4A1.4,1.4,0,0,1,5.2,14h6v2.4a1.8,1.8,0,0,0,.5,1.3,2,2,0,0,0,1.1.3H16V7.3H12.7a1.3,1.3,0,0,0-1.1.5A1.7,1.7,0,0,0,11.2,9v1.8h-6A4.7,4.7,0,0,0,.6,15.4V26.5a4.7,4.7,0,0,0,4.6,4.6H31.5V27.9H5.2A1.4,1.4,0,0,1,3.8,26.5Z"/><path class="cls-1" d="M25.5,7.3H17V18H29a1.4,1.4,0,0,0,1.1-.5,1.3,1.3,0,0,0,.3-1V11.1h.8l.8-.8V7.4a1.9,1.9,0,0,0-1.4-2H26.8L12.8.5a1.5,1.5,0,0,0-1.3.2A1.8,1.8,0,0,0,10.8,2l.5.9Z"/></svg>