<svg id="Layer_1" data-name="Layer 1" xmlns="http://www.w3.org/2000/svg" width="32" height="32" viewBox="0 0 32 32"><defs><style>.cls-1{fill:#3fa9f5;}</style></defs><title>Controller_Icon</title><path class="cls-1" d="M31.8,13.1c0-1.1-.1-2.1-.1-2.9a5.1,5.1,0,0,0-3.1-4.6,1.3,1.3,0,0,0-1.1-1.1l-2.7-.2c-.3-.1-.6.1-.7.5L21,4.6h0l-5-.2h0l-5,.2h0l-3.1.2c-.1-.4-.4-.6-.7-.5l-2.7.2A1.3,1.3,0,0,0,3.4,5.6,5.1,5.1,0,0,0,.3,10.2c0,.7-.1,1.6-.1,2.6a43,43,0,0,0,.1,8.9A3.3,3.3,0,0,0,1.5,24l4.9,3.5a1.5,1.5,0,0,0,2.2-.7l2-5.9H21.4l2,5.9a1.5,1.5,0,0,0,2.2.7L30.5,24a3.3,3.3,0,0,0,1.2-2.3A40.1,40.1,0,0,0,31.8,13.1Zm-25.9.5H5.5a3.2,3.2,0,0,1-3.2-3.2A3.3,3.3,0,0,1,5.5,7.2a3.2,3.2,0,0,1,3.2,3.2,5.9,5.9,0,0,1-.2,1.4A3.3,3.3,0,0,1,5.9,13.6Zm1.9,1.7a1.2,1.2,0,1,1,2.4,0,1.2,1.2,0,1,1-2.4,0Zm3.1,3.9a1.3,1.3,0,0,1-1.2-1.3,1.2,1.2,0,0,1,1.2-1.2,1.2,1.2,0,0,1,1.3,1.2A1.3,1.3,0,0,1,10.9,19.2Zm6.9-5.8-.3,1.1-.2.2H14.7l-.2-.2-.3-1.1c-.1-.1.1-.3.2-.3h3.2C17.7,13.1,17.9,13.3,17.8,13.4Zm3.3,5.8a1.3,1.3,0,0,1-1.3-1.3,1.2,1.2,0,0,1,1.3-1.2,1.2,1.2,0,0,1,1.2,1.2A1.3,1.3,0,0,1,21.1,19.2ZM23,16.5a1.2,1.2,0,0,1-1.2-1.2,1.2,1.2,0,1,1,2.4,0A1.2,1.2,0,0,1,23,16.5Zm3.5-2.9h-.4a3.3,3.3,0,0,1-2.6-1.8,5.9,5.9,0,0,1-.2-1.4,3.2,3.2,0,0,1,3.2-3.2,3.3,3.3,0,0,1,3.2,3.2A3.2,3.2,0,0,1,26.5,13.6Z"/></svg>