<svg id="Layer_1" data-name="Layer 1" xmlns="http://www.w3.org/2000/svg" width="32" height="32" viewBox="0 0 32 32"><defs><style>.cls-1{fill:#ff9233;}</style></defs><title>Robot_Icon_Active</title><path class="cls-1" d="M31.4,19a5.2,5.2,0,0,0-2.2-1.4,4,4,0,0,1-1.5-.3,1.5,1.5,0,0,1,.2-2.6,6.1,6.1,0,0,1,1.3-.3,4.9,4.9,0,0,0,2.4-1.6c.3-.3.3-.3.3-.7a3.6,3.6,0,0,0-.2-1c-.3-.3-1.3-.3-1.7-.4a3.7,3.7,0,0,0-2.1.3c-1,.3-2.1.3-2.5-.9s1-1.7,1.6-2.5a5.7,5.7,0,0,0,1.1-2.7l-.7-.7a.8.8,0,0,0-.8-.1,6.7,6.7,0,0,0-1.8.7c-.8.5-1.3,1.8-2.4,1.8a1.5,1.5,0,0,1-1.5-2.1,3.5,3.5,0,0,0,.4-1.7,5.3,5.3,0,0,0-.1-1.3C21.1.7,21.1.4,20.3.2s-1,.1-1.5.6L17.9,2a10.5,10.5,0,0,0-.4,1.7,1.6,1.6,0,0,1-2.5.9,1.8,1.8,0,0,1-.5-1.2,6.2,6.2,0,0,0-.7-1.9A6.3,6.3,0,0,0,12.7.3c-.4-.3-.2-.2-.7-.2l-.9.2a4.5,4.5,0,0,0-.4,2A3.6,3.6,0,0,0,11,4.1a3.4,3.4,0,0,1,.2,1.4,1.5,1.5,0,0,1-2.6.6A12,12,0,0,0,7.5,4.9L6.3,4.3l-.7-.2c-.5-.1-.5-.2-.9.1S4,5,4.2,5.7a4.7,4.7,0,0,0,.6,1.5c.3.6.8.8,1.3,1.3a1.6,1.6,0,0,1-.4,2.6,1.7,1.7,0,0,1-1.2,0,4.5,4.5,0,0,0-2-.4l-1.6.2c-.5.2-.4.1-.6.5a2.6,2.6,0,0,0-.3.8c.1.8,1.6,1.7,2.3,2s2.2.1,2.5,1.3-.6,1.9-1.6,2.1a3.3,3.3,0,0,0-1.9.8c-.4.2-1.2.8-1.3,1.2s.2.8.2.9.5.5,1,.6a6,6,0,0,0,2.3.2,4.9,4.9,0,0,1,1.6-.5A1.5,1.5,0,0,1,6.4,23a4.3,4.3,0,0,1-1,.9,6.5,6.5,0,0,0-1.3,2.3c-.2.7-.2,1.2.5,1.6a.8.8,0,0,0,.8.1l.9-.3a3.9,3.9,0,0,0,1.9-1.2c.6-.8,1.5-1.4,2.5-.6s.1,1.9,0,2.9a4.9,4.9,0,0,0,.3,2.7,1.4,1.4,0,0,0,1.6.4,4.7,4.7,0,0,0,1.3-1.5,4.3,4.3,0,0,0,.5-1.6,2.1,2.1,0,0,1,.7-1.3,1.5,1.5,0,0,1,2.4,1,5.3,5.3,0,0,0,.4,1.6,8.6,8.6,0,0,0,.7,1l.6.6c.4.4.5.4,1,.2s.5-.1.7-.4.2-.6.3-.9a7.1,7.1,0,0,0,.1-1.4,8.5,8.5,0,0,0-.4-1.7,1.5,1.5,0,0,1,1.7-2,2.3,2.3,0,0,1,1,.7,5.4,5.4,0,0,0,1.6,1.4,4.3,4.3,0,0,0,1.6.5,1.8,1.8,0,0,0,1.2-.9c.2-.7-.7-2.3-1.1-2.8s-1.9-1.2-1.4-2.5,1.5-1.1,2.5-.7a4.1,4.1,0,0,0,2.2.2l.9-.2c.5-.2.4-.1.6-.5S31.9,19.5,31.4,19ZM16,21.5a5.6,5.6,0,0,1-3.5-9.8A5.5,5.5,0,0,1,21.4,17,5.5,5.5,0,0,1,16,21.5Z"/></svg>