<svg xmlns="http://www.w3.org/2000/svg" width="500" height="500" viewBox="0 0 500 500"><defs><style>.a,.b,.c,.d,.e,.h{fill:none;}.a,.b,.c,.d,.e{stroke:#a3a3a3;stroke-linecap:round;stroke-linejoin:round;}.a,.b,.c,.d{stroke-width:4.42062px;}.b{stroke-dasharray:19.50908 15.96198;}.c{stroke-dasharray:16.89825 13.82584;}.d{stroke-dasharray:17.04392 13.94503;}.e{stroke-width:11.38246px;}.f{fill:#a3a3a3;}.g{fill:#fff;}</style></defs><line class="a" x1="404.10522" y1="103.82007" x2="394.4187" y2="103.82007"/><path class="b" d="M378.45679,103.82007H46.58105A17.612,17.612,0,0,0,28.969,121.43213V378.56787a17.61215,17.61215,0,0,0,17.61206,17.61206H453.419A17.612,17.612,0,0,0,471.031,378.56787V188.41345"/><line class="a" x1="471.03101" y1="180.43243" x2="471.03101" y2="170.74585"/><polyline class="a" points="461.344 170.746 471.031 170.746 464.182 163.896"/><line class="c" x1="454.40527" y1="154.12" x2="415.84302" y2="115.55774"/><polyline class="a" points="410.955 110.67 404.105 103.82 404.105 113.507"/><path class="d" d="M404.10522,127.45172v25.68207a17.612,17.612,0,0,0,17.61207,17.61206h32.65454"/><path class="e" d="M182.27438,194.34361l94.47439,86.50667a25.79388,25.79388,0,0,0,26.17966,26.17965,18.8782,18.8782,0,0,0,10.81333-3.45185"/><line class="e" x1="239.19114" y1="246.46016" x2="185.53261" y2="246.46016"/><line class="e" x1="260.81333" y1="266.25879" x2="247.66373" y2="279.4084"/><circle class="f" cx="343.90527" cy="281.98853" r="18.21193"/><rect class="f" x="168.61543" y="203.44957" width="61.11885" height="118.37755" rx="4.42062"/><circle class="g" cx="187.96561" cy="314.99765" r="21.62667"/><circle class="f" cx="187.96561" cy="314.99765" r="18.21193"/><path class="g" d="M256.26074,288.416a6.42774,6.42774,0,0,1,0-12.85547h87.64453a6.42773,6.42773,0,1,1,0,12.85547Z"/><path class="g" d="M343.90527,276.2973a5.69123,5.69123,0,0,1,0,11.38245h-87.645a5.69123,5.69123,0,0,1,0-11.38245h87.645m0-1.47351h-87.645a7.16474,7.16474,0,1,0,0,14.32947h87.645a7.16474,7.16474,0,1,0,0-14.32947Z"/><line class="e" x1="256.26035" y1="281.98853" x2="343.90527" y2="281.98853"/><rect class="f" x="216.42175" y="268.32958" width="55.77404" height="51.22106" rx="4.42062"/><rect class="f" x="268.78105" y="254.67063" width="43.25334" height="25.04141" rx="4.42062"/><circle class="g" cx="242.6014" cy="314.99765" r="21.62667"/><circle class="f" cx="242.6014" cy="314.99765" r="18.21193"/><circle class="h" cx="217.96651" cy="215.82027" r="3.74792"/><path class="f" d="M142.30371,261.90234h74.251a5.15625,5.15625,0,0,1,5.15625,5.15625v13.92383a5.15723,5.15723,0,0,1-5.15723,5.15723h-74.25a5.15723,5.15723,0,0,1-5.15723-5.15723V267.05957A5.15723,5.15723,0,0,1,142.30371,261.90234Z"/><path class="g" d="M216.5542,262.63837a4.42066,4.42066,0,0,1,4.42065,4.42059v13.92371a4.42067,4.42067,0,0,1-4.42065,4.42059H142.30347a4.42067,4.42067,0,0,1-4.42066-4.42059V267.059a4.42067,4.42067,0,0,1,4.42066-4.42059H216.5542m0-1.47351H142.30347a5.90092,5.90092,0,0,0-5.89429,5.8941v13.92371a5.90092,5.90092,0,0,0,5.89429,5.8941H216.5542a5.90092,5.90092,0,0,0,5.89429-5.8941V267.059a5.90092,5.90092,0,0,0-5.89429-5.8941Z"/></svg>