<svg xmlns="http://www.w3.org/2000/svg" viewBox="0 0 500 500">
<path d="M354.14 127.88 334.12 151.83 409 302.62 453.4 302.62 354.14 127.88z" fill="none"/>
<path d="M258.64,108.33a12.58,12.58,0,0,1,2.18-4.6,12.74,12.74,0,0,1,8.5-5l2.05-.28-2.45-5-38-16.2-127.64,182,14.62,19.15a45.87,45.87,0,0,1,14.49-2.95Z" fill="none"/>
<path d="M176.8,304.06l92.25-119.59-4.53-30.26L164.41,286.73A46.19,46.19,0,0,1,176.8,304.06Z" fill="none"/>
<path d="M291.63 162.81 299.05 153.95 286.54 128.77 291.63 162.81z" fill="none"/>
<path d="M321.71 126.85 330.6 116.21 317.32 118.01 321.71 126.85z" fill="none"/>
<path d="M151.24,449.06V437.14H57.58v11.92H9.91a3.41,3.41,0,0,0-3.41,3.41V474.6A3.41,3.41,0,0,0,9.91,478h189a3.41,3.41,0,0,0,3.4-3.41V452.47a3.41,3.41,0,0,0-3.4-3.41H151.24Zm44.27,22.14H13.31V455.87h182.2Z" fill="#333"/>
<path d="M493.23,309.1a16.17,16.17,0,0,0-1.79-5,1.17,1.17,0,0,0-.05-.11L374.18,97.65A12.59,12.59,0,0,0,372.71,93a12.75,12.75,0,0,0-12.89-6.49l-54.39,7.37L281.27,44.58,280,41.7c-.46-1-4.62-10.06-9.87-14.53-9.4-8-18.94-4.37-19.22-4.26l-25.1,9c-.47.18-9.89,3.79-12.54,14.14L73.29,245.65a.75.75,0,0,0-.07.12,16.14,16.14,0,0,0,8.63,24.65L93.72,286a88.93,88.93,0,0,1,17.82,3.47,39.13,39.13,0,0,1,56.67,51.3q1.64,3.92,2.9,8a45.78,45.78,0,0,0,8.53-34.44l94.95-123.08a13.72,13.72,0,0,0,11.35,10.38L171.47,350a89.48,89.48,0,0,1,2.44,10.77l127.21-164.9a4.25,4.25,0,0,0,.23-4.85l10.1-12.08L381.1,319.18l0,0v14.07a8.52,8.52,0,0,0,8.51,8.52H485a8.52,8.52,0,0,0,8.51-8.52V311.14A8.51,8.51,0,0,0,493.23,309.1ZM264.57,33.65c2.17,1.86,4.42,5.44,6,8.28l-4,2a19.72,19.72,0,0,0-8.79,26.41l5.53,11.36L230.83,67.91a19.7,19.7,0,0,1-3.64-2.69,13.26,13.26,0,0,0,2.76.29,13.63,13.63,0,0,0,13.48-15.63,13.7,13.7,0,0,0-10.82-11.34l21.21-7.64C254,30.82,259.17,29.05,264.57,33.65Zm131,287.7A9.37,9.37,0,1,1,405,312,9.38,9.38,0,0,1,395.59,321.35ZM77.17,254.94a9.37,9.37,0,1,1,9.36,9.37A9.37,9.37,0,0,1,77.17,254.94ZM230,45.08a6.81,6.81,0,0,1,1,13.55,7,7,0,0,1-1,.07,6.81,6.81,0,0,1-1-13.55A7,7,0,0,1,230,45.08Zm-6.57,28.05L101,247.7a16.19,16.19,0,0,0-12.54-8.81L213.85,60A28.11,28.11,0,0,0,223.39,73.13Zm50.14,50.21a7,7,0,0,1-1,.07,6.81,6.81,0,0,1-1-13.55,7,7,0,0,1,1-.07,6.81,6.81,0,0,1,1,13.55ZM103.29,259.22l127.64-182,38,16.2,2.45,5-2.05.28a12.74,12.74,0,0,0-8.5,5,12.58,12.58,0,0,0-2.18,4.6L132.4,275.42a45.87,45.87,0,0,0-14.49,2.95ZM259.67,121.08A13.71,13.71,0,0,0,272,130.2L157.51,281.74a45.79,45.79,0,0,0-15-5.6Zm4.85,33.13,4.53,30.26L176.8,304.06a46.19,46.19,0,0,0-12.39-17.33Zm23.33,40.73a6.81,6.81,0,0,1-1-13.55,7,7,0,0,1,1-.07,6.81,6.81,0,0,1,1,13.55A7,7,0,0,1,287.85,194.94Zm-2.29-87.29-.2.1-20-41.16a11.21,11.21,0,0,1,5-15l3.93-2,25.06,51.11s0,0,0,0l-.07,0,96.87,195.07-.54,0a16.16,16.16,0,0,0-13.19,6.84ZM409,302.62,334.12,151.83l20-24L453.4,302.62ZM356.68,94.54a6.81,6.81,0,1,1-5.74,7.74A6.81,6.81,0,0,1,356.68,94.54ZM486.69,312a9.37,9.37,0,1,1-9.37-9.37A9.37,9.37,0,0,1,486.69,312ZM370.47,108.36,477,295.83a16.15,16.15,0,0,0-12.8,6.79h-1L360,120.91Zm-48.76,18.49L317.32,118l13.28-1.8Zm-30.08,36-5.09-34L299.05,154Z" fill="#333"/>
<path d="M16.72,415H32V326.46H16.72a6.82,6.82,0,0,0-6.81,6.81v74.92A6.82,6.82,0,0,0,16.72,415Z" fill="#333"/>
<path d="M85.57,289H47.14a11.71,11.71,0,0,0-11.69,11.7v133H171.67V375.1A86.19,86.19,0,0,0,85.57,289Z" fill="#333"/>
</svg>
