<svg xmlns="http://www.w3.org/2000/svg" viewBox="0 0 42.48464 35.86821">
<g id="Layer_2" data-name="Layer 2">
  <g id="Layer_1-2" data-name="Layer 1">
    <path fill="#474d53" d="M36.36687,17.51567V24.9926h4.75805a.67976.67976,0,0,1,.67972.67972v2.03916a.67973.67973,0,0,1-.67972.67972H36.36687v.67973h4.75805a.67975.67975,0,0,1,.67972.67972v2.03916a.67973.67973,0,0,1-.67972.67972H36.36687V33.829a2.03916,2.03916,0,0,1-2.03916,2.03916h-2.7188V15.47655l2.7188,0A2.03916,2.03916,0,0,1,36.36687,17.51567Z"/>
    <path fill="#00ACD8" d="M37.04659,20.23456h5.10467l.0139.00029a.33307.33307,0,0,1,.3192.34637v.67972a.33309.33309,0,0,1-.3331.33306H37.04659Z"/>
    <path fill="none" d="M5.75133,28.38668A3.02978,3.02978,0,0,1,6.644,26.22877l.65769-.65774a2.10494,2.10494,0,0,0-.41616-.04322,2.07664,2.07664,0,0,0-1.47291.60759L3.09441,28.45357A2.083,2.083,0,0,0,6.04024,31.3994l.73543-.73544c-.04419-.03937-.0895-.0772-.13171-.11937A3.0298,3.0298,0,0,1,5.75133,28.38668Z"/>
    <path fill="#00ACD8" d="M8.90941,25.93356l-.39416.39414a2.083,2.083,0,0,1-.15684,2.75353l-.59127.59127-.99147.99146-.73543.73544a2.083,2.083,0,0,1-2.94583-2.94583L5.41258,26.1354a2.07664,2.07664,0,0,1,1.47291-.60759,2.10494,2.10494,0,0,1,.41616.04322l.44251-.44254a2.63869,2.63869,0,0,0-.85867-.1451,2.6091,2.6091,0,0,0-1.85789.767L2.70944,28.0686a2.62745,2.62745,0,0,0,3.71577,3.71577l.79266-.79266L8.26258,29.947l.4808-.4808a2.63372,2.63372,0,0,0,.166-3.53264Z"/>
    <path fill="none" d="M8.18136,26.5898l-.23233-.296.61852-.61864L7.329,26.91371a2.083,2.083,0,0,0-.15682,2.75353l.886-.886A1.65573,1.65573,0,0,0,8.18136,26.5898Z"/>
    <path fill="#00ACD8" d="M12.978,24.21057a2.63357,2.63357,0,0,0-3.71578,0l-.73766.73766.00042.00013L7.44064,26.03229l-.0001,0-.49647.49647a2.62188,2.62188,0,0,0-.15692,3.52355l.38507-.385A2.083,2.083,0,0,1,7.329,26.91371L8.56755,25.6752l.37111-.37119,0,0,.70852-.70852A2.083,2.083,0,0,1,12.593,27.54137l-2.31817,2.31817a2.07663,2.07663,0,0,1-1.47292.60759,2.10531,2.10531,0,0,1-.41619-.04322l-.44251.44251a2.639,2.639,0,0,0,.8587.14513,2.609,2.609,0,0,0,1.85789-.767L12.978,27.92634a2.63356,2.63356,0,0,0,0-3.71577Z"/>
    <polygon fill="#E8E9EA" points="8.939 25.304 8.568 25.675 8.939 25.304 8.939 25.304"/>
    <rect fill="#E8E9EA" x="7.21612" y="25.49015" width="1.53313" height="0.00027" transform="translate(-15.68391 13.10602) rotate(-44.98905)"/>
    <path fill="#474d53" d="M6.11777,2.03916V9.51609h-4.758A.67976.67976,0,0,0,.68,10.19581V12.235a.67973.67973,0,0,0,.67972.67972H6.11777v.67972h-4.758A.67976.67976,0,0,0,.68,14.27413V16.3133a.67973.67973,0,0,0,.67972.67972H6.11777v1.35944a2.03916,2.03916,0,0,0,2.03916,2.03916h2.7188V0L8.15693,0A2.03916,2.03916,0,0,0,6.11777,2.03916Z"/>
    <path fill="#474d53" d="M24.47023,0,11.55545,0V20.39162H24.47023a2.03916,2.03916,0,0,0,2.03916-2.03916V2.03916A2.03916,2.03916,0,0,0,24.47023,0Zm.67963,15.63362h-12.235V14.9539h12.235Zm0-2.03917h-12.235v-.67972h12.235Zm0-2.03916h-12.235v-.67972h12.235Zm0-2.03916h-12.235V8.83641h12.235Z"/>
    <path fill="#00ACD8" d="M5.438,4.758H.33338l-.0139.00029a.33308.33308,0,0,0-.3192.34638v.67972a.33309.33309,0,0,0,.3331.33306H5.438Z"/>
    <path fill="#474d53" d="M27.50945,15.47661v2.87573a3.04263,3.04263,0,0,1-3.03925,3.0393H15.97527V33.8289a2.03926,2.03926,0,0,0,2.03912,2.03931h12.9148V15.47661Zm2.0603,15.63354h-12.235v-.67969h12.235Zm0-2.03931h-12.235v-.67968h12.235Zm0-2.03906h-12.235v-.67969h12.235Zm0-2.03906h-12.235V24.313h12.235Z"/>
  </g>
</g>
</svg>
