<?xml version="1.0" encoding="utf-8"?>
<!-- Generator: Adobe Illustrator 24.1.1, SVG Export Plug-In . SVG Version: 6.00 Build 0)  -->
<svg version="1.1" xmlns="http://www.w3.org/2000/svg" xmlns:xlink="http://www.w3.org/1999/xlink" x="0px" y="0px"
	 viewBox="0 0 2991 355" style="enable-background:new 0 0 2991 355;" xml:space="preserve">
<style type="text/css">
	.st0{fill:#FFFFFF;}
	.st1{fill:#FFFFFF;}
</style>
<g id="Layer_1">
</g>
<g id="ARTWORK">
</g>
<g id="Artwork">
</g>
<g id="Isolation_Mode">
	<g>
		<g>
			<g id="PRO_Print_5_">
				<g>
					<path class="st0" d="M1139.5,337.2h1.7c1,0,1.8,0.2,2.3,0.6c0.8,0.5,1.8,1.9,3,4.1l1.6,2.8h3.5l-2.2-3.5
						c-1-1.7-1.9-2.8-2.6-3.5c-0.4-0.4-0.9-0.7-1.5-0.9c1.5-0.1,2.8-0.7,3.7-1.6c0.9-1,1.4-2.1,1.4-3.4c0-0.9-0.3-1.8-0.8-2.6
						c-0.6-0.8-1.3-1.4-2.2-1.7c-0.9-0.3-2.4-0.5-4.5-0.5h-6.1v17.7h2.9V337.2z M1139.5,329.4h3.2c1.4,0,2.4,0.1,2.9,0.3
						c0.5,0.2,0.9,0.5,1.2,0.9c0.3,0.4,0.4,0.9,0.4,1.4c0,0.8-0.3,1.5-0.9,2c-0.6,0.5-1.7,0.7-3.4,0.7h-3.5V329.4z"/>
					<path class="st0" d="M1135.6,349.9c2.6,1.5,5.4,2.2,8.2,2.2c2.8,0,5.6-0.7,8.2-2.2c2.6-1.4,4.7-3.5,6.1-6.1
						c1.5-2.6,2.2-5.3,2.2-8.2c0-2.9-0.7-5.6-2.2-8.3c-1.5-2.6-3.5-4.7-6.2-6.1c-2.6-1.4-5.3-2.1-8.1-2.1s-5.5,0.7-8.1,2.1
						c-2.6,1.4-4.7,3.5-6.2,6.1c-1.5,2.6-2.2,5.4-2.2,8.3c0,2.8,0.7,5.6,2.2,8.2C1131,346.5,1133,348.5,1135.6,349.9z M1131.9,328.7
						c1.2-2.2,3-3.9,5.1-5.1c2.2-1.2,4.5-1.8,6.8-1.8c2.3,0,4.6,0.6,6.7,1.8c2.2,1.2,3.9,2.9,5.1,5.1c1.2,2.2,1.9,4.5,1.9,6.9
						c0,2.4-0.6,4.6-1.8,6.8c-1.2,2.2-2.9,3.9-5.1,5.1c-2.2,1.2-4.5,1.8-6.8,1.8c-2.4,0-4.7-0.6-6.8-1.8c-2.2-1.2-3.9-2.9-5.1-5.1
						c-1.2-2.2-1.8-4.5-1.8-6.8C1130.1,333.3,1130.7,331,1131.9,328.7z"/>
				</g>
			</g>
			<g>
				<path class="st1" d="M1233.7,352.2c-31.1,0-52.6-31.2-41.6-60.3l36.7-96.2l0,0c12-31.4,42.1-52.2,75.7-52.2h132.4
					c33.7,0,56.9,33.7,44.9,65.2c0,0,0,0,0,0l-5,13h-64.5l0,0c4.8-12.6-4.5-26.1-18-26.1h-73.2c-16.8,0-31.9,10.4-37.9,26v0
					l-19.8,52.2v0c-4.8,12.6,4.5,26.1,18,26.1h73.2c16.8,0,31.9-10.4,37.9-26.1c0,0,0,0,0,0h64.5l-9.9,26.1v0
					c-12,31.4-42.1,52.2-75.7,52.2H1233.7z"/>
				<path class="st1" d="M1727.3,143.5h-132.4c-33.6,0-63.7,20.8-75.7,52.2v0l-36.7,96.2c-11.1,29.1,10.4,60.3,41.6,60.3h137.7
					c33.6,0,63.7-20.8,75.7-52.2l34.8-91.3C1784.3,177.2,1761,143.5,1727.3,143.5z M1702.8,221.8l-19.9,52.2
					c-6,15.7-21,26.1-37.9,26.1h-73.2c-13.5,0-22.8-13.5-18-26.1l0,0l19.8-52.2v0c6-15.7,21.1-26,37.9-26h73.2
					C1698.3,195.7,1707.6,209.2,1702.8,221.8z"/>
				<polygon class="st1" points="2128.4,143.5 2048.9,352.2 2282.8,352.2 2302.7,300 2133.3,300 2143.2,273.9 2288.5,273.9 
					2308.3,221.7 2163.1,221.7 2173.1,195.7 2342.4,195.7 2362.3,143.5 				"/>
				<g>
					<g>
						<path class="st0" d="M1006.9,143.5c-0.8,0-1.6,0.3-2.3,0.7c0,0-92,64-96.4,67.1c-4.4-3.1-96.9-67.1-96.9-67.1
							c-0.7-0.5-1.5-0.7-2.3-0.7h-85.2c-1.8,0-3.4,1.2-3.9,2.9c-0.1,0.4-0.2,0.8-0.2,1.2c0,1.3,0.7,2.6,1.8,3.4
							c0,0,128.7,87.1,138,93.4c-9.4,6.3-149.7,100.3-149.7,100.3c-1.1,0.8-1.8,2.1-1.8,3.4c0,0.4,0.1,0.8,0.2,1.2
							c0.5,1.7,2.1,2.9,3.9,2.9h87c0.8,0,1.6-0.2,2.3-0.7c0,0,102.3-70.8,106.8-73.9c4.5,3.1,105.9,73.9,105.9,73.9
							c0.7,0.5,1.5,0.7,2.3,0.7h85.6c1.8,0,3.4-1.2,3.9-2.9c0.1-0.4,0.2-0.8,0.2-1.2c0-1.3-0.7-2.6-1.8-3.4
							c0,0-139.4-94-148.8-100.3c9.3-6.3,138.5-93.4,138.5-93.4c1.1-0.8,1.8-2.1,1.8-3.4c0-0.4-0.1-0.8-0.2-1.2
							c-0.5-1.7-2.1-2.9-3.9-2.9H1006.9z"/>
						<path class="st0" d="M337.4,143.5c-1.2,0-2.4,0.6-3.2,1.5c0,0-121.5,148.6-127.6,156.1c-6-7.5-125.3-156-125.3-156
							c-0.8-1-1.9-1.5-3.2-1.5H6.7c-1.6,0-3,0.9-3.7,2.3c-0.7,1.4-0.5,3.1,0.5,4.3l165.1,200.5c0.8,0.9,1.9,1.5,3.1,1.5h69.6
							c1.2,0,2.4-0.5,3.1-1.5L412,150.2c1-1.2,1.2-2.9,0.6-4.3c-0.7-1.4-2.1-2.4-3.7-2.4H337.4z"/>
						<path class="st1" d="M450.4,143.4c-8.2-15.1-13.2-35-13.2-56.6c0-45.7,22.9-84,50.7-84h176.2c9.4,0,17.1,12.8,17.1,28.3
							c0,15.5-7.7,28.3-17.1,28.3H487.9c-9.4,0-16.6,12.8-16.6,27.4c0,14.6,6.6,28.8,16.6,28.8h176.2c9.4,0,17.1,12.6,17.1,27.9v0
							c0,15.3-7.7,27.9-17.1,27.9H487.9c-9.9,0-16.6,14.2-16.6,28.8c0,14.6,7.2,27.4,16.6,27.4h176.2c9.4,0,17.1,12.8,17.1,28.3
							c0,15.5-7.7,28.3-17.1,28.3H487.9c-27.8,0-50.7-38.4-50.7-84C437.2,178.5,442.2,158.6,450.4,143.4L450.4,143.4z"/>
					</g>
				</g>
				<path class="st1" d="M2022,143.5h-188.3l-79.5,208.7h202.2c33.6,0,63.7-20.8,75.7-52.2l34.8-91.3
					C2078.9,177.2,2055.7,143.5,2022,143.5z M1997.5,221.8l-19.9,52.2c-6,15.7-21,26.1-37.9,26.1l-101.1,0l39.6-104.4h101.2
					C1993,195.7,2002.3,209.2,1997.5,221.8z"/>
			</g>
		</g>
		<g>
			<polygon class="st0" points="2720.3,143.5 2650.8,143.5 2546.6,278.2 2526.4,143.5 2471.8,143.5 2505.6,352.2 2558.2,352.2 			
				"/>
			<path class="st0" d="M2940.2,143.5h-188.3l-79.5,208.7h64.6l19.9-52.2h101.1c13.5,0,22.8,13.5,18,26.1v0l-9.9,26.1h64.6
				l19.9-52.2v0c4.8-12.6-4.5-26.1-18-26.1c16.8,0,31.9-10.4,37.9-26.1l14.9-39.1C2997.2,177.2,2973.9,143.5,2940.2,143.5z
				 M2915.7,221.7c-6,15.7-21,26.1-37.9,26.1h-101.1l20.2-52.2h100.7C2911.2,195.6,2920.5,209.1,2915.7,221.7z"/>
		</g>
	</g>
</g>
</svg>
