<?xml version="1.0" encoding="UTF-8"?><svg id="b" xmlns="http://www.w3.org/2000/svg" width="50" height="50" viewBox="0 0 50 50"><defs><style>.c{fill:#b1b6b9;}.d{fill:none;}.e{fill:#80878d;}.f{fill:#39aaff;}.g{fill:#2e2e2e;}</style></defs><path class="d" d="M26.14258,28.46582h-2.28516c-.27637,0-.5.22363-.5.5s.22363.5.5.5h2.28516c.27637,0,.5-.22363.5-.5s-.22363-.5-.5-.5Z"/><path class="e" d="M46.63879,29.12c0-.38373-.08734-3.59576-.08734-3.73438v-.01898c0-.10449-.12158-2.77521-.15765-3.43811-.05133-.71613-.20898-2.23572-.27924-2.81122-.0874-.62872-.24316-1.64117-.26025-1.72852-.01898-.06842-.12347-.59265-.19373-.90796,0-.03418-.01709-.13867-.05127-.40082-.05322-.43689-.20898-1.06561-.43689-1.74561-.20898-.61163-.57556-1.22137-1.13403-1.83301-.34949-.38373-.89081-.75031-1.09979-.90796-.01709-.01709-.05316-.03418-.05316-.03418l-.38373-.26215-.45398-.31531c-.10443-.06842-.31342-.20898-.47107-.29633-.1405-.22601-.27917-.43689-.31531-.50525-.20892-.49005-.64581-.56036-1.41321-.69904-.52429-.0874-1.22137-.19183-1.69244-.26208-.82056-.12158-2.46173-.34955-2.74091-.34955h-.05322c-.6629.01709-1.13397.57745-1.39612.9953-.29633-.01709-.66296-.01709-.90796-.03418h-.01709l-.61163-.01709c-1.02954-.03607-2.75806-.08734-3.17786-.10638-.52234-.01703-4.0155-.03418-4.25867-.03418-.245,0-3.73627.03418-4.2605.03418-.41791,0-2.14642.07031-3.17596.10638l-.61163.01709h-.01709c-.24506.01709-.59454.03418-.90796.03418-.26208-.41785-.73322-.95923-1.39612-.9953h-.05316c-.27924,0-1.92041.24506-2.74097.34955-.47107.07025-1.15112.17468-1.69244.26208-.78638.13867-1.22327.20898-1.4151.69904-.03424.06836-.17474.29633-.31342.50525-.15765.08734-.34949.22791-.47113.29633l-.45392.31531-.38562.26215c-.01709.01709-.03418.01709-.05127.03418-.22797.15765-.75031.50714-1.09985.90796-.55841.61163-.92499,1.22137-1.13586,1.83301-.22601.67999-.38367,1.30872-.435,1.74561-.03607.26215-.05316.36664-.05316.40082-.07025.31531-.17474.83954-.19183.90796-.01709.08734-.19183,1.09979-.26215,1.72852-.07025.5755-.24316,2.09509-.27924,2.81122-.03418.6629-.15765,3.33362-.15765,3.43811v.01898c0,.13861-.08734,3.36774-.08734,3.73438-.03418,3.52734-.01709,3.66602-.01709,3.75336.07025.55847.27917,1.01245.61163,1.34485l.01709.01709c1.24036,1.29169,3.24811,2.91571,5.65662,4.57397,1.1701.80347,2.81128,1.86908,2.91577,1.9375.12152.08734.62872.38367,1.30872.38367.17474,0,.34949-.01709.52423-.06842.68005-.17474,1.22137-.62872,1.53674-1.25739.01703-.03424,1.83295-3.9624,2.0932-4.94061.12347-.36658.36658-1.11688.69904-2.19958.10443-.36658.45392-.61163.83765-.61163h2.68964c.53949,0,1.06372-.26215,1.39612-.69708h2.82837c.33051.43494.83765.69708,1.39612.69708h2.63647c.38373,0,.71423.24506.83771.61163.33051,1.09979.5755,1.83301.69708,2.19958.26215.97821,2.07806,4.88739,2.09515,4.94061.29822.62866.83765,1.08264,1.53668,1.25739.17474.03424.34949.06842.52423.06842.68005,0,1.18719-.31342,1.30872-.38367.10449-.06842,1.76276-1.15112,2.91577-1.9375,2.40851-1.64117,4.41626-3.2652,5.65668-4.57397l.01709-.01709c.31342-.3324.52423-.78638.61163-1.34485,0-.10443.01709-.2431-.03613-3.75336ZM22.11035,11.9375h5.7793c.55273,0,1,.44775,1,1s-.44727,1-1,1h-5.7793c-.55273,0-1-.44775-1-1s.44727-1,1-1ZM26.14258,29.46582h-2.28516c-.27637,0-.5-.22363-.5-.5s.22363-.5.5-.5h2.28516c.27637,0,.5.22363.5.5s-.22363.5-.5.5ZM44.61395,18.03461c-.01709.07025-.03418.1405-.05316.22791-.3476,1.20428-1.16821,2.21674-2.25092,2.86255-2.25275,1.34485-8.31024,4.97473-10.26477,6.16193-.38373.22791-.82062.34949-1.25751.34949h-3.02014c-.10449,0-.19189-.05127-.22607-.13867l-.62872-1.99066c-.05316-.15765-.19183-.27917-.36658-.27917h-3.17786c-.17474,0-.31342.10443-.36664.27917l-.62872,1.99066c-.03418.0874-.12152.13867-.22601.13867h-3.02014c-.43689,0-.87378-.12158-1.25751-.34949-1.95459-1.16821-8.01202-4.79999-10.26483-6.16193-1.0827-.64581-1.90326-1.65826-2.25275-2.86255-.01709-.07025-.03418-.14056-.05127-.22791-.40271-1.67535.12152-3.0202.29626-3.4552.15765-.40265.43689-.94403.9422-1.51959.3324-.36658.89081-.71606,1.01239-.80347.12347-.08734.87378-.60974.87378-.60974.3324-.21082.67999-.36658,1.06561-.43689,1.23846-.22791,3.02014-.36658,5.93396-.50714,0,0,.68195-.01709,1.20618-.05127.10449,0,.19183-.01709.27924-.01709.12158,0,.40082-.01898.75031-.01898l.48816,2.74097c.24506,1.37897,1.43219,2.37433,2.82837,2.37433h8.95605c1.39612,0,2.58331-.99536,2.82831-2.37433l.47107-2.68781c.50525.01709,1.1701.05127,1.1701.05127,2.91382.12347,4.6955.28113,5.93396.50714.38562.07031.7522.20898,1.06561.43689.01709.01709.75031.5224.87378.60974.12158.0874.69708.45398,1.01245.80347.52234.57556.78442,1.13593.94214,1.51959.26208.41791.80347,1.76276.38367,3.43811Z"/><path class="c" d="M43.28815,13.0769c-.31537-.34949-.89087-.71606-1.01245-.80347-.12347-.08734-.85669-.59265-.87378-.60974-.31342-.22791-.67999-.36658-1.06561-.43689-1.23846-.22601-3.02014-.38367-5.93396-.50714,0,0-.66486-.03418-1.1701-.05127l-.47107,2.68781c-.245,1.37897-1.43219,2.37433-2.82831,2.37433h-8.95605c-1.39618,0-2.58331-.99536-2.82837-2.37433l-.48816-2.74097c-.34949,0-.62872.01898-.75031.01898-.0874,0-.17474.01709-.27924.01709-.52423.03418-1.20618.05127-1.20618.05127-2.91382.14056-4.6955.27924-5.93396.50714-.38562.07031-.73322.22607-1.06561.43689,0,0-.75031.5224-.87378.60974-.12158.0874-.67999.43689-1.01239.80347-.50531.57556-.78455,1.11694-.9422,1.51959-.17474.435-.69897,1.77985-.29626,3.4552.01709.08734.03418.15765.05127.22791.34949,1.20428,1.17004,2.21674,2.25275,2.86255,2.25281,1.36194,8.31024,4.99371,10.26483,6.16193.38373.22791.82062.34949,1.25751.34949h3.02014c.10449,0,.19183-.05127.22601-.13867l.62872-1.99066c.05322-.17474.19189-.27917.36664-.27917h3.17786c.17474,0,.31342.12152.36658.27917l.62872,1.99066c.03418.0874.12158.13867.22607.13867h3.02014c.43689,0,.87378-.12158,1.25751-.34949,1.95453-1.18719,8.01202-4.81708,10.26477-6.16193,1.0827-.64581,1.90332-1.65826,2.25092-2.86255.01898-.0874.03607-.15765.05316-.22791.4198-1.67535-.12158-3.0202-.38367-3.43811-.15771-.38367-.4198-.94403-.94214-1.51959ZM20.86816,25.604c-.47949.43994-1.08496.65723-1.68848.65723-.67676,0-1.35059-.27246-1.84375-.81055l-4.31122-4.70215c-.25378.04315-.51068.07831-.77673.07831-2.55408,0-4.62463-2.07056-4.62463-4.62469s2.07056-4.62463,4.62463-4.62463,4.62469,2.0705,4.62469,4.62463c0,.40448-.06836.78979-.16589,1.16376l4.3147,4.70587c.93262,1.01758.86426,2.59912-.15332,3.53223ZM26.46802,21.6358c-.0979.4494-.47906.79291-.95825.79291h-1.01953c-.47919,0-.86029-.34351-.95819-.79291-.26172-.18036-.44415-.46722-.44415-.80914,0-.55225.44727-1,1-1h1.82422c.55273,0,1,.44775,1,1,0,.34186-.18237.62878-.44409.80914ZM37.70093,20.82684c-.26599,0-.52271-.03516-.77643-.07825l-4.31122,4.70209c-.49316.5376-1.16699.81055-1.84375.81055-.60352,0-1.20898-.21729-1.68848-.65723-1.01758-.93311-1.08594-2.51465-.15332-3.53223l4.31451-4.70569c-.0976-.37396-.16595-.7594-.16595-1.16394,0-2.55414,2.0705-4.62463,4.62463-4.62463s4.62469,2.0705,4.62469,4.62463-2.07056,4.62469-4.62469,4.62469Z"/><path class="e" d="M16.70679,17.36591c.09753-.37396.16589-.75928.16589-1.16376,0-2.55414-2.07056-4.62463-4.62469-4.62463s-4.62463,2.0705-4.62463,4.62463,2.07056,4.62469,4.62463,4.62469c.26605,0,.52295-.03516.77673-.07831l4.31122,4.70215c.49316.53809,1.16699.81055,1.84375.81055.60352,0,1.20898-.21729,1.68848-.65723,1.01758-.93311,1.08594-2.51465.15332-3.53223l-4.3147-4.70587ZM8.7334,16.20215c0-1.93799,1.57715-3.51465,3.51465-3.51465s3.51465,1.57666,3.51465,3.51465-1.57715,3.51465-3.51465,3.51465-3.51465-1.57666-3.51465-3.51465ZM16.76947,22.64398c-.81952,0-1.48389-.66437-1.48389-1.48389s.66437-1.48389,1.48389-1.48389,1.48389.66437,1.48389,1.48389-.66437,1.48389-1.48389,1.48389ZM19.17859,25.24512c-.81952,0-1.48389-.66437-1.48389-1.48389s.66437-1.48389,1.48389-1.48389,1.48389.66437,1.48389,1.48389-.66437,1.48389-1.48389,1.48389Z"/><circle class="g" cx="16.76947" cy="21.1601" r="1.48389"/><circle class="g" cx="19.17859" cy="23.76123" r="1.48389"/><circle class="g" cx="12.24805" cy="16.20215" r="3.01465"/><path class="c" d="M15.7627,16.20215c0-1.93799-1.57715-3.51465-3.51465-3.51465s-3.51465,1.57666-3.51465,3.51465,1.57715,3.51465,3.51465,3.51465,3.51465-1.57666,3.51465-3.51465ZM15.2627,16.20215c0,1.66211-1.35254,3.01465-3.01465,3.01465s-3.01465-1.35254-3.01465-3.01465,1.35254-3.01465,3.01465-3.01465,3.01465,1.35254,3.01465,3.01465Z"/><path class="g" d="M25.91211,19.82666h-1.82422c-.55273,0-1,.44775-1,1,0,.34192.18243.62878.44415.80914.0979.4494.479.79291.95819.79291h1.01953c.47919,0,.86035-.34351.95825-.79291.26172-.18036.44409-.46729.44409-.80914,0-.55225-.44727-1-1-1Z"/><path class="f" d="M22.11035,13.9375h5.7793c.55273,0,1-.44775,1-1s-.44727-1-1-1h-5.7793c-.55273,0-1,.44775-1,1s.44727,1,1,1Z"/><path class="e" d="M37.70093,11.57751c-2.55414,0-4.62463,2.0705-4.62463,4.62463,0,.40454.06836.78998.16595,1.16394l-4.31451,4.70569c-.93262,1.01758-.86426,2.59912.15332,3.53223.47949.43994,1.08496.65723,1.68848.65723.67676,0,1.35059-.27295,1.84375-.81055l4.31122-4.70209c.25372.04309.51044.07825.77643.07825,2.55414,0,4.62469-2.07056,4.62469-4.62469s-2.07056-4.62463-4.62469-4.62463ZM30.77032,25.24512c-.81952,0-1.48389-.66437-1.48389-1.48389s.66437-1.48389,1.48389-1.48389,1.48389.66437,1.48389,1.48389-.66437,1.48389-1.48389,1.48389ZM33.17944,22.64398c-.81952,0-1.48389-.66437-1.48389-1.48389s.66437-1.48389,1.48389-1.48389,1.48389.66437,1.48389,1.48389-.66437,1.48389-1.48389,1.48389ZM37.70117,19.7168c-1.9375,0-3.51465-1.57666-3.51465-3.51465s1.57715-3.51465,3.51465-3.51465,3.51465,1.57666,3.51465,3.51465-1.57715,3.51465-3.51465,3.51465Z"/><circle class="g" cx="33.17944" cy="21.1601" r="1.48389"/><circle class="g" cx="30.77032" cy="23.76123" r="1.48389"/><circle class="g" cx="37.70117" cy="16.20215" r="3.01465"/><path class="c" d="M37.70117,12.6875c-1.9375,0-3.51465,1.57666-3.51465,3.51465s1.57715,3.51465,3.51465,3.51465,3.51465-1.57666,3.51465-3.51465-1.57715-3.51465-3.51465-3.51465ZM37.70117,13.1875c1.66211,0,3.01465,1.35254,3.01465,3.01465s-1.35254,3.01465-3.01465,3.01465-3.01465-1.35254-3.01465-3.01465,1.35254-3.01465,3.01465-3.01465Z"/></svg>