<?xml version="1.0" encoding="UTF-8"?><svg id="b" xmlns="http://www.w3.org/2000/svg" width="50" height="50" viewBox="0 0 50 50"><defs><style>.d{fill:#b1b6b9;}.e{fill:#9fbcbb;}.f{fill:#fff;}.g{fill:#80878d;}.h{fill:#39aaff;}.i{fill:#626668;}.j{fill:#575e75;}.k{fill:#2e2e2e;}</style></defs><path class="j" d="M41.99609,41.25H8.00391c-1.66211,0-3.01367-1.35254-3.01367-3.01465,0-.06543.00293-.13086.00879-.19434-.00586-.06348-.00879-.12598-.00879-.19043V12.14844c0-1.87402,1.52441-3.39844,3.39844-3.39844h33.22266c1.87402,0,3.39844,1.52441,3.39844,3.39844v25.70215c0,.06543-.00391.12891-.00879.19141.00586.06641.00879.12988.00879.19336,0,1.66211-1.35156,3.01465-3.01367,3.01465ZM8.38867,11.75c-.21582,0-.39844.18262-.39844.39844l.00781,26.07812.39062.02344h33.60742l-.01953-.15918.03516-.30859-.00195-25.63379c0-.21973-.17871-.39844-.39844-.39844H8.38867Z"/><path class="d" d="M43.51019,12.14893c0-1.04857-.85006-1.89863-1.89863-1.89863H8.38844c-1.04422,0-1.89863.85441-1.89863,1.89863v25.70213c0,.06559.01292.1277.01947.19161.09578-.74385.7245-1.32084,1.49449-1.32084h33.99247c.76999,0,1.39871.57698,1.49449,1.32084.00655-.06391.01947-.12602.01947-.19161V12.14893ZM13.90587,35.35025c0,.17939-.14955.32893-.32893.32893h-1.91381c-.17945,0-.32893-.14955-.32893-.32893v-1.91381c0-.17945.14949-.32893.32893-.32893h1.91381c.17939,0,.32893.14949.32893.32893v1.91381ZM18.86984,35.35025c0,.17939-.14955.32893-.32893.32893h-1.91381c-.17945,0-.32893-.14955-.32893-.32893v-1.91381c0-.17945.14949-.32893.32893-.32893h1.91381c.17939,0,.32893.14949.32893.32893v1.91381ZM23.8188,35.35025c0,.17939-.14949.32893-.32893.32893h-1.91381c-.17939,0-.32893-.14955-.32893-.32893v-1.91381c0-.17945.14955-.32893.32893-.32893h1.91381c.17945,0,.32893.14949.32893.32893v1.91381ZM28.76783,35.35025c0,.17939-.14955.32893-.32893.32893h-1.91381c-.17945,0-.32893-.14955-.32893-.32893v-1.91381c0-.17945.14949-.32893.32893-.32893h1.91381c.17939,0,.32893.14949.32893.32893v1.91381ZM33.71685,35.35025c0,.17939-.14955.32893-.32893.32893h-1.91387c-.17939,0-.32888-.14955-.32888-.32893v-1.91381c0-.17945.14949-.32893.32888-.32893h1.91387c.17939,0,.32893.14949.32893.32893v1.91381ZM38.66581,35.35025c0,.17939-.14949.32893-.32893.32893h-1.91381c-.17939,0-.32893-.14955-.32893-.32893v-1.91381c0-.17945.14955-.32893.32893-.32893h1.91381c.17945,0,.32893.14949.32893.32893v1.91381ZM42.77752,30.15098h-.01495c-.0598,1.06155-.94196,1.91381-2.01845,1.91381H9.25588c-1.0466,0-1.89886-.79241-2.0035-1.80911V12.8965c0-1.04857.85006-1.89863,1.89863-1.89863h31.72788c1.04857,0,1.89863.85006,1.89863,1.89863v17.25448Z"/><rect class="i" x="36.09413" y="33.1075" width="2.57168" height="2.57168" rx=".32893" ry=".32893"/><rect class="i" x="16.29816" y="33.1075" width="2.57168" height="2.57168" rx=".32893" ry=".32893"/><rect class="i" x="26.19615" y="33.1075" width="2.57168" height="2.57168" rx=".32893" ry=".32893"/><rect class="i" x="21.24712" y="33.1075" width="2.57168" height="2.57168" rx=".32893" ry=".32893"/><rect class="i" x="31.14517" y="33.1075" width="2.57168" height="2.57168" rx=".32893" ry=".32893"/><rect class="i" x="11.33419" y="33.1075" width="2.57168" height="2.57168" rx=".32893" ry=".32893"/><path class="g" d="M40.87889,10.99787H9.15101c-1.04857,0-1.89863.85006-1.89863,1.89863v17.35918c.10464,1.0167.95691,1.80911,2.0035,1.80911h31.48824c1.0765,0,1.95866-.85226,2.01845-1.91381h.01495V12.8965c0-1.04857-.85006-1.89863-1.89863-1.89863ZM41.94675,29.98486c-.00742.05192-.01112.08529-.01298.11774-.03616.63504-.55902,1.13195-1.18942,1.13195H9.25565c-.59518,0-1.08837-.4283-1.17181-1.01884l-.00093-17.31943c0-.58869.47929-1.06798,1.06798-1.06798h31.72788c.58869,0,1.06798.47929,1.06798,1.06798v17.08859Z"/><path class="g" d="M40.87877,12.06561H9.15089c-.45797,0-.83065.37268-.83065.83065v17.30275c.06582.45519.4589.7982.93541.7982h31.4887c.50525,0,.92336-.39864.9521-.90667.00185-.04265.00742-.08529.01483-.12701l-.00185-17.06727c0-.45797-.37268-.83065-.83065-.83065ZM36.09494,14.60479c0-.26213.21253-.47466.47466-.47466h1.93983c.26213,0,.47466.21253.47466.47466v3.43576c0,.26213-.21253.47466-.47466.47466h-1.93983c-.26213,0-.47466-.21253-.47466-.47466v-3.43576ZM13.90187,26.48449c0,.26213-.21247.47466-.47466.47466h-1.93977c-.26219,0-.47466-.21253-.47466-.47466v-3.4357c0-.26219.21247-.47466.47466-.47466h1.93977c.26219,0,.47466.21247.47466.47466v3.4357ZM11.13574,20.42589h2.64306c.06582,0,.11866.05284.11866.11866s-.05284.11866-.11866.11866h-2.64306c-.06582,0-.11866-.05284-.11866-.11866s.05284-.11866.11866-.11866ZM11.01707,19.90488c0-.06582.05284-.11866.11866-.11866h2.64306c.06582,0,.11866.05284.11866.11866s-.05284.11866-.11866.11866h-2.64306c-.06582,0-.11866-.05284-.11866-.11866ZM11.13574,21.06649h2.64306c.06582,0,.11866.05284.11866.11866s-.05284.11866-.11866.11866h-2.64306c-.06582,0-.11866-.05284-.11866-.11866s.05284-.11866.11866-.11866ZM13.90187,18.04055c0,.26213-.21247.47466-.47466.47466h-1.93977c-.26219,0-.47466-.21253-.47466-.47466v-3.43576c0-.26213.21247-.47466.47466-.47466h1.93977c.26219,0,.47466.21253.47466.47466v3.43576ZM27.74319,29.98016h-5.48637c-.52472,0-.94931-.42506-.94931-.94931s.4246-.94931.94931-.94931h5.48637c.52472,0,.94931.42506.94931.94931s-.4246.94931-.94931.94931ZM34.24846,17.87744v8.13239c0,.52431-.42506.94931-.94931.94931h-16.60142c-.52431,0-.94931-.425-.94931-.94931v-10.93039c0-.52426.425-.94931.94931-.94931h16.60142c.52426,0,.94931.42506.94931.94931v2.798ZM38.98408,26.48449c0,.26213-.21253.47466-.47466.47466h-1.93983c-.26213,0-.47466-.21253-.47466-.47466v-3.4357c0-.26219.21253-.47466.47466-.47466h1.93983c.26213,0,.47466.21247.47466.47466v3.4357ZM38.58707,21.01921h-2.09517c-.26236,0-.47466-.2123-.47466-.47466s.2123-.47466.47466-.47466h2.09517c.26236,0,.47466.2123.47466.47466s-.2123.47466-.47466.47466Z"/><path class="e" d="M33.29915,14.13013h-16.60142c-.52431,0-.94931.42506-.94931.94931v2.798c0-.52431.425-.94931.94931-.94931h4.26803c.52431,0,.94931.425.94931.94931,0-.52426.42506-.94931.94931-.94931h4.26809c.52426,0,.94931.42506.94931.94931,0-.52426.425-.94931.94931-.94931h4.26803c.52431,0,.94931.42506.94931.94931v-2.798c0-.52426-.42506-.94931-.94931-.94931ZM20.30071,16.35144h-4.00214c-.13072,0-.23733-.10661-.23733-.23733s.10661-.23733.23733-.23733h4.00214c.13072,0,.23733.10661.23733.23733s-.10661.23733-.23733.23733ZM31.50522,15.16665h-1.42212c-.13072,0-.23733-.10661-.23733-.23733s.10661-.23733.23733-.23733h1.42212c.13072,0,.23733.10661.23733.23733s-.10661.23733-.23733.23733ZM33.69865,15.16665h-1.42212c-.13072,0-.23733-.10661-.23733-.23733s.10661-.23733.23733-.23733h1.42212c.13072,0,.23733.10661.23733.23733s-.10661.23733-.23733.23733Z"/><path class="g" d="M41.99624,36.72184H8.00376c-.76999,0-1.39871.57698-1.49449,1.32084-.00823.06391-.01947.12695-.01947.19312,0,.8361.6778,1.5139,1.51396,1.5139h33.99247c.83615,0,1.51396-.6778,1.51396-1.5139,0-.06617-.01124-.12921-.01947-.19312-.09578-.74385-.7245-1.32084-1.49449-1.32084Z"/><path class="i" d="M38.58707,20.0699h-2.09517c-.26236,0-.47466.2123-.47466.47466s.2123.47466.47466.47466h2.09517c.26236,0,.47466-.2123.47466-.47466s-.2123-.47466-.47466-.47466Z"/><path class="k" d="M36.5696,18.51521h1.93983c.26213,0,.47466-.21253.47466-.47466v-3.43576c0-.26213-.21253-.47466-.47466-.47466h-1.93983c-.26213,0-.47466.21253-.47466.47466v3.43576c0,.26213.21253.47466.47466.47466ZM37.53949,15.71721c.33444,0,.60549.27105.60549.60543s-.27105.60549-.60549.60549-.60543-.27111-.60543-.60549.27099-.60543.60543-.60543Z"/><path class="k" d="M38.50943,22.57413h-1.93983c-.26213,0-.47466.21247-.47466.47466v3.4357c0,.26213.21253.47466.47466.47466h1.93983c.26213,0,.47466-.21253.47466-.47466v-3.4357c0-.26219-.21253-.47466-.47466-.47466ZM37.53949,25.37207c-.33444,0-.60543-.27105-.60543-.60549,0-.33432.27099-.60543.60543-.60543s.60549.27111.60549.60543c0,.33444-.27105.60549-.60549.60549Z"/><path class="f" d="M37.53949,24.16115c-.33444,0-.60543.27111-.60543.60543,0,.33444.27099.60549.60543.60549s.60549-.27105.60549-.60549c0-.33432-.27105-.60543-.60549-.60543Z"/><path class="f" d="M37.53949,16.92813c.33444,0,.60549-.27111.60549-.60549s-.27105-.60543-.60549-.60543-.60543.27105-.60543.60543.27099.60549.60543.60549Z"/><path class="i" d="M11.13574,20.02354h2.64306c.06582,0,.11866-.05284.11866-.11866s-.05284-.11866-.11866-.11866h-2.64306c-.06582,0-.11866.05284-.11866.11866s.05284.11866.11866.11866Z"/><path class="i" d="M11.13574,20.66322h2.64306c.06582,0,.11866-.05284.11866-.11866s-.05284-.11866-.11866-.11866h-2.64306c-.06582,0-.11866.05284-.11866.11866s.05284.11866.11866.11866Z"/><path class="i" d="M11.13574,21.30382h2.64306c.06582,0,.11866-.05284.11866-.11866s-.05284-.11866-.11866-.11866h-2.64306c-.06582,0-.11866.05284-.11866.11866s.05284.11866.11866.11866Z"/><path class="k" d="M13.42721,14.13013h-1.93977c-.26219,0-.47466.21253-.47466.47466v3.43576c0,.26213.21247.47466.47466.47466h1.93977c.26219,0,.47466-.21253.47466-.47466v-3.43576c0-.26213-.21247-.47466-.47466-.47466ZM12.45727,16.92813c-.33438,0-.60543-.27111-.60543-.60549s.27105-.60543.60543-.60543c.33444,0,.60555.27105.60555.60543s-.27111.60549-.60555.60549Z"/><path class="k" d="M13.42721,22.57413h-1.93977c-.26219,0-.47466.21247-.47466.47466v3.4357c0,.26213.21247.47466.47466.47466h1.93977c.26219,0,.47466-.21253.47466-.47466v-3.4357c0-.26219-.21247-.47466-.47466-.47466ZM12.45727,25.37207c-.33438,0-.60543-.27105-.60543-.60549,0-.33432.27105-.60543.60543-.60543.33444,0,.60555.27111.60555.60543,0,.33444-.27111.60549-.60555.60549Z"/><path class="f" d="M12.45727,24.16115c-.33438,0-.60543.27111-.60543.60543,0,.33444.27105.60549.60543.60549.33444,0,.60555-.27105.60555-.60549,0-.33432-.27111-.60543-.60555-.60543Z"/><path class="f" d="M12.45727,15.71721c-.33438,0-.60543.27105-.60543.60543s.27105.60549.60543.60549c.33444,0,.60555-.27111.60555-.60549s-.27111-.60543-.60555-.60543Z"/><path class="h" d="M27.74319,28.08154h-5.48637c-.52472,0-.94931.42506-.94931.94931s.4246.94931.94931.94931h5.48637c.52472,0,.94931-.42506.94931-.94931s-.4246-.94931-.94931-.94931Z"/><path class="i" d="M40.87877,11.82828H9.15089c-.58869,0-1.06798.47929-1.06798,1.06798l.00093,17.31943c.08344.59054.57663,1.01884,1.17181,1.01884h31.4887c.6304,0,1.15327-.49691,1.18942-1.13195.00185-.03245.00556-.06582.01298-.11774V12.89626c0-.58869-.47929-1.06798-1.06798-1.06798ZM41.71128,29.96354c-.00742.04172-.01298.08436-.01483.12701-.02874.50803-.44685.90667-.9521.90667H9.25565c-.47651,0-.86959-.34301-.93541-.7982V12.89626c0-.45797.37268-.83065.83065-.83065h31.72788c.45797,0,.83065.37268.83065.83065l.00185,17.06727Z"/><path class="i" d="M33.29915,16.92813h-4.26803c-.52431,0-.94931.42506-.94931.94931,0-.52426-.42506-.94931-.94931-.94931h-4.26809c-.52426,0-.94931.42506-.94931.94931,0-.52431-.425-.94931-.94931-.94931h-4.26803c-.52431,0-.94931.425-.94931.94931v8.13239c0,.52431.425.94931.94931.94931h16.60142c.52426,0,.94931-.425.94931-.94931v-8.13239c0-.52426-.425-.94931-.94931-.94931ZM22.1524,17.87744c0-.39255.31943-.71199.71199-.71199h4.26809c.39255,0,.71199.31943.71199.71199v5.93594h-5.69206v-5.93594ZM17.36284,19.77787h2.93787c.39308,0,.71199.31891.71199.71199s-.31891.71199-.71199.71199h-2.93787c-.39308,0-.71199-.31891-.71199-.71199s.31891-.71199.71199-.71199ZM26.76791,25.74261h-3.53583c-.13072,0-.23733-.10661-.23733-.23733s.10661-.23733.23733-.23733h3.53583c.13072,0,.23733.10661.23733.23733s-.10661.23733-.23733.23733ZM34.01113,23.81338h-5.69201v-5.93594c0-.39255.31937-.71199.71199-.71199h4.26803c.39255,0,.71199.31943.71199.71199v5.93594Z"/><path class="h" d="M17.36284,21.20184h2.93787c.39308,0,.71199-.31891.71199-.71199s-.31891-.71199-.71199-.71199h-2.93787c-.39308,0-.71199.31891-.71199.71199s.31891.71199.71199.71199Z"/><path class="i" d="M20.30071,15.87678h-4.00214c-.13072,0-.23733.10661-.23733.23733s.10661.23733.23733.23733h4.00214c.13072,0,.23733-.10661.23733-.23733s-.10661-.23733-.23733-.23733Z"/><path class="i" d="M33.69865,14.69199h-1.42212c-.13072,0-.23733.10661-.23733.23733s.10661.23733.23733.23733h1.42212c.13072,0,.23733-.10661.23733-.23733s-.10661-.23733-.23733-.23733Z"/><path class="i" d="M31.50522,14.69199h-1.42212c-.13072,0-.23733.10661-.23733.23733s.10661.23733.23733.23733h1.42212c.13072,0,.23733-.10661.23733-.23733s-.10661-.23733-.23733-.23733Z"/><path class="f" d="M26.76791,25.26795h-3.53583c-.13072,0-.23733.10661-.23733.23733s.10661.23733.23733.23733h3.53583c.13072,0,.23733-.10661.23733-.23733s-.10661-.23733-.23733-.23733Z"/><path class="e" d="M27.13248,17.16546h-4.26809c-.39255,0-.71199.31943-.71199.71199v5.93594h5.69206v-5.93594c0-.39255-.31943-.71199-.71199-.71199Z"/><path class="e" d="M33.29915,17.16546h-4.26803c-.39261,0-.71199.31943-.71199.71199v5.93594h5.69201v-5.93594c0-.39255-.31943-.71199-.71199-.71199Z"/></svg>