<?xml version="1.0" encoding="UTF-8"?><svg id="b" xmlns="http://www.w3.org/2000/svg" width="50" height="50" viewBox="0 0 50 50"><defs><style>.e{fill:#b1b6b9;}.f{fill:#9fbcbb;}.g{fill:#fff;}.h{fill:#80878d;}.i{fill:#39aaff;}.j{fill:#626668;}.k{fill:#575e75;}.l{fill:#2e2e2e;}</style></defs><path class="k" d="M41.99609,41.25H8.00391c-1.66211,0-3.01367-1.35254-3.01367-3.01465,0-.06543.00293-.13086.00879-.19434-.00586-.06348-.00879-.12598-.00879-.19043V12.14844c0-1.87402,1.52441-3.39844,3.39844-3.39844h33.22266c1.87402,0,3.39844,1.52441,3.39844,3.39844v25.70215c0,.06543-.00391.12891-.00879.19141.00586.06641.00879.12988.00879.19336,0,1.66211-1.35156,3.01465-3.01367,3.01465ZM8.38867,11.75c-.21582,0-.39844.18262-.39844.39844l.00781,26.07812.39062.02344h33.60742l-.01953-.15918.03516-.30859-.00195-25.63379c0-.21973-.17871-.39844-.39844-.39844H8.38867Z"/><path class="e" d="M43.51019,12.14893c0-1.04857-.85006-1.89863-1.89863-1.89863H8.38844c-1.04422,0-1.89863.85441-1.89863,1.89863v25.70213c0,.06559.01292.1277.01947.19161.09578-.74385.7245-1.32084,1.49449-1.32084h33.99247c.76999,0,1.39871.57698,1.49449,1.32084.00655-.06391.01947-.12602.01947-.19161V12.14893ZM13.90587,35.35025c0,.17939-.14955.32893-.32893.32893h-1.91381c-.17945,0-.32893-.14955-.32893-.32893v-1.91381c0-.17945.14949-.32893.32893-.32893h1.91381c.17939,0,.32893.14949.32893.32893v1.91381ZM18.86984,35.35025c0,.17939-.14955.32893-.32893.32893h-1.91381c-.17945,0-.32893-.14955-.32893-.32893v-1.91381c0-.17945.14949-.32893.32893-.32893h1.91381c.17939,0,.32893.14949.32893.32893v1.91381ZM23.8188,35.35025c0,.17939-.14949.32893-.32893.32893h-1.91381c-.17939,0-.32893-.14955-.32893-.32893v-1.91381c0-.17945.14955-.32893.32893-.32893h1.91381c.17945,0,.32893.14949.32893.32893v1.91381ZM28.76783,35.35025c0,.17939-.14955.32893-.32893.32893h-1.91381c-.17945,0-.32893-.14955-.32893-.32893v-1.91381c0-.17945.14949-.32893.32893-.32893h1.91381c.17939,0,.32893.14949.32893.32893v1.91381ZM33.71685,35.35025c0,.17939-.14955.32893-.32893.32893h-1.91387c-.17939,0-.32888-.14955-.32888-.32893v-1.91381c0-.17945.14949-.32893.32888-.32893h1.91387c.17939,0,.32893.14949.32893.32893v1.91381ZM38.66581,35.35025c0,.17939-.14949.32893-.32893.32893h-1.91381c-.17939,0-.32893-.14955-.32893-.32893v-1.91381c0-.17945.14955-.32893.32893-.32893h1.91381c.17945,0,.32893.14949.32893.32893v1.91381ZM42.77752,30.15098h-.01495c-.0598,1.06155-.94196,1.91381-2.01845,1.91381H9.25588c-1.0466,0-1.89886-.79241-2.0035-1.80911V12.8965c0-1.04857.85006-1.89863,1.89863-1.89863h31.72788c1.04857,0,1.89863.85006,1.89863,1.89863v17.25448Z"/><rect class="j" x="36.09413" y="33.1075" width="2.57168" height="2.57168" rx=".32893" ry=".32893"/><rect class="j" x="16.29816" y="33.1075" width="2.57168" height="2.57168" rx=".32893" ry=".32893"/><rect class="j" x="26.19615" y="33.1075" width="2.57168" height="2.57168" rx=".32893" ry=".32893"/><rect class="j" x="21.24712" y="33.1075" width="2.57168" height="2.57168" rx=".32893" ry=".32893"/><rect class="j" x="31.14517" y="33.1075" width="2.57168" height="2.57168" rx=".32893" ry=".32893"/><rect class="j" x="11.33419" y="33.1075" width="2.57168" height="2.57168" rx=".32893" ry=".32893"/><path class="h" d="M40.87889,10.99787H9.15101c-1.04857,0-1.89863.85006-1.89863,1.89863v17.35918c.10464,1.0167.95691,1.80911,2.0035,1.80911h31.48824c1.0765,0,1.95866-.85226,2.01845-1.91381h.01495V12.8965c0-1.04857-.85006-1.89863-1.89863-1.89863ZM41.94675,29.98486c-.00742.05192-.01112.08529-.01298.11774-.03616.63504-.55902,1.13195-1.18942,1.13195H9.25565c-.59518,0-1.08837-.4283-1.17181-1.01884l-.00093-17.31943c0-.58869.47929-1.06798,1.06798-1.06798h31.72788c.58869,0,1.06798.47929,1.06798,1.06798v17.08859Z"/><path class="h" d="M40.88,12.07001H9.15002c-.46002,0-.83002.37-.83002.82996v17.30005c.07001.44995.46002.79999.94.79999h31.47998c.51001,0,.92999-.40002.96002-.91003,0-.03998,0-.07996.01001-.13V12.89996c0-.45996-.37-.82996-.83002-.82996ZM36.09003,14.59998c0-.26001.21997-.46997.47998-.46997h1.94c.26001,0,.46997.20996.46997.46997v3.44c0,.26001-.20996.47998-.46997.47998h-1.94c-.26001,0-.47998-.21997-.47998-.47998v-3.44ZM13.90002,26.47998c0,.27002-.21002.47998-.47003.47998h-1.94c-.26001,0-.47998-.20996-.47998-.47998v-3.42999c0-.26001.21997-.47998.47998-.47998h1.94c.26001,0,.47003.21997.47003.47998v3.42999ZM13.78003,21.29999h-2.64001c-.07001,0-.12-.04999-.12-.10999,0-.07001.04999-.12.12-.12h2.64001c.06,0,.12.04999.12.12,0,.06-.06.10999-.12.10999ZM13.78003,20.65997h-2.64001c-.07001,0-.12-.04999-.12-.12,0-.06.04999-.10999.12-.10999h2.64001c.06,0,.12.04999.12.10999,0,.07001-.06.12-.12.12ZM13.78003,20.01996h-2.64001c-.07001,0-.12-.04999-.12-.12,0-.06.04999-.10999.12-.10999h2.64001c.06,0,.12.04999.12.10999,0,.07001-.06.12-.12.12ZM13.90002,18.03998c0,.26001-.21002.47998-.47003.47998h-1.94c-.26001,0-.47998-.21997-.47998-.47998v-3.44c0-.26001.21997-.46997.47998-.46997h1.94c.26001,0,.47003.20996.47003.46997v3.44ZM34.25,26.01001c0,.51996-.42999.94995-.95001.94995h-16.59998c-.53003,0-.95001-.42999-.95001-.94995v-10.93005c0-.51996.41998-.94995.95001-.94995h16.59998c.52002,0,.95001.42999.95001.94995v10.93005ZM38.97998,26.47998c0,.27002-.20996.47998-.46997.47998h-1.94c-.26001,0-.47998-.20996-.47998-.47998v-3.42999c0-.26001.21997-.47998.47998-.47998h1.94c.26001,0,.46997.21997.46997.47998v3.42999ZM38.59003,21.01996h-2.10004c-.26001,0-.46997-.20996-.46997-.47998,0-.26001.20996-.46997.46997-.46997h2.10004c.25995,0,.46997.20996.46997.46997,0,.27002-.21002.47998-.46997.47998Z"/><path class="f" d="M35.25,15.07996v10.93005c0,.51996-.42999.94995-.95001.94995H15.70001c-.53003,0-.95001-.42999-.95001-.94995v-10.93005c0-.51996.41998-.94995.95001-.94995h18.59998c.52002,0,.95001.42999.95001.94995Z"/><path class="h" d="M41.99624,36.72184H8.00376c-.76999,0-1.39871.57698-1.49449,1.32084-.00823.06391-.01947.12695-.01947.19312,0,.8361.6778,1.5139,1.51396,1.5139h33.99247c.83615,0,1.51396-.6778,1.51396-1.5139,0-.06617-.01124-.12921-.01947-.19312-.09578-.74385-.7245-1.32084-1.49449-1.32084Z"/><path class="j" d="M38.58707,20.0699h-2.09517c-.26236,0-.47466.2123-.47466.47466s.2123.47466.47466.47466h2.09517c.26236,0,.47466-.2123.47466-.47466s-.2123-.47466-.47466-.47466Z"/><path class="l" d="M36.5696,18.51521h1.93983c.26213,0,.47466-.21253.47466-.47466v-3.43576c0-.26213-.21253-.47466-.47466-.47466h-1.93983c-.26213,0-.47466.21253-.47466.47466v3.43576c0,.26213.21253.47466.47466.47466ZM37.53949,15.71721c.33444,0,.60549.27105.60549.60543s-.27105.60549-.60549.60549-.60543-.27111-.60543-.60549.27099-.60543.60543-.60543Z"/><path class="l" d="M38.50943,22.57413h-1.93983c-.26213,0-.47466.21247-.47466.47466v3.4357c0,.26213.21253.47466.47466.47466h1.93983c.26213,0,.47466-.21253.47466-.47466v-3.4357c0-.26219-.21253-.47466-.47466-.47466ZM37.53949,25.37207c-.33444,0-.60543-.27105-.60543-.60549,0-.33432.27099-.60543.60543-.60543s.60549.27111.60549.60543c0,.33444-.27105.60549-.60549.60549Z"/><path class="g" d="M37.53949,24.16115c-.33444,0-.60543.27111-.60543.60543,0,.33444.27099.60549.60543.60549s.60549-.27105.60549-.60549c0-.33432-.27105-.60543-.60549-.60543Z"/><path class="g" d="M37.53949,16.92813c.33444,0,.60549-.27111.60549-.60549s-.27105-.60543-.60549-.60543-.60543.27105-.60543.60543.27099.60549.60543.60549Z"/><path class="j" d="M11.13574,20.02354h2.64306c.06582,0,.11866-.05284.11866-.11866s-.05284-.11866-.11866-.11866h-2.64306c-.06582,0-.11866.05284-.11866.11866s.05284.11866.11866.11866Z"/><path class="j" d="M11.13574,20.66322h2.64306c.06582,0,.11866-.05284.11866-.11866s-.05284-.11866-.11866-.11866h-2.64306c-.06582,0-.11866.05284-.11866.11866s.05284.11866.11866.11866Z"/><path class="j" d="M11.13574,21.30382h2.64306c.06582,0,.11866-.05284.11866-.11866s-.05284-.11866-.11866-.11866h-2.64306c-.06582,0-.11866.05284-.11866.11866s.05284.11866.11866.11866Z"/><path class="l" d="M13.42721,14.13013h-1.93977c-.26219,0-.47466.21253-.47466.47466v3.43576c0,.26213.21247.47466.47466.47466h1.93977c.26219,0,.47466-.21253.47466-.47466v-3.43576c0-.26213-.21247-.47466-.47466-.47466ZM12.45727,16.92813c-.33438,0-.60543-.27111-.60543-.60549s.27105-.60543.60543-.60543c.33444,0,.60555.27105.60555.60543s-.27111.60549-.60555.60549Z"/><path class="l" d="M13.42721,22.57413h-1.93977c-.26219,0-.47466.21247-.47466.47466v3.4357c0,.26213.21247.47466.47466.47466h1.93977c.26219,0,.47466-.21253.47466-.47466v-3.4357c0-.26219-.21247-.47466-.47466-.47466ZM12.45727,25.37207c-.33438,0-.60543-.27105-.60543-.60549,0-.33432.27105-.60543.60543-.60543.33444,0,.60555.27111.60555.60543,0,.33444-.27111.60549-.60555.60549Z"/><path class="g" d="M12.45727,24.16115c-.33438,0-.60543.27111-.60543.60543,0,.33444.27105.60549.60543.60549.33444,0,.60555-.27105.60555-.60549,0-.33432-.27111-.60543-.60555-.60543Z"/><path class="g" d="M12.45727,15.71721c-.33438,0-.60543.27105-.60543.60543s.27105.60549.60543.60549c.33444,0,.60555-.27111.60555-.60549s-.27111-.60543-.60555-.60543Z"/><path class="j" d="M40.87877,11.82828H9.15089c-.58869,0-1.06798.47929-1.06798,1.06798l.00093,17.31943c.08344.59054.57663,1.01884,1.17181,1.01884h31.4887c.6304,0,1.15327-.49691,1.18942-1.13195.00185-.03245.00556-.06582.01298-.11774V12.89626c0-.58869-.47929-1.06798-1.06798-1.06798ZM41.71128,29.96354c-.00742.04172-.01298.08436-.01483.12701-.02874.50803-.44685.90667-.9521.90667H9.25565c-.47651,0-.86959-.34301-.93541-.7982V12.89626c0-.45797.37268-.83065.83065-.83065h31.72788c.45797,0,.83065.37268.83065.83065l.00185,17.06727Z"/><path class="i" d="M29.506,28.08154h-9.012c-.52472,0-.94931.42506-.94931.94931s.4246.94931.94931.94931h9.012c.52472,0,.94931-.42506.94931-.94931s-.4246-.94931-.94931-.94931Z"/><rect class="i" x="39.89441" y="14.74128" width="2.88311" height="11.60655" rx="1.05267" ry="1.05267"/><g id="c"><g id="d"><path class="j" d="M31.85318,20.03037c-.01259,0-.02481.00386-.03529.01112,0,0-1.39343.96881-1.46051,1.01549-.06718-.0465-1.46768-1.01558-1.46768-1.01558-.01038-.00717-.02261-.01103-.0352-.01103h-1.28941c-.0272,0-.05118.01773-.05918.04365-.00175.00598-.00266.01204-.00266.0181,0,.02012.00992.03942.02711.05109,0,0,1.94827,1.31873,2.08969,1.41448-.14262.09547-2.2675,1.51891-2.2675,1.51891-.01737.01176-.02729.03115-.02729.05127,0,.00606.00083.01213.00276.01801.00772.026.0317.04374.05899.04374h1.31771c.01268,0,.0249-.00377.0351-.01103,0,0,1.54983-1.07287,1.61737-1.11964.06745.04714,1.60322,1.11955,1.60322,1.11955.01038.00726.0227.01112.03538.01112h1.29649c.0272,0,.05118-.01774.05899-.04365.00193-.00598.00276-.01204.00276-.0181,0-.02012-.00992-.03942-.02729-.05109,0,0-2.11119-1.42316-2.25344-1.51901.14142-.09529,2.09677-1.41447,2.09677-1.41447.01737-.01167.0272-.03106.0272-.05118,0-.00606-.00092-.01213-.00266-.01801-.008-.02601-.03198-.04374-.059-.04374h-1.28243Z"/><path class="j" d="M21.71532,20.03037c-.01847,0-.03602.00836-.04778.02261,0,0-1.84011,2.25077-1.93201,2.36316-.09078-.11312-1.8969-2.36261-1.8969-2.36261-.01176-.0147-.02941-.02316-.04815-.02316h-1.08275c-.02399,0-.04567.01379-.05587.03538-.0102.02169-.00699.04714.00818.06561l2.50026,3.03584c.01167.01425.02922.02242.04769.02242h1.05426c.01828,0,.03565-.00799.04741-.02215l2.53591-3.03575c.01534-.01838.01874-.04402.00854-.0657-.0102-.02178-.03198-.03565-.05596-.03565h-1.08284Z"/><path class="j" d="M23.42661,20.02982c-.12406-.22798-.19931-.52975-.19931-.85734,0-.69143.34643-1.27214.76821-1.27214h2.66824c.14215,0,.25895.19362.25895.42867s-.1168.42867-.25895.42867h-2.66824c-.14207,0-.25068.19352-.25068.4148,0,.22118.10053.43556.25068.43556h2.66824c.14215,0,.25895.19058.25895.42215v.00018c0,.23166-.1168.42224-.25895.42224h-2.66824c-.15015,0-.25068.21438-.25068.43547,0,.22136.10862.4148.25068.4148h2.66824c.14215,0,.25895.19361.25895.42858,0,.23515-.1168.42876-.25895.42876h-2.66824c-.42178,0-.76821-.58075-.76821-1.27213,0-.3275.07526-.62927.19931-.85734v-.00092Z"/></g></g><path class="j" d="M24.33099,14.69199h-8.03243c-.13072,0-.23733.10661-.23733.23733s.10661.23733.23733.23733h8.03243c.13072,0,.23733-.10661.23733-.23733s-.10661-.23733-.23733-.23733Z"/><path class="j" d="M24.33099,15.47988h-8.03243c-.13072,0-.23733.10661-.23733.23733s.10661.23733.23733.23733h8.03243c.13072,0,.23733-.10661.23733-.23733s-.10661-.23733-.23733-.23733Z"/><path class="j" d="M24.33099,25h-8.03243c-.13072,0-.23733.10661-.23733.23733s.10661.23733.23733.23733h8.03243c.13072,0,.23733-.10661.23733-.23733s-.10661-.23733-.23733-.23733Z"/><path class="j" d="M19.75296,25.89441h-3.45439c-.13072,0-.23733.10661-.23733.23733s.10661.23733.23733.23733h3.45439c.13072,0,.23733-.10661.23733-.23733s-.10661-.23733-.23733-.23733Z"/><path class="j" d="M33.11671,25h-8.03243c-.13072,0-.23733.10661-.23733.23733s.10661.23733.23733.23733h8.03243c.13072,0,.23733-.10661.23733-.23733s-.10661-.23733-.23733-.23733Z"/><path class="j" d="M21.86205,16.32498h-5.56348c-.13072,0-.23733.10661-.23733.23733s.10661.23733.23733.23733h5.56348c.13072,0,.23733-.10661.23733-.23733s-.10661-.23733-.23733-.23733Z"/><path class="j" d="M33.69865,14.69199h-1.42212c-.13072,0-.23733.10661-.23733.23733s.10661.23733.23733.23733h1.42212c.13072,0,.23733-.10661.23733-.23733s-.10661-.23733-.23733-.23733Z"/><path class="j" d="M31.50522,14.69199h-1.42212c-.13072,0-.23733.10661-.23733.23733s.10661.23733.23733.23733h1.42212c.13072,0,.23733-.10661.23733-.23733s-.10661-.23733-.23733-.23733Z"/></svg>