<?xml version="1.0" encoding="UTF-8"?><svg id="b" xmlns="http://www.w3.org/2000/svg" width="50" height="50" viewBox="0 0 50 50"><defs><style>.d{fill:#9fbcbb;}.e{fill:#626668;}.f{fill:#961b2c;}.g{fill:#2e2e2e;}</style></defs><path class="g" d="M46.64691,27.10754c-.0943-2.51086-.37073-5.01184-.82758-7.48297-.39392-1.98956-1.13049-3.89465-2.17651-5.63257-.4436-.62897-.96167-1.20166-1.54266-1.70483l-.33929-.84912c-.76636-1.45325-1.96136-2.63336-3.42456-3.38147-.96161-.54291-1.97461-.98981-3.02399-1.33411-.08606-.02979-.13739-.04797-.15393-.05463l-.51306-.17047-.34265.341-1.20166,1.19336c-2.65491-.62402-6.06122-.93683-8.1004-.93683s-5.44714.31281-8.10205.93683l-1.20001-1.19336-.34259-.341-.51477.17047c-.01489.00665-.06787.02484-.15393.05463-1.04938.3443-2.06238.7912-3.02399,1.33411-1.46155.74811-2.6582,1.92822-3.42456,3.38147l-.33929.84912c-.58099.50317-1.09906,1.07587-1.54266,1.70483-1.04602,1.73792-1.78094,3.64301-2.17651,5.63257-.45685,2.47113-.73328,4.97211-.82593,7.48297-.16882,2.96442-.15228,4.73877.05127,5.93219.16553.9682.55945,1.88354,1.14703,2.67139l.08612.08441c.78949,1.21161,2.15503,1.92169,3.59998,1.87372,1.29266,0,2.53076-.52142,3.4328-1.4483.94678-1.11725,1.64856-2.42316,2.05737-3.83173.19696-.71503.48499-1.40192.85907-2.04413.70673-1.30261,1.96796-2.2113,3.42786-2.47119l.42865-.08441c2.13519-.23999,4.28192-.35419,6.43036-.34094h.25159c2.14844-.01324,4.29517.10095,6.42871.34094l.42865.08441c1.4599.25989,2.72113,1.16858,3.4295,2.47119.37244.64221.66046,1.3291.85742,2.04413.40881,1.40857,1.1106,2.71448,2.05902,3.83173.90039.92688,2.13849,1.4483,3.43115,1.4483,1.44495.04797,2.81049-.66211,3.60168-1.87372l.08606-.08441c.58759-.78784.97986-1.70319,1.14703-2.67139.2019-1.19342.21844-2.96777.05127-5.93219ZM7.33203,16.79089c.00165-1.46149,1.18677-2.64496,2.64661-2.64667,1.46149,0,2.64661,1.18518,2.64661,2.64667s-1.18512,2.64661-2.64661,2.64661-2.64661-1.18512-2.64661-2.64661ZM41.84552,21.40222c-1.10071,2.44135-4.16937,4.74536-4.20087,4.76855-.21185.1059-.4469.16382-.68524.17047h-.25488c-3.24908-.51978-6.53296-.78125-9.82343-.7829-.46674,0-.94012.00659-1.41022.01654-.15558-.00336-.78455-.00336-.94012,0-.47009-.00995-.94513-.01654-1.41187-.01654-3.28882.00165-6.57434.26312-9.82178.7829h-.25659c-.23834-.00665-.47168-.06458-.68518-.17047-.02979-.02319-3.09851-2.32721-4.20087-4.76855v-.17053c.01825-.27637.23834-.49487.51477-.51141h.17047c.47339.14069.96497.19861,1.45825.17047,1.67169-.03143,3.17627-1.02789,3.85815-2.5556.41547-1.03284.40387-2.18976-.03308-3.21429-.43201-1.03949-1.24963-1.87201-2.28247-2.32056-.3443-.13409-.55615-.48334-.51312-.85242.0033-.26648.12909-.51807.34265-.6803,2.02924-.76801,4.12634-1.34564,6.26312-1.72302,2.15173-.38403,4.3316-.57599,6.51642-.57434.18207-.00665.41217-.00665.55115-.00665.18213,0,.36749,0,.55121.00665,2.18317-.00165,4.36469.19031,6.51477.57434,2.13678.37738,4.23389.95502,6.26483,1.72302.21185.16223.33765.41382.34259.6803.04303.36908-.16882.71832-.51477.85242-1.03284.44855-1.85046,1.28107-2.28247,2.32056-.4353,1.02454-.4469,2.18146-.03308,3.21429.68359,1.52771,2.18646,2.52417,3.85986,2.5556.49158.02814.9848-.02979,1.45654-.17047h.17047c.27643.01654.49652.23505.51477.51141v.17053ZM39.99646,19.4375c-1.46149,0-2.64661-1.18512-2.64661-2.64661.00165-1.46149,1.18677-2.64496,2.64661-2.64667,1.46149,0,2.64661,1.18518,2.64661,2.64667s-1.18512,2.64661-2.64661,2.64661Z"/><path class="e" d="M41.33075,20.72028h-.17047c-.47174.14069-.96497.19861-1.45654.17047-1.6734-.03143-3.17627-1.02789-3.85986-2.5556-.41382-1.03284-.40222-2.18976.03308-3.21429.43201-1.03949,1.24963-1.87201,2.28247-2.32056.34595-.13409.5578-.48334.51477-.85242-.00494-.26648-.13074-.51807-.34259-.6803-2.03094-.76801-4.12805-1.34564-6.26483-1.72302-2.15009-.38403-4.3316-.57599-6.51477-.57434-.18372-.00665-.36908-.00665-.55121-.00665-.13898,0-.36908,0-.55115.00665-2.18481-.00165-4.36469.19031-6.51642.57434-2.13678.37738-4.23389.95502-6.26312,1.72302-.21356.16223-.33936.41382-.34265.6803-.04303.36908.16882.71832.51312.85242,1.03284.44855,1.85046,1.28107,2.28247,2.32056.43695,1.02454.44855,2.18146.03308,3.21429-.68188,1.52771-2.18646,2.52417-3.85815,2.5556-.49329.02814-.98486-.02979-1.45825-.17047h-.17047c-.27643.01654-.49652.23505-.51477.51141v.17053c1.10236,2.44135,4.17108,4.74536,4.20087,4.76855.2135.1059.44684.16382.68518.17047h.25659c3.24744-.51978,6.53296-.78125,9.82178-.7829.46674,0,.94177.00659,1.41187.01654.15558-.00336.78455-.00336.94012,0,.47009-.00995.94348-.01654,1.41022-.01654,3.29047.00165,6.57434.26312,9.82343.7829h.25488c.23834-.00665.47339-.06458.68524-.17047.03149-.02319,3.10016-2.32721,4.20087-4.76855v-.17053c-.01825-.27637-.23834-.49487-.51477-.51141ZM34.41943,18.18115c.71777,0,1.29962.58185,1.29962,1.29962s-.58185,1.29968-1.29962,1.29968-1.29962-.58191-1.29962-1.29968.58185-1.29962,1.29962-1.29962ZM15.58081,18.18115c.71777,0,1.29962.58185,1.29962,1.29962s-.58185,1.29968-1.29962,1.29968-1.29962-.58191-1.29962-1.29968.58185-1.29962,1.29962-1.29962ZM13.28735,23.07391c-.71777,0-1.29968-.58185-1.29968-1.29962s.58191-1.29962,1.29968-1.29962,1.29962.58185,1.29962,1.29962-.58185,1.29962-1.29962,1.29962ZM15.58081,25.36743c-.71777,0-1.29962-.58191-1.29962-1.29968s.58185-1.29962,1.29962-1.29962,1.29962.58185,1.29962,1.29962-.58185,1.29968-1.29962,1.29968ZM17.87433,23.07391c-.71777,0-1.29968-.58185-1.29968-1.29962s.58191-1.29962,1.29968-1.29962,1.29962.58185,1.29962,1.29962-.58185,1.29962-1.29962,1.29962ZM26.34747,24.20081c0,.31952-.25903.57855-.57861.57855h-1.53772c-.31958,0-.57861-.25903-.57861-.57855v-1.53778c0-.31952.25903-.57855.57861-.57855h1.53772c.31958,0,.57861.25903.57861.57855v1.53778ZM27.88965,20.96674h-5.7793c-.55273,0-1-.44775-1-1s.44727-1,1-1h5.7793c.55273,0,1,.44775,1,1s-.44727,1-1,1ZM30.50012,17.37573c0,.00024-.00012.00037-.00012.00061v.10199h-.02057c-.05048.28662-.28931.50848-.59039.50848h-9.77777c-.30115,0-.53998-.22186-.59045-.50848h-.02081v-1.78888h.00012v-4.42487c0-.33746.27362-.61108.61115-.61108h9.77777c.33746,0,.61108.27362.61108.61108v6.11115ZM32.12598,23.07391c-.71777,0-1.29968-.58185-1.29968-1.29962s.58191-1.29962,1.29968-1.29962c.71771,0,1.29962.58185,1.29962,1.29962s-.58191,1.29962-1.29962,1.29962ZM34.41943,25.36743c-.71777,0-1.29962-.58191-1.29962-1.29968s.58185-1.29962,1.29962-1.29962,1.29962.58185,1.29962,1.29962-.58185,1.29968-1.29962,1.29968ZM36.71295,23.07391c-.71777,0-1.29968-.58185-1.29968-1.29962s.58191-1.29962,1.29968-1.29962c.71771,0,1.29962.58185,1.29962,1.29962s-.58191,1.29962-1.29962,1.29962Z"/><path class="g" d="M15.58081,20.78046c.71777,0,1.29962-.58191,1.29962-1.29968s-.58185-1.29962-1.29962-1.29962-1.29962.58185-1.29962,1.29962.58185,1.29968,1.29962,1.29968ZM15.58081,18.96674c.28394,0,.5141.23016.5141.51404,0,.28394-.23016.5141-.5141.5141-.28387,0-.51404-.23016-.51404-.5141,0-.28387.23016-.51404.51404-.51404Z"/><path class="g" d="M13.28735,20.47467c-.71777,0-1.29968.58185-1.29968,1.29962s.58191,1.29962,1.29968,1.29962,1.29962-.58185,1.29962-1.29962-.58185-1.29962-1.29962-1.29962ZM13.28735,22.28833c-.28394,0-.5141-.2301-.5141-.51404s.23016-.5141.5141-.5141c.28387,0,.51404.23016.51404.5141s-.23016.51404-.51404.51404Z"/><path class="g" d="M17.87433,20.47467c-.71777,0-1.29968.58185-1.29968,1.29962s.58191,1.29962,1.29968,1.29962,1.29962-.58185,1.29962-1.29962-.58185-1.29962-1.29962-1.29962ZM17.87433,22.28833c-.28394,0-.5141-.2301-.5141-.51404s.23016-.5141.5141-.5141c.28387,0,.51404.23016.51404.5141s-.23016.51404-.51404.51404Z"/><path class="g" d="M15.58081,22.76813c-.71777,0-1.29962.58185-1.29962,1.29962s.58185,1.29968,1.29962,1.29968,1.29962-.58191,1.29962-1.29968-.58185-1.29962-1.29962-1.29962ZM15.58081,24.58185c-.28387,0-.51404-.23016-.51404-.5141,0-.28387.23016-.51404.51404-.51404.28394,0,.5141.23016.5141.51404,0,.28394-.23016.5141-.5141.5141Z"/><path class="g" d="M34.41943,20.78046c.71777,0,1.29962-.58191,1.29962-1.29968s-.58185-1.29962-1.29962-1.29962-1.29962.58185-1.29962,1.29962.58185,1.29968,1.29962,1.29968ZM34.41943,18.96674c.28394,0,.5141.23016.5141.51404,0,.28394-.23016.5141-.5141.5141s-.51404-.23016-.51404-.5141c0-.28387.2301-.51404.51404-.51404Z"/><path class="g" d="M36.71295,20.47467c-.71777,0-1.29968.58185-1.29968,1.29962s.58191,1.29962,1.29968,1.29962c.71771,0,1.29962-.58185,1.29962-1.29962s-.58191-1.29962-1.29962-1.29962ZM36.71295,22.28833c-.28394,0-.5141-.2301-.5141-.51404s.23016-.5141.5141-.5141c.28387,0,.51404.23016.51404.5141s-.23016.51404-.51404.51404Z"/><path class="g" d="M32.12598,20.47467c-.71777,0-1.29968.58185-1.29968,1.29962s.58191,1.29962,1.29968,1.29962c.71771,0,1.29962-.58185,1.29962-1.29962s-.58191-1.29962-1.29962-1.29962ZM32.12598,22.28833c-.28394,0-.5141-.2301-.5141-.51404s.23016-.5141.5141-.5141c.28387,0,.51404.23016.51404.5141s-.23016.51404-.51404.51404Z"/><path class="g" d="M34.41943,22.76813c-.71777,0-1.29962.58185-1.29962,1.29962s.58185,1.29968,1.29962,1.29968,1.29962-.58191,1.29962-1.29968-.58185-1.29962-1.29962-1.29962ZM34.41943,24.58185c-.28394,0-.51404-.23016-.51404-.5141,0-.28387.2301-.51404.51404-.51404s.5141.23016.5141.51404c0,.28394-.23016.5141-.5141.5141Z"/><path class="d" d="M29.88904,10.6535h-9.77777c-.33752,0-.61115.27362-.61115.61108v2.44348c0-.55231.44769-1,1-1h1.66656c.55231,0,1,.44769,1,1v1.98138h.00006v-1.98138c0-.55231.44769-1,1-1h1.66656c.55231,0,1,.44769,1,1,0-.55231.44769-1,1-1h1.66656c.55231,0,1,.44769,1,1v1.98138h.00012v1.68689c0-.00024.00012-.00037.00012-.00061v-6.11115c0-.33746-.27362-.61108-.61108-.61108ZM23.70996,12.11084h-3.80664c-.06934,0-.125-.05615-.125-.125s.05566-.125.125-.125h3.80664c.06934,0,.125.05615.125.125s-.05566.125-.125.125ZM27.97266,12.11084h-.61816c-.06934,0-.125-.05615-.125-.125s.05566-.125.125-.125h.61816c.06934,0,.125.05615.125.125s-.05566.125-.125.125ZM29.03516,12.11084h-.61914c-.06934,0-.125-.05615-.125-.125s.05566-.125.125-.125h.61914c.06934,0,.125.05615.125.125s-.05566.125-.125.125ZM30.09668,12.11084h-.61816c-.06934,0-.125-.05615-.125-.125s.05566-.125.125-.125h.61816c.06934,0,.125.05615.125.125s-.05566.125-.125.125Z"/><path class="d" d="M26.58331,13.70807c0-.41351-.33649-.75-.75-.75h-1.66656c-.41357,0-.75.33649-.75.75v1.98138h3.16656v-1.98138Z"/><path class="d" d="M30.24988,15.68945v-1.98138c0-.41351-.33643-.75-.75-.75h-1.66656c-.41357,0-.75.33649-.75.75v1.98138h3.16656Z"/><path class="d" d="M20.11127,17.98682h9.77777c.30109,0,.53992-.22186.59039-.50848h-10.95862c.05048.28662.28931.50848.59045.50848Z"/><path class="e" d="M12.62524,16.79089c0-1.46149-1.18512-2.64667-2.64661-2.64667-1.45984.00171-2.64496,1.18518-2.64661,2.64667,0,1.46149,1.18512,2.64661,2.64661,2.64661s2.64661-1.18512,2.64661-2.64661Z"/><path class="e" d="M39.99646,14.14423c-1.45984.00171-2.64496,1.18518-2.64661,2.64667,0,1.46149,1.18512,2.64661,2.64661,2.64661s2.64661-1.18512,2.64661-2.64661-1.18512-2.64667-2.64661-2.64667Z"/><rect class="g" x="23.65253" y="22.08447" width="2.69495" height="2.69489" rx=".57855" ry=".57855"/><path class="f" d="M27.88965,18.96674h-5.7793c-.55273,0-1,.44775-1,1s.44727,1,1,1h5.7793c.55273,0,1-.44775,1-1s-.44727-1-1-1Z"/><path class="f" d="M15.58081,19.99487c.28394,0,.5141-.23016.5141-.5141,0-.28387-.23016-.51404-.5141-.51404-.28387,0-.51404.23016-.51404.51404,0,.28394.23016.5141.51404.5141Z"/><path class="f" d="M13.28735,21.26019c-.28394,0-.5141.23016-.5141.5141s.23016.51404.5141.51404c.28387,0,.51404-.2301.51404-.51404s-.23016-.5141-.51404-.5141Z"/><path class="f" d="M17.87433,21.26019c-.28394,0-.5141.23016-.5141.5141s.23016.51404.5141.51404c.28387,0,.51404-.2301.51404-.51404s-.23016-.5141-.51404-.5141Z"/><path class="f" d="M15.58081,23.55371c-.28387,0-.51404.23016-.51404.51404,0,.28394.23016.5141.51404.5141.28394,0,.5141-.23016.5141-.5141,0-.28387-.23016-.51404-.5141-.51404Z"/><path class="f" d="M34.41943,19.99487c.28394,0,.5141-.23016.5141-.5141,0-.28387-.23016-.51404-.5141-.51404s-.51404.23016-.51404.51404c0,.28394.2301.5141.51404.5141Z"/><path class="f" d="M32.12598,21.26019c-.28394,0-.5141.23016-.5141.5141s.23016.51404.5141.51404c.28387,0,.51404-.2301.51404-.51404s-.23016-.5141-.51404-.5141Z"/><path class="f" d="M36.71295,21.26019c-.28394,0-.5141.23016-.5141.5141s.23016.51404.5141.51404c.28387,0,.51404-.2301.51404-.51404s-.23016-.5141-.51404-.5141Z"/><path class="f" d="M34.41943,23.55371c-.28394,0-.51404.23016-.51404.51404,0,.28394.2301.5141.51404.5141s.5141-.23016.5141-.5141c0-.28387-.23016-.51404-.5141-.51404Z"/><path class="g" d="M30.49988,15.68945v-1.98138c0-.55231-.44769-1-1-1h-1.66656c-.55231,0-1,.44769-1,1,0-.55231-.44769-1-1-1h-1.66656c-.55231,0-1,.44769-1,1v1.98138h-.00006v-1.98138c0-.55231-.44769-1-1-1h-1.66656c-.55231,0-1,.44769-1,1v1.98138h-.00012v1.78888h11v-1.78888h-.00012ZM20.68848,13.82031h1.29004c.27637,0,.5.22363.5.5s-.22363.5-.5.5h-1.29004c-.27637,0-.5-.22363-.5-.5s.22363-.5.5-.5ZM27.83331,12.95807h1.66656c.41357,0,.75.33649.75.75v1.98138h-3.16656v-1.98138c0-.41351.33643-.75.75-.75ZM23.41675,13.70807c0-.41351.33643-.75.75-.75h1.66656c.41351,0,.75.33649.75.75v1.98138h-3.16656v-1.98138ZM27.57812,16.45898c.06934,0,.125.05615.125.125s-.05566.125-.125.125h-5.15527c-.06934,0-.125-.05615-.125-.125s.05566-.125.125-.125h5.15527Z"/><path class="d" d="M20.68848,14.82031h1.29004c.27637,0,.5-.22363.5-.5s-.22363-.5-.5-.5h-1.29004c-.27637,0-.5.22363-.5.5s.22363.5.5.5Z"/><path class="d" d="M22.29785,16.58398c0,.06885.05566.125.125.125h5.15527c.06934,0,.125-.05615.125-.125s-.05566-.125-.125-.125h-5.15527c-.06934,0-.125.05615-.125.125Z"/><path class="g" d="M23.70996,11.86084h-3.80664c-.06934,0-.125.05615-.125.125s.05566.125.125.125h3.80664c.06934,0,.125-.05615.125-.125s-.05566-.125-.125-.125Z"/><path class="g" d="M30.09668,11.86084h-.61816c-.06934,0-.125.05615-.125.125s.05566.125.125.125h.61816c.06934,0,.125-.05615.125-.125s-.05566-.125-.125-.125Z"/><path class="g" d="M29.03516,11.86084h-.61914c-.06934,0-.125.05615-.125.125s.05566.125.125.125h.61914c.06934,0,.125-.05615.125-.125s-.05566-.125-.125-.125Z"/><path class="g" d="M27.97266,11.86084h-.61816c-.06934,0-.125.05615-.125.125s.05566.125.125.125h.61816c.06934,0,.125-.05615.125-.125s-.05566-.125-.125-.125Z"/></svg>