<?xml version="1.0" encoding="UTF-8"?><svg id="b" xmlns="http://www.w3.org/2000/svg" width="50" height="50" viewBox="0 0 50 50"><defs><style>.c{fill:#e8e9eb;}.d{fill:#4d4d4d;}.e{fill:#fff;}.f{fill:#01acd8;}.g{fill:#626668;}.h{fill:#575e75;}.i{fill:#1a1a1a;}.j{fill:#191919;}.k{fill:#d7282f;}.l{fill:#2e2e2e;}</style></defs><path class="h" d="M43.51001,35.39996v2.57428c0,1.10455-.89545,2-2,2H8.48999c-1.10455,0-2-.89545-2-2V12.22998c0-1.10461.89545-2,2-2h33.02002c1.10455,0,2,.89539,2,2v23.16998Z"/><path class="i" d="M41.51001,37.39996H8.48999c-1.10455,0-2-.89545-2-2v2.57428c0,1.10455.89545,2,2,2h33.02002c1.10455,0,2-.89545,2-2v-2.57428c0,1.10455-.89545,2-2,2Z"/><path class="l" d="M41.51001,10.22998H8.48999c-1.10455,0-2,.89539-2,2v23.16998c0,1.10455.89545,2,2,2h33.02002c1.10455,0,2-.89545,2-2V12.22998c0-1.10461-.89545-2-2-2ZM35.75262,10.97986h1.91376c.17944,0,.32898.14948.32898.32892v1.91382c0,.17938-.14954.32892-.32898.32892h-1.91376c-.17944,0-.32898-.14954-.32898-.32892v-1.91382c0-.17944.14954-.32892.32898-.32892ZM32.52606,10.97986h1.91376c.17944,0,.32898.14948.32898.32892v1.91382c0,.17938-.14954.32892-.32898.32892h-1.91376c-.17944,0-.32898-.14954-.32898-.32892v-1.91382c0-.17944.14954-.32892.32898-.32892ZM29.2995,10.97986h1.91376c.17944,0,.32898.14948.32898.32892v1.91382c0,.17938-.14954.32892-.32898.32892h-1.91376c-.17944,0-.32898-.14954-.32898-.32892v-1.91382c0-.17944.14954-.32892.32898-.32892ZM26.07294,10.97986h1.91376c.17944,0,.32898.14948.32898.32892v1.91382c0,.17938-.14954.32892-.32898.32892h-1.91376c-.17944,0-.32898-.14954-.32898-.32892v-1.91382c0-.17944.14954-.32892.32898-.32892ZM22.84644,10.97986h1.91376c.17944,0,.32898.14948.32898.32892v1.91382c0,.17938-.14954.32892-.32898.32892h-1.91376c-.17944,0-.32898-.14954-.32898-.32892v-1.91382c0-.17944.14954-.32892.32898-.32892ZM19.61987,10.97986h1.91376c.17944,0,.32898.14948.32898.32892v1.91382c0,.17938-.14954.32892-.32898.32892h-1.91376c-.17944,0-.32898-.14954-.32898-.32892v-1.91382c0-.17944.14954-.32892.32898-.32892ZM16.39331,10.97986h1.91376c.17944,0,.32898.14948.32898.32892v1.91382c0,.17938-.14954.32892-.32898.32892h-1.91376c-.17944,0-.32898-.14954-.32898-.32892v-1.91382c0-.17944.14954-.32892.32898-.32892ZM13.16675,10.97986h1.91376c.17944,0,.32898.14948.32898.32892v1.91382c0,.17938-.14954.32892-.32898.32892h-1.91376c-.17944,0-.32898-.14954-.32898-.32892v-1.91382c0-.17944.14954-.32892.32898-.32892ZM9.94025,10.97986h1.91376c.17944,0,.32898.14948.32898.32892v1.91382c0,.17938-.14954.32892-.32898.32892h-1.91376c-.17944,0-.32898-.14954-.32898-.32892v-1.91382c0-.17944.14954-.32892.32898-.32892ZM12.18298,36.31793c0,.17938-.14954.32892-.32898.32892h-1.91376c-.17944,0-.32898-.14954-.32898-.32892v-1.91382c0-.17944.14954-.32892.32898-.32892h1.91376c.17944,0,.32898.14948.32898.32892v1.91382ZM15.40948,36.31793c0,.17938-.14954.32892-.32898.32892h-1.91376c-.17944,0-.32898-.14954-.32898-.32892v-1.91382c0-.17944.14954-.32892.32898-.32892h1.91376c.17944,0,.32898.14948.32898.32892v1.91382ZM18.63605,36.31793c0,.17938-.14954.32892-.32898.32892h-1.91376c-.17944,0-.32898-.14954-.32898-.32892v-1.91382c0-.17944.14954-.32892.32898-.32892h1.91376c.17944,0,.32898.14948.32898.32892v1.91382ZM21.86261,36.31793c0,.17938-.14954.32892-.32898.32892h-1.91376c-.17944,0-.32898-.14954-.32898-.32892v-1.91382c0-.17944.14954-.32892.32898-.32892h1.91376c.17944,0,.32898.14948.32898.32892v1.91382ZM25.08917,36.31793c0,.17938-.14954.32892-.32898.32892h-1.91376c-.17944,0-.32898-.14954-.32898-.32892v-1.91382c0-.17944.14954-.32892.32898-.32892h1.91376c.17944,0,.32898.14948.32898.32892v1.91382ZM28.31567,36.31793c0,.17938-.14954.32892-.32898.32892h-1.91376c-.17944,0-.32898-.14954-.32898-.32892v-1.91382c0-.17944.14954-.32892.32898-.32892h1.91376c.17944,0,.32898.14948.32898.32892v1.91382ZM31.54224,36.31793c0,.17938-.14954.32892-.32898.32892h-1.91376c-.17944,0-.32898-.14954-.32898-.32892v-1.91382c0-.17944.14954-.32892.32898-.32892h1.91376c.17944,0,.32898.14948.32898.32892v1.91382ZM34.7688,36.31793c0,.17938-.14954.32892-.32898.32892h-1.91376c-.17944,0-.32898-.14954-.32898-.32892v-1.91382c0-.17944.14954-.32892.32898-.32892h1.91376c.17944,0,.32898.14948.32898.32892v1.91382ZM37.99536,36.31793c0,.17938-.14954.32892-.32898.32892h-1.91376c-.17944,0-.32898-.14954-.32898-.32892v-1.91382c0-.17944.14954-.32892.32898-.32892h1.91376c.17944,0,.32898.14948.32898.32892v1.91382ZM41.97205,32.40039c0,.55225-.44769,1-1,1H9.02795c-.55231,0-1-.44775-1-1V15.23047c0-.55231.44769-1,1-1h31.94409c.55231,0,1,.44769,1,1v17.16992Z"/><path class="g" d="M40.97205,14.23047H9.02795c-.55231,0-1,.44769-1,1v17.16992c0,.55225.44769,1,1,1h31.94409c.55231,0,1-.44775,1-1V15.23047c0-.55231-.44769-1-1-1ZM36.78217,30.625c0,.55225-.44775,1-1,1H10.61127c-.55231,0-1-.44775-1-1v-13.62329c0-.55231.44769-1,1-1h25.1709c.55225,0,1,.44769,1,1v13.62329ZM40.95612,24.27032c0,.55225-.44769,1-1,1h-.91394c-.55225,0-1-.44775-1-1v-.91394c0-.55231.44775-1,1-1h.91394c.55231,0,1,.44769,1,1v.91394ZM40.20544,18.82941h-1.87695c-.52472,0-.94934-.42505-.94934-.94934,0-.52423.42462-.94928.94934-.94928h1.87695c.52472,0,.94928.42505.94928.94928,0,.52429-.42456.94934-.94928.94934Z"/><rect x="25.74396" y="10.97986" width="2.57172" height="2.57166" rx=".32892" ry=".32892"/><rect x="22.51746" y="10.97986" width="2.57172" height="2.57166" rx=".32892" ry=".32892"/><rect x="16.06433" y="10.97986" width="2.57172" height="2.57166" rx=".32892" ry=".32892"/><rect x="12.83777" y="10.97986" width="2.57172" height="2.57166" rx=".32892" ry=".32892"/><rect x="35.42365" y="10.97986" width="2.57172" height="2.57166" rx=".32892" ry=".32892"/><rect x="9.61127" y="10.97986" width="2.57172" height="2.57166" rx=".32892" ry=".32892"/><rect x="28.97052" y="10.97986" width="2.57172" height="2.57166" rx=".32892" ry=".32892"/><rect x="32.19708" y="10.97986" width="2.57172" height="2.57166" rx=".32892" ry=".32892"/><rect x="19.29089" y="10.97986" width="2.57172" height="2.57166" rx=".32892" ry=".32892"/><rect x="9.61127" y="34.0752" width="2.57172" height="2.57166" rx=".32892" ry=".32892"/><rect x="22.51746" y="34.0752" width="2.57172" height="2.57166" rx=".32892" ry=".32892"/><rect x="32.19708" y="34.0752" width="2.57172" height="2.57166" rx=".32892" ry=".32892"/><rect x="28.97052" y="34.0752" width="2.57172" height="2.57166" rx=".32892" ry=".32892"/><rect x="35.42365" y="34.0752" width="2.57172" height="2.57166" rx=".32898" ry=".32898"/><rect x="16.06433" y="34.0752" width="2.57172" height="2.57166" rx=".32892" ry=".32892"/><rect x="25.74396" y="34.0752" width="2.57172" height="2.57166" rx=".32892" ry=".32892"/><rect x="19.29089" y="34.0752" width="2.57172" height="2.57166" rx=".32892" ry=".32892"/><rect x="12.83777" y="34.0752" width="2.57172" height="2.57166" rx=".32892" ry=".32892"/><rect class="l" x="24.66016" y="25.99707" width="3.44629" height="3.44629" rx=".81641" ry=".81641"/><path class="l" d="M35.78217,16.00171H10.61127c-.55231,0-1,.44769-1,1v13.62329c0,.55225.44769,1,1,1h25.1709c.55225,0,1-.44775,1-1v-13.62329c0-.55231-.44775-1-1-1ZM17.41504,20.47852c0-.72559.59082-1.31641,1.31641-1.31641h1.81348c.72559,0,1.31641.59082,1.31641,1.31641v1.81348c0,.72559-.59082,1.31641-1.31641,1.31641h-1.81348c-.72559,0-1.31641-.59082-1.31641-1.31641v-1.81348ZM10.39746,17.16113c0-.27637.22363-.5.5-.5h3.24414c.27637,0,.5.22363.5.5s-.22363.5-.5.5h-3.24414c-.27637,0-.5-.22363-.5-.5ZM15.11621,28.62695c0,.72559-.59082,1.31641-1.31641,1.31641h-1.81348c-.72656,0-1.31738-.59082-1.31738-1.31641v-1.81348c0-.72559.59082-1.31641,1.31738-1.31641h1.81348c.72559,0,1.31641.59082,1.31641,1.31641v1.81348ZM11.39355,24.28809c0-.1377.1123-.25.25-.25h2.49805c.1377,0,.25.1123.25.25s-.1123.25-.25.25h-2.49805c-.1377,0-.25-.1123-.25-.25ZM15.11621,22.29199c0,.72559-.59082,1.31641-1.31641,1.31641h-1.81348c-.72656,0-1.31738-.59082-1.31738-1.31641v-1.81348c0-.72559.59082-1.31641,1.31738-1.31641h1.81348c.72559,0,1.31641.59082,1.31641,1.31641v1.81348ZM21.86133,28.62695c0,.72559-.59082,1.31641-1.31641,1.31641h-1.81348c-.72559,0-1.31641-.59082-1.31641-1.31641v-1.81348c0-.72559.59082-1.31641,1.31641-1.31641h1.81348c.72559,0,1.31641.59082,1.31641,1.31641v1.81348ZM21.63379,24.53809h-3.99121c-.1377,0-.25-.1123-.25-.25s.1123-.25.25-.25h3.99121c.1377,0,.25.1123.25.25s-.1123.25-.25.25ZM28.60645,28.62695c0,.72559-.59082,1.31641-1.31641,1.31641h-1.81348c-.72559,0-1.31641-.59082-1.31641-1.31641v-1.81348c0-.72559.59082-1.31641,1.31641-1.31641h1.81348c.72559,0,1.31641.59082,1.31641,1.31641v1.81348ZM24.51074,24.28809c0-.1377.1123-.25.25-.25h3.24512c.1377,0,.25.1123.25.25s-.1123.25-.25.25h-3.24512c-.1377,0-.25-.1123-.25-.25ZM28.70898,20.50879l-3.34961,2.3584c-.10938.07715-.23438.11426-.3584.11426-.19727,0-.39062-.09277-.51172-.26562-.19922-.28223-.13086-.67188.15137-.87012l3.34961-2.3584c.28223-.20117.67285-.13086.87012.15137.19922.28223.13086.67188-.15137.87012ZM35.12402,30.87305h-3.99121c-.1377,0-.25-.1123-.25-.25s.1123-.25.25-.25h3.99121c.1377,0,.25.1123.25.25s-.1123.25-.25.25ZM35.42365,29.8894h-3.58295c-.15857,0-.29834-.1142-.34369-.28076l-.64807-2.37927c-.06866-.25226.10364-.5058.34375-.5058h.38074v-.63574c0-.2074.16821-.37561.37561-.37561h3.099c.2074,0,.37561.16821.37561.37561v3.80157ZM32.10352,24.28809c0-.1377.1123-.25.25-.25h1.5498c.1377,0,.25.1123.25.25s-.1123.25-.25.25h-1.5498c-.1377,0-.25-.1123-.25-.25ZM35.42365,23.55402h-3.58295c-.15857,0-.29834-.11414-.34369-.28076l-.64807-2.37921c-.06866-.25226.10364-.50586.34375-.50586h.38074v-.63568c0-.20746.16821-.37561.37561-.37561h3.099c.2074,0,.37561.16815.37561.37561v3.80151ZM35.44141,17.66113h-1.39746c-.27637,0-.5-.22363-.5-.5s.22363-.5.5-.5h1.39746c.27637,0,.5.22363.5.5s-.22363.5-.5.5Z"/><path class="l" d="M11.98535,25.99707h1.81445c.45059,0,.81641.36582.81641.81641v1.8125c0,.45113-.36626.81738-.81738.81738h-1.81348c-.45059,0-.81641-.36582-.81641-.81641v-1.81348c0-.45059.36582-.81641.81641-.81641Z"/><path class="l" d="M11.98535,19.66211h1.81445c.45059,0,.81641.36582.81641.81641v1.8125c0,.45113-.36626.81738-.81738.81738h-1.81348c-.45059,0-.81641-.36582-.81641-.81641v-1.81348c0-.45059.36582-.81641.81641-.81641Z"/><rect class="l" x="17.91504" y="19.66211" width="3.44629" height="3.44629" rx=".81641" ry=".81641"/><rect class="l" x="17.91504" y="25.99707" width="3.44629" height="3.44629" rx=".81641" ry=".81641"/><path class="l" d="M39.95612,22.35638h-.91394c-.55225,0-1,.44769-1,1v.91394c0,.55225.44775,1,1,1h.91394c.55231,0,1-.44775,1-1v-.91394c0-.55231-.44769-1-1-1ZM39.49915,24.41882c-.33447,0-.60547-.27112-.60547-.60553,0-.33435.271-.60541.60547-.60541.33441,0,.60547.27106.60547.60541,0,.33441-.27106.60553-.60547.60553Z"/><path class="e" d="M39.49915,23.20789c-.33447,0-.60547.27106-.60547.60541,0,.33441.271.60553.60547.60553.33441,0,.60547-.27112.60547-.60553,0-.33435-.27106-.60541-.60547-.60541Z"/><path class="k" d="M40.20544,16.93079h-1.87695c-.52472,0-.94934.42505-.94934.94928,0,.52429.42462.94934.94934.94934h1.87695c.52472,0,.94928-.42505.94928-.94934,0-.52423-.42456-.94928-.94928-.94928Z"/><path class="e" d="M14.1416,17.66113c.27637,0,.5-.22363.5-.5s-.22363-.5-.5-.5h-3.24414c-.27637,0-.5.22363-.5.5s.22363.5.5.5h3.24414Z"/><path class="e" d="M35.44141,16.66113h-1.39746c-.27637,0-.5.22363-.5.5s.22363.5.5.5h1.39746c.27637,0,.5-.22363.5-.5s-.22363-.5-.5-.5Z"/><path class="e" d="M14.1416,24.53809c.1377,0,.25-.1123.25-.25s-.1123-.25-.25-.25h-2.49805c-.1377,0-.25.1123-.25.25s.1123.25.25.25h2.49805Z"/><path class="e" d="M13.7998,19.16211h-1.81348c-.72656,0-1.31738.59082-1.31738,1.31641v1.81348c0,.72559.59082,1.31641,1.31738,1.31641h1.81348c.72559,0,1.31641-.59082,1.31641-1.31641v-1.81348c0-.72559-.59082-1.31641-1.31641-1.31641ZM14.61621,22.29199c0,.4502-.36621.81641-.81641.81641h-1.81348c-.45117,0-.81738-.36621-.81738-.81641v-1.81348c0-.4502.36621-.81641.81738-.81641h1.81348c.4502,0,.81641.36621.81641.81641v1.81348Z"/><path class="e" d="M21.63379,24.03809h-3.99121c-.1377,0-.25.1123-.25.25s.1123.25.25.25h3.99121c.1377,0,.25-.1123.25-.25s-.1123-.25-.25-.25Z"/><path class="e" d="M18.73145,23.6084h1.81348c.72559,0,1.31641-.59082,1.31641-1.31641v-1.81348c0-.72559-.59082-1.31641-1.31641-1.31641h-1.81348c-.72559,0-1.31641.59082-1.31641,1.31641v1.81348c0,.72559.59082,1.31641,1.31641,1.31641ZM17.91504,20.47852c0-.4502.36621-.81641.81641-.81641h1.81348c.4502,0,.81641.36621.81641.81641v1.81348c0,.4502-.36621.81641-.81641.81641h-1.81348c-.4502,0-.81641-.36621-.81641-.81641v-1.81348Z"/><path class="e" d="M24.76074,24.53809h3.24512c.1377,0,.25-.1123.25-.25s-.1123-.25-.25-.25h-3.24512c-.1377,0-.25.1123-.25.25s.1123.25.25.25Z"/><path class="e" d="M27.99023,19.4873l-3.34961,2.3584c-.28223.19824-.35059.58789-.15137.87012.12109.17285.31445.26562.51172.26562.12402,0,.24902-.03711.3584-.11426l3.34961-2.3584c.28223-.19824.35059-.58789.15137-.87012-.19727-.28223-.58789-.35254-.87012-.15137Z"/><path class="e" d="M35.12402,30.37305h-3.99121c-.1377,0-.25.1123-.25.25s.1123.25.25.25h3.99121c.1377,0,.25-.1123.25-.25s-.1123-.25-.25-.25Z"/><path class="f" d="M35.04803,25.71222h-3.099c-.2074,0-.37561.16821-.37561.37561v.63574h2.81592c.16302,0,.3056.12054.34698.29346l.68732,2.87238v-3.80157c0-.2074-.16821-.37561-.37561-.37561Z"/><path class="c" d="M34.38934,26.72357h-3.19666c-.24011,0-.41241.25354-.34375.5058l.64807,2.37927c.04535.16656.18512.28076.34369.28076h3.58295l-.68732-2.87238c-.04138-.17291-.18396-.29346-.34698-.29346ZM33.74609,28.68262h-1.43555c-.20703,0-.37598-.16895-.37598-.37598s.16895-.37598.37598-.37598h1.43555c.20703,0,.37598.16895.37598.37598s-.16895.37598-.37598.37598Z"/><path class="j" d="M33.74609,27.93066h-1.43555c-.20703,0-.37598.16895-.37598.37598s.16895.37598.37598.37598h1.43555c.20703,0,.37598-.16895.37598-.37598s-.16895-.37598-.37598-.37598Z"/><path class="e" d="M33.90332,24.53809c.1377,0,.25-.1123.25-.25s-.1123-.25-.25-.25h-1.5498c-.1377,0-.25.1123-.25.25s.1123.25.25.25h1.5498Z"/><path class="f" d="M35.04803,19.37689h-3.099c-.2074,0-.37561.16815-.37561.37561v.63568h2.81592c.16302,0,.3056.12061.34698.29352l.68732,2.87231v-3.80151c0-.20746-.16821-.37561-.37561-.37561Z"/><path class="c" d="M34.38934,20.38818h-3.19666c-.24011,0-.41241.2536-.34375.50586l.64807,2.37921c.04535.16663.18512.28076.34369.28076h3.58295l-.68732-2.87231c-.04138-.17291-.18396-.29352-.34698-.29352ZM33.74609,22.34668h-1.43555c-.20703,0-.37598-.16895-.37598-.37598s.16895-.37598.37598-.37598h1.43555c.20703,0,.37598.16895.37598.37598s-.16895.37598-.37598.37598Z"/><path class="j" d="M33.74609,21.59473h-1.43555c-.20703,0-.37598.16895-.37598.37598s.16895.37598.37598.37598h1.43555c.20703,0,.37598-.16895.37598-.37598s-.16895-.37598-.37598-.37598Z"/><path class="d" d="M13.7998,25.49707h-1.81348c-.72656,0-1.31738.59082-1.31738,1.31641v1.81348c0,.72559.59082,1.31641,1.31738,1.31641h1.81348c.72559,0,1.31641-.59082,1.31641-1.31641v-1.81348c0-.72559-.59082-1.31641-1.31641-1.31641ZM14.61621,28.62695c0,.4502-.36621.81641-.81641.81641h-1.81348c-.45117,0-.81738-.36621-.81738-.81641v-1.81348c0-.4502.36621-.81641.81738-.81641h1.81348c.4502,0,.81641.36621.81641.81641v1.81348Z"/><path class="d" d="M20.54492,25.49707h-1.81348c-.72559,0-1.31641.59082-1.31641,1.31641v1.81348c0,.72559.59082,1.31641,1.31641,1.31641h1.81348c.72559,0,1.31641-.59082,1.31641-1.31641v-1.81348c0-.72559-.59082-1.31641-1.31641-1.31641ZM21.36133,28.62695c0,.4502-.36621.81641-.81641.81641h-1.81348c-.4502,0-.81641-.36621-.81641-.81641v-1.81348c0-.4502.36621-.81641.81641-.81641h1.81348c.4502,0,.81641.36621.81641.81641v1.81348Z"/><path class="d" d="M27.29004,25.49707h-1.81348c-.72559,0-1.31641.59082-1.31641,1.31641v1.81348c0,.72559.59082,1.31641,1.31641,1.31641h1.81348c.72559,0,1.31641-.59082,1.31641-1.31641v-1.81348c0-.72559-.59082-1.31641-1.31641-1.31641ZM28.10645,28.62695c0,.4502-.36621.81641-.81641.81641h-1.81348c-.4502,0-.81641-.36621-.81641-.81641v-1.81348c0-.4502.36621-.81641.81641-.81641h1.81348c.4502,0,.81641.36621.81641.81641v1.81348Z"/></svg>