<?xml version="1.0" encoding="UTF-8"?><svg id="d" xmlns="http://www.w3.org/2000/svg" width="102" height="102" xmlns:xlink="http://www.w3.org/1999/xlink" viewBox="0 0 102 102"><defs><style>.i{fill:#2ee6fd;}.j,.k{opacity:.3;}.j,.l{fill:#e6e6e4;}.m{fill:#fff;}.n,.k,.o{fill:none;}.p{fill:#00206d;}.q{clip-path:url(#h);}.r{fill:#bfbfbf;}.s{fill:#ffbe35;}.o{stroke:#e6e6e4;stroke-miterlimit:10;}.t{fill:#555;}.u{clip-path:url(#g);}.v{fill:#414142;}.w{fill:#7f8ebb;}</style><clipPath id="g"><path class="o" d="M48.95181,52.83104l-34.46699,30.81706c-.41681.37268-.45351,1.02107-.07243,1.43021,3.74075,4.01616,8.11905,7.3909,12.96007,9.98663,4.84102,2.59573,10.07482,4.37496,15.49006,5.2682.55167.091,1.07142-.29839,1.15117-.8518l6.59443-45.7622c.13316-.92407-.96032-1.51039-1.65631-.8881Z"/></clipPath><clipPath id="h"><circle class="p" cx="50.99997" cy="50.92962" r="23.80223"/></clipPath></defs><g id="e"><circle class="n" cx="51" cy="50.99976" r="50.00001"/><path class="k" d="M48.64495,49.5847L9.01391,25.77197c-.47926-.28797-.63681-.918-.33914-1.39131,2.92193-4.64597,6.59032-8.78134,10.8592-12.23821,4.26888-3.45687,9.07659-6.1853,14.22854-8.07743.52485-.19276,1.10836.09234,1.29039.621l15.05261,43.71594c.30395.88275-.6603,1.66358-1.46056,1.18274Z"/><path class="k" d="M48.34123,50.3072L3.59931,38.65281c-.54107-.14094-1.10144.18731-1.23134.73114-1.27505,5.33826-1.66302,10.85259-1.14609,16.32123.51694,5.46864,1.93132,10.8126,4.18407,15.81738.2295.50986.84145.72729,1.34653.48746l41.76561-19.83177c.84336-.40046.7266-1.63571-.17687-1.87104Z"/><path class="j" d="M48.95181,52.83104l-34.46699,30.81706c-.41681.37268-.45351,1.02107-.07243,1.43021,3.74075,4.01616,8.11905,7.3909,12.96007,9.98663,4.84102,2.59573,10.07482,4.37496,15.49006,5.2682.55167.091,1.07142-.29839,1.15117-.8518l6.59443-45.7622c.13316-.92407-.96032-1.51039-1.65631-.8881Z"/><path class="k" d="M51.39186,53.71915l6.59444,45.76219c.07975.55341.5995.94279,1.15117.8518,5.41524-.89324,10.64905-2.67247,15.49007-5.2682,4.84102-2.59573,9.21932-5.97047,12.96007-9.98663.38108-.40914.34438-1.05754-.07243-1.43021l-34.46701-30.81706c-.69598-.62228-1.78947-.03596-1.65631.88811Z"/><path class="k" d="M53.48189,52.17825l41.76561,19.83176c.50508.23983,1.11703.0224,1.34653-.48746,2.25275-5.00478,3.66714-10.34874,4.18408-15.81738.51694-5.46864.12896-10.98297-1.14608-16.32123-.12989-.54383-.69026-.87208-1.23134-.73114l-44.74193,11.6544c-.90346.23533-1.02023,1.47059-.17687,1.87104Z"/><path class="k" d="M53.35505,49.5847l39.63103-23.81273c.47926-.28797.63681-.918.33914-1.39131-2.92193-4.64597-6.59032-8.78134-10.8592-12.23821-4.26888-3.45687-9.07658-6.1853-14.22853-8.07744-.52485-.19276-1.10836.09234-1.29039.621l-15.05261,43.71595c-.30395.88275.6603,1.66358,1.46056,1.18274Z"/></g><g id="f"><circle class="n" cx="51" cy="50.99976" r="41.99999"/><path class="j" d="M49.02176,49.81111L15.73169,29.80842c-.40258-.2419-.53492-.77112-.28488-1.1687,2.45442-3.90261,5.53587-7.37632,9.12173-10.28009s7.62433-5.19565,11.95197-6.78504c.44087-.16192.93102.07756,1.08393.52164l12.64419,36.72138c.25532.74151-.55465,1.39741-1.22687.9935Z"/><path class="j" d="M48.76664,50.41801l-37.58321-9.78969c-.4545-.11839-.92521.15734-1.03432.61416-1.07104,4.48413-1.39694,9.11617-.96271,13.70983.43423,4.59366,1.62231,9.08258,3.51462,13.2866.19278.42828.70682.61092,1.13108.40947l35.0831-16.65869c.70842-.33638.61034-1.374-.14857-1.57168Z"/><path class="k" d="M49.27952,52.53803l-28.95227,25.88632c-.35012.31305-.38095.8577-.06084,1.20138,3.14223,3.37357,6.82,6.20835,10.88645,8.38877,4.06645,2.18041,8.46285,3.67497,13.01165,4.42529.4634.07644.9-.25064.96698-.71551l5.53932-38.44024c.11185-.77621-.80667-1.26872-1.3913-.74601Z"/><path class="j" d="M51.32917,53.28404l5.53933,38.44023c.06699.46486.50358.79195.96698.71551,4.5488-.75032,8.9452-2.24487,13.01165-4.42528,4.06645-2.18041,7.74423-5.01519,10.88645-8.38876.32011-.34368.28928-.88833-.06084-1.20138l-28.95228-25.88632c-.58463-.52272-1.50315-.03021-1.3913.74601Z"/><path class="j" d="M53.08479,51.98969l35.0831,16.65868c.42427.20146.93831.01881,1.13108-.40947,1.89231-4.20402,3.0804-8.69294,3.51463-13.2866.43423-4.59366.10833-9.2257-.96271-13.70983-.10911-.45682-.57982-.73254-1.03432-.61416l-37.58321,9.7897c-.75891.19768-.85699,1.23529-.14857,1.57168Z"/><path class="j" d="M52.97824,49.81111l33.29006-20.00269c.40258-.2419.53492-.77112.28488-1.1687-2.45442-3.90261-5.53587-7.37633-9.12173-10.2801-3.58586-2.90377-7.62433-5.19565-11.95196-6.78504-.44087-.16192-.93102.07756-1.08393.52164l-12.64418,36.72139c-.25532.74151.55465,1.39741,1.22687.9935Z"/></g><g class="u"><path class="l" d="M34.14722,20.36957l-7.53174-14.16498.88281-.46973,7.534,14.16949c-.29657.15259-.59351.30444-.88507.46521ZM28.91626,23.90381l-10.31543-12.29346-.76562.64258,10.31946,12.29828c.25208-.21796.5033-.43665.7616-.6474ZM30.8623,22.43268l-9.4353-12.98639-.80859.58789,9.43042,12.97961c.26648-.19983.5412-.38879.81348-.58112ZM32.89807,21.08783l-8.50037-13.60345-.84766.53027,8.50562,13.61157c.27985-.18085.55713-.36542.84241-.53839ZM37.23706,18.85883l-6.52393-14.65326-.91309.40723,6.52612,14.65784c.30219-.13995.60413-.28027.91089-.4118ZM46.63129,16.32275L44.39722.42627l-.99023.13965,2.23242,15.8847c.32812-.05054.66083-.08661.99188-.12787ZM39.51422,17.98187l-5.48761-15.07709-.93945.3418,5.48718,15.07599c.3111-.11835.62463-.23102.93988-.3407ZM49.06061,16.09747L47.94116.08936l-.99756.06934,1.11969,16.01465c.33179-.02765.66296-.05762.99731-.07587ZM41.8454,17.26062l-4.4223-15.42273-.96094.27539,4.42163,15.42035c.31842-.09613.63947-.18579.96161-.27301ZM44.22131,16.70392l-3.33582-15.69366-.97852.20801,3.33661,15.69739c.32483-.07367.64954-.14722.97772-.21173ZM18.77039,37.43896l-14.86926-6.00732-.375.92676,14.87744,6.01093c.12061-.31104.23767-.62378.36682-.93036ZM51,16.04132c.1676,0,.3327.01025.49976.01263V0h-1v16.05396c.16724-.00238.33246-.01263.50024-.01263ZM17.20062,42.05725l-15.56464-3.88049-.24219.9707,15.57141,3.8822c.07587-.3252.15057-.65076.23541-.97241ZM17.91132,39.72314l-15.26117-4.9585-.30859.95117,15.25256,4.95569c.09863-.31934.20972-.633.3172-.94836ZM16.29523,46.84961l-15.96344-1.67773-.10449.99414,15.96295,1.67767c.02985-.33295.06592-.66388.10498-.99408ZM27.08423,25.51428l-11.15186-11.54797-.71973.69434,11.14758,11.54388c.23651-.23505.4809-.46204.724-.69025ZM16.66534,44.43829l-15.80377-2.78644-.17383.98438,15.80188,2.78613c.05292-.32996.11365-.65723.17572-.98407ZM23.76776,29.08948l-12.64886-9.88245-.61523.78809,12.64648,9.88031c.20166-.26544.40863-.52655.61761-.78595ZM25.36243,27.24347l-11.92859-10.74054-.66895.74316,11.93066,10.742c.2196-.25079.44031-.50018.66687-.74463ZM20.97797,33.08936l-13.8952-8.02246-.5.86621,13.89679,8.02307c.1629-.29108.32751-.58099.49841-.86682ZM22.30518,31.04175l-13.3064-8.97534-.55957.8291,13.30591,8.97479c.1828-.27905.36957-.55511.56006-.82855ZM19.80402,35.22845l-14.4234-7.03461-.43848.89844,14.41956,7.03278c.14221-.30194.29181-.59949.44232-.89661ZM82.63831,36.12494l14.41956-7.03265-.43848-.89844-14.4234,7.03455c.15051.29712.30011.5946.44232.89655ZM83.59644,38.36926l14.87744-6.01086-.375-.92676-14.86926,6.00726c.12915.30658.24622.61938.36682.93036ZM16.08502,49.28003L.04858,48.72021l-.03516,1,16.04633.56018c.00677-.33386.00922-.66882.02527-1.00037ZM81.52039,33.95612l13.89685-8.02301-.5-.86621-13.8952,8.0224c.1709.28583.33545.57574.49835.86682ZM78.84979,29.87531l12.64655-9.88019-.61523-.78809-12.64893,9.88239c.20898.2594.41595.52045.61761.78589ZM80.25482,31.87018l13.30597-8.97467-.55957-.8291-13.30646,8.97528c.19055.27344.3772.54944.56006.82849ZM84.40582,40.67133l15.25214-4.95551-.30859-.95117-15.26074,4.95831c.10748.31537.21857.62903.3172.94836ZM77.30426,27.98792l11.93036-10.74182-.66895-.74316-11.92834,10.7403c.22656.24438.44733.49384.66693.74469ZM85.94025,50.2804l16.04633-.56018-.03516-1-16.03644.55981c.01605.33154.01849.6665.02527,1.00037ZM85.80975,47.84369l15.96295-1.67767-.10449-.99414-15.96344,1.67767c.03906.3302.07513.66119.10498.99414ZM85.51038,45.4223l15.80188-2.78607-.17383-.98438-15.80377,2.78644c.06213.32678.1228.65405.17572.98401ZM85.03479,43.0296l15.57141-3.88214-.24219-.9707-15.56464,3.88049c.08484.32166.15955.64716.23541.97235ZM65.67371,19.27057l6.52625-14.65778-.91309-.40723-6.52405,14.6532c.30676.13153.60876.27185.91089.4118ZM63.42548,18.32251l5.48737-15.07593-.93945-.3418-5.48773,15.07703c.31525.10962.62872.22229.93982.3407ZM61.11603,17.53363l4.42181-15.42035-.96094-.27539-4.42249,15.42267c.32214.08722.64325.17694.96161.27307ZM53.9364,16.17328L55.0564.15869l-.99756-.06934-1.11957,16.00812c.33429.01825.66541.04816.99713.07581ZM58.75592,16.91553l3.33661-15.69727-.97852-.20801-3.33575,15.69354c.32819.06451.65283.13812.97766.21173ZM56.36041,16.45062l2.2326-15.8847-.99023-.13965-2.23419,15.89642c.33105.04132.66376.07745.99182.12793ZM67.85266,20.36951l7.53186-14.16492-.88281-.46973-7.53412,14.16943c.29657.15259.59344.30444.88507.46521ZM71.95087,23.01355l9.43024-12.97937-.80859-.58789-9.43512,12.98621c.27228.19232.54706.38123.81348.58105ZM75.63965,26.20441l11.14771-11.54376-.71973-.69434-11.15192,11.54785c.24316.22827.48743.4552.72394.69025ZM73.84521,24.55115l10.31958-12.29822-.76562-.64258-10.31555,12.2934c.2583.21082.50952.42944.7616.6474ZM69.94397,21.62598l8.50549-13.61133-.84766-.53027-8.50024,13.60327c.28528.17303.56256.35748.84241.53833ZM36.32623,82.72888l-6.52618,14.65833.91309.40625,6.52374-14.65283c-.3067-.13147-.60852-.27179-.91064-.41174ZM71.13708,79.5672l9.43542,12.987.80859-.58789-9.43048-12.98016c-.26642.19977-.54126.38879-.81354.58105ZM69.10162,80.91187l8.50018,13.60327.84766-.5293-8.50574-13.61218c-.27979.18079-.55695.3653-.8421.53821ZM73.08374,78.0957l10.31543,12.29346.76562-.64258-10.31946-12.29828c-.25208.21796-.5033.43665-.7616.6474ZM74.91559,76.48541l11.15204,11.54828.71973-.69531-11.14746-11.54352c-.23663.23511-.48108.46222-.7243.69055ZM16.05975,51.7193L.01343,52.27979l.03516,1,16.03644-.56012c-.01611-.33154-.01849-.6665-.02527-1.00037ZM66.96753,82.09528l7.53418,14.16986.88281-.46875-7.53223-14.1662c-.2915.16071-.58826.3125-.88477.46509ZM55.36865,85.67676l2.23413,15.896.99023-.13867-2.2326-15.88519c-.32806.05048-.66077.08661-.99176.12787ZM57.77832,85.29565l3.33569,15.69312.97852-.20703-3.33667-15.69775c-.32477.07361-.64941.14716-.97754.21167ZM64.763,83.14069l6.52386,14.65277.91309-.40625-6.52631-14.65826c-.30206.13995-.60394.28027-.91064.41174ZM62.4856,84.0177l5.48779,15.07751.93945-.3418-5.48743-15.07642c-.3111.11835-.62457.23102-.93982.3407ZM60.15448,84.73895l4.42242,15.42267.96094-.27539-4.42175-15.42035c-.31836.09613-.63947.18591-.96161.27307ZM82.19592,66.77124l14.42346,7.03491.43848-.89844-14.41962-7.03302c-.14221.30194-.29181.59943-.44232.89655ZM85.33459,57.5614l15.80383,2.78674.17383-.98438-15.80194-2.78638c-.05298.32996-.11359.65717-.17572.98401ZM78.2323,72.91003l12.6488,9.88245.61523-.78711-12.64679-9.88086c-.20154.26532-.40839.52625-.61725.78552ZM85.91498,52.71967l16.03644.56012.03516-1-16.04633-.56049c-.00677.33386-.00916.66882-.02527,1.00037ZM84.08844,62.27698l15.26093,4.95886.30859-.95117-15.25226-4.95605c-.09863.31934-.20984.633-.31726.94836ZM85.70477,55.14978l15.96344,1.67786.10449-.99414-15.96295-1.6778c-.02985.33295-.06592.66388-.10498.99408ZM84.79926,59.94275l15.56476,3.88098.24219-.9707-15.57153-3.88269c-.07593.3252-.15051.65076-.23541.97241ZM81.02222,68.90985l13.89502,8.02228.5-.86523-13.89691-8.02338c-.16278.29089-.32733.58069-.49811.86633ZM79.69489,70.9577l13.30634,8.9754.55957-.82812-13.30621-8.97528c-.18274.27887-.3692.55469-.55969.828ZM83.22943,64.56104l14.86945,6.00781.375-.92773-14.87738-6.01099c-.12073.31116-.23779.62415-.36707.93091ZM52.93927,85.90204l1.11957,16.00861.99756-.07031-1.12-16.0141c-.33173.02765-.66284.05756-.99713.07581ZM76.63739,74.75623l11.92828,10.74036.66895-.74219-11.9306-10.74249c-.21948.25067-.44012.50006-.66663.74432ZM19.36176,65.87463l-14.41962,7.03308.43848.89844,14.42346-7.03497c-.15051-.29712-.30005-.5946-.44232-.89655ZM18.4035,63.63007l-14.87738,6.01105.375.92773,14.86945-6.00787c-.12927-.30682-.2464-.61975-.36707-.93091ZM20.47961,68.04346l-13.89685,8.02344.5.86523,13.89496-8.02234c-.17078-.28571-.33533-.57544-.49811-.86633ZM23.15039,72.12445l-12.64673,9.88092.61523.78711,12.6488-9.88257c-.20886-.25934-.41577-.5202-.61731-.78546ZM21.74536,70.12958l-13.30615,8.9754.55957.82812,13.30634-8.97546c-.19043-.27325-.37701-.54913-.55975-.82806ZM16.19025,54.15564L.22729,55.8335l.10449.99414,15.96344-1.67786c-.03906-.3302-.07513-.66119-.10498-.99414ZM17.59424,61.32849l-15.25269,4.95618.30859.95117,15.26135-4.95898c-.10748-.31537-.21863-.62897-.31726-.94836ZM24.6958,74.01166l-11.93091,10.74274.66895.74219,11.92853-10.7406c-.22644-.24426-.44702-.49365-.66656-.74432ZM51,85.95819c-.16779,0-.33301-.01025-.50024-.01263v16.05396h1v-16.05396c-.16705.00238-.33215.01263-.49976.01263ZM16.96533,58.97034l-15.57153,3.88269.24219.9707,15.56476-3.88104c-.0849-.32166-.15948-.64716-.23541-.97235ZM16.48962,56.57733l-15.80188,2.78644.17383.98438,15.80383-2.78674c-.06213-.32684-.1228-.65411-.17578-.98407ZM43.24365,85.08386l-3.33667,15.69788.97852.20703,3.33569-15.69318c-.32812-.06451-.65271-.13812-.97754-.21173ZM38.5744,83.67694l-5.48724,15.07648.93945.3418,5.48767-15.07758c-.31525-.10962-.62878-.22235-.93988-.3407ZM40.88373,84.46588l-4.42157,15.42035.96094.27539,4.42224-15.42273c-.32214-.08722-.64325-.17688-.96161-.27301ZM48.06329,85.82617l-1.11969,16.01416.99756.07031,1.11945-16.00861c-.33441-.01825-.66553-.04822-.99731-.07587ZM45.63947,85.54889l-2.23248,15.88519.99023.13867,2.23401-15.896c-.33105-.04126-.6637-.07739-.99176-.12787ZM28.1546,77.44824l-10.3194,12.29834.76562.64258,10.31531-12.29352c-.2583-.21075-.50946-.42944-.76154-.6474ZM30.04901,78.98584l-9.4306,12.98047.80859.58789,9.43555-12.98724c-.27228-.19226-.54712-.38129-.81354-.58112ZM26.35999,75.7948l-11.14734,11.54358.71973.69531,11.15192-11.54834c-.24323-.22839-.48767-.45544-.7243-.69055ZM32.05591,80.37347l-8.50586,13.61237.84766.5293,8.50031-13.60352c-.28516-.17297-.56232-.3573-.8421-.53815ZM34.14758,81.63013l-7.5321,14.16626.88281.46875,7.53406-14.16992c-.29645-.15259-.59326-.30438-.88477-.46509Z"/></g><path class="o" d="M48.95181,52.83104l-34.46699,30.81706c-.41681.37268-.45351,1.02107-.07243,1.43021,3.74075,4.01616,8.11905,7.3909,12.96007,9.98663,4.84102,2.59573,10.07482,4.37496,15.49006,5.2682.55167.091,1.07142-.29839,1.15117-.8518l6.59443-45.7622c.13316-.92407-.96032-1.51039-1.65631-.8881Z"/><circle class="v" cx="51" cy="50.92957" r="37.5"/><path class="l" d="M61.94794,15.05774v2.59723c13.96777,4.59723,24.0553,17.74036,24.0553,33.24719,0,19.33179-15.67151,35.00323-35.00323,35.00323S15.9967,70.23395,15.9967,50.90217c0-15.50684,10.08746-28.64996,24.0553-33.24719v-2.59723c-15.36896,4.68488-26.552,18.97046-26.552,35.87189,0,20.71063,16.78931,37.49994,37.5,37.49994s37.5-16.78931,37.5-37.49994c0-16.90143-11.18311-31.18707-26.55206-35.87189Z"/><circle class="t" cx="50.99997" cy="50.92962" r="29.34876"/><circle class="p" cx="50.99997" cy="50.92962" r="23.80223"/><g class="q"><path class="s" d="M60.82085,53.82077v-9.50788c0-.56691-.30245-1.09077-.79341-1.37422l-8.23406-4.75394c-.49096-.28346-1.09585-.28346-1.58682,0l-8.23406,4.75394c-.49096.28346-.79341.80731-.79341,1.37422v9.50788c0,.56691.30245,1.09077.79341,1.37422l8.23406,4.75394c.49096.28346,1.09585.28346,1.58682,0l8.23406-4.75394c.49096-.28346.79341-.80731.79341-1.37422Z"/><circle class="i" cx="74.57651" cy="51.91622" r="7.93408"/><circle class="r" cx="50.99998" cy="74.53349" r="5.85694"/><path class="i" d="M29.82686,43.98214h-5.25824c-.42085,0-.82446.16718-1.12205.46477l-3.71814,3.71814c-.29759.29759-.46477.7012-.46477,1.12205v5.25824c0,.42085.16718.82446.46477,1.12205l3.71814,3.71814c.29759.29759.7012.46477,1.12205.46477h5.25824c.42085,0,.82446-.16718,1.12205-.46477l3.71814-3.71814c.29759-.29759.46477-.7012.46477-1.12205v-5.25824c0-.42085-.16718-.82446-.46477-1.12205l-3.71814-3.71814c-.29759-.29759-.7012-.46477-1.12205-.46477Z"/><rect class="w" x="42.3809" y="31.14285" width="4.76045" height="3.17363"/><rect class="w" x="54.91773" y="31.14285" width="4.76045" height="3.17363"/><circle class="w" cx="51.02953" cy="32.72967" r="1.58682"/><rect class="m" x="44.34265" y="62.05002" width="13.31464" height="2.1289"/></g></svg>