<?xml version="1.0" encoding="UTF-8"?><svg id="h" xmlns="http://www.w3.org/2000/svg" width="343.96028" height="528" viewBox="0 0 343.96028 528"><defs><style>.j{fill:#613d99;}.k{fill:#fff;}.l{fill:#6d46a7;}</style></defs><path class="l" d="M272.9233,494.47632c-19.03046,10.23779-57.08881,17.22424-100.94318,17.22424s-81.91272-6.98645-100.94318-17.22424c-.62305,2.76178-1.00494,9.42407-.79675,14.37463,12.7326,13.55255,75.92122,17.73914,101.73993,17.73914s89.00732-4.18658,101.73993-17.73914c.20819-4.95056-.17371-11.61285-.79675-14.37463Z"/><path class="j" d="M272.6553,493.57263c-.74799-1.91809-8.43469-7.83594-13.77313-9.9906l-4.24286-1.71246-82.65918-2.01245-82.65918,2.01245-4.24286,1.71246c-5.33844,2.15466-13.02515,8.07251-13.77313,9.9906-.09332.21722-.1828.52612-.26801.90369,19.03046,10.23779,57.08881,17.22424,100.94318,17.22424s81.91272-6.98645,100.94318-17.22424c-.08521-.37756-.17468-.68646-.26801-.90369Z"/><path class="l" d="M256.35208,487.31c-13.12,12.78998-63.00083,13.70994-84.37,13.70996-21.37163.00002-71.25995-.91998-84.38-13.70996,0,0,1.36005-17.47003,2.17004-23.25,1.32001-9.42999,6.23999-16.52002,14.09998-20.41003,12.91003,7.5,38.56,12.61005,68.10999,12.61005s55.20001-5.11005,68.11005-12.61005c7.85999,3.89001,12.77997,10.98004,14.09998,20.41003.81,5.77997,2.15997,23.25,2.15997,23.25Z"/><path class="j" d="M240.09213,443.64996c-7.71002,9.45001-35.10479,15.11401-68.11005,15.11401-33.0052,0-60.40997-5.664-68.10999-15.11401,2.84003-1.39996,6.06-2.39996,9.65002-2.91998,14.45996-2.10999,58.45996,0,58.45996,0,0,0,43.99005-2.10999,58.46002,0,3.58002.52002,6.79999,1.52002,9.65002,2.91998Z"/><path class="l" d="M343.1221,171.97998c0,24.12-5,47.07001-14,67.88-7.25,16.77002-17.15997,32.46002-27.71002,47.07001-41.04999,56.82001-66.83997,108.44-76.47998,153.26001-.35999,1.64996-.69,3.29999-1,4.92999-34.83997,8.22998-69.45996,8.09998-103.89996,0-.31-1.63-.64001-3.28003-1-4.92999-9.64001-44.82001-35.43005-96.44-76.48004-153.26001-10.54999-14.60999-20.45996-30.29999-27.70996-47.07001C5.83212,219.04999.84213,196.09998.84213,171.97998.84213,77.45996,77.46212.83997,171.98208.83997s171.14001,76.62,171.14001,171.14001Z"/><rect class="k" x="48.69192" y="147.81537" width="26.53416" height="68.1084"/><rect class="k" x="137.92208" y="60.22998" width="68.11005" height="26.53003"/><rect class="k" x="137.92208" y="276.22998" width="68.11005" height="26.53003"/><rect class="k" x="108.69985" y="118.21739" width="126.56453" height="126.55515"/><rect class="k" x="268.73418" y="147.81537" width="26.53416" height="68.1084"/><path class="k" d="M174.32393,393.55273v-10.08301h-20.50781v-8.4082l21.73828-31.82129h8.06641v31.78711h6.2207v8.44238h-6.2207v10.08301h-9.29688ZM174.32393,375.02734v-17.12402l-11.51855,17.12402h11.51855Z"/></svg>