<?xml version="1.0" encoding="UTF-8"?><svg id="g" xmlns="http://www.w3.org/2000/svg" width="528.53659" height="528" viewBox="0 0 528.53659 528"><defs><style>.i{fill:#ffee50;}.j{fill:#414142;}</style></defs><circle class="i" cx="264.26829" cy="264.26829" r="262.48527"/><path class="j" d="M245.58851,18.37218c29.92108,11.1162,57.57557,26.42129,81.73052,48.19435,30.25384-2.05174,63.14195.29972,96.1667,9.55006-3.22941-12.98576-11.48782-24.22558-21.49352-35.32401-35.35614-21.83586-76.27927-35.5097-120.15233-38.41047-15.89472,3.08282-27.53816,8.3993-36.25137,15.99008Z"/><path class="j" d="M491.81662,170.43246c-.80872,33.60934-8.31728,64.71676-20.72882,93.99317,12.30351,26.62214,19.17747,57.50537,20.72882,92.56561,9.96248-7.33815,19.06398-17.15889,27.01025-28.50498,5.16863-20.55216,7.92662-42.062,7.92662-64.21801,0-22.87337-2.93235-45.06067-8.43004-66.21355-7.8032-10.44437-16.98642-20.29706-26.50683-27.62224Z"/><path class="j" d="M98.131,467.4813c11.41295,3.77108,23.9963,6.24245,36.11448,6.62747-18.56396-28.46757-31.48098-57.90064-38.20011-88.39339-27.06893-16.09429-50.69179-37.55283-71.51422-63.37074-4.54548,12.26004-6.04245,24.73214-4.83714,37.39218,16.55539,42.38015,43.80686,79.39883,78.43698,107.74449Z"/><path class="j" d="M20.3085,167.24161c-2.09569,13.34793-.30239,26.04409,5.11103,38.1336,20.34023-27.94264,44.24371-48.57664,70.92192-63.51884,7.80732-31.98082,19.7072-61.62503,38.20017-87.50496-12.79814-.31051-24.54124,1.12947-34.64819,5.28448-35.03757,28.1807-62.69043,65.16416-79.58494,107.60572Z"/><path class="j" d="M327.98534,461.22733c-23.79897,21.30711-51.20582,37.42401-82.17471,48.41642,9.38486,7.10754,21.66509,12.75734,35.40052,16.55054,43.59292-2.77813,84.29598-16.18068,119.53397-37.67184,12.19427-11.22726,20.89159-24.38477,22.29636-38.54014-26.75951,12.29235-59.57651,14.07789-95.05614,11.24503Z"/><path class="j" d="M175.85104,200.04496c41.81999-17.15186,82.62763-30.85492,122.00358-39.68077,28.51353,33.2376,53.88895,67.78042,76.10413,103.63762-20.60818,34.50669-46.64209,69.38009-76.10413,104.48526-40.03718-10.57787-80.78401-24.11645-122.00358-39.62767-2.6333-46.84548-3.29027-90.75843,0-128.81444Z"/></svg>