<?xml version="1.0" encoding="UTF-8"?><svg id="b" xmlns="http://www.w3.org/2000/svg" width="470.83929" height="528" viewBox="0 0 470.83929 528"><defs><style>.i{fill:#26639b;}.j{fill:#3284ce;}.k{fill:#ff703e;}</style></defs><rect class="i" x="3.99544" y="189.2361" width="462.85714" height="145.19255"/><path class="j" d="M470.83963,208.61403v109.27002c-63.85999,6.06-176.53437,7.59999-235.42004,7.59998-58.88564-.00002-171.55005-1.53998-235.41992-7.59998v-109.27002c64.67993-6.33002,176.54793-5.65998,235.41992-5.65997,58.87202,0,170.75-.67004,235.42004,5.65997Z"/><path class="k" d="M470.83963,202.95405c-14.7301-7.90002-176.54113-6.71001-235.42004-6.71002-58.87888,0-220.67993-1.19-235.41992,6.71002,0,0,.34998-12.78003.87988-17C9.17959,119.44404,22.60952,79.93403,34.67959,48.05403c5.34009-14.08997,16.83008-24.33997,31.04004-29.37C119.08963-.23595,192.77166,1.26403,235.41958,1.26405c42.65042.00002,116.34009-1.5,169.70996,17.41998,14.21008,5.03003,25.69006,15.28003,31.03003,29.37,12.08008,31.88,25.5,71.39001,33.81006,137.90002.53003,4.21997.87,17,.87,17ZM470.83963,325.04595c-14.7301,7.90002-176.54113,6.71001-235.42004,6.71002-58.87888,0-220.67993,1.19-235.41992-6.71002,0,0,.34998,12.78003.87988,17,8.30005,66.51001,21.72998,106.02002,33.80005,137.90002,5.34009,14.08997,16.83008,24.33997,31.04004,29.37,53.37,18.91998,127.05203,17.42001,169.69995,17.41998,42.65042-.00002,116.34009,1.5,169.70996-17.41998,14.21008-5.03003,25.69006-15.28003,31.03003-29.37,12.08008-31.88,25.5-71.39001,33.81006-137.90002.53003-4.21997.87-17,.87-17Z"/></svg>