<?xml version="1.0" encoding="UTF-8"?><svg id="g" xmlns="http://www.w3.org/2000/svg" width="419.8079" height="528" viewBox="0 0 419.8079 528"><defs><style>.i{fill:#7c7f7d;}.j{fill:#e6e6e4;}.k{fill:#686868;}.l{fill:#555;}.m{fill:#414142;}.n{fill:#2e2e2e;}</style></defs><polygon class="n" points="87.47321 498.30554 84.12689 498.13934 77.36749 515.73993 76.16553 515.73993 19.26862 374.67761 23.20087 370.52698 23.67694 371.91766 50.55823 372.112 51.22394 376.03088 78.93011 411.15771 90.729 400.72363 133.06244 464.05573 106.89148 498.30554 87.47321 498.30554"/><polygon class="m" points="84.12689 498.13934 87.47321 498.30554 106.89148 498.30554 98.77673 508.92529 89.33929 514.60529 87.42517 515.73993 77.36749 515.73993 84.12689 498.13934"/><polygon class="n" points="27.55579 365.93011 35.51495 355.20978 57.23444 350.61469 69.6355 369.16705 53.93756 372.13641 23.67694 371.91766 23.20087 370.52698 27.55579 365.93011"/><polygon class="l" points="78.93011 411.15771 51.22394 376.03088 50.55823 372.112 53.93756 372.13641 69.6355 369.16705 90.729 400.72363 78.93011 411.15771"/><path class="m" d="M9.81482,400.21753c-2.74316,4.49933-4.59766,10.97833-5.74518,18.73932l-.00269-.00732s1.16345-13.17029,4.38409-24.03259c-.01575.16632-.03918.3252-.05365.4928-.37097,1.7536.21289,3.3335,1.41742,4.8078Z"/><path class="n" d="M58.88135,508.88831l3.62592-4.36951c.31915,2.46796,1.02551,4.64148,2.1521,6.49548-4.64972,6.67786-7.74915,9.23889-16.42773,9.93762l-.0318-.12146c5.8338-.80457,10.30389-5.8219,10.68152-11.94214Z"/><path class="m" d="M16.90967,490.69836c-.74005,1.68103-1.29797,3.55658-1.61786,5.68652.15198.60468.33167,1.17169.5011,1.75256l-.02411.00189c-2.65826-3.04889-4.87598-10.72852-6.961-19.80402,2.32867,5.60455,5.13226,9.89075,8.10187,12.36304Z"/><path class="l" d="M23.96625,367.93188c.00635-.00397.01245-.00806.0188-.01196,1.12079-.69513,2.3067-1.36005,3.57074-1.98981-3.49835,2.32062-5.09442,7.36249-3.59235,12.36108,1.07184,3.56689,3.47479,6.27924,6.28711,7.54907l-2.44434,9.61072c-2.46411-1.78516-4.91998-2.27997-7.37152-2.09094-4.4856,0-7.9668,2.50586-10.61987,6.85748-1.20453-1.4743-1.78839-3.0542-1.41742-4.8078.01447-.1676.0379-.32648.05365-.4928.78345-8.28314,3.13708-15.02582,7.76794-20.44019,2.09259-2.44659,4.65271-4.62317,7.74725-6.54486Z"/><path class="l" d="M16.90967,490.69836c1.85626,1.54541,3.77643,2.38837,5.68652,2.38837,0,0,4.32294.33545,7.84473-1.56519,1.17474-.63397,3.02808-2.28424,4.97577-5.41498,1.48639,1.27692,2.81488,3.13013,3.85651,6.02991l-.19391,5.53217c-3.04498,2.47736-4.93665,6.4502-4.93665,10.85602,0,7.48468,5.07776,11.8739,11.15552,12.36737-14.92725-.64935-25.12506-7.74011-29.50525-22.75458-.16943-.58087-.34912-1.14789-.5011-1.75256.31989-2.12994.87781-4.00549,1.61786-5.68652Z"/><path class="m" d="M34.14264,508.52466c0-4.40582,1.89166-8.37866,4.93665-10.85602l.19391-5.53217c-1.04163-2.89978-2.37012-4.75299-3.85651-6.02991-1.94769,3.13074-3.80103,4.78101-4.97577,5.41498-3.52179,1.90063-7.84473,1.56519-7.84473,1.56519,9.87933,0,15.72668-22.32458,15.72668-49.86334,0-27.53876-10.06213-49.86334-17.88818-49.86334,2.45154-.18903,4.90741.30579,7.37152,2.09094l2.44434-9.61072c-2.81232-1.26984-5.21527-3.98218-6.28711-7.54907-1.50208-4.9986.09399-10.04047,3.59235-12.36108.2677-.17755.54602-.33862.83557-.48291l-.00012-.00043c3.68207-2.05542,10.39935,3.17206,16.74146,9.23083-4.25244,1.98291-7.47955,4.93243-9.56757,8.95575-.66211,15.73254,5.26508,29.64496,15.69263,41.66461l.01282-.00433c-.56799-.66754-.99884-1.41699-1.24042-2.25391-1.41327-4.89636,3.78571-10.69696,11.61224-12.95593,7.82654-2.25897,15.31683-.12091,16.7301,4.77545.11096.38434.16718.77539.19855,1.16876.17932,2.24835-.90863,4.60315-2.90576,6.67352l1.90656,20.39929c2.85809,1.29517,4.78748,3.30652,5.17352,6.07776.0473.33942.0744.68884.0744,1.05103,0,6.74536-6.72406,8.90686-15.01862,8.90686-8.29456,0-15.01862-3.98773-15.01862-8.90686,0-.77203.12616-1.49255.35126-2.16772l-.09906-.07721c-6.89215,12.13226-10.86877,28.63507-9.45721,46.92816,7.97253,8.61975,17.7666,9.52264,28.8075,5.14288,3.28265-4.85266,5.73083-10.04156,7.48639-15.4549l1.64679-1.435c-1.34015,1.54016-2.12531,3.51733-2.12531,5.93195,0,4.17267,3.34564,7.73804,8.08032,9.20776-.88525,2.30084-1.80847,4.37219-2.70404,6.18866-2.03137,4.11993.30316,9.16052,4.57013,10.11108-4.01465,2.67267-8.58569,3.89642-13.89838,3.18958-5.20667-1.03381-8.70642-3.3656-10.78156-6.78058-1.12659-1.854-1.83295-4.02753-2.1521-6.49548l-3.62592,4.36951c-.37762,6.12024-4.84772,11.13757-10.68152,11.94214-.36829.05078-.73999.09137-1.11847.10773-.18445.008-.36572-.00122-.54901-.00018-.09802.00055-.19611.00134-.29376-.00012-.3161-.00464-.62903-.02057-.94043-.04584-6.07776-.49347-11.15552-4.88269-11.15552-12.36737Z"/><path class="n" d="M78.93011,411.15771c4.62506,12.97034,9.89459,30.03046,12.61017,46.71167,2.73224,16.78369-.32074,30.69891-4.06708,40.43616-4.73468-1.46973-8.08032-5.0351-8.08032-9.20776,0-2.41461.78516-4.39178,2.12531-5.93195l-1.64679,1.435c3.61249-11.13928,4.24786-23.24298,2.8764-35.422l-.00244-.00024c-.38605-2.77124-2.31543-4.78259-5.17352-6.07776l-1.90656-20.39929c1.99713-2.07037,3.08508-4.42517,2.90576-6.67352l.01367-.00464c.31714-1.49957.42151-3.12793.3454-4.86566Z"/><path class="l" d="M79.8714,484.60083c-1.75555,5.41333-4.20374,10.60223-7.48639,15.4549-11.04089,4.37976-20.83496,3.47687-28.8075-5.14288-1.41156-18.29309,2.56506-34.7959,9.45721-46.92816l.09906.07721c-.2251.67517-.35126,1.39569-.35126,2.16772,0,4.91913,6.72406,8.90686,15.01862,8.90686,8.29456,0,15.01862-2.1615,15.01862-8.90686,0-.36218-.0271-.71161-.0744-1.05103l.00244.00024c1.37146,12.17902.73608,24.28271-2.8764,35.422Z"/><path class="n" d="M29.44531,365.01068c3.98975-1.5744,6.59583-1.5379,12.15704-.83075,1.57159.19983,3.46692.59949,5.41022,1.0802,2.1618,1.95233,4.4693,4.23193,6.92499,6.87628-3.29999.50293-6.24005,1.34521-8.80487,2.5412-6.3421-6.05878-13.05939-11.28625-16.74146-9.23083.00183-.00079.00354-.00146.00537-.00226.36255-.15808.70892-.29974,1.04871-.43384Z"/><path class="l" d="M53.93756,372.13641c4.1991,4.52185,8.83661,10.12653,13.9408,17.04669,3.43872,5.8443,6.70874,11.99628,9.79944,18.52667,0,.01001.01001.02002.01001.03003.00781.00781.0105.02069.01562.03119.40259,1.09552.81128,2.22192,1.22668,3.38672.07611,1.73773-.02826,3.36609-.3454,4.86566l-.01367.00464c-.03137-.39337-.08759-.78442-.19855-1.16876-1.41327-4.89636-8.90356-7.03442-16.7301-4.77545-7.82654,2.25897-13.02551,8.05957-11.61224,12.95593.24158.83691.67242,1.58636,1.24042,2.25391l-.01282.00433c-10.42755-12.01965-16.35474-25.93207-15.69263-41.66461,2.08801-4.02332,5.31512-6.97284,9.56757-8.95575,2.56482-1.19598,5.50488-2.03827,8.80487-2.5412Z"/><path class="k" d="M2.54651,443.22339c0,13.69641,2.51685,26.10004,6.26129,35.11194,2.32867,5.60455,5.13226,9.89075,8.10187,12.36304,1.85626,1.54541,3.77643,2.38837,5.68652,2.38837,9.87933,0,15.72668-22.32458,15.72668-49.86334,0-27.53876-10.06213-49.86334-17.88818-49.86334-4.4856,0-7.9668,2.50586-10.61987,6.85748-2.74316,4.49933-4.59766,10.97833-5.74518,18.73932-1.06219,7.18329-1.52313,15.45514-1.52313,24.26654ZM11.71417,434.44702l4.24847-3.35406,3.57764,8.21741v12.57764s-4.75159,3.57764-4.75159,3.57764l-3.91302-8.38507.8385-12.63354Z"/><polygon class="m" points="15.96265 431.09296 19.54028 439.31036 19.54028 451.888 14.7887 455.46564 10.87567 447.08057 11.71417 434.44702 15.96265 431.09296"/><path class="i" d="M14.15778,330.87982l7.43884-6.83655,63.55902,5.81366c8.46509,37.98688,33.07693,145.1324,32.03107,182.87842l-7.3689,4.85443c.00012.00055.00018.00116.00031.00171-14.34527-5.27193-33.53218,2.42043-22.34457-19.28624,11.83054-23.77748-.52764-66.73934-9.77146-90.53422.00135-.00004-2.0368-30.84574-2.0368-30.84574l-7.84747,12.16449c.01001.01001.01001.02002.02002.03003,0,0,0,.01001.00995.01001.01031.01752.02026.03577.03058.05328-10.72532-13.73663-21.20229-31.76126-39.48712-23.73633l.00012.00043c-1.47157.82879-3.04316,1.60609-4.40631,2.47272l-.01776-.00513s-.00092.01477-.00104.01709c-3.09454,1.92169-5.65466,4.09827-7.74725,6.54486-.76322-13.87621.05772-30.70711-2.07336-43.60522.00403.00281.00812.00549.01215.0083Z"/><path class="m" d="M395.84052,367.91498l-.01776.00513c.00635.00391.01245.008.0188.01196-.00012-.00232-.00104-.01709-.00104-.01709Z"/><path class="l" d="M373.28052,520.95209c.09827-.00189.19086-.0116.2887-.01404-.09766.00146-.19574.00067-.29376.00012l.00507.01392Z"/><path class="m" d="M390.36249,365.01086c.33978.13409.68616.27576,1.04871.43384-.33636-.16742-.68439-.31494-1.04871-.43384Z"/><path class="m" d="M406.51001,55.16998c-67.07659,26.33415-51.6612,139.47114-58.34852,235.50587-6.30127,56.85575-62.49497,180.14398-66.75943,232.8943-1.59813,5.25641-24.78769,2.49435-28.56186,3.531-40.9851-6.61528-68.14274.69738-109.52-.67008-3.19144-.08835-5.75292-2.76836-5.85016-5.92107-1.67006-46.17003-54.60606-179.25148-58.51603-229.83144-5.32537-100.08463,6.99482-204.86216-65.65403-235.50858,22.27191-61.56277,369.2054-61.74842,393.21002,0Z"/><path class="m" d="M23.96631,367.93213c.00635-.00397.01245-.00812.01886-.01202l-.01782-.00513s-.00092.01483-.00104.01715Z"/><path class="m" d="M28.39697,365.44458c.362-.15784.70795-.29932,1.04718-.43323-.36371.11877-.7113.26611-1.04718.43323Z"/><path class="l" d="M401.01001,44.65997c-3.79004-3.60999-10.91003-10.33002-21.84003-20.5C322.67999-1.34003,209.90002,0,209.90002,0c0,0-112.77002-1.34003-169.27002,24.15997-10.91998,10.16998-18.03998,16.89001-21.83997,20.5,59.78084-35.88632,322.45082-35.88611,382.21997,0Z"/><path class="k" d="M209.90002,321.25c37.08997,0,67.15997-30.07001,67.15997-67.16003s-30.07001-67.14996-67.15997-67.14996c-37.08002,0-67.15002,30.06-67.15002,67.14996s30.07001,67.16003,67.15002,67.16003ZM209.90002,200.95001c11.89996,0,21.53998,9.63995,21.53998,21.53998s-9.64001,21.53998-21.53998,21.53998c-11.89001,0-21.54004-9.63995-21.54004-21.53998s9.65002-21.53998,21.54004-21.53998Z"/><circle class="i" cx="209.90396" cy="222.48999" r="21.53997" transform="translate(-75.97677 331.27268) rotate(-67.49999)"/><path class="n" d="M209.89994,356.42857c29.05852,0,42.77926-1.76171,42.77926-1.76171l39.29061.01391h.08132l.35602-6.06831c.03048-.39155-.19325-.74111-.47807-.74111h-39.24989s-13.72074,1.76179-42.77926,1.76179-42.76908-1.76179-42.76908-1.76179h-39.24995c-.28476,0-.50855.34956-.47801.74111l.34578,6.06831h.09157l39.29061-.01391s13.7105,1.76171,42.76908,1.76171Z"/><path class="j" d="M131.47003,379.76001C126.34233,280.05669,85.80499,85.55817,13.30401,55.16952c-1.67481-.26212-6.64099,1.06989-6.64397,1.07047-4.85621.0398-4.94552,263.69304-6.66003,265.59998,20.18982,11.78916,37.84963,26.43046,52.51001,44.92004v.00995c5.63343,7.0356,10.69873,14.52638,15.33002,22.35004,0,0,0,.01001.01001.01001,3.45144,5.87487,6.74897,12.04892,9.83997,18.60999.39998.85181.82707,1.68798,1.19,2.56,14.52581,31.02404,24.62331,71.34395,30.93989,107.29002.19472,1.71415.58132,3.75387,2.59029,4.12988-.00016.00009,19.24984,4.34011,19.24984,4.34011,2.35917.77064,4.87132-1.40362,6.75-2.48999-4.11186-46.94945-2.15871-92.19993-6.94-143.81Z"/><polygon class="n" points="332.33459 498.30573 335.68091 498.13953 342.44031 515.74011 343.64227 515.74011 400.53918 374.6778 396.60693 370.52716 396.13086 371.91785 369.24957 372.11218 368.58386 376.03107 340.87769 411.1579 329.0788 400.72382 286.74536 464.05591 312.91632 498.30573 332.33459 498.30573"/><polygon class="m" points="335.68091 498.13953 332.33459 498.30573 312.91632 498.30573 321.03107 508.92548 330.46851 514.60547 332.38263 515.74011 342.44031 515.74011 335.68091 498.13953"/><polygon class="n" points="392.25201 365.9303 384.29285 355.20996 362.57336 350.61487 350.1723 369.16724 365.87024 372.1366 396.13086 371.91785 396.60693 370.52716 392.25201 365.9303"/><polygon class="l" points="340.87769 411.1579 368.58386 376.03107 369.24957 372.11218 365.87024 372.1366 350.1723 369.16724 329.0788 400.72382 340.87769 411.1579"/><path class="m" d="M409.99298,400.21771c2.74316,4.49933,4.59766,10.97833,5.74518,18.73932l.00269-.00732s-1.16345-13.17029-4.38409-24.03259c.01575.16632.03918.3252.05365.4928.37097,1.7536-.21289,3.3335-1.41742,4.8078Z"/><path class="n" d="M360.92645,508.88849l-3.62592-4.36951c-.31915,2.46796-1.02551,4.64148-2.1521,6.49548,4.64972,6.67786,7.74915,9.23889,16.42773,9.93762l.0318-.12146c-5.8338-.80457-10.30389-5.8219-10.68152-11.94214Z"/><path class="m" d="M402.89813,490.69855c.74005,1.68103,1.29797,3.55658,1.61786,5.68652-.15198.60468-.33167,1.17169-.5011,1.75256l.02411.00189c2.65826-3.04889,4.87598-10.72852,6.961-19.80402-2.32867,5.60455-5.13226,9.89075-8.10187,12.36304Z"/><path class="l" d="M395.84155,367.93207c-.00635-.00397-.01245-.00806-.0188-.01196-1.12079-.69513-2.3067-1.36005-3.57074-1.98981,3.49835,2.32062,5.09442,7.36249,3.59235,12.36108-1.07184,3.56689-3.47479,6.27924-6.28711,7.54907l2.44434,9.61072c2.46411-1.78516,4.91998-2.27997,7.37152-2.09094,4.4856,0,7.9668,2.50586,10.61987,6.85748,1.20453-1.4743,1.78839-3.0542,1.41742-4.8078-.01447-.1676-.0379-.32648-.05365-.4928-.78345-8.28314-3.13708-15.02582-7.76794-20.44019-2.09259-2.44659-4.65271-4.62317-7.74725-6.54486Z"/><path class="l" d="M402.89813,490.69855c-1.85626,1.54541-3.77643,2.38837-5.68652,2.38837,0,0-4.32294.33545-7.84473-1.56519-1.17474-.63397-3.02808-2.28424-4.97577-5.41498-1.48639,1.27692-2.81488,3.13013-3.85651,6.02991l.19391,5.53217c3.04498,2.47736,4.93665,6.4502,4.93665,10.85602,0,7.48468-5.07776,11.8739-11.15552,12.36737,14.92725-.64935,25.12506-7.74011,29.50525-22.75458.16943-.58087.34912-1.14789.5011-1.75256-.31989-2.12994-.87781-4.00549-1.61786-5.68652Z"/><path class="m" d="M385.66516,508.52484c0-4.40582-1.89166-8.37866-4.93665-10.85602l-.19391-5.53217c1.04163-2.89978,2.37012-4.75299,3.85651-6.02991,1.94769,3.13074,3.80103,4.78101,4.97577,5.41498,3.52179,1.90063,7.84473,1.56519,7.84473,1.56519-9.87933,0-15.72668-22.32458-15.72668-49.86334s10.06213-49.86334,17.88818-49.86334c-2.45154-.18903-4.90741.30579-7.37152,2.09094l-2.44434-9.61072c2.81232-1.26984,5.21527-3.98218,6.28711-7.54907,1.50208-4.9986-.09399-10.04047-3.59235-12.36108-.2677-.17755-.54602-.33862-.83557-.48291l.00012-.00043c-3.68207-2.05542-10.39935,3.17206-16.74146,9.23083,4.25244,1.98291,7.47955,4.93243,9.56757,8.95575.66211,15.73254-5.26508,29.64496-15.69263,41.66461l-.01282-.00433c.56799-.66754.99884-1.41699,1.24042-2.25391,1.41327-4.89636-3.78571-10.69696-11.61224-12.95593s-15.31683-.12091-16.7301,4.77545c-.11096.38434-.16718.77539-.19855,1.16876-.17932,2.24835.90863,4.60315,2.90576,6.67352l-1.90656,20.39929c-2.85809,1.29517-4.78748,3.30652-5.17352,6.07776-.0473.33942-.0744.68884-.0744,1.05103,0,6.74536,6.72406,8.90686,15.01862,8.90686s15.01862-3.98773,15.01862-8.90686c0-.77203-.12616-1.49255-.35126-2.16772l.09906-.07721c6.89215,12.13226,10.86877,28.63507,9.45721,46.92816-7.97253,8.61975-17.7666,9.52264-28.8075,5.14288-3.28265-4.85266-5.73083-10.04156-7.48639-15.4549l-1.64679-1.435c1.34015,1.54016,2.12531,3.51733,2.12531,5.93195,0,4.17267-3.34564,7.73804-8.08032,9.20776.88525,2.30084,1.80847,4.37219,2.70404,6.18866,2.03137,4.11993-.30316,9.16052-4.57013,10.11108,4.01465,2.67267,8.58569,3.89642,13.89838,3.18958,5.20667-1.03381,8.70642-3.3656,10.78156-6.78058,1.12659-1.854,1.83295-4.02753,2.1521-6.49548l3.62592,4.36951c.37762,6.12024,4.84772,11.13757,10.68152,11.94214.36829.05078.73999.09137,1.11847.10773.18445.008.36572-.00122.54901-.00018.09802.00055.19611.00134.29376-.00012.3161-.00464.62903-.02057.94043-.04584,6.07776-.49347,11.15552-4.88269,11.15552-12.36737Z"/><path class="n" d="M340.87769,411.1579c-4.62506,12.97034-9.89459,30.03046-12.61017,46.71167-2.73224,16.78369.32074,30.69891,4.06708,40.43616,4.73468-1.46973,8.08032-5.0351,8.08032-9.20776,0-2.41461-.78516-4.39178-2.12531-5.93195l1.64679,1.435c-3.61249-11.13928-4.24786-23.24298-2.8764-35.422l.00244-.00024c.38605-2.77124,2.31543-4.78259,5.17352-6.07776l1.90656-20.39929c-1.99713-2.07037-3.08508-4.42517-2.90576-6.67352l-.01367-.00464c-.31714-1.49957-.42151-3.12793-.3454-4.86566Z"/><path class="l" d="M339.9364,484.60101c1.75555,5.41333,4.20374,10.60223,7.48639,15.4549,11.04089,4.37976,20.83496,3.47687,28.8075-5.14288,1.41156-18.29309-2.56506-34.7959-9.45721-46.92816l-.09906.07721c.2251.67517.35126,1.39569.35126,2.16772,0,4.91913-6.72406,8.90686-15.01862,8.90686s-15.01862-2.1615-15.01862-8.90686c0-.36218.0271-.71161.0744-1.05103l-.00244.00024c-1.37146,12.17902-.73608,24.28271,2.8764,35.422Z"/><path class="n" d="M390.36249,365.01086c-3.98975-1.5744-6.59583-1.5379-12.15704-.83075-1.57159.19983-3.46692.59949-5.41022,1.0802-2.1618,1.95233-4.4693,4.23193-6.92499,6.87628,3.29999.50293,6.24005,1.34521,8.80487,2.5412,6.3421-6.05878,13.05939-11.28625,16.74146-9.23083-.00183-.00079-.00354-.00146-.00537-.00226-.36255-.15808-.70892-.29974-1.04871-.43384Z"/><path class="l" d="M365.87024,372.1366c-4.1991,4.52185-8.83661,10.12653-13.9408,17.04669-3.43872,5.8443-6.70874,11.99628-9.79944,18.52667,0,.01001-.01001.02002-.01001.03003-.00781.00781-.0105.02069-.01562.03119-.40259,1.09552-.81128,2.22192-1.22668,3.38672-.07611,1.73773.02826,3.36609.3454,4.86566l.01367.00464c.03137-.39337.08759-.78442.19855-1.16876,1.41327-4.89636,8.90356-7.03442,16.7301-4.77545s13.02551,8.05957,11.61224,12.95593c-.24158.83691-.67242,1.58636-1.24042,2.25391l.01282.00433c10.42755-12.01965,16.35474-25.93207,15.69263-41.66461-2.08801-4.02332-5.31512-6.97284-9.56757-8.95575-2.56482-1.19598-5.50488-2.03827-8.80487-2.5412Z"/><path class="k" d="M415.73816,418.95703c-1.14752-7.76099-3.00201-14.23999-5.74518-18.73932-2.65308-4.35162-6.13428-6.85748-10.61987-6.85748-7.82605,0-17.88818,22.32458-17.88818,49.86334s5.84735,49.86334,15.72668,49.86334c1.9101,0,3.83026-.84296,5.68652-2.38837,2.9696-2.47229,5.77319-6.75848,8.10187-12.36304,3.74445-9.0119,6.26129-21.41553,6.26129-35.11194,0-8.8114-.46094-17.08325-1.52313-24.26654ZM408.93213,447.08075l-3.91302,8.38507-4.75159-3.57764v-12.57764l3.57764-8.21741,4.24847,3.35406.8385,12.63354Z"/><polygon class="m" points="403.84515 431.09314 400.26752 439.31055 400.26752 451.88818 405.0191 455.46582 408.93213 447.08075 408.09363 434.4472 403.84515 431.09314"/><path class="i" d="M405.65002,330.88l-7.43884-6.83655-63.55902,5.81366c-8.46509,37.98688-33.07693,145.1324-32.03107,182.87842l7.3689,4.85443c-.00012.00055-.00018.00116-.00031.00171,14.34527-5.27193,33.53218,2.42043,22.34457-19.28624-11.83054-23.77748.52764-66.73934,9.77146-90.53422-.00135-.00004,2.0368-30.84574,2.0368-30.84574l7.84747,12.16449c-.01001.01001-.01001.02002-.02002.03003,0,0,0,.01001-.00995.01001-.01031.01752-.02026.03577-.03058.05328,10.72532-13.73663,21.20229-31.76126,39.48712-23.73633l-.00012.00043c1.47157.82879,3.04316,1.60609,4.40631,2.47272l.01776-.00513s.00092.01477.00104.01709c3.09454,1.92169,5.65466,4.09827,7.74725,6.54486.76322-13.87621-.05772-30.70711,2.07336-43.60522-.00403.00281-.00812.00549-.01215.0083Z"/><path class="j" d="M314.85999,492.75c6.22904-29.32723,15.50292-60.52963,27.26001-85.01001,3.09098-6.56078,6.38853-12.73634,9.84003-18.60999.00995,0,.00995-.01001.00995-.01001,16.29882-28.07998,39.83695-51.19574,67.84003-67.28003-1.70478-1.97503-1.84436-265.4967-6.65559-265.59549-.00699-.00565-4.98414-1.33621-6.6544-1.07449-66.99177,26.25692-109.7072,207.35222-116.34003,303.32-6.28761,56.8596-4.50329,112.32706-8.75995,165.08002,1.9061,1.09775,4.37298,3.24026,6.75004,2.48983-.00004.00017,19.24996-4.33986,19.24996-4.33986,4.17107-1.08995,5.32879-23.98406,7.45996-28.96997Z"/></svg>