<?xml version="1.0" encoding="UTF-8"?><svg id="b" xmlns="http://www.w3.org/2000/svg" width="800" height="800" viewBox="0 0 800 800"><defs><style>.c{fill:#ccc;}.d{fill:#e6e6e6;}</style></defs><rect class="d" width="800" height="800"/><path class="c" d="M100,100H0V0h100v100ZM200,100h-100v100h100v-100ZM300,0h-100v100h100V0ZM200,300h-100v100h100v-100ZM300,200h-100v100h100v-100ZM400,100h-100v100h100v-100ZM600,100h-100v100h100v-100ZM600,300h-100v100h100v-100ZM500,0h-100v100h100V0ZM500,200h-100v100h100v-100ZM800,100h-100v100h100v-100ZM700,0h-100v100h100V0ZM700,200h-100v100h100v-100ZM800,300h-100v100h100v-100ZM400,300h-100v100h100v-100ZM100,200H0v100h100v-100ZM100,400H0v100h100v-100ZM200,500h-100v100h100v-100ZM300,400h-100v100h100v-100ZM200,700h-100v100h100v-100ZM300,600h-100v100h100v-100ZM400,500h-100v100h100v-100ZM600,500h-100v100h100v-100ZM600,700h-100v100h100v-100ZM500,400h-100v100h100v-100ZM500,600h-100v100h100v-100ZM800,500h-100v100h100v-100ZM700,400h-100v100h100v-100ZM700,600h-100v100h100v-100ZM800,700h-100v100h100v-100ZM400,700h-100v100h100v-100ZM100,600H0v100h100v-100Z"/></svg>