<?xml version="1.0" encoding="UTF-8"?><svg id="b" xmlns="http://www.w3.org/2000/svg" width="50" height="50" viewBox="0 0 50 50"><defs><style>.d{fill:#b38f00;}</style></defs><g id="c"><path class="d" d="M46.93566,18.63395h-3.18303v-4.77454c0-.87897-.71255-1.59151-1.59151-1.59151H5.55631c-.87897,0-1.59151.71254-1.59151,1.59151v22.28119c0,.87897.71254,1.59151,1.59151,1.59151h36.60481c.87897,0,1.59151-.71255,1.59151-1.59151v-4.77454h3.18303c.87897,0,1.59151-.71255,1.59151-1.59151v-9.54908c0-.87897-.71255-1.59151-1.59151-1.59151ZM40.56961,34.54908H7.14783V15.45092h33.42178v19.09816ZM34.58552,32.95757c-.12686.01533-.2551.01533-.38196,0H10.33085c-.87897,0-1.59151-.71255-1.59151-1.59151v-12.73211c0-.87897.71254-1.59151,1.59151-1.59151h20.68967c.74912-.02183,1.41197.48194,1.59151,1.20955l.44562,1.97348,2.38727,9.54908.30239,1.20955c.23525.8469-.26059,1.72416-1.10749,1.95942-.01802.00501-.03613.00969-.05432.01406h0Z"/></g></svg>