<?xml version="1.0" encoding="UTF-8"?><svg id="a" xmlns="http://www.w3.org/2000/svg" width="50" height="50" viewBox="0 0 50 50"><defs><style>.d{fill:#39a74d;}</style></defs><g id="b"><circle class="d" cx="25" cy="23.41128" r="6.96318"/><path class="d" d="M40.31899,10.87756h-3.84924c-.5279.00169-1.01081-.29702-1.24501-.77013l-1.24641-2.49142c-.70349-1.419-2.15264-2.31452-3.73644-2.30899h-10.48376c-1.5838-.00553-3.03295.88999-3.73644,2.30899l-1.25337,2.49142c-.2331.47086-.71266.76917-1.23805.77013h-3.84924c-2.30739,0-4.17791,1.87051-4.17791,4.17791v19.49689c0,2.30739,1.87051,4.17791,4.17791,4.17791h30.63798c2.30739,0,4.17791-1.87051,4.17791-4.17791V15.05547c0-2.30739-1.87051-4.17791-4.17791-4.17791ZM25,33.15973c-5.38392,0-9.74845-4.36453-9.74845-9.74845s4.36453-9.74845,9.74845-9.74845,9.74845,4.36453,9.74845,9.74845c-.00614,5.38137-4.36707,9.74231-9.74845,9.74845ZM38.92635,17.84074c-.76913,0-1.39264-.6235-1.39264-1.39264s.6235-1.39264,1.39264-1.39264,1.39264.6235,1.39264,1.39264-.6235,1.39264-1.39264,1.39264Z"/></g></svg>