<?xml version="1.0" encoding="UTF-8"?><svg id="b" xmlns="http://www.w3.org/2000/svg" width="50" height="50" viewBox="0 0 50 50"><defs><style>.d{fill:#f06c00;}</style></defs><rect class="d" x="12.12726" y="18.93567" width="25.92242" height="15.75092"/><path class="d" d="M36.6394,35.84161h-4.24744c-.78192,0-1.41583.63391-1.41583,1.41583s.63391,1.41577,1.41583,1.41577h4.24744c.78192,0,1.41577-.63385,1.41577-1.41577s-.63385-1.41583-1.41577-1.41583ZM35.66602,37.61133h-2.47766c-.14655,0-.26544-.1189-.26544-.26544s.1189-.26544.26544-.26544h2.47766c.14655,0,.26544.1189.26544.26544s-.1189.26544-.26544.26544Z"/><path class="d" d="M28.14453,35.84161h-4.24744c-.78192,0-1.41583.63391-1.41583,1.41583s.63391,1.41577,1.41583,1.41577h4.24744c.78192,0,1.41577-.63385,1.41577-1.41577s-.63385-1.41583-1.41577-1.41583ZM27.17114,37.61133h-2.47766c-.14667,0-.26544-.1189-.26544-.26544s.11877-.26544.26544-.26544h2.47766c.14667,0,.26544.1189.26544.26544s-.11877.26544-.26544.26544Z"/><path class="d" d="M12.24219,17.7334h25.62109c.55225,0,1-.44727,1-1s-.44775-1-1-1H12.24219c-.55225,0-1,.44727-1,1s.44775,1,1,1Z"/><path class="d" d="M40.52069,6.177H9.48193c-1.10455,0-2,.89545-2,2v.6167c-.00006.00458-.00262.00836-.00262.01294v32.38672c0,.63428.51611,1.15033,1.15039,1.15033h32.7406c.63428,0,1.15039-.51605,1.15039-1.15033V8.177c0-1.10455-.89545-2-2-2ZM19.34961,9.86816c0,.55273-.44775,1-1,1h-7.60986c-.55225,0-1-.44727-1-1s.44775-1,1-1h7.60986c.55225,0,1,.44727,1,1ZM39.52069,13.30432v26.03937H10.48193V13.30432h29.03876Z"/></svg>