<?xml version="1.0" encoding="UTF-8"?><svg id="b" xmlns="http://www.w3.org/2000/svg" width="50" height="50" viewBox="0 0 50 50"><defs><style>.d{fill:none;stroke:#0067fb;stroke-linecap:round;stroke-linejoin:round;stroke-width:2px;}.e{fill:#0067fb;}</style></defs><line class="d" x1="2.52365" y1="27.6204" x2="8.88749" y2="27.6204"/><line class="d" x1="8.88749" y1="22.00525" x2="4.52365" y2="22.00525"/><path class="e" d="M29.24289,40.79052c0,1.40528,1.1498,2.55509,2.55509,2.55509h5.11014c1.40528,0,2.55509-1.1498,2.55509-2.55509v-2.80637c2.14838-.17957,3.84249-1.98251,3.84249-4.17651V15.70575c0-2.1943-1.69411-3.99724-3.84249-4.17681v-2.3195c0-1.40528-1.1498-2.55505-2.55509-2.55505h-5.11014c-1.40528,0-2.55509,1.14976-2.55509,2.55505v2.30167h-1.70338v-2.30167c0-1.40528-1.14976-2.55505-2.55509-2.55505h-5.11014c-1.40528,0-2.55505,1.14976-2.55505,2.55505v2.30167h-.98649c-2.31267,0-4.19464,1.88167-4.19464,4.19464v18.1019c0,2.31267,1.88197,4.19434,4.19464,4.19434h.98649v2.78853c0,1.40528,1.14976,2.55509,2.55505,2.55509h5.11014c1.40532,0,2.55509-1.1498,2.55509-2.55509v-2.78853h1.70338v2.78853ZM39.11164,36.15666h-22.7789c-1.2957,0-2.34931-1.05362-2.34931-2.34901V15.70575c0-1.2954,1.05362-2.34931,2.34931-2.34931h22.7789c1.2951,0,2.34871,1.05392,2.34871,2.34931v18.1019c0,1.2954-1.05362,2.34901-2.34871,2.34901ZM38.48981,15.81388v17.88553h-9.28071v-4.86682h-2.39962v-8.1519h2.39962v-4.86682h9.28071Z"/></svg>