<?xml version="1.0" encoding="UTF-8"?><svg id="b" xmlns="http://www.w3.org/2000/svg" width="50" height="50" viewBox="0 0 50 50"><defs><style>.d{fill:#fbdc7b;}.e{fill:#440201;}</style></defs><path class="d" d="M25,4.35785C13.59967,4.35785,4.35791,13.59967,4.35791,25s9.24176,20.64209,20.64209,20.64209,20.64209-9.24176,20.64209-20.64209S36.40033,4.35785,25,4.35785ZM17.69305,17.69305c1.51331,0,2.74011,1.63568,2.74011,3.65344s-1.22681,3.6535-2.74011,3.6535-2.74011-1.63574-2.74011-3.6535,1.22681-3.65344,2.74011-3.65344ZM34.59363,31.96124c-.90686.87152-2.00415,1.80536-3.11023,2.4494-.36298.24573-.78583.47064-1.18689.6347-2.46387,1.22748-5.37292,1.5434-8.06262.99011-.77209-.20935-1.87854-.54022-2.59308-.88617-.96155-.39618-5.49658-3.14178-4.21259-4.27142.28339-.24298.68341-.22107.95782.00214,4.7926,3.29694,9.99487,3.84076,15.17737,1.11938.74225-.36725,1.43762-.84729,2.20593-1.22131.73352-.37769,1.4314.63092.82428,1.18317ZM32.30695,25c-1.51331,0-2.74011-1.63574-2.74011-3.6535s1.22681-3.65344,2.74011-3.65344,2.74011,1.63568,2.74011,3.65344-1.22681,3.6535-2.74011,3.6535Z"/><path class="e" d="M25,3.07916C12.91284,3.07916,3.07916,12.91278,3.07916,25s9.83368,21.92084,21.92084,21.92084,21.92084-9.83368,21.92084-21.92084S37.08716,3.07916,25,3.07916ZM25,45.64209c-11.40033,0-20.64209-9.24176-20.64209-20.64209S13.59967,4.35785,25,4.35785s20.64209,9.24182,20.64209,20.64215-9.24176,20.64209-20.64209,20.64209Z"/><path class="e" d="M17.69305,25c1.51331,0,2.74011-1.63574,2.74011-3.6535s-1.22681-3.65344-2.74011-3.65344-2.74011,1.63568-2.74011,3.65344,1.22681,3.6535,2.74011,3.6535Z"/><path class="e" d="M32.30695,17.69305c-1.51331,0-2.74011,1.63568-2.74011,3.65344s1.22681,3.6535,2.74011,3.6535,2.74011-1.63574,2.74011-3.6535-1.22681-3.65344-2.74011-3.65344Z"/><path class="e" d="M33.76935,30.77808c-.76831.37402-1.46368.85406-2.20593,1.22131-5.1825,2.72137-10.38477,2.17755-15.17737-1.11938-.27441-.22321-.67444-.24512-.95782-.00214-1.284,1.12964,3.25104,3.87524,4.21259,4.27142.71454.34595,1.82098.67682,2.59308.88617,2.6897.55328,5.59875.23737,8.06262-.99011.40106-.16406.82391-.38898,1.18689-.6347,1.10608-.64404,2.20337-1.57788,3.11023-2.4494.60712-.55225-.09076-1.56085-.82428-1.18317Z"/></svg>