<?xml version="1.0" encoding="UTF-8"?><svg id="b" xmlns="http://www.w3.org/2000/svg" width="50" height="50" viewBox="0 0 50 50"><defs><style>.d{fill:#32a0c8;}</style></defs><path class="d" d="M26.21387,22.32568c-.13281-.29736-.30371-.52441-.50879-.6748-.2002-.14648-.44434-.21777-.74805-.21777-.29785,0-.54688.07275-.7373.21631-.20117.15088-.36719.37695-.49316.67236-.13574.31836-.23633.70947-.29688,1.16211-.0625.46533-.09473,1.00537-.09473,1.60498,0,.59912.03223,1.13867.09473,1.60449.06055.45215.16016.84375.29688,1.16113.12695.29688.29199.52344.49219.67285.19336.14648.43457.2168.73828.2168.30469,0,.54883-.07129.74707-.21777.20508-.15039.37695-.37695.50977-.6748.14062-.31543.24219-.70508.30273-1.1582.0625-.46582.09473-1.00537.09473-1.60449,0-.59961-.03223-1.13965-.09473-1.60498-.06055-.45215-.16211-.84229-.30273-1.1582Z"/><path class="d" d="M25,2.19434C12.4248,2.19434,2.19434,12.4248,2.19434,25s10.23047,22.80566,22.80566,22.80566,22.80566-10.23047,22.80566-22.80566S37.5752,2.19434,25,2.19434ZM40.25391,18.0332l.00098-.00342c.08691-.20459.24707-.36328.4502-.44678l1.18652-.4917c.20703-.08496.43262-.08545.6377.00049.2041.08398.36426.24365.44922.44922.0918.2207.09473.44727.00977.65479-.08594.20703-.24609.3667-.45117.45215l-1.18848.49219c-.10254.04199-.20898.06348-.31641.06348-.33887,0-.6416-.20312-.77148-.51758-.08984-.2124-.0918-.44482-.00684-.65283ZM30.84766,8.68066l.50391-1.21826c.08593-.20508.24609-.36475.45215-.44971.20508-.08496.43066-.08447.63574.00049.21484.08936.38281.25391.46973.46338.08398.20361.08398.42773-.00098.63184l-.50293,1.21729c-.12988.31104-.43164.51172-.77051.51172-.10938,0-.2168-.02148-.32031-.06348-.21387-.08691-.37988-.25-.46582-.4585-.08594-.2041-.08594-.42969-.00098-.63477ZM21.68555,7.60156l2.46777-3.69824c.37891-.56738,1.31445-.56738,1.69336,0l2.46777,3.69824c.20898.31299.22754.71387.0498,1.04541-.17969.33643-.51465.53711-.89648.53711h-4.93555c-.38184,0-.7168-.20068-.89648-.53711-.17773-.33154-.15918-.73242.0498-1.04541ZM7.0127,17.56104c.18262-.44092.66504-.64697,1.09473-.47021l1.29004.53467c.2041.08447.36328.24365.44824.44824.08594.2085.08496.43652-.00098.64355-.08691.21143-.24805.37549-.45215.46191-.10059.04395-.21094.06641-.32324.06641-.10938,0-.21582-.02148-.31738-.06396l-1.28906-.53369c-.20508-.08496-.36426-.24463-.44922-.4502-.08594-.20557-.08594-.43164-.00098-.63672ZM9.84961,31.91895l-.00098.00098c-.08398.20801-.24414.36914-.45117.45508l-1.29004.53418c-.10059.04199-.20801.06348-.31738.06348-.33789,0-.63965-.20117-.76855-.51367-.18359-.44141.01074-.92773.44141-1.10645l1.29004-.53516c.20703-.08398.43555-.08301.64062.00293.2041.08594.36328.24707.44824.45312.08789.21484.09082.4375.00781.64551ZM9.62695,25.84277h-3.25977c-.45898,0-.83203-.37305-.83203-.83203,0-.47852.36523-.85303.83203-.85303h3.25977c.46484,0,.84277.37793.84277.84229,0,.46484-.37793.84277-.84277.84277ZM14.72852,36.46387l-2.30859,2.30762c-.15723.15723-.36523.24316-.58789.24316s-.43066-.08594-.58789-.24316c-.33887-.33887-.3457-.86133-.01562-1.19141l2.30859-2.30762c.17383-.17383.40038-.27051.61816-.24121.19727.00098.40527.08887.56152.24512.16016.16016.25.37109.25195.59375.00293.22559-.08203.43555-.24023.59375ZM14.72363,14.71729v.00049c-.16114.16016-.37207.25-.59277.25293-.22949,0-.4375-.08594-.59473-.24219l-2.30762-2.30859c-.15723-.15674-.24316-.36523-.24316-.58691,0-.22217.08594-.43115.24316-.58838.33789-.33887.86133-.34473,1.19141-.01562l2.30859,2.30762c.32324.3252.32031.85449-.00488,1.18066ZM19.16992,41.27734l-.52148,1.25977c-.08496.2041-.24512.36426-.44922.44922-.10156.04297-.20996.06445-.32031.06445s-.21777-.02148-.31934-.06445c-.21094-.08789-.37695-.24902-.46484-.4541-.08789-.20605-.08887-.43262-.00293-.63965l.52051-1.26074c.08789-.20801.24805-.36719.45215-.4502.2041-.08398.43262-.08398.64258.00391.43066.17871.6377.66895.46289,1.0918ZM18.71777,9.81055c-.11035.04639-.22461.06982-.33887.06982-.10938,0-.21484-.02148-.31543-.06299-.20508-.0835-.36523-.24316-.4502-.44873l-.52246-1.26025c-.1748-.42334.02637-.91113.4502-1.0874.44238-.18066.92871.01172,1.10645.44141l.52246,1.26074c.1748.42188-.02734.91016-.45215,1.0874ZM25.84277,43.63281c0,.45898-.37305.83203-.83203.83203-.47852,0-.85352-.36523-.85352-.83203v-3.25977c0-.46387.37793-.8418.84277-.8418s.84277.37793.84277.8418v3.25977ZM28.29199,29.69824c-.79395,1.00488-1.9209,1.51465-3.35059,1.51465-1.41016,0-2.52148-.50977-3.30469-1.5166-.76855-.98633-1.1582-2.53613-1.1582-4.60742,0-1.02881.10352-1.93311.30762-2.68799.20703-.76562.50879-1.41113.89844-1.91895.39453-.51562.88184-.90234,1.44531-1.14941.55664-.24463,1.1875-.36865,1.87598-.36865,1.4082,0,2.52051.51318,3.30371,1.52588.76855.9917,1.1582,2.53955,1.1582,4.59912,0,2.07129-.39551,3.62207-1.17578,4.60938ZM32.9082,42.52832c-.08496.20508-.24414.36523-.44922.4502-.10742.04492-.22363.06836-.33789.06836h-.00391c-.33594,0-.63574-.19922-.76465-.50977l-.50488-1.21777c-.08398-.20508-.08398-.42969.00098-.63477.08496-.20703.24707-.36914.45703-.45508.20801-.08594.44043-.08691.65039-.00293.2041.08496.36426.24316.44824.44727l.50488,1.21875c.08496.2041.08496.43066-.00098.63574ZM33.75391,21.8877c-.10156.24512-.24219.46191-.41992.64355-.18164.18555-.40039.33057-.64941.43164-.25098.1001-.52148.15088-.80469.15088-.28418,0-.55469-.05078-.80273-.15088-.25098-.10107-.4707-.24561-.6543-.43018-.18359-.18262-.32715-.3999-.42871-.64551-.10059-.24316-.15137-.51221-.15137-.79883s.05078-.55371.15234-.79395.24512-.45508.42773-.6377c.18359-.18457.4043-.32861.6543-.42969.49512-.19922,1.10547-.20117,1.60645,0,.25.10107.46875.24561.65039.43066.17676.18213.31738.396.41895.63623.10156.24072.15234.50781.15234.79443s-.05078.55566-.15137.79932ZM38.77148,38.75586c-.16895.16895-.37793.25879-.60352.25879-.22266,0-.43066-.08594-.58789-.24316l-2.30762-2.30762c-.15625-.15625-.24219-.36523-.24219-.58789,0-.22461.08789-.43555.24609-.59277.16113-.16113.37109-.25098.59277-.25391.23242,0,.44043.08691.5957.24512l2.30664,2.30566c.15723.15723.24316.36523.24316.58789s-.08594.43066-.24316.58789ZM38.77148,12.41992l-2.30859,2.30811c-.1543.15625-.36328.24268-.58496.24268-.23047-.00293-.43848-.09082-.59473-.24805-.16113-.15869-.25098-.36914-.25391-.59131-.00098-.22656.08496-.4375.24316-.59521l2.30762-2.30713c.3125-.31543.86328-.31396,1.17578.00049.16895.16699.25879.37646.25879.60352,0,.22168-.08594.43018-.24316.58691ZM42.98633,32.43945c-.09082.2207-.24902.38379-.45801.46973-.10156.04199-.20898.06348-.31836.06348-.11035,0-.21777-.02148-.31934-.06445l-1.1875-.49121c-.20703-.08594-.36816-.24805-.45215-.45801-.08203-.20508-.08008-.43164.00586-.63672.17871-.42969.66992-.6377,1.0918-.46289l1.18848.49219c.42383.17578.625.66406.44922,1.08789ZM43.63281,25.84277h-3.25977c-.46484,0-.84277-.37793-.84277-.84277,0-.46436.37793-.84229.84277-.84229h3.25977c.45801,0,.83105.37305.83105.83154,0,.47852-.36523.85352-.83105.85352Z"/><path class="d" d="M32.55664,21.08838c0-.22217-.0625-.396-.19141-.53076-.125-.13135-.28418-.19531-.48535-.19531-.20898,0-.37207.06396-.49707.19482-.12793.13477-.19043.30811-.19043.53125,0,.23828.06055.41455.18652.53955.24609.24854.73633.25732.99023.00049.12598-.12598.1875-.30273.1875-.54004Z"/></svg>