<?xml version="1.0" encoding="UTF-8"?><svg id="b" xmlns="http://www.w3.org/2000/svg" width="50" height="50" viewBox="0 0 50 50"><defs><style>.d{fill:#4396fb;}</style></defs><path class="d" d="M22.53686,15.63563c-.18552-.75904-.76722-1.35018-1.51683-1.54261-.34273-.08804-.76407-.13961-1.25207-.19872-1.23321-.14904-2.76701-.33519-3.95243-1.19799-.96217-.69993-1.56399-1.92433-2.04759-2.90851-.22828-.46536-.44461-.90494-.67415-1.24138-.30123-.44335-.77979-.71942-1.31307-.75841-.5402-.04151-1.05021.16665-1.41181.56284-2.44441,2.66954-6.65215,7.53382-7.37975,10.16626-.07287.39281.05994.78946.33043,1.07992-.15042.58638.05668,1.23065.57585,1.60856l.62403.45424-.41026.56358c-.27478.37756-.19153.90635.18599,1.18117s.90635.19153,1.18117-.18599l.41022-.56358.73487.53493-.41026.56358c-.27481.37752-.19153.90631.18599,1.18113s.90631.19157,1.18113-.18595l.41026-.56358.64993.47307-.41022.56362c-.27481.37752-.19157.90631.18595,1.18113.37756.27481.90635.19157,1.18117-.18595l.41026-.56362,7.52671,5.47892-.41026.56358c-.27481.37752-.19153.90631.18599,1.18113s.90635.19157,1.18117-.18595l.41026-.56358.73479.53489-.41022.56358c-.27481.37752-.19157.90635.18599,1.18117.37752.27481.90635.19153,1.18117-.18599l.41022-.56362.64997.47314-.4103.56358c-.27478.37752-.19153.90635.18603,1.18117.37748.27481.90631.19153,1.18113-.18599l.41026-.56358.68358.49759-.41026.56358c-.27481.37752-.19153.90635.18599,1.18117s.90631.19149,1.18113-.18599l.41026-.56358.15356.11174c.51473.37473,1.1849.37811,1.69507.06308.35028.19302.7331.2916,1.11526.2916.71942,0,1.43004-.33204,1.88534-.95714l.33959-.46662c2.89908-3.98324.15093-7.71368-2.17525-10.17632-.19809-.22954-4.39452-5.1347-5.54598-9.84931ZM21.52438,24.32406c-.09181.08364-.20753.12514-.32324.12514-.12955,0-.25909-.05282-.35405-.15596-.17797-.19558-.16413-.49869.03081-.67729,1.1173-1.01951,2.29446-1.51765,3.11997-1.76299.17781.29199.355.57435.53155.84575-.71549.17962-1.89022.60717-3.00504,1.62535ZM25.13593,23.60479c.20564.29612.40043.56578.58811.82091-.7307.20548-1.80728.64258-2.83249,1.57869-.09181.08364-.20753.12514-.32324.12514-.12955,0-.25909-.05282-.35405-.15596-.17797-.19558-.16413-.49869.03081-.67729,1.01645-.92738,2.08139-1.42352,2.89086-1.69149ZM23.44703,20.91018c-.66027.1413-1.99551.54904-3.23194,1.67821-.09181.08364-.20753.12514-.32324.12514-.12955,0-.25909-.05282-.35405-.15596-.17797-.19558-.16413-.49869.03081-.67729,1.25416-1.14489,2.58244-1.63698,3.40779-1.84608.15348.2982.31007.58996.47063.87597ZM11.74142,18.94367c2.7327,2.07774,5.09842,4.59812,6.99913,7.45671l1.75297,2.63633-15.62475-11.8122c.4123-.71325.95666-1.50676,1.56093-2.3195l5.31172,4.03866Z"/><path class="d" d="M34.88089,29.4292c.35783,0,.71628-.13646.98921-.41002l4.75675-4.76429c.54586-.54649.5446-1.43193-.00126-1.97716-.54649-.54523-1.43193-.54523-1.97716.00126l-4.75675,4.76429c-.54586.54649-.5446,1.43193.00126,1.97716.27293.2723.63075.40876.98795.40876Z"/><path class="d" d="M35.87638,35.07328c-.54586-.54523-1.4313-.54523-1.97716.00126s-.5446,1.43193.00126,1.97716l4.76429,4.75675c.27293.2723.63075.40876.98795.40876.35783,0,.71628-.13646.98921-.41002.54586-.54649.5446-1.43193-.00126-1.97716l-4.76429-4.75675Z"/><path class="d" d="M45.63262,30.63977h-.00126l-6.73265.00566c-.77225.00063-1.39734.62698-1.39671,1.39923.00063.77162.62635,1.39671,1.39797,1.39671h.00126l6.73265-.00566c.77225-.00063,1.39734-.62698,1.39671-1.39923-.00063-.77162-.62635-1.39671-1.39797-1.39671Z"/></svg>