<?xml version="1.0" encoding="UTF-8"?><svg id="b" xmlns="http://www.w3.org/2000/svg" width="50" height="50" viewBox="0 0 50 50"><defs><style>.d{fill:#f06c00;}</style></defs><path class="d" d="M42.49219,21.47853h-2.79414v-7.45102c0-2.05832-1.66714-3.72555-3.72555-3.72555h-7.45102v-2.79414c0-2.57061-2.08635-4.65688-4.65696-4.65688s-4.65688,2.08626-4.65688,4.65688v2.79414h-7.45102c-2.05832,0-3.70687,1.66714-3.70687,3.72555l-.00934,7.07853h2.7848c2.77555,0,5.02946,2.25391,5.02946,5.02946s-2.25391,5.02946-5.02946,5.02946h-2.7848l-.00934,7.07844c0,2.05841,1.66714,3.72555,3.72555,3.72555h7.07853v-2.79414c0-2.77554,2.25391-5.02946,5.02946-5.02946s5.02946,2.25391,5.02946,5.02946v2.79414h7.07844c2.05832,0,3.72555-1.66714,3.72555-3.72555v-7.45102h2.79414c2.57061,0,4.65688-2.08627,4.65688-4.65688s-2.08627-4.65696-4.65688-4.65696Z"/></svg>