<?xml version="1.0" encoding="UTF-8"?><svg id="b" xmlns="http://www.w3.org/2000/svg" width="50" height="50" viewBox="0 0 50 50"><defs><style>.d{fill:#9383ed;}</style></defs><path class="d" d="M48.65948,16.92566C45.8327,8.64124,38.78479,2.3125,30.07513.51642l-1.47925,1.47925-13.80347,13.80353-7.86877,24.24878c-.10272.31689-.01904.66486.21631.90051.23572.23529.58368.31903.90051.21631l24.24878-7.86877s10.40613-10.40619,13.80328-13.80371l.00018.00018,2.56677-2.56683ZM18.00528,36.56929c-1.48499-3.70496-2.53981-5.0768-6.30498-7.04457l4.36012-13.43708,5.26581,1.19763c.50946.1156.90363.51892,1.00806,1.03088.27637,1.35773.81903,4.02136,1.10266,5.41364.11011.54004.54181.95624,1.08533,1.04645,1.15833.19171,3.14679.52106,4.23639.70154.47577.07898.87164.40887,1.03442.86255l2.05841,5.73615-13.84622,4.49282Z"/></svg>