<?xml version="1.0" encoding="UTF-8"?><svg id="b" xmlns="http://www.w3.org/2000/svg" width="50" height="50" viewBox="0 0 50 50"><defs><style>.d{fill:#24922e;}</style></defs><path class="d" d="M39.6059,7.48059H10.40051c-1.61127.00323-2.91663,1.30865-2.91986,2.91992v29.20538c.00354,1.61011,1.30975,2.91345,2.91986,2.91345h29.20538c1.6076-.00354,2.90991-1.30585,2.91345-2.91345V10.40051c0-1.61011-1.30334-2.91638-2.91345-2.91992ZM10.48065,10.48059h13.93536v3.29651c0,.32251.26147.58392.58405.58392.14667,0,.28802-.05524.39587-.15472,1.28577-1.17908,3.28387-1.09265,4.46295.19312,1.17908,1.28571,1.09265,3.28387-.19312,4.46295-1.20776,1.1076-3.06201,1.1076-4.26984,0-.23706-.21869-.60651-.20374-.8252.03333-.09961.10797-.15485.24957-.15472.39648v5.12793h-4.01544c1.07269-2.13525.21136-4.73584-1.92389-5.80853-2.13525-1.07275-4.73584-.21136-5.80853,1.92389-.61395,1.22211-.61395,2.66254,0,3.88464h-2.1875v-13.93951ZM25.00684,35.64728c-.14771-.00012-.28992.05573-.39813.15631-1.28589,1.17847-3.28363,1.09131-4.46204-.19458-1.17847-1.28589-1.09131-3.28363.19458-4.46204,1.20734-1.10645,3.06012-1.10645,4.26746,0,.23743.21832.60681.20288.8252-.03448.099-.1076.15405-.24854.15417-.39478v-5.12964h4.02008c-1.07227,2.13507-.21075,4.73517,1.92438,5.8075,2.13507,1.07233,4.73523.21075,5.8075-1.92432.61359-1.22168.61359-2.6615,0-3.88318h2.17932v13.93127h-13.92896v-3.28772c.00024-.32251-.26105-.58417-.58356-.58435Z"/></svg>