<?xml version="1.0" encoding="UTF-8"?><svg id="b" xmlns="http://www.w3.org/2000/svg" width="50" height="50" viewBox="0 0 50 50"><defs><style>.d{fill:#479e87;}</style></defs><path class="d" d="M32.80356,22.01943v-10.38279c0-2.38927-1.93689-4.32616-4.32616-4.32616H10.30753c-2.38927,0-4.32616,1.93689-4.32616,4.32616v16.43941c.00246.47785.39183.86322.86968.86076.16764-.00086.33142-.05041.47143-.14262l4.17042-2.7774c.52453-.35167,1.14222-.53849,1.77373-.53644h16.07601c1.91142,0,3.46093-1.54951,3.46093-3.46093h0ZM19.82508,21.1542h-6.92186c-.47785,0-.86523-.38738-.86523-.86523s.38738-.86523.86523-.86523h6.92186c.47785,0,.86523.38738.86523.86523s-.38738.86523-.86523.86523ZM25.88171,17.69327h-12.97848c-.47785,0-.86523-.38738-.86523-.86523s.38738-.86523.86523-.86523h12.97848c.47785,0,.86523.38738.86523.86523s-.38738.86523-.86523.86523ZM25.88171,14.23234h-12.97848c-.47785,0-.86523-.38738-.86523-.86523s.38738-.86523.86523-.86523h12.97848c.47785,0,.86523.38738.86523.86523s-.38738.86523-.86523.86523ZM38.86019,19.42373h-4.32616v2.5957c.00443,1.12398-.36035,2.21831-1.03828,3.11484-.08823.12337-.18663.23914-.29418.34609h3.06292c.47785,0,.86523.38738.86523.86523s-.38738.86523-.86523.86523h-19.90034v6.92186c0,2.38927,1.93689,4.32616,4.32616,4.32616h15.21078c.6315-.00204,1.2492.18477,1.77373.53644l4.17042,2.77739c.39908.26283.93567.15237,1.19849-.24672.09221-.14001.14175-.30379.14262-.47143v-17.30464c0-2.38927-1.93689-4.32616-4.32616-4.32616h0ZM29.34264,34.13268h-6.05663c-.47785,0-.86523-.38738-.86523-.86523s.38738-.86523.86523-.86523h6.05663c.47785,0,.86523.38738.86523.86523s-.38738.86523-.86523.86523ZM36.26449,30.67175h-12.97848c-.47785,0-.86523-.38738-.86523-.86523s.38738-.86523.86523-.86523h12.97848c.47785,0,.86523.38738.86523.86523s-.38738.86523-.86523.86523Z"/></svg>