<?xml version="1.0" encoding="UTF-8"?><svg id="a" xmlns="http://www.w3.org/2000/svg" width="50" height="50" viewBox="0 0 50 50"><defs><style>.c{fill:#4396fb;}</style></defs><path class="c" d="M25.35212,20.51286h-.70373c-.20621,0-.3734.15896-.3734.35499v.63168c0,.19603.16719.35499.3734.35499h.70373c.20621,0,.3734-.15896.3734-.35499v-.63168c0-.19603-.16719-.35499-.3734-.35499Z"/><path class="c" d="M25.83404,16.75579h-1.66756c-.15975,0-.30181.09664-.35336.24034l-.36831,1.02622c-.02982.08314-.02623.17378.01018.2545l.45177,1.00221c.0588.13051.19381.21515.34312.21515h1.50077c.14931,0,.28432-.08464.34312-.21515l.45177-1.00221c.03635-.08072.04-.17136.01018-.2545l-.36831-1.02622c-.05155-.14369-.19362-.24034-.35336-.24034ZM25.00026,18.72197c-.32968,0-.59697-.26729-.59697-.59697s.26729-.59697.59697-.59697.59697.26729.59697.59697-.26729.59697-.59697.59697Z"/><path class="c" d="M47.68058,20.58041h-8.77731v-.97441h1.26943c.41066,0,.74666-.28752.74666-.64219v-.29868c0-.17919-.0896-.35088-.24269-.47037l-1.10884-.87737c-.12692-.10082-.28745-.16053-.45921-.16804l-7.72075-.7205-1.84428-2.96812c-.13815-.22024-.37712-.35095-.63468-.35095h-7.81785c-.25757,0-.49654.13071-.63468.35095l-1.84428,2.96812-7.72075.7205c-.17175.0075-.33229.06721-.45921.16804l-1.10884.87737c-.15309.11948-.24269.29117-.24269.47037v.29868c0,.35467.33601.64219.74666.64219h1.26943v.97441H2.31942c-.56754,0-.92964.60858-.65335,1.10512l1.37012,1.73974c.13071.23897.38084.38828.65335.38828h1.31792l.63468,4.51c.05977.56747.50032.99307,1.02674.99307h.52264c.50032,0,.92964-.38828,1.01924-.91842l.71306-3.22569s.14187-.29489.45177-.61224c.31362-.31362.79521-.65713,1.48217-.74673h1.05657v.22774c0,.20536.16425.37333.37333.37333h1.45235c.20902,0,.37333-.16797.37333-.37333v-.22774h21.77339v.22774c0,.20536.16797.37333.37333.37333h1.456c.20536,0,.37333-.16797.37333-.37333v-.22774h1.05285c1.37019.18298,1.93394,1.35896,1.93394,1.35896l.71306,3.22569c.0896.53014.51892.91842,1.01924.91842h.5227c.52636,0,.9669-.4256,1.02668-.99307l.63468-4.51h1.31792c.27251,0,.52264-.14931.65707-.38828l1.3664-1.73974c.2763-.49654-.08581-1.10512-.65335-1.10512ZM14.93094,20.58041v-.97441h3.4086v.34723c0,.13808.03733.27251.10826.38821l.18298.23897h-3.69984ZM25.00026,14.01131c.40054,0,.72526.19779.72526.44179s-.32472.44179-.72526.44179-.72526-.19779-.72526-.44179.32472-.44179.72526-.44179ZM28.95434,19.7104l-1.52831,2.57032c-.07341.12353-.22879.20216-.39943.20216h-4.05268c-.17065,0-.32602-.07863-.39943-.20216l-1.52831-2.57032c-.05312-.08934-.05736-.19231-.01168-.28419l1.53261-3.08506c.06702-.13495.2299-.22357.41112-.22357h4.04407c.18122,0,.3441.08862.41112.22357l1.53261,3.08506c.04568.09188.04144.19486-.01168.28419ZM35.06906,20.58041h-3.69612l.17926-.23897c.07093-.1157.10826-.25013.10826-.38821v-.34723h3.4086v.97441Z"/><rect class="c" x="20.61475" y="28.80029" width="8.77002" height="8.77002"/><polygon class="c" points="20.32013 38.57031 20.31592 38.57666 18.3219 40.57025 31.67773 40.57025 29.67822 38.57031 20.32013 38.57031"/><polygon class="c" points="19.61475 37.86572 19.61475 28.5069 17.61493 26.50745 17.61493 39.86316 19.60889 37.86963 19.61475 37.86572"/><polygon class="c" points="30.38477 37.86279 32.38507 39.86353 32.38507 26.50702 30.38477 28.50732 30.38477 37.86279"/><polygon class="c" points="29.67773 27.80029 31.67792 25.80011 18.32166 25.80011 20.3222 27.80029 29.67773 27.80029"/></svg>