<?xml version="1.0" encoding="UTF-8"?><svg id="b" xmlns="http://www.w3.org/2000/svg" width="50" height="50" viewBox="0 0 50 50"><defs><style>.d{fill:#0067fb;}</style></defs><path class="d" d="M41.79079,17.53407c.0468-.38179.11577-.75866.11577-1.15524s-.06897-.77344-.11577-1.15524l2.21934-1.67989c.4951-.3744.63304-1.05917.32268-1.59861l-1.99272-3.44846c-.31036-.53698-.97296-.76113-1.54442-.51973l-2.55433,1.07641c-.62319-.4754-1.28578-.89414-2.01735-1.19957l-.33992-2.71197c-.07882-.6158-.60102-1.07888-1.22174-1.07888h-3.98298c-.62073,0-1.14538.46308-1.22174,1.07888l-.33992,2.71197c-.73157.30544-1.39663.72664-2.01735,1.19957l-2.55433-1.07641c-.57392-.24139-1.23652-.01971-1.54688.51973l-1.99026,3.44846c-.31036.53697-.17242,1.22174.32268,1.59861l2.21933,1.67989c-.04926.38179-.11823.75866-.11823,1.15524s.06897.77344.11577,1.15524l-2.21933,1.6799c-.4951.3744-.63304,1.05917-.32268,1.59861l1.99272,3.44846c.31036.53698.97296.76113,1.54442.51973l2.55433-1.07888c.62319.4754,1.28578.89414,2.01735,1.19957l.33992,2.71197c.07882.61826.60102,1.08134,1.22174,1.08134h3.98298c.62073,0,1.14538-.46308,1.22174-1.07888l.33992-2.71197c.73157-.30543,1.39663-.72664,2.01735-1.19957l2.55433,1.07641c.57392.24139,1.23652.01971,1.54688-.51973l1.99026-3.44846c.31036-.53697.17242-1.22174-.32268-1.59861l-2.21687-1.67989ZM32.66961,21.30522c-2.72182,0-4.92638-2.20455-4.92638-4.92638s2.20455-4.92638,4.92638-4.92638,4.92638,2.20455,4.92638,4.92638-2.20455,4.92638-4.92638,4.92638ZM26.45159,34.77639c.0468-.38179.11577-.75866.11577-1.15524s-.06897-.77344-.11577-1.15524l2.21934-1.67989c.4951-.3744.63304-1.05917.32268-1.59861l-1.99272-3.44846c-.31036-.53698-.97296-.76113-1.54442-.51973l-2.55433,1.07641c-.62319-.4754-1.28578-.89414-2.01735-1.19957l-.33992-2.71197c-.07882-.6158-.60102-1.07888-1.22174-1.07888h-3.98298c-.62073,0-1.14538.46308-1.22174,1.07888l-.33992,2.71197c-.73157.30544-1.39663.72664-2.01735,1.19957l-2.55433-1.07641c-.57392-.24139-1.23652-.01971-1.54688.51973l-1.99026,3.44846c-.31036.53697-.17242,1.22174.32268,1.59861l2.21933,1.67989c-.04926.38179-.11823.75866-.11823,1.15524s.06897.77344.11577,1.15524l-2.21933,1.6799c-.4951.3744-.63304,1.05917-.32268,1.59861l1.99272,3.44846c.31036.53698.97296.76113,1.54442.51973l2.55433-1.07888c.62319.4754,1.28578.89414,2.01735,1.19957l.33992,2.71197c.07882.61826.60102,1.08134,1.22174,1.08134h3.98298c.62073,0,1.14538-.46308,1.22174-1.07888l.33992-2.71197c.73157-.30543,1.39663-.72664,2.01735-1.19957l2.55433,1.07641c.57392.24139,1.23652.01971,1.54688-.51973l1.99026-3.44846c.31036-.53697.17242-1.22174-.32268-1.59861l-2.21687-1.67989ZM17.3304,38.54754c-2.72182,0-4.92638-2.20455-4.92638-4.92638s2.20455-4.92638,4.92638-4.92638,4.92638,2.20455,4.92638,4.92638-2.20455,4.92638-4.92638,4.92638Z"/></svg>