<?xml version="1.0" encoding="UTF-8"?><svg id="b" xmlns="http://www.w3.org/2000/svg" width="50" height="50" viewBox="0 0 50 50"><defs><style>.d{fill:#d68100;}</style></defs><path class="d" d="M24.84674,3.8537c-10.79269,0-10.11872,4.68036-10.11872,4.68036l.01203,4.84881h10.2992v1.45585h-14.39001s-6.90624-.78323-6.90624,10.10669c0,10.88992,6.02792,10.50374,6.02792,10.50374h3.5975v-5.05335s-.19391-6.02792,5.93167-6.02792h10.21498s5.73916.09277,5.73916-5.54665v-9.32463s.87136-5.6429-10.40749-5.6429h0ZM19.16775,7.11431c1.0247,0,1.85289.8282,1.85289,1.85289s-.8282,1.85289-1.85289,1.85289c-1.02469,0-1.85289-.8282-1.85289-1.85289,0-1.02469.8282-1.85289,1.85289-1.85289h0Z"/><path class="d" d="M25.15326,46.1463c10.79269,0,10.11872-4.68036,10.11872-4.68036l-.01203-4.84881h-10.2992v-1.45585h14.39s6.90624.78323,6.90624-10.1067c0-10.88992-6.02792-10.50374-6.02792-10.50374h-3.5975v5.05335s.19392,6.02792-5.93167,6.02792h-10.21498s-5.73916-.09277-5.73916,5.54665v9.32463s-.87136,5.6429,10.40749,5.6429h0ZM30.83225,42.88569c-1.02469,0-1.85289-.8282-1.85289-1.85289s.8282-1.85289,1.85289-1.85289,1.8529.8282,1.8529,1.85289c0,1.02469-.8282,1.85289-1.8529,1.85289h0Z"/></svg>