<?xml version="1.0" encoding="UTF-8"?><svg id="a" xmlns="http://www.w3.org/2000/svg" width="50" height="50" viewBox="0 0 50 50"><defs><style>.c{stroke-dasharray:1.94489 2.91734;}.c,.d{fill:none;stroke:#c28800;stroke-linecap:round;stroke-linejoin:round;stroke-width:1.5px;}.e{fill:#c28800;}</style></defs><path class="e" d="M21.33524,13.65302h-.53373c-.1564,0-.2832.12057-.2832.26924v.47909c0,.14868.1268.26924.2832.26924h.53373c.1564,0,.2832-.12057.2832-.26924v-.47909c0-.14868-.1268-.26924-.2832-.26924Z"/><path class="e" d="M21.70074,10.8035h-1.26475c-.12116,0-.22891.0733-.26801.18228l-.27934.77833c-.02262.06305-.0199.1318.00772.19302l.34264.76011c.04459.09899.14699.16318.26023.16318h1.13824c.11324,0,.21564-.06419.26023-.16318l.34264-.76011c.02757-.06122.03034-.12997.00772-.19302l-.27934-.77833c-.0391-.10898-.14685-.18228-.26801-.18228ZM21.06837,12.29473c-.25004,0-.45276-.20272-.45276-.45276s.20272-.45276.45276-.45276.45276.20272.45276.45276-.20272.45276-.45276.45276Z"/><path class="e" d="M38.27004,13.70424h-6.65707v-.73903h.96279c.31146,0,.5663-.21807.5663-.48706v-.22653c0-.13591-.06795-.26612-.18406-.35675l-.84099-.66543c-.09626-.07647-.21802-.12175-.34828-.12744l-5.85573-.54645-1.39877-2.25114c-.10478-.16704-.28602-.26617-.48137-.26617h-5.92937c-.19535,0-.37659.09913-.48137.26617l-1.39877,2.25114-5.85573.54645c-.13027.00569-.25202.05098-.34828.12744l-.84099.66543c-.11611.09062-.18406.22084-.18406.35675v.22653c0,.26899.25484.48706.5663.48706h.96279v.73903H3.86631c-.43044,0-.70508.46157-.49552.83817l1.03916,1.31949c.09913.18124.28884.29448.49552.29448h.99956l.48137,3.42057c.04534.43039.37946.75319.77872.75319h.39639c.37946,0,.70508-.29448.77303-.69657l.54081-2.44649s.1076-.22366.34264-.46434c.23786-.23786.60312-.4984,1.12414-.56635h.80134v.17273c0,.15575.12457.28315.28315.28315h1.10152c.15853,0,.28315-.1274.28315-.28315v-.17273h16.51381v.17273c0,.15575.1274.28315.28315.28315h1.10429c.15575,0,.28315-.1274.28315-.28315v-.17273h.79852c1.03921.13878,1.46678,1.03069,1.46678,1.03069l.54081,2.44649c.06795.40208.39357.69657.77303.69657h.39644c.39921,0,.73334-.32279.77867-.75319l.48137-3.42057h.99956c.20668,0,.39639-.11324.49835-.29448l1.03634-1.31949c.20955-.37659-.06508-.83817-.49552-.83817ZM13.43139,13.70424v-.73903h2.58522v.26335c0,.10473.02831.20668.08211.29443l.13878.18124h-2.80611ZM21.06837,8.72197c.30379,0,.55007.15001.55007.33507s-.24628.33507-.55007.33507-.55007-.15001-.55007-.33507.24628-.33507.55007-.33507ZM24.0673,13.04439l-1.15913,1.94943c-.05568.09369-.17352.15333-.30295.15333h-3.07372c-.12942,0-.24727-.05964-.30295-.15333l-1.15913-1.94943c-.04029-.06776-.0435-.14586-.00886-.21554l1.16239-2.33984c.05083-.10235.17436-.16956.31181-.16956h3.06719c.13744,0,.26098.06721.31181.16956l1.16239,2.33984c.03465.06969.03143.14779-.00886.21554ZM28.70495,13.70424h-2.80329l.13596-.18124c.0538-.08775.08211-.18971.08211-.29443v-.26335h2.58522v.73903Z"/><line class="d" x1="16.72229" y1="17.77789" x2="16.94519" y2="18.75275"/><line class="c" x1="17.59521" y1="21.5968" x2="20.52039" y2="34.39478"/><polyline class="d" points="20.84534 35.81677 21.06812 36.79163 21.29102 35.81677"/><line class="c" x1="21.94104" y1="32.97278" x2="24.86621" y2="20.1748"/><line class="d" x1="25.19116" y1="18.75275" x2="25.41406" y2="17.77789"/><line class="d" x1="42.38232" y1="23.02313" x2="42.38232" y2="30.73486"/><polygon class="e" points="39.3905 23.89856 42.38232 18.71741 45.37402 23.89856 39.3905 23.89856"/><polygon class="e" points="39.3905 29.85944 42.38232 35.04059 45.37402 29.85944 39.3905 29.85944"/><line class="d" x1="39.09375" y1="17.43704" x2="45.67081" y2="17.43704"/><line class="d" x1="39.09375" y1="36.32095" x2="45.67081" y2="36.32095"/><rect class="e" x="6.44084" y="36.85029" width="29.25466" height="4.96337" rx="1" ry="1"/></svg>