<?xml version="1.0" encoding="UTF-8"?><svg id="a" xmlns="http://www.w3.org/2000/svg" width="50" height="50" viewBox="0 0 50 50"><defs><style>.c{fill:#b15648;}</style></defs><path class="c" d="M10.78716,14.91529v19.97126c0,1.18145.54035,3.41094,4.15882,5.0661.13799.07063,1.27396.51302,1.8818.7093.04801.01778.09687.03398.14658.04862l.33246.09711c.67072.19302,1.36757.35653,2.08207.48859.78912.47928,1.69628.73252,2.64891.73252.54652,0,1.09618-.08974,1.61719-.26232.4332.01802.87571.02721,1.34338.02721,6.84607,0,14.21448-2.16153,14.21448-6.90715V14.91529c0-.9022-.32605-2.6142-2.46593-4.11299-.07087-.06881-.1444-.13787-.21926-.20596-2.20567-1.92933-6.6123-3.11186-11.52928-3.11186-4.08928,0-9.27004.87983-11.76451,3.33112-2.01556,1.41486-2.4467,3.00205-2.4467,4.09969ZM17.67628,38.68305s.03314-.8127.03314-1.15605c0-1.60824.75683-2.78811,1.80258-3.66624,1.04563-.87801,3.06772-1.89934,9.0411-1.89934,2.06139,0,7.78625.09312,8.51296-1.88216l.00278,4.8073c0,2.67201-5.30338,4.764-12.07133,4.764-.59586,0-1.14782-.01572-1.6935-.04717-.79964.39111-2.08449.45703-3.09227-.33863-.80291-.13182-1.57449-.30428-2.3052-.51435l-.23027-.06736ZM12.92946,14.91529c0-.87196.58329-1.71877,1.68721-2.44948,1.58066-1.69979,5.74868-2.8383,10.38085-2.8383,4.35305,0,8.31414,1.00367,10.08927,2.55615.10026.09095.19749.18491.28529.27598,1.11021.73373,1.69676,1.58369,1.69676,2.45565v.27332c0,.68415-1.24385,3.32967-8.76875,4.41509-5.01434.8381-9.59173,3.0295-10.38642,7.97926-.79469,4.94988-1.66846,10.58464-1.66846,10.58464l.00012.00012c-.22966-.08986-.39498-.15698-.40865-.16375-1.87865-.85927-2.90723-1.96005-2.90723-3.11743V14.91529Z"/><path class="c" d="M24.9984,12.13029c3.37459,0,5.64519.96902,5.64519,1.87545,0,.90635-2.27059,1.87545-5.64519,1.87545-3.37769,0-5.64202-.96909-5.64202-1.87545s2.26433-1.87545,5.64202-1.87545Z"/><path class="c" d="M24.17943,36.83406c0,1.18362-.95951,2.14313-2.14313,2.14313s-2.14313-.95951-2.14313-2.14313.95951-2.14313,2.14313-2.14313,2.14313.95951,2.14313,2.14313Z"/></svg>