<?xml version="1.0" encoding="UTF-8"?><svg id="b" xmlns="http://www.w3.org/2000/svg" width="50" height="50" viewBox="0 0 50 50"><defs><style>.e{fill:#4396fb;}</style></defs><g id="c"><path class="e" d="M30.06409,25.00352c0,2.79726-2.26763,5.06489-5.06489,5.06489s-5.06489-2.26763-5.06489-5.06489,2.26763-5.06489,5.06489-5.06489h0c2.7958.00352,5.06137,2.26909,5.06489,5.06489ZM40.33943,11.24408c-.53001-.70668-1.53254-.8499-2.23922-.31989-.70668.53001-.84989,1.53254-.31989,2.23922,5.25825,7.01455,5.25825,16.65715,0,23.6717-.53001.70668-.38679,1.70921.31989,2.23921.70667.53001,1.70921.38679,2.23921-.31989,6.11057-8.15216,6.11057-19.35819,0-27.51035h0ZM11.90031,10.92846c-.70644-.52924-1.70791-.38713-2.23921.31776-6.11128,8.15193-6.11128,19.35842,0,27.51035.53036.70641,1.53297.84912,2.23938.31876.70591-.52999.849-1.53164.31973-2.23809-5.25896-7.01431-5.25896-16.65739,0-23.6717.52856-.70631.38543-1.70721-.31989-2.23708ZM32.27808,16.04666c-.70724.52925-.85153,1.53163-.32227,2.23887l.00026.00034c2.98562,3.98083,2.98562,9.45446,0,13.43529-.53001.70668-.38679,1.70921.31989,2.23921.70667.53001,1.70921.38679,2.23921-.31989h0c3.83794-5.11844,3.83794-12.1555,0-17.27394-.53144-.70584-1.53367-.84888-2.24135-.31989h.00426ZM17.72459,16.04666c-.70675-.52802-1.70727-.38604-2.23921.31776-3.83794,5.11844-3.83794,12.1555,0,17.27394.53051.7063,1.53314.8488,2.23944.31829.70559-.52998.84863-1.53128.31966-2.23762-2.9842-3.9813-2.9842-9.45399,0-13.43529.52856-.70631.38543-1.70721-.31989-2.23708h0Z"/></g></svg>