<?xml version="1.0" encoding="UTF-8"?><svg id="b" xmlns="http://www.w3.org/2000/svg" width="50" height="50" viewBox="0 0 50 50"><defs><style>.d{fill:#d461cc;}</style></defs><path class="d" d="M39.25094,9.15288c-.54091-.4405-1.34196-.36502-1.7886.16852-.19565.23357-.29063.51605-.29063.79718,0,.36082.15735.71951.46149.96704,4.23925,3.45223,6.67081,8.5302,6.67081,13.93124,0,5.39613-2.42728,10.47064-6.6602,13.92283-.54087.43983-.61601,1.23001-.16941,1.76422.44735.53354,1.24769.60835,1.7886.1671,4.81842-3.92979,7.58173-9.7084,7.58173-15.85416,0-6.15134-2.76755-11.93348-7.59379-15.86398Z"/><path class="d" d="M34.92802,13.3638c-.55862-.41817-1.35543-.30979-1.77937.24195-.42323.5482-.31478,1.33694.2453,1.75511,3.0993,2.31734,4.87659,5.83667,4.87659,9.656s-1.77796,7.3387-4.87733,9.656c-.32963.24611-.50328.62092-.50328.99923,0,.26361.08366.53004.25802.75587.42394.55174,1.22075.66011,1.77933.24195,3.7395-2.79491,5.88397-7.0422,5.88397-11.65306,0-4.61019-2.14447-8.85815-5.88323-11.65306Z"/><path class="d" d="M30.44132,17.59148c-.60328-.35241-1.38234-.15594-1.74033.43983-.35873.59577-.15739,1.36426.44589,1.7167,1.88216,1.0999,3.05185,3.11865,3.05185,5.26885s-1.16969,4.16895-3.05185,5.26889c-.40053.23424-.62316.651-.62316,1.07966,0,.21675.05672.437.17726.637.35799.59577,1.13705.79223,1.74033.43983,2.65132-1.54956,4.29813-4.39411,4.29813-7.42538s-1.64681-5.87582-4.29813-7.42538Z"/><path class="d" d="M25.25118,8.98592c-.37421-.20544-.83232-.19126-1.19373.03848l-11.24062,7.14979H4.32791c-.64768,0-1.17263.52494-1.17263,1.17266v14.66579c0,.64772.52494,1.17266,1.17263,1.17266h8.48892l11.24062,7.14957c.19148.12185.41043.18322.62941.18322.19375,0,.38843-.04808.56432-.14474.37518-.20592.60835-.59986.60835-1.02793V10.01385c0-.42807-.23316-.82201-.60835-1.02793ZM22.63528,15.96905l-6.22592,3.97713c-.20335.12981-.43082.19174-.65531.19174-.40254,0-.79614-.19889-1.02897-.56272-.36264-.56808-.19621-1.32194.37127-1.68458l6.22592-3.97713c.56837-.36204,1.32164-.19591,1.68428.37098.36264.56808.19621,1.32194-.37127,1.68458Z"/></svg>