<?xml version="1.0" encoding="UTF-8"?><svg id="b" xmlns="http://www.w3.org/2000/svg" width="50" height="50" viewBox="0 0 50 50"><defs><style>.d{stroke:#aa9f71;stroke-linecap:square;}.d,.e,.f,.g,.h,.i,.j{fill:none;}.d,.f,.h,.j{stroke-width:2px;}.e{stroke:#999;stroke-width:3px;}.f{stroke:#58595b;}.g,.i{stroke:#ffe471;}.h{stroke:#ba4f61;}.i{stroke-width:1.38435px;}.k{fill:#58595b;}.j{stroke:#fff;}</style></defs><path class="e" d="M21.60334,13.59279h14.61281c5.15526,0,9.33442,4.17916,9.33442,9.33442v.00002c0,5.15526-4.17916,9.33442-9.33442,9.33442h-18.13816c-2.38851,0-4.32478,1.93627-4.32478,4.32478h0c0,2.38852,1.93627,4.32479,4.32478,4.32479h31.92202"/><path class="j" d="M21.60334,13.59279h14.61281c5.15526,0,9.33442,4.17916,9.33442,9.33442v.00002c0,5.15526-4.17916,9.33442-9.33442,9.33442h-18.13816c-2.38851,0-4.32478,1.93627-4.32478,4.32478h0c0,2.38852,1.93627,4.32479,4.32478,4.32479h31.92202"/><path class="h" d="M21.60334,15.59279h14.61281c4.05069,0,7.33442,3.28373,7.33442,7.33442h0c0,4.0507-3.28373,7.33443-7.33442,7.33443h-18.13816c-3.49308,0-6.32478,2.8317-6.32478,6.32478h0c0,3.49309,2.8317,6.32479,6.32478,6.32479h31.92202"/><path class="f" d="M21.60334,17.59279h14.6128c2.94612,0,5.33442,2.3883,5.33442,5.33442h0c0,2.94613-2.3883,5.33443-5.33442,5.33443h-18.13816c-4.59765,0-8.32478,3.72713-8.32478,8.32478v.00002c0,4.59765,3.72713,8.32478,8.32478,8.32478h31.92202"/><line class="d" x1="12.18024" y1="14.90061" x2="7.54773" y2="14.90061"/><line class="g" x1="12.18024" y1="14.90061" x2="7.54773" y2="14.90061"/><line class="d" x1="12.18024" y1="12.1319" x2="7.54773" y2="12.1319"/><line class="g" x1="12.18024" y1="12.1319" x2="7.54773" y2="12.1319"/><line class="d" x1="12.18024" y1="17.66932" x2="7.54773" y2="17.66932"/><line class="g" x1="12.18024" y1="17.66932" x2="7.54773" y2="17.66932"/><path class="k" d="M13.04093,21.20252h15.93751v-11.21947H10.81654v8.99508l2.22439,2.22439Z"/><line class="i" x1="18.37885" y1="14.90066" x2="13.19269" y2="14.90066"/><line class="i" x1="18.37885" y1="12.13195" x2="13.19269" y2="12.13195"/><line class="i" x1="18.37885" y1="17.66937" x2="13.19269" y2="17.66937"/></svg>