<?xml version="1.0" encoding="UTF-8"?><svg id="b" xmlns="http://www.w3.org/2000/svg" width="50" height="50" viewBox="0 0 50 50"><defs><style>.d{fill:#9e971f;}</style></defs><path class="d" d="M43.27635,13.30222l-4.39546-4.39546c-.63887-.63887-1.67459-.63887-2.31338,0s-.63887,1.67459,0,2.31338l1.04104,1.04104-2.13491,2.13491c-2.7791-2.31845-6.15822-3.71806-9.76276-4.04384v-3.01916h1.47224c.90346,0,1.63582-.73236,1.63582-1.63582s-.73236-1.63582-1.63582-1.63582h-6.21613c-.90347,0-1.63582.73236-1.63582,1.63582s.73236,1.63582,1.63582,1.63582h1.47224v3.01916c-8.97446.81104-16.19466,8.3472-16.19466,17.75581,0,9.85437,7.97472,17.83048,17.83048,17.83048,9.85437,0,17.83048-7.97473,17.83048-17.83048,0-4.21315-1.45229-8.20251-4.11851-11.39859l2.13491-2.13491,1.04104,1.04104c.63879.63879,1.67451.63887,2.31338,0,.63879-.63879.63879-1.67451,0-2.31338ZM24.07505,42.6669c-8.02773,0-14.55884-6.53111-14.55884-14.55884s6.53111-14.55884,14.55884-14.55884,14.55883,6.53111,14.55883,14.55884-6.53103,14.55884-14.55884,14.55884h0ZM32.57504,28.10807c0,.90346-.73236,1.63582-1.63582,1.63582h-6.86408c-.90347,0-1.63582-.73236-1.63582-1.63582v-9.62478c0-.90347.73236-1.63582,1.63582-1.63582s1.63582.73236,1.63582,1.63582v7.98896h5.22826c.90346,0,1.63582.73236,1.63582,1.63582Z"/></svg>