<?xml version="1.0" encoding="UTF-8"?><svg id="b" xmlns="http://www.w3.org/2000/svg" width="50" height="50" viewBox="0 0 50 50"><defs><style>.d{fill:#00a396;}</style></defs><path class="d" d="M46.85326,28.01793c-4.62738-8.28914-11.7049-12.93055-21.18904-13.11385-10.15031-.19619-17.68873,4.55088-22.54227,13.48001-.16075.29575-.15903.79792.00383,1.09249,4.77359,8.63503,12.17888,12.92863,21.9927,13.32618,9.72501-.50986,17.06521-4.882,21.74344-13.52828.18424-.34056.18008-.91849-.00866-1.25656ZM23.37948,40.34312c-4.92366-.63902-9.01191-4.56431-9.8643-9.45551-1.46869-8.4277,6.1243-15.61089,14.64437-13.35384,3.90528,1.03456,7.05426,4.19992,8.08802,8.1054,2.21996,8.38688-4.57951,15.77969-12.86808,14.70395Z"/><path class="d" d="M24.35634,21.33188c1.08588,2.84985.86743,4.57857-.75536,5.97846-1.63803,1.41301-3.42895,1.42586-5.93536.01269-.82746,2.76261.6696,6.2211,3.37172,7.89911,2.90459,1.80378,6.5722,1.44416,9.12633-.89486,2.45495-2.24822,3.11797-5.96439,1.59856-8.95978-1.41784-2.7951-4.70203-4.58471-7.4059-4.03562Z"/><path class="d" d="M24.99989,12.60474c.68339,0,1.23736-.55423,1.23736-1.23736v-4.93279c0-.68313-.55397-1.23736-1.23736-1.23736s-1.23736.55423-1.23736,1.23736v4.93279c0,.68313.55397,1.23736,1.23736,1.23736Z"/><path class="d" d="M37.58615,15.341c.31659,0,.63345-.12084.87485-.36251l3.48168-3.48168c.48334-.48334.48334-1.26636,0-1.7497-.48281-.48334-1.2669-.48334-1.7497,0l-3.48168,3.48168c-.48334.48334-.48334,1.26636,0,1.7497.2414.24167.55826.36251.87485.36251Z"/><path class="d" d="M11.53152,14.98601c.2414.24167.55826.36251.87485.36251s.63345-.12084.87485-.36251c.48334-.48334.48334-1.26636,0-1.7497l-3.48168-3.48168c-.48281-.48334-1.2669-.48334-1.7497,0-.48334.48334-.48334,1.26636,0,1.7497l3.48168,3.48168Z"/></svg>