<svg width="50" height="50" viewBox="0 0 50 50" fill="none" xmlns="http://www.w3.org/2000/svg">
<g id="emoji 1">
<path id="Vector" d="M25 4.35785C13.5997 4.35785 4.35791 13.5997 4.35791 25C4.35791 36.4003 13.5997 45.6421 25 45.6421C36.4003 45.6421 45.6421 36.4003 45.6421 25C45.6421 13.5997 36.4003 4.35785 25 4.35785Z" fill="#979797"/>
<path id="Vector_2" d="M24.9999 3.07916C12.9128 3.07916 3.0791 12.9128 3.0791 25C3.0791 37.0872 12.9128 46.9208 24.9999 46.9208C37.0871 46.9208 46.9208 37.0872 46.9208 25C46.9208 12.9128 37.0871 3.07916 24.9999 3.07916ZM24.9999 45.6421C13.5996 45.6421 4.35785 36.4003 4.35785 25C4.35785 13.5997 13.5996 4.35785 24.9999 4.35785C36.4003 4.35785 45.642 13.5997 45.642 25C45.642 36.4003 36.4003 45.6421 24.9999 45.6421Z" fill="#440201"/>
</g>
</svg>
